<svg width="219" height="126" viewBox="0 0 219 126" fill="none" xmlns="http://www.w3.org/2000/svg"><g clip-path="url(#clip0)"><rect x="53.244" y="17.426" width="1.156" height="1.156" rx=".578" fill="#474F60"/><rect x="58.259" y="17.425" width="1.156" height="1.156" rx=".578" fill="#474F60"/><rect x="63.273" y="17.425" width="1.156" height="1.156" rx=".578" fill="#474F60"/><rect x="68.288" y="17.425" width="1.156" height="1.156" rx=".578" fill="#474F60"/><rect x="73.303" y="17.425" width="1.156" height="1.156" rx=".578" fill="#474F60"/><rect x="78.317" y="17.425" width="1.156" height="1.156" rx=".578" fill="#474F60"/><rect x="83.332" y="17.425" width="1.156" height="1.156" rx=".578" fill="#474F60"/><rect x="88.347" y="17.425" width="1.156" height="1.156" rx=".578" fill="#474F60"/><rect x="93.361" y="17.425" width="1.156" height="1.156" rx=".578" fill="#474F60"/><rect x="98.376" y="17.425" width="1.156" height="1.156" rx=".578" fill="#474F60"/><rect x="103.391" y="17.425" width="1.156" height="1.156" rx=".578" fill="#474F60"/><rect x="108.405" y="17.425" width="1.156" height="1.156" rx=".578" fill="#474F60"/><rect x="113.42" y="17.425" width="1.156" height="1.156" rx=".578" fill="#474F60"/><rect x="118.435" y="17.425" width="1.156" height="1.156" rx=".578" fill="#474F60"/><rect x="123.449" y="17.425" width="1.156" height="1.156" rx=".578" fill="#474F60"/><rect x="128.464" y="17.425" width="1.156" height="1.156" rx=".578" fill="#474F60"/><rect x="133.479" y="17.425" width="1.156" height="1.156" rx=".578" fill="#474F60"/><rect x="138.493" y="17.425" width="1.156" height="1.156" rx=".578" fill="#474F60"/><rect x="143.508" y="17.425" width="1.156" height="1.156" rx=".578" fill="#474F60"/><rect x="148.523" y="17.425" width="1.156" height="1.156" rx=".578" fill="#474F60"/><rect x="153.537" y="17.425" width="1.156" height="1.156" rx=".578" fill="#474F60"/><rect x="158.552" y="17.425" width="1.156" height="1.156" rx=".578" fill="#474F60"/><rect x="163.566" y="17.425" width="1.156" height="1.156" rx=".578" fill="#474F60"/><rect x="168.581" y="17.425" width="1.156" height="1.156" rx=".578" fill="#474F60"/><rect x="173.596" y="17.425" width="1.156" height="1.156" rx=".578" fill="#474F60"/><rect x="178.61" y="17.425" width="1.156" height="1.156" rx=".578" fill="#474F60"/><rect x="183.625" y="17.425" width="1.156" height="1.156" rx=".578" fill="#474F60"/><rect x="188.64" y="17.425" width="1.156" height="1.156" rx=".578" fill="#474F60"/><rect x="193.654" y="17.425" width="1.156" height="1.156" rx=".578" fill="#474F60"/><rect x="53.244" y="22.44" width="1.156" height="1.156" rx=".578" fill="#474F60"/><rect x="58.259" y="22.44" width="1.156" height="1.156" rx=".578" fill="#474F60"/><rect x="63.273" y="22.44" width="1.156" height="1.156" rx=".578" fill="#474F60"/><rect x="68.288" y="22.44" width="1.156" height="1.156" rx=".578" fill="#474F60"/><rect x="73.303" y="22.44" width="1.156" height="1.156" rx=".578" fill="#474F60"/><rect x="78.317" y="22.44" width="1.156" height="1.156" rx=".578" fill="#474F60"/><rect x="83.332" y="22.44" width="1.156" height="1.156" rx=".578" fill="#474F60"/><rect x="88.347" y="22.44" width="1.156" height="1.156" rx=".578" fill="#474F60"/><rect x="93.361" y="22.44" width="1.156" height="1.156" rx=".578" fill="#474F60"/><rect x="98.376" y="22.44" width="1.156" height="1.156" rx=".578" fill="#474F60"/><rect x="103.391" y="22.44" width="1.156" height="1.156" rx=".578" fill="#474F60"/><rect x="108.405" y="22.44" width="1.156" height="1.156" rx=".578" fill="#474F60"/><rect x="113.42" y="22.44" width="1.156" height="1.156" rx=".578" fill="#474F60"/><rect x="118.435" y="22.44" width="1.156" height="1.156" rx=".578" fill="#474F60"/><rect x="123.449" y="22.44" width="1.156" height="1.156" rx=".578" fill="#474F60"/><rect x="128.464" y="22.44" width="1.156" height="1.156" rx=".578" fill="#474F60"/><rect x="133.479" y="22.44" width="1.156" height="1.156" rx=".578" fill="#474F60"/><rect x="138.493" y="22.44" width="1.156" height="1.156" rx=".578" fill="#474F60"/><rect x="143.508" y="22.44" width="1.156" height="1.156" rx=".578" fill="#474F60"/><rect x="148.523" y="22.44" width="1.156" height="1.156" rx=".578" fill="#474F60"/><rect x="153.537" y="22.44" width="1.156" height="1.156" rx=".578" fill="#474F60"/><rect x="158.552" y="22.44" width="1.156" height="1.156" rx=".578" fill="#474F60"/><rect x="163.566" y="22.44" width="1.156" height="1.156" rx=".578" fill="#474F60"/><rect x="168.581" y="22.44" width="1.156" height="1.156" rx=".578" fill="#474F60"/><rect x="173.596" y="22.44" width="1.156" height="1.156" rx=".578" fill="#474F60"/><rect x="178.61" y="22.44" width="1.156" height="1.156" rx=".578" fill="#474F60"/><rect x="183.625" y="22.44" width="1.156" height="1.156" rx=".578" fill="#474F60"/><rect x="188.64" y="22.44" width="1.156" height="1.156" rx=".578" fill="#474F60"/><rect x="193.654" y="22.44" width="1.156" height="1.156" rx=".578" fill="#474F60"/><rect x="53.244" y="27.455" width="1.156" height="1.156" rx=".578" fill="#474F60"/><rect x="58.259" y="27.455" width="1.156" height="1.156" rx=".578" fill="#474F60"/><rect x="63.273" y="27.455" width="1.156" height="1.156" rx=".578" fill="#474F60"/><rect x="68.288" y="27.455" width="1.156" height="1.156" rx=".578" fill="#474F60"/><rect x="73.303" y="27.455" width="1.156" height="1.156" rx=".578" fill="#474F60"/><rect x="78.317" y="27.455" width="1.156" height="1.156" rx=".578" fill="#474F60"/><rect x="83.332" y="27.455" width="1.156" height="1.156" rx=".578" fill="#474F60"/><rect x="88.347" y="27.455" width="1.156" height="1.156" rx=".578" fill="#474F60"/><rect x="93.361" y="27.455" width="1.156" height="1.156" rx=".578" fill="#474F60"/><rect x="98.376" y="27.455" width="1.156" height="1.156" rx=".578" fill="#474F60"/><rect x="103.391" y="27.455" width="1.156" height="1.156" rx=".578" fill="#474F60"/><rect x="108.405" y="27.455" width="1.156" height="1.156" rx=".578" fill="#474F60"/><rect x="113.42" y="27.455" width="1.156" height="1.156" rx=".578" fill="#474F60"/><rect x="118.435" y="27.455" width="1.156" height="1.156" rx=".578" fill="#474F60"/><rect x="123.449" y="27.455" width="1.156" height="1.156" rx=".578" fill="#474F60"/><rect x="128.464" y="27.455" width="1.156" height="1.156" rx=".578" fill="#474F60"/><rect x="133.479" y="27.455" width="1.156" height="1.156" rx=".578" fill="#474F60"/><rect x="138.493" y="27.455" width="1.156" height="1.156" rx=".578" fill="#474F60"/><rect x="143.508" y="27.455" width="1.156" height="1.156" rx=".578" fill="#474F60"/><rect x="148.523" y="27.455" width="1.156" height="1.156" rx=".578" fill="#474F60"/><rect x="153.537" y="27.455" width="1.156" height="1.156" rx=".578" fill="#474F60"/><rect x="158.552" y="27.455" width="1.156" height="1.156" rx=".578" fill="#474F60"/><rect x="163.566" y="27.455" width="1.156" height="1.156" rx=".578" fill="#474F60"/><rect x="168.581" y="27.455" width="1.156" height="1.156" rx=".578" fill="#474F60"/><rect x="173.596" y="27.455" width="1.156" height="1.156" rx=".578" fill="#474F60"/><rect x="178.61" y="27.455" width="1.156" height="1.156" rx=".578" fill="#474F60"/><rect x="183.625" y="27.455" width="1.156" height="1.156" rx=".578" fill="#474F60"/><rect x="188.64" y="27.455" width="1.156" height="1.156" rx=".578" fill="#474F60"/><rect x="193.654" y="27.455" width="1.156" height="1.156" rx=".578" fill="#474F60"/><rect x="53.244" y="32.469" width="1.156" height="1.156" rx=".578" fill="#474F60"/><rect x="58.259" y="32.469" width="1.156" height="1.156" rx=".578" fill="#474F60"/><rect x="63.273" y="32.469" width="1.156" height="1.156" rx=".578" fill="#474F60"/><rect x="68.288" y="32.469" width="1.156" height="1.156" rx=".578" fill="#474F60"/><rect x="73.303" y="32.469" width="1.156" height="1.156" rx=".578" fill="#474F60"/><rect x="78.317" y="32.469" width="1.156" height="1.156" rx=".578" fill="#474F60"/><rect x="83.332" y="32.469" width="1.156" height="1.156" rx=".578" fill="#474F60"/><rect x="88.347" y="32.469" width="1.156" height="1.156" rx=".578" fill="#474F60"/><rect x="93.361" y="32.469" width="1.156" height="1.156" rx=".578" fill="#474F60"/><rect x="98.376" y="32.469" width="1.156" height="1.156" rx=".578" fill="#474F60"/><rect x="103.391" y="32.469" width="1.156" height="1.156" rx=".578" fill="#474F60"/><rect x="108.405" y="32.469" width="1.156" height="1.156" rx=".578" fill="#474F60"/><rect x="113.42" y="32.469" width="1.156" height="1.156" rx=".578" fill="#474F60"/><rect x="118.435" y="32.469" width="1.156" height="1.156" rx=".578" fill="#474F60"/><rect x="123.449" y="32.469" width="1.156" height="1.156" rx=".578" fill="#474F60"/><rect x="128.464" y="32.469" width="1.156" height="1.156" rx=".578" fill="#474F60"/><rect x="133.479" y="32.469" width="1.156" height="1.156" rx=".578" fill="#474F60"/><rect x="138.493" y="32.469" width="1.156" height="1.156" rx=".578" fill="#474F60"/><rect x="143.508" y="32.469" width="1.156" height="1.156" rx=".578" fill="#474F60"/><rect x="148.523" y="32.469" width="1.156" height="1.156" rx=".578" fill="#474F60"/><rect x="153.537" y="32.469" width="1.156" height="1.156" rx=".578" fill="#474F60"/><rect x="158.552" y="32.469" width="1.156" height="1.156" rx=".578" fill="#474F60"/><rect x="163.566" y="32.469" width="1.156" height="1.156" rx=".578" fill="#474F60"/><rect x="168.581" y="32.469" width="1.156" height="1.156" rx=".578" fill="#474F60"/><rect x="173.596" y="32.469" width="1.156" height="1.156" rx=".578" fill="#474F60"/><rect x="178.61" y="32.469" width="1.156" height="1.156" rx=".578" fill="#474F60"/><rect x="183.625" y="32.469" width="1.156" height="1.156" rx=".578" fill="#474F60"/><rect x="188.64" y="32.469" width="1.156" height="1.156" rx=".578" fill="#474F60"/><rect x="193.654" y="32.469" width="1.156" height="1.156" rx=".578" fill="#474F60"/><rect x="53.244" y="37.484" width="1.156" height="1.156" rx=".578" fill="#474F60"/><rect x="58.259" y="37.484" width="1.156" height="1.156" rx=".578" fill="#474F60"/><rect x="63.273" y="37.484" width="1.156" height="1.156" rx=".578" fill="#474F60"/><rect x="68.288" y="37.484" width="1.156" height="1.156" rx=".578" fill="#474F60"/><rect x="73.303" y="37.484" width="1.156" height="1.156" rx=".578" fill="#474F60"/><rect x="78.317" y="37.484" width="1.156" height="1.156" rx=".578" fill="#474F60"/><rect x="83.332" y="37.484" width="1.156" height="1.156" rx=".578" fill="#474F60"/><rect x="88.347" y="37.484" width="1.156" height="1.156" rx=".578" fill="#474F60"/><rect x="93.361" y="37.484" width="1.156" height="1.156" rx=".578" fill="#474F60"/><rect x="98.376" y="37.484" width="1.156" height="1.156" rx=".578" fill="#474F60"/><rect x="103.391" y="37.484" width="1.156" height="1.156" rx=".578" fill="#474F60"/><rect x="108.405" y="37.484" width="1.156" height="1.156" rx=".578" fill="#474F60"/><rect x="113.42" y="37.484" width="1.156" height="1.156" rx=".578" fill="#474F60"/><rect x="118.435" y="37.484" width="1.156" height="1.156" rx=".578" fill="#474F60"/><rect x="123.449" y="37.484" width="1.156" height="1.156" rx=".578" fill="#474F60"/><rect x="128.464" y="37.484" width="1.156" height="1.156" rx=".578" fill="#474F60"/><rect x="133.479" y="37.484" width="1.156" height="1.156" rx=".578" fill="#474F60"/><rect x="138.493" y="37.484" width="1.156" height="1.156" rx=".578" fill="#474F60"/><rect x="143.508" y="37.484" width="1.156" height="1.156" rx=".578" fill="#474F60"/><rect x="148.523" y="37.484" width="1.156" height="1.156" rx=".578" fill="#474F60"/><rect x="153.537" y="37.484" width="1.156" height="1.156" rx=".578" fill="#474F60"/><rect x="158.552" y="37.484" width="1.156" height="1.156" rx=".578" fill="#474F60"/><rect x="163.566" y="37.484" width="1.156" height="1.156" rx=".578" fill="#474F60"/><rect x="168.581" y="37.484" width="1.156" height="1.156" rx=".578" fill="#474F60"/><rect x="173.596" y="37.484" width="1.156" height="1.156" rx=".578" fill="#474F60"/><rect x="178.61" y="37.484" width="1.156" height="1.156" rx=".578" fill="#474F60"/><rect x="183.625" y="37.484" width="1.156" height="1.156" rx=".578" fill="#474F60"/><rect x="188.64" y="37.484" width="1.156" height="1.156" rx=".578" fill="#474F60"/><rect x="193.654" y="37.484" width="1.156" height="1.156" rx=".578" fill="#474F60"/><rect x="53.244" y="42.498" width="1.156" height="1.156" rx=".578" fill="#474F60"/><rect x="58.259" y="42.498" width="1.156" height="1.156" rx=".578" fill="#474F60"/><rect x="63.273" y="42.498" width="1.156" height="1.156" rx=".578" fill="#474F60"/><rect x="68.288" y="42.498" width="1.156" height="1.156" rx=".578" fill="#474F60"/><rect x="73.303" y="42.498" width="1.156" height="1.156" rx=".578" fill="#474F60"/><rect x="78.317" y="42.498" width="1.156" height="1.156" rx=".578" fill="#474F60"/><rect x="83.332" y="42.498" width="1.156" height="1.156" rx=".578" fill="#474F60"/><rect x="88.347" y="42.498" width="1.156" height="1.156" rx=".578" fill="#474F60"/><rect x="93.361" y="42.498" width="1.156" height="1.156" rx=".578" fill="#474F60"/><rect x="98.376" y="42.498" width="1.156" height="1.156" rx=".578" fill="#474F60"/><rect x="103.391" y="42.498" width="1.156" height="1.156" rx=".578" fill="#474F60"/><rect x="108.405" y="42.498" width="1.156" height="1.156" rx=".578" fill="#474F60"/><rect x="113.42" y="42.498" width="1.156" height="1.156" rx=".578" fill="#474F60"/><rect x="118.435" y="42.498" width="1.156" height="1.156" rx=".578" fill="#474F60"/><rect x="123.449" y="42.498" width="1.156" height="1.156" rx=".578" fill="#474F60"/><rect x="128.464" y="42.498" width="1.156" height="1.156" rx=".578" fill="#474F60"/><rect x="133.479" y="42.498" width="1.156" height="1.156" rx=".578" fill="#474F60"/><rect x="138.493" y="42.498" width="1.156" height="1.156" rx=".578" fill="#474F60"/><rect x="143.508" y="42.498" width="1.156" height="1.156" rx=".578" fill="#474F60"/><rect x="148.523" y="42.498" width="1.156" height="1.156" rx=".578" fill="#474F60"/><rect x="153.537" y="42.498" width="1.156" height="1.156" rx=".578" fill="#474F60"/><rect x="158.552" y="42.498" width="1.156" height="1.156" rx=".578" fill="#474F60"/><rect x="163.566" y="42.498" width="1.156" height="1.156" rx=".578" fill="#474F60"/><rect x="168.581" y="42.498" width="1.156" height="1.156" rx=".578" fill="#474F60"/><rect x="173.596" y="42.498" width="1.156" height="1.156" rx=".578" fill="#474F60"/><rect x="178.61" y="42.498" width="1.156" height="1.156" rx=".578" fill="#474F60"/><rect x="183.625" y="42.498" width="1.156" height="1.156" rx=".578" fill="#474F60"/><rect x="188.64" y="42.498" width="1.156" height="1.156" rx=".578" fill="#474F60"/><rect x="193.654" y="42.498" width="1.156" height="1.156" rx=".578" fill="#474F60"/><rect x="53.244" y="47.513" width="1.156" height="1.156" rx=".578" fill="#474F60"/><rect x="58.259" y="47.513" width="1.156" height="1.156" rx=".578" fill="#474F60"/><rect x="63.273" y="47.513" width="1.156" height="1.156" rx=".578" fill="#474F60"/><rect x="68.288" y="47.513" width="1.156" height="1.156" rx=".578" fill="#474F60"/><rect x="73.303" y="47.513" width="1.156" height="1.156" rx=".578" fill="#474F60"/><rect x="78.317" y="47.513" width="1.156" height="1.156" rx=".578" fill="#474F60"/><rect x="83.332" y="47.513" width="1.156" height="1.156" rx=".578" fill="#474F60"/><rect x="88.347" y="47.513" width="1.156" height="1.156" rx=".578" fill="#474F60"/><rect x="93.361" y="47.513" width="1.156" height="1.156" rx=".578" fill="#474F60"/><rect x="98.376" y="47.513" width="1.156" height="1.156" rx=".578" fill="#474F60"/><rect x="103.391" y="47.513" width="1.156" height="1.156" rx=".578" fill="#474F60"/><rect x="108.405" y="47.513" width="1.156" height="1.156" rx=".578" fill="#474F60"/><rect x="113.42" y="47.513" width="1.156" height="1.156" rx=".578" fill="#474F60"/><rect x="118.435" y="47.513" width="1.156" height="1.156" rx=".578" fill="#474F60"/><rect x="123.449" y="47.513" width="1.156" height="1.156" rx=".578" fill="#474F60"/><rect x="128.464" y="47.513" width="1.156" height="1.156" rx=".578" fill="#474F60"/><rect x="133.479" y="47.513" width="1.156" height="1.156" rx=".578" fill="#474F60"/><rect x="138.493" y="47.513" width="1.156" height="1.156" rx=".578" fill="#474F60"/><rect x="143.508" y="47.513" width="1.156" height="1.156" rx=".578" fill="#474F60"/><rect x="148.523" y="47.513" width="1.156" height="1.156" rx=".578" fill="#474F60"/><rect x="153.537" y="47.513" width="1.156" height="1.156" rx=".578" fill="#474F60"/><rect x="158.552" y="47.513" width="1.156" height="1.156" rx=".578" fill="#474F60"/><rect x="163.566" y="47.513" width="1.156" height="1.156" rx=".578" fill="#474F60"/><rect x="168.581" y="47.513" width="1.156" height="1.156" rx=".578" fill="#474F60"/><rect x="173.596" y="47.513" width="1.156" height="1.156" rx=".578" fill="#474F60"/><rect x="178.61" y="47.513" width="1.156" height="1.156" rx=".578" fill="#474F60"/><rect x="183.625" y="47.513" width="1.156" height="1.156" rx=".578" fill="#474F60"/><rect x="188.64" y="47.513" width="1.156" height="1.156" rx=".578" fill="#474F60"/><rect x="193.654" y="47.513" width="1.156" height="1.156" rx=".578" fill="#474F60"/><rect x="53.244" y="52.528" width="1.156" height="1.156" rx=".578" fill="#474F60"/><rect x="58.259" y="52.528" width="1.156" height="1.156" rx=".578" fill="#474F60"/><rect x="63.273" y="52.528" width="1.156" height="1.156" rx=".578" fill="#474F60"/><rect x="68.288" y="52.528" width="1.156" height="1.156" rx=".578" fill="#474F60"/><rect x="73.303" y="52.528" width="1.156" height="1.156" rx=".578" fill="#474F60"/><rect x="78.317" y="52.528" width="1.156" height="1.156" rx=".578" fill="#474F60"/><rect x="83.332" y="52.528" width="1.156" height="1.156" rx=".578" fill="#474F60"/><rect x="88.347" y="52.528" width="1.156" height="1.156" rx=".578" fill="#474F60"/><rect x="93.361" y="52.528" width="1.156" height="1.156" rx=".578" fill="#474F60"/><rect x="98.376" y="52.528" width="1.156" height="1.156" rx=".578" fill="#474F60"/><rect x="103.391" y="52.528" width="1.156" height="1.156" rx=".578" fill="#474F60"/><rect x="108.405" y="52.528" width="1.156" height="1.156" rx=".578" fill="#474F60"/><rect x="113.42" y="52.528" width="1.156" height="1.156" rx=".578" fill="#474F60"/><rect x="118.435" y="52.528" width="1.156" height="1.156" rx=".578" fill="#474F60"/><rect x="123.449" y="52.528" width="1.156" height="1.156" rx=".578" fill="#474F60"/><rect x="128.464" y="52.528" width="1.156" height="1.156" rx=".578" fill="#474F60"/><rect x="133.479" y="52.528" width="1.156" height="1.156" rx=".578" fill="#474F60"/><rect x="138.493" y="52.528" width="1.156" height="1.156" rx=".578" fill="#474F60"/><rect x="143.508" y="52.528" width="1.156" height="1.156" rx=".578" fill="#474F60"/><rect x="148.523" y="52.528" width="1.156" height="1.156" rx=".578" fill="#474F60"/><rect x="153.537" y="52.528" width="1.156" height="1.156" rx=".578" fill="#474F60"/><rect x="158.552" y="52.528" width="1.156" height="1.156" rx=".578" fill="#474F60"/><rect x="163.566" y="52.528" width="1.156" height="1.156" rx=".578" fill="#474F60"/><rect x="168.581" y="52.528" width="1.156" height="1.156" rx=".578" fill="#474F60"/><rect x="173.596" y="52.528" width="1.156" height="1.156" rx=".578" fill="#474F60"/><rect x="178.61" y="52.528" width="1.156" height="1.156" rx=".578" fill="#474F60"/><rect x="183.625" y="52.528" width="1.156" height="1.156" rx=".578" fill="#474F60"/><rect x="188.64" y="52.528" width="1.156" height="1.156" rx=".578" fill="#474F60"/><rect x="193.654" y="52.528" width="1.156" height="1.156" rx=".578" fill="#474F60"/><rect x="53.244" y="57.543" width="1.156" height="1.156" rx=".578" fill="#474F60"/><rect x="58.259" y="57.543" width="1.156" height="1.156" rx=".578" fill="#474F60"/><rect x="63.273" y="57.543" width="1.156" height="1.156" rx=".578" fill="#474F60"/><rect x="68.288" y="57.543" width="1.156" height="1.156" rx=".578" fill="#474F60"/><rect x="73.303" y="57.543" width="1.156" height="1.156" rx=".578" fill="#474F60"/><rect x="78.317" y="57.543" width="1.156" height="1.156" rx=".578" fill="#474F60"/><rect x="83.332" y="57.543" width="1.156" height="1.156" rx=".578" fill="#474F60"/><rect x="88.347" y="57.543" width="1.156" height="1.156" rx=".578" fill="#474F60"/><rect x="93.361" y="57.543" width="1.156" height="1.156" rx=".578" fill="#474F60"/><rect x="98.376" y="57.543" width="1.156" height="1.156" rx=".578" fill="#474F60"/><rect x="103.391" y="57.543" width="1.156" height="1.156" rx=".578" fill="#474F60"/><rect x="108.405" y="57.543" width="1.156" height="1.156" rx=".578" fill="#474F60"/><rect x="113.42" y="57.543" width="1.156" height="1.156" rx=".578" fill="#474F60"/><rect x="118.435" y="57.543" width="1.156" height="1.156" rx=".578" fill="#474F60"/><rect x="123.449" y="57.543" width="1.156" height="1.156" rx=".578" fill="#474F60"/><rect x="128.464" y="57.543" width="1.156" height="1.156" rx=".578" fill="#474F60"/><rect x="133.479" y="57.543" width="1.156" height="1.156" rx=".578" fill="#474F60"/><rect x="138.493" y="57.543" width="1.156" height="1.156" rx=".578" fill="#474F60"/><rect x="143.508" y="57.543" width="1.156" height="1.156" rx=".578" fill="#474F60"/><rect x="148.523" y="57.543" width="1.156" height="1.156" rx=".578" fill="#474F60"/><rect x="153.537" y="57.543" width="1.156" height="1.156" rx=".578" fill="#474F60"/><rect x="158.552" y="57.543" width="1.156" height="1.156" rx=".578" fill="#474F60"/><rect x="163.566" y="57.543" width="1.156" height="1.156" rx=".578" fill="#474F60"/><rect x="168.581" y="57.543" width="1.156" height="1.156" rx=".578" fill="#474F60"/><rect x="173.596" y="57.543" width="1.156" height="1.156" rx=".578" fill="#474F60"/><rect x="178.61" y="57.543" width="1.156" height="1.156" rx=".578" fill="#474F60"/><rect x="183.625" y="57.543" width="1.156" height="1.156" rx=".578" fill="#474F60"/><rect x="188.64" y="57.543" width="1.156" height="1.156" rx=".578" fill="#474F60"/><rect x="193.654" y="57.543" width="1.156" height="1.156" rx=".578" fill="#474F60"/><rect x="53.244" y="62.557" width="1.156" height="1.156" rx=".578" fill="#474F60"/><rect x="58.259" y="62.557" width="1.156" height="1.156" rx=".578" fill="#474F60"/><rect x="63.273" y="62.557" width="1.156" height="1.156" rx=".578" fill="#474F60"/><rect x="68.288" y="62.557" width="1.156" height="1.156" rx=".578" fill="#474F60"/><rect x="73.303" y="62.557" width="1.156" height="1.156" rx=".578" fill="#474F60"/><rect x="78.317" y="62.557" width="1.156" height="1.156" rx=".578" fill="#474F60"/><rect x="83.332" y="62.557" width="1.156" height="1.156" rx=".578" fill="#474F60"/><rect x="88.347" y="62.557" width="1.156" height="1.156" rx=".578" fill="#474F60"/><rect x="93.361" y="62.557" width="1.156" height="1.156" rx=".578" fill="#474F60"/><rect x="98.376" y="62.557" width="1.156" height="1.156" rx=".578" fill="#474F60"/><rect x="103.391" y="62.557" width="1.156" height="1.156" rx=".578" fill="#474F60"/><rect x="108.405" y="62.557" width="1.156" height="1.156" rx=".578" fill="#474F60"/><rect x="113.42" y="62.557" width="1.156" height="1.156" rx=".578" fill="#474F60"/><rect x="118.435" y="62.557" width="1.156" height="1.156" rx=".578" fill="#474F60"/><rect x="123.449" y="62.557" width="1.156" height="1.156" rx=".578" fill="#474F60"/><rect x="128.464" y="62.557" width="1.156" height="1.156" rx=".578" fill="#474F60"/><rect x="133.479" y="62.557" width="1.156" height="1.156" rx=".578" fill="#474F60"/><rect x="138.493" y="62.557" width="1.156" height="1.156" rx=".578" fill="#474F60"/><rect x="143.508" y="62.557" width="1.156" height="1.156" rx=".578" fill="#474F60"/><rect x="148.523" y="62.557" width="1.156" height="1.156" rx=".578" fill="#474F60"/><rect x="153.537" y="62.557" width="1.156" height="1.156" rx=".578" fill="#474F60"/><rect x="158.552" y="62.557" width="1.156" height="1.156" rx=".578" fill="#474F60"/><rect x="163.566" y="62.557" width="1.156" height="1.156" rx=".578" fill="#474F60"/><rect x="168.581" y="62.557" width="1.156" height="1.156" rx=".578" fill="#474F60"/><rect x="173.596" y="62.557" width="1.156" height="1.156" rx=".578" fill="#474F60"/><rect x="178.61" y="62.557" width="1.156" height="1.156" rx=".578" fill="#474F60"/><rect x="183.625" y="62.557" width="1.156" height="1.156" rx=".578" fill="#474F60"/><rect x="188.64" y="62.557" width="1.156" height="1.156" rx=".578" fill="#474F60"/><rect x="193.654" y="62.557" width="1.156" height="1.156" rx=".578" fill="#474F60"/><rect x="53.244" y="67.572" width="1.156" height="1.156" rx=".578" fill="#474F60"/><rect x="58.259" y="67.572" width="1.156" height="1.156" rx=".578" fill="#474F60"/><rect x="63.273" y="67.572" width="1.156" height="1.156" rx=".578" fill="#474F60"/><rect x="68.288" y="67.572" width="1.156" height="1.156" rx=".578" fill="#474F60"/><rect x="73.303" y="67.572" width="1.156" height="1.156" rx=".578" fill="#474F60"/><rect x="78.317" y="67.572" width="1.156" height="1.156" rx=".578" fill="#474F60"/><rect x="83.332" y="67.572" width="1.156" height="1.156" rx=".578" fill="#474F60"/><rect x="88.347" y="67.572" width="1.156" height="1.156" rx=".578" fill="#474F60"/><rect x="93.361" y="67.572" width="1.156" height="1.156" rx=".578" fill="#474F60"/><rect x="98.376" y="67.572" width="1.156" height="1.156" rx=".578" fill="#474F60"/><rect x="103.391" y="67.572" width="1.156" height="1.156" rx=".578" fill="#474F60"/><rect x="108.405" y="67.572" width="1.156" height="1.156" rx=".578" fill="#474F60"/><rect x="113.42" y="67.572" width="1.156" height="1.156" rx=".578" fill="#474F60"/><rect x="118.435" y="67.572" width="1.156" height="1.156" rx=".578" fill="#474F60"/><rect x="123.449" y="67.572" width="1.156" height="1.156" rx=".578" fill="#474F60"/><rect x="128.464" y="67.572" width="1.156" height="1.156" rx=".578" fill="#474F60"/><rect x="133.479" y="67.572" width="1.156" height="1.156" rx=".578" fill="#474F60"/><rect x="138.493" y="67.572" width="1.156" height="1.156" rx=".578" fill="#474F60"/><rect x="143.508" y="67.572" width="1.156" height="1.156" rx=".578" fill="#474F60"/><rect x="148.523" y="67.572" width="1.156" height="1.156" rx=".578" fill="#474F60"/><rect x="153.537" y="67.572" width="1.156" height="1.156" rx=".578" fill="#474F60"/><rect x="158.552" y="67.572" width="1.156" height="1.156" rx=".578" fill="#474F60"/><rect x="163.566" y="67.572" width="1.156" height="1.156" rx=".578" fill="#474F60"/><rect x="168.581" y="67.572" width="1.156" height="1.156" rx=".578" fill="#474F60"/><rect x="173.596" y="67.572" width="1.156" height="1.156" rx=".578" fill="#474F60"/><rect x="178.61" y="67.572" width="1.156" height="1.156" rx=".578" fill="#474F60"/><rect x="183.625" y="67.572" width="1.156" height="1.156" rx=".578" fill="#474F60"/><rect x="188.64" y="67.572" width="1.156" height="1.156" rx=".578" fill="#474F60"/><rect x="193.654" y="67.572" width="1.156" height="1.156" rx=".578" fill="#474F60"/><rect x="53.244" y="72.587" width="1.156" height="1.156" rx=".578" fill="#474F60"/><rect x="58.259" y="72.587" width="1.156" height="1.156" rx=".578" fill="#474F60"/><rect x="63.273" y="72.587" width="1.156" height="1.156" rx=".578" fill="#474F60"/><rect x="68.288" y="72.587" width="1.156" height="1.156" rx=".578" fill="#474F60"/><rect x="73.303" y="72.587" width="1.156" height="1.156" rx=".578" fill="#474F60"/><rect x="78.317" y="72.587" width="1.156" height="1.156" rx=".578" fill="#474F60"/><rect x="83.332" y="72.587" width="1.156" height="1.156" rx=".578" fill="#474F60"/><rect x="88.347" y="72.587" width="1.156" height="1.156" rx=".578" fill="#474F60"/><rect x="93.361" y="72.587" width="1.156" height="1.156" rx=".578" fill="#474F60"/><rect x="98.376" y="72.587" width="1.156" height="1.156" rx=".578" fill="#474F60"/><rect x="103.391" y="72.587" width="1.156" height="1.156" rx=".578" fill="#474F60"/><rect x="108.405" y="72.587" width="1.156" height="1.156" rx=".578" fill="#474F60"/><rect x="113.42" y="72.587" width="1.156" height="1.156" rx=".578" fill="#474F60"/><rect x="118.435" y="72.587" width="1.156" height="1.156" rx=".578" fill="#474F60"/><rect x="123.449" y="72.587" width="1.156" height="1.156" rx=".578" fill="#474F60"/><rect x="128.464" y="72.587" width="1.156" height="1.156" rx=".578" fill="#474F60"/><rect x="133.479" y="72.587" width="1.156" height="1.156" rx=".578" fill="#474F60"/><rect x="138.493" y="72.587" width="1.156" height="1.156" rx=".578" fill="#474F60"/><rect x="143.508" y="72.587" width="1.156" height="1.156" rx=".578" fill="#474F60"/><rect x="148.523" y="72.587" width="1.156" height="1.156" rx=".578" fill="#474F60"/><rect x="153.537" y="72.587" width="1.156" height="1.156" rx=".578" fill="#474F60"/><rect x="158.552" y="72.587" width="1.156" height="1.156" rx=".578" fill="#474F60"/><rect x="163.566" y="72.587" width="1.156" height="1.156" rx=".578" fill="#474F60"/><rect x="168.581" y="72.587" width="1.156" height="1.156" rx=".578" fill="#474F60"/><rect x="173.596" y="72.587" width="1.156" height="1.156" rx=".578" fill="#474F60"/><rect x="178.61" y="72.587" width="1.156" height="1.156" rx=".578" fill="#474F60"/><rect x="183.625" y="72.587" width="1.156" height="1.156" rx=".578" fill="#474F60"/><rect x="188.64" y="72.587" width="1.156" height="1.156" rx=".578" fill="#474F60"/><rect x="193.654" y="72.587" width="1.156" height="1.156" rx=".578" fill="#474F60"/><rect x="53.244" y="77.601" width="1.156" height="1.156" rx=".578" fill="#474F60"/><rect x="58.259" y="77.601" width="1.156" height="1.156" rx=".578" fill="#474F60"/><rect x="63.273" y="77.601" width="1.156" height="1.156" rx=".578" fill="#474F60"/><rect x="68.288" y="77.601" width="1.156" height="1.156" rx=".578" fill="#474F60"/><rect x="73.303" y="77.601" width="1.156" height="1.156" rx=".578" fill="#474F60"/><rect x="78.317" y="77.601" width="1.156" height="1.156" rx=".578" fill="#474F60"/><rect x="83.332" y="77.601" width="1.156" height="1.156" rx=".578" fill="#474F60"/><rect x="88.347" y="77.601" width="1.156" height="1.156" rx=".578" fill="#474F60"/><rect x="93.361" y="77.601" width="1.156" height="1.156" rx=".578" fill="#474F60"/><rect x="98.376" y="77.601" width="1.156" height="1.156" rx=".578" fill="#474F60"/><rect x="103.391" y="77.601" width="1.156" height="1.156" rx=".578" fill="#474F60"/><rect x="108.405" y="77.601" width="1.156" height="1.156" rx=".578" fill="#474F60"/><rect x="113.42" y="77.601" width="1.156" height="1.156" rx=".578" fill="#474F60"/><rect x="118.435" y="77.601" width="1.156" height="1.156" rx=".578" fill="#474F60"/><rect x="123.449" y="77.601" width="1.156" height="1.156" rx=".578" fill="#474F60"/><rect x="128.464" y="77.601" width="1.156" height="1.156" rx=".578" fill="#474F60"/><rect x="133.479" y="77.601" width="1.156" height="1.156" rx=".578" fill="#474F60"/><rect x="138.493" y="77.601" width="1.156" height="1.156" rx=".578" fill="#474F60"/><rect x="143.508" y="77.601" width="1.156" height="1.156" rx=".578" fill="#474F60"/><rect x="148.523" y="77.601" width="1.156" height="1.156" rx=".578" fill="#474F60"/><rect x="153.537" y="77.601" width="1.156" height="1.156" rx=".578" fill="#474F60"/><rect x="158.552" y="77.601" width="1.156" height="1.156" rx=".578" fill="#474F60"/><rect x="163.566" y="77.601" width="1.156" height="1.156" rx=".578" fill="#474F60"/><rect x="168.581" y="77.601" width="1.156" height="1.156" rx=".578" fill="#474F60"/><rect x="173.596" y="77.601" width="1.156" height="1.156" rx=".578" fill="#474F60"/><rect x="178.61" y="77.601" width="1.156" height="1.156" rx=".578" fill="#474F60"/><rect x="183.625" y="77.601" width="1.156" height="1.156" rx=".578" fill="#474F60"/><rect x="188.64" y="77.601" width="1.156" height="1.156" rx=".578" fill="#474F60"/><rect x="193.654" y="77.601" width="1.156" height="1.156" rx=".578" fill="#474F60"/><rect x="53.244" y="82.616" width="1.156" height="1.156" rx=".578" fill="#474F60"/><rect x="58.259" y="82.616" width="1.156" height="1.156" rx=".578" fill="#474F60"/><rect x="63.273" y="82.616" width="1.156" height="1.156" rx=".578" fill="#474F60"/><rect x="68.288" y="82.616" width="1.156" height="1.156" rx=".578" fill="#474F60"/><rect x="73.303" y="82.616" width="1.156" height="1.156" rx=".578" fill="#474F60"/><rect x="78.317" y="82.616" width="1.156" height="1.156" rx=".578" fill="#474F60"/><rect x="83.332" y="82.616" width="1.156" height="1.156" rx=".578" fill="#474F60"/><rect x="88.347" y="82.616" width="1.156" height="1.156" rx=".578" fill="#474F60"/><rect x="93.361" y="82.616" width="1.156" height="1.156" rx=".578" fill="#474F60"/><rect x="98.376" y="82.616" width="1.156" height="1.156" rx=".578" fill="#474F60"/><rect x="103.391" y="82.616" width="1.156" height="1.156" rx=".578" fill="#474F60"/><rect x="108.405" y="82.616" width="1.156" height="1.156" rx=".578" fill="#474F60"/><rect x="113.42" y="82.616" width="1.156" height="1.156" rx=".578" fill="#474F60"/><rect x="118.435" y="82.616" width="1.156" height="1.156" rx=".578" fill="#474F60"/><rect x="123.449" y="82.616" width="1.156" height="1.156" rx=".578" fill="#474F60"/><rect x="128.464" y="82.616" width="1.156" height="1.156" rx=".578" fill="#474F60"/><rect x="133.479" y="82.616" width="1.156" height="1.156" rx=".578" fill="#474F60"/><rect x="138.493" y="82.616" width="1.156" height="1.156" rx=".578" fill="#474F60"/><rect x="143.508" y="82.616" width="1.156" height="1.156" rx=".578" fill="#474F60"/><rect x="148.523" y="82.616" width="1.156" height="1.156" rx=".578" fill="#474F60"/><rect x="153.537" y="82.616" width="1.156" height="1.156" rx=".578" fill="#474F60"/><rect x="158.552" y="82.616" width="1.156" height="1.156" rx=".578" fill="#474F60"/><rect x="163.566" y="82.616" width="1.156" height="1.156" rx=".578" fill="#474F60"/><rect x="168.581" y="82.616" width="1.156" height="1.156" rx=".578" fill="#474F60"/><rect x="173.596" y="82.616" width="1.156" height="1.156" rx=".578" fill="#474F60"/><rect x="178.61" y="82.616" width="1.156" height="1.156" rx=".578" fill="#474F60"/><rect x="183.625" y="82.616" width="1.156" height="1.156" rx=".578" fill="#474F60"/><rect x="188.64" y="82.616" width="1.156" height="1.156" rx=".578" fill="#474F60"/><rect x="193.654" y="82.616" width="1.156" height="1.156" rx=".578" fill="#474F60"/><rect x="53.244" y="87.631" width="1.156" height="1.156" rx=".578" fill="#474F60"/><rect x="58.259" y="87.631" width="1.156" height="1.156" rx=".578" fill="#474F60"/><rect x="63.273" y="87.631" width="1.156" height="1.156" rx=".578" fill="#474F60"/><rect x="68.288" y="87.631" width="1.156" height="1.156" rx=".578" fill="#474F60"/><rect x="73.303" y="87.631" width="1.156" height="1.156" rx=".578" fill="#474F60"/><rect x="78.317" y="87.631" width="1.156" height="1.156" rx=".578" fill="#474F60"/><rect x="83.332" y="87.631" width="1.156" height="1.156" rx=".578" fill="#474F60"/><rect x="88.347" y="87.631" width="1.156" height="1.156" rx=".578" fill="#474F60"/><rect x="93.361" y="87.631" width="1.156" height="1.156" rx=".578" fill="#474F60"/><rect x="98.376" y="87.631" width="1.156" height="1.156" rx=".578" fill="#474F60"/><rect x="103.391" y="87.631" width="1.156" height="1.156" rx=".578" fill="#474F60"/><rect x="108.405" y="87.631" width="1.156" height="1.156" rx=".578" fill="#474F60"/><rect x="113.42" y="87.631" width="1.156" height="1.156" rx=".578" fill="#474F60"/><rect x="118.435" y="87.631" width="1.156" height="1.156" rx=".578" fill="#474F60"/><rect x="123.449" y="87.631" width="1.156" height="1.156" rx=".578" fill="#474F60"/><rect x="128.464" y="87.631" width="1.156" height="1.156" rx=".578" fill="#474F60"/><rect x="133.479" y="87.631" width="1.156" height="1.156" rx=".578" fill="#474F60"/><rect x="138.493" y="87.631" width="1.156" height="1.156" rx=".578" fill="#474F60"/><rect x="143.508" y="87.631" width="1.156" height="1.156" rx=".578" fill="#474F60"/><rect x="148.523" y="87.631" width="1.156" height="1.156" rx=".578" fill="#474F60"/><rect x="153.537" y="87.631" width="1.156" height="1.156" rx=".578" fill="#474F60"/><rect x="158.552" y="87.631" width="1.156" height="1.156" rx=".578" fill="#474F60"/><rect x="163.566" y="87.631" width="1.156" height="1.156" rx=".578" fill="#474F60"/><rect x="168.581" y="87.631" width="1.156" height="1.156" rx=".578" fill="#474F60"/><rect x="173.596" y="87.631" width="1.156" height="1.156" rx=".578" fill="#474F60"/><rect x="178.61" y="87.631" width="1.156" height="1.156" rx=".578" fill="#474F60"/><rect x="183.625" y="87.631" width="1.156" height="1.156" rx=".578" fill="#474F60"/><rect x="188.64" y="87.631" width="1.156" height="1.156" rx=".578" fill="#474F60"/><rect x="193.654" y="87.631" width="1.156" height="1.156" rx=".578" fill="#474F60"/><rect x="53.244" y="92.645" width="1.156" height="1.156" rx=".578" fill="#474F60"/><rect x="58.259" y="92.645" width="1.156" height="1.156" rx=".578" fill="#474F60"/><rect x="63.273" y="92.645" width="1.156" height="1.156" rx=".578" fill="#474F60"/><rect x="68.288" y="92.645" width="1.156" height="1.156" rx=".578" fill="#474F60"/><rect x="73.303" y="92.645" width="1.156" height="1.156" rx=".578" fill="#474F60"/><rect x="78.317" y="92.645" width="1.156" height="1.156" rx=".578" fill="#474F60"/><rect x="83.332" y="92.645" width="1.156" height="1.156" rx=".578" fill="#474F60"/><rect x="88.347" y="92.645" width="1.156" height="1.156" rx=".578" fill="#474F60"/><rect x="93.361" y="92.645" width="1.156" height="1.156" rx=".578" fill="#474F60"/><rect x="98.376" y="92.645" width="1.156" height="1.156" rx=".578" fill="#474F60"/><rect x="103.391" y="92.645" width="1.156" height="1.156" rx=".578" fill="#474F60"/><rect x="108.405" y="92.645" width="1.156" height="1.156" rx=".578" fill="#474F60"/><rect x="113.42" y="92.645" width="1.156" height="1.156" rx=".578" fill="#474F60"/><rect x="118.435" y="92.645" width="1.156" height="1.156" rx=".578" fill="#474F60"/><rect x="123.449" y="92.645" width="1.156" height="1.156" rx=".578" fill="#474F60"/><rect x="128.464" y="92.645" width="1.156" height="1.156" rx=".578" fill="#474F60"/><rect x="133.479" y="92.645" width="1.156" height="1.156" rx=".578" fill="#474F60"/><rect x="138.493" y="92.645" width="1.156" height="1.156" rx=".578" fill="#474F60"/><rect x="143.508" y="92.645" width="1.156" height="1.156" rx=".578" fill="#474F60"/><rect x="148.523" y="92.645" width="1.156" height="1.156" rx=".578" fill="#474F60"/><rect x="153.537" y="92.645" width="1.156" height="1.156" rx=".578" fill="#474F60"/><rect x="158.552" y="92.645" width="1.156" height="1.156" rx=".578" fill="#474F60"/><rect x="163.566" y="92.645" width="1.156" height="1.156" rx=".578" fill="#474F60"/><rect x="168.581" y="92.645" width="1.156" height="1.156" rx=".578" fill="#474F60"/><rect x="173.596" y="92.645" width="1.156" height="1.156" rx=".578" fill="#474F60"/><rect x="178.61" y="92.645" width="1.156" height="1.156" rx=".578" fill="#474F60"/><rect x="183.625" y="92.645" width="1.156" height="1.156" rx=".578" fill="#474F60"/><rect x="188.64" y="92.645" width="1.156" height="1.156" rx=".578" fill="#474F60"/><rect x="193.654" y="92.645" width="1.156" height="1.156" rx=".578" fill="#474F60"/><rect x="53.244" y="97.66" width="1.156" height="1.156" rx=".578" fill="#474F60"/><rect x="58.259" y="97.66" width="1.156" height="1.156" rx=".578" fill="#474F60"/><rect x="63.273" y="97.66" width="1.156" height="1.156" rx=".578" fill="#474F60"/><rect x="68.288" y="97.66" width="1.156" height="1.156" rx=".578" fill="#474F60"/><rect x="73.303" y="97.66" width="1.156" height="1.156" rx=".578" fill="#474F60"/><rect x="78.317" y="97.66" width="1.156" height="1.156" rx=".578" fill="#474F60"/><rect x="83.332" y="97.66" width="1.156" height="1.156" rx=".578" fill="#474F60"/><rect x="88.347" y="97.66" width="1.156" height="1.156" rx=".578" fill="#474F60"/><rect x="93.361" y="97.66" width="1.156" height="1.156" rx=".578" fill="#474F60"/><rect x="98.376" y="97.66" width="1.156" height="1.156" rx=".578" fill="#474F60"/><rect x="103.391" y="97.66" width="1.156" height="1.156" rx=".578" fill="#474F60"/><rect x="108.405" y="97.66" width="1.156" height="1.156" rx=".578" fill="#474F60"/><rect x="113.42" y="97.66" width="1.156" height="1.156" rx=".578" fill="#474F60"/><rect x="118.435" y="97.66" width="1.156" height="1.156" rx=".578" fill="#474F60"/><rect x="123.449" y="97.66" width="1.156" height="1.156" rx=".578" fill="#474F60"/><rect x="128.464" y="97.66" width="1.156" height="1.156" rx=".578" fill="#474F60"/><rect x="133.479" y="97.66" width="1.156" height="1.156" rx=".578" fill="#474F60"/><rect x="138.493" y="97.66" width="1.156" height="1.156" rx=".578" fill="#474F60"/><rect x="143.508" y="97.66" width="1.156" height="1.156" rx=".578" fill="#474F60"/><rect x="148.523" y="97.66" width="1.156" height="1.156" rx=".578" fill="#474F60"/><rect x="153.537" y="97.66" width="1.156" height="1.156" rx=".578" fill="#474F60"/><rect x="158.552" y="97.66" width="1.156" height="1.156" rx=".578" fill="#474F60"/><rect x="163.566" y="97.66" width="1.156" height="1.156" rx=".578" fill="#474F60"/><rect x="168.581" y="97.66" width="1.156" height="1.156" rx=".578" fill="#474F60"/><rect x="173.596" y="97.66" width="1.156" height="1.156" rx=".578" fill="#474F60"/><rect x="178.61" y="97.66" width="1.156" height="1.156" rx=".578" fill="#474F60"/><rect x="183.625" y="97.66" width="1.156" height="1.156" rx=".578" fill="#474F60"/><rect x="188.64" y="97.66" width="1.156" height="1.156" rx=".578" fill="#474F60"/><rect x="193.654" y="97.66" width="1.156" height="1.156" rx=".578" fill="#474F60"/><rect x="53.244" y="102.675" width="1.156" height="1.156" rx=".578" fill="#474F60"/><rect x="58.259" y="102.675" width="1.156" height="1.156" rx=".578" fill="#474F60"/><rect x="63.273" y="102.675" width="1.156" height="1.156" rx=".578" fill="#474F60"/><rect x="68.288" y="102.675" width="1.156" height="1.156" rx=".578" fill="#474F60"/><rect x="73.303" y="102.675" width="1.156" height="1.156" rx=".578" fill="#474F60"/><rect x="78.317" y="102.675" width="1.156" height="1.156" rx=".578" fill="#474F60"/><rect x="83.332" y="102.675" width="1.156" height="1.156" rx=".578" fill="#474F60"/><rect x="88.347" y="102.675" width="1.156" height="1.156" rx=".578" fill="#474F60"/><rect x="93.361" y="102.675" width="1.156" height="1.156" rx=".578" fill="#474F60"/><rect x="98.376" y="102.675" width="1.156" height="1.156" rx=".578" fill="#474F60"/><rect x="103.391" y="102.675" width="1.156" height="1.156" rx=".578" fill="#474F60"/><rect x="108.405" y="102.675" width="1.156" height="1.156" rx=".578" fill="#474F60"/><rect x="113.42" y="102.675" width="1.156" height="1.156" rx=".578" fill="#474F60"/><rect x="118.435" y="102.675" width="1.156" height="1.156" rx=".578" fill="#474F60"/><rect x="123.449" y="102.675" width="1.156" height="1.156" rx=".578" fill="#474F60"/><rect x="128.464" y="102.675" width="1.156" height="1.156" rx=".578" fill="#474F60"/><rect x="133.479" y="102.675" width="1.156" height="1.156" rx=".578" fill="#474F60"/><rect x="138.493" y="102.675" width="1.156" height="1.156" rx=".578" fill="#474F60"/><rect x="143.508" y="102.675" width="1.156" height="1.156" rx=".578" fill="#474F60"/><rect x="148.523" y="102.675" width="1.156" height="1.156" rx=".578" fill="#474F60"/><rect x="153.537" y="102.675" width="1.156" height="1.156" rx=".578" fill="#474F60"/><rect x="158.552" y="102.675" width="1.156" height="1.156" rx=".578" fill="#474F60"/><rect x="163.566" y="102.675" width="1.156" height="1.156" rx=".578" fill="#474F60"/><rect x="168.581" y="102.675" width="1.156" height="1.156" rx=".578" fill="#474F60"/><rect x="173.596" y="102.675" width="1.156" height="1.156" rx=".578" fill="#474F60"/><rect x="178.61" y="102.675" width="1.156" height="1.156" rx=".578" fill="#474F60"/><rect x="183.625" y="102.675" width="1.156" height="1.156" rx=".578" fill="#474F60"/><rect x="188.64" y="102.675" width="1.156" height="1.156" rx=".578" fill="#474F60"/><rect x="193.654" y="102.675" width="1.156" height="1.156" rx=".578" fill="#474F60"/><rect x="53.244" y="107.689" width="1.156" height="1.156" rx=".578" fill="#474F60"/><rect x="58.259" y="107.689" width="1.156" height="1.156" rx=".578" fill="#474F60"/><rect x="63.273" y="107.689" width="1.156" height="1.156" rx=".578" fill="#474F60"/><rect x="68.288" y="107.689" width="1.156" height="1.156" rx=".578" fill="#474F60"/><rect x="73.303" y="107.689" width="1.156" height="1.156" rx=".578" fill="#474F60"/><rect x="78.317" y="107.689" width="1.156" height="1.156" rx=".578" fill="#474F60"/><rect x="83.332" y="107.689" width="1.156" height="1.156" rx=".578" fill="#474F60"/><rect x="88.347" y="107.689" width="1.156" height="1.156" rx=".578" fill="#474F60"/><rect x="93.361" y="107.689" width="1.156" height="1.156" rx=".578" fill="#474F60"/><rect x="98.376" y="107.689" width="1.156" height="1.156" rx=".578" fill="#474F60"/><rect x="103.391" y="107.689" width="1.156" height="1.156" rx=".578" fill="#474F60"/><rect x="108.405" y="107.689" width="1.156" height="1.156" rx=".578" fill="#474F60"/><rect x="113.42" y="107.689" width="1.156" height="1.156" rx=".578" fill="#474F60"/><rect x="118.435" y="107.689" width="1.156" height="1.156" rx=".578" fill="#474F60"/><rect x="123.449" y="107.689" width="1.156" height="1.156" rx=".578" fill="#474F60"/><rect x="128.464" y="107.689" width="1.156" height="1.156" rx=".578" fill="#474F60"/><rect x="133.479" y="107.689" width="1.156" height="1.156" rx=".578" fill="#474F60"/><rect x="138.493" y="107.689" width="1.156" height="1.156" rx=".578" fill="#474F60"/><rect x="143.508" y="107.689" width="1.156" height="1.156" rx=".578" fill="#474F60"/><rect x="148.523" y="107.689" width="1.156" height="1.156" rx=".578" fill="#474F60"/><rect x="153.537" y="107.689" width="1.156" height="1.156" rx=".578" fill="#474F60"/><rect x="158.552" y="107.689" width="1.156" height="1.156" rx=".578" fill="#474F60"/><rect x="163.566" y="107.689" width="1.156" height="1.156" rx=".578" fill="#474F60"/><rect x="168.581" y="107.689" width="1.156" height="1.156" rx=".578" fill="#474F60"/><rect x="173.596" y="107.689" width="1.156" height="1.156" rx=".578" fill="#474F60"/><rect x="178.61" y="107.689" width="1.156" height="1.156" rx=".578" fill="#474F60"/><rect x="183.625" y="107.689" width="1.156" height="1.156" rx=".578" fill="#474F60"/><rect x="188.64" y="107.689" width="1.156" height="1.156" rx=".578" fill="#474F60"/><rect x="193.654" y="107.689" width="1.156" height="1.156" rx=".578" fill="#474F60"/><rect x="53.244" y="112.704" width="1.156" height="1.156" rx=".578" fill="#474F60"/><rect x="58.259" y="112.704" width="1.156" height="1.156" rx=".578" fill="#474F60"/><rect x="63.273" y="112.704" width="1.156" height="1.156" rx=".578" fill="#474F60"/><rect x="68.288" y="112.704" width="1.156" height="1.156" rx=".578" fill="#474F60"/><rect x="73.303" y="112.704" width="1.156" height="1.156" rx=".578" fill="#474F60"/><rect x="78.317" y="112.704" width="1.156" height="1.156" rx=".578" fill="#474F60"/><rect x="83.332" y="112.704" width="1.156" height="1.156" rx=".578" fill="#474F60"/><rect x="88.347" y="112.704" width="1.156" height="1.156" rx=".578" fill="#474F60"/><rect x="93.361" y="112.704" width="1.156" height="1.156" rx=".578" fill="#474F60"/><rect x="98.376" y="112.704" width="1.156" height="1.156" rx=".578" fill="#474F60"/><rect x="103.391" y="112.704" width="1.156" height="1.156" rx=".578" fill="#474F60"/><rect x="108.405" y="112.704" width="1.156" height="1.156" rx=".578" fill="#474F60"/><rect x="113.42" y="112.704" width="1.156" height="1.156" rx=".578" fill="#474F60"/><rect x="118.435" y="112.704" width="1.156" height="1.156" rx=".578" fill="#474F60"/><rect x="123.449" y="112.704" width="1.156" height="1.156" rx=".578" fill="#474F60"/><rect x="128.464" y="112.704" width="1.156" height="1.156" rx=".578" fill="#474F60"/><rect x="133.479" y="112.704" width="1.156" height="1.156" rx=".578" fill="#474F60"/><rect x="138.493" y="112.704" width="1.156" height="1.156" rx=".578" fill="#474F60"/><rect x="143.508" y="112.704" width="1.156" height="1.156" rx=".578" fill="#474F60"/><rect x="148.523" y="112.704" width="1.156" height="1.156" rx=".578" fill="#474F60"/><rect x="153.537" y="112.704" width="1.156" height="1.156" rx=".578" fill="#474F60"/><rect x="158.552" y="112.704" width="1.156" height="1.156" rx=".578" fill="#474F60"/><rect x="163.566" y="112.704" width="1.156" height="1.156" rx=".578" fill="#474F60"/><rect x="168.581" y="112.704" width="1.156" height="1.156" rx=".578" fill="#474F60"/><rect x="173.596" y="112.704" width="1.156" height="1.156" rx=".578" fill="#474F60"/><rect x="178.61" y="112.704" width="1.156" height="1.156" rx=".578" fill="#474F60"/><rect x="183.625" y="112.704" width="1.156" height="1.156" rx=".578" fill="#474F60"/><rect x="188.64" y="112.704" width="1.156" height="1.156" rx=".578" fill="#474F60"/><rect x="193.654" y="112.704" width="1.156" height="1.156" rx=".578" fill="#474F60"/><rect x="53.244" y="117.719" width="1.156" height="1.156" rx=".578" fill="#474F60"/><rect x="58.259" y="117.719" width="1.156" height="1.156" rx=".578" fill="#474F60"/><rect x="63.273" y="117.719" width="1.156" height="1.156" rx=".578" fill="#474F60"/><rect x="68.288" y="117.719" width="1.156" height="1.156" rx=".578" fill="#474F60"/><rect x="73.303" y="117.719" width="1.156" height="1.156" rx=".578" fill="#474F60"/><rect x="78.317" y="117.719" width="1.156" height="1.156" rx=".578" fill="#474F60"/><rect x="83.332" y="117.719" width="1.156" height="1.156" rx=".578" fill="#474F60"/><rect x="88.347" y="117.719" width="1.156" height="1.156" rx=".578" fill="#474F60"/><rect x="93.361" y="117.719" width="1.156" height="1.156" rx=".578" fill="#474F60"/><rect x="98.376" y="117.719" width="1.156" height="1.156" rx=".578" fill="#474F60"/><rect x="103.391" y="117.719" width="1.156" height="1.156" rx=".578" fill="#474F60"/><rect x="108.405" y="117.719" width="1.156" height="1.156" rx=".578" fill="#474F60"/><rect x="113.42" y="117.719" width="1.156" height="1.156" rx=".578" fill="#474F60"/><rect x="118.435" y="117.719" width="1.156" height="1.156" rx=".578" fill="#474F60"/><rect x="123.449" y="117.719" width="1.156" height="1.156" rx=".578" fill="#474F60"/><rect x="128.464" y="117.719" width="1.156" height="1.156" rx=".578" fill="#474F60"/><rect x="133.479" y="117.719" width="1.156" height="1.156" rx=".578" fill="#474F60"/><rect x="138.493" y="117.719" width="1.156" height="1.156" rx=".578" fill="#474F60"/><rect x="143.508" y="117.719" width="1.156" height="1.156" rx=".578" fill="#474F60"/><rect x="148.523" y="117.719" width="1.156" height="1.156" rx=".578" fill="#474F60"/><rect x="153.537" y="117.719" width="1.156" height="1.156" rx=".578" fill="#474F60"/><rect x="158.552" y="117.719" width="1.156" height="1.156" rx=".578" fill="#474F60"/><rect x="163.566" y="117.719" width="1.156" height="1.156" rx=".578" fill="#474F60"/><rect x="168.581" y="117.719" width="1.156" height="1.156" rx=".578" fill="#474F60"/><rect x="173.596" y="117.719" width="1.156" height="1.156" rx=".578" fill="#474F60"/><rect x="178.61" y="117.719" width="1.156" height="1.156" rx=".578" fill="#474F60"/><rect x="183.625" y="117.719" width="1.156" height="1.156" rx=".578" fill="#474F60"/><rect x="188.64" y="117.719" width="1.156" height="1.156" rx=".578" fill="#474F60"/><rect x="193.654" y="117.719" width="1.156" height="1.156" rx=".578" fill="#474F60"/><mask id="path-610-inside-1" fill="#fff"><rect x="21.634" y="7.403" width="159.595" height="94.832" rx="1.383"/></mask><rect x="21.634" y="7.403" width="159.595" height="94.832" rx="1.383" fill="#fff" stroke="#333A4A" stroke-width="3.084" mask="url(#path-610-inside-1)"/><path stroke="#727C90" stroke-width="1.542" stroke-dasharray="4.63 7.71" d="M84.084 39.784h82.496v49.343H84.084z"/><rect x="84.084" y="16.654" width="28.527" height="14.649" rx="7.324" fill="#1ABF7E"/><circle cx="92.95" cy="23.979" r="5.011" fill="#fff"/><mask id="path-614-inside-2" fill="#fff"><rect x=".817" y="2.006" width="66.305" height="65.534" rx="1.383"/></mask><rect x=".817" y="2.006" width="66.305" height="65.534" rx="1.383" fill="#fff" stroke="#474F60" stroke-width="3.084" mask="url(#path-614-inside-2)"/><circle cx="11.996" cy="14.727" r="5.011" fill="#1ABF7E"/><circle cx="11.996" cy="32.46" r="4.626" stroke="#F58F00" stroke-width=".771"/><circle cx="11.996" cy="49.422" r="4.626" stroke="#F58F00" stroke-width=".771"/><path d="M117.044 65.303h6.361v6.746h2.313v-6.746h6.36v-2.12h-6.36v-6.746h-2.313v6.746h-6.361v2.12z" fill="#727C90"/><path d="M69.43 81.877a.345.345 0 01-.346.352h-7.998l4.511 10.696-4.455 1.937-4.608-10.921-5.909 5.221a.312.312 0 01-.22.085.345.345 0 01-.346-.351V62.928c0-.196.152-.351.345-.351.098 0 .18.041.25.097l18.68 18.951c.054.07.096.155.096.252z" fill="#1ABF7E"/><path d="M53.287 65.346l-2.633-2.672a.395.395 0 00-.25-.097.345.345 0 00-.346.351v25.97c0 .196.153.35.346.35a.31.31 0 00.221-.084l2.662-2.353V65.346z" fill="#21A37A"/><path d="M70.865 99.525a2.155 2.155 0 01-2.153-2.152c0-1.187.966-2.153 2.153-2.153 1.186 0 2.152.966 2.152 2.153a2.155 2.155 0 01-2.152 2.152zm0-2.87a.718.718 0 100 1.436.718.718 0 000-1.436zM45.263 57.647l1.015-1.015 2.03 2.03-1.016 1.014-2.029-2.029zm-.255 6.849l2.03-2.03 1.014 1.015-2.029 2.03-1.015-1.015zm5.835-5.833l2.03-2.029 1.014 1.015-2.03 2.029-1.014-1.015z" fill="#A6AFC0"/><path d="M61.142 95.938a1.073 1.073 0 01-.992-.658l-4.026-9.54-4.785 4.23c-.201.206-.561.354-.935.354-.783 0-1.422-.64-1.422-1.428V62.928c0-.787.639-1.427 1.422-1.427.332 0 .653.116.926.337L70.1 80.87c.293.36.406.677.406 1.007 0 .786-.639 1.427-1.422 1.427h-6.375l3.88 9.202c.23.544-.022 1.17-.563 1.405l-4.455 1.937a1.083 1.083 0 01-.43.09zm-4.608-13.073a1.073 1.073 0 01.991.659l4.186 9.918 2.481-1.08-4.096-9.715a1.075 1.075 0 01.991-1.494h6.278l-16.23-16.457V87.28l4.686-4.145a1.08 1.08 0 01.713-.27zm-6.59 5.468a.83.83 0 00-.084.074l.084-.074z" fill="#262B37"/><path d="M23.947 14.727l.052.058.053.057.053.058.053.058.053.057.053.057.053.057.052.056.053.056.053.055.053.055.053.055.053.054.053.053.053.052.053.052.052.05.053.05.053.05.053.048.053.047.053.047.053.045.052.044.053.043.053.041.053.04.053.04.053.038.053.037.053.035.053.034.052.032.053.031.053.03.053.028.053.026.053.025.053.024.052.021.053.02.053.019.053.017.053.015.053.014.053.011.053.01.053.009.052.006.053.006.053.003.053.001h.053l.053-.002.053-.004.052-.005.053-.007.053-.01.053-.01.053-.012.053-.014.053-.016.053-.017.053-.019.052-.02.053-.023.053-.024.053-.025.053-.027.053-.028.053-.03.052-.032.053-.032.053-.035.053-.035.053-.037.053-.039.053-.04.053-.04.053-.042.052-.043.053-.045.053-.045.053-.047.053-.047.053-.049.053-.05.052-.05.053-.05.053-.052.053-.053.053-.053.053-.054.053-.055.053-.055.053-.056.052-.056.053-.056.053-.057.053-.057.053-.058.053-.057.053-.058.052-.058.053-.057.053-.058.053-.058.053-.058.053-.057.053-.057.053-.057.053-.057.052-.056.053-.056.053-.055.053-.055.053-.054.053-.054.053-.053.052-.052.053-.052.053-.05.053-.05.053-.049.053-.048.053-.047.053-.046.053-.045.052-.043.053-.043.053-.041.053-.04.053-.04.053-.037.053-.036.053-.035.052-.033.053-.032.053-.031.053-.03.053-.027.053-.026.053-.024.053-.023.052-.021.053-.02.053-.018.053-.017.053-.014.053-.013.053-.012.053-.01.052-.007.053-.007.053-.004.053-.003h.106l.053.002.053.005.052.006.053.007.053.01.053.01.053.014.053.014.053.016.053.018.052.02.053.02.053.023.053.024.053.026.053.027.053.03.053.03.052.031.053.034.053.034.053.036.053.038.053.038.053.04.053.042.052.042.053.043.053.045.053.046.053.047.053.047.053.05.053.049.052.05.053.052.053.052.053.053.053.053.053.054.053.055.053.055.052.056.053.056.053.057.053.057.053.057.053.057.053.058.053.058.052.057.053.058.053.058.053.058.053.057.053.058.053.057.053.057.052.056.053.056.053.056.053.055.053.055.053.054.053.053.053.053.052.052.053.052.053.05.053.05.053.048.053.048.053.046.053.046.052.045.053.043.053.042.053.041.053.04.053.038.053.038.053.036.052.034.053.033.053.032.053.03.053.029.053.027.053.025.053.024.052.023.053.02.053.02.053.018.053.015.053.015.053.012.053.011.052.01.053.007.053.006.053.003.053.003h.106l.053-.004.052-.005.053-.006.053-.008.053-.01.053-.011.053-.014.053-.015.053-.016.052-.018.053-.02.053-.022.053-.023.053-.025.053-.026.053-.028.053-.029.052-.03.053-.033.053-.034.053-.035.053-.036.053-.038.053-.039.053-.04.052-.042.053-.042.053-.044.053-.045.053-.046.053-.047.053-.048.053-.05.052-.05.053-.05.053-.052.053-.052.053-.053.053-.054.053-.054.053-.055.052-.055.053-.056.053-.056.053-.057.053-.057.053-.057.053-.058.053-.057.052-.058.053-.058.053-.058.053-.058.053-.057.053-.058.053-.057.053-.057.052-.057.053-.056.053-.056.053-.056.053-.055.053-.055.053-.053.053-.054.052-.052.053-.052.053-.051.053-.05.053-.05.053-.048.053-.047.053-.047.052-.045.053-.044.053-.043.053-.042.053-.04.053-.04.053-.039.053-.036.052-.036.053-.034.053-.033.053-.03.053-.03.053-.029.053-.027.053-.025.052-.023.053-.022.053-.02.053-.02.053-.017.053-.015.053-.014.053-.012.052-.01.053-.009.053-.007.053-.005.053-.004.053-.002h.053l.053.002.052.004.053.005.053.007.053.008.053.01.053.013.053.013.053.016.052.017.053.018.053.02.053.023.053.023.053.026.053.026.053.028.052.03.053.031.053.033.053.034.053.035.053.037.053.038.053.04.052.04.053.042.053.043.053.044.053.046.053.046.053.047.053.049.052.049.053.05.053.05.053.053.053.052.053.054.053.053.053.055.052.055.053.055.053.056.053.057.053.057.053.057.053.057.053.057.052.058.053.058.053.058.053.058.053.057.053.058.053.057.053.058.052.057.053.056.053.057.053.056.053.055.053.055.053.054.053.054.052.053.053.053.053.051.053.05.053.05.053.05.053.048.053.047.052.046.053.045.053.044.053.043.053.041.053.04.053.04.053.038.053.036.052.035.053.034.053.032.053.03.053.03.053.028.053.026.052.025.053.023.053.022.053.02.053.018.053.017.053.015.053.013.052.012.053.01.053.008.053.006.053.005.053.003.053.001h.053l.052-.002.053-.004.053-.006.053-.007.053-.01.053-.01.053-.013.053-.014.053-.016.052-.017.053-.02.053-.02.053-.023.053-.024.053-.025.053-.027.053-.029.052-.03.053-.032.053-.033.053-.034.053-.036.053-.037.053-.038.052-.04.053-.041.053-.042.053-.044.053-.044.053-.046.053-.046.053-.048.053-.049.052-.05.053-.05.053-.05.053-.053.053-.053.053-.053.053-.054.053-.055.052-.055.053-.055.053-.057.053-.056.053-.057.053-.057.053-.058.053-.057.052-.058.053-.058.053-.057.053-.058.053-.058.053-.057.053-.058.052-.057.053-.057.053-.057.053-.056.053-.056.053-.055.053-.055.053-.054.053-.053.052-.053.053-.052.053-.052.053-.05.053-.05.053-.049.053-.048.053-.046.052-.046.053-.045.053-.043.053-.043.053-.041.053-.04.053-.039.053-.037.052-.036.053-.035.053-.033.053-.032.053-.03.053-.03.053-.027.052-.026.053-.024.053-.023.053-.021.053-.02.053-.017.053-.017.053-.014.053-.013.052-.011.053-.01.053-.007.053-.006.053-.004.053-.003h.106l.052.003.053.004.053.006.053.008.053.01.053.011.053.013.053.015.052.016.053.018.053.02.053.021.053.023.053.024.053.026.052.028.053.029.053.03.053.032.053.034.053.035.053.036.053.037.053.04.052.04.053.04.053.043.053.044.053.044.053.046.053.047.053.048.052.05.053.049.053.05.053.052.053.052.053.053.053.054.053.054.052.055.053.055.053.056.053.056.053.057.053.057.053.057.052.057.053.058.053.058M23.947 32.46l.052.057.053.058.053.058.053.057.053.058.053.057.053.056.052.057.053.056.053.055.053.055.053.054.053.054.053.053.053.053.053.052.052.05.053.05.053.05.053.048.053.047.053.046.053.045.052.044.053.043.053.042.053.04.053.04.053.038.053.036.053.036.053.033.052.033.053.03.053.03.053.029.053.026.053.025.053.023.052.022.053.02.053.019.053.017.053.015.053.013.053.012.053.01.053.008.052.007.053.005.053.003.053.002h.053l.053-.002.053-.004.052-.005.053-.008.053-.009.053-.01.053-.012.053-.014.053-.016.053-.017.053-.02.052-.02.053-.022.053-.024.053-.025.053-.027.053-.029.053-.03.052-.031.053-.033.053-.034.053-.036.053-.037.053-.038.053-.04.053-.04.053-.043.052-.043.053-.044.053-.046.053-.046.053-.048.053-.048.053-.05.052-.05.053-.05.053-.053.053-.052.053-.054.053-.054.053-.054.053-.055.053-.056.052-.056.053-.057.053-.056.053-.058.053-.057.053-.057.053-.058.052-.058.053-.058.053-.057.053-.058.053-.058.053-.057.053-.058.053-.056.053-.057.052-.056.053-.056.053-.056.053-.054.053-.055.053-.053.053-.053.052-.052.053-.052.053-.05.053-.05.053-.05.053-.047.053-.047.053-.046.053-.045.052-.044.053-.042.053-.042.053-.04.053-.039.053-.037.053-.036.053-.035.052-.034.053-.032.053-.03.053-.03.053-.027.053-.026.053-.025.053-.023.052-.02.053-.02.053-.019.053-.016.053-.015.053-.013.053-.011.053-.01.052-.008.053-.006.053-.004.053-.003.053-.001h.053l.053.003.053.004.052.006.053.008.053.01.053.01.053.013.053.015.053.016.053.017.052.02.053.021.053.023.053.024.053.026.053.027.053.029.053.03.052.032.053.033.053.035.053.036.053.037.053.039.053.04.053.041.052.043.053.043.053.045.053.046.053.046.053.048.053.049.053.05.052.05.053.051.053.052.053.053.053.054.053.054.053.055.053.055.052.056.053.056.053.056.053.057.053.057.053.058.053.057.053.058.052.058.053.058.053.058.053.057.053.058.053.057.053.057.053.057.052.057.053.056.053.056.053.055.053.055.053.054.053.053.053.053.052.052.053.051.053.05.053.05.053.049.053.047.053.047.053.046.052.044.053.044.053.042.053.04.053.04.053.04.053.036.053.036.052.035.053.033.053.032.053.03.053.028.053.028.053.025.053.024.052.023.053.02.053.02.053.017.053.016.053.014.053.013.053.01.052.01.053.008.053.005.053.004.053.002h.106l.053-.003.052-.005.053-.006.053-.008.053-.01.053-.012.053-.013.053-.015.053-.017.052-.018.053-.02.053-.021.053-.023.053-.025.053-.026.053-.028.053-.03.052-.03.053-.032.053-.034.053-.035.053-.036.053-.038.053-.04.053-.04.052-.04.053-.044.053-.044.053-.044.053-.047.053-.047.053-.048.053-.049.052-.05.053-.05.053-.052.053-.052.053-.053.053-.054.053-.054.053-.055.052-.055.053-.056.053-.057.053-.056.053-.057.053-.058.053-.057.053-.058.052-.058.053-.057.053-.058.053-.058.053-.058.053-.057.053-.057.053-.057.052-.057.053-.057.053-.056.053-.055.053-.055.053-.055.053-.054.053-.053.052-.053.053-.051.053-.051.053-.05.053-.05.053-.048.053-.048.053-.046.052-.045.053-.044.053-.044.053-.042.053-.04.053-.04.053-.038.053-.037.052-.035.053-.034.053-.033.053-.031.053-.03.053-.028.053-.027.053-.025.052-.024.053-.022.053-.02.053-.019.053-.017.053-.015.053-.014.053-.012.052-.01.053-.01.053-.006.053-.005.053-.004.053-.002h.053l.053.002.052.003.053.006.053.006.053.009.053.01.053.012.053.014.053.015.052.017.053.02.053.02.053.021.053.024.053.025.053.027.053.028.052.03.053.03.053.034.053.034.053.035.053.037.053.038.053.04.052.04.053.042.053.043.053.044.053.045.053.047.053.047.053.048.052.05.053.05.053.05.053.052.053.053.053.053.053.054.053.055.052.055.053.055.053.056.053.056.053.057.053.057.053.058.053.057.052.058.053.058.053.058.053.057.053.058.053.058.053.057.053.057.052.057.053.057.053.056.053.056.053.056.053.055.053.054.053.054.052.053.053.052.053.052.053.05.053.05.053.05.053.048.053.047.052.046.053.045.053.044.053.042.053.042.053.04.053.04.053.037.053.037.052.035.053.033.053.033.053.03.053.03.053.028.053.026.052.025.053.023.053.021.053.02.053.019.053.016.053.015.053.014.052.011.053.01.053.008.053.007.053.005.053.003h.106l.052-.002.053-.004.053-.005.053-.008.053-.009.053-.01.053-.013.053-.014.053-.016.052-.018.053-.019.053-.02.053-.023.053-.024.053-.026.053-.027.053-.028.052-.03.053-.032.053-.033.053-.034.053-.036.053-.037.053-.039.052-.04.053-.04.053-.043.053-.043.053-.045.053-.045.053-.047.053-.047.053-.049.052-.05.053-.05.053-.051.053-.052.053-.053.053-.053.053-.054.053-.055.052-.055.053-.056.053-.056.053-.056.053-.057.053-.057.053-.058.053-.057.052-.058.053-.058.053-.058.053-.057.053-.058.053-.058.053-.057.052-.058.053-.056.053-.057.053-.056.053-.056.053-.055.053-.055.053-.054.053-.054.052-.053.053-.052.053-.051.053-.05.053-.05.053-.05.053-.047.053-.047.052-.046.053-.044.053-.044.053-.042.053-.042.053-.04.053-.038.053-.038.052-.036.053-.034.053-.034.053-.032.053-.03.053-.029.053-.027.052-.026.053-.024.053-.023.053-.021.053-.02.053-.018.053-.016.053-.014.053-.013.052-.011.053-.01.053-.007.053-.006.053-.005.053-.002.053-.001h.053l.052.004.053.004.053.006.053.008.053.01.053.01.053.014.053.014.052.017.053.018.053.02.053.02.053.024.053.024.053.026.052.027.053.03.053.03.053.032.053.033.053.035.053.036.053.038.053.039.052.04.053.041.053.043.053.043.053.045.053.046.053.047.053.048.052.049.053.05.053.05.053.052.053.052.053.053.053.053.053.054.052.055.053.056.053.055.053.057.053.056.053.057.053.058.052.057.053.057.053.058M23.947 49.421l.052.058.053.058.053.058.053.057.053.057.053.057.053.057.052.057.053.055.053.056.053.055.053.054.053.054.053.053.053.053.053.052.052.05.053.05.053.05.053.048.053.047.053.046.053.045.052.044.053.043.053.042.053.04.053.04.053.038.053.036.053.036.053.033.052.033.053.03.053.03.053.028.053.027.053.025.053.023.052.022.053.02.053.019.053.016.053.016.053.013.053.012.053.01.053.008.052.007.053.005.053.003.053.002h.053l.053-.002.053-.004.052-.006.053-.007.053-.009.053-.01.053-.013.053-.014.053-.015.053-.017.053-.02.052-.02.053-.022.053-.024.053-.025.053-.027.053-.029.053-.03.052-.031.053-.033.053-.034.053-.036.053-.037.053-.038.053-.04.053-.04.053-.043.052-.043.053-.044.053-.046.053-.046.053-.048.053-.048.053-.05.052-.05.053-.05.053-.053.053-.052.053-.054.053-.054.053-.054.053-.056.053-.055.052-.056.053-.057.053-.056.053-.058.053-.057.053-.058.053-.057.052-.058.053-.058.053-.058.053-.057.053-.058.053-.057.053-.058.053-.057.053-.056.052-.056.053-.056.053-.056.053-.054.053-.055.053-.053.053-.053.053-.053.052-.051.053-.05.053-.05.053-.05.053-.047.053-.047.053-.046.053-.045.052-.044.053-.042.053-.042.053-.04.053-.039.053-.037.053-.037.053-.034.052-.034.053-.032.053-.03.053-.03.053-.027.053-.026.053-.025.053-.023.052-.02.053-.02.053-.019.053-.016.053-.015.053-.013.053-.011.053-.01.052-.008.053-.006.053-.004.053-.003.053-.001h.053l.053.003.053.004.052.006.053.008.053.01.053.01.053.013.053.014.053.017.053.017.052.02.053.02.053.023.053.025.053.026.053.027.053.029.053.03.052.032.053.033.053.035.053.036.053.037.053.039.053.04.053.041.052.042.053.044.053.045.053.045.053.047.053.048.053.049.053.05.052.05.053.051.053.052.053.053.053.054.053.054.053.054.053.056.052.056.053.056.053.056.053.057.053.057.053.058.053.058.053.057.052.058.053.058.053.058.053.057.053.058.053.057.053.057.053.057.052.057.053.056.053.056.053.055.053.055.053.054.053.053.053.053.052.052.053.051.053.05.053.05.053.049.053.047.053.047.053.046.052.044.053.044.053.042.053.04.053.04.053.04.053.036.053.036.052.035.053.033.053.031.053.03.053.03.053.026.053.026.053.024.052.023.053.02.053.02.053.017.053.016.053.014.053.013.053.01.052.01.053.007.053.006.053.004.053.002h.106l.053-.003.052-.005.053-.006.053-.009.053-.01.053-.01.053-.014.053-.015.053-.017.052-.018.053-.02.053-.021.053-.023.053-.025.053-.026.053-.028.053-.03.052-.03.053-.032.053-.034.053-.035.053-.036.053-.038.053-.04.053-.04.052-.041.053-.043.053-.044.053-.045.053-.046.053-.047.053-.048.053-.049.052-.05.053-.05.053-.052.053-.052.053-.053.053-.054.053-.054.053-.055.052-.056.053-.056.053-.056.053-.056.053-.058.053-.057.053-.057.053-.058.052-.058.053-.057.053-.058.053-.058.053-.058.053-.057.053-.058.053-.057.052-.056.053-.057.053-.056.053-.055.053-.055.053-.055.053-.054.053-.053.052-.053.053-.052.053-.05.053-.05.053-.05.053-.048.053-.048.053-.046.052-.045.053-.045.053-.043.053-.042.053-.04.053-.04.053-.038.053-.037.052-.035.053-.034.053-.033.053-.031.053-.03.053-.028.053-.027.053-.025.052-.024.053-.022.053-.02.053-.019.053-.017.053-.016.053-.013.053-.012.052-.01.053-.01.053-.006.053-.006.053-.003.053-.002h.053l.053.002.052.003.053.005.053.007.053.009.053.01.053.012.053.014.053.015.052.017.053.02.053.02.053.021.053.024.053.025.053.027.053.028.052.03.053.03.053.033.053.035.053.035.053.037.053.038.053.04.052.04.053.042.053.043.053.044.053.045.053.047.053.047.053.048.052.05.053.05.053.05.053.052.053.053.053.053.053.054.053.054.052.056.053.055.053.056.053.056.053.057.053.057.053.058.053.057.052.058.053.058.053.057.053.058.053.058.053.058.053.057.053.057.052.057.053.057.053.056.053.056.053.056.053.055.053.054.053.054.052.053.053.052.053.052.053.05.053.05.053.05.053.047.053.048.052.046.053.045.053.044.053.042.053.042.053.04.053.04.053.037.053.037.052.035.053.033.053.033.053.03.053.03.053.028.053.026.052.025.053.023.053.021.053.02.053.019.053.016.053.015.053.014.052.011.053.01.053.008.053.007.053.004.053.004h.106l.052-.002.053-.004.053-.005.053-.008.053-.009.053-.01.053-.013.053-.014.053-.016.052-.018.053-.019.053-.02.053-.023.053-.024.053-.026.053-.027.053-.028.052-.03.053-.032.053-.033.053-.035.053-.035.053-.037.053-.039.052-.04.053-.04.053-.043.053-.043.053-.045.053-.045.053-.047.053-.047.053-.05.052-.049.053-.05.053-.051.053-.052.053-.053.053-.053.053-.054.053-.055.052-.055.053-.056.053-.056.053-.056.053-.057.053-.057.053-.058.053-.057.052-.058.053-.058.053-.058.053-.058.053-.057.053-.058.053-.057.052-.058.053-.056.053-.057.053-.056.053-.056.053-.055.053-.055.053-.054.053-.054.052-.053.053-.052.053-.051.053-.05.053-.05.053-.05.053-.047.053-.047.052-.046.053-.044.053-.044.053-.042.053-.042.053-.04.053-.038.053-.038.052-.036.053-.035.053-.033.053-.032.053-.03.053-.029.053-.027.052-.026.053-.025.053-.022.053-.021.053-.02.053-.018.053-.016.053-.014.053-.013.052-.011.053-.01.053-.008.053-.005.053-.005.053-.002.053-.001h.053l.052.004.053.004.053.006.053.008.053.01.053.01.053.014.053.014.052.017.053.018.053.02.053.02.053.023.053.025.053.026.052.027.053.03.053.03.053.032.053.033.053.035.053.036.053.038.053.039.052.04.053.041.053.043.053.043.053.045.053.046.053.047.053.048.052.049.053.05.053.05.053.051.053.053.053.053.053.053.053.054.052.055.053.055.053.056.053.057.053.056.053.057.053.057.052.058.053.057.053.058" stroke="#474F60" stroke-width="1.542"/></g><defs><clipPath id="clip0"><path fill="#fff" transform="translate(.817)" d="M0 0h217.42v125.73H0z"/></clipPath></defs></svg>