<svg width="168" height="116" viewBox="0 0 168 116" fill="none" xmlns="http://www.w3.org/2000/svg">
<rect x="23.2459" y="12.5818" width="1.1778" height="1.1778" rx="0.588901" fill="#333A4A"/>
<rect x="28.353" y="12.5811" width="1.1778" height="1.1778" rx="0.588901" fill="#333A4A"/>
<rect x="33.4601" y="12.5811" width="1.1778" height="1.1778" rx="0.588901" fill="#333A4A"/>
<rect x="38.5669" y="12.5811" width="1.1778" height="1.1778" rx="0.588901" fill="#333A4A"/>
<rect x="43.6742" y="12.5811" width="1.1778" height="1.1778" rx="0.588901" fill="#333A4A"/>
<rect x="48.7812" y="12.5811" width="1.1778" height="1.1778" rx="0.588901" fill="#333A4A"/>
<rect x="53.8883" y="12.5811" width="1.1778" height="1.1778" rx="0.588901" fill="#333A4A"/>
<rect x="58.9954" y="12.5811" width="1.1778" height="1.1778" rx="0.588901" fill="#333A4A"/>
<rect x="64.1024" y="12.5811" width="1.1778" height="1.1778" rx="0.588901" fill="#333A4A"/>
<rect x="69.2093" y="12.5811" width="1.1778" height="1.1778" rx="0.588901" fill="#333A4A"/>
<rect x="74.3166" y="12.5811" width="1.1778" height="1.1778" rx="0.588901" fill="#333A4A"/>
<rect x="79.4236" y="12.5811" width="1.1778" height="1.1778" rx="0.588901" fill="#333A4A"/>
<rect x="84.5307" y="12.5811" width="1.1778" height="1.1778" rx="0.588901" fill="#333A4A"/>
<rect x="89.6378" y="12.5811" width="1.1778" height="1.1778" rx="0.588901" fill="#333A4A"/>
<rect x="94.7448" y="12.5811" width="1.1778" height="1.1778" rx="0.588901" fill="#333A4A"/>
<rect x="99.8517" y="12.5811" width="1.1778" height="1.1778" rx="0.588901" fill="#333A4A"/>
<rect x="104.959" y="12.5811" width="1.1778" height="1.1778" rx="0.588901" fill="#333A4A"/>
<rect x="110.066" y="12.5811" width="1.1778" height="1.1778" rx="0.588901" fill="#333A4A"/>
<rect x="115.173" y="12.5811" width="1.1778" height="1.1778" rx="0.588901" fill="#333A4A"/>
<rect x="120.28" y="12.5811" width="1.1778" height="1.1778" rx="0.588901" fill="#333A4A"/>
<rect x="125.387" y="12.5811" width="1.1778" height="1.1778" rx="0.588901" fill="#333A4A"/>
<rect x="130.494" y="12.5811" width="1.1778" height="1.1778" rx="0.588901" fill="#333A4A"/>
<rect x="135.601" y="12.5811" width="1.1778" height="1.1778" rx="0.588901" fill="#333A4A"/>
<rect x="140.708" y="12.5811" width="1.1778" height="1.1778" rx="0.588901" fill="#333A4A"/>
<rect x="145.815" y="12.5811" width="1.1778" height="1.1778" rx="0.588901" fill="#333A4A"/>
<rect x="150.923" y="12.5811" width="1.1778" height="1.1778" rx="0.588901" fill="#333A4A"/>
<rect x="156.029" y="12.5811" width="1.1778" height="1.1778" rx="0.588901" fill="#333A4A"/>
<rect x="161.137" y="12.5811" width="1.1778" height="1.1778" rx="0.588901" fill="#333A4A"/>
<rect x="166.244" y="12.5811" width="1.1778" height="1.1778" rx="0.588901" fill="#333A4A"/>
<rect x="23.2459" y="17.6882" width="1.1778" height="1.1778" rx="0.588901" fill="#333A4A"/>
<rect x="28.353" y="17.6882" width="1.1778" height="1.1778" rx="0.588901" fill="#333A4A"/>
<rect x="33.4601" y="17.6882" width="1.1778" height="1.1778" rx="0.588901" fill="#333A4A"/>
<rect x="38.5669" y="17.6882" width="1.1778" height="1.1778" rx="0.588901" fill="#333A4A"/>
<rect x="43.6742" y="17.6882" width="1.1778" height="1.1778" rx="0.588901" fill="#333A4A"/>
<rect x="48.7812" y="17.6882" width="1.1778" height="1.1778" rx="0.588901" fill="#333A4A"/>
<rect x="53.8883" y="17.6882" width="1.1778" height="1.1778" rx="0.588901" fill="#333A4A"/>
<rect x="58.9954" y="17.6882" width="1.1778" height="1.1778" rx="0.588901" fill="#333A4A"/>
<rect x="64.1024" y="17.6882" width="1.1778" height="1.1778" rx="0.588901" fill="#333A4A"/>
<rect x="69.2093" y="17.6882" width="1.1778" height="1.1778" rx="0.588901" fill="#333A4A"/>
<rect x="74.3166" y="17.6882" width="1.1778" height="1.1778" rx="0.588901" fill="#333A4A"/>
<rect x="79.4236" y="17.6882" width="1.1778" height="1.1778" rx="0.588901" fill="#333A4A"/>
<rect x="84.5307" y="17.6882" width="1.1778" height="1.1778" rx="0.588901" fill="#333A4A"/>
<rect x="89.6378" y="17.6882" width="1.1778" height="1.1778" rx="0.588901" fill="#333A4A"/>
<rect x="94.7448" y="17.6882" width="1.1778" height="1.1778" rx="0.588901" fill="#333A4A"/>
<rect x="99.8517" y="17.6882" width="1.1778" height="1.1778" rx="0.588901" fill="#333A4A"/>
<rect x="104.959" y="17.6882" width="1.1778" height="1.1778" rx="0.588901" fill="#333A4A"/>
<rect x="110.066" y="17.6882" width="1.1778" height="1.1778" rx="0.588901" fill="#333A4A"/>
<rect x="115.173" y="17.6882" width="1.1778" height="1.1778" rx="0.588901" fill="#333A4A"/>
<rect x="120.28" y="17.6882" width="1.1778" height="1.1778" rx="0.588901" fill="#333A4A"/>
<rect x="125.387" y="17.6882" width="1.1778" height="1.1778" rx="0.588901" fill="#333A4A"/>
<rect x="130.494" y="17.6882" width="1.1778" height="1.1778" rx="0.588901" fill="#333A4A"/>
<rect x="135.601" y="17.6882" width="1.1778" height="1.1778" rx="0.588901" fill="#333A4A"/>
<rect x="140.708" y="17.6882" width="1.1778" height="1.1778" rx="0.588901" fill="#333A4A"/>
<rect x="145.815" y="17.6882" width="1.1778" height="1.1778" rx="0.588901" fill="#333A4A"/>
<rect x="150.923" y="17.6882" width="1.1778" height="1.1778" rx="0.588901" fill="#333A4A"/>
<rect x="156.029" y="17.6882" width="1.1778" height="1.1778" rx="0.588901" fill="#333A4A"/>
<rect x="161.137" y="17.6882" width="1.1778" height="1.1778" rx="0.588901" fill="#333A4A"/>
<rect x="166.244" y="17.6882" width="1.1778" height="1.1778" rx="0.588901" fill="#333A4A"/>
<rect x="23.2459" y="22.7954" width="1.1778" height="1.1778" rx="0.588901" fill="#333A4A"/>
<rect x="28.353" y="22.7954" width="1.1778" height="1.1778" rx="0.588901" fill="#333A4A"/>
<rect x="33.4601" y="22.7954" width="1.1778" height="1.1778" rx="0.588901" fill="#333A4A"/>
<rect x="38.5669" y="22.7954" width="1.1778" height="1.1778" rx="0.588901" fill="#333A4A"/>
<rect x="43.6742" y="22.7954" width="1.1778" height="1.1778" rx="0.588901" fill="#333A4A"/>
<rect x="48.7812" y="22.7954" width="1.1778" height="1.1778" rx="0.588901" fill="#333A4A"/>
<rect x="53.8883" y="22.7954" width="1.1778" height="1.1778" rx="0.588901" fill="#333A4A"/>
<rect x="58.9954" y="22.7954" width="1.1778" height="1.1778" rx="0.588901" fill="#333A4A"/>
<rect x="64.1024" y="22.7954" width="1.1778" height="1.1778" rx="0.588901" fill="#333A4A"/>
<rect x="69.2093" y="22.7954" width="1.1778" height="1.1778" rx="0.588901" fill="#333A4A"/>
<rect x="74.3166" y="22.7954" width="1.1778" height="1.1778" rx="0.588901" fill="#333A4A"/>
<rect x="79.4236" y="22.7954" width="1.1778" height="1.1778" rx="0.588901" fill="#333A4A"/>
<rect x="84.5307" y="22.7954" width="1.1778" height="1.1778" rx="0.588901" fill="#333A4A"/>
<rect x="89.6378" y="22.7954" width="1.1778" height="1.1778" rx="0.588901" fill="#333A4A"/>
<rect x="94.7448" y="22.7954" width="1.1778" height="1.1778" rx="0.588901" fill="#333A4A"/>
<rect x="99.8517" y="22.7954" width="1.1778" height="1.1778" rx="0.588901" fill="#333A4A"/>
<rect x="104.959" y="22.7954" width="1.1778" height="1.1778" rx="0.588901" fill="#333A4A"/>
<rect x="110.066" y="22.7954" width="1.1778" height="1.1778" rx="0.588901" fill="#333A4A"/>
<rect x="115.173" y="22.7954" width="1.1778" height="1.1778" rx="0.588901" fill="#333A4A"/>
<rect x="120.28" y="22.7954" width="1.1778" height="1.1778" rx="0.588901" fill="#333A4A"/>
<rect x="125.387" y="22.7954" width="1.1778" height="1.1778" rx="0.588901" fill="#333A4A"/>
<rect x="130.494" y="22.7954" width="1.1778" height="1.1778" rx="0.588901" fill="#333A4A"/>
<rect x="135.601" y="22.7954" width="1.1778" height="1.1778" rx="0.588901" fill="#333A4A"/>
<rect x="140.708" y="22.7954" width="1.1778" height="1.1778" rx="0.588901" fill="#333A4A"/>
<rect x="145.815" y="22.7954" width="1.1778" height="1.1778" rx="0.588901" fill="#333A4A"/>
<rect x="150.923" y="22.7954" width="1.1778" height="1.1778" rx="0.588901" fill="#333A4A"/>
<rect x="156.029" y="22.7954" width="1.1778" height="1.1778" rx="0.588901" fill="#333A4A"/>
<rect x="161.137" y="22.7954" width="1.1778" height="1.1778" rx="0.588901" fill="#333A4A"/>
<rect x="166.244" y="22.7954" width="1.1778" height="1.1778" rx="0.588901" fill="#333A4A"/>
<rect x="23.2459" y="27.9021" width="1.1778" height="1.1778" rx="0.588901" fill="#333A4A"/>
<rect x="28.353" y="27.9021" width="1.1778" height="1.1778" rx="0.588901" fill="#333A4A"/>
<rect x="33.4601" y="27.9021" width="1.1778" height="1.1778" rx="0.588901" fill="#333A4A"/>
<rect x="38.5669" y="27.9021" width="1.1778" height="1.1778" rx="0.588901" fill="#333A4A"/>
<rect x="43.6742" y="27.9021" width="1.1778" height="1.1778" rx="0.588901" fill="#333A4A"/>
<rect x="48.7812" y="27.9021" width="1.1778" height="1.1778" rx="0.588901" fill="#333A4A"/>
<rect x="53.8883" y="27.9021" width="1.1778" height="1.1778" rx="0.588901" fill="#333A4A"/>
<rect x="58.9954" y="27.9021" width="1.1778" height="1.1778" rx="0.588901" fill="#333A4A"/>
<rect x="64.1024" y="27.9021" width="1.1778" height="1.1778" rx="0.588901" fill="#333A4A"/>
<rect x="69.2093" y="27.9021" width="1.1778" height="1.1778" rx="0.588901" fill="#333A4A"/>
<rect x="74.3166" y="27.9021" width="1.1778" height="1.1778" rx="0.588901" fill="#333A4A"/>
<rect x="79.4236" y="27.9021" width="1.1778" height="1.1778" rx="0.588901" fill="#333A4A"/>
<rect x="84.5307" y="27.9021" width="1.1778" height="1.1778" rx="0.588901" fill="#333A4A"/>
<rect x="89.6378" y="27.9021" width="1.1778" height="1.1778" rx="0.588901" fill="#333A4A"/>
<rect x="94.7448" y="27.9021" width="1.1778" height="1.1778" rx="0.588901" fill="#333A4A"/>
<rect x="99.8517" y="27.9021" width="1.1778" height="1.1778" rx="0.588901" fill="#333A4A"/>
<rect x="104.959" y="27.9021" width="1.1778" height="1.1778" rx="0.588901" fill="#333A4A"/>
<rect x="110.066" y="27.9021" width="1.1778" height="1.1778" rx="0.588901" fill="#333A4A"/>
<rect x="115.173" y="27.9021" width="1.1778" height="1.1778" rx="0.588901" fill="#333A4A"/>
<rect x="120.28" y="27.9021" width="1.1778" height="1.1778" rx="0.588901" fill="#333A4A"/>
<rect x="125.387" y="27.9021" width="1.1778" height="1.1778" rx="0.588901" fill="#333A4A"/>
<rect x="130.494" y="27.9021" width="1.1778" height="1.1778" rx="0.588901" fill="#333A4A"/>
<rect x="135.601" y="27.9021" width="1.1778" height="1.1778" rx="0.588901" fill="#333A4A"/>
<rect x="140.708" y="27.9021" width="1.1778" height="1.1778" rx="0.588901" fill="#333A4A"/>
<rect x="145.815" y="27.9021" width="1.1778" height="1.1778" rx="0.588901" fill="#333A4A"/>
<rect x="150.923" y="27.9021" width="1.1778" height="1.1778" rx="0.588901" fill="#333A4A"/>
<rect x="156.029" y="27.9021" width="1.1778" height="1.1778" rx="0.588901" fill="#333A4A"/>
<rect x="161.137" y="27.9021" width="1.1778" height="1.1778" rx="0.588901" fill="#333A4A"/>
<rect x="166.244" y="27.9021" width="1.1778" height="1.1778" rx="0.588901" fill="#333A4A"/>
<rect x="23.2459" y="33.0093" width="1.1778" height="1.1778" rx="0.588901" fill="#333A4A"/>
<rect x="28.353" y="33.0093" width="1.1778" height="1.1778" rx="0.588901" fill="#333A4A"/>
<rect x="33.4601" y="33.0093" width="1.1778" height="1.1778" rx="0.588901" fill="#333A4A"/>
<rect x="38.5669" y="33.0093" width="1.1778" height="1.1778" rx="0.588901" fill="#333A4A"/>
<rect x="43.6742" y="33.0093" width="1.1778" height="1.1778" rx="0.588901" fill="#333A4A"/>
<rect x="48.7812" y="33.0093" width="1.1778" height="1.1778" rx="0.588901" fill="#333A4A"/>
<rect x="53.8883" y="33.0093" width="1.1778" height="1.1778" rx="0.588901" fill="#333A4A"/>
<rect x="58.9954" y="33.0093" width="1.1778" height="1.1778" rx="0.588901" fill="#333A4A"/>
<rect x="64.1024" y="33.0093" width="1.1778" height="1.1778" rx="0.588901" fill="#333A4A"/>
<rect x="69.2093" y="33.0093" width="1.1778" height="1.1778" rx="0.588901" fill="#333A4A"/>
<rect x="74.3166" y="33.0093" width="1.1778" height="1.1778" rx="0.588901" fill="#333A4A"/>
<rect x="79.4236" y="33.0093" width="1.1778" height="1.1778" rx="0.588901" fill="#333A4A"/>
<rect x="84.5307" y="33.0093" width="1.1778" height="1.1778" rx="0.588901" fill="#333A4A"/>
<rect x="89.6378" y="33.0093" width="1.1778" height="1.1778" rx="0.588901" fill="#333A4A"/>
<rect x="94.7448" y="33.0093" width="1.1778" height="1.1778" rx="0.588901" fill="#333A4A"/>
<rect x="99.8517" y="33.0093" width="1.1778" height="1.1778" rx="0.588901" fill="#333A4A"/>
<rect x="104.959" y="33.0093" width="1.1778" height="1.1778" rx="0.588901" fill="#333A4A"/>
<rect x="110.066" y="33.0093" width="1.1778" height="1.1778" rx="0.588901" fill="#333A4A"/>
<rect x="115.173" y="33.0093" width="1.1778" height="1.1778" rx="0.588901" fill="#333A4A"/>
<rect x="120.28" y="33.0093" width="1.1778" height="1.1778" rx="0.588901" fill="#333A4A"/>
<rect x="125.387" y="33.0093" width="1.1778" height="1.1778" rx="0.588901" fill="#333A4A"/>
<rect x="130.494" y="33.0093" width="1.1778" height="1.1778" rx="0.588901" fill="#333A4A"/>
<rect x="135.601" y="33.0093" width="1.1778" height="1.1778" rx="0.588901" fill="#333A4A"/>
<rect x="140.708" y="33.0093" width="1.1778" height="1.1778" rx="0.588901" fill="#333A4A"/>
<rect x="145.815" y="33.0093" width="1.1778" height="1.1778" rx="0.588901" fill="#333A4A"/>
<rect x="150.923" y="33.0093" width="1.1778" height="1.1778" rx="0.588901" fill="#333A4A"/>
<rect x="156.029" y="33.0093" width="1.1778" height="1.1778" rx="0.588901" fill="#333A4A"/>
<rect x="161.137" y="33.0093" width="1.1778" height="1.1778" rx="0.588901" fill="#333A4A"/>
<rect x="166.244" y="33.0093" width="1.1778" height="1.1778" rx="0.588901" fill="#333A4A"/>
<rect x="23.2459" y="38.1162" width="1.1778" height="1.1778" rx="0.588901" fill="#333A4A"/>
<rect x="28.353" y="38.1162" width="1.1778" height="1.1778" rx="0.588901" fill="#333A4A"/>
<rect x="33.4601" y="38.1162" width="1.1778" height="1.1778" rx="0.588901" fill="#333A4A"/>
<rect x="38.5669" y="38.1162" width="1.1778" height="1.1778" rx="0.588901" fill="#333A4A"/>
<rect x="43.6742" y="38.1162" width="1.1778" height="1.1778" rx="0.588901" fill="#333A4A"/>
<rect x="48.7812" y="38.1162" width="1.1778" height="1.1778" rx="0.588901" fill="#333A4A"/>
<rect x="53.8883" y="38.1162" width="1.1778" height="1.1778" rx="0.588901" fill="#333A4A"/>
<rect x="58.9954" y="38.1162" width="1.1778" height="1.1778" rx="0.588901" fill="#333A4A"/>
<rect x="64.1024" y="38.1162" width="1.1778" height="1.1778" rx="0.588901" fill="#333A4A"/>
<rect x="69.2093" y="38.1162" width="1.1778" height="1.1778" rx="0.588901" fill="#333A4A"/>
<rect x="74.3166" y="38.1162" width="1.1778" height="1.1778" rx="0.588901" fill="#333A4A"/>
<rect x="79.4236" y="38.1162" width="1.1778" height="1.1778" rx="0.588901" fill="#333A4A"/>
<rect x="84.5307" y="38.1162" width="1.1778" height="1.1778" rx="0.588901" fill="#333A4A"/>
<rect x="89.6378" y="38.1162" width="1.1778" height="1.1778" rx="0.588901" fill="#333A4A"/>
<rect x="94.7448" y="38.1162" width="1.1778" height="1.1778" rx="0.588901" fill="#333A4A"/>
<rect x="99.8517" y="38.1162" width="1.1778" height="1.1778" rx="0.588901" fill="#333A4A"/>
<rect x="104.959" y="38.1162" width="1.1778" height="1.1778" rx="0.588901" fill="#333A4A"/>
<rect x="110.066" y="38.1162" width="1.1778" height="1.1778" rx="0.588901" fill="#333A4A"/>
<rect x="115.173" y="38.1162" width="1.1778" height="1.1778" rx="0.588901" fill="#333A4A"/>
<rect x="120.28" y="38.1162" width="1.1778" height="1.1778" rx="0.588901" fill="#333A4A"/>
<rect x="125.387" y="38.1162" width="1.1778" height="1.1778" rx="0.588901" fill="#333A4A"/>
<rect x="130.494" y="38.1162" width="1.1778" height="1.1778" rx="0.588901" fill="#333A4A"/>
<rect x="135.601" y="38.1162" width="1.1778" height="1.1778" rx="0.588901" fill="#333A4A"/>
<rect x="140.708" y="38.1162" width="1.1778" height="1.1778" rx="0.588901" fill="#333A4A"/>
<rect x="145.815" y="38.1162" width="1.1778" height="1.1778" rx="0.588901" fill="#333A4A"/>
<rect x="150.923" y="38.1162" width="1.1778" height="1.1778" rx="0.588901" fill="#333A4A"/>
<rect x="156.029" y="38.1162" width="1.1778" height="1.1778" rx="0.588901" fill="#333A4A"/>
<rect x="161.137" y="38.1162" width="1.1778" height="1.1778" rx="0.588901" fill="#333A4A"/>
<rect x="166.244" y="38.1162" width="1.1778" height="1.1778" rx="0.588901" fill="#333A4A"/>
<rect x="23.2459" y="43.2234" width="1.1778" height="1.1778" rx="0.588901" fill="#333A4A"/>
<rect x="28.353" y="43.2234" width="1.1778" height="1.1778" rx="0.588901" fill="#333A4A"/>
<rect x="33.4601" y="43.2234" width="1.1778" height="1.1778" rx="0.588901" fill="#333A4A"/>
<rect x="38.5669" y="43.2234" width="1.1778" height="1.1778" rx="0.588901" fill="#333A4A"/>
<rect x="43.6742" y="43.2234" width="1.1778" height="1.1778" rx="0.588901" fill="#333A4A"/>
<rect x="48.7812" y="43.2234" width="1.1778" height="1.1778" rx="0.588901" fill="#333A4A"/>
<rect x="53.8883" y="43.2234" width="1.1778" height="1.1778" rx="0.588901" fill="#333A4A"/>
<rect x="58.9954" y="43.2234" width="1.1778" height="1.1778" rx="0.588901" fill="#333A4A"/>
<rect x="64.1024" y="43.2234" width="1.1778" height="1.1778" rx="0.588901" fill="#333A4A"/>
<rect x="69.2093" y="43.2234" width="1.1778" height="1.1778" rx="0.588901" fill="#333A4A"/>
<rect x="74.3166" y="43.2234" width="1.1778" height="1.1778" rx="0.588901" fill="#333A4A"/>
<rect x="79.4236" y="43.2234" width="1.1778" height="1.1778" rx="0.588901" fill="#333A4A"/>
<rect x="84.5307" y="43.2234" width="1.1778" height="1.1778" rx="0.588901" fill="#333A4A"/>
<rect x="89.6378" y="43.2234" width="1.1778" height="1.1778" rx="0.588901" fill="#333A4A"/>
<rect x="94.7448" y="43.2234" width="1.1778" height="1.1778" rx="0.588901" fill="#333A4A"/>
<rect x="99.8517" y="43.2234" width="1.1778" height="1.1778" rx="0.588901" fill="#333A4A"/>
<rect x="104.959" y="43.2234" width="1.1778" height="1.1778" rx="0.588901" fill="#333A4A"/>
<rect x="110.066" y="43.2234" width="1.1778" height="1.1778" rx="0.588901" fill="#333A4A"/>
<rect x="115.173" y="43.2234" width="1.1778" height="1.1778" rx="0.588901" fill="#333A4A"/>
<rect x="120.28" y="43.2234" width="1.1778" height="1.1778" rx="0.588901" fill="#333A4A"/>
<rect x="125.387" y="43.2234" width="1.1778" height="1.1778" rx="0.588901" fill="#333A4A"/>
<rect x="130.494" y="43.2234" width="1.1778" height="1.1778" rx="0.588901" fill="#333A4A"/>
<rect x="135.601" y="43.2234" width="1.1778" height="1.1778" rx="0.588901" fill="#333A4A"/>
<rect x="140.708" y="43.2234" width="1.1778" height="1.1778" rx="0.588901" fill="#333A4A"/>
<rect x="145.815" y="43.2234" width="1.1778" height="1.1778" rx="0.588901" fill="#333A4A"/>
<rect x="150.923" y="43.2234" width="1.1778" height="1.1778" rx="0.588901" fill="#333A4A"/>
<rect x="156.029" y="43.2234" width="1.1778" height="1.1778" rx="0.588901" fill="#333A4A"/>
<rect x="161.137" y="43.2234" width="1.1778" height="1.1778" rx="0.588901" fill="#333A4A"/>
<rect x="166.244" y="43.2234" width="1.1778" height="1.1778" rx="0.588901" fill="#333A4A"/>
<rect x="23.2459" y="48.3306" width="1.1778" height="1.1778" rx="0.588901" fill="#333A4A"/>
<rect x="28.353" y="48.3306" width="1.1778" height="1.1778" rx="0.588901" fill="#333A4A"/>
<rect x="33.4601" y="48.3306" width="1.1778" height="1.1778" rx="0.588901" fill="#333A4A"/>
<rect x="38.5669" y="48.3306" width="1.1778" height="1.1778" rx="0.588901" fill="#333A4A"/>
<rect x="43.6742" y="48.3306" width="1.1778" height="1.1778" rx="0.588901" fill="#333A4A"/>
<rect x="48.7812" y="48.3306" width="1.1778" height="1.1778" rx="0.588901" fill="#333A4A"/>
<rect x="53.8883" y="48.3306" width="1.1778" height="1.1778" rx="0.588901" fill="#333A4A"/>
<rect x="58.9954" y="48.3306" width="1.1778" height="1.1778" rx="0.588901" fill="#333A4A"/>
<rect x="64.1024" y="48.3306" width="1.1778" height="1.1778" rx="0.588901" fill="#333A4A"/>
<rect x="69.2093" y="48.3306" width="1.1778" height="1.1778" rx="0.588901" fill="#333A4A"/>
<rect x="74.3166" y="48.3306" width="1.1778" height="1.1778" rx="0.588901" fill="#333A4A"/>
<rect x="79.4236" y="48.3306" width="1.1778" height="1.1778" rx="0.588901" fill="#333A4A"/>
<rect x="84.5307" y="48.3306" width="1.1778" height="1.1778" rx="0.588901" fill="#333A4A"/>
<rect x="89.6378" y="48.3306" width="1.1778" height="1.1778" rx="0.588901" fill="#333A4A"/>
<rect x="94.7448" y="48.3306" width="1.1778" height="1.1778" rx="0.588901" fill="#333A4A"/>
<rect x="99.8517" y="48.3306" width="1.1778" height="1.1778" rx="0.588901" fill="#333A4A"/>
<rect x="104.959" y="48.3306" width="1.1778" height="1.1778" rx="0.588901" fill="#333A4A"/>
<rect x="110.066" y="48.3306" width="1.1778" height="1.1778" rx="0.588901" fill="#333A4A"/>
<rect x="115.173" y="48.3306" width="1.1778" height="1.1778" rx="0.588901" fill="#333A4A"/>
<rect x="120.28" y="48.3306" width="1.1778" height="1.1778" rx="0.588901" fill="#333A4A"/>
<rect x="125.387" y="48.3306" width="1.1778" height="1.1778" rx="0.588901" fill="#333A4A"/>
<rect x="130.494" y="48.3306" width="1.1778" height="1.1778" rx="0.588901" fill="#333A4A"/>
<rect x="135.601" y="48.3306" width="1.1778" height="1.1778" rx="0.588901" fill="#333A4A"/>
<rect x="140.708" y="48.3306" width="1.1778" height="1.1778" rx="0.588901" fill="#333A4A"/>
<rect x="145.815" y="48.3306" width="1.1778" height="1.1778" rx="0.588901" fill="#333A4A"/>
<rect x="150.923" y="48.3306" width="1.1778" height="1.1778" rx="0.588901" fill="#333A4A"/>
<rect x="156.029" y="48.3306" width="1.1778" height="1.1778" rx="0.588901" fill="#333A4A"/>
<rect x="161.137" y="48.3306" width="1.1778" height="1.1778" rx="0.588901" fill="#333A4A"/>
<rect x="166.244" y="48.3306" width="1.1778" height="1.1778" rx="0.588901" fill="#333A4A"/>
<rect x="23.2459" y="53.4377" width="1.1778" height="1.1778" rx="0.588901" fill="#333A4A"/>
<rect x="28.353" y="53.4377" width="1.1778" height="1.1778" rx="0.588901" fill="#333A4A"/>
<rect x="33.4601" y="53.4377" width="1.1778" height="1.1778" rx="0.588901" fill="#333A4A"/>
<rect x="38.5669" y="53.4377" width="1.1778" height="1.1778" rx="0.588901" fill="#333A4A"/>
<rect x="43.6742" y="53.4377" width="1.1778" height="1.1778" rx="0.588901" fill="#333A4A"/>
<rect x="48.7812" y="53.4377" width="1.1778" height="1.1778" rx="0.588901" fill="#333A4A"/>
<rect x="53.8883" y="53.4377" width="1.1778" height="1.1778" rx="0.588901" fill="#333A4A"/>
<rect x="58.9954" y="53.4377" width="1.1778" height="1.1778" rx="0.588901" fill="#333A4A"/>
<rect x="64.1024" y="53.4377" width="1.1778" height="1.1778" rx="0.588901" fill="#333A4A"/>
<rect x="69.2093" y="53.4377" width="1.1778" height="1.1778" rx="0.588901" fill="#333A4A"/>
<rect x="74.3166" y="53.4377" width="1.1778" height="1.1778" rx="0.588901" fill="#333A4A"/>
<rect x="79.4236" y="53.4377" width="1.1778" height="1.1778" rx="0.588901" fill="#333A4A"/>
<rect x="84.5307" y="53.4377" width="1.1778" height="1.1778" rx="0.588901" fill="#333A4A"/>
<rect x="89.6378" y="53.4377" width="1.1778" height="1.1778" rx="0.588901" fill="#333A4A"/>
<rect x="94.7448" y="53.4377" width="1.1778" height="1.1778" rx="0.588901" fill="#333A4A"/>
<rect x="99.8517" y="53.4377" width="1.1778" height="1.1778" rx="0.588901" fill="#333A4A"/>
<rect x="104.959" y="53.4377" width="1.1778" height="1.1778" rx="0.588901" fill="#333A4A"/>
<rect x="110.066" y="53.4377" width="1.1778" height="1.1778" rx="0.588901" fill="#333A4A"/>
<rect x="115.173" y="53.4377" width="1.1778" height="1.1778" rx="0.588901" fill="#333A4A"/>
<rect x="120.28" y="53.4377" width="1.1778" height="1.1778" rx="0.588901" fill="#333A4A"/>
<rect x="125.387" y="53.4377" width="1.1778" height="1.1778" rx="0.588901" fill="#333A4A"/>
<rect x="130.494" y="53.4377" width="1.1778" height="1.1778" rx="0.588901" fill="#333A4A"/>
<rect x="135.601" y="53.4377" width="1.1778" height="1.1778" rx="0.588901" fill="#333A4A"/>
<rect x="140.708" y="53.4377" width="1.1778" height="1.1778" rx="0.588901" fill="#333A4A"/>
<rect x="145.815" y="53.4377" width="1.1778" height="1.1778" rx="0.588901" fill="#333A4A"/>
<rect x="150.923" y="53.4377" width="1.1778" height="1.1778" rx="0.588901" fill="#333A4A"/>
<rect x="156.029" y="53.4377" width="1.1778" height="1.1778" rx="0.588901" fill="#333A4A"/>
<rect x="161.137" y="53.4377" width="1.1778" height="1.1778" rx="0.588901" fill="#333A4A"/>
<rect x="166.244" y="53.4377" width="1.1778" height="1.1778" rx="0.588901" fill="#333A4A"/>
<rect x="23.2459" y="58.5444" width="1.1778" height="1.1778" rx="0.588901" fill="#333A4A"/>
<rect x="28.353" y="58.5444" width="1.1778" height="1.1778" rx="0.588901" fill="#333A4A"/>
<rect x="33.4601" y="58.5444" width="1.1778" height="1.1778" rx="0.588901" fill="#333A4A"/>
<rect x="38.5669" y="58.5444" width="1.1778" height="1.1778" rx="0.588901" fill="#333A4A"/>
<rect x="43.6742" y="58.5444" width="1.1778" height="1.1778" rx="0.588901" fill="#333A4A"/>
<rect x="48.7812" y="58.5444" width="1.1778" height="1.1778" rx="0.588901" fill="#333A4A"/>
<rect x="53.8883" y="58.5444" width="1.1778" height="1.1778" rx="0.588901" fill="#333A4A"/>
<rect x="58.9954" y="58.5444" width="1.1778" height="1.1778" rx="0.588901" fill="#333A4A"/>
<rect x="64.1024" y="58.5444" width="1.1778" height="1.1778" rx="0.588901" fill="#333A4A"/>
<rect x="69.2093" y="58.5444" width="1.1778" height="1.1778" rx="0.588901" fill="#333A4A"/>
<rect x="74.3166" y="58.5444" width="1.1778" height="1.1778" rx="0.588901" fill="#333A4A"/>
<rect x="79.4236" y="58.5444" width="1.1778" height="1.1778" rx="0.588901" fill="#333A4A"/>
<rect x="84.5307" y="58.5444" width="1.1778" height="1.1778" rx="0.588901" fill="#333A4A"/>
<rect x="89.6378" y="58.5444" width="1.1778" height="1.1778" rx="0.588901" fill="#333A4A"/>
<rect x="94.7448" y="58.5444" width="1.1778" height="1.1778" rx="0.588901" fill="#333A4A"/>
<rect x="99.8517" y="58.5444" width="1.1778" height="1.1778" rx="0.588901" fill="#333A4A"/>
<rect x="104.959" y="58.5444" width="1.1778" height="1.1778" rx="0.588901" fill="#333A4A"/>
<rect x="110.066" y="58.5444" width="1.1778" height="1.1778" rx="0.588901" fill="#333A4A"/>
<rect x="115.173" y="58.5444" width="1.1778" height="1.1778" rx="0.588901" fill="#333A4A"/>
<rect x="120.28" y="58.5444" width="1.1778" height="1.1778" rx="0.588901" fill="#333A4A"/>
<rect x="125.387" y="58.5444" width="1.1778" height="1.1778" rx="0.588901" fill="#333A4A"/>
<rect x="130.494" y="58.5444" width="1.1778" height="1.1778" rx="0.588901" fill="#333A4A"/>
<rect x="135.601" y="58.5444" width="1.1778" height="1.1778" rx="0.588901" fill="#333A4A"/>
<rect x="140.708" y="58.5444" width="1.1778" height="1.1778" rx="0.588901" fill="#333A4A"/>
<rect x="145.815" y="58.5444" width="1.1778" height="1.1778" rx="0.588901" fill="#333A4A"/>
<rect x="150.923" y="58.5444" width="1.1778" height="1.1778" rx="0.588901" fill="#333A4A"/>
<rect x="156.029" y="58.5444" width="1.1778" height="1.1778" rx="0.588901" fill="#333A4A"/>
<rect x="161.137" y="58.5444" width="1.1778" height="1.1778" rx="0.588901" fill="#333A4A"/>
<rect x="166.244" y="58.5444" width="1.1778" height="1.1778" rx="0.588901" fill="#333A4A"/>
<rect x="23.2459" y="63.6516" width="1.1778" height="1.1778" rx="0.588901" fill="#333A4A"/>
<rect x="28.353" y="63.6516" width="1.1778" height="1.1778" rx="0.588901" fill="#333A4A"/>
<rect x="33.4601" y="63.6516" width="1.1778" height="1.1778" rx="0.588901" fill="#333A4A"/>
<rect x="38.5669" y="63.6516" width="1.1778" height="1.1778" rx="0.588901" fill="#333A4A"/>
<rect x="43.6742" y="63.6516" width="1.1778" height="1.1778" rx="0.588901" fill="#333A4A"/>
<rect x="48.7812" y="63.6516" width="1.1778" height="1.1778" rx="0.588901" fill="#333A4A"/>
<rect x="53.8883" y="63.6516" width="1.1778" height="1.1778" rx="0.588901" fill="#333A4A"/>
<rect x="58.9954" y="63.6516" width="1.1778" height="1.1778" rx="0.588901" fill="#333A4A"/>
<rect x="64.1024" y="63.6516" width="1.1778" height="1.1778" rx="0.588901" fill="#333A4A"/>
<rect x="69.2093" y="63.6516" width="1.1778" height="1.1778" rx="0.588901" fill="#333A4A"/>
<rect x="74.3166" y="63.6516" width="1.1778" height="1.1778" rx="0.588901" fill="#333A4A"/>
<rect x="79.4236" y="63.6516" width="1.1778" height="1.1778" rx="0.588901" fill="#333A4A"/>
<rect x="84.5307" y="63.6516" width="1.1778" height="1.1778" rx="0.588901" fill="#333A4A"/>
<rect x="89.6378" y="63.6516" width="1.1778" height="1.1778" rx="0.588901" fill="#333A4A"/>
<rect x="94.7448" y="63.6516" width="1.1778" height="1.1778" rx="0.588901" fill="#333A4A"/>
<rect x="99.8517" y="63.6516" width="1.1778" height="1.1778" rx="0.588901" fill="#333A4A"/>
<rect x="104.959" y="63.6516" width="1.1778" height="1.1778" rx="0.588901" fill="#333A4A"/>
<rect x="110.066" y="63.6516" width="1.1778" height="1.1778" rx="0.588901" fill="#333A4A"/>
<rect x="115.173" y="63.6516" width="1.1778" height="1.1778" rx="0.588901" fill="#333A4A"/>
<rect x="120.28" y="63.6516" width="1.1778" height="1.1778" rx="0.588901" fill="#333A4A"/>
<rect x="125.387" y="63.6516" width="1.1778" height="1.1778" rx="0.588901" fill="#333A4A"/>
<rect x="130.494" y="63.6516" width="1.1778" height="1.1778" rx="0.588901" fill="#333A4A"/>
<rect x="135.601" y="63.6516" width="1.1778" height="1.1778" rx="0.588901" fill="#333A4A"/>
<rect x="140.708" y="63.6516" width="1.1778" height="1.1778" rx="0.588901" fill="#333A4A"/>
<rect x="145.815" y="63.6516" width="1.1778" height="1.1778" rx="0.588901" fill="#333A4A"/>
<rect x="150.923" y="63.6516" width="1.1778" height="1.1778" rx="0.588901" fill="#333A4A"/>
<rect x="156.029" y="63.6516" width="1.1778" height="1.1778" rx="0.588901" fill="#333A4A"/>
<rect x="161.137" y="63.6516" width="1.1778" height="1.1778" rx="0.588901" fill="#333A4A"/>
<rect x="166.244" y="63.6516" width="1.1778" height="1.1778" rx="0.588901" fill="#333A4A"/>
<rect x="23.2459" y="68.7588" width="1.1778" height="1.1778" rx="0.588901" fill="#333A4A"/>
<rect x="28.353" y="68.7588" width="1.1778" height="1.1778" rx="0.588901" fill="#333A4A"/>
<rect x="33.4601" y="68.7588" width="1.1778" height="1.1778" rx="0.588901" fill="#333A4A"/>
<rect x="38.5669" y="68.7588" width="1.1778" height="1.1778" rx="0.588901" fill="#333A4A"/>
<rect x="43.6742" y="68.7588" width="1.1778" height="1.1778" rx="0.588901" fill="#333A4A"/>
<rect x="48.7812" y="68.7588" width="1.1778" height="1.1778" rx="0.588901" fill="#333A4A"/>
<rect x="53.8883" y="68.7588" width="1.1778" height="1.1778" rx="0.588901" fill="#333A4A"/>
<rect x="58.9954" y="68.7588" width="1.1778" height="1.1778" rx="0.588901" fill="#333A4A"/>
<rect x="64.1024" y="68.7588" width="1.1778" height="1.1778" rx="0.588901" fill="#333A4A"/>
<rect x="69.2093" y="68.7588" width="1.1778" height="1.1778" rx="0.588901" fill="#333A4A"/>
<rect x="74.3166" y="68.7588" width="1.1778" height="1.1778" rx="0.588901" fill="#333A4A"/>
<rect x="79.4236" y="68.7588" width="1.1778" height="1.1778" rx="0.588901" fill="#333A4A"/>
<rect x="84.5307" y="68.7588" width="1.1778" height="1.1778" rx="0.588901" fill="#333A4A"/>
<rect x="89.6378" y="68.7588" width="1.1778" height="1.1778" rx="0.588901" fill="#333A4A"/>
<rect x="94.7448" y="68.7588" width="1.1778" height="1.1778" rx="0.588901" fill="#333A4A"/>
<rect x="99.8517" y="68.7588" width="1.1778" height="1.1778" rx="0.588901" fill="#333A4A"/>
<rect x="104.959" y="68.7588" width="1.1778" height="1.1778" rx="0.588901" fill="#333A4A"/>
<rect x="110.066" y="68.7588" width="1.1778" height="1.1778" rx="0.588901" fill="#333A4A"/>
<rect x="115.173" y="68.7588" width="1.1778" height="1.1778" rx="0.588901" fill="#333A4A"/>
<rect x="120.28" y="68.7588" width="1.1778" height="1.1778" rx="0.588901" fill="#333A4A"/>
<rect x="125.387" y="68.7588" width="1.1778" height="1.1778" rx="0.588901" fill="#333A4A"/>
<rect x="130.494" y="68.7588" width="1.1778" height="1.1778" rx="0.588901" fill="#333A4A"/>
<rect x="135.601" y="68.7588" width="1.1778" height="1.1778" rx="0.588901" fill="#333A4A"/>
<rect x="140.708" y="68.7588" width="1.1778" height="1.1778" rx="0.588901" fill="#333A4A"/>
<rect x="145.815" y="68.7588" width="1.1778" height="1.1778" rx="0.588901" fill="#333A4A"/>
<rect x="150.923" y="68.7588" width="1.1778" height="1.1778" rx="0.588901" fill="#333A4A"/>
<rect x="156.029" y="68.7588" width="1.1778" height="1.1778" rx="0.588901" fill="#333A4A"/>
<rect x="161.137" y="68.7588" width="1.1778" height="1.1778" rx="0.588901" fill="#333A4A"/>
<rect x="166.244" y="68.7588" width="1.1778" height="1.1778" rx="0.588901" fill="#333A4A"/>
<rect x="23.2459" y="73.8657" width="1.1778" height="1.1778" rx="0.588901" fill="#333A4A"/>
<rect x="28.353" y="73.8657" width="1.1778" height="1.1778" rx="0.588901" fill="#333A4A"/>
<rect x="33.4601" y="73.8657" width="1.1778" height="1.1778" rx="0.588901" fill="#333A4A"/>
<rect x="38.5669" y="73.8657" width="1.1778" height="1.1778" rx="0.588901" fill="#333A4A"/>
<rect x="43.6742" y="73.8657" width="1.1778" height="1.1778" rx="0.588901" fill="#333A4A"/>
<rect x="48.7812" y="73.8657" width="1.1778" height="1.1778" rx="0.588901" fill="#333A4A"/>
<rect x="53.8883" y="73.8657" width="1.1778" height="1.1778" rx="0.588901" fill="#333A4A"/>
<rect x="58.9954" y="73.8657" width="1.1778" height="1.1778" rx="0.588901" fill="#333A4A"/>
<rect x="64.1024" y="73.8657" width="1.1778" height="1.1778" rx="0.588901" fill="#333A4A"/>
<rect x="69.2093" y="73.8657" width="1.1778" height="1.1778" rx="0.588901" fill="#333A4A"/>
<rect x="74.3166" y="73.8657" width="1.1778" height="1.1778" rx="0.588901" fill="#333A4A"/>
<rect x="79.4236" y="73.8657" width="1.1778" height="1.1778" rx="0.588901" fill="#333A4A"/>
<rect x="84.5307" y="73.8657" width="1.1778" height="1.1778" rx="0.588901" fill="#333A4A"/>
<rect x="89.6378" y="73.8657" width="1.1778" height="1.1778" rx="0.588901" fill="#333A4A"/>
<rect x="94.7448" y="73.8657" width="1.1778" height="1.1778" rx="0.588901" fill="#333A4A"/>
<rect x="99.8517" y="73.8657" width="1.1778" height="1.1778" rx="0.588901" fill="#333A4A"/>
<rect x="104.959" y="73.8657" width="1.1778" height="1.1778" rx="0.588901" fill="#333A4A"/>
<rect x="110.066" y="73.8657" width="1.1778" height="1.1778" rx="0.588901" fill="#333A4A"/>
<rect x="115.173" y="73.8657" width="1.1778" height="1.1778" rx="0.588901" fill="#333A4A"/>
<rect x="120.28" y="73.8657" width="1.1778" height="1.1778" rx="0.588901" fill="#333A4A"/>
<rect x="125.387" y="73.8657" width="1.1778" height="1.1778" rx="0.588901" fill="#333A4A"/>
<rect x="130.494" y="73.8657" width="1.1778" height="1.1778" rx="0.588901" fill="#333A4A"/>
<rect x="135.601" y="73.8657" width="1.1778" height="1.1778" rx="0.588901" fill="#333A4A"/>
<rect x="140.708" y="73.8657" width="1.1778" height="1.1778" rx="0.588901" fill="#333A4A"/>
<rect x="145.815" y="73.8657" width="1.1778" height="1.1778" rx="0.588901" fill="#333A4A"/>
<rect x="150.923" y="73.8657" width="1.1778" height="1.1778" rx="0.588901" fill="#333A4A"/>
<rect x="156.029" y="73.8657" width="1.1778" height="1.1778" rx="0.588901" fill="#333A4A"/>
<rect x="161.137" y="73.8657" width="1.1778" height="1.1778" rx="0.588901" fill="#333A4A"/>
<rect x="166.244" y="73.8657" width="1.1778" height="1.1778" rx="0.588901" fill="#333A4A"/>
<rect x="23.2459" y="78.9729" width="1.1778" height="1.1778" rx="0.588901" fill="#333A4A"/>
<rect x="28.353" y="78.9729" width="1.1778" height="1.1778" rx="0.588901" fill="#333A4A"/>
<rect x="33.4601" y="78.9729" width="1.1778" height="1.1778" rx="0.588901" fill="#333A4A"/>
<rect x="38.5669" y="78.9729" width="1.1778" height="1.1778" rx="0.588901" fill="#333A4A"/>
<rect x="43.6742" y="78.9729" width="1.1778" height="1.1778" rx="0.588901" fill="#333A4A"/>
<rect x="48.7812" y="78.9729" width="1.1778" height="1.1778" rx="0.588901" fill="#333A4A"/>
<rect x="53.8883" y="78.9729" width="1.1778" height="1.1778" rx="0.588901" fill="#333A4A"/>
<rect x="58.9954" y="78.9729" width="1.1778" height="1.1778" rx="0.588901" fill="#333A4A"/>
<rect x="64.1024" y="78.9729" width="1.1778" height="1.1778" rx="0.588901" fill="#333A4A"/>
<rect x="69.2093" y="78.9729" width="1.1778" height="1.1778" rx="0.588901" fill="#333A4A"/>
<rect x="74.3166" y="78.9729" width="1.1778" height="1.1778" rx="0.588901" fill="#333A4A"/>
<rect x="79.4236" y="78.9729" width="1.1778" height="1.1778" rx="0.588901" fill="#333A4A"/>
<rect x="84.5307" y="78.9729" width="1.1778" height="1.1778" rx="0.588901" fill="#333A4A"/>
<rect x="89.6378" y="78.9729" width="1.1778" height="1.1778" rx="0.588901" fill="#333A4A"/>
<rect x="94.7448" y="78.9729" width="1.1778" height="1.1778" rx="0.588901" fill="#333A4A"/>
<rect x="99.8517" y="78.9729" width="1.1778" height="1.1778" rx="0.588901" fill="#333A4A"/>
<rect x="104.959" y="78.9729" width="1.1778" height="1.1778" rx="0.588901" fill="#333A4A"/>
<rect x="110.066" y="78.9729" width="1.1778" height="1.1778" rx="0.588901" fill="#333A4A"/>
<rect x="115.173" y="78.9729" width="1.1778" height="1.1778" rx="0.588901" fill="#333A4A"/>
<rect x="120.28" y="78.9729" width="1.1778" height="1.1778" rx="0.588901" fill="#333A4A"/>
<rect x="125.387" y="78.9729" width="1.1778" height="1.1778" rx="0.588901" fill="#333A4A"/>
<rect x="130.494" y="78.9729" width="1.1778" height="1.1778" rx="0.588901" fill="#333A4A"/>
<rect x="135.601" y="78.9729" width="1.1778" height="1.1778" rx="0.588901" fill="#333A4A"/>
<rect x="140.708" y="78.9729" width="1.1778" height="1.1778" rx="0.588901" fill="#333A4A"/>
<rect x="145.815" y="78.9729" width="1.1778" height="1.1778" rx="0.588901" fill="#333A4A"/>
<rect x="150.923" y="78.9729" width="1.1778" height="1.1778" rx="0.588901" fill="#333A4A"/>
<rect x="156.029" y="78.9729" width="1.1778" height="1.1778" rx="0.588901" fill="#333A4A"/>
<rect x="161.137" y="78.9729" width="1.1778" height="1.1778" rx="0.588901" fill="#333A4A"/>
<rect x="166.244" y="78.9729" width="1.1778" height="1.1778" rx="0.588901" fill="#333A4A"/>
<rect x="23.2459" y="84.0801" width="1.1778" height="1.1778" rx="0.588901" fill="#333A4A"/>
<rect x="28.353" y="84.0801" width="1.1778" height="1.1778" rx="0.588901" fill="#333A4A"/>
<rect x="33.4601" y="84.0801" width="1.1778" height="1.1778" rx="0.588901" fill="#333A4A"/>
<rect x="38.5669" y="84.0801" width="1.1778" height="1.1778" rx="0.588901" fill="#333A4A"/>
<rect x="43.6742" y="84.0801" width="1.1778" height="1.1778" rx="0.588901" fill="#333A4A"/>
<rect x="48.7812" y="84.0801" width="1.1778" height="1.1778" rx="0.588901" fill="#333A4A"/>
<rect x="53.8883" y="84.0801" width="1.1778" height="1.1778" rx="0.588901" fill="#333A4A"/>
<rect x="58.9954" y="84.0801" width="1.1778" height="1.1778" rx="0.588901" fill="#333A4A"/>
<rect x="64.1024" y="84.0801" width="1.1778" height="1.1778" rx="0.588901" fill="#333A4A"/>
<rect x="69.2093" y="84.0801" width="1.1778" height="1.1778" rx="0.588901" fill="#333A4A"/>
<rect x="74.3166" y="84.0801" width="1.1778" height="1.1778" rx="0.588901" fill="#333A4A"/>
<rect x="79.4236" y="84.0801" width="1.1778" height="1.1778" rx="0.588901" fill="#333A4A"/>
<rect x="84.5307" y="84.0801" width="1.1778" height="1.1778" rx="0.588901" fill="#333A4A"/>
<rect x="89.6378" y="84.0801" width="1.1778" height="1.1778" rx="0.588901" fill="#333A4A"/>
<rect x="94.7448" y="84.0801" width="1.1778" height="1.1778" rx="0.588901" fill="#333A4A"/>
<rect x="99.8517" y="84.0801" width="1.1778" height="1.1778" rx="0.588901" fill="#333A4A"/>
<rect x="104.959" y="84.0801" width="1.1778" height="1.1778" rx="0.588901" fill="#333A4A"/>
<rect x="110.066" y="84.0801" width="1.1778" height="1.1778" rx="0.588901" fill="#333A4A"/>
<rect x="115.173" y="84.0801" width="1.1778" height="1.1778" rx="0.588901" fill="#333A4A"/>
<rect x="120.28" y="84.0801" width="1.1778" height="1.1778" rx="0.588901" fill="#333A4A"/>
<rect x="125.387" y="84.0801" width="1.1778" height="1.1778" rx="0.588901" fill="#333A4A"/>
<rect x="130.494" y="84.0801" width="1.1778" height="1.1778" rx="0.588901" fill="#333A4A"/>
<rect x="135.601" y="84.0801" width="1.1778" height="1.1778" rx="0.588901" fill="#333A4A"/>
<rect x="140.708" y="84.0801" width="1.1778" height="1.1778" rx="0.588901" fill="#333A4A"/>
<rect x="145.815" y="84.0801" width="1.1778" height="1.1778" rx="0.588901" fill="#333A4A"/>
<rect x="150.923" y="84.0801" width="1.1778" height="1.1778" rx="0.588901" fill="#333A4A"/>
<rect x="156.029" y="84.0801" width="1.1778" height="1.1778" rx="0.588901" fill="#333A4A"/>
<rect x="161.137" y="84.0801" width="1.1778" height="1.1778" rx="0.588901" fill="#333A4A"/>
<rect x="166.244" y="84.0801" width="1.1778" height="1.1778" rx="0.588901" fill="#333A4A"/>
<rect x="23.2459" y="89.1868" width="1.1778" height="1.1778" rx="0.588901" fill="#333A4A"/>
<rect x="28.353" y="89.1868" width="1.1778" height="1.1778" rx="0.588901" fill="#333A4A"/>
<rect x="33.4601" y="89.1868" width="1.1778" height="1.1778" rx="0.588901" fill="#333A4A"/>
<rect x="38.5669" y="89.1868" width="1.1778" height="1.1778" rx="0.588901" fill="#333A4A"/>
<rect x="43.6742" y="89.1868" width="1.1778" height="1.1778" rx="0.588901" fill="#333A4A"/>
<rect x="48.7812" y="89.1868" width="1.1778" height="1.1778" rx="0.588901" fill="#333A4A"/>
<rect x="53.8883" y="89.1868" width="1.1778" height="1.1778" rx="0.588901" fill="#333A4A"/>
<rect x="58.9954" y="89.1868" width="1.1778" height="1.1778" rx="0.588901" fill="#333A4A"/>
<rect x="64.1024" y="89.1868" width="1.1778" height="1.1778" rx="0.588901" fill="#333A4A"/>
<rect x="69.2093" y="89.1868" width="1.1778" height="1.1778" rx="0.588901" fill="#333A4A"/>
<rect x="74.3166" y="89.1868" width="1.1778" height="1.1778" rx="0.588901" fill="#333A4A"/>
<rect x="79.4236" y="89.1868" width="1.1778" height="1.1778" rx="0.588901" fill="#333A4A"/>
<rect x="84.5307" y="89.1868" width="1.1778" height="1.1778" rx="0.588901" fill="#333A4A"/>
<rect x="89.6378" y="89.1868" width="1.1778" height="1.1778" rx="0.588901" fill="#333A4A"/>
<rect x="94.7448" y="89.1868" width="1.1778" height="1.1778" rx="0.588901" fill="#333A4A"/>
<rect x="99.8517" y="89.1868" width="1.1778" height="1.1778" rx="0.588901" fill="#333A4A"/>
<rect x="104.959" y="89.1868" width="1.1778" height="1.1778" rx="0.588901" fill="#333A4A"/>
<rect x="110.066" y="89.1868" width="1.1778" height="1.1778" rx="0.588901" fill="#333A4A"/>
<rect x="115.173" y="89.1868" width="1.1778" height="1.1778" rx="0.588901" fill="#333A4A"/>
<rect x="120.28" y="89.1868" width="1.1778" height="1.1778" rx="0.588901" fill="#333A4A"/>
<rect x="125.387" y="89.1868" width="1.1778" height="1.1778" rx="0.588901" fill="#333A4A"/>
<rect x="130.494" y="89.1868" width="1.1778" height="1.1778" rx="0.588901" fill="#333A4A"/>
<rect x="135.601" y="89.1868" width="1.1778" height="1.1778" rx="0.588901" fill="#333A4A"/>
<rect x="140.708" y="89.1868" width="1.1778" height="1.1778" rx="0.588901" fill="#333A4A"/>
<rect x="145.815" y="89.1868" width="1.1778" height="1.1778" rx="0.588901" fill="#333A4A"/>
<rect x="150.923" y="89.1868" width="1.1778" height="1.1778" rx="0.588901" fill="#333A4A"/>
<rect x="156.029" y="89.1868" width="1.1778" height="1.1778" rx="0.588901" fill="#333A4A"/>
<rect x="161.137" y="89.1868" width="1.1778" height="1.1778" rx="0.588901" fill="#333A4A"/>
<rect x="166.244" y="89.1868" width="1.1778" height="1.1778" rx="0.588901" fill="#333A4A"/>
<rect x="23.2459" y="94.2939" width="1.1778" height="1.1778" rx="0.588901" fill="#333A4A"/>
<rect x="28.353" y="94.2939" width="1.1778" height="1.1778" rx="0.588901" fill="#333A4A"/>
<rect x="33.4601" y="94.2939" width="1.1778" height="1.1778" rx="0.588901" fill="#333A4A"/>
<rect x="38.5669" y="94.2939" width="1.1778" height="1.1778" rx="0.588901" fill="#333A4A"/>
<rect x="43.6742" y="94.2939" width="1.1778" height="1.1778" rx="0.588901" fill="#333A4A"/>
<rect x="48.7812" y="94.2939" width="1.1778" height="1.1778" rx="0.588901" fill="#333A4A"/>
<rect x="53.8883" y="94.2939" width="1.1778" height="1.1778" rx="0.588901" fill="#333A4A"/>
<rect x="58.9954" y="94.2939" width="1.1778" height="1.1778" rx="0.588901" fill="#333A4A"/>
<rect x="64.1024" y="94.2939" width="1.1778" height="1.1778" rx="0.588901" fill="#333A4A"/>
<rect x="69.2093" y="94.2939" width="1.1778" height="1.1778" rx="0.588901" fill="#333A4A"/>
<rect x="74.3166" y="94.2939" width="1.1778" height="1.1778" rx="0.588901" fill="#333A4A"/>
<rect x="79.4236" y="94.2939" width="1.1778" height="1.1778" rx="0.588901" fill="#333A4A"/>
<rect x="84.5307" y="94.2939" width="1.1778" height="1.1778" rx="0.588901" fill="#333A4A"/>
<rect x="89.6378" y="94.2939" width="1.1778" height="1.1778" rx="0.588901" fill="#333A4A"/>
<rect x="94.7448" y="94.2939" width="1.1778" height="1.1778" rx="0.588901" fill="#333A4A"/>
<rect x="99.8517" y="94.2939" width="1.1778" height="1.1778" rx="0.588901" fill="#333A4A"/>
<rect x="104.959" y="94.2939" width="1.1778" height="1.1778" rx="0.588901" fill="#333A4A"/>
<rect x="110.066" y="94.2939" width="1.1778" height="1.1778" rx="0.588901" fill="#333A4A"/>
<rect x="115.173" y="94.2939" width="1.1778" height="1.1778" rx="0.588901" fill="#333A4A"/>
<rect x="120.28" y="94.2939" width="1.1778" height="1.1778" rx="0.588901" fill="#333A4A"/>
<rect x="125.387" y="94.2939" width="1.1778" height="1.1778" rx="0.588901" fill="#333A4A"/>
<rect x="130.494" y="94.2939" width="1.1778" height="1.1778" rx="0.588901" fill="#333A4A"/>
<rect x="135.601" y="94.2939" width="1.1778" height="1.1778" rx="0.588901" fill="#333A4A"/>
<rect x="140.708" y="94.2939" width="1.1778" height="1.1778" rx="0.588901" fill="#333A4A"/>
<rect x="145.815" y="94.2939" width="1.1778" height="1.1778" rx="0.588901" fill="#333A4A"/>
<rect x="150.923" y="94.2939" width="1.1778" height="1.1778" rx="0.588901" fill="#333A4A"/>
<rect x="156.029" y="94.2939" width="1.1778" height="1.1778" rx="0.588901" fill="#333A4A"/>
<rect x="161.137" y="94.2939" width="1.1778" height="1.1778" rx="0.588901" fill="#333A4A"/>
<rect x="166.244" y="94.2939" width="1.1778" height="1.1778" rx="0.588901" fill="#333A4A"/>
<rect x="23.2459" y="99.4011" width="1.1778" height="1.1778" rx="0.588901" fill="#333A4A"/>
<rect x="28.353" y="99.4011" width="1.1778" height="1.1778" rx="0.588901" fill="#333A4A"/>
<rect x="33.4601" y="99.4011" width="1.1778" height="1.1778" rx="0.588901" fill="#333A4A"/>
<rect x="38.5669" y="99.4011" width="1.1778" height="1.1778" rx="0.588901" fill="#333A4A"/>
<rect x="43.6742" y="99.4011" width="1.1778" height="1.1778" rx="0.588901" fill="#333A4A"/>
<rect x="48.7812" y="99.4011" width="1.1778" height="1.1778" rx="0.588901" fill="#333A4A"/>
<rect x="53.8883" y="99.4011" width="1.1778" height="1.1778" rx="0.588901" fill="#333A4A"/>
<rect x="58.9954" y="99.4011" width="1.1778" height="1.1778" rx="0.588901" fill="#333A4A"/>
<rect x="64.1024" y="99.4011" width="1.1778" height="1.1778" rx="0.588901" fill="#333A4A"/>
<rect x="69.2093" y="99.4011" width="1.1778" height="1.1778" rx="0.588901" fill="#333A4A"/>
<rect x="74.3166" y="99.4011" width="1.1778" height="1.1778" rx="0.588901" fill="#333A4A"/>
<rect x="79.4236" y="99.4011" width="1.1778" height="1.1778" rx="0.588901" fill="#333A4A"/>
<rect x="84.5307" y="99.4011" width="1.1778" height="1.1778" rx="0.588901" fill="#333A4A"/>
<rect x="89.6378" y="99.4011" width="1.1778" height="1.1778" rx="0.588901" fill="#333A4A"/>
<rect x="94.7448" y="99.4011" width="1.1778" height="1.1778" rx="0.588901" fill="#333A4A"/>
<rect x="99.8517" y="99.4011" width="1.1778" height="1.1778" rx="0.588901" fill="#333A4A"/>
<rect x="104.959" y="99.4011" width="1.1778" height="1.1778" rx="0.588901" fill="#333A4A"/>
<rect x="110.066" y="99.4011" width="1.1778" height="1.1778" rx="0.588901" fill="#333A4A"/>
<rect x="115.173" y="99.4011" width="1.1778" height="1.1778" rx="0.588901" fill="#333A4A"/>
<rect x="120.28" y="99.4011" width="1.1778" height="1.1778" rx="0.588901" fill="#333A4A"/>
<rect x="125.387" y="99.4011" width="1.1778" height="1.1778" rx="0.588901" fill="#333A4A"/>
<rect x="130.494" y="99.4011" width="1.1778" height="1.1778" rx="0.588901" fill="#333A4A"/>
<rect x="135.601" y="99.4011" width="1.1778" height="1.1778" rx="0.588901" fill="#333A4A"/>
<rect x="140.708" y="99.4011" width="1.1778" height="1.1778" rx="0.588901" fill="#333A4A"/>
<rect x="145.815" y="99.4011" width="1.1778" height="1.1778" rx="0.588901" fill="#333A4A"/>
<rect x="150.923" y="99.4011" width="1.1778" height="1.1778" rx="0.588901" fill="#333A4A"/>
<rect x="156.029" y="99.4011" width="1.1778" height="1.1778" rx="0.588901" fill="#333A4A"/>
<rect x="161.137" y="99.4011" width="1.1778" height="1.1778" rx="0.588901" fill="#333A4A"/>
<rect x="166.244" y="99.4011" width="1.1778" height="1.1778" rx="0.588901" fill="#333A4A"/>
<rect x="23.2459" y="104.508" width="1.1778" height="1.1778" rx="0.588901" fill="#333A4A"/>
<rect x="28.353" y="104.508" width="1.1778" height="1.1778" rx="0.588901" fill="#333A4A"/>
<rect x="33.4601" y="104.508" width="1.1778" height="1.1778" rx="0.588901" fill="#333A4A"/>
<rect x="38.5669" y="104.508" width="1.1778" height="1.1778" rx="0.588901" fill="#333A4A"/>
<rect x="43.6742" y="104.508" width="1.1778" height="1.1778" rx="0.588901" fill="#333A4A"/>
<rect x="48.7812" y="104.508" width="1.1778" height="1.1778" rx="0.588901" fill="#333A4A"/>
<rect x="53.8883" y="104.508" width="1.1778" height="1.1778" rx="0.588901" fill="#333A4A"/>
<rect x="58.9954" y="104.508" width="1.1778" height="1.1778" rx="0.588901" fill="#333A4A"/>
<rect x="64.1024" y="104.508" width="1.1778" height="1.1778" rx="0.588901" fill="#333A4A"/>
<rect x="69.2093" y="104.508" width="1.1778" height="1.1778" rx="0.588901" fill="#333A4A"/>
<rect x="74.3166" y="104.508" width="1.1778" height="1.1778" rx="0.588901" fill="#333A4A"/>
<rect x="79.4236" y="104.508" width="1.1778" height="1.1778" rx="0.588901" fill="#333A4A"/>
<rect x="84.5307" y="104.508" width="1.1778" height="1.1778" rx="0.588901" fill="#333A4A"/>
<rect x="89.6378" y="104.508" width="1.1778" height="1.1778" rx="0.588901" fill="#333A4A"/>
<rect x="94.7448" y="104.508" width="1.1778" height="1.1778" rx="0.588901" fill="#333A4A"/>
<rect x="99.8517" y="104.508" width="1.1778" height="1.1778" rx="0.588901" fill="#333A4A"/>
<rect x="104.959" y="104.508" width="1.1778" height="1.1778" rx="0.588901" fill="#333A4A"/>
<rect x="110.066" y="104.508" width="1.1778" height="1.1778" rx="0.588901" fill="#333A4A"/>
<rect x="115.173" y="104.508" width="1.1778" height="1.1778" rx="0.588901" fill="#333A4A"/>
<rect x="120.28" y="104.508" width="1.1778" height="1.1778" rx="0.588901" fill="#333A4A"/>
<rect x="125.387" y="104.508" width="1.1778" height="1.1778" rx="0.588901" fill="#333A4A"/>
<rect x="130.494" y="104.508" width="1.1778" height="1.1778" rx="0.588901" fill="#333A4A"/>
<rect x="135.601" y="104.508" width="1.1778" height="1.1778" rx="0.588901" fill="#333A4A"/>
<rect x="140.708" y="104.508" width="1.1778" height="1.1778" rx="0.588901" fill="#333A4A"/>
<rect x="145.815" y="104.508" width="1.1778" height="1.1778" rx="0.588901" fill="#333A4A"/>
<rect x="150.923" y="104.508" width="1.1778" height="1.1778" rx="0.588901" fill="#333A4A"/>
<rect x="156.029" y="104.508" width="1.1778" height="1.1778" rx="0.588901" fill="#333A4A"/>
<rect x="161.137" y="104.508" width="1.1778" height="1.1778" rx="0.588901" fill="#333A4A"/>
<rect x="166.244" y="104.508" width="1.1778" height="1.1778" rx="0.588901" fill="#333A4A"/>
<rect x="23.2459" y="109.615" width="1.1778" height="1.1778" rx="0.588901" fill="#333A4A"/>
<rect x="28.353" y="109.615" width="1.1778" height="1.1778" rx="0.588901" fill="#333A4A"/>
<rect x="33.4601" y="109.615" width="1.1778" height="1.1778" rx="0.588901" fill="#333A4A"/>
<rect x="38.5669" y="109.615" width="1.1778" height="1.1778" rx="0.588901" fill="#333A4A"/>
<rect x="43.6742" y="109.615" width="1.1778" height="1.1778" rx="0.588901" fill="#333A4A"/>
<rect x="48.7812" y="109.615" width="1.1778" height="1.1778" rx="0.588901" fill="#333A4A"/>
<rect x="53.8883" y="109.615" width="1.1778" height="1.1778" rx="0.588901" fill="#333A4A"/>
<rect x="58.9954" y="109.615" width="1.1778" height="1.1778" rx="0.588901" fill="#333A4A"/>
<rect x="64.1024" y="109.615" width="1.1778" height="1.1778" rx="0.588901" fill="#333A4A"/>
<rect x="69.2093" y="109.615" width="1.1778" height="1.1778" rx="0.588901" fill="#333A4A"/>
<rect x="74.3166" y="109.615" width="1.1778" height="1.1778" rx="0.588901" fill="#333A4A"/>
<rect x="79.4236" y="109.615" width="1.1778" height="1.1778" rx="0.588901" fill="#333A4A"/>
<rect x="84.5307" y="109.615" width="1.1778" height="1.1778" rx="0.588901" fill="#333A4A"/>
<rect x="89.6378" y="109.615" width="1.1778" height="1.1778" rx="0.588901" fill="#333A4A"/>
<rect x="94.7448" y="109.615" width="1.1778" height="1.1778" rx="0.588901" fill="#333A4A"/>
<rect x="99.8517" y="109.615" width="1.1778" height="1.1778" rx="0.588901" fill="#333A4A"/>
<rect x="104.959" y="109.615" width="1.1778" height="1.1778" rx="0.588901" fill="#333A4A"/>
<rect x="110.066" y="109.615" width="1.1778" height="1.1778" rx="0.588901" fill="#333A4A"/>
<rect x="115.173" y="109.615" width="1.1778" height="1.1778" rx="0.588901" fill="#333A4A"/>
<rect x="120.28" y="109.615" width="1.1778" height="1.1778" rx="0.588901" fill="#333A4A"/>
<rect x="125.387" y="109.615" width="1.1778" height="1.1778" rx="0.588901" fill="#333A4A"/>
<rect x="130.494" y="109.615" width="1.1778" height="1.1778" rx="0.588901" fill="#333A4A"/>
<rect x="135.601" y="109.615" width="1.1778" height="1.1778" rx="0.588901" fill="#333A4A"/>
<rect x="140.708" y="109.615" width="1.1778" height="1.1778" rx="0.588901" fill="#333A4A"/>
<rect x="145.815" y="109.615" width="1.1778" height="1.1778" rx="0.588901" fill="#333A4A"/>
<rect x="150.923" y="109.615" width="1.1778" height="1.1778" rx="0.588901" fill="#333A4A"/>
<rect x="156.029" y="109.615" width="1.1778" height="1.1778" rx="0.588901" fill="#333A4A"/>
<rect x="161.137" y="109.615" width="1.1778" height="1.1778" rx="0.588901" fill="#333A4A"/>
<rect x="166.244" y="109.615" width="1.1778" height="1.1778" rx="0.588901" fill="#333A4A"/>
<rect x="23.2459" y="114.722" width="1.1778" height="1.1778" rx="0.588901" fill="#333A4A"/>
<rect x="28.353" y="114.722" width="1.1778" height="1.1778" rx="0.588901" fill="#333A4A"/>
<rect x="33.4601" y="114.722" width="1.1778" height="1.1778" rx="0.588901" fill="#333A4A"/>
<rect x="38.5669" y="114.722" width="1.1778" height="1.1778" rx="0.588901" fill="#333A4A"/>
<rect x="43.6742" y="114.722" width="1.1778" height="1.1778" rx="0.588901" fill="#333A4A"/>
<rect x="48.7812" y="114.722" width="1.1778" height="1.1778" rx="0.588901" fill="#333A4A"/>
<rect x="53.8883" y="114.722" width="1.1778" height="1.1778" rx="0.588901" fill="#333A4A"/>
<rect x="58.9954" y="114.722" width="1.1778" height="1.1778" rx="0.588901" fill="#333A4A"/>
<rect x="64.1024" y="114.722" width="1.1778" height="1.1778" rx="0.588901" fill="#333A4A"/>
<rect x="69.2093" y="114.722" width="1.1778" height="1.1778" rx="0.588901" fill="#333A4A"/>
<rect x="74.3166" y="114.722" width="1.1778" height="1.1778" rx="0.588901" fill="#333A4A"/>
<rect x="79.4236" y="114.722" width="1.1778" height="1.1778" rx="0.588901" fill="#333A4A"/>
<rect x="84.5307" y="114.722" width="1.1778" height="1.1778" rx="0.588901" fill="#333A4A"/>
<rect x="89.6378" y="114.722" width="1.1778" height="1.1778" rx="0.588901" fill="#333A4A"/>
<rect x="94.7448" y="114.722" width="1.1778" height="1.1778" rx="0.588901" fill="#333A4A"/>
<rect x="99.8517" y="114.722" width="1.1778" height="1.1778" rx="0.588901" fill="#333A4A"/>
<rect x="104.959" y="114.722" width="1.1778" height="1.1778" rx="0.588901" fill="#333A4A"/>
<rect x="110.066" y="114.722" width="1.1778" height="1.1778" rx="0.588901" fill="#333A4A"/>
<rect x="115.173" y="114.722" width="1.1778" height="1.1778" rx="0.588901" fill="#333A4A"/>
<rect x="120.28" y="114.722" width="1.1778" height="1.1778" rx="0.588901" fill="#333A4A"/>
<rect x="125.387" y="114.722" width="1.1778" height="1.1778" rx="0.588901" fill="#333A4A"/>
<rect x="130.494" y="114.722" width="1.1778" height="1.1778" rx="0.588901" fill="#333A4A"/>
<rect x="135.601" y="114.722" width="1.1778" height="1.1778" rx="0.588901" fill="#333A4A"/>
<rect x="140.708" y="114.722" width="1.1778" height="1.1778" rx="0.588901" fill="#333A4A"/>
<rect x="145.815" y="114.722" width="1.1778" height="1.1778" rx="0.588901" fill="#333A4A"/>
<rect x="150.923" y="114.722" width="1.1778" height="1.1778" rx="0.588901" fill="#333A4A"/>
<rect x="156.029" y="114.722" width="1.1778" height="1.1778" rx="0.588901" fill="#333A4A"/>
<rect x="161.137" y="114.722" width="1.1778" height="1.1778" rx="0.588901" fill="#333A4A"/>
<rect x="166.244" y="114.722" width="1.1778" height="1.1778" rx="0.588901" fill="#333A4A"/>
<mask id="path-610-inside-1" fill="white">
<rect x="18.0285" y="39.6418" width="127.214" height="59.3664" rx="1.38299"/>
</mask>
<rect x="18.0285" y="39.6418" width="127.214" height="59.3664" rx="1.38299" fill="white" stroke="#333A4A" stroke-width="3.08397" mask="url(#path-610-inside-1)"/>
<path d="M12.1874 35.2306C12.1874 34.8926 12.4614 34.6186 12.7994 34.6186L136.606 34.6186L143.961 40.3382L12.7986 40.1724C12.4609 40.172 12.1874 39.8981 12.1874 39.5604V35.2306Z" fill="white" stroke="#333A4A" stroke-width="1.54198"/>
<path d="M12.1874 35.2188C12.1874 34.6769 12.8398 34.4024 13.2273 34.7813L18.8754 40.305L18.9795 98.0486L12.3583 91.1654C12.2486 91.0514 12.1874 90.8993 12.1874 90.7411V35.2188Z" fill="white" stroke="#333A4A" stroke-width="1.54198"/>
<path d="M8.92699 6.95104C8.89045 6.59049 9.17348 6.27734 9.53587 6.27734H138.315C138.678 6.27734 138.961 6.59049 138.924 6.95104L136.891 27.009C136.86 27.3215 136.597 27.5593 136.282 27.5593H11.5685C11.2544 27.5593 10.9913 27.3215 10.9597 27.009L8.92699 6.95104Z" fill="white" stroke="#333A4A" stroke-width="1.54198"/>
<path d="M1.85172 5.30398C1.79341 4.53155 2.78291 4.16517 3.24172 4.78928L5.71253 8.15031C5.79781 8.26632 5.8489 8.40389 5.86002 8.54744L7.80847 33.7075C7.86917 34.4913 6.85538 34.8526 6.4067 34.207L3.8641 30.549C3.78559 30.436 3.73873 30.3041 3.72838 30.167L1.85172 5.30398Z" fill="white" stroke="#333A4A" stroke-width="1.54198"/>
<path d="M16.618 11.5695C16.586 11.2114 16.8681 10.9031 17.2275 10.9031H146.043C146.403 10.9031 146.685 11.2114 146.653 11.5695L144.587 34.7114C144.559 35.0271 144.294 35.269 143.977 35.269H19.2936C18.9767 35.269 18.7122 35.0271 18.684 34.7114L16.618 11.5695Z" fill="white" stroke="#333A4A" stroke-width="1.54198"/>
</svg>
