<svg width="260" height="100" viewBox="0 0 260 100" fill="none" xmlns="http://www.w3.org/2000/svg"><path d="M0 3.39A3.39 3.39 0 013.39 0h253.22A3.39 3.39 0 01260 3.39v93.22a3.39 3.39 0 01-3.39 3.39H3.39A3.39 3.39 0 010 96.61V3.39z" fill="#fff"/><g filter="url(#filter0_d)"><mask id="path-3-inside-1" fill="#fff"><rect x="28.77" y="33.75" width="50.104" height="32.5" rx="1.625"/></mask><rect x="28.77" y="33.75" width="50.104" height="32.5" rx="1.625" fill="#fff"/><rect x="28.77" y="33.75" width="50.104" height="32.5" rx="1.625" stroke="#333A4A" stroke-width="4" mask="url(#path-3-inside-1)"/></g><path d="M76.843 54.063l-6.65-6.392a1.372 1.372 0 00-1.895 0l-9.77 9.45-4.411-4.267a1.372 1.372 0 00-1.895 0L39.604 64.22h37.24V54.063z" fill="#1ABF7E"/><circle cx="44.344" cy="45.261" fill="#FA0" r="4.74"/><path d="M100.17 55.5V42.9h2.7v7.29l-.18 1.53h.18L108 42.9h3.33v12.6h-2.7v-7.29l.18-1.53h-.18l-5.13 8.82h-3.33zm12.529-2.97h2.52c.072.24.186.438.342.594.36.384.876.576 1.548.576.516 0 .9-.09 1.152-.27a.843.843 0 00.378-.72c0-.336-.114-.582-.342-.738-.228-.168-.624-.252-1.188-.252h-1.17v-1.8h1.08c.96 0 1.44-.33 1.44-.99 0-.252-.132-.462-.396-.63-.252-.18-.63-.27-1.134-.27-.588 0-1.014.168-1.278.504a1.116 1.116 0 00-.252.486h-2.52a4.07 4.07 0 01.738-1.476c.804-.996 1.968-1.494 3.492-1.494 1.236 0 2.19.252 2.862.756.672.504 1.008 1.122 1.008 1.854 0 .684-.27 1.2-.81 1.548-.216.156-.486.27-.81.342v.09c.348.096.648.234.9.414.6.456.9 1.068.9 1.836 0 .828-.336 1.518-1.008 2.07-.672.54-1.686.81-3.042.81-1.644 0-2.874-.54-3.69-1.62a4.302 4.302 0 01-.72-1.62zm10.721 1.836c-.96-.948-1.44-2.1-1.44-3.456 0-1.356.48-2.502 1.44-3.438.96-.948 2.16-1.422 3.6-1.422 1.428 0 2.622.474 3.582 1.422.972.936 1.458 2.082 1.458 3.438 0 1.356-.486 2.508-1.458 3.456-.96.936-2.154 1.404-3.582 1.404-1.44 0-2.64-.468-3.6-1.404zm1.872-5.4c-.468.504-.702 1.152-.702 1.944s.234 1.44.702 1.944a2.265 2.265 0 001.728.756c.684 0 1.26-.252 1.728-.756.468-.504.702-1.152.702-1.944s-.234-1.44-.702-1.944a2.265 2.265 0 00-1.728-.756c-.684 0-1.26.252-1.728.756zm7.694 1.314c0-4.92 2.04-7.38 6.12-7.38h2.61v2.16h-2.34c-1.236 0-2.178.288-2.826.864-.648.564-.996 1.356-1.044 2.376h.09c.144-.204.36-.414.648-.63.612-.42 1.326-.63 2.142-.63 1.188 0 2.172.402 2.952 1.206.792.792 1.188 1.8 1.188 3.024 0 1.284-.444 2.358-1.332 3.222-.876.852-2.022 1.278-3.438 1.278-1.38 0-2.52-.498-3.42-1.494-.9-.996-1.35-2.328-1.35-3.996zm2.61.99c0 .708.198 1.278.594 1.71.396.42.918.63 1.566.63s1.17-.21 1.566-.63c.396-.432.594-1.002.594-1.71 0-.684-.198-1.23-.594-1.638-.396-.408-.918-.612-1.566-.612s-1.17.204-1.566.612c-.396.408-.594.954-.594 1.638zm8.206 7.65v-12.6h2.52v1.17h.09c.192-.252.426-.492.702-.72a3.57 3.57 0 012.178-.72c1.2 0 2.202.45 3.006 1.35.816.888 1.224 2.058 1.224 3.51s-.408 2.628-1.224 3.528c-.804.888-1.806 1.332-3.006 1.332a3.57 3.57 0 01-2.178-.72 4.394 4.394 0 01-.702-.72h-.09v4.59h-2.52zm3.168-9.99c-.432.468-.648 1.128-.648 1.98 0 .852.216 1.518.648 1.998.432.468.996.702 1.692.702.66 0 1.2-.24 1.62-.72.42-.48.63-1.14.63-1.98 0-.84-.21-1.5-.63-1.98-.42-.48-.96-.72-1.62-.72-.696 0-1.26.24-1.692.72zm8.677 5.508c-.804-.9-1.206-2.076-1.206-3.528s.402-2.622 1.206-3.51c.816-.9 1.824-1.35 3.024-1.35.804 0 1.53.24 2.178.72.276.228.51.468.702.72h.09v-1.17h2.52v9.18h-2.52v-1.17h-.09a4.394 4.394 0 01-.702.72 3.57 3.57 0 01-2.178.72c-1.2 0-2.208-.444-3.024-1.332zm2.034-5.508c-.42.48-.63 1.14-.63 1.98 0 .84.21 1.5.63 1.98.42.48.96.72 1.62.72.696 0 1.26-.234 1.692-.702.432-.48.648-1.146.648-1.998 0-.852-.216-1.512-.648-1.98-.432-.48-.996-.72-1.692-.72-.66 0-1.2.24-1.62.72zm7.22 6.57l3.06-4.95-2.79-4.23h2.79l2.25 3.42h.99v-3.42h2.52v3.42h.99l2.25-3.42h2.79l-2.79 4.23 3.06 4.95h-2.88l-2.16-3.6h-1.26v3.6h-2.52v-3.6h-1.26l-2.16 3.6h-2.88zm16.391-1.134c-.948-.948-1.422-2.1-1.422-3.456 0-1.356.474-2.502 1.422-3.438.96-.948 2.136-1.422 3.528-1.422 1.416 0 2.58.468 3.492 1.404.912.936 1.368 2.088 1.368 3.456v.54h-7.2c.096.6.366 1.11.81 1.53.444.42.954.63 1.53.63.636 0 1.182-.18 1.638-.54.18-.156.324-.336.432-.54h2.7a4.858 4.858 0 01-.9 1.62c-.96 1.08-2.25 1.62-3.87 1.62-1.392 0-2.568-.468-3.528-1.404zm1.278-4.446h4.41a2.038 2.038 0 00-.738-1.206c-.384-.336-.858-.504-1.422-.504s-1.044.162-1.44.486a2.428 2.428 0 00-.81 1.224zm8.472 5.58v-9.18h2.52v3.42h3.87v-3.42h2.52v9.18h-2.52v-3.6h-3.87v3.6h-2.52zm10.738 0v-9.18h2.52v3.96l-.09 1.62h.18l3.69-5.58h2.7v9.18h-2.52v-3.96l.09-1.62h-.18l-3.69 5.58h-2.7zm11.707-1.134c-.948-.948-1.422-2.1-1.422-3.456 0-1.356.474-2.502 1.422-3.438.96-.948 2.136-1.422 3.528-1.422 1.416 0 2.58.468 3.492 1.404.912.936 1.368 2.088 1.368 3.456v.54h-7.2c.096.6.366 1.11.81 1.53.444.42.954.63 1.53.63.636 0 1.182-.18 1.638-.54.18-.156.324-.336.432-.54h2.7a4.858 4.858 0 01-.9 1.62c-.96 1.08-2.25 1.62-3.87 1.62-1.392 0-2.568-.468-3.528-1.404zm1.278-4.446h4.41a2.038 2.038 0 00-.738-1.206c-.384-.336-.858-.504-1.422-.504s-1.044.162-1.44.486a2.428 2.428 0 00-.81 1.224zM3.39 2h253.22v-4H3.39v4zM258 3.39v93.22h4V3.39h-4zM256.61 98H3.39v4h253.22v-4zM2 96.61V3.39h-4v93.22h4zM3.39 98A1.39 1.39 0 012 96.61h-4A5.39 5.39 0 003.39 102v-4zM258 96.61a1.39 1.39 0 01-1.39 1.39v4a5.39 5.39 0 005.39-5.39h-4zM256.61 2c.768 0 1.39.622 1.39 1.39h4A5.39 5.39 0 00256.61-2v4zM3.39-2A5.39 5.39 0 00-2 3.39h4C2 2.622 2.622 2 3.39 2v-4z" fill="#333A4A"/><defs><filter id="filter0_d" x="28.77" y="33.75" width="53.354" height="35.75" filterUnits="userSpaceOnUse" color-interpolation-filters="sRGB"><feFlood flood-opacity="0" result="BackgroundImageFix"/><feColorMatrix in="SourceAlpha" values="0 0 0 0 0 0 0 0 0 0 0 0 0 0 0 0 0 0 127 0" result="hardAlpha"/><feOffset dx="3.25" dy="3.25"/><feColorMatrix values="0 0 0 0 0.2 0 0 0 0 0.227451 0 0 0 0 0.290196 0 0 0 1 0"/><feBlend in2="BackgroundImageFix" result="effect1_dropShadow"/><feBlend in="SourceGraphic" in2="effect1_dropShadow" result="shape"/></filter></defs></svg>