<svg width="260" height="100" viewBox="0 0 260 100" fill="none" xmlns="http://www.w3.org/2000/svg"><path d="M0 3.39A3.39 3.39 0 013.39 0h253.22A3.39 3.39 0 01260 3.39v93.22a3.39 3.39 0 01-3.39 3.39H3.39A3.39 3.39 0 010 96.61V3.39z" fill="#fff"/><g filter="url(#filter0_d)"><path d="M38.29 58.16c0 .563.457 1.02 1.02 1.02h5.263a1.02 1.02 0 001.02-1.02v-1.17c.195-3.834 3.325-6.64 6.39-9.72 2.933-3.012 5.737-6.16 5.737-11.02 0-6.64-4.368-11.98-13.692-11.98-8.384 0-14.306 5.169-15.174 13.51-.06.58.406 1.07.99 1.07h5.565c.525 0 .959-.4 1.047-.918.712-4.191 3.407-6.816 7.18-6.816 3.978 0 5.804 2.258 5.804 5.75 0 2.943-2.152 5.201-4.564 7.734-3.13 3.217-6.586 6.571-6.586 11.978v1.582zm3.586 16.215c2.87 0 5.216-2.327 5.216-5.27 0-3.012-2.347-5.34-5.216-5.34-2.934 0-5.346 2.328-5.346 5.34 0 2.943 2.412 5.27 5.346 5.27z" fill="#fff"/><path d="M44.594 56.938l-.001.026v1.196a.02.02 0 01-.001.007.02.02 0 01-.005.007.022.022 0 01-.006.004c-.001 0-.003.002-.008.002H39.31c-.005 0-.007-.001-.008-.002H39.3a.023.023 0 01-.004-.004l-.002-.003a.018.018 0 01-.003-.004v-1.589c0-4.81 2.956-7.846 6.057-11.03l.244-.25h0l.008-.008.035-.038c1.18-1.238 2.37-2.488 3.257-3.808.909-1.352 1.548-2.845 1.548-4.579 0-1.91-.5-3.629-1.686-4.873-1.194-1.254-2.94-1.876-5.117-1.876-2.133 0-4.001.748-5.43 2.113-1.419 1.357-2.352 3.272-2.737 5.536a.128.128 0 01-.039.073c-.013.012-.02.012-.022.012h0-5.557c.417-3.937 2.013-7.06 4.433-9.204 2.43-2.15 5.76-3.375 9.743-3.375 4.471 0 7.623 1.277 9.65 3.221 2.027 1.944 3.042 4.66 3.042 7.757 0 4.417-2.513 7.304-5.45 10.319l-.707.706c-1.286 1.28-2.6 2.59-3.647 3.968-1.258 1.654-2.21 3.505-2.322 5.696zm1.498 12.166c0 2.396-1.903 4.271-4.216 4.271-2.401 0-4.346-1.9-4.346-4.27 0-2.449 1.953-4.34 4.346-4.34 2.304 0 4.216 1.867 4.216 4.34z" stroke="#333A4A" stroke-width="2"/></g><rect x="62.684" y="51.434" width="16.831" height="16.831" rx="1.102" transform="rotate(13.895 62.684 51.434)" fill="#1ABF7E" stroke="#21A37A"/><path d="M63.716 60.027l3.127 5.182 8.132-6.143" stroke="#fff" stroke-linecap="round" stroke-linejoin="round"/><path d="M100.17 44V31.4h6.48c1.26 0 2.25.306 2.97.918.72.612 1.08 1.386 1.08 2.322 0 .9-.33 1.608-.99 2.124a3.615 3.615 0 01-.99.486v.09c.42.084.822.252 1.206.504.816.54 1.224 1.362 1.224 2.466 0 1.08-.408 1.968-1.224 2.664C109.122 43.658 108 44 106.56 44h-6.39zm2.7-7.65h3.42c.516 0 .912-.114 1.188-.342.288-.24.432-.546.432-.918s-.144-.672-.432-.9c-.276-.24-.672-.36-1.188-.36h-3.42v2.52zm0 5.22h3.51c.66 0 1.152-.132 1.476-.396.336-.264.504-.612.504-1.044 0-.432-.168-.78-.504-1.044-.324-.264-.816-.396-1.476-.396h-3.51v2.88zm10.639 1.296c-.96-.948-1.44-2.1-1.44-3.456 0-1.356.48-2.502 1.44-3.438.96-.948 2.16-1.422 3.6-1.422 1.428 0 2.622.474 3.582 1.422.972.936 1.458 2.082 1.458 3.438 0 1.356-.486 2.508-1.458 3.456-.96.936-2.154 1.404-3.582 1.404-1.44 0-2.64-.468-3.6-1.404zm1.872-5.4c-.468.504-.702 1.152-.702 1.944s.234 1.44.702 1.944a2.265 2.265 0 001.728.756c.684 0 1.26-.252 1.728-.756.468-.504.702-1.152.702-1.944s-.234-1.44-.702-1.944a2.265 2.265 0 00-1.728-.756c-.684 0-1.26.252-1.728.756zM123.434 44v-9.18h8.82V44h-2.52v-7.02h-3.78V44h-2.52zm10.632 3.42v-12.6h2.52v1.17h.09c.192-.252.426-.492.702-.72a3.57 3.57 0 012.178-.72c1.2 0 2.202.45 3.006 1.35.816.888 1.224 2.058 1.224 3.51s-.408 2.628-1.224 3.528c-.804.888-1.806 1.332-3.006 1.332a3.57 3.57 0 01-2.178-.72 4.394 4.394 0 01-.702-.72h-.09v4.59h-2.52zm3.168-9.99c-.432.468-.648 1.128-.648 1.98 0 .852.216 1.518.648 1.998.432.468.996.702 1.692.702.66 0 1.2-.24 1.62-.72.42-.48.63-1.14.63-1.98 0-.84-.21-1.5-.63-1.98-.42-.48-.96-.72-1.62-.72-.696 0-1.26.24-1.692.72zm8.822 5.436c-.96-.948-1.44-2.1-1.44-3.456 0-1.356.48-2.502 1.44-3.438.96-.948 2.16-1.422 3.6-1.422 1.428 0 2.622.474 3.582 1.422.972.936 1.458 2.082 1.458 3.438 0 1.356-.486 2.508-1.458 3.456-.96.936-2.154 1.404-3.582 1.404-1.44 0-2.64-.468-3.6-1.404zm1.872-5.4c-.468.504-.702 1.152-.702 1.944s.234 1.44.702 1.944a2.265 2.265 0 001.728.756c.684 0 1.26-.252 1.728-.756.468-.504.702-1.152.702-1.944s-.234-1.44-.702-1.944a2.265 2.265 0 00-1.728-.756c-.684 0-1.26.252-1.728.756zm8.935 5.4c-.948-.948-1.422-2.1-1.422-3.456 0-1.356.474-2.502 1.422-3.438.96-.948 2.136-1.422 3.528-1.422 1.668 0 2.94.6 3.816 1.8.396.516.684 1.116.864 1.8h-2.61a2.735 2.735 0 00-.432-.72c-.456-.48-1.002-.72-1.638-.72-.636 0-1.188.252-1.656.756-.456.504-.684 1.152-.684 1.944s.228 1.44.684 1.944c.468.504 1.02.756 1.656.756.636 0 1.182-.24 1.638-.72.18-.216.324-.456.432-.72h2.61c-.168.696-.444 1.296-.828 1.8-.876 1.2-2.16 1.8-3.852 1.8-1.392 0-2.568-.468-3.528-1.404zm-55.991 23c-.948-.948-1.422-2.1-1.422-3.456 0-1.356.474-2.502 1.422-3.438.96-.948 2.136-1.422 3.528-1.422 1.668 0 2.94.6 3.816 1.8.396.516.684 1.116.864 1.8h-2.61a2.735 2.735 0 00-.432-.72c-.456-.48-1.002-.72-1.638-.72-.636 0-1.188.252-1.656.756-.456.504-.684 1.152-.684 1.944s.228 1.44.684 1.944c.468.504 1.02.756 1.656.756.636 0 1.182-.24 1.638-.72.18-.216.324-.456.432-.72h2.61c-.168.696-.444 1.296-.828 1.8-.876 1.2-2.16 1.8-3.852 1.8-1.392 0-2.568-.468-3.528-1.404zm15.127.072c-.804-.9-1.206-2.076-1.206-3.528s.402-2.622 1.206-3.51c.816-.9 1.824-1.35 3.024-1.35.804 0 1.53.24 2.178.72.276.228.51.468.702.72h.09v-1.17h2.52V67h-2.52v-1.17h-.09a4.394 4.394 0 01-.702.72 3.57 3.57 0 01-2.178.72c-1.2 0-2.208-.444-3.024-1.332zm2.034-5.508c-.42.48-.63 1.14-.63 1.98 0 .84.21 1.5.63 1.98.42.48.96.72 1.62.72.696 0 1.26-.234 1.692-.702.432-.48.648-1.146.648-1.998 0-.852-.216-1.512-.648-1.98-.432-.48-.996-.72-1.692-.72-.66 0-1.2.24-1.62.72zm8.299 6.57v-9.18h5.04c.948 0 1.68.21 2.196.63.516.42.774.96.774 1.62 0 .696-.258 1.242-.774 1.638-.24.18-.492.294-.756.342v.09c.348.072.678.198.99.378.66.468.99 1.092.99 1.872 0 .768-.3 1.398-.9 1.89-.6.48-1.44.72-2.52.72h-5.04zm2.52-5.67h2.16c.276 0 .492-.078.648-.234a.755.755 0 00.252-.576.755.755 0 00-.252-.576c-.156-.156-.372-.234-.648-.234h-2.16v1.62zm0 3.78h2.34c.312 0 .57-.096.774-.288a.928.928 0 00.306-.702.928.928 0 00-.306-.702 1.085 1.085 0 00-.774-.288h-2.34v1.98zm6.404-5.13v-2.16h8.64v2.16h-3.06V67h-2.52v-7.02h-3.06zm10.463 5.886c-.96-.948-1.44-2.1-1.44-3.456 0-1.356.48-2.502 1.44-3.438.96-.948 2.16-1.422 3.6-1.422 1.428 0 2.622.474 3.582 1.422.972.936 1.458 2.082 1.458 3.438 0 1.356-.486 2.508-1.458 3.456-.96.936-2.154 1.404-3.582 1.404-1.44 0-2.64-.468-3.6-1.404zm1.872-5.4c-.468.504-.702 1.152-.702 1.944s.234 1.44.702 1.944a2.265 2.265 0 001.728.756c.684 0 1.26-.252 1.728-.756.468-.504.702-1.152.702-1.944s-.234-1.44-.702-1.944a2.265 2.265 0 00-1.728-.756c-.684 0-1.26.252-1.728.756zM155.645 67v-9.18h8.82V67h-2.52v-7.02h-3.78V67h-2.52zm10.632 3.42v-12.6h2.52v1.17h.09c.192-.252.426-.492.702-.72a3.57 3.57 0 012.178-.72c1.2 0 2.202.45 3.006 1.35.816.888 1.224 2.058 1.224 3.51s-.408 2.628-1.224 3.528c-.804.888-1.806 1.332-3.006 1.332a3.57 3.57 0 01-2.178-.72 4.394 4.394 0 01-.702-.72h-.09v4.59h-2.52zm3.168-9.99c-.432.468-.648 1.128-.648 1.98 0 .852.216 1.518.648 1.998.432.468.996.702 1.692.702.66 0 1.2-.24 1.62-.72.42-.48.63-1.14.63-1.98 0-.84-.21-1.5-.63-1.98-.42-.48-.96-.72-1.62-.72-.696 0-1.26.24-1.692.72zm8.821 5.436c-.96-.948-1.44-2.1-1.44-3.456 0-1.356.48-2.502 1.44-3.438.96-.948 2.16-1.422 3.6-1.422 1.428 0 2.622.474 3.582 1.422.972.936 1.458 2.082 1.458 3.438 0 1.356-.486 2.508-1.458 3.456-.96.936-2.154 1.404-3.582 1.404-1.44 0-2.64-.468-3.6-1.404zm1.872-5.4c-.468.504-.702 1.152-.702 1.944s.234 1.44.702 1.944a2.265 2.265 0 001.728.756c.684 0 1.26-.252 1.728-.756.468-.504.702-1.152.702-1.944s-.234-1.44-.702-1.944a2.265 2.265 0 00-1.728-.756c-.684 0-1.26.252-1.728.756zM188.192 67v-9.18h5.04c.948 0 1.68.21 2.196.63.516.42.774.96.774 1.62 0 .696-.258 1.242-.774 1.638-.24.18-.492.294-.756.342v.09c.348.072.678.198.99.378.66.468.99 1.092.99 1.872 0 .768-.3 1.398-.9 1.89-.6.48-1.44.72-2.52.72h-5.04zm2.52-5.67h2.16c.276 0 .492-.078.648-.234a.755.755 0 00.252-.576.755.755 0 00-.252-.576c-.156-.156-.372-.234-.648-.234h-2.16v1.62zm0 3.78h2.34c.312 0 .57-.096.774-.288a.928.928 0 00.306-.702.928.928 0 00-.306-.702 1.085 1.085 0 00-.774-.288h-2.34v1.98zm8.186.756c-.948-.948-1.422-2.1-1.422-3.456 0-1.356.474-2.502 1.422-3.438.96-.948 2.136-1.422 3.528-1.422 1.416 0 2.58.468 3.492 1.404.912.936 1.368 2.088 1.368 3.456v.54h-7.2c.096.6.366 1.11.81 1.53.444.42.954.63 1.53.63.636 0 1.182-.18 1.638-.54.18-.156.324-.336.432-.54h2.7a4.858 4.858 0 01-.9 1.62c-.96 1.08-2.25 1.62-3.87 1.62-1.392 0-2.568-.468-3.528-1.404zm1.278-4.446h4.41a2.038 2.038 0 00-.738-1.206c-.384-.336-.858-.504-1.422-.504s-1.044.162-1.44.486a2.428 2.428 0 00-.81 1.224zm8.472 9v-12.6h2.52v1.17h.09c.192-.252.426-.492.702-.72a3.57 3.57 0 012.178-.72c1.2 0 2.202.45 3.006 1.35.816.888 1.224 2.058 1.224 3.51s-.408 2.628-1.224 3.528c-.804.888-1.806 1.332-3.006 1.332a3.57 3.57 0 01-2.178-.72 4.394 4.394 0 01-.702-.72h-.09v4.59h-2.52zm3.168-9.99c-.432.468-.648 1.128-.648 1.98 0 .852.216 1.518.648 1.998.432.468.996.702 1.692.702.66 0 1.2-.24 1.62-.72.42-.48.63-1.14.63-1.98 0-.84-.21-1.5-.63-1.98-.42-.48-.96-.72-1.62-.72-.696 0-1.26.24-1.692.72zm7.921 6.57v-9.18h2.52v3.42h1.08l2.43-3.42h2.79l-2.97 4.23 3.24 4.95h-2.88l-2.34-3.6h-1.35V67h-2.52zm10.372-1.134c-.96-.948-1.44-2.1-1.44-3.456 0-1.356.48-2.502 1.44-3.438.96-.948 2.16-1.422 3.6-1.422 1.428 0 2.622.474 3.582 1.422.972.936 1.458 2.082 1.458 3.438 0 1.356-.486 2.508-1.458 3.456-.96.936-2.154 1.404-3.582 1.404-1.44 0-2.64-.468-3.6-1.404zm1.872-5.4c-.468.504-.702 1.152-.702 1.944s.234 1.44.702 1.944a2.265 2.265 0 001.728.756c.684 0 1.26-.252 1.728-.756.468-.504.702-1.152.702-1.944s-.234-1.44-.702-1.944a2.265 2.265 0 00-1.728-.756c-.684 0-1.26.252-1.728.756zM240.035 67v-9.18h2.52v3.96l-.09 1.62h.18l3.69-5.58h2.7V67h-2.52v-3.96l.09-1.62h-.18l-3.69 5.58h-2.7zm1.62-12.87h1.71c0 .6.39.9 1.17.9.78 0 1.17-.3 1.17-.9h1.71c0 .744-.252 1.338-.756 1.782-.492.432-1.2.648-2.124.648-.924 0-1.638-.216-2.142-.648-.492-.444-.738-1.038-.738-1.782zM3.39 2h253.22v-4H3.39v4zM258 3.39v93.22h4V3.39h-4zM256.61 98H3.39v4h253.22v-4zM2 96.61V3.39h-4v93.22h4zM3.39 98A1.39 1.39 0 012 96.61h-4A5.39 5.39 0 003.39 102v-4zM258 96.61a1.39 1.39 0 01-1.39 1.39v4a5.39 5.39 0 005.39-5.39h-4zM256.61 2c.768 0 1.39.622 1.39 1.39h4A5.39 5.39 0 00256.61-2v4zM3.39-2A5.39 5.39 0 00-2 3.39h4C2 2.622 2.622 2 3.39 2v-4z" fill="#333A4A"/><defs><filter id="filter0_d" x="28.849" y="24.271" width="30.872" height="52.104" filterUnits="userSpaceOnUse" color-interpolation-filters="sRGB"><feFlood flood-opacity="0" result="BackgroundImageFix"/><feColorMatrix in="SourceAlpha" values="0 0 0 0 0 0 0 0 0 0 0 0 0 0 0 0 0 0 127 0" result="hardAlpha"/><feOffset dx="2" dy="2"/><feColorMatrix values="0 0 0 0 0.2 0 0 0 0 0.227451 0 0 0 0 0.290196 0 0 0 1 0"/><feBlend in2="BackgroundImageFix" result="effect1_dropShadow"/><feBlend in="SourceGraphic" in2="effect1_dropShadow" result="shape"/></filter></defs></svg>