<svg width="260" height="100" viewBox="0 0 260 100" fill="none" xmlns="http://www.w3.org/2000/svg"><path d="M0 3.39A3.39 3.39 0 013.39 0h253.22A3.39 3.39 0 01260 3.39v93.22a3.39 3.39 0 01-3.39 3.39H3.39A3.39 3.39 0 010 96.61V3.39z" fill="#fff"/><g filter="url(#filter0_d)"><path d="M26.462 36.458a.4.4 0 01-.4-.4v-5.97a.4.4 0 01.4-.4h28.55a.4.4 0 01.4.4v5.97a.4.4 0 01-.4.4H44.406v26.684a.4.4 0 01-.4.4h-6.537a.4.4 0 01-.4-.4V36.458H26.462zm33.396 8.222a.4.4 0 01-.4-.4v-5.004a.4.4 0 01.4-.4h22.68c.22 0 .4.18.4.4v5.004a.4.4 0 01-.4.4h-7.916v18.462a.4.4 0 01-.4.4h-6.048a.4.4 0 01-.4-.4V44.68h-7.916z" fill="#fff"/><path d="M26.462 36.458a.4.4 0 01-.4-.4v-5.97a.4.4 0 01.4-.4h28.55a.4.4 0 01.4.4v5.97a.4.4 0 01-.4.4H44.406v26.684a.4.4 0 01-.4.4h-6.537a.4.4 0 01-.4-.4V36.458H26.462zm33.396 8.222a.4.4 0 01-.4-.4v-5.004a.4.4 0 01.4-.4h22.68c.22 0 .4.18.4.4v5.004a.4.4 0 01-.4.4h-7.916v18.462a.4.4 0 01-.4.4h-6.048a.4.4 0 01-.4-.4V44.68h-7.916z" stroke="#333A4A" stroke-width="2"/></g><path d="M99.18 45.42V42.9h10.8v2.52h-4.05V55.5h-2.7V45.42h-4.05zm11.973 8.946c-.948-.948-1.422-2.1-1.422-3.456 0-1.356.474-2.502 1.422-3.438.96-.948 2.136-1.422 3.528-1.422 1.416 0 2.58.468 3.492 1.404.912.936 1.368 2.088 1.368 3.456v.54h-7.2c.096.6.366 1.11.81 1.53.444.42.954.63 1.53.63.636 0 1.182-.18 1.638-.54.18-.156.324-.336.432-.54h2.7a4.858 4.858 0 01-.9 1.62c-.96 1.08-2.25 1.62-3.87 1.62-1.392 0-2.568-.468-3.528-1.404zm1.278-4.446h4.41a2.038 2.038 0 00-.738-1.206c-.384-.336-.858-.504-1.422-.504s-1.044.162-1.44.486a2.428 2.428 0 00-.81 1.224zm8.472 5.58v-9.18h2.52v3.42h1.08l2.43-3.42h2.79l-2.97 4.23 3.24 4.95h-2.88l-2.34-3.6h-1.35v3.6h-2.52zm10.354-1.134c-.948-.948-1.422-2.1-1.422-3.456 0-1.356.474-2.502 1.422-3.438.96-.948 2.136-1.422 3.528-1.422 1.668 0 2.94.6 3.816 1.8.396.516.684 1.116.864 1.8h-2.61a2.735 2.735 0 00-.432-.72c-.456-.48-1.002-.72-1.638-.72-.636 0-1.188.252-1.656.756-.456.504-.684 1.152-.684 1.944s.228 1.44.684 1.944c.468.504 1.02.756 1.656.756.636 0 1.182-.24 1.638-.72.18-.216.324-.456.432-.72h2.61c-.168.696-.444 1.296-.828 1.8-.876 1.2-2.16 1.8-3.852 1.8-1.392 0-2.568-.468-3.528-1.404zm8.587-5.886v-2.16h8.64v2.16h-3.06v7.02h-2.52v-7.02h-3.06zM3.39 2h253.22v-4H3.39v4zM258 3.39v93.22h4V3.39h-4zM256.61 98H3.39v4h253.22v-4zM2 96.61V3.39h-4v93.22h4zM3.39 98A1.39 1.39 0 012 96.61h-4A5.39 5.39 0 003.39 102v-4zM258 96.61a1.39 1.39 0 01-1.39 1.39v4a5.39 5.39 0 005.39-5.39h-4zM256.61 2c.768 0 1.39.622 1.39 1.39h4A5.39 5.39 0 00256.61-2v4zM3.39-2A5.39 5.39 0 00-2 3.39h4C2 2.622 2.622 2 3.39 2v-4z" fill="#333A4A"/><defs><filter id="filter0_d" x="25.063" y="28.688" width="60.875" height="37.854" filterUnits="userSpaceOnUse" color-interpolation-filters="sRGB"><feFlood flood-opacity="0" result="BackgroundImageFix"/><feColorMatrix in="SourceAlpha" values="0 0 0 0 0 0 0 0 0 0 0 0 0 0 0 0 0 0 127 0" result="hardAlpha"/><feOffset dx="2" dy="2"/><feColorMatrix values="0 0 0 0 0.2 0 0 0 0 0.227451 0 0 0 0 0.290196 0 0 0 1 0"/><feBlend in2="BackgroundImageFix" result="effect1_dropShadow"/><feBlend in="SourceGraphic" in2="effect1_dropShadow" result="shape"/></filter></defs></svg>