<svg width="267" height="119" viewBox="0 0 267 119" fill="none" xmlns="http://www.w3.org/2000/svg">
<path d="M0.246475 22.2869C0.11035 20.4198 1.51353 18.796 3.38056 18.6598L255.931 0.246501C257.798 0.110377 259.422 1.51356 259.558 3.38059L266.337 96.3547C266.473 98.2218 265.07 99.8456 263.203 99.9818L10.6522 118.395C8.78516 118.531 7.1613 117.128 7.02517 115.261L0.246475 22.2869Z" fill="white"/>
<g filter="url(#filter0_d)">
<path d="M42.4181 74.1281C42.4591 74.6896 42.9474 75.1116 43.5089 75.0707L48.7587 74.6879C49.3202 74.647 49.7422 74.1586 49.7012 73.5971L49.6161 72.4292C49.5325 68.5921 52.4497 65.5655 55.2821 62.2707C57.9893 59.0536 60.5566 55.7094 60.2032 50.8625C59.7204 44.2405 54.9753 39.2334 45.6763 39.9114C37.3149 40.521 31.7841 46.106 31.5245 54.4874C31.5064 55.0705 32.0078 55.5261 32.5897 55.4837L38.1399 55.079C38.6636 55.0408 39.0676 54.61 39.1177 54.0874C39.5236 49.8549 42.0198 47.0409 45.7838 46.7665C49.7505 46.4773 51.7356 48.5974 51.9894 52.079C52.2034 55.0145 50.2218 57.4237 47.9999 60.125C45.1125 63.5612 41.9099 67.1575 42.3031 72.5506L42.4181 74.1281ZM47.1737 90.0393C50.035 89.8307 52.2068 87.339 51.9927 84.4035C51.7737 81.3997 49.2635 79.2493 46.4023 79.4579C43.476 79.6713 41.2392 82.1678 41.4582 85.1715C41.6722 88.107 44.2475 90.2527 47.1737 90.0393Z" fill="white"/>
<path d="M48.6163 72.451L48.6169 72.4765L48.6187 72.502L48.7039 73.6698C48.704 73.6714 48.704 73.6726 48.704 73.6736C48.7038 73.6755 48.7035 73.6765 48.7033 73.6771C48.7028 73.6787 48.7015 73.6812 48.6992 73.6839C48.6969 73.6866 48.6946 73.6881 48.6931 73.6889C48.6922 73.6894 48.6905 73.6902 48.686 73.6906L43.4362 74.0733C43.4317 74.0736 43.4299 74.0731 43.4289 74.0727C43.4283 74.0725 43.4275 74.0722 43.4266 74.0717C43.4253 74.071 43.4237 74.07 43.4221 74.0686C43.4211 74.0678 43.4203 74.0669 43.4196 74.0661C43.4184 74.0647 43.4176 74.0635 43.4171 74.0625C43.4166 74.0616 43.4158 74.0599 43.4155 74.0554L43.3005 72.4779C42.9507 67.681 45.679 64.4377 48.5398 61.0367C48.615 60.9474 48.6902 60.858 48.7655 60.7684L48.7655 60.7684L48.7722 60.7603L48.8052 60.7202C49.8917 59.3993 50.9878 58.0667 51.7765 56.6858C52.5843 55.2712 53.1128 53.7355 52.9868 52.0063C52.8479 50.1016 52.2239 48.4233 50.951 47.2681C49.669 46.1048 47.8824 45.6109 45.7111 45.7692C43.5835 45.9243 41.775 46.8061 40.4497 48.2721C39.133 49.7285 38.3415 51.7059 38.1223 53.9919C38.1191 54.0255 38.1046 54.0522 38.0891 54.0681C38.0764 54.0812 38.0694 54.0815 38.0675 54.0816L38.0672 54.0817L32.525 54.4857C32.6545 50.529 34.0191 47.2971 36.2778 44.9835C38.5443 42.6619 41.7766 41.1983 45.749 40.9087C50.2085 40.5836 53.4442 41.6279 55.608 43.4197C57.7709 45.2106 58.9805 47.8451 59.2058 50.9352C59.527 55.3399 57.2303 58.4022 54.5202 61.6229C54.3045 61.8738 54.0859 62.1257 53.8665 62.3787C52.6776 63.749 51.462 65.1501 50.5175 66.601C49.3839 68.3424 48.5685 70.2572 48.6163 72.451ZM50.9954 84.4762C51.1696 86.8651 49.4072 88.8738 47.101 89.042C44.7058 89.2166 42.628 87.4639 42.4555 85.0988C42.2775 82.6572 44.0882 80.6293 46.475 80.4553C48.7727 80.2878 50.8156 82.0105 50.9954 84.4762Z" stroke="#333A4A" stroke-width="2"/>
</g>
<rect x="66.258" y="65.6457" width="16.8305" height="16.8305" rx="1.10214" transform="rotate(9.72518 66.258 65.6457)" fill="#1ABF7E" stroke="#21A37A"/>
<path d="M67.9127 74.1416L71.4076 79.0823L79.0717 72.3636" stroke="white" stroke-linecap="round" stroke-linejoin="round"/>
<path d="M103.104 55.5058L102.188 42.9392L108.651 42.468C109.908 42.3764 110.917 42.6096 111.68 43.1676C112.442 43.7256 112.858 44.4714 112.926 45.4049C112.991 46.3025 112.714 47.0326 112.093 47.5953C111.797 47.8334 111.48 48.0189 111.141 48.152L111.147 48.2417C111.572 48.295 111.985 48.4333 112.387 48.6567C113.24 49.1359 113.707 49.9261 113.787 51.0272C113.865 52.1043 113.523 53.0196 112.76 53.7731C112.008 54.5138 110.914 54.9365 109.477 55.0412L103.104 55.5058ZM105.241 47.6797L108.652 47.4311C109.166 47.3935 109.553 47.251 109.812 47.0036C110.082 46.7433 110.203 46.4276 110.176 46.0566C110.149 45.6856 109.983 45.3968 109.68 45.1904C109.387 44.9711 108.983 44.8802 108.469 44.9177L105.058 45.1664L105.241 47.6797ZM105.62 52.8859L109.121 52.6307C109.779 52.5827 110.26 52.4153 110.564 52.1284C110.88 51.8407 111.023 51.4814 110.991 51.0505C110.96 50.6197 110.767 50.2848 110.413 50.0459C110.07 49.8062 109.57 49.7103 108.912 49.7583L105.411 50.0135L105.62 52.8859ZM116.325 53.4049C115.299 52.5292 114.736 51.4152 114.638 50.0628C114.539 48.7103 114.934 47.5325 115.824 46.5291C116.712 45.5138 117.875 44.9538 119.311 44.8491C120.735 44.7453 121.96 45.1312 122.987 46.0069C124.024 46.8697 124.592 47.9774 124.691 49.3298C124.789 50.6822 124.389 51.8665 123.488 52.8826C122.599 53.886 121.442 54.4396 120.018 54.5434C118.581 54.6481 117.351 54.2686 116.325 53.4049ZM117.799 47.8831C117.369 48.4198 117.183 49.0831 117.241 49.873C117.298 50.6629 117.579 51.2921 118.082 51.7608C118.586 52.2294 119.178 52.4389 119.861 52.3891C120.543 52.3394 121.099 52.0462 121.529 51.5095C121.959 50.9728 122.145 50.3095 122.088 49.5196C122.03 48.7297 121.75 48.1004 121.246 47.6318C120.743 47.1631 120.15 46.9537 119.468 47.0034C118.786 47.0531 118.23 47.3464 117.799 47.8831ZM126.307 53.8141L125.639 44.6584L134.436 44.0171L135.103 53.1728L132.59 53.356L132.08 46.3546L128.31 46.6295L128.82 53.6309L126.307 53.8141ZM137.16 56.4519L136.243 43.8853L138.757 43.7021L138.842 44.869L138.932 44.8624C139.105 44.5971 139.321 44.3407 139.579 44.0933C140.191 43.5674 140.897 43.2753 141.699 43.2168C142.896 43.1295 143.928 43.5055 144.795 44.3446C145.674 45.171 146.166 46.3082 146.271 47.7563C146.377 49.2045 146.056 50.4071 145.307 51.364C144.57 52.3081 143.603 52.8238 142.406 52.9111C141.604 52.9695 140.863 52.783 140.181 52.3514C139.89 52.144 139.639 51.9217 139.429 51.6843L139.339 51.6908L139.673 56.2687L137.16 56.4519ZM139.593 46.258C139.196 46.7562 139.029 47.4302 139.09 48.2799C139.152 49.1296 139.416 49.7782 139.882 50.2255C140.347 50.6608 140.926 50.8532 141.621 50.8026C142.279 50.7546 142.8 50.476 143.184 49.9667C143.568 49.4574 143.729 48.7839 143.668 47.9461C143.607 47.1084 143.35 46.4654 142.896 46.0172C142.442 45.569 141.886 45.3689 141.228 45.4169C140.534 45.4675 139.989 45.7479 139.593 46.258ZM148.786 51.0382C147.76 50.1625 147.197 49.0485 147.099 47.696C147 46.3436 147.395 45.1658 148.285 44.1624C149.173 43.1471 150.336 42.5871 151.772 42.4824C153.196 42.3786 154.421 42.7645 155.448 43.6402C156.485 44.503 157.053 45.6107 157.152 46.9631C157.25 48.3155 156.849 49.4998 155.949 50.5159C155.06 51.5193 153.903 52.0728 152.479 52.1767C151.042 52.2814 149.812 51.9019 148.786 51.0382ZM150.26 45.5164C149.83 46.053 149.644 46.7163 149.702 47.5063C149.759 48.2962 150.04 48.9254 150.543 49.3941C151.047 49.8627 151.639 50.0721 152.322 50.0224C153.004 49.9727 153.56 49.6794 153.99 49.1428C154.42 48.6061 154.606 47.9428 154.549 47.1529C154.491 46.3629 154.211 45.7337 153.707 45.265C153.204 44.7964 152.611 44.587 151.929 44.6367C151.247 44.6864 150.69 44.9797 150.26 45.5164ZM159.565 50.2523C158.551 49.3757 157.994 48.2613 157.895 46.9088C157.797 45.5564 158.186 44.379 159.064 43.3765C159.952 42.3612 161.091 41.803 162.479 41.7018C164.143 41.5805 165.455 42.0864 166.416 43.2195C166.848 43.7053 167.179 44.2828 167.408 44.9519L164.805 45.1417C164.678 44.8863 164.517 44.6574 164.322 44.455C163.832 44.0095 163.27 43.8098 162.636 43.856C162.002 43.9023 161.469 44.1938 161.039 44.7305C160.621 45.2663 160.441 45.9292 160.499 46.7191C160.556 47.509 160.831 48.1387 161.322 48.6082C161.826 49.0768 162.394 49.288 163.029 49.2417C163.663 49.1955 164.19 48.9164 164.61 48.4045C164.774 48.176 164.9 47.9262 164.988 47.655L167.592 47.4652C167.475 48.1716 167.243 48.7901 166.897 49.3207C166.11 50.5812 164.873 51.273 163.186 51.396C161.797 51.4973 160.591 51.116 159.565 50.2523ZM105.394 77.2629C104.38 76.3863 103.823 75.2719 103.725 73.9194C103.626 72.567 104.016 71.3896 104.893 70.3871C105.782 69.3718 106.92 68.8136 108.308 68.7124C109.972 68.5911 111.284 69.097 112.245 70.2301C112.678 70.7159 113.008 71.2934 113.238 71.9625L110.635 72.1523C110.508 71.8969 110.347 71.668 110.151 71.4656C109.662 71.0201 109.1 70.8204 108.465 70.8666C107.831 70.9129 107.299 71.2044 106.869 71.7411C106.451 72.2769 106.27 72.9397 106.328 73.7297C106.386 74.5196 106.66 75.1493 107.152 75.6188C107.655 76.0874 108.224 76.2986 108.858 76.2523C109.492 76.2061 110.02 75.927 110.439 75.4151C110.603 75.1866 110.729 74.9368 110.818 74.6656L113.421 74.4758C113.304 75.1822 113.072 75.8007 112.726 76.3313C111.94 77.5918 110.703 78.2836 109.015 78.4066C107.627 78.5078 106.42 78.1266 105.394 77.2629ZM120.486 76.2347C119.619 75.3956 119.133 74.2519 119.027 72.8038C118.921 71.3556 119.237 70.1595 119.975 69.2154C120.723 68.2584 121.696 67.7363 122.892 67.649C123.694 67.5906 124.436 67.7772 125.117 68.2088C125.409 68.4161 125.66 68.6384 125.87 68.8758L125.959 68.8693L125.874 67.7024L128.388 67.5191L129.055 76.6748L126.542 76.8581L126.457 75.6912L126.367 75.6977C126.194 75.963 125.978 76.2194 125.719 76.4668C125.108 76.9927 124.401 77.2848 123.599 77.3433C122.402 77.4306 121.365 77.061 120.486 76.2347ZM122.114 70.5934C121.73 71.1027 121.569 71.7762 121.63 72.614C121.691 73.4518 121.949 74.0947 122.402 74.5429C122.856 74.9911 123.412 75.1912 124.07 75.1432C124.765 75.0926 125.31 74.8182 125.707 74.32C126.103 73.8099 126.27 73.13 126.208 72.2802C126.146 71.4305 125.883 70.7879 125.418 70.3526C124.952 69.9053 124.372 69.7069 123.678 69.7575C123.02 69.8055 122.498 70.0841 122.114 70.5934ZM130.87 76.5425L130.202 67.3868L135.229 67.0203C136.174 66.9514 136.919 67.1076 137.465 67.489C138.01 67.8703 138.306 68.3902 138.354 69.0484C138.405 69.7426 138.187 70.3059 137.702 70.7384C137.475 70.9353 137.232 71.0674 136.972 71.1344L136.979 71.2242C137.331 71.2707 137.67 71.3724 137.994 71.5292C138.686 71.948 139.061 72.5463 139.117 73.3243C139.173 74.0902 138.92 74.7404 138.357 75.2747C137.794 75.7971 136.973 76.0975 135.896 76.176L130.87 76.5425ZM132.971 70.7043L135.125 70.5472C135.4 70.5271 135.61 70.4336 135.754 70.2667C135.91 70.0989 135.98 69.9013 135.964 69.6739C135.947 69.4465 135.849 69.2611 135.67 69.1178C135.503 68.9735 135.282 68.9114 135.007 68.9315L132.853 69.0886L132.971 70.7043ZM133.245 74.4743L135.579 74.3041C135.89 74.2814 136.141 74.1669 136.33 73.9606C136.52 73.7543 136.604 73.5135 136.584 73.2382C136.564 72.9629 136.446 72.737 136.228 72.5603C136.011 72.3837 135.746 72.3067 135.435 72.3294L133.101 72.4995L133.245 74.4743ZM139.259 68.8922L139.102 66.7379L147.719 66.1097L147.876 68.2639L144.824 68.4865L145.335 75.4879L142.821 75.6711L142.311 68.6697L139.259 68.8922ZM150.123 74.0018C149.096 73.1261 148.534 72.012 148.435 70.6596C148.337 69.3072 148.732 68.1293 149.622 67.126C150.51 66.1107 151.672 65.5507 153.109 65.446C154.533 65.3422 155.758 65.7281 156.785 66.6038C157.822 67.4666 158.39 68.5742 158.489 69.9266C158.587 71.279 158.186 72.4633 157.286 73.4795C156.396 74.4828 155.24 75.0364 153.815 75.1403C152.379 75.245 151.148 74.8655 150.123 74.0018ZM151.597 68.4799C151.167 69.0166 150.981 69.6799 151.038 70.4698C151.096 71.2597 151.377 71.889 151.88 72.3576C152.383 72.8263 152.976 73.0357 153.658 72.986C154.341 72.9362 154.897 72.643 155.327 72.1063C155.757 71.5696 155.943 70.9063 155.886 70.1164C155.828 69.3265 155.548 68.6973 155.044 68.2286C154.541 67.76 153.948 67.5505 153.266 67.6003C152.584 67.65 152.027 67.9432 151.597 68.4799ZM160.105 74.411L159.437 65.2553L168.234 64.6139L168.901 73.7696L166.388 73.9529L165.878 66.9515L162.108 67.2263L162.618 74.2278L160.105 74.411ZM170.957 77.0488L170.041 64.4822L172.555 64.2989L172.64 65.4658L172.729 65.4593C172.903 65.194 173.118 64.9376 173.377 64.6901C173.989 64.1643 174.695 63.8721 175.497 63.8137C176.694 63.7264 177.726 64.1024 178.593 64.9415C179.472 65.7678 179.964 66.9051 180.069 68.3532C180.175 69.8014 179.853 71.0039 179.105 71.9609C178.368 72.905 177.401 73.4207 176.204 73.5079C175.402 73.5664 174.66 73.3798 173.979 72.9482C173.687 72.7409 173.437 72.5185 173.227 72.2812L173.137 72.2877L173.471 76.8656L170.957 77.0488ZM173.391 66.8549C172.994 67.3531 172.826 68.027 172.888 68.8768C172.95 69.7265 173.214 70.375 173.68 70.8224C174.145 71.2577 174.724 71.4501 175.418 71.3995C176.077 71.3515 176.598 71.0728 176.982 70.5636C177.366 70.0543 177.527 69.3808 177.466 68.543C177.405 67.7052 177.148 67.0622 176.694 66.6141C176.24 66.1659 175.684 65.9658 175.026 66.0138C174.332 66.0644 173.787 66.3447 173.391 66.8549ZM182.584 71.635C181.557 70.7594 180.995 69.6453 180.896 68.2929C180.798 66.9405 181.193 65.7626 182.083 64.7593C182.971 63.744 184.133 63.184 185.57 63.0793C186.994 62.9754 188.219 63.3614 189.246 64.237C190.283 65.0999 190.851 66.2075 190.95 67.5599C191.048 68.9123 190.647 70.0966 189.747 71.1128C188.857 72.1161 187.701 72.6697 186.276 72.7736C184.84 72.8783 183.609 72.4988 182.584 71.635ZM184.058 66.1132C183.628 66.6499 183.442 67.3132 183.499 68.1031C183.557 68.893 183.838 69.5223 184.341 69.9909C184.844 70.4596 185.437 70.669 186.119 70.6193C186.802 70.5695 187.358 70.2763 187.788 69.7396C188.218 69.2029 188.404 68.5396 188.347 67.7497C188.289 66.9598 188.008 66.3305 187.505 65.8619C187.002 65.3933 186.409 65.1838 185.727 65.2336C185.044 65.2833 184.488 65.5765 184.058 66.1132ZM192.566 72.0443L191.898 62.8886L196.925 62.5221C197.87 62.4532 198.616 62.6094 199.161 62.9907C199.706 63.3721 200.002 63.8919 200.05 64.5502C200.101 65.2443 199.883 65.8077 199.398 66.2401C199.171 66.4371 198.928 66.5691 198.669 66.6362L198.675 66.726C199.027 66.7725 199.366 66.8741 199.69 67.031C200.382 67.4497 200.757 68.0481 200.813 68.826C200.869 69.592 200.616 70.2421 200.053 70.7765C199.49 71.2988 198.669 71.5993 197.592 71.6778L192.566 72.0443ZM194.667 66.2061L196.821 66.049C197.096 66.0289 197.306 65.9354 197.45 65.7685C197.606 65.6007 197.676 65.4031 197.66 65.1757C197.643 64.9483 197.545 64.7629 197.366 64.6195C197.199 64.4753 196.978 64.4132 196.703 64.4333L194.549 64.5903L194.667 66.2061ZM194.942 69.976L197.275 69.8059C197.586 69.7832 197.837 69.6687 198.026 69.4624C198.216 69.256 198.301 69.0152 198.28 68.74C198.26 68.4647 198.142 68.2387 197.924 68.0621C197.707 67.8854 197.443 67.8084 197.131 67.8311L194.798 68.0013L194.942 69.976ZM203.16 70.1348C202.146 69.2583 201.59 68.1438 201.491 66.7914C201.392 65.439 201.782 64.2615 202.659 63.2591C203.548 62.2438 204.686 61.6855 206.074 61.5843C207.487 61.4813 208.682 61.8634 209.659 62.7306C210.637 63.5979 211.175 64.7136 211.275 66.078L211.314 66.6166L204.133 67.1401C204.273 67.7316 204.579 68.2206 205.052 68.6072C205.526 68.9938 206.05 69.1662 206.624 69.1243C207.258 69.078 207.79 68.8588 208.219 68.4666C208.387 68.2979 208.517 68.1079 208.61 67.8966L211.303 67.7003C211.144 68.3255 210.884 68.8859 210.523 69.3814C209.644 70.5284 208.397 71.1608 206.781 71.2786C205.393 71.3798 204.186 70.9985 203.16 70.1348ZM204.112 65.6077L208.51 65.287C208.379 64.8152 208.105 64.4322 207.686 64.1378C207.279 63.8306 206.794 63.6976 206.231 63.7386C205.669 63.7796 205.202 63.9761 204.831 64.328C204.459 64.6799 204.22 65.1065 204.112 65.6077ZM213.216 73.9678L212.3 61.4011L214.813 61.2179L214.898 62.3848L214.988 62.3782C215.161 62.1129 215.377 61.8566 215.636 61.6091C216.247 61.0832 216.954 60.7911 217.756 60.7326C218.952 60.6454 219.985 61.0213 220.852 61.8605C221.73 62.6868 222.222 63.824 222.328 65.2722C222.433 66.7203 222.112 67.9229 221.364 68.8798C220.626 69.8239 219.659 70.3396 218.462 70.4269C217.661 70.4853 216.919 70.2988 216.238 69.8672C215.946 69.6598 215.695 69.4375 215.485 69.2001L215.396 69.2067L215.729 73.7845L213.216 73.9678ZM215.649 63.7738C215.252 64.272 215.085 64.946 215.147 65.7957C215.209 66.6455 215.473 67.294 215.938 67.7413C216.403 68.1767 216.983 68.369 217.677 68.3184C218.335 68.2704 218.856 67.9918 219.24 67.4825C219.624 66.9732 219.786 66.2997 219.725 65.4619C219.664 64.6242 219.406 63.9812 218.952 63.533C218.499 63.0848 217.943 62.8847 217.284 62.9327C216.59 62.9833 216.045 63.2637 215.649 63.7738ZM224.027 69.7504L223.36 60.5947L225.873 60.4115L226.122 63.8224L227.199 63.7439L229.374 60.1563L232.156 59.9534L229.502 64.3882L233.093 69.0894L230.221 69.2989L227.625 65.8786L226.279 65.9767L226.541 69.5672L224.027 69.7504ZM234.289 67.8652C233.263 66.9895 232.701 65.8755 232.602 64.5231C232.503 63.1707 232.899 61.9928 233.788 60.9895C234.677 59.9742 235.839 59.4142 237.275 59.3095C238.699 59.2056 239.925 59.5915 240.951 60.4672C241.989 61.3301 242.557 62.4377 242.655 63.7901C242.754 65.1425 242.353 66.3268 241.452 67.343C240.563 68.3463 239.406 68.8999 237.982 69.0037C236.546 69.1084 235.315 68.7289 234.289 67.8652ZM235.764 62.3434C235.334 62.8801 235.147 63.5434 235.205 64.3333C235.263 65.1232 235.543 65.7525 236.047 66.2211C236.55 66.6897 237.143 66.8992 237.825 66.8494C238.507 66.7997 239.063 66.5065 239.493 65.9698C239.923 65.4331 240.11 64.7698 240.052 63.9799C239.995 63.19 239.714 62.5607 239.211 62.0921C238.707 61.6234 238.114 61.414 237.432 61.4637C236.75 61.5135 236.194 61.8067 235.764 62.3434ZM244.271 68.2745L243.604 59.1188L246.117 58.9355L246.405 62.885L246.433 64.5073L246.613 64.4942L249.887 58.6607L252.58 58.4643L253.247 67.62L250.734 67.8033L250.446 63.8537L250.418 62.2315L250.239 62.2446L246.964 68.0781L244.271 68.2745ZM244.951 55.3207L246.657 55.1964C246.7 55.7948 247.111 56.0656 247.889 56.0089C248.667 55.9522 249.034 55.6246 248.99 55.0262L250.696 54.9019C250.75 55.6439 250.542 56.2547 250.071 56.7341C249.612 57.2008 248.922 57.4677 248 57.5349C247.079 57.6021 246.351 57.4386 245.817 57.0444C245.294 56.6373 245.005 56.0628 244.951 55.3207Z" fill="#333A4A"/>
<path d="M3.52599 20.6545L256.077 2.24121L255.786 -1.7482L3.23513 16.6651L3.52599 20.6545ZM257.563 3.52602L264.342 96.5002L268.332 96.2093L261.553 3.23515L257.563 3.52602ZM263.057 97.9871L10.5068 116.4L10.7976 120.39L263.348 101.976L263.057 97.9871ZM9.01988 115.116L2.24118 22.1414L-1.74823 22.4323L5.03047 115.406L9.01988 115.116ZM10.5068 116.4C9.74138 116.456 9.07568 115.881 9.01988 115.116L5.03047 115.406C5.24691 118.375 7.82894 120.606 10.7976 120.39L10.5068 116.4ZM264.342 96.5002C264.398 97.2655 263.823 97.9313 263.057 97.9871L263.348 101.976C266.317 101.76 268.548 99.178 268.332 96.2093L264.342 96.5002ZM256.077 2.24121C256.842 2.1854 257.508 2.76062 257.563 3.52602L261.553 3.23515C261.336 0.266488 258.754 -1.96465 255.786 -1.7482L256.077 2.24121ZM3.23513 16.6651C0.266451 16.8816 -1.96468 19.4636 -1.74823 22.4323L2.24118 22.1414C2.18538 21.3761 2.76061 20.7103 3.52599 20.6545L3.23513 16.6651Z" fill="#333A4A"/>
<defs>
<filter id="filter0_d" x="31.5239" y="39.8498" width="30.7119" height="52.2041" filterUnits="userSpaceOnUse" color-interpolation-filters="sRGB">
<feFlood flood-opacity="0" result="BackgroundImageFix"/>
<feColorMatrix in="SourceAlpha" type="matrix" values="0 0 0 0 0 0 0 0 0 0 0 0 0 0 0 0 0 0 127 0" result="hardAlpha"/>
<feOffset dx="2" dy="2"/>
<feColorMatrix type="matrix" values="0 0 0 0 0.2 0 0 0 0 0.227451 0 0 0 0 0.290196 0 0 0 1 0"/>
<feBlend mode="normal" in2="BackgroundImageFix" result="effect1_dropShadow"/>
<feBlend mode="normal" in="SourceGraphic" in2="effect1_dropShadow" result="shape"/>
</filter>
</defs>
</svg>
