<svg width="478" height="449" viewBox="0 0 478 449" fill="none" xmlns="http://www.w3.org/2000/svg">
<circle cx="105.471" cy="223.021" r="72.8804" transform="rotate(9.44201 105.471 223.021)" fill="white" stroke="#A6AFC0" stroke-width="2.73115"/>
<circle cx="103.733" cy="235.211" r="72.8804" transform="rotate(9.44201 103.733 235.211)" fill="white" stroke="#A6AFC0" stroke-width="2.73115"/>
<circle cx="109.065" cy="249.141" r="72.8804" transform="rotate(9.44201 109.065 249.141)" fill="white" stroke="#A6AFC0" stroke-width="2.73115"/>
<circle cx="122.489" cy="262.761" r="72.8804" transform="rotate(9.44201 122.489 262.761)" fill="white" stroke="#A6AFC0" stroke-width="2.73115"/>
<circle cx="138.575" cy="273.102" r="72.8804" transform="rotate(9.44201 138.575 273.102)" fill="white" stroke="#A6AFC0" stroke-width="2.73115"/>
<path d="M225.735 296.014C219.132 335.72 181.591 362.555 141.886 355.952C102.18 349.348 75.3455 311.808 81.9486 272.102C88.5517 232.397 126.092 205.562 165.798 212.165C205.503 218.768 232.338 256.309 225.735 296.014Z" fill="white" stroke="#A6AFC0" stroke-width="2.73115"/>
<path d="M133.474 293.533L137.364 295.204L135.581 299.353L143.36 302.695L145.142 298.547L157.07 303.673L159.744 297.45L147.817 292.324L149.154 289.212L156.933 292.555C165.489 296.233 172.555 293.371 175.318 286.941C178.082 280.511 175.295 273.415 166.738 269.738L151.181 263.052L144.272 279.128L140.383 277.457L137.486 284.198L141.375 285.87L140.038 288.981L136.149 287.31L133.474 293.533ZM152.051 282.471L156.063 273.137L163.323 276.257C167.471 278.039 168.676 280.953 167.54 283.598C166.403 286.243 163.46 287.374 159.311 285.591L152.051 282.471Z" fill="#A6AFC0"/>
<circle r="74.2983" transform="matrix(-0.993002 -0.118094 -0.118094 0.993002 326.258 116.083)" fill="white" stroke="#A6AFC0" stroke-width="2.78428"/>
<circle r="74.2983" transform="matrix(-0.993002 -0.118094 -0.118094 0.993002 324.486 128.511)" fill="white" stroke="#A6AFC0" stroke-width="2.78428"/>
<circle r="74.2983" transform="matrix(-0.993002 -0.118094 -0.118094 0.993002 315.301 140.628)" fill="white" stroke="#A6AFC0" stroke-width="2.78428"/>
<path d="M297.61 137.451C297.192 139.589 297.137 141.757 297.52 143.926C298.143 147.576 300.073 151.975 305.245 155.388L303.064 160.463L310.466 163.644L312.624 158.622C320.503 160.692 326.58 157.479 328.875 152.14C332.465 143.787 324.643 138.233 318.958 133.974C315.432 131.394 312.911 128.807 313.978 126.323C314.887 124.208 317.533 123.153 321.762 124.97C324.934 126.334 326.224 128.141 326.774 129.63C327.083 130.514 327.211 131.383 327.082 132.267L335.276 135.788C335.663 134.013 335.763 132.177 335.478 130.364C334.96 127.197 333.482 123.494 329.118 120.24L331.368 115.007L323.966 111.826L321.831 116.795C314.209 114.71 307.965 117.726 305.671 123.065C302.831 129.674 307.117 134.71 312.1 138.417C316.985 142.208 321.976 145.605 320.567 148.883C319.545 151.262 316.899 152.317 311.877 150.159C308.282 148.614 306.735 146.383 306.133 144.433C305.786 143.345 305.667 142.166 305.804 140.972L297.61 137.451Z" fill="#A6AFC0"/>
<g clip-path="url(#clip0)">
<path opacity="0.75" fill-rule="evenodd" clip-rule="evenodd" d="M10.4829 45L0.129463 72.7619L28.0026 83.1568L10.4829 45Z" fill="#1565C0"/>
<path fill-rule="evenodd" clip-rule="evenodd" d="M38.3561 55.395L10.4829 45L0.129463 72.7619L38.3561 55.395Z" fill="#1976D2"/>
<path d="M137.73 98.7814C133.574 97.2315 128.675 99.224 127.132 103.363L123.715 112.525L127.061 113.773L128.304 110.44L137.221 113.765L135.978 117.099L139.324 118.347L142.741 109.185C144.285 105.046 141.886 100.331 137.73 98.7814ZM138.462 110.438L129.545 107.113L130.476 104.618C131.333 102.319 134.179 101.254 136.487 102.115C138.795 102.976 140.25 105.644 139.392 107.943L138.462 110.438Z" fill="#FF5722"/>
<path d="M183.995 116.035C179.839 114.485 174.939 116.478 173.396 120.617L169.979 129.779L173.326 131.027L174.569 127.694L183.485 131.019L182.242 134.352L185.589 135.601L189.006 126.438C190.549 122.299 188.151 117.585 183.995 116.035ZM184.726 127.692L175.81 124.367L176.741 121.872C177.598 119.573 180.444 118.508 182.752 119.369C185.06 120.23 186.514 122.898 185.657 125.197L184.726 127.692Z" fill="#FF5722"/>
<path d="M103.729 86.101C99.1131 84.3796 93.9754 86.7083 92.2584 91.3124C90.5438 95.9099 92.893 101.038 97.5153 102.762C102.131 104.483 107.269 102.155 108.986 97.5507C110.703 92.9467 108.345 87.8224 103.729 86.101ZM98.7609 99.422C95.9929 98.3897 94.5795 95.3112 95.6077 92.5541C96.636 89.7969 99.7201 88.3957 102.488 89.428C105.257 90.4605 106.67 93.5389 105.642 96.2961C104.611 99.0598 101.53 100.455 98.7609 99.422Z" fill="#1976D2"/>
<path d="M89.0437 89.1064C89.7291 88.5339 90.276 87.7906 90.6106 86.8933C91.6389 84.1361 90.2254 81.0576 87.4571 80.0252L80.8817 77.573L74.6706 94.2275L82.9228 97.3051C85.691 98.3374 88.7751 96.9363 89.8033 94.179C90.4538 92.4149 90.1055 90.517 89.0437 89.1064ZM82.9788 82.1523L86.2139 83.3587C87.1345 83.7021 87.6056 84.7282 87.2637 85.6451C86.9217 86.562 85.8937 87.029 84.9731 86.6857L81.7381 85.4793L82.9788 82.1523ZM84.1569 93.9756L79.2517 92.1463L80.4949 88.8127L85.4001 90.6421C86.3207 90.9854 86.7918 92.0115 86.4499 92.9284C86.108 93.8453 85.0775 94.3189 84.1569 93.9756Z" fill="#1976D2"/>
<path d="M70.5625 73.7321C65.9466 72.0106 60.8089 74.3393 59.0918 78.9433C57.3772 83.5409 59.7265 88.6692 64.349 90.3931C68.9716 92.117 74.1027 89.7859 75.8197 85.1818C77.5368 80.5778 75.1785 75.4535 70.5625 73.7321ZM65.5946 87.053C62.8264 86.0207 61.4129 82.9422 62.4412 80.1851C63.4695 77.4278 66.5536 76.0267 69.3218 77.059C72.09 78.0914 73.5035 81.1699 72.4752 83.9271C71.4446 86.6908 68.3629 88.0854 65.5946 87.053Z" fill="#1976D2"/>
<path fill-rule="evenodd" clip-rule="evenodd" d="M153.613 112.329L153.644 112.303L149.745 110.849C148.824 110.506 148.354 109.48 148.696 108.563C149.038 107.646 150.065 107.179 150.986 107.522L157.114 109.808L160.586 107.305L152.222 104.186C149.455 103.154 146.37 104.555 145.342 107.312C144.379 109.892 145.547 112.745 147.969 113.946L147.937 113.972L151.835 115.426C152.756 115.769 153.227 116.795 152.886 117.712C152.544 118.629 151.515 119.096 150.595 118.753L144.466 116.467L140.994 118.97L149.358 122.089C152.127 123.121 155.21 121.72 156.239 118.963C157.201 116.382 156.026 113.527 153.613 112.329Z" fill="#FF5722"/>
<path fill-rule="evenodd" clip-rule="evenodd" d="M166.156 109.383C163.388 108.35 160.304 109.751 159.276 112.509C158.313 115.089 159.481 117.942 161.902 119.143L161.87 119.168L165.769 120.622C166.69 120.966 167.161 121.992 166.819 122.909C166.478 123.826 165.449 124.293 164.529 123.949L158.4 121.664L154.928 124.166L163.292 127.285C166.06 128.317 169.144 126.916 170.173 124.159C171.135 121.579 169.967 118.726 167.546 117.525L167.578 117.5L163.679 116.046C162.758 115.702 162.287 114.676 162.629 113.759C162.971 112.842 163.999 112.375 164.92 112.719L171.048 115.004L174.52 112.502L166.156 109.383Z" fill="#FF5722"/>
<path fill-rule="evenodd" clip-rule="evenodd" d="M128.084 95.1841L118.542 99.8838L122.047 111.896L118.147 110.442L115.443 101.406L113.488 102.512L111.463 107.941L108.115 106.693L114.322 90.0515L117.669 91.2999L115.219 97.8687L123.698 93.5483L128.084 95.1841Z" fill="#FF5722"/>
<path d="M44.566 83.0079L41.2191 81.7597L47.4302 65.1051L55.3075 68.0429C56.7146 68.5677 57.7462 69.497 58.4064 70.8398C59.0814 72.2031 59.3553 73.939 58.845 75.3675C58.3769 76.6625 57.6772 77.5951 56.484 78.2842C55.3425 78.955 54.2758 79.3853 52.9706 79.1895L54.8762 86.8529L50.977 85.3988L49.1943 78.1691C49.117 77.894 48.9136 77.6765 48.644 77.5759L46.8423 76.904L44.566 83.0079ZM47.9829 73.8456L52.4411 75.5082C53.6706 75.9668 55.0414 75.344 55.4981 74.1193C55.9548 72.8946 55.3266 71.5264 54.097 71.0678L49.6389 69.4052L47.9829 73.8456Z" fill="#1976D2"/>
</g>
<path d="M158.092 424.702L147.041 418.911C149.931 418.15 151.274 417.446 152.537 416.289C154.338 414.673 154.918 411.982 154.326 409.456C153.597 406.352 152.073 404.1 149.483 402.931C147.135 401.872 144.562 401.809 139.689 402.953L122.516 406.983L128.314 431.69L134.106 430.331L131.204 417.964L148.421 426.971L158.092 424.702ZM131.192 417.911L129.92 412.491L142.933 409.437C145.128 408.922 146.179 408.814 147.088 409.128C147.856 409.42 148.424 410.12 148.622 410.962C148.807 411.751 148.666 412.644 148.069 413.312C147.53 413.883 146.865 414.261 145.36 414.614L131.198 417.938L131.192 417.911ZM116.409 411.359C113.624 409.819 110.736 409.442 102.035 411.484C93.3338 413.525 90.9147 415.148 89.106 417.766C87.4969 420.087 87.218 423.372 88.3109 428.03C89.4039 432.687 91.1153 435.505 93.5888 436.868C96.3731 438.408 99.2614 438.785 107.963 436.743C116.664 434.701 119.083 433.079 120.891 430.461C122.501 428.14 122.779 424.855 121.687 420.197C120.594 415.54 118.882 412.721 116.409 411.359ZM114.91 426.313C113.633 427.639 111.716 428.645 106.332 429.908C100.948 431.172 98.8084 431.118 97.0489 430.504C95.2006 429.855 94.4836 428.635 94.0266 426.688C93.5697 424.741 93.6692 423.33 95.036 421.926C96.313 420.599 98.2308 419.594 103.615 418.331C108.999 417.067 111.138 417.12 112.898 417.735C114.746 418.384 115.463 419.603 115.92 421.551C116.377 423.498 116.277 424.909 114.91 426.313ZM75.0229 437.255C69.6644 438.513 67.4996 438.466 65.7402 437.851C63.9173 437.196 63.1748 435.983 62.7179 434.035C62.261 432.088 62.386 430.671 63.7272 429.273C65.0042 427.947 66.9476 426.935 72.306 425.678C77.0011 424.576 81.399 424.044 83.4749 424.056L83.387 417.831C80.5118 417.395 75.2302 417.718 70.2035 418.898C61.6554 420.904 59.5426 422.455 57.7594 425.066C56.1503 427.387 55.8714 430.673 56.9643 435.33C58.0572 439.987 59.7686 442.806 62.2422 444.169C65.0265 445.709 67.6086 446.158 76.1311 444.158C81.1324 442.984 86.0319 440.918 88.4131 439.249L85.7225 433.634C83.8619 434.654 79.6924 436.159 75.0229 437.255ZM183.381 407.996L182.375 403.707L163.927 408.036L169.934 411.152L183.381 407.996ZM182.248 400.183L180.636 393.316L155.758 399.154L161.562 423.888L186.441 418.049L184.829 411.182L165.743 415.661L163.952 408.03L163.162 404.662L182.248 400.183Z" fill="#262B37"/>
<g clip-path="url(#clip1)">
<path d="M378.983 315.009L373.723 313.128L367.659 318.343L365.743 317.658L370.747 303.468L365.767 301.687L356.618 327.275L361.598 329.056L364.171 322.055L366.075 322.736L368.507 331.526L374.024 333.499L370.907 321.887L378.983 315.009Z" fill="black"/>
<path d="M413.662 336.913C412.884 335.896 411.971 334.99 410.948 334.221L409.998 333.413L409.745 333.198C409.153 332.698 408.529 332.171 408.753 331.466C408.821 331.258 408.939 331.07 409.099 330.92C409.259 330.77 409.454 330.662 409.666 330.608C410.115 330.488 410.589 330.496 411.035 330.629C412.012 330.904 412.857 331.524 413.412 332.375L413.515 332.508L417.273 330.394L417.178 330.236C416.952 329.822 416.686 329.432 416.383 329.07C415.837 328.432 415.19 327.889 414.467 327.462C413.433 326.824 412.277 326.41 411.073 326.249C409.941 326.005 408.764 326.059 407.659 326.405C406.945 326.642 406.286 327.017 405.718 327.509C405.151 328.001 404.685 328.6 404.348 329.271C403.742 330.484 403.607 331.879 403.967 333.185C404.556 334.614 405.557 335.836 406.843 336.693L407.037 336.845L407.476 337.195C409.064 338.451 409.489 338.879 409.651 339.35C409.722 339.583 409.719 339.832 409.644 340.064C409.334 340.931 408.145 340.905 407.346 340.868C406.809 340.782 406.295 340.588 405.836 340.296C405.377 340.003 404.983 339.62 404.678 339.17C404.168 338.483 403.802 337.701 403.6 336.87C403.215 337.062 399.482 338.8 399.513 338.866L399.555 339.019C400.289 341.159 401.738 342.981 403.658 344.177C404.1 344.439 404.56 344.673 405.033 344.876L405.533 345.055C407.165 345.677 408.955 345.751 410.633 345.267C411.764 344.95 412.776 344.305 413.54 343.413C414.028 342.805 414.377 342.097 414.562 341.34C414.747 340.583 414.764 339.794 414.611 339.03C414.45 338.264 414.126 337.542 413.662 336.913Z" fill="black"/>
<path d="M429.749 342.665C428.976 341.65 428.068 340.746 427.048 339.978L426.086 339.165L425.845 338.955C425.241 338.45 424.629 337.928 424.841 337.219C424.918 337.014 425.042 336.83 425.202 336.682C425.363 336.534 425.556 336.425 425.766 336.365C426.216 336.245 426.69 336.252 427.135 336.386C428.111 336.663 428.955 337.283 429.512 338.131L429.603 338.26L433.361 336.146L433.278 335.993C433.051 335.575 432.781 335.183 432.471 334.823C431.929 334.186 431.286 333.644 430.566 333.219C429.529 332.579 428.369 332.164 427.161 332.001C426.028 331.762 424.853 331.816 423.746 332.157C423.031 332.389 422.369 332.759 421.797 333.248C421.226 333.736 420.757 334.333 420.416 335.003C419.803 336.214 419.667 337.611 420.035 338.917C420.624 340.346 421.625 341.567 422.911 342.424L423.092 342.572L423.531 342.922C425.132 344.183 425.557 344.61 425.719 345.081C425.795 345.313 425.788 345.564 425.699 345.791C425.389 346.658 424.213 346.637 423.414 346.599C422.875 346.513 422.359 346.318 421.898 346.025C421.437 345.732 421.04 345.348 420.733 344.897C420.232 344.205 419.866 343.425 419.655 342.597C419.282 342.794 415.55 344.531 415.569 344.593L415.623 344.75C416.357 346.89 417.806 348.712 419.726 349.909C420.168 350.171 420.627 350.405 421.101 350.607L421.601 350.786C423.233 351.408 425.023 351.483 426.701 350.998C427.832 350.682 428.844 350.037 429.608 349.144C430.095 348.536 430.444 347.829 430.63 347.072C430.815 346.314 430.832 345.526 430.679 344.761C430.52 344.005 430.203 343.291 429.749 342.665Z" fill="black"/>
<path d="M395.339 320.857L394.71 322.616L394.491 322.537C393.616 320.684 392.045 319.251 390.121 318.55C388.946 318.104 387.691 317.91 386.437 317.982C385.183 318.053 383.957 318.388 382.841 318.964C380.561 320.206 378.839 322.27 378.024 324.735C377.072 327.199 377.078 329.929 378.042 332.387C378.52 333.534 379.24 334.565 380.152 335.409C381.064 336.254 382.146 336.892 383.327 337.28C385.271 337.934 387.384 337.885 389.296 337.141L389.491 337.211L388.928 338.786L394.103 340.637L400.514 322.707L395.339 320.857ZM392.368 329.974C391.903 331.438 390.915 332.679 389.593 333.459C388.973 333.798 388.286 333.995 387.58 334.038C386.876 334.081 386.169 333.968 385.513 333.708C384.864 333.489 384.273 333.125 383.784 332.645C383.296 332.165 382.922 331.581 382.691 330.936C382.183 329.475 382.225 327.879 382.809 326.446C383.272 325.02 384.242 323.813 385.536 323.055C386.129 322.713 386.79 322.507 387.472 322.45C388.153 322.394 388.839 322.489 389.479 322.729C390.148 322.945 390.759 323.306 391.27 323.786C391.781 324.267 392.18 324.855 392.436 325.508C392.962 326.955 392.937 328.544 392.368 329.974Z" fill="black"/>
<path d="M451.632 340.985L451.003 342.744L450.783 342.665C449.911 340.816 448.345 339.385 446.426 338.683C445.25 338.237 443.993 338.044 442.737 338.114C441.481 338.185 440.254 338.518 439.134 339.092C436.855 340.334 435.132 342.398 434.318 344.864C433.366 347.327 433.372 350.057 434.335 352.515C434.814 353.663 435.533 354.693 436.445 355.538C437.357 356.382 438.44 357.02 439.62 357.408C441.565 358.062 443.677 358.013 445.589 357.269L445.785 357.339L445.221 358.915L450.397 360.765L456.808 342.836L451.632 340.985ZM448.661 350.103C448.202 351.569 447.213 352.812 445.887 353.588C445.267 353.926 444.579 354.123 443.874 354.166C443.168 354.209 442.463 354.097 441.806 353.836C441.157 353.617 440.566 353.253 440.078 352.773C439.589 352.293 439.215 351.709 438.984 351.064C438.476 349.603 438.518 348.007 439.102 346.575C439.566 345.148 440.536 343.941 441.829 343.183C442.422 342.841 443.083 342.635 443.765 342.579C444.447 342.522 445.133 342.618 445.773 342.857C446.441 343.073 447.052 343.434 447.564 343.915C448.075 344.395 448.473 344.983 448.73 345.636C449.261 347.082 449.237 348.674 448.661 350.103Z" fill="black"/>
<path d="M332.846 286.529C322.102 282.688 310.454 288.306 306.653 298.935C302.809 309.686 308.42 321.338 319.042 325.136C329.664 328.934 341.434 323.359 345.235 312.73C349.035 302.101 343.468 290.327 332.846 286.529ZM323.41 312.919C319.503 311.522 317.386 307.044 318.784 303.135C320.182 299.225 324.658 297.105 328.565 298.502C332.472 299.899 334.589 304.377 333.191 308.286C331.627 312.274 327.317 314.316 323.41 312.919Z" fill="url(#paint0_linear)"/>
<path d="M311.467 285.086L301.419 313.185L294.582 310.741L295.839 279.498L311.467 285.086Z" fill="url(#paint1_linear)"/>
</g>
<rect x="418.718" y="352.163" width="59.1625" height="24.8101" rx="1.90847" transform="rotate(4.67146 418.718 352.163)" fill="#0C64F5"/>
<path d="M428.328 365.295C428.119 367.851 429.908 369.958 432.647 370.182C434.448 370.329 435.601 369.566 436.328 368.767C436.747 368.299 437.073 367.75 437.308 367.132L435.421 366.977C435.285 367.285 435.092 367.551 434.852 367.789C434.44 368.184 433.796 368.56 432.786 368.478C431.13 368.342 430.135 367.17 430.276 365.454C430.41 363.811 431.661 362.749 433.244 362.878C434.217 362.957 434.782 363.396 435.129 363.804C435.318 364.04 435.467 364.31 435.554 364.599L437.441 364.753C437.331 364.143 437.107 363.586 436.781 363.081C436.238 362.228 435.209 361.323 433.383 361.174C430.644 360.95 428.537 362.738 428.328 365.295ZM438.017 370.376L439.722 370.515L439.921 368.08L440.834 368.155L442.217 370.719L444.165 370.878L442.247 367.351L444.49 364.655L442.603 364.5L440.77 366.679L440.04 366.62L440.229 364.307L438.525 364.167L438.017 370.376ZM444.36 367.769C444.21 369.595 445.54 371.174 447.5 371.334C449.435 371.493 451.028 370.152 451.177 368.326C451.326 366.5 449.972 364.919 448.037 364.761C446.077 364.601 444.509 365.943 444.36 367.769ZM446.125 367.913C446.214 366.818 447.004 366.147 447.917 366.222C448.83 366.296 449.501 367.086 449.412 368.182C449.322 369.277 448.532 369.948 447.619 369.874C446.706 369.799 446.035 369.009 446.125 367.913ZM451.651 373.818L453.355 373.958L453.609 370.853L453.67 370.858C453.789 371.052 453.934 371.223 454.105 371.384C454.414 371.654 454.856 371.936 455.538 371.991C457.121 372.121 458.503 370.947 458.668 368.938C458.832 366.93 457.658 365.547 456.075 365.418C455.394 365.362 454.911 365.568 454.563 365.784C454.368 365.915 454.197 366.061 454.048 366.232L453.987 366.227L454.052 365.436L452.347 365.297L451.651 373.818ZM453.798 368.54C453.894 367.372 454.605 366.768 455.53 366.844C456.394 366.914 456.998 367.625 456.902 368.794C456.807 369.963 456.096 370.566 455.231 370.496C454.306 370.42 453.703 369.709 453.798 368.54ZM459.276 368.988C459.127 370.814 460.456 372.393 462.416 372.553C464.352 372.711 465.944 371.371 466.093 369.545C466.242 367.719 464.889 366.138 462.953 365.98C460.993 365.819 459.425 367.162 459.276 368.988ZM461.041 369.132C461.131 368.037 461.921 367.366 462.834 367.44C463.747 367.515 464.418 368.305 464.328 369.401C464.238 370.496 463.448 371.167 462.535 371.092C461.622 371.018 460.952 370.228 461.041 369.132Z" fill="white"/>
<defs>
<linearGradient id="paint0_linear" x1="332.846" y1="286.529" x2="319.042" y2="325.136" gradientUnits="userSpaceOnUse">
<stop stop-color="#0160D1"/>
<stop offset="1" stop-color="#00479C"/>
</linearGradient>
<linearGradient id="paint1_linear" x1="303.653" y1="282.292" x2="293.605" y2="310.391" gradientUnits="userSpaceOnUse">
<stop stop-color="#0160D1"/>
<stop offset="1" stop-color="#00479C"/>
</linearGradient>
<clipPath id="clip0">
<rect width="197" height="30" fill="white" transform="translate(10.4829 45) rotate(20.4524)"/>
</clipPath>
<clipPath id="clip1">
<rect width="173" height="41" fill="white" transform="translate(297.805 274) rotate(19.6751)"/>
</clipPath>
</defs>
</svg>
