<svg width="16" height="16" viewBox="0 0 16 16" xmlns="http://www.w3.org/2000/svg">
<path d="M11.5845 0H4.41533C1.98072 0 0 1.98081 0 4.41542V11.5846C0 14.0193 1.98072 16 4.41533 16H11.5845C14.0193 16 16 14.0192 16 11.5846V4.41542C16.0001 1.98081 14.0193 0 11.5845 0ZM14.5805 11.5846C14.5805 13.2365 13.2365 14.5804 11.5846 14.5804H4.41533C2.76348 14.5805 1.4196 13.2365 1.4196 11.5846V4.41542C1.4196 2.76358 2.76348 1.4196 4.41533 1.4196H11.5845C13.2364 1.4196 14.5804 2.76358 14.5804 4.41542L14.5805 11.5846Z" fill="#DBDCE8"/>
<path d="M7.99998 3.87738C5.72664 3.87738 3.87719 5.72683 3.87719 8.00017C3.87719 10.2734 5.72664 12.1228 7.99998 12.1228C10.2733 12.1228 12.1228 10.2734 12.1228 8.00017C12.1228 5.72683 10.2733 3.87738 7.99998 3.87738ZM7.99998 10.7031C6.5095 10.7031 5.29679 9.49056 5.29679 8.00008C5.29679 6.5095 6.50941 5.29688 7.99998 5.29688C9.49056 5.29688 10.7032 6.5095 10.7032 8.00008C10.7032 9.49056 9.49047 10.7031 7.99998 10.7031Z" fill="#DBDCE8"/>
<path d="M12.2957 2.67366C12.0221 2.67366 11.7535 2.78439 11.5603 2.9784C11.3662 3.17146 11.2546 3.44024 11.2546 3.7147C11.2546 3.9883 11.3663 4.25698 11.5603 4.45099C11.7534 4.64406 12.0221 4.75573 12.2957 4.75573C12.5701 4.75573 12.8379 4.64406 13.032 4.45099C13.226 4.25698 13.3367 3.98821 13.3367 3.7147C13.3367 3.44024 13.226 3.17146 13.032 2.9784C12.8389 2.78439 12.5701 2.67366 12.2957 2.67366Z" fill="#DBDCE8"/>
</svg>
