<svg width="24" height="24" viewBox="0 0 24 24" xmlns="http://www.w3.org/2000/svg">
<path d="M18.7203 14.7599C19.0702 13.9099 19.2603 12.9999 19.2603 11.9999C19.2603 11.2799 19.1502 10.5899 18.9603 9.94989C18.3102 10.0999 17.6302 10.1799 16.9203 10.1799C13.8603 10.1799 11.1502 8.66994 9.50021 6.33992C8.61026 8.49991 6.91025 10.2599 4.77024 11.2199C4.73024 11.4699 4.73024 11.7399 4.73024 11.9999C4.73024 13.928 5.49619 15.7772 6.85958 17.1406C8.22296 18.504 10.0721 19.2699 12.0003 19.2699C13.0503 19.2699 14.0602 19.0399 14.9703 18.6299C15.5403 19.7199 15.8002 20.2599 15.7803 20.2599C14.1402 20.8099 12.8703 21.0799 12.0003 21.0799C9.58023 21.0799 7.27025 20.1299 5.57024 18.4199C4.53024 17.3799 3.76024 16.1099 3.33024 14.7299H2.00024V10.1799H3.09024C3.93024 6.03992 7.60023 2.91992 12.0003 2.91992C14.4003 2.91992 16.7103 3.86992 18.4203 5.57992C19.6902 6.83992 20.5402 8.44989 20.8902 10.1799H22.0002V14.6699V14.6899V14.7299H21.9402L18.3802 17.9999L13.0803 17.3999V15.7299H17.9103L18.7203 14.7599ZM9.27026 11.7699C9.57026 11.7699 9.86021 11.8899 10.0702 12.1099C10.2802 12.3199 10.4002 12.6099 10.4002 12.9099C10.4002 13.2099 10.2802 13.4999 10.0702 13.7099C9.86021 13.9199 9.57026 14.0399 9.27026 14.0399C8.64026 14.0399 8.13026 13.5399 8.13026 12.9099C8.13026 12.2799 8.64026 11.7699 9.27026 11.7699ZM14.7202 11.7699C15.3502 11.7699 15.8502 12.2799 15.8502 12.9099C15.8502 13.5399 15.3502 14.0399 14.7202 14.0399C14.0902 14.0399 13.5802 13.5399 13.5802 12.9099C13.5802 12.6076 13.7004 12.3176 13.9141 12.1038C14.1279 11.8901 14.4179 11.7699 14.7202 11.7699Z"/>
</svg>
