<svg width="24" height="24" viewBox="0 0 24 24" xmlns="http://www.w3.org/2000/svg">
<path d="M10.0284 19H13.0284V22H10.0284V19ZM12.0285 2C17.3784 2.22001 19.7085 7.62001 16.5285 11.67C15.6984 12.67 14.3585 13.33 13.6985 14.17C13.0284 15 13.0284 16 13.0284 17H10.0284C10.0284 15.33 10.0284 13.92 10.6985 12.92C11.3585 11.92 12.6984 11.33 13.5285 10.67C15.9485 8.43001 15.3485 5.26001 12.0285 5C11.2328 5 10.4697 5.31608 9.90715 5.87868C9.3445 6.4413 9.02845 7.20436 9.02845 8.00003H6.02844C6.02844 6.40871 6.66059 4.88258 7.78577 3.75736C8.911 2.63215 10.4372 2 12.0285 2Z"/>
</svg>
