<svg width="24" height="24" viewBox="0 0 24 24"  xmlns="http://www.w3.org/2000/svg">
<path d="M18.3637 8.36343L14.7273 11.9998H17.4545C17.4545 13.4464 16.8799 14.8338 15.857 15.8567C14.834 16.8797 13.4466 17.4543 12 17.4543C11.0909 17.4543 10.2091 17.2271 9.45455 16.818L8.12726 18.1452C9.24544 18.8543 10.5727 19.2725 12 19.2725C13.9288 19.2725 15.7787 18.5063 17.1426 17.1424C18.5065 15.7785 19.2727 13.9286 19.2727 11.9998H22L18.3637 8.36343ZM6.54545 11.9998C6.54545 10.5532 7.12012 9.16573 8.14308 8.14286C9.16601 7.1199 10.5534 6.54523 12 6.54523C12.9091 6.54523 13.7909 6.7725 14.5455 7.18159L15.8727 5.85433C14.7545 5.14524 13.4273 4.72705 12 4.72705C10.0711 4.72705 8.22128 5.49328 6.85741 6.85719C5.49351 8.22107 4.72727 10.0709 4.72727 11.9998H2L5.63636 15.6361L9.27271 11.9998" />
</svg>
