<svg width="24" height="24" viewBox="0 0 24 24" xmlns="http://www.w3.org/2000/svg">
<path fill-rule="evenodd" clip-rule="evenodd" d="M12.2289 4.04785C14.4406 4.04785 16.4011 5.12278 17.6169 6.78302L18.2077 7.58983L19.8213 6.40818L19.2305 5.60138C17.6542 3.44889 15.1051 2.04785 12.2289 2.04785C7.43892 2.04785 3.55585 5.93092 3.55585 10.7209C3.55585 15.5109 7.43892 19.394 12.2289 19.394C15.1705 19.394 17.7696 17.9287 19.3363 15.6927L19.9102 14.8737L18.2722 13.7261L17.6984 14.545C16.4899 16.2697 14.4907 17.394 12.2289 17.394C8.54349 17.394 5.55585 14.4064 5.55585 10.7209C5.55585 7.03549 8.54349 4.04785 12.2289 4.04785Z"/>
<rect x="1" y="18.5864" width="6" height="2" transform="rotate(-36.7073 1 18.5864)"/>
<path d="M11.8425 9.04699L14.4392 15.0825L14.6688 15.6163L14.8985 15.0824L16.557 11.2269H21.9994H22.2494V10.9769V10.0385V9.78847H21.9994H15.7715H15.6069L15.5419 9.93965L14.6688 11.9684L12.0722 5.93294L11.8425 5.39911L11.6129 5.93295L9.95441 9.78847H8.07422H7.82422V10.0385V10.9769V11.2269H8.07422H10.7399H10.9044L10.9695 11.0757L11.8425 9.04699Z"/>
</svg>
