<svg width="24" height="24" viewBox="0 0 24 24" xmlns="http://www.w3.org/2000/svg">
<path d="M18.9998 1L13.9998 6V17L18.9998 12.5V1ZM20.9997 5V18.5C19.8998 18.15 18.6998 18 17.4998 18C15.7998 18 13.3497 18.65 11.9997 19.5V6C10.5498 4.9 8.44977 4.5 6.49975 4.5C4.54975 4.5 2.44976 4.9 0.999756 6V20.65C0.999756 20.9 1.24976 21.15 1.49976 21.15C1.59976 21.15 1.64976 21.1 1.74976 21.1C3.09976 20.45 5.04976 20 6.49975 20C8.44977 20 10.5498 20.4 11.9997 21.5C13.3497 20.65 15.7998 20 17.4998 20C19.1498 20 20.8497 20.3 22.2498 21.05C22.3497 21.1 22.3998 21.1 22.4997 21.1C22.7498 21.1 22.9998 20.85 22.9998 20.6V6C22.3998 5.55 21.7497 5.25 20.9997 5ZM9.99979 18.41C8.74977 18.09 7.49976 18 6.49975 18C5.43976 18 4.17976 18.19 2.99976 18.5V7.13C3.90976 6.73 5.13976 6.5 6.49975 6.5C7.85974 6.5 9.08974 6.73 9.99979 7.13V18.41Z"/>
</svg>
