<svg width="24" height="24" viewBox="0 0 24 24" xmlns="http://www.w3.org/2000/svg">
<path d="M13.2141 22L11.5994 18.206C13.1547 17.6315 14.6108 16.8588 15.958 15.9574L13.2141 22ZM5.79456 12.4012L2.00061 10.7865L8.04322 8.04259C7.14176 9.38977 6.3691 10.8459 5.79456 12.4012ZM19.2468 3.98117C19.5241 3.98117 19.7717 3.98117 19.9798 4.0307C20.1482 5.40762 19.96 8.24073 16.7108 11.4898C15.0269 13.1837 13.016 14.4814 10.7574 15.3432L8.62762 13.263C9.53899 10.9748 10.8367 8.96384 12.5108 7.28974C15.2448 4.55572 17.6816 3.98117 19.2468 3.98117ZM19.2468 2C17.2854 2 14.3136 2.68351 11.1041 5.89301C8.93475 8.06243 7.63706 10.4497 6.79505 12.5398C6.51769 13.2828 6.7059 14.0951 7.25073 14.6498L9.36068 16.7499C9.73713 17.1263 10.2423 17.3541 10.7673 17.3541C10.9952 17.3541 11.2329 17.2947 11.4608 17.2055C13.5806 16.3932 15.9382 15.0658 18.1075 12.8964C23.7143 7.28974 21.6142 2.38633 21.6142 2.38633C21.6142 2.38633 20.7128 2 19.2468 2ZM14.6108 9.38977C13.8382 8.61711 13.8382 7.35908 14.6108 6.58642C15.3835 5.81376 16.6415 5.81376 17.4142 6.58642C18.1769 7.35908 18.1868 8.61711 17.4142 9.38977C16.6415 10.1624 15.3835 10.1624 14.6108 9.38977ZM9.00407 16.3932L7.60734 14.9965L9.00407 16.3932ZM6.38892 21.8117L9.99463 18.206C9.65786 18.1169 9.33096 17.9683 9.03379 17.7603L4.99219 21.8117H6.38892ZM2.18882 21.8117H3.58555L8.31068 17.0966L6.90402 15.6999L2.18882 20.415V21.8117ZM2.18882 19.0084L6.24033 14.9668C6.03231 14.6696 5.88372 14.3526 5.79456 14.006L2.18882 17.6117V19.0084Z"/>
</svg>
