<svg width="24" height="24" viewBox="0 0 24 24" xmlns="http://www.w3.org/2000/svg">
<path d="M2.4762 3.90476H10.0952C10.0952 3.39959 10.296 2.9151 10.6532 2.55789C11.0104 2.20068 11.4948 2 12 2C12.5052 2 12.9897 2.20068 13.3469 2.55789C13.7041 2.9151 13.9047 3.39959 13.9047 3.90476H21.5238V5.80953H20.5715V16.2857H15.0952L16.7619 22H14.8572L13.1905 16.2857H10.8095L9.14288 22H7.2381L8.90474 16.2857H3.42858V5.80953H2.4762V3.90476ZM5.33334 5.80953V14.381H18.6667V5.80953H5.33334ZM11.8572 12.3333C11.7715 12.4191 11.6572 12.4762 11.5238 12.4762C11.3975 12.4762 11.2764 12.4261 11.1871 12.3367C11.0978 12.2474 11.0476 12.1263 11.0476 12V8.19049C11.0476 8.06419 11.0978 7.94307 11.1871 7.85376C11.2764 7.76446 11.3975 7.71429 11.5238 7.71429C11.6572 7.71429 11.7715 7.77143 11.8572 7.85715L13.1905 9.18099C13.4952 9.4857 13.8 9.79049 13.8 10.0953C13.8 10.4 13.4952 10.7048 13.1905 11.0096L11.8572 12.3333Z"/>
</svg>
