<svg width="14" height="11" viewBox="0 0 14 11" xmlns="http://www.w3.org/2000/svg">
<path d="M14 9.30559V1.69441C13.9999 1.62993 13.985 1.56661 13.9567 1.51079C13.9284 1.45497 13.8877 1.40863 13.8387 1.37642C13.7897 1.34421 13.7342 1.32726 13.6776 1.32728C13.6211 1.32729 13.5655 1.34428 13.5166 1.37652L9.93923 3.73043V2.33756C9.93923 1.85021 9.76945 1.38282 9.46725 1.03821C9.16505 0.693599 8.75518 0.5 8.32781 0.5H1.61142C1.18404 0.5 0.774173 0.693599 0.471973 1.03821C0.169774 1.38282 0 1.85021 0 2.33756V8.66244C0 9.14979 0.169774 9.61718 0.471973 9.96179C0.774173 10.3064 1.18404 10.5 1.61142 10.5H8.32781C8.53942 10.5 8.74896 10.4525 8.94447 10.3601C9.13998 10.2678 9.31762 10.1324 9.46725 9.96179C9.61689 9.79116 9.73558 9.58859 9.81656 9.36564C9.89755 9.1427 9.93923 8.90375 9.93923 8.66244V7.26957L13.5166 9.62532C13.5655 9.65756 13.6211 9.67454 13.6776 9.67456C13.7342 9.67458 13.7897 9.65763 13.8387 9.62542C13.8877 9.59321 13.9284 9.54686 13.9567 9.49105C13.985 9.43523 13.9999 9.3719 14 9.30742V9.30559Z"/>
</svg>
