<svg width="17" height="10" viewBox="0 0 17 10" xmlns="http://www.w3.org/2000/svg">
<path fill-rule="evenodd" clip-rule="evenodd" d="M8.31743 9.95813H9.33359C9.33359 9.95813 9.64053 9.92339 9.79724 9.7492C9.94148 9.58928 9.93686 9.28897 9.93686 9.28897C9.93686 9.28897 9.91702 7.88305 10.5498 7.67602C11.1736 7.47208 11.9747 9.03482 12.8238 9.63569C13.4658 10.0904 13.9537 9.99073 13.9537 9.99073L16.224 9.95813C16.224 9.95813 17.4116 9.8827 16.8485 8.91988C16.8023 8.84111 16.5205 8.20764 15.1605 6.90596C13.737 5.54359 13.9276 5.76395 15.6424 3.40735C16.6867 1.97217 17.1042 1.09597 16.9738 0.720697C16.8494 0.363269 16.0813 0.457743 16.0813 0.457743L13.5251 0.474163C13.5251 0.474163 13.3357 0.44751 13.1951 0.53413C13.0578 0.619085 12.9694 0.817075 12.9694 0.817075C12.9694 0.817075 12.5648 1.92767 12.0253 2.87216C10.887 4.86515 10.4319 4.97033 10.2459 4.84658C9.81316 4.55817 9.92117 3.68792 9.92117 3.06968C9.92117 1.13833 10.2053 0.333048 9.36797 0.124588C9.09011 0.0553397 8.88563 0.0096499 8.17504 0.00227289C7.26297 -0.00748379 6.49099 0.00512819 6.05388 0.225962C5.76308 0.372789 5.53876 0.699994 5.67538 0.718794C5.84432 0.742114 6.22696 0.825165 6.42983 1.11001C6.69177 1.47744 6.68254 2.30271 6.68254 2.30271C6.68254 2.30271 6.83301 4.57625 6.33105 4.85872C5.98649 5.05243 5.51383 4.65692 4.49906 2.84884C3.9791 1.92267 3.58653 0.898935 3.58653 0.898935C3.58653 0.898935 3.51084 0.707609 3.37583 0.605283C3.21197 0.481301 2.98303 0.4418 2.98303 0.4418L0.553996 0.458218C0.553996 0.458218 0.189353 0.46869 0.0554968 0.632174C-0.0635891 0.777572 0.0460345 1.07836 0.0460345 1.07836C0.0460345 1.07836 1.94772 5.66591 4.10096 7.97776C6.07534 10.0973 8.31743 9.95813 8.31743 9.95813Z" fill="#DBDCE8"/>
</svg>
