<svg width="279" height="174" viewBox="0 0 279 174" fill="none" xmlns="http://www.w3.org/2000/svg"><g clip-path="url(#clip0)"><path d="M1.015 81.105a3.39 3.39 0 012.219-4.25L244.83 1.016a3.39 3.39 0 014.249 2.219L277 92.175a3.39 3.39 0 01-2.219 4.25l-241.597 75.84a3.389 3.389 0 01-4.249-2.218L1.015 81.105z" fill="#fff"/><g clip-path="url(#clip1)"><g filter="url(#filter0_d)"><mask id="path-3-inside-1" fill="#fff"><rect x="37.558" y="101.455" width="50.104" height="32.5" rx="1.625" transform="rotate(-17.428 37.558 101.455)"/></mask><rect x="37.558" y="101.455" width="50.104" height="32.5" rx="1.625" transform="rotate(-17.428 37.558 101.455)" fill="#fff"/><rect x="37.558" y="101.455" width="50.104" height="32.5" rx="1.625" transform="rotate(-17.428 37.558 101.455)" stroke="#333A4A" stroke-width="4" mask="url(#path-3-inside-1)"/></g><path d="M89.508 106.437l-8.26-4.106a1.372 1.372 0 00-1.807.567L72.95 114.84l-5.487-2.749a1.372 1.372 0 00-1.808.567L57.02 127.28l35.53-11.153-3.042-9.69z" fill="#1ABF7E"/><circle cx="55.864" cy="107.772" transform="rotate(-17.428 55.864 107.772)" fill="#FA0" r="4.74"/></g><path d="M112.194 100.822l3.177-.998 2.253-9.951.172-.054.286 1.514 2.184 6.955 2.576-.809-3.774-12.021-3.177.997-2.253 9.952-.172.054-.286-1.514-2.184-6.955-2.576.808 3.774 12.022zm11.065-6.586c.298.529.683.974 1.172 1.33.826.59 2.117 1.033 4.006.44 2.748-.862 3.459-2.501 3.001-3.96-.28-.894-.877-1.291-1.408-1.483a2.578 2.578 0 00-.983-.125l-.027-.086c.27-.16.496-.345.67-.57.315-.38.547-.963.31-1.719-.405-1.288-1.984-2.112-4.474-1.33-1.787.56-2.539 1.588-2.885 2.47a3.942 3.942 0 00-.262 1.63l2.405-.755c-.02-.183.017-.364.094-.54.126-.321.399-.653 1.069-.863 1.03-.323 1.594-.029 1.729.4.189.602-.047 1.053-1.077 1.376l-1.031.324.539 1.717 1.117-.35c1.116-.35 1.567-.115 1.756.486.167.533-.133 1.08-1.163 1.403-.773.243-1.306.108-1.65-.086a1.397 1.397 0 01-.504-.464l-2.404.755zm8.369-4.326c.809 2.576 3.5 3.996 6.265 3.128 2.73-.858 4.161-3.57 3.353-6.147-.809-2.576-3.534-3.984-6.265-3.127-2.765.868-4.161 3.57-3.353 6.146zm2.491-.781c-.486-1.546.221-2.9 1.509-3.304 1.288-.405 2.642.302 3.127 1.848.486 1.546-.221 2.9-1.509 3.304-1.288.404-2.642-.303-3.127-1.848zm7.821-3.116c1.019 3.246 3.637 4.613 6.195 3.81 2.748-.863 3.958-3.318 3.204-5.723-.734-2.335-2.967-3.502-5.217-2.796-.962.302-1.517.816-1.855 1.243-.198.27-.345.523-.43.795l-.086.027c-.512-1.933.301-3.49 2.722-4.25l2.233-.701-.647-2.06-2.49.78c-3.778 1.187-5.138 4.066-3.629 8.875zm2.787.163c-.41-1.305.167-2.411 1.387-2.794 1.219-.383 2.325.195 2.734 1.5.432 1.374-.14 2.497-1.36 2.88-1.219.382-2.33-.212-2.761-1.586zm10.121 4.84l2.404-.754-1.375-4.38.086-.026c.27.198.563.351.886.477a3.51 3.51 0 002.293.034c2.233-.7 3.47-3.07 2.581-5.904-.89-2.833-3.259-4.07-5.492-3.37a3.51 3.51 0 00-1.862 1.34c-.193.286-.346.58-.454.897l-.086.027-.351-1.117-2.404.755 3.774 12.022zm.005-8.396c-.518-1.649.119-2.868 1.424-3.277 1.219-.383 2.438.253 2.955 1.902.518 1.649-.118 2.867-1.338 3.25-1.305.41-2.523-.227-3.041-1.875zm7.747-2.432c.889 2.834 3.258 4.07 5.491 3.37a3.507 3.507 0 001.862-1.34c.193-.286.346-.58.454-.897l.086-.026.351 1.116 2.404-.755-2.749-8.759-2.405.755.351 1.117-.086.026a3.787 3.787 0 00-.886-.476 3.51 3.51 0 00-2.293-.035c-2.233.701-3.47 3.07-2.58 5.904zm2.49-.782c-.518-1.648.118-2.867 1.338-3.25 1.305-.41 2.524.227 3.041 1.875.518 1.65-.119 2.868-1.424 3.277-1.219.383-2.438-.253-2.955-1.902zm8.863 2.029l2.748-.863.983-4.082 1.202-.377 1.078 3.435 2.405-.755-1.079-3.435 1.203-.377 3.139 2.788 2.747-.863-4.402-3.806 1.395-4.872-2.662.836-1.122 3.937-.945.296-1.024-3.263-2.404.755 1.024 3.263-.944.297-3.171-2.59-2.662.836 3.928 3.2-1.437 5.64zm12.908-8.863c.808 2.576 3.499 3.995 6.178 3.154 1.889-.593 2.763-1.716 3.207-2.704a4.78 4.78 0 00.374-1.816l-2.576.81a2.052 2.052 0 01-.251.644c-.245.36-.628.763-1.401 1.005-1.116.35-2.34-.303-2.879-1.36l6.869-2.156-.162-.515c-.803-2.559-3.344-4.044-6.092-3.181-2.679.84-4.076 3.543-3.267 6.119zm2.279-1.753c-.017-.957.518-1.955 1.635-2.306 1.116-.35 2.131.18 2.573.985l-4.208 1.32zm9.755 2.786l2.404-.755-1.078-3.434 3.692-1.16 1.078 3.435 2.405-.754-2.75-8.759-2.404.755 1.024 3.263-3.692 1.159-1.024-3.263-2.405.755 2.75 8.758zm10.245-3.216l2.576-.808 1.849-6.43.172-.053.399 1.572 1.186 3.778 2.404-.754-2.749-8.759-2.576.809-1.849 6.429-.172.054-.4-1.573-1.186-3.778-2.404.755 2.75 8.758zm8.438-7.46c.809 2.576 3.5 3.996 6.179 3.155 1.889-.593 2.762-1.717 3.207-2.705.249-.588.362-1.19.373-1.815l-2.576.808a2.05 2.05 0 01-.25.645c-.246.36-.628.763-1.401 1.006-1.117.35-2.34-.303-2.88-1.36l6.87-2.157-.162-.515c-.803-2.559-3.345-4.044-6.093-3.181-2.679.84-4.075 3.543-3.267 6.12zm2.28-1.753c-.018-.957.518-1.955 1.634-2.305 1.117-.35 2.132.18 2.573.984l-4.207 1.321z" fill="#333A4A"/></g><path d="M32.885 171.311a2.39 2.39 0 01-.927.102l-.177 1.992a4.37 4.37 0 001.703-.186l-.6-1.908zm-2.55-.746a2.371 2.371 0 01-.446-.818l-1.908.599c.178.566.461 1.073.822 1.504l1.533-1.285zm-.446-.818l-1.396-4.447-1.908.599 1.396 4.447 1.908-.599zm-4.188-13.341l-2.792-8.894-1.908.599 2.792 8.894 1.908-.599zm-5.584-17.788l-2.792-8.895-1.908.599 2.792 8.895 1.908-.599zm-5.584-17.789l-2.792-8.894-1.908.599 2.792 8.894 1.908-.599zM8.95 103.041l-2.792-8.894-1.908.599 2.792 8.894 1.908-.599zM3.365 85.253L1.97 80.805l-1.908.6 1.396 4.447 1.908-.6zM1.97 80.805a2.38 2.38 0 01-.101-.926L-.124 79.7c-.05.56.007 1.137.185 1.704l1.908-.6zm.746-2.549a2.38 2.38 0 01.818-.446l-.599-1.908a4.38 4.38 0 00-1.503.821l1.284 1.534zm.818-.446l4.647-1.459-.6-1.908-4.646 1.459.6 1.908zm13.939-4.375l9.292-2.917-.6-1.909-9.291 2.917.599 1.909zM36.056 67.6l9.292-2.917-.599-1.908-9.292 2.916.6 1.909zm18.585-5.834l9.292-2.917-.6-1.908-9.292 2.916.6 1.909zm18.584-5.834l9.292-2.917-.599-1.908-9.292 2.917.599 1.908zm18.584-5.834l9.292-2.917-.599-1.908-9.292 2.917.6 1.908zm18.585-5.834l9.292-2.917-.599-1.908-9.292 2.917.599 1.908zm18.584-5.834l9.292-2.917-.599-1.908-9.292 2.917.599 1.908zm18.584-5.834l9.292-2.917-.599-1.908-9.292 2.917.599 1.908zm18.585-5.834l9.292-2.917-.599-1.908-9.292 2.917.599 1.908zm18.584-5.834l9.292-2.917-.599-1.908-9.292 2.917.599 1.908zm18.584-5.834l9.293-2.917-.599-1.908-9.293 2.917.599 1.908zM221.9 9.261l9.292-2.917-.599-1.908-9.292 2.917.599 1.908zm18.584-5.834l4.646-1.458-.599-1.908-4.646 1.458.599 1.908zm4.646-1.458c.311-.098.625-.128.927-.101l.177-1.992a4.379 4.379 0 00-1.703.185l.599 1.908zm2.549.746c.195.233.349.507.447.818l1.908-.599a4.381 4.381 0 00-.822-1.503l-1.533 1.284zm.447.818l1.396 4.447 1.908-.599-1.396-4.447-1.908.6zm4.188 13.341l2.792 8.895 1.908-.6-2.792-8.894-1.908.6zm5.584 17.789l2.792 8.894 1.908-.6-2.792-8.893-1.908.599zm5.584 17.788l2.792 8.894 1.908-.599-2.792-8.894-1.908.6zm5.584 17.788l2.792 8.895 1.908-.6-2.792-8.894-1.908.6zm5.584 17.789l1.396 4.447 1.908-.6-1.396-4.446-1.908.599zm1.396 4.447c.097.31.128.624.101.926l1.992.178a4.372 4.372 0 00-.185-1.703l-1.908.599zm-.746 2.549a2.38 2.38 0 01-.818.446l.599 1.909a4.37 4.37 0 001.503-.822l-1.284-1.533zm-.818.446l-4.646 1.459.599 1.908 4.646-1.459-.599-1.908zm-13.939 4.376l-9.292 2.917.599 1.908 9.292-2.917-.599-1.908zm-18.584 5.834l-9.292 2.917.599 1.908 9.292-2.917-.599-1.908zm-18.584 5.834l-9.292 2.917.599 1.908 9.292-2.917-.599-1.908zm-18.585 5.834l-9.292 2.916.599 1.909 9.292-2.917-.599-1.908zm-18.584 5.833l-9.292 2.917.599 1.909 9.292-2.917-.599-1.909zm-18.584 5.834l-9.293 2.917.599 1.909 9.293-2.917-.599-1.909zm-18.585 5.834l-9.292 2.917.599 1.908 9.292-2.917-.599-1.908zm-18.584 5.834l-9.292 2.917.599 1.908 9.292-2.917-.599-1.908zm-18.585 5.834l-9.292 2.917.599 1.908 9.292-2.917-.599-1.908zm-18.584 5.834l-9.292 2.917.599 1.908 9.292-2.917-.599-1.908zM74.7 158.185l-9.293 2.917.6 1.908 9.292-2.917-.6-1.908zm-18.585 5.834l-9.292 2.917.6 1.908 9.291-2.917-.599-1.908zm-18.584 5.834l-4.646 1.458.599 1.908 4.646-1.458-.599-1.908zm-4.946.504a1.36 1.36 0 01-.538.059l-.355 3.985a5.4 5.4 0 002.091-.227l-1.198-3.817zm-1.483-.434a1.375 1.375 0 01-.259-.475l-3.816 1.198a5.39 5.39 0 001.01 1.846l3.066-2.569zm-.259-.475l-1.395-4.447-3.817 1.198 1.396 4.447 3.816-1.198zm-4.188-13.342l-2.792-8.894-3.816 1.198 2.792 8.894 3.817-1.198zm-5.584-17.788l-2.792-8.894-3.816 1.198 2.792 8.894 3.817-1.198zm-5.584-17.788l-2.792-8.894-3.816 1.198 2.792 8.894 3.816-1.198zm-5.584-17.789l-2.792-8.894-3.816 1.198 2.792 8.894 3.816-1.198zM4.32 84.953l-1.396-4.447-3.816 1.198 1.396 4.447 3.816-1.198zm-1.396-4.447a1.38 1.38 0 01-.059-.538l-3.984-.356a5.38 5.38 0 00.227 2.092l3.816-1.198zm.434-1.483c.134-.112.293-.201.476-.259l-1.198-3.816A5.38 5.38 0 00.79 75.957l2.568 3.066zm.476-.259l4.646-1.458-1.198-3.817-4.646 1.459 1.198 3.816zM17.77 74.39l9.292-2.917-1.198-3.817-9.292 2.917 1.198 3.817zm18.585-5.834l9.292-2.917-1.198-3.817-9.292 2.917 1.198 3.817zM54.94 62.72l9.292-2.917-1.198-3.817-9.292 2.917 1.198 3.817zm18.584-5.834l9.293-2.917-1.198-3.816-9.293 2.916 1.198 3.817zm18.585-5.834l9.292-2.917-1.198-3.816-9.292 2.917 1.198 3.816zm18.584-5.834l9.292-2.917-1.198-3.816-9.292 2.917 1.198 3.816zm18.584-5.834l9.293-2.917-1.198-3.816-9.293 2.917 1.198 3.816zm18.585-5.834l9.292-2.917-1.198-3.816-9.292 2.917 1.198 3.816zm18.584-5.834l9.292-2.917-1.198-3.816-9.292 2.917 1.198 3.816zm18.585-5.834l9.292-2.917-1.198-3.816-9.292 2.917 1.198 3.816zm18.584-5.834l9.292-2.916-1.198-3.817-9.292 2.917 1.198 3.816zm18.584-5.833l9.293-2.917-1.199-3.817-9.292 2.917 1.198 3.817zm18.585-5.834l4.646-1.459-1.198-3.816-4.646 1.458 1.198 3.817zm4.646-1.459c.183-.057.364-.075.538-.06l.355-3.983a5.375 5.375 0 00-2.091.227l1.198 3.816zm1.483.434c.112.134.201.292.259.476l3.816-1.198a5.378 5.378 0 00-1.009-1.846l-3.066 2.568zm.259.476l1.396 4.447 3.816-1.198-1.396-4.447-3.816 1.198zm4.188 13.34l2.792 8.895 3.816-1.198-2.792-8.894-3.816 1.198zm5.584 17.79l2.792 8.893 3.816-1.198-2.792-8.894-3.816 1.198zm5.584 17.788l2.792 8.894 3.816-1.198-2.792-8.894-3.816 1.198zm5.584 17.788l2.792 8.894 3.816-1.198-2.792-8.894-3.816 1.198zm5.584 17.788l1.396 4.447 3.816-1.198-1.396-4.447-3.816 1.198zm1.396 4.447c.057.184.075.365.059.539l3.984.355a5.363 5.363 0 00-.227-2.092l-3.816 1.198zm-.434 1.483a1.386 1.386 0 01-.476.26l1.198 3.816a5.37 5.37 0 001.846-1.01l-2.568-3.066zm-.476.26l-4.646 1.458 1.198 3.816 4.646-1.458-1.198-3.817zm-13.938 4.375l-9.292 2.917 1.198 3.816 9.292-2.917-1.198-3.816zm-18.584 5.834l-9.293 2.917 1.198 3.816 9.293-2.917-1.198-3.816zm-18.585 5.834l-9.292 2.916 1.198 3.817 9.292-2.917-1.198-3.816zm-18.584 5.833l-9.292 2.917 1.198 3.817 9.292-2.917-1.198-3.817zm-18.585 5.834l-9.292 2.917 1.198 3.817 9.292-2.917-1.198-3.817zm-18.584 5.834l-9.292 2.917 1.198 3.817 9.292-2.917-1.198-3.817zm-18.584 5.834l-9.292 2.917 1.198 3.817 9.292-2.917-1.198-3.817zm-18.585 5.834l-9.292 2.917 1.198 3.816 9.292-2.917-1.198-3.816zm-18.584 5.834l-9.292 2.917 1.198 3.816 9.292-2.917-1.198-3.816zm-18.584 5.834l-9.293 2.917 1.198 3.816 9.293-2.917-1.198-3.816zM74.4 157.231l-9.292 2.917 1.198 3.816 9.292-2.917-1.198-3.816zm-18.584 5.834l-9.292 2.917 1.198 3.816 9.292-2.917-1.198-3.816zm-18.585 5.834l-4.646 1.458 1.198 3.817 4.646-1.459-1.198-3.816z" fill="#6AB0FF"/><defs><clipPath id="clip0"><path d="M1.015 81.105a3.39 3.39 0 012.219-4.25L244.83 1.016a3.39 3.39 0 014.249 2.219L277 92.175a3.39 3.39 0 01-2.219 4.25l-241.597 75.84a3.389 3.389 0 01-4.249-2.218L1.015 81.105z" fill="#fff"/></clipPath><clipPath id="clip1"><path fill="#fff" transform="rotate(-17.428 300.12 -41.583)" d="M0 0h65v65H0z"/></clipPath><filter id="filter0_d" x="37.97" y="86.86" width="59.965" height="48.441" filterUnits="userSpaceOnUse" color-interpolation-filters="sRGB"><feFlood flood-opacity="0" result="BackgroundImageFix"/><feColorMatrix in="SourceAlpha" values="0 0 0 0 0 0 0 0 0 0 0 0 0 0 0 0 0 0 127 0" result="hardAlpha"/><feOffset dx="3.25" dy="3.25"/><feColorMatrix values="0 0 0 0 0.2 0 0 0 0 0.227451 0 0 0 0 0.290196 0 0 0 1 0"/><feBlend in2="BackgroundImageFix" result="effect1_dropShadow"/><feBlend in="SourceGraphic" in2="effect1_dropShadow" result="shape"/></filter></defs></svg>