<svg width="276" height="151" viewBox="0 0 276 151" fill="none" xmlns="http://www.w3.org/2000/svg"><path d="M1.311 55.985a3.39 3.39 0 012.643-4L252.053 1.317a3.39 3.39 0 014 2.643l18.653 91.336a3.389 3.389 0 01-2.642 3.999l-248.1 50.669a3.389 3.389 0 01-4-2.642L1.312 55.985z" fill="#fff"/><g clip-path="url(#clip0)"><g filter="url(#filter0_d)"><mask id="path-3-inside-1" fill="#fff"><rect x="35.575" y="79.974" width="50.104" height="32.5" rx="1.625" transform="rotate(-11.543 35.575 79.974)"/></mask><rect x="35.575" y="79.974" width="50.104" height="32.5" rx="1.625" transform="rotate(-11.543 35.575 79.974)" fill="#fff"/><rect x="35.575" y="79.974" width="50.104" height="32.5" rx="1.625" transform="rotate(-11.543 35.575 79.974)" stroke="#333A4A" stroke-width="4" mask="url(#path-3-inside-1)"/></g><path d="M86.74 90.256l-7.794-4.93a1.372 1.372 0 00-1.857.378l-7.681 11.214-5.177-3.298a1.372 1.372 0 00-1.856.38l-10.089 13.659 36.487-7.452-2.033-9.95z" fill="#1ABF7E"/><circle cx="53.136" cy="88.136" transform="rotate(-11.543 53.136 88.136)" fill="#FA0" r="4.74"/></g><path d="M109.883 86.998l3.262-.667 3.262-9.668.176-.036.13 1.535 1.458 7.143 2.646-.54-2.521-12.346-3.263.667-3.261 9.668-.177.036-.13-1.535-1.458-7.143-2.646.54 2.522 12.346zm11.681-5.417a4.11 4.11 0 001.03 1.443c.761.671 1.999 1.245 3.939.849 2.822-.577 3.698-2.133 3.392-3.632-.187-.918-.74-1.374-1.249-1.62a2.575 2.575 0 00-.965-.225l-.018-.088c.286-.132.529-.292.725-.497.352-.348.643-.903.484-1.679-.27-1.323-1.757-2.305-4.314-1.783-1.834.375-2.688 1.32-3.122 2.163a3.935 3.935 0 00-.428 1.594l2.469-.505c-.001-.183.055-.36.15-.526.157-.308.463-.61 1.151-.75 1.058-.216 1.589.135 1.679.576.126.617-.154 1.042-1.213 1.258l-1.058.216.36 1.764 1.147-.234c1.146-.234 1.571.046 1.697.663.112.547-.243 1.06-1.301 1.277-.794.162-1.31-.027-1.632-.255a1.393 1.393 0 01-.454-.514l-2.469.505zm8.769-3.445c.54 2.646 3.071 4.334 5.911 3.754 2.804-.573 4.505-3.125 3.965-5.77-.54-2.646-3.106-4.327-5.91-3.754-2.84.58-4.506 3.125-3.966 5.77zm2.557-.522c-.324-1.587.518-2.861 1.841-3.132 1.323-.27 2.597.572 2.921 2.16.324 1.587-.518 2.861-1.841 3.131-1.322.27-2.597-.572-2.921-2.159zm8.1-2.297c.681 3.333 3.144 4.961 5.772 4.424 2.822-.576 4.277-2.894 3.773-5.363-.49-2.399-2.592-3.788-4.903-3.316-.987.202-1.592.656-1.972 1.046-.225.248-.397.485-.509.747l-.088.018c-.312-1.976.657-3.441 3.143-3.95l2.293-.467-.432-2.117-2.557.523c-3.88.792-5.528 3.517-4.52 8.455zm2.755.448c-.273-1.34.414-2.381 1.666-2.637 1.253-.256 2.293.432 2.567 1.772.288 1.411-.396 2.47-1.648 2.725-1.252.256-2.297-.45-2.585-1.86zm9.572 5.853l2.469-.504-.919-4.498.088-.018c.248.225.524.408.832.565a3.512 3.512 0 002.278.27c2.293-.468 3.767-2.698 3.172-5.608-.594-2.91-2.824-4.384-5.117-3.916a3.518 3.518 0 00-1.99 1.142 3.803 3.803 0 00-.543.846l-.089.018-.234-1.147-2.469.505 2.522 12.345zm.866-8.352c-.346-1.694.412-2.84 1.752-3.114 1.252-.256 2.399.502 2.745 2.195.346 1.693-.412 2.84-1.664 3.096-1.341.273-2.487-.484-2.833-2.177zm7.955-1.625c.594 2.91 2.824 4.383 5.117 3.915a3.515 3.515 0 001.99-1.141c.221-.266.403-.542.543-.846l.089-.018.234 1.146 2.469-.504-1.837-8.994-2.469.504.234 1.146-.088.018a3.788 3.788 0 00-.832-.565 3.512 3.512 0 00-2.278-.27c-2.293.469-3.766 2.699-3.172 5.609zm2.557-.522c-.346-1.694.412-2.84 1.664-3.096 1.341-.274 2.487.484 2.833 2.177.346 1.693-.412 2.84-1.752 3.114-1.252.256-2.399-.502-2.745-2.195zm8.609 2.926l2.822-.576 1.396-3.96 1.234-.252.721 3.527 2.469-.504-.721-3.527 1.235-.252 2.837 3.095 2.821-.576-3.988-4.238 1.887-4.703-2.734.559-1.52 3.8-.97.199-.684-3.351-2.469.504.684 3.35-.97.199-2.889-2.9-2.733.558 3.58 3.586-2.008 5.462zm13.748-7.492c.54 2.645 3.071 4.333 5.822 3.77 1.94-.395 2.925-1.423 3.468-2.36a4.814 4.814 0 00.558-1.768l-2.646.54c-.066.216-.171.42-.315.616-.281.333-.703.694-1.497.856-1.146.235-2.297-.54-2.725-1.648l7.055-1.44-.108-.53c-.537-2.627-2.913-4.365-5.735-3.789-2.751.562-4.417 3.107-3.877 5.753zm2.447-1.51c.081-.954.716-1.892 1.863-2.126 1.146-.234 2.102.397 2.458 1.243l-4.321.882zm9.418 3.771l2.469-.504-.721-3.527 3.792-.775.721 3.528 2.469-.505-1.837-8.994-2.469.504.684 3.351-3.792.774-.684-3.35-2.469.504 1.837 8.994zm10.52-2.148l2.646-.54 2.498-6.206.177-.036.236 1.605.792 3.88 2.469-.504-1.837-8.995-2.645.54-2.499 6.206-.176.036-.236-1.605-.793-3.88-2.469.504 1.837 8.995zm9.159-6.556c.541 2.646 3.072 4.333 5.823 3.772 1.94-.397 2.924-1.424 3.467-2.362a4.776 4.776 0 00.558-1.768l-2.645.54a2.048 2.048 0 01-.316.616c-.281.333-.703.695-1.496.857-1.147.234-2.297-.541-2.725-1.648l7.054-1.44-.108-.53c-.537-2.627-2.912-4.365-5.734-3.789-2.751.562-4.418 3.107-3.878 5.752zm2.448-1.51c.081-.953.716-1.892 1.862-2.126 1.146-.234 2.102.398 2.459 1.244l-4.321.882zM4.354 53.945l248.1-50.67-.801-3.918-248.1 50.67.801 3.918zM254.093 4.36l18.654 91.336 3.919-.8L258.012 3.56l-3.919.8zm17.57 92.975l-248.1 50.67.801 3.919 248.1-50.67-.801-3.919zM21.924 146.92L3.271 55.585l-3.92.8 18.654 91.336 3.92-.801zm1.64 1.084a1.39 1.39 0 01-1.64-1.084l-3.919.801a5.39 5.39 0 006.359 4.202l-.8-3.919zm249.183-52.31a1.39 1.39 0 01-1.084 1.64l.801 3.919a5.39 5.39 0 004.202-6.359l-3.919.8zM252.454 3.277a1.389 1.389 0 011.639 1.083l3.919-.8a5.389 5.389 0 00-6.359-4.202l.801 3.919zm-248.9 46.75a5.39 5.39 0 00-4.202 6.36l3.919-.801a1.39 1.39 0 011.083-1.64l-.8-3.919z" fill="#333A4A"/><defs><clipPath id="clip0"><path fill="#fff" transform="rotate(-11.543 336.415 -94.382)" d="M0 0h65v65H0z"/></clipPath><filter id="filter0_d" x="35.867" y="70.24" width="58.26" height="44.535" filterUnits="userSpaceOnUse" color-interpolation-filters="sRGB"><feFlood flood-opacity="0" result="BackgroundImageFix"/><feColorMatrix in="SourceAlpha" values="0 0 0 0 0 0 0 0 0 0 0 0 0 0 0 0 0 0 127 0" result="hardAlpha"/><feOffset dx="3.25" dy="3.25"/><feColorMatrix values="0 0 0 0 0.2 0 0 0 0 0.227451 0 0 0 0 0.290196 0 0 0 1 0"/><feBlend in2="BackgroundImageFix" result="effect1_dropShadow"/><feBlend in="SourceGraphic" in2="effect1_dropShadow" result="shape"/></filter></defs></svg>