<svg width="91" height="74" viewBox="0 0 91 74" fill="none" xmlns="http://www.w3.org/2000/svg"><path d="M43.471 73.623a1 1 0 001.415 0l6.363-6.364a1 1 0 10-1.414-1.414L44.178 71.5l-5.656-5.656a1 1 0 10-1.415 1.414l6.364 6.364zm31.549-65c-2.992 1.637-5.716 3.277-8.195 4.95l1.119 1.658c2.419-1.632 5.089-3.241 8.036-4.854l-.96-1.754zM52.827 26.704c-3.64 5.127-5.98 10.882-7.443 17.708l1.956.42c1.417-6.615 3.665-12.106 7.117-16.97l-1.63-1.158zm-9.496 36.7a268.214 268.214 0 00-.153 9.512h2c0-3.332.046-6.473.151-9.442l-1.998-.07zM28.819 48.623a1 1 0 01-1.415 0l-6.364-6.364a1 1 0 011.415-1.414l5.656 5.657 5.657-5.657a1 1 0 011.414 1.414l-6.364 6.364zM12.253.343c3.151 3.618 5.754 6.974 7.89 10.262l-1.677 1.09c-2.071-3.189-4.612-6.469-7.721-10.038L12.254.343zm16.294 34.674c.405 3.888.563 8.13.563 12.899h-2c0-4.729-.157-8.896-.552-12.692l1.989-.207z" fill="#0C4CD7"/></svg>