<svg width="117" height="113" viewBox="0 0 117 113" fill="none" xmlns="http://www.w3.org/2000/svg"><path d="M113.872 100.815a1 1 0 01-1.242.676l-8.633-2.544a1 1 0 11.565-1.918l7.674 2.261 2.261-7.674a1 1 0 011.919.566l-2.544 8.633zM1.312 10.768c3.016.992 5.94 1.984 8.778 2.977l-.66 1.888a489.885 489.885 0 00-8.743-2.965l.626-1.9zm26.07 9.502c6.054 2.479 11.657 5.011 16.876 7.642l-.9 1.786c-5.166-2.604-10.721-5.115-16.734-7.577l.758-1.85zM60.35 37.123c5.345 3.492 10.244 7.197 14.812 11.194l-1.317 1.505c-4.495-3.933-9.318-7.582-14.589-11.024l1.094-1.675zM88.22 61.52c3.914 4.548 7.624 9.442 11.243 14.752l-1.653 1.127c-3.582-5.258-7.248-10.091-11.106-14.575l1.517-1.304zm21.046 30.46a374.559 374.559 0 014.525 8.075l-1.757.957a367.012 367.012 0 00-4.5-8.033l1.732-1z" fill="#0C4CD7"/></svg>