<svg width="289" height="227" viewBox="0 0 289 227" fill="none" xmlns="http://www.w3.org/2000/svg"><g filter="url(#filter0_d)"><path d="M-2.026 80.16a3.39 3.39 0 013.027-3.717l251.907-25.762a3.389 3.389 0 013.717 3.027l9.485 92.737a3.39 3.39 0 01-3.028 3.717L11.175 175.924a3.389 3.389 0 01-3.716-3.027L-2.026 80.16z" fill="#fff"/><g filter="url(#filter1_d)"><mask id="path-3-inside-1" fill="#fff"><rect x="29.685" y="107.436" width="50.104" height="32.5" rx="1.625" transform="rotate(-5.84 29.685 107.436)"/></mask><rect x="29.685" y="107.436" width="50.104" height="32.5" rx="1.625" transform="rotate(-5.84 29.685 107.436)" fill="#fff"/><rect x="29.685" y="107.436" width="50.104" height="32.5" rx="1.625" transform="rotate(-5.84 29.685 107.436)" stroke="#333A4A" stroke-width="4" mask="url(#path-3-inside-1)"/></g><path d="M79.575 122.752l-7.267-5.682a1.373 1.373 0 00-1.884.193l-8.758 10.395-4.823-3.796a1.372 1.372 0 00-1.885.193l-11.396 12.589 37.046-3.789-1.033-10.103z" fill="#1ABF7E"/><circle cx="46.348" cy="117.302" transform="rotate(-5.84 46.348 117.302)" fill="#FA0" r="4.74"/><path d="M102.926 121.809l3.313-.339 4.206-9.296.179-.018-.023 1.54.741 7.252 2.686-.275-1.282-12.534-3.312.339-4.206 9.296-.179.018.023-1.54-.742-7.252-2.686.274 1.282 12.535zm12.162-4.229c.186.578.474 1.091.881 1.538.692.743 1.866 1.438 3.836 1.236 2.865-.293 3.892-1.755 3.736-3.277-.095-.931-.6-1.441-1.082-1.735a2.57 2.57 0 00-.938-.32l-.009-.09c.297-.103.555-.237.771-.422.385-.311.729-.835.649-1.623-.138-1.343-1.519-2.468-4.116-2.203-1.862.191-2.806 1.047-3.322 1.842a3.95 3.95 0 00-.584 1.543l2.507-.256c.018-.183.091-.353.201-.509.188-.291.522-.56 1.221-.631 1.074-.11 1.567.292 1.613.739.064.627-.257 1.022-1.332 1.132l-1.074.109.183 1.791 1.164-.119c1.164-.119 1.559.203 1.623.829.057.555-.347 1.031-1.422 1.141-.805.082-1.3-.157-1.598-.416a1.39 1.39 0 01-.401-.556l-2.507.257zm9.068-2.556c.275 2.686 2.626 4.617 5.508 4.322 2.848-.291 4.795-2.662 4.52-5.348-.275-2.686-2.661-4.613-5.508-4.322-2.883.295-4.795 2.662-4.52 5.348zm2.597-.266c-.165-1.611.799-2.796 2.142-2.933s2.528.827 2.692 2.439c.165 1.611-.799 2.796-2.142 2.933s-2.528-.827-2.692-2.439zm8.288-1.481c.346 3.385 2.635 5.249 5.303 4.976 2.865-.293 4.544-2.455 4.288-4.961-.249-2.436-2.203-4.027-4.549-3.787-1.003.102-1.65.494-2.067.844-.248.225-.443.444-.58.693l-.09.009c-.114-1.997.996-3.359 3.52-3.617l2.328-.238-.22-2.149-2.596.266c-3.939.403-5.85 2.95-5.337 7.964zm2.697.72c-.139-1.361.648-2.328 1.92-2.458 1.271-.131 2.238.657 2.377 2.018.147 1.433-.639 2.418-1.91 2.548-1.272.13-2.241-.676-2.387-2.108zm8.942 6.775l2.507-.256-.467-4.567.089-.009c.225.249.481.458.772.645.52.309 1.237.597 2.24.495 2.328-.238 4.016-2.311 3.714-5.265-.303-2.955-2.375-4.643-4.703-4.405a3.508 3.508 0 00-2.093.938 3.75 3.75 0 00-.625.788l-.09.009-.119-1.164-2.507.256 1.282 12.535zm1.692-8.225c-.176-1.719.692-2.785 2.053-2.924 1.271-.13 2.337.738 2.513 2.457.176 1.719-.692 2.785-1.964 2.915-1.36.139-2.426-.729-2.602-2.448zm8.077-.826c.302 2.955 2.375 4.643 4.703 4.405a3.52 3.52 0 002.093-.938c.247-.243.456-.499.625-.788l.09-.009.119 1.164 2.507-.257-.934-9.132-2.507.256.119 1.164-.09.009a3.79 3.79 0 00-.771-.644 3.509 3.509 0 00-2.24-.495c-2.328.238-4.016 2.31-3.714 5.265zm2.597-.265c-.176-1.719.692-2.785 1.963-2.915 1.361-.14 2.427.729 2.603 2.448.176 1.719-.693 2.784-2.053 2.924-1.272.13-2.338-.738-2.513-2.457zm8.275 3.767l2.865-.293 1.783-3.801 1.253-.128.366 3.581 2.507-.256-.366-3.582 1.253-.128 2.516 3.362 2.865-.293-3.548-4.613 2.345-4.492-2.775.284-1.891 3.631-.985.101-.348-3.403-2.507.257.348 3.402-.985.101-2.586-3.174-2.775.284 3.206 3.925-2.541 5.235zm14.425-6.089c.274 2.686 2.625 4.617 5.418 4.331 1.97-.201 3.052-1.126 3.685-2.005a4.792 4.792 0 00.731-1.703l-2.686.274a2.035 2.035 0 01-.375.582c-.313.303-.769.621-1.574.703-1.164.119-2.232-.767-2.548-1.91l7.163-.733-.055-.537c-.273-2.668-2.465-4.633-5.33-4.34-2.793.285-4.704 2.652-4.429 5.338zm2.585-1.26c.175-.94.9-1.811 2.064-1.93 1.164-.119 2.052.605 2.323 1.482l-4.387.448zm8.996 4.69l2.507-.257-.367-3.581 3.85-.394.367 3.581 2.507-.256-.934-9.132-2.507.256.348 3.402-3.85.394-.348-3.402-2.507.256.934 9.133zm10.682-1.093l2.686-.275 3.103-5.926.179-.018.075 1.62.403 3.94 2.507-.257-.934-9.132-2.686.275-3.103 5.926-.179.019-.075-1.621-.403-3.94-2.507.257.934 9.132zm9.765-5.613c.275 2.686 2.625 4.617 5.419 4.332 1.97-.202 3.051-1.127 3.685-2.006a4.782 4.782 0 00.73-1.703l-2.686.275a2.049 2.049 0 01-.374.581c-.313.303-.769.621-1.575.704-1.164.119-2.232-.767-2.548-1.911l7.163-.732-.055-.538c-.273-2.668-2.464-4.633-5.329-4.34-2.794.286-4.705 2.652-4.43 5.338zm2.585-1.259c.175-.941.901-1.811 2.065-1.93s2.052.604 2.322 1.481l-4.387.449z" fill="#333A4A"/><path d="M11.074 174.93c-.325.033-.638 0-.928-.087l-.575 1.915a4.354 4.354 0 001.706.161l-.203-1.989zm-2.348-1.243a2.378 2.378 0 01-.273-.891l-1.99.203c.061.59.237 1.143.504 1.638l1.76-.95zm-.273-.891l-.474-4.637-1.99.203.475 4.637 1.99-.203zm-1.422-13.911l-.949-9.274-1.99.204.95 9.273 1.989-.203zm-1.897-18.548l-.949-9.273-1.99.203.95 9.274 1.989-.204zM3.237 121.79l-.948-9.274-1.99.204.948 9.274 1.99-.204zM1.34 103.243l-.948-9.274-1.99.203.949 9.274 1.99-.203zM-.557 84.695l-.474-4.637-1.99.204.475 4.637 1.99-.204zm-.474-4.637a2.38 2.38 0 01.087-.928l-1.916-.574a4.38 4.38 0 00-.16 1.706l1.99-.204zm1.243-2.347a2.38 2.38 0 01.891-.273L.9 75.448a4.37 4.37 0 00-1.638.503l.95 1.76zm.891-.273l4.845-.495-.204-1.99-4.844.495.203 1.99zm14.533-1.486l9.689-.991-.203-1.99-9.69.991.204 1.99zm19.378-1.982l9.688-.99-.203-1.99-9.689.99.204 1.99zm19.377-1.982l9.689-.99-.204-1.99-9.688.99.203 1.99zm19.378-1.981l9.688-.991-.203-1.99-9.689.99.204 1.99zm19.377-1.982l9.689-.991-.204-1.99-9.688.991.203 1.99zm19.378-1.982l9.688-.99-.203-1.99-9.689.99.204 1.99zm19.377-1.982l9.689-.99-.204-1.99-9.688.99.203 1.99zm19.377-1.982l9.689-.99-.203-1.99-9.689.99.203 1.99zm19.378-1.981l9.689-.991-.204-1.99-9.689.991.204 1.99zm19.377-1.982l9.689-.99-.203-1.99-9.689.99.203 1.99zm19.378-1.982l9.689-.99-.204-1.99-9.689.99.204 1.99zm19.377-1.981l9.689-.991-.203-1.99-9.689.99.203 1.99zm19.378-1.982l4.844-.496-.203-1.99-4.845.496.204 1.99zm4.844-.496c.324-.033.637 0 .928.087l.574-1.916a4.375 4.375 0 00-1.705-.16l.203 1.99zm2.347 1.243c.145.267.24.567.273.891l1.99-.203a4.372 4.372 0 00-.503-1.638l-1.76.95zm.273.891l.475 4.637 1.989-.203-.474-4.637-1.99.203zm1.423 13.91l.948 9.275 1.99-.204-.948-9.274-1.99.204zm1.897 18.548l.948 9.274 1.99-.203-.948-9.274-1.99.203zm1.897 18.548l.948 9.273 1.99-.203-.949-9.274-1.989.204zm1.897 18.547l.948 9.274 1.99-.204-.949-9.273-1.989.203zm1.896 18.548l.475 4.637 1.989-.204-.474-4.637-1.99.204zm.475 4.637c.033.324 0 .637-.087.928l1.916.574a4.374 4.374 0 00.16-1.706l-1.989.204zm-1.243 2.347c-.267.144-.567.24-.891.273l.203 1.989a4.37 4.37 0 001.638-.502l-.95-1.76zm-.891.273l-4.845.495.204 1.99 4.844-.496-.203-1.989zm-14.533 1.486l-9.689.991.203 1.99 9.689-.991-.203-1.99zm-19.378 1.982l-9.689.991.204 1.989 9.689-.991-.204-1.989zm-19.377 1.982l-9.689.99.203 1.99 9.689-.991-.203-1.989zm-19.378 1.981l-9.689.991.204 1.99 9.689-.991-.204-1.99zm-19.377 1.982l-9.689.991.203 1.99 9.689-.991-.203-1.99zm-19.378 1.982l-9.688.991.203 1.989 9.689-.991-.204-1.989zm-19.377 1.982l-9.689.99.204 1.99 9.688-.991-.203-1.989zm-19.378 1.981l-9.688.991.203 1.99 9.689-.991-.204-1.99zm-19.377 1.982l-9.689.991.204 1.99 9.688-.991-.203-1.99zm-19.378 1.982l-9.688.991.203 1.989 9.689-.991-.204-1.989zm-19.377 1.982l-9.689.99.204 1.99 9.688-.991-.203-1.989zm-19.378 1.981l-9.688.991.203 1.99 9.689-.991-.204-1.99zm-19.377 1.982l-4.844.496.203 1.989 4.845-.495-.204-1.99zm-4.946-.499a1.39 1.39 0 01-.54-.05l-1.148 3.831a5.367 5.367 0 002.095.198l-.407-3.979zm-1.366-.723a1.384 1.384 0 01-.158-.518l-3.979.407a5.38 5.38 0 00.618 2.011l3.52-1.9zm-.158-.518l-.474-4.637-3.98.407.475 4.637 3.98-.407zm-1.422-13.911l-.949-9.274-3.98.407.95 9.274 3.979-.407zm-1.897-18.547l-.949-9.274-3.979.407.949 9.274 3.979-.407zm-1.897-18.548l-.949-9.273-3.979.407.949 9.273 3.979-.407zm-1.897-18.547l-.948-9.274-3.98.407.949 9.274 3.979-.407zM.438 84.593l-.474-4.636-3.98.407L-3.54 85l3.98-.407zm-.474-4.636c-.02-.191 0-.373.05-.54l-3.832-1.148a5.38 5.38 0 00-.197 2.094l3.979-.406zm.723-1.366a1.38 1.38 0 01.518-.158l-.407-3.98a5.38 5.38 0 00-2.011.618l1.9 3.52zm.518-.158l4.844-.496-.407-3.979-4.844.496.407 3.979zm14.533-1.487l9.689-.99-.407-3.98-9.689.991.407 3.98zm19.377-1.981l9.69-.991-.408-3.98-9.688.992.406 3.979zm19.378-1.982l9.689-.99-.407-3.98-9.69.99.408 3.98zm19.377-1.982l9.69-.99-.408-3.98-9.689.991.407 3.98zm19.378-1.982l9.689-.99-.407-3.98-9.69.991.408 3.98zm19.377-1.981l9.689-.991-.407-3.98-9.689.992.407 3.979zm19.378-1.982l9.688-.99-.406-3.98-9.689.99.407 3.98zm19.377-1.982l9.689-.99-.407-3.98-9.689.991.407 3.98zm19.378-1.981l9.688-.991-.407-3.98-9.688.991.407 3.98zm19.377-1.982l9.689-.991-.407-3.98-9.689.992.407 3.979zm19.378-1.982l9.688-.99-.407-3.98-9.688.99.407 3.98zm19.377-1.982l9.689-.99-.407-3.98-9.689.991.407 3.98zm19.378-1.981l4.844-.496-.407-3.98-4.844.496.407 3.98zm4.844-.496c.191-.02.372 0 .539.05l1.148-3.831a5.378 5.378 0 00-2.094-.198l.407 3.98zm1.365.723c.083.154.139.327.159.518l3.979-.407a5.385 5.385 0 00-.618-2.011l-3.52 1.9zm.159.518l.474 4.637 3.979-.407-.474-4.637-3.979.407zm1.422 13.91l.949 9.274 3.979-.407-.949-9.273-3.979.407zm1.897 18.548l.949 9.274 3.979-.407-.949-9.274-3.979.407zm1.897 18.548l.948 9.273 3.98-.407-.949-9.273-3.979.407zm1.897 18.547l.948 9.274 3.979-.407-.948-9.274-3.979.407zm1.897 18.547l.474 4.637 3.979-.407-.474-4.637-3.979.407zm.474 4.637c.019.191 0 .372-.05.54l3.831 1.148a5.368 5.368 0 00.198-2.095l-3.979.407zm-.723 1.366a1.388 1.388 0 01-.518.158l.407 3.979a5.384 5.384 0 002.011-.617l-1.9-3.52zm-.518.158l-4.844.495.407 3.98 4.844-.496-.407-3.979zm-14.533 1.486l-9.689.991.407 3.979 9.689-.99-.407-3.98zm-19.378 1.982l-9.688.991.407 3.979 9.688-.991-.407-3.979zm-19.377 1.982l-9.689.991.407 3.979 9.689-.991-.407-3.979zm-19.378 1.982l-9.688.99.407 3.98 9.688-.991-.407-3.979zm-19.377 1.981l-9.689.991.407 3.979 9.689-.99-.407-3.98zm-19.377 1.982l-9.689.991.407 3.979 9.689-.991-.407-3.979zm-19.378 1.982l-9.689.991.407 3.979 9.689-.991-.407-3.979zm-19.377 1.982l-9.689.99.407 3.98 9.689-.991-.407-3.979zm-19.378 1.981l-9.689.991.407 3.979 9.69-.99-.408-3.98zm-19.377 1.982l-9.69.991.408 3.979 9.689-.991-.407-3.979zm-19.378 1.982l-9.688.991.406 3.979 9.69-.991-.408-3.979zm-19.377 1.982l-9.689.99.407 3.98 9.689-.991-.407-3.979zm-19.378 1.981l-4.844.496.407 3.979 4.844-.495-.407-3.98z" fill="#6AB0FF"/><path d="M6.978 67.592a3.39 3.39 0 013.393-3.387l253.22.202a3.39 3.39 0 013.387 3.392l-.074 93.221a3.39 3.39 0 01-3.392 3.387l-253.221-.202a3.389 3.389 0 01-3.387-3.392l.074-93.22z" fill="#fff"/><g filter="url(#filter2_d)"><mask id="path-9-inside-2" fill="#fff"><rect x="23.725" y="97.966" width="50.104" height="32.5" rx="1.625" transform="rotate(.046 23.725 97.966)"/></mask><rect x="23.725" y="97.966" width="50.104" height="32.5" rx="1.625" transform="rotate(.046 23.725 97.966)" fill="#fff"/><rect x="23.725" y="97.966" width="50.104" height="32.5" rx="1.625" transform="rotate(.046 23.725 97.966)" stroke="#333A4A" stroke-width="4" mask="url(#path-9-inside-2)"/></g><path d="M71.782 118.316l-6.646-6.396a1.372 1.372 0 00-1.894-.002l-9.778 9.443-4.408-4.271a1.372 1.372 0 00-1.895-.001l-12.627 11.354 37.24.03.008-10.157z" fill="#1ABF7E"/><circle cx="39.289" cy="109.488" transform="rotate(.046 39.289 109.488)" fill="#FA0" r="4.74"/><path d="M95.107 119.773l3.33.003 5.137-8.816h.18l-.181 1.53-.006 7.29 2.7.002.01-12.6-3.33-.003-5.137 8.816h-.18l.18-1.53.007-7.29-2.7-.002-.01 12.6zm12.531-2.96c.126.594.359 1.134.719 1.62.611.811 1.709 1.622 3.689 1.623 2.88.003 4.051-1.346 4.052-2.876.001-.936-.449-1.495-.898-1.837a2.577 2.577 0 00-.9-.415v-.09c.306-.072.576-.179.81-.341.414-.27.811-.756.811-1.548.002-1.35-1.257-2.611-3.867-2.613-1.872-.001-2.899.754-3.494 1.492a3.937 3.937 0 00-.739 1.475l2.52.002c.036-.18.126-.342.253-.486.216-.27.576-.503 1.278-.503 1.08.001 1.53.451 1.529.901 0 .63-.361.99-1.441.989l-1.08-.001-.001 1.8 1.17.001c1.17.001 1.53.362 1.529.992 0 .558-.451.989-1.531.988-.81 0-1.277-.289-1.547-.577a1.396 1.396 0 01-.342-.594l-2.52-.002zm9.282-1.613c-.002 2.7 2.139 4.862 5.037 4.864 2.862.003 5.041-2.156 5.043-4.856.003-2.7-2.174-4.861-5.036-4.864-2.898-.002-5.041 2.156-5.044 4.856zm2.61.002c.002-1.62 1.083-2.699 2.433-2.698 1.35.001 2.429 1.082 2.427 2.702-.001 1.62-1.082 2.699-2.432 2.698-1.35-.001-2.429-1.082-2.428-2.702zm8.397-.623c-.003 3.402 2.083 5.492 4.765 5.494 2.88.002 4.772-1.976 4.774-4.496.002-2.448-1.779-4.232-4.137-4.234-1.008 0-1.692.323-2.142.629-.271.197-.487.395-.649.629h-.09c.092-1.998 1.335-3.239 3.873-3.237l2.34.002.001-2.16-2.61-.002c-3.96-.003-6.121 2.335-6.125 7.375zm2.609.992c.001-1.368.884-2.249 2.162-2.248 1.278.001 2.159.884 2.158 2.252-.001 1.44-.884 2.339-2.162 2.338-1.278-.001-2.159-.902-2.158-2.342zm8.2 7.657l2.52.002.004-4.59h.09c.198.27.431.504.701.72.486.361 1.17.721 2.178.722 2.34.002 4.231-1.887 4.234-4.857.002-2.97-1.887-4.861-4.227-4.863a3.512 3.512 0 00-2.178.718c-.27.216-.505.45-.703.72h-.09l.001-1.17-2.52-.002-.01 12.6zm2.527-8.008c.001-1.728.974-2.7 2.342-2.698 1.278.001 2.249.973 2.248 2.701-.002 1.728-.975 2.7-2.253 2.699-1.368-.002-2.339-.974-2.337-2.702zm8.119.006c-.003 2.97 1.886 4.862 4.226 4.864a3.512 3.512 0 002.178-.719c.271-.216.505-.449.703-.719h.09l-.001 1.17 2.52.002.007-9.18-2.52-.002v1.17h-.09a3.798 3.798 0 00-.702-.721 3.51 3.51 0 00-2.177-.721c-2.34-.002-4.232 1.886-4.234 4.856zm2.61.002c.001-1.728.974-2.699 2.252-2.698 1.368.001 2.339.974 2.338 2.702-.002 1.728-.974 2.699-2.342 2.698-1.278-.001-2.25-.974-2.248-2.702zm7.845 4.596l2.88.003 2.163-3.599 1.26.001-.003 3.6 2.52.002.003-3.599 1.26.001 2.157 3.601 2.88.003-3.056-4.953 2.794-4.228-2.79-.002-2.253 3.418h-.99l.003-3.42-2.52-.003-.003 3.42h-.99l-2.247-3.422-2.79-.002 2.786 4.232-3.064 4.947zm14.973-4.578c-.002 2.7 2.138 4.862 4.946 4.864 1.98.002 3.151-.807 3.872-1.617a4.796 4.796 0 00.901-1.619l-2.7-.002a2.024 2.024 0 01-.433.54c-.342.269-.828.539-1.638.538-1.17-.001-2.141-.991-2.338-2.162l7.2.006v-.54c.002-2.682-1.976-4.861-4.856-4.864-2.808-.002-4.952 2.156-4.954 4.856zm2.701-.987c.271-.918 1.081-1.71 2.251-1.709 1.17.001 1.98.812 2.159 1.712l-4.41-.003zm8.468 5.586l2.52.002.003-3.6 3.87.003-.003 3.6 2.52.002.007-9.18-2.52-.002-.003 3.42-3.87-.003.003-3.42-2.52-.002-.007 9.18zm10.737.009l2.7.002 3.695-5.577h.18l-.091 1.62-.004 3.96 2.52.002.008-9.18-2.7-.002-3.695 5.577h-.18l.092-1.62.003-3.96-2.52-.002-.008 9.18zm10.29-4.582c-.002 2.7 2.138 4.862 4.946 4.864 1.98.002 3.151-.807 3.871-1.617a4.771 4.771 0 00.901-1.619l-2.7-.002a2.035 2.035 0 01-.432.539c-.342.27-.828.54-1.638.539-1.17-.001-2.142-.992-2.339-2.162l7.2.006.001-.54c.002-2.682-1.976-4.862-4.856-4.864-2.808-.002-4.952 2.156-4.954 4.856zm2.701-.988c.27-.918 1.081-1.709 2.251-1.708 1.17.001 1.979.812 2.159 1.712l-4.41-.004zM10.369 66.205l253.221.202.003-4-253.22-.202-.004 4zm254.609 1.593l-.074 93.221 4 .003.074-93.221-4-.003zm-1.465 94.609l-253.22-.202-.004 4 253.221.202.003-4zM8.904 160.815l.074-93.221-4-.003-.074 93.22 4 .004zm1.388 1.39a1.389 1.389 0 01-1.388-1.39l-4-.004a5.39 5.39 0 005.385 5.394l.003-4zm254.612-1.186a1.39 1.39 0 01-1.391 1.388l-.003 4a5.39 5.39 0 005.394-5.385l-4-.003zm-1.314-94.612a1.39 1.39 0 011.388 1.39l4 .004a5.389 5.389 0 00-5.385-5.394l-.003 4zM10.372 62.205a5.39 5.39 0 00-5.394 5.386l4 .003c0-.768.623-1.39 1.39-1.389l.004-4z" fill="#333A4A"/></g><defs><filter id="filter0_d" x="-6.371" y="50.335" width="277.351" height="133.934" filterUnits="userSpaceOnUse" color-interpolation-filters="sRGB"><feFlood flood-opacity="0" result="BackgroundImageFix"/><feColorMatrix in="SourceAlpha" values="0 0 0 0 0 0 0 0 0 0 0 0 0 0 0 0 0 0 127 0" result="hardAlpha"/><feOffset dy="4"/><feGaussianBlur stdDeviation="2"/><feComposite in2="hardAlpha" operator="out"/><feColorMatrix values="0 0 0 0 0 0 0 0 0 0 0 0 0 0 0 0 0 0 0.25 0"/><feBlend in2="BackgroundImageFix" result="effect1_dropShadow"/><feBlend in="SourceGraphic" in2="effect1_dropShadow" result="shape"/></filter><filter id="filter1_d" x="29.685" y="102.338" width="56.401" height="40.679" filterUnits="userSpaceOnUse" color-interpolation-filters="sRGB"><feFlood flood-opacity="0" result="BackgroundImageFix"/><feColorMatrix in="SourceAlpha" values="0 0 0 0 0 0 0 0 0 0 0 0 0 0 0 0 0 0 127 0" result="hardAlpha"/><feOffset dx="3.25" dy="3.25"/><feColorMatrix values="0 0 0 0 0.2 0 0 0 0 0.227451 0 0 0 0 0.290196 0 0 0 1 0"/><feBlend in2="BackgroundImageFix" result="effect1_dropShadow"/><feBlend in="SourceGraphic" in2="effect1_dropShadow" result="shape"/></filter><filter id="filter2_d" x="23.699" y="97.966" width="53.38" height="35.79" filterUnits="userSpaceOnUse" color-interpolation-filters="sRGB"><feFlood flood-opacity="0" result="BackgroundImageFix"/><feColorMatrix in="SourceAlpha" values="0 0 0 0 0 0 0 0 0 0 0 0 0 0 0 0 0 0 127 0" result="hardAlpha"/><feOffset dx="3.25" dy="3.25"/><feColorMatrix values="0 0 0 0 0.2 0 0 0 0 0.227451 0 0 0 0 0.290196 0 0 0 1 0"/><feBlend in2="BackgroundImageFix" result="effect1_dropShadow"/><feBlend in="SourceGraphic" in2="effect1_dropShadow" result="shape"/></filter></defs></svg>