<svg version="1.1" id="Слой_1" xmlns="http://www.w3.org/2000/svg" xmlns:xlink="http://www.w3.org/1999/xlink" x="0" y="0" viewBox="0 0 260 202" xml:space="preserve" enable-background="new 0 0 260 202"><style>.st0{fill:#fff}.st3{fill:#1abf7e}.st4{fill:#fa0}.st5{fill:#333a4a}.st12{fill:#262b37}</style><path class="st0" d="M10.9 64c0-1.4 1-2.5 2.4-2.6L199 55.3c1.4 0 2.5 1 2.6 2.4l2.3 68.4c0 1.4-1 2.5-2.4 2.6l-185.7 6.2c-1.4 0-2.5-1-2.6-2.4L10.9 64z"/><path class="st0" d="M44.3 86.5l34.2-1.1c.7 0 1.2.5 1.2 1.2l.7 21.4c0 .7-.5 1.2-1.2 1.2L45 110.3c-.7 0-1.2-.5-1.2-1.2l-.7-21.4c0-.6.5-1.2 1.2-1.2z"/><defs><filter id="Adobe_OpacityMaskFilter" filterUnits="userSpaceOnUse" x="41.7" y="83.9" width="40.2" height="27.8"><feColorMatrix values="1 0 0 0 0 0 1 0 0 0 0 0 1 0 0 0 0 0 1 0"/></filter></defs><mask maskUnits="userSpaceOnUse" x="41.7" y="83.9" width="40.2" height="27.8" id="path-3-inside-1_1_"><path d="M44.3 86.5l34.2-1.1c.7 0 1.2.5 1.2 1.2l.7 21.4c0 .7-.5 1.2-1.2 1.2L45 110.3c-.7 0-1.2-.5-1.2-1.2l-.7-21.4c0-.6.5-1.2 1.2-1.2z" fill="#fff" filter="url(#Adobe_OpacityMaskFilter)"/></mask><path d="M44.3 86.5l34.2-1.1c.7 0 1.2.5 1.2 1.2l.7 21.4c0 .7-.5 1.2-1.2 1.2L45 110.3c-.7 0-1.2-.5-1.2-1.2l-.7-21.4c0-.6.5-1.2 1.2-1.2z" mask="url(#path-3-inside-1_1_)" fill="none" stroke="#333a4a" stroke-width="2.936"/><path class="st3" d="M78.7 100.2l-5-4.5c-.4-.4-1-.3-1.4 0l-6.9 7.1-3.3-3c-.4-.4-1-.3-1.4 0l-8.9 8.6 27.2-.9-.3-7.3z"/><circle transform="rotate(-3.784 54.755 94.595) scale(.99998)" class="st4" cx="54.8" cy="94.6" r="3.5"/><path class="st5" d="M95.8 101.2l2.4-.1 3.5-6.6h.1l-.1 1.1.2 5.3 2-.1-.3-9.2-2.4.1-3.5 6.6h-.1l.1-1.1-.2-5.3-2 .1.3 9.2zm9.1-2.5c.1.4.3.8.6 1.2.5.6 1.3 1.1 2.7 1.1 2.1-.1 2.9-1.1 2.9-2.2 0-.7-.4-1.1-.7-1.3-.2-.1-.4-.2-.7-.3v-.1c.2-.1.4-.1.6-.3.3-.2.6-.6.6-1.2 0-1-1-1.9-2.9-1.8-1.4 0-2.1.6-2.5 1.2-.2.3-.4.7-.5 1.1l1.8-.1c0-.1.1-.3.2-.4.2-.2.4-.4.9-.4.8 0 1.1.3 1.1.6 0 .5-.2.7-1 .8h-.8v1.3h.9c.9 0 1.1.2 1.1.7 0 .4-.3.7-1.1.8-.6 0-.9-.2-1.1-.4-.1-.1-.2-.3-.3-.4l-1.8.1zm6.7-1.4c.1 2 1.7 3.5 3.8 3.4 2.1-.1 3.6-1.7 3.6-3.7-.1-2-1.7-3.5-3.8-3.4-2.1.1-3.7 1.7-3.6 3.7zm1.9-.1c0-1.2.7-2 1.7-2s1.8.7 1.8 1.9-.7 2-1.7 2c-.9.1-1.7-.7-1.8-1.9zm6.1-.6c.1 2.5 1.7 4 3.6 3.9 2.1-.1 3.4-1.6 3.4-3.4-.1-1.8-1.4-3-3.1-3-.7 0-1.2.3-1.5.5l-.5.5h-.1c0-1.5.9-2.4 2.7-2.5l1.7-.1-.1-1.6-1.9.1c-2.8.1-4.3 1.9-4.2 5.6zm2 .6c0-1 .6-1.7 1.5-1.7s1.6.6 1.6 1.6c0 1.1-.6 1.7-1.5 1.8-.9 0-1.6-.6-1.6-1.7zm6.1 5.4l1.8-.1-.1-3.4h.1c.2.2.3.4.5.5.4.3.9.5 1.6.5 1.7-.1 3-1.5 3-3.7-.1-2.2-1.5-3.5-3.2-3.4-.7 0-1.2.3-1.6.6-.2.2-.4.3-.5.5h-.1v-.9l-1.8.1.3 9.3zm1.7-5.9c0-1.3.6-2 1.6-2 .9 0 1.7.7 1.7 1.9 0 1.3-.6 2-1.6 2-.9.1-1.7-.6-1.7-1.9zm5.9-.2c.1 2.2 1.5 3.5 3.2 3.4.7 0 1.2-.3 1.6-.6.2-.2.4-.3.5-.5h.1v.9l1.8-.1-.2-6.7-1.8.1v.9h-.1c-.2-.2-.3-.4-.5-.5-.4-.3-.9-.5-1.6-.5-1.7 0-3.1 1.5-3 3.6zm1.9 0c0-1.3.6-2 1.6-2s1.7.7 1.8 1.9c0 1.3-.6 2-1.6 2s-1.7-.7-1.8-1.9zm5.9 3.1l2.1-.1 1.5-2.7h.9l.1 2.6 1.8-.1-.1-2.6h.9l1.7 2.6 2.1-.1-2.4-3.5 1.9-3.2-2 .1-1.6 2.6h-.7l-.1-2.5-1.8.1.1 2.5h-.7l-1.7-2.4-2 .1 2.1 3-2.1 3.6zm10.8-3.7c.1 2 1.7 3.5 3.7 3.4 1.4 0 2.3-.7 2.8-1.3.3-.4.5-.8.6-1.2l-2 .1c-.1.1-.2.3-.3.4-.2.2-.6.4-1.2.4-.9 0-1.6-.7-1.8-1.5l5.3-.2v-.4c-.1-2-1.6-3.5-3.7-3.4-2 .1-3.5 1.7-3.4 3.7zm1.9-.8c.2-.7.7-1.3 1.6-1.3.9 0 1.5.5 1.6 1.2l-3.2.1zm6.4 3.9l1.8-.1-.1-2.6 2.8-.1.1 2.6 1.8-.1-.2-6.7-1.8.1.1 2.5-2.8.1-.1-2.5-1.8.1.2 6.7zm7.8-.3l2-.1 2.6-4.2h.1v1.2l.1 2.9 1.8-.1-.2-6.7-2 .1-2.6 4.2h-.1v-1.2l-.1-2.9-1.8.1.2 6.7zm7.4-3.6c.1 2 1.7 3.5 3.7 3.4 1.4 0 2.3-.7 2.8-1.3.3-.4.5-.8.6-1.2l-2 .1c-.1.1-.2.3-.3.4-.2.2-.6.4-1.2.4-.9 0-1.6-.7-1.8-1.5l5.3-.2v-.4c-.1-2-1.6-3.5-3.7-3.4-1.9.1-3.5 1.8-3.4 3.7zm2-.8c.2-.7.7-1.3 1.6-1.3.9 0 1.5.5 1.6 1.2l-3.2.1z"/><path d="M24.5 134c-.1-.2-.1-.4-.2-.7h-1.5c0 .4.1.8.3 1.2l1.4-.5zm-.2-.7l-.1-3.4h-1.5l.1 3.4h1.5zM24 123l-.2-6.8h-1.5l.2 6.8H24zm-.4-13.6l-.2-6.8h-1.5l.2 6.8h1.5zm-.5-13.7l-.2-6.8h-1.5l.2 6.8h1.5zM22.6 82l-.2-6.8h-1.5l.2 6.8h1.5zm-.4-13.7l-.1-3.4h-1.5l.1 3.4h1.5zm-.1-3.4c0-.2 0-.5.1-.7l-1.4-.5c-.1.4-.2.8-.2 1.2h1.5zm1-1.6c.2-.1.4-.1.7-.2v-1.5c-.4 0-.8.1-1.2.3l.5 1.4zm.7-.2l3.6-.1v-1.5l-3.6.1v1.5zm10.7-.3l7.1-.2v-1.5l-7.1.2v1.5zm14.3-.5l7.1-.2v-1.5l-7.1.2v1.5zm14.3-.5l7.1-.2v-1.5l-7.2.2.1 1.5zm14.2-.5l7.1-.2v-1.5l-7.1.2v1.5zm14.3-.4l7.1-.2v-1.5l-7.1.2v1.5zm14.3-.5l7.1-.2v-1.5l-7.1.2v1.5zm14.3-.5l7.1-.2v-1.5l-7.1.2v1.5zm14.3-.5l7.1-.2v-1.5l-7.1.2v1.5zm14.3-.4l7.1-.2v-1.5l-7.1.2V59zm14.3-.5l7.1-.2v-1.5l-7.2.2.1 1.5zm14.3-.5l7.1-.2v-1.5l-7.1.2V58zm14.3-.5l7.1-.2v-1.5l-7.1.2v1.5zm14.2-.4l3.6-.1v-1.5l-3.6.1v1.5zm3.6-.1c.2 0 .5 0 .7.1l.5-1.4c-.4-.1-.8-.2-1.2-.2V57zm1.7 1c.1.2.1.4.2.7h1.5c0-.4-.1-.8-.3-1.2l-1.4.5zm.1.6l.1 3.4h1.5l-.1-3.4h-1.5zm.4 10.3l.2 6.8h1.5l-.2-6.8h-1.5zm.4 13.7l.2 6.8h1.5l-.2-6.8h-1.5zm.5 13.7l.2 6.8h1.5l-.2-6.8h-1.5zm.4 13.6l.2 6.8h1.5l-.2-6.8H213zm.5 13.7l.1 3.4h1.5l-.1-3.4h-1.5zm.1 3.4c0 .2 0 .5-.1.7l1.4.5c.1-.4.2-.8.2-1.2h-1.5zm-1 1.7c-.2.1-.4.1-.7.2v1.5c.4 0 .8-.1 1.2-.3l-.5-1.4zm-.7.1l-3.6.1v1.5l3.6-.1v-1.5zm-10.7.4l-7.1.2v1.5l7.1-.2v-1.5zm-14.3.5l-7.1.2v1.5l7.1-.2v-1.5zm-14.3.4l-7.1.2v1.5l7.1-.2v-1.5zm-14.3.5l-7.1.2v1.5l7.1-.2v-1.5zm-14.3.5l-7.1.2v1.5l7.1-.2v-1.5zm-14.3.5l-7.1.2v1.5l7.1-.2v-1.5zm-14.2.4l-7.1.2v1.5l7.1-.2V132zm-14.3.5l-7.1.2v1.5l7.1-.2v-1.5zm-14.3.5l-7.1.2v1.5l7.1-.2V133zm-14.3.5l-7.1.2v1.5l7.1-.2v-1.5zm-14.3.4l-7.1.2v1.5l7.1-.2v-1.5zm-14.3.5l-7.1.2v1.5l7.1-.2v-1.5zm-14.3.5l-3.6.1v1.5l3.6-.1v-1.5zm-5-11.9l-.2-6.8-2.9.1.2 6.8 2.9-.1zm-.4-13.7l-.2-6.8-2.9.1.2 6.8 2.9-.1zm-.5-45.5l3.6-.1-.1-2.9-3.6.1.1 2.9zm10.7-.3l7.1-.2-.1-2.9-7.1.2.1 2.9zm14.3-.5l7.1-.2-.1-2.9-7.1.2.1 2.9zm14.3-.5l7.1-.2-.1-2.9-7.1.2.1 2.9zm14.3-.4l7.1-.2-.1-2.9-7.1.2.1 2.9zm14.3-.5l7.1-.2-.1-2.9-7.1.2.1 2.9zm14.2-.5l7.1-.2V58l-7.1.2v2.9zm14.3-.5l7.1-.2-.1-2.9-7.1.2.1 2.9zm90.7 8.3l.2 6.8 2.9-.1-.2-6.8-2.9.1zm.5 13.7l.2 6.8 2.9-.1-.2-6.8-2.9.1zm.4 13.7l.2 6.8 2.9-.1-.2-6.8-2.9.1zm.5 13.7l.2 6.8 2.9-.1-.2-6.8-2.9.1zm.4 13.6l.1 3.4 2.9-.1-.1-3.4-2.9.1zm.2 3.5c0 .1 0 .3-.1.4l2.7 1c.2-.5.3-1 .2-1.5l-2.8.1zm-.6.9c-.1.1-.2.1-.4.1l.1 2.9c.5 0 1-.1 1.5-.3l-1.2-2.7zm-.4.1l-3.6.1.1 2.9 3.6-.1-.1-2.9zm-10.7.4l-7.1.2.1 2.9 7.1-.2-.1-2.9zm-14.3.4l-7.1.2.1 2.9 7.1-.2-.1-2.9zm-14.3.5l-7.1.2.1 2.9 7.1-.2-.1-2.9zm-14.3.5l-7.1.2.1 2.9 7.1-.2-.1-2.9zm-14.3.5l-7.1.2.1 2.9 7.1-.2-.1-2.9z" fill="#6ab0ff"/><path class="st0" d="M25.4 53.9c.1-1.4 1.3-2.4 2.6-2.3l185.4 12.9c1.4.1 2.4 1.3 2.3 2.6l-4.8 68.3c-.1 1.4-1.3 2.4-2.6 2.3L22.9 124.8c-1.4-.1-2.4-1.3-2.3-2.7l4.8-68.2z"/><path class="st0" d="M46 77.7L80.3 80c.7 0 1.2.6 1.1 1.3l-1.5 21.4c0 .7-.6 1.2-1.3 1.1l-34.2-2.4c-.7 0-1.2-.6-1.1-1.3l1.5-21.4c0-.6.6-1.1 1.2-1z"/><defs><filter id="Adobe_OpacityMaskFilter_1_" filterUnits="userSpaceOnUse" x="41.8" y="76.2" width="41" height="29.1"><feColorMatrix values="1 0 0 0 0 0 1 0 0 0 0 0 1 0 0 0 0 0 1 0"/></filter></defs><mask maskUnits="userSpaceOnUse" x="41.8" y="76.2" width="41" height="29.1" id="path-9-inside-2_1_"><path d="M46 77.7L80.3 80c.7 0 1.2.6 1.1 1.3l-1.5 21.4c0 .7-.6 1.2-1.3 1.1l-34.2-2.4c-.7 0-1.2-.6-1.1-1.3l1.5-21.4c0-.6.6-1.1 1.2-1z" fill="#fff" filter="url(#Adobe_OpacityMaskFilter_1_)"/></mask><path d="M46 77.7L80.3 80c.7 0 1.2.6 1.1 1.3l-1.5 21.4c0 .7-.6 1.2-1.3 1.1l-34.2-2.4c-.7 0-1.2-.6-1.1-1.3l1.5-21.4c0-.6.6-1.1 1.2-1z" mask="url(#path-9-inside-2_1_)" fill="none" stroke="#333a4a" stroke-width="2.936"/><path class="st3" d="M78.9 94.9l-4.5-5c-.4-.4-1-.4-1.4-.1l-7.6 6.4-3-3.3c-.4-.4-1-.4-1.4-.1l-9.8 7.7 27.2 1.9.5-7.5z"/><circle transform="rotate(-82.161 55.642 86.771)" class="st4" cx="55.6" cy="86.8" r="3.5"/><path class="st5" d="M95.9 97.6l2.4.2 4.2-6.2h.1l-.2 1.1-.4 5.3 2 .1.6-9.2-2.4-.2-4.2 6.2h-.1l.2-1.1.4-5.3-2-.1-.6 9.2zm9.3-1.6c.1.4.2.8.4 1.2.4.6 1.2 1.3 2.6 1.4 2.1.1 3-.8 3.1-1.9 0-.7-.3-1.1-.6-1.4-.2-.2-.4-.3-.6-.3v-.1c.2 0 .4-.1.6-.2.3-.2.6-.5.7-1.1.1-1-.8-2-2.7-2.1-1.4-.1-2.2.4-2.6.9-.3.3-.5.6-.6 1l1.8.1c0-.1.1-.2.2-.3.2-.2.4-.3 1-.3.8.1 1.1.4 1.1.7 0 .5-.3.7-1.1.7l-.8-.1-.1 1.3.9.1c.9.1 1.1.3 1.1.8 0 .4-.4.7-1.2.6-.6 0-.9-.3-1.1-.5-.1-.1-.2-.3-.2-.5h-1.9zm6.8-.7c-.1 2 1.3 3.7 3.4 3.8 2.1.1 3.8-1.3 3.9-3.3.1-2-1.3-3.7-3.4-3.8-2-.1-3.7 1.3-3.9 3.3zm2 .2c.1-1.2.9-1.9 1.9-1.8 1 .1 1.7.9 1.6 2.1-.1 1.2-.9 1.9-1.9 1.8-1-.1-1.7-1-1.6-2.1zm6.1-.1c-.2 2.5 1.2 4.1 3.2 4.3 2.1.1 3.6-1.2 3.7-3 .1-1.8-1.1-3.2-2.8-3.3-.7-.1-1.3.2-1.6.4-.2.1-.4.3-.5.4h-.1c.2-1.5 1.1-2.3 3-2.2l1.7.1.1-1.6-1.9-.1c-2.8-.3-4.5 1.3-4.8 5zm1.9.9c.1-1 .8-1.6 1.7-1.5.9.1 1.5.8 1.5 1.8-.1 1.1-.8 1.7-1.7 1.6-1-.2-1.6-.9-1.5-1.9zm5.6 6l1.8.1.2-3.4h.1c.1.2.3.4.5.6.3.3.8.6 1.6.6 1.7.1 3.2-1.2 3.3-3.3.2-2.2-1.1-3.6-2.8-3.8-.7-.1-1.3.2-1.6.4-.2.1-.4.3-.5.5h-.1l.1-.9-1.8-.1-.8 9.3zm2.2-5.7c.1-1.3.8-1.9 1.8-1.9.9.1 1.6.8 1.5 2.1-.1 1.3-.8 1.9-1.8 1.9-.9-.1-1.6-.9-1.5-2.1zm6 .4c-.2 2.2 1.1 3.6 2.8 3.8.7.1 1.3-.2 1.6-.4.2-.1.4-.3.6-.5h.1l-.1.9 1.8.1.5-6.7-1.8-.1-.1.9h-.1c-.1-.2-.3-.4-.5-.6-.3-.3-.8-.6-1.6-.6-1.6-.3-3.1 1-3.2 3.2zm1.9.1c.1-1.3.8-1.9 1.8-1.9 1 .1 1.7.8 1.6 2.1-.1 1.3-.8 1.9-1.8 1.9-1.1-.1-1.7-.8-1.6-2.1zm5.5 3.8l2.1.1 1.8-2.5.9.1-.2 2.6 1.8.1.2-2.6.9.1 1.4 2.7 2.1.1-2-3.8 2.3-2.9-2-.1-1.8 2.4-.7-.1.2-2.5-1.8-.1-.2 2.5-.7-.1-1.5-2.6-2-.1 1.8 3.2-2.6 3.5zm11.1-2.6c-.1 2 1.3 3.7 3.4 3.8 1.4.1 2.3-.4 2.9-1 .3-.3.6-.7.7-1.1l-2-.1c-.1.1-.2.3-.3.4-.3.2-.6.4-1.2.3-.9-.1-1.5-.8-1.6-1.7l5.3.4v-.4c.1-2-1.2-3.7-3.3-3.8-2-.3-3.7 1.2-3.9 3.2zm2.1-.6c.2-.7.9-1.2 1.7-1.1s1.4.7 1.5 1.4l-3.2-.3zm5.9 4.5l1.8.1.2-2.6 2.8.2-.2 2.6 1.8.1.5-6.7-1.8-.1-.2 2.5-2.8-.2.2-2.5-1.8-.1-.5 6.7zm7.8.5l2 .1 3-3.9h.1l-.1 1.2-.2 2.9 1.8.1.5-6.7-2-.1-3 3.9h-.1l.1-1.2.2-2.9-1.8-.1-.5 6.7zm7.8-2.8c-.1 2 1.3 3.7 3.4 3.8 1.4.1 2.3-.4 2.9-1 .3-.3.6-.7.7-1.1l-2-.1c-.1.1-.2.3-.3.4-.3.2-.6.4-1.2.3-.9-.1-1.5-.8-1.6-1.7l5.3.4v-.4c.1-2-1.2-3.7-3.3-3.8-2.1-.2-3.8 1.2-3.9 3.2zm2-.6c.2-.7.9-1.2 1.7-1.1.9.1 1.4.7 1.5 1.4l-3.2-.3zM27.9 53l185.4 12.9.2-2.9L28.1 50.1l-.2 2.9zm186.4 14l-4.8 68.3 2.9.2 4.8-68.3-2.9-.2zm-5.9 69.2L23 123.3l-.2 2.9 185.4 12.9.2-2.9zm-186.3-14L26.8 54l-2.9-.2-4.7 68.2 2.9.2zm.9 1.1c-.6 0-1-.5-.9-1.1l-2.9-.2c-.2 2.2 1.5 4.1 3.7 4.2l.1-2.9zm186.5 12c0 .6-.5 1-1.1.9l-.2 2.9c2.2.2 4.1-1.5 4.2-3.7l-2.9-.1zm3.8-69.4c.6 0 1 .5.9 1.1l2.9.2c.2-2.2-1.5-4.1-3.7-4.2l-.1 2.9zM28.1 50.1c-2.2-.2-4.1 1.5-4.2 3.7l2.9.2c0-.6.5-1 1.1-.9l.2-3z"/><defs><path id="SVGID_1_" d="M173.4 99.8l57.3-13.9 7.5 64.5-57.2 13.8z"/></defs><clipPath id="SVGID_2_"><use xlink:href="#SVGID_1_" overflow="visible"/></clipPath><g clip-path="url(#SVGID_2_)"><path class="st0" d="M203.9 140.5l-4.5-.6-2.5-2.7-2.4-7.7 1.3-7.8 2.3-5.5 3.5-1.7 1.2-2 3.7-.1 3.1.9 3.1.9 3 .1 1.7 2.1.2 8.2 1.3 4.7-1.6 5.4-2.1 1.3-2.7 2.3-8.6 2.2z"/><path d="M196.1 126c-.3-2.7 1.4-5.4 3.8-5.9l1.2-.3-.4-3.1c-.1-.7.1-1.3.4-1.9-.5-.5-1.2-.7-1.9-.5-1.3.3-2.2 1.8-2.1 3.3l.4 3.1-1.2.3c-2.4.6-4.1 3.2-3.8 5.9 1 9.7 7.6 14.8 11.4 13.9l3.6-.9c-3.8.9-10.4-4.1-11.4-13.9z" fill="#e2e7ee"/><path d="M193 154.9c-1.3.3-2.5-.6-2.7-2.1-.2-1.5.8-2.9 2.1-3.3 1.3-.3 2.5.6 2.7 2.1.1 1.5-.8 3-2.1 3.3zm-.5-3.6c-.4.1-.7.6-.7 1.1.1.5.5.8.9.7s.7-.6.7-1.1c0-.5-.4-.8-.9-.7zm30-49.8l3.2-.8.2 1.8-3.2.8-.2-1.8zm-9.1 2.2l3.2-.8.2 1.8-3.2.8-.2-1.8zm4.8-7.6l1.6-.4.4 3.6-1.6.4-.4-3.6zm1.2 10.3l1.6-.4.4 3.6-1.6.4-.4-3.6z" fill="#a6afc0"/><path class="st12" d="M199.3 125.3l-2.4.6-.9-8.1c-.3-2.2 1.1-4.4 3.1-4.9s3.8.9 4.1 3.2l.7 6.3-2.4.6-.7-6.3c-.1-.7-.7-1.2-1.4-1.1-.7.2-1.1.9-1 1.6l.9 8.1z"/><path class="st12" d="M208.6 121.2l-2.4.6-.8-7.2c-.1-.7-.7-1.2-1.4-1.1-.7.2-1.1.9-1 1.6l-2.4.6c-.3-2.2 1.1-4.4 3.1-4.9s3.8.9 4.1 3.2l.8 7.2z"/><path class="st12" d="M213.4 120l-2.4.6-.6-5.4c-.1-.7-.7-1.2-1.4-1.1-.7.2-1.1.9-1 1.6l-2.4.6c-.3-2.2 1.1-4.4 3.1-4.9s3.8.9 4.1 3.2l.6 5.4z"/><path class="st12" d="M212.9 140l-8.8 2.1c-1.9.5-4.3-.3-6.4-2-3.5-2.8-5.8-7.5-6.3-13-.3-3.4 1.8-6.8 4.8-7.6l1.2-.3.3 2.7-1.2.3c-1.8.4-3 2.3-2.8 4.3.7 6.7 4 10.1 5.4 11.2 1.6 1.3 3.3 1.9 4.6 1.6l8.8-2.1c2.9-.7 4.9-3.9 4.5-7.1l-1.7-14.3c-.1-.7-.7-1.2-1.3-1.1-.7.2-1.1.9-1 1.6l-2.4.6c-.3-2.2 1.1-4.4 3.1-4.9s3.8.9 4.1 3.2l1.7 14.3c.5 4.8-2.5 9.5-6.6 10.5z"/></g></svg>