<svg width="629" height="339" viewBox="0 0 629 339" fill="none" xmlns="http://www.w3.org/2000/svg"><path d="M.5 209.5V187H6l10.5-39h27L54 187h5.5v22.5h-13V199h-33v10.5H.5zM20 187h20l-7.5-27h-5L20 187zm39.96 12l13.5-51h27.001l13.5 51h-14l-10.5-39h-5l-10.5 39h-14zm57.005 0l10.5-18.5a16.303 16.303 0 01-4.5-3.2c-3-3-4.5-6.933-4.5-11.8 0-5.133 1.8-9.333 5.4-12.6 3.667-3.267 8.7-4.9 15.1-4.9h25.5v51h-14v-15.5h-10l-8 15.5h-15.5zm16-33.5c0 2.067.633 3.667 1.9 4.8s3.1 1.7 5.5 1.7h10.1v-12h-10.1c-2.333 0-4.167.533-5.5 1.6-1.267 1-1.9 2.3-1.9 3.9zm75.484 27.2c-5.333-5.267-8-11.667-8-19.2 0-7.533 2.667-13.9 8-19.1 5.334-5.267 12-7.9 20-7.9 7.934 0 14.567 2.633 19.9 7.9 5.4 5.2 8.1 11.567 8.1 19.1 0 7.533-2.7 13.933-8.1 19.2-5.333 5.2-11.966 7.8-19.9 7.8-8 0-14.666-2.6-20-7.8zm10.4-30c-2.6 2.8-3.9 6.4-3.9 10.8s1.3 8 3.9 10.8c2.6 2.8 5.8 4.2 9.6 4.2s7-1.4 9.6-4.2c2.6-2.8 3.9-6.4 3.9-10.8s-1.3-8-3.9-10.8c-2.6-2.8-5.8-4.2-9.6-4.2s-7 1.4-9.6 4.2zm45.635 36.3v-51h14v19h21.5v-19h14v51h-14v-20h-21.5v20h-14zm55.047 0l13.5-51h27l13.5 51h-14l-10.5-39h-5l-10.5 39h-14zm63.704-5.9c-4.467-5-6.7-11.533-6.7-19.6 0-8.067 2.233-14.567 6.7-19.5 4.533-5 10.133-7.5 16.8-7.5 4.467 0 8.5 1.333 12.1 4 1.533 1.267 2.833 2.6 3.9 4h.5V148h14v51h-14v-6.5h-.5c-1.067 1.4-2.367 2.733-3.9 4-3.6 2.667-7.633 4-12.1 4-6.667 0-12.267-2.467-16.8-7.4zm11.3-30.6c-2.333 2.667-3.5 6.333-3.5 11s1.167 8.333 3.5 11 5.333 4 9 4c3.867 0 7-1.3 9.4-3.9 2.4-2.667 3.6-6.367 3.6-11.1s-1.2-8.4-3.6-11c-2.4-2.667-5.533-4-9.4-4-3.667 0-6.667 1.333-9 4zm47 36.5v-51h14v22l-.5 9h1l20.5-31h15v51h-14v-22l.5-9h-1l-20.5 31h-15zm9-71.5h9.5c0 3.333 2.167 5 6.5 5s6.5-1.667 6.5-5h9.5c0 4.133-1.4 7.433-4.2 9.9-2.733 2.4-6.667 3.6-11.8 3.6-5.133 0-9.1-1.2-11.9-3.6-2.733-2.467-4.1-5.767-4.1-9.9zM502.57 199v-51h14v19h21.5v-19h14v51h-14v-20h-21.5v20h-14zm60.547-21v-12h37.5v12h-37.5zM10.5 302.7c-5.333-5.267-8-11.667-8-19.2 0-7.533 2.667-13.9 8-19.1 5.333-5.267 12-7.9 20-7.9 7.933 0 14.567 2.633 19.9 7.9 5.4 5.2 8.1 11.567 8.1 19.1 0 7.533-2.7 13.933-8.1 19.2-5.333 5.2-11.967 7.8-19.9 7.8-8 0-14.667-2.6-20-7.8zm10.4-30c-2.6 2.8-3.9 6.4-3.9 10.8s1.3 8 3.9 10.8c2.6 2.8 5.8 4.2 9.6 4.2s7-1.4 9.6-4.2c2.6-2.8 3.9-6.4 3.9-10.8s-1.3-8-3.9-10.8c-2.6-2.8-5.8-4.2-9.6-4.2s-7 1.4-9.6 4.2zm43.635 7.3c0-27.333 11.334-41 34-41h14.5v12h-13c-6.867 0-12.1 1.6-15.7 4.8-3.6 3.133-5.533 7.533-5.8 13.2h.5c.8-1.133 2-2.3 3.6-3.5 3.4-2.333 7.367-3.5 11.9-3.5 6.6 0 12.067 2.233 16.4 6.7 4.4 4.4 6.6 10 6.6 16.8 0 7.133-2.467 13.1-7.4 17.9-4.867 4.733-11.233 7.1-19.1 7.1-7.666 0-14-2.767-19-8.3-5-5.533-7.5-12.933-7.5-22.2zm14.5 5.5c0 3.933 1.1 7.1 3.3 9.5 2.2 2.333 5.1 3.5 8.7 3.5 3.6 0 6.5-1.167 8.7-3.5 2.2-2.4 3.3-5.567 3.3-9.5 0-3.8-1.1-6.833-3.3-9.1-2.2-2.267-5.1-3.4-8.7-3.4-3.6 0-6.5 1.133-8.7 3.4-2.2 2.267-3.3 5.3-3.3 9.1zm40.52-27.5h14.5l10 39h4l11-39h14.5l-20.5 70h-14.5l5.5-19h-11l-13.5-51zm57.98 19v-19h14v18c0 5.333 2.833 8 8.5 8a22.68 22.68 0 007.9-1.4c1-.4 1.867-.867 2.6-1.4V258h14v51h-14v-16.5c-.933.733-2.033 1.333-3.3 1.8-2.867 1.133-6.1 1.7-9.7 1.7-6.2 0-11.1-1.7-14.7-5.1-3.533-3.4-5.3-8.033-5.3-13.9zm62.943 25.7c-5.267-5.267-7.9-11.667-7.9-19.2 0-7.533 2.633-13.9 7.9-19.1 5.333-5.267 11.867-7.9 19.6-7.9 7.867 0 14.333 2.6 19.4 7.8 5.067 5.2 7.6 11.6 7.6 19.2v3h-40c.533 3.333 2.033 6.167 4.5 8.5s5.3 3.5 8.5 3.5c3.533 0 6.567-1 9.1-3 1-.867 1.8-1.867 2.4-3h15c-1.133 3.4-2.8 6.4-5 9-5.333 6-12.5 9-21.5 9-7.733 0-14.267-2.6-19.6-7.8zm7.1-24.7h24.5c-.533-2.667-1.9-4.9-4.1-6.7-2.133-1.867-4.767-2.8-7.9-2.8s-5.8.9-8 2.7c-2.2 1.8-3.7 4.067-4.5 6.8zm47.961 31v-51h14v19h21.5v-19h14v51h-14v-20h-21.5v20h-14zm60.547 0v-51h14v22l-.5 9h1l20.5-31h15v51h-14v-22l.5-9h-1l-20.5 31h-15zm58.535 0l10.5-18.5a16.303 16.303 0 01-4.5-3.2c-3-3-4.5-6.933-4.5-11.8 0-5.133 1.8-9.333 5.4-12.6 3.667-3.267 8.7-4.9 15.1-4.9h25.5v51h-14v-15.5h-10l-8 15.5h-15.5zm16-33.5c0 2.067.633 3.667 1.9 4.8s3.1 1.7 5.5 1.7h10.1v-12h-10.1c-2.333 0-4.167.533-5.5 1.6-1.267 1-1.9 2.3-1.9 3.9z" fill="#262B37"/><path d="M10.5 86h-1v1h1v-1zm0-70v-1h-1v1h1zm61 0h1v-1h-1v1zm0 70v1h1v-1h-1zm-15 0h-1v1h1v-1zm0-56h1v-1h-1v1zm-31 0v-1h-1v1h1zm0 56v1h1v-1h-1zm-14 0V16h-2v70h2zm-1-69h61v-2h-61v2zm60-1v70h2V16h-2zm1 69h-15v2h15v-2zm-14 1V30h-2v56h2zm-1-57h-31v2h31v-2zm-32 1v56h2V30h-2zm1 55h-15v2h15v-2zm52.523 1l-.966-.256L76.724 87h1.3v-1zm13.5-51v-1h-.77l-.196.744.966.256zm27 0l.967-.256-.197-.744h-.77v1zm13.5 51v1h1.3l-.333-1.256-.967.256zm-14 0l-.965.26.199.74h.766v-1zm-10.5-39l.966-.26-.199-.74h-.767v1zm-5 0v-1h-.766l-.199.74.965.26zm-10.5 39v1h.767l.2-.74-.967-.26zm-13.033.256l13.5-51-1.933-.512-13.5 51 1.933.512zM91.523 36h27v-2h-27v2zm26.034-.744l13.5 51 1.933-.512-13.5-51-1.933.512zM132.023 85h-14v2h14v-2zm-13.034.74l-10.5-39-1.931.52 10.5 39 1.931-.52zM107.523 46h-5v2h5v-2zm-5.965.74l-10.5 39 1.931.52 10.5-39-1.931-.52zM92.023 85h-14v2h14v-2zm49.704-4.9l-.745.666.009.01.736-.676zm0-39.1l-.74-.672h-.001l.741.672zm28.9-3.5l.637-.771-.02-.017-.021-.016-.596.804zm3.9 4l-.795.606.3.394h.495v-1zm.5 0v1h1v-1h-1zm0-6.5v-1h-1v1h1zm14 0h1v-1h-1v1zm0 51v1h1v-1h-1zm-14 0h-1v1h1v-1zm0-6.5h1v-1h-1v1zm-.5 0v-1h-.495l-.3.394.795.606zm-3.9 4l.596.804.021-.016.02-.017-.637-.771zm-17.6-34l.753.658-.753-.658zm0 22l.753-.659-.753.659zm18.4.1l.735.678.009-.009-.744-.669zm0-22.1l-.743.669.009.01.734-.679zm-28.954 29.934c-4.271-4.781-6.446-11.06-6.446-18.934h-2c0 8.26 2.292 15.047 6.955 20.266l1.491-1.332zM136.027 60.5c0-7.874 2.175-14.117 6.442-18.829l-1.483-1.342c-4.667 5.154-6.959 11.912-6.959 20.171h2zm6.441-18.828c4.347-4.794 9.679-7.172 16.059-7.172v-2c-6.952 0-12.82 2.622-17.54 7.828l1.481 1.344zm16.059-7.172c4.252 0 8.077 1.264 11.505 3.804l1.191-1.608c-3.772-2.793-8.014-4.196-12.696-4.196v2zm11.463 3.771c1.482 1.224 2.727 2.503 3.742 3.835l1.591-1.212c-1.119-1.468-2.474-2.856-4.059-4.165l-1.274 1.542zm4.537 4.229h.5v-2h-.5v2zm1.5-1V35h-2v6.5h2zm-1-5.5h14v-2h-14v2zm13-1v51h2V35h-2zm1 50h-14v2h14v-2zm-13 1v-6.5h-2V86h2zm-1-7.5h-.5v2h.5v-2zm-1.295.394c-1.015 1.332-2.26 2.61-3.742 3.835l1.274 1.542c1.585-1.31 2.94-2.697 4.059-4.165l-1.591-1.212zm-3.7 3.802c-3.428 2.54-7.253 3.804-11.505 3.804v2c4.682 0 8.924-1.403 12.696-4.196l-1.191-1.608zM158.527 86.5c-6.385 0-11.718-2.348-16.063-7.077l-1.473 1.354c4.722 5.138 10.588 7.723 17.536 7.723v-2zm-6.252-37.658c-2.538 2.9-3.748 6.827-3.748 11.658h2c0-4.503 1.124-7.908 3.253-10.342l-1.505-1.316zM148.527 60.5c0 4.83 1.21 8.758 3.748 11.659l1.505-1.318c-2.129-2.433-3.253-5.838-3.253-10.341h-2zm3.748 11.659c2.53 2.892 5.809 4.341 9.752 4.341v-2c-3.389 0-6.111-1.217-8.247-3.659l-1.505 1.318zm9.752 4.341c4.117 0 7.527-1.396 10.135-4.222l-1.469-1.356c-2.192 2.374-5.049 3.578-8.666 3.578v2zm10.144-4.231c2.612-2.903 3.856-6.87 3.856-11.769h-2c0 4.567-1.155 8-3.343 10.431l1.487 1.338zm3.856-11.769c0-4.898-1.244-8.839-3.865-11.678l-1.469 1.356c2.178 2.36 3.334 5.754 3.334 10.322h2zm-3.856-11.669c-2.606-2.895-6.018-4.331-10.144-4.331v2c3.608 0 6.463 1.23 8.657 3.669l1.487-1.338zM162.027 44.5c-3.943 0-7.222 1.45-9.752 4.342l1.505 1.316c2.136-2.44 4.858-3.658 8.247-3.658v-2zm33 2.5h-1v1h1v-1zm0-12v-1h-1v1h1zm48 0h1v-1h-1v1zm0 12v1h1v-1h-1zm-17 0v-1h-1v1h1zm0 39v1h1v-1h-1zm-14 0h-1v1h1v-1zm0-39h1v-1h-1v1zm-16 0V35h-2v12h2zm-1-11h48v-2h-48v2zm47-1v12h2V35h-2zm1 11h-17v2h17v-2zm-18 1v39h2V47h-2zm1 38h-14v2h14v-2zm-13 1V47h-2v39h2zm-1-40h-17v2h17v-2zm41.624 32.6l-.707.707.004.005.703-.712zm0-36.2l-.703-.712-.004.005.707.707zm18.9-8.4l.071.998.929-.067V34h-1zm0-18v-1h-1v1h1zm14 0h1v-1h-1v1zm0 18h-1v.931l.929.067.071-.998zm18.8 8.4l-.707.707.004.005.703-.712zm0 36.2l-.703-.712-.004.005.707.707zm-18.8 8.4l-.071-.998-.929.067V87h1zm0 17.8v1h1v-1h-1zm-14 0h-1v1h1v-1zm0-17.8h1v-.931l-.929-.067-.071.998zm14-41l.161-.987-1.161-.19V46h1zm0 29h-1v1.177l1.161-.19-.161-.987zm8.7-4.6l-.747-.666-.005.006-.005.006.757.654zm0-19.8l-.757.654.005.006.005.006.747-.666zm-31.5 0l-.747-.666-.005.006-.005.006.757.654zm0 19.8l-.757.654.005.006.005.006.747-.666zm8.8 4.6l-.162.987 1.162.19V75h-1zm0-29h1v-1.177l-1.162.19.162.987zm-18.193 31.893c-4.884-4.884-7.307-10.665-7.307-17.393h-2c0 7.272 2.643 13.558 7.893 18.807l1.414-1.414zM247.051 60.5c0-6.728 2.423-12.509 7.307-17.393l-1.414-1.414c-5.25 5.25-7.893 11.535-7.893 18.807h2zm7.302-17.388c4.957-4.893 11.03-7.598 18.269-8.114l-.142-1.995c-7.695.55-14.222 3.444-19.532 8.685l1.405 1.424zM273.551 34V16h-2v18h2zm-1-17h14v-2h-14v2zm13-1v18h2V16h-2zm.929 18.998c7.238.517 13.275 3.22 18.164 8.11l1.414-1.415c-5.245-5.245-11.741-8.14-19.436-8.69l-.142 1.995zm18.168 8.114c4.95 4.885 7.403 10.664 7.403 17.388h2c0-7.276-2.681-13.563-7.998-18.812l-1.405 1.424zm7.403 17.388c0 6.724-2.453 12.503-7.403 17.388l1.405 1.424c5.317-5.248 7.998-11.535 7.998-18.812h-2zm-7.407 17.393c-4.889 4.888-10.926 7.593-18.164 8.11l.142 1.995c7.695-.55 14.191-3.446 19.436-8.69l-1.414-1.415zM285.551 87v17.8h2V87h-2zm1 16.8h-14v2h14v-2zm-13 1V87h-2v17.8h2zm-.929-18.797c-7.239-.517-13.312-3.222-18.269-8.115l-1.405 1.424c5.31 5.24 11.837 8.136 19.532 8.686l.142-1.996zM285.551 46v29h2V46h-2zm1.161 29.987c3.864-.632 6.987-2.264 9.295-4.933l-1.513-1.308c-1.959 2.265-4.635 3.7-8.105 4.267l.323 1.974zm9.285-4.921c2.402-2.693 3.554-6.251 3.554-10.566h-2c0 3.952-1.048 6.994-3.047 9.234l1.493 1.332zm3.554-10.566c0-4.315-1.152-7.873-3.554-10.566l-1.493 1.332c1.999 2.24 3.047 5.282 3.047 9.234h2zm-3.544-10.554c-2.308-2.668-5.431-4.3-9.295-4.933l-.323 1.974c3.47.568 6.146 2.002 8.105 4.267l1.513-1.308zm-33.013 0c-2.329 2.693-3.443 6.247-3.443 10.554h2c0-3.96 1.018-7.005 2.956-9.246l-1.513-1.308zM259.551 60.5c0 4.308 1.114 7.861 3.443 10.554l1.513-1.308c-1.938-2.24-2.956-5.287-2.956-9.246h-2zm3.453 10.566c2.372 2.658 5.522 4.289 9.385 4.92l.323-1.973c-3.47-.568-6.186-2.004-8.215-4.279l-1.493 1.332zM273.551 75V46h-2v29h2zm-1.162-29.987c-3.863.632-7.013 2.263-9.385 4.921l1.493 1.332c2.029-2.275 4.745-3.711 8.215-4.28l-.323-1.973zM326.023 79.7l-.702.712.004.004.698-.716zm0-38.3l.699.716.004-.005-.703-.711zm39.9 0l-.702.712.009.008.693-.72zm0 38.3l.699.716-.699-.716zm-29.5-30l.733.68-.733-.68zm0 21.6l-.732.68.732-.68zm19.2 0l.733.68-.733-.68zm0-21.6l-.732.68.732-.68zm-28.897 29.288c-5.142-5.077-7.703-11.22-7.703-18.488h-2c0 7.8 2.773 14.456 8.298 19.912l1.405-1.424zM319.023 60.5c0-7.267 2.561-13.375 7.699-18.384l-1.397-1.432c-5.528 5.39-8.302 12.017-8.302 19.816h2zm7.703-18.389c5.133-5.068 11.541-7.611 19.297-7.611v-2c-8.243 0-15.168 2.724-20.702 8.188l1.405 1.423zm19.297-7.611c7.688 0 14.063 2.541 19.198 7.611l1.405-1.422c-5.532-5.464-12.423-8.189-20.603-8.189v2zm19.207 7.62c5.203 5.01 7.793 11.117 7.793 18.38h2c0-7.804-2.809-14.43-8.406-19.82l-1.387 1.44zm7.793 18.38c0 7.263-2.59 13.405-7.798 18.484l1.397 1.432c5.592-5.455 8.401-12.113 8.401-19.916h-2zm-7.798 18.484c-5.133 5.005-11.51 7.516-19.202 7.516v2c8.176 0 15.065-2.69 20.599-8.084l-1.397-1.432zM346.023 86.5c-7.76 0-14.17-2.512-19.301-7.516l-1.397 1.432c5.535 5.396 12.459 8.084 20.698 8.084v-2zm-10.332-37.48c-2.798 3.012-4.168 6.869-4.168 11.48h2c0-4.189 1.231-7.532 3.633-10.12l-1.465-1.36zm-4.168 11.48c0 4.611 1.37 8.468 4.168 11.48l1.465-1.36c-2.402-2.588-3.633-5.931-3.633-10.12h-2zm4.168 11.48c2.788 3.003 6.253 4.52 10.332 4.52v-2c-3.52 0-6.455-1.283-8.867-3.88l-1.465 1.36zm10.332 4.52c4.08 0 7.545-1.517 10.333-4.52l-1.465-1.36c-2.412 2.597-5.347 3.88-8.868 3.88v2zm10.333-4.52c2.798-3.013 4.167-6.869 4.167-11.48h-2c0 4.189-1.23 7.532-3.632 10.12l1.465 1.36zm4.167-11.48c0-4.611-1.369-8.468-4.167-11.48l-1.465 1.36c2.402 2.587 3.632 5.931 3.632 10.12h2zm-4.167-11.48c-2.788-3.003-6.253-4.52-10.333-4.52v2c3.521 0 6.456 1.283 8.868 3.88l1.465-1.36zm-10.333-4.52c-4.079 0-7.544 1.517-10.332 4.52l1.465 1.36c2.412-2.597 5.347-3.88 8.867-3.88v-2zm36.036 60.5h-1v1h1v-1zm0-70v-1h-1v1h1zm14 0h1v-1h-1v1zm0 6.5h-1v1h1v-1zm.5 0v1h.495l.3-.394-.795-.606zm3.9-4l-.596-.804-.021.016-.02.017.637.771zm28.8 3.5l-.746.666.009.01.737-.676zm0 39.1l-.741-.672h-.001l.742.672zm-28.8 3.4l-.637.771.02.017.021.016.596-.804zm-3.9-4l.795-.606-.3-.394h-.495v1zm-.5 0v-1h-1v1h1zm0 25.5v1h1v-1h-1zm3.6-55.5l.734.678.009-.009-.743-.669zm0 22.1l-.744.669.009.01.735-.679zm18.4-.1l-.753-.659.753.659zm0-22l-.753.658.753-.658zm-35 55.5V35h-2v70h2zm-1-69h14v-2h-14v2zm13-1v6.5h2V35h-2zm1 7.5h.5v-2h-.5v2zm1.295-.394c1.015-1.332 2.26-2.61 3.741-3.835l-1.273-1.542c-1.585 1.31-2.94 2.697-4.059 4.165l1.591 1.212zm3.7-3.802c3.428-2.54 7.253-3.804 11.505-3.804v-2c-4.682 0-8.924 1.403-12.696 4.196l1.191 1.608zm11.505-3.804c6.38 0 11.676 2.377 15.954 7.166l1.491-1.332c-4.655-5.211-10.492-7.834-17.445-7.834v2zm15.963 7.177c4.331 4.712 6.537 10.953 6.537 18.823h2c0-8.263-2.328-15.023-7.064-20.177l-1.473 1.354zm6.537 18.823c0 7.87-2.206 14.147-6.541 18.928l1.481 1.344c4.732-5.219 7.06-12.008 7.06-20.272h-2zm-6.542 18.929c-4.276 4.723-9.574 7.071-15.958 7.071v2c6.948 0 12.784-2.586 17.441-7.729l-1.483-1.342zM412.559 86.5c-4.252 0-8.077-1.264-11.505-3.804l-1.191 1.608c3.772 2.793 8.014 4.196 12.696 4.196v-2zm-11.464-3.771c-1.481-1.224-2.726-2.503-3.741-3.835l-1.591 1.212c1.119 1.468 2.474 2.856 4.059 4.165l1.273-1.542zm-4.536-4.229h-.5v2h.5v-2zm-1.5 1V105h2V79.5h-2zm1 24.5h-14v2h14v-2zm2.865-55.178c-2.622 2.84-3.865 6.78-3.865 11.678h2c0-4.569 1.156-7.962 3.334-10.322l-1.469-1.356zM395.059 60.5c0 4.9 1.244 8.867 3.856 11.769l1.487-1.338c-2.188-2.43-3.343-5.864-3.343-10.431h-2zm3.865 11.778c2.608 2.826 6.018 4.222 10.135 4.222v-2c-3.617 0-6.474-1.204-8.666-3.578l-1.469 1.356zm10.135 4.222c3.943 0 7.222-1.45 9.752-4.341l-1.505-1.318c-2.136 2.442-4.858 3.659-8.247 3.659v2zm9.752-4.341c2.538-2.9 3.748-6.828 3.748-11.659h-2c0 4.503-1.124 7.908-3.253 10.341l1.505 1.318zm3.748-11.659c0-4.83-1.21-8.758-3.748-11.658l-1.505 1.316c2.129 2.434 3.253 5.84 3.253 10.342h2zm-3.748-11.658c-2.53-2.893-5.809-4.342-9.752-4.342v2c3.389 0 6.111 1.217 8.247 3.658l1.505-1.316zm-9.752-4.342c-4.126 0-7.538 1.436-10.144 4.331l1.487 1.338c2.194-2.438 5.049-3.669 8.657-3.669v-2zm35.5 41.5h-1v1h1v-1zm0-51v-1h-1v1h1zm19 0l.916-.4-.262-.6h-.654v1zm12 27.5l-.917.4.262.6h.655v-1zm1.5 0v1h.654l.262-.6-.916-.4zm12-27.5v-1h-.655l-.262.6.917.4zm19 0h1v-1h-1v1zm0 51v1h1v-1h-1zm-14 0h-1v1h1v-1zm0-25.5l-.999-.056-.001.028v.028h1zm.5-9l.998.056.059-1.056h-1.057v1zm-.5 0v-1h-.653l-.263.597.916.403zm-11 25v1h.652l.263-.597-.915-.403zm-13.5 0l-.916.403.263.597h.653v-1zm-11-25l.915-.403-.263-.597h-.652v1zm-.5 0v-1h-1.058l.059 1.056.999-.056zm.5 9h1v-.028l-.002-.028-.998.056zm0 25.5v1h1v-1h-1zm-13 0V35h-2v51h2zm-1-50h19v-2h-19v2zm18.083-.6l12 27.5 1.833-.8-12-27.5-1.833.8zm12.917 28.1h1.5v-2h-1.5v2zm2.416-.6l12-27.5-1.833-.8-12 27.5 1.833.8zM489.059 36h19v-2h-19v2zm18-1v51h2V35h-2zm1 50h-14v2h14v-2zm-13 1V60.5h-2V86h2zm-.002-25.444l.5-9-1.997-.111-.5 9 1.997.11zm-.498-10.056h-.5v2h.5v-2zm-1.416.597l-11 25 1.831.806 11-25-1.831-.806zM483.059 75.5h-13.5v2h13.5v-2zm-12.585.597l-11-25-1.831.806 11 25 1.831-.806zM458.559 50.5h-.5v2h.5v-2zm-1.499 1.056l.5 9 1.997-.111-.5-9-1.997.11zm.499 8.944V86h2V60.5h-2zm1 24.5h-14v2h14v-2zm64.711-4.9l-.746.666.01.01.736-.676zm0-39.1l-.741-.672.741.672zm28.9-3.5l.637-.771-.02-.017-.021-.016-.596.804zm3.9 4l-.795.606.3.394h.495v-1zm.5 0v1h1v-1h-1zm0-6.5v-1h-1v1h1zm14 0h1v-1h-1v1zm0 51v1h1v-1h-1zm-14 0h-1v1h1v-1zm0-6.5h1v-1h-1v1zm-.5 0v-1h-.495l-.3.394.795.606zm-3.9 4l.596.804.021-.016.02-.017-.637-.771zm-17.6-34l.753.658-.753-.658zm0 22l.753-.659-.753.659zm18.4.1l.735.678.009-.009-.744-.669zm0-22.1l-.743.669.009.01.734-.679zm-28.954 29.934c-4.271-4.781-6.446-11.06-6.446-18.934h-2c0 8.26 2.292 15.047 6.955 20.266l1.491-1.332zM517.57 60.5c0-7.874 2.175-14.117 6.442-18.829l-1.483-1.342c-4.667 5.154-6.959 11.912-6.959 20.171h2zm6.441-18.828c4.347-4.794 9.679-7.172 16.059-7.172v-2c-6.953 0-12.82 2.622-17.541 7.828l1.482 1.344zM540.07 34.5c4.252 0 8.077 1.264 11.505 3.804l1.191-1.608c-3.772-2.793-8.014-4.196-12.696-4.196v2zm11.463 3.771c1.482 1.224 2.727 2.503 3.742 3.835l1.591-1.212c-1.119-1.468-2.474-2.856-4.059-4.165l-1.274 1.542zm4.537 4.229h.5v-2h-.5v2zm1.5-1V35h-2v6.5h2zm-1-5.5h14v-2h-14v2zm13-1v51h2V35h-2zm1 50h-14v2h14v-2zm-13 1v-6.5h-2V86h2zm-1-7.5h-.5v2h.5v-2zm-1.295.394c-1.015 1.332-2.26 2.61-3.742 3.835l1.274 1.542c1.585-1.31 2.94-2.697 4.059-4.165l-1.591-1.212zm-3.7 3.802c-3.428 2.54-7.253 3.804-11.505 3.804v2c4.682 0 8.924-1.403 12.696-4.196l-1.191-1.608zM540.07 86.5c-6.385 0-11.718-2.348-16.063-7.077l-1.473 1.354c4.722 5.138 10.588 7.723 17.536 7.723v-2zm-6.252-37.658c-2.538 2.9-3.748 6.827-3.748 11.658h2c0-4.503 1.124-7.908 3.253-10.342l-1.505-1.316zM530.07 60.5c0 4.83 1.21 8.758 3.748 11.659l1.505-1.318c-2.129-2.433-3.253-5.838-3.253-10.341h-2zm3.748 11.659c2.53 2.892 5.809 4.341 9.752 4.341v-2c-3.389 0-6.111-1.217-8.247-3.659l-1.505 1.318zm9.752 4.341c4.117 0 7.527-1.396 10.135-4.222l-1.469-1.356c-2.192 2.374-5.049 3.578-8.666 3.578v2zm10.144-4.231c2.612-2.903 3.856-6.87 3.856-11.769h-2c0 4.567-1.155 8-3.343 10.431l1.487 1.338zM557.57 60.5c0-4.898-1.244-8.839-3.865-11.678l-1.469 1.356c2.178 2.36 3.334 5.754 3.334 10.322h2zm-3.856-11.669c-2.606-2.895-6.018-4.331-10.144-4.331v2c3.608 0 6.463 1.23 8.657 3.669l1.487-1.338zM543.57 44.5c-3.943 0-7.222 1.45-9.752 4.342l1.505 1.316c2.136-2.44 4.858-3.658 8.247-3.658v-2zM4.5 206.5h-1v1h1v-1zm0-22.5v-1h-1v1h1zm5.5 0v1h.766l.2-.74L10 184zm10.5-39v-1h-.766l-.2.74.966.26zm27 0l.966-.26-.2-.74H47.5v1zM58 184l-.966.26.2.74H58v-1zm5.5 0h1v-1h-1v1zm0 22.5v1h1v-1h-1zm-13 0h-1v1h1v-1zm0-10.5h1v-1h-1v1zm-33 0v-1h-1v1h1zm0 10.5v1h1v-1h-1zM24 184l-.963-.268-.353 1.268H24v-1zm20 0v1h1.316l-.352-1.268L44 184zm-7.5-27l.964-.268-.204-.732h-.76v1zm-5 0v-1h-.76l-.203.732.963.268zm-26 49.5V184h-2v22.5h2zm-1-21.5H10v-2H4.5v2zm6.466-.74l10.5-39-1.932-.52-10.5 39 1.932.52zM20.5 146h27v-2h-27v2zm26.034-.74l10.5 39 1.932-.52-10.5-39-1.932.52zM58 185h5.5v-2H58v2zm4.5-1v22.5h2V184h-2zm1 21.5h-13v2h13v-2zm-12 1V196h-2v10.5h2zm-1-11.5h-33v2h33v-2zm-34 1v10.5h2V196h-2zm1 9.5h-13v2h13v-2zM24 185h20v-2H24v2zm20.964-1.268l-7.5-27-1.928.536 7.5 27 1.928-.536zM36.5 156h-5v2h5v-2zm-5.963.732l-7.5 27 1.927.536 7.5-27-1.927-.536zM63.96 196l-.967-.256-.332 1.256h1.299v-1zm13.5-51v-1h-.77l-.197.744.967.256zm27 0l.967-.256-.197-.744h-.77v1zm13.5 51v1h1.299l-.332-1.256-.967.256zm-14 0l-.966.26.2.74h.766v-1zm-10.5-39l.966-.26-.2-.74h-.766v1zm-5 0v-1h-.766l-.2.74.966.26zm-10.5 39v1h.766l.2-.74-.966-.26zm-13.033.256l13.5-51-1.934-.512-13.5 51 1.934.512zM77.46 146h27v-2h-27v2zm26.033-.744l13.5 51 1.934-.512-13.5-51-1.934.512zM117.961 195h-14v2h14v-2zm-13.034.74l-10.5-39-1.932.52 10.5 39 1.932-.52zM93.461 156h-5v2h5v-2zm-5.966.74l-10.5 39 1.932.52 10.5-39-1.932-.52zM77.961 195h-14v2h14v-2zm43.004 1l-.87-.494-.848 1.494h1.718v-1zm10.5-18.5l.87.494.528-.932-.965-.464-.433.902zm-4.5-3.2l-.707.707.707-.707zm.9-24.4l-.665-.747-.007.006.672.741zm40.6-4.9h1v-1h-1v1zm0 51v1h1v-1h-1zm-14 0h-1v1h1v-1zm0-15.5h1v-1h-1v1zm-10 0v-1h-.609l-.28.541.889.459zm-8 15.5v1h.609l.279-.541-.888-.459zm2.4-28.7l-.667.745.667-.745zm15.6 1.7v1h1v-1h-1zm0-12h1v-1h-1v1zm-15.6 1.6l.62.785.005-.004-.625-.781zm-17.03 37.894l10.5-18.5-1.74-.988-10.5 18.5 1.74.988zm10.063-19.896a15.3 15.3 0 01-4.226-3.005l-1.414 1.414a17.299 17.299 0 004.774 3.395l.866-1.804zm-4.226-3.005c-2.785-2.785-4.207-6.449-4.207-11.093h-2c0 5.09 1.577 9.292 4.793 12.507l1.414-1.414zm-4.207-11.093c0-4.869 1.694-8.794 5.072-11.859l-1.344-1.482c-3.822 3.468-5.728 7.943-5.728 13.341h2zm5.065-11.853c3.434-3.059 8.204-4.647 14.435-4.647v-2c-6.569 0-11.866 1.679-15.765 5.153l1.33 1.494zM142.965 146h25.5v-2h-25.5v2zm24.5-1v51h2v-51h-2zm1 50h-14v2h14v-2zm-13 1v-15.5h-2V196h2zm-1-16.5h-10v2h10v-2zm-10.889.541l-8 15.5 1.777.918 8-15.5-1.777-.918zM136.465 195h-15.5v2h15.5v-2zm-.5-32.5c0 2.285.709 4.182 2.233 5.545l1.334-1.49c-1.01-.904-1.567-2.206-1.567-4.055h-2zm2.233 5.545c1.513 1.354 3.622 1.955 6.167 1.955v-2c-2.255 0-3.813-.533-4.833-1.445l-1.334 1.49zm6.167 1.955h10.1v-2h-10.1v2zm11.1-1v-12h-2v12h2zm-1-13h-10.1v2h10.1v-2zm-10.1 0c-2.478 0-4.559.566-6.125 1.819l1.25 1.562c1.1-.881 2.686-1.381 4.875-1.381v-2zm-6.12 1.815c-1.504 1.188-2.28 2.776-2.28 4.685h2c0-1.291.491-2.303 1.519-3.115l-1.239-1.57zm74.204 31.885l-.702.712.004.004.698-.716zm0-38.3l.698.716.005-.004-.703-.712zm39.9 0l-.702.712.009.008.693-.72zm0 38.3l.698.716-.698-.716zm-29.5-30l.733.68-.733-.68zm0 21.6l-.733.68.733-.68zm19.2 0l.733.68-.733-.68zm0-21.6l-.733.68.733-.68zm-28.897 29.288c-5.142-5.077-7.703-11.221-7.703-18.488h-2c0 7.799 2.773 14.456 8.298 19.912l1.405-1.424zm-7.703-18.488c0-7.267 2.56-13.375 7.698-18.384l-1.396-1.432c-5.529 5.391-8.302 12.017-8.302 19.816h2zm7.703-18.388c5.133-5.069 11.541-7.612 19.297-7.612v-2c-8.243 0-15.168 2.724-20.702 8.188l1.405 1.424zm19.297-7.612c7.688 0 14.063 2.541 19.198 7.612l1.405-1.424c-5.532-5.463-12.423-8.188-20.603-8.188v2zm19.207 7.62c5.203 5.011 7.793 11.117 7.793 18.38h2c0-7.804-2.809-14.431-8.406-19.82l-1.387 1.44zm7.793 18.38c0 7.263-2.591 13.405-7.798 18.484l1.396 1.432c5.593-5.455 8.402-12.113 8.402-19.916h-2zm-7.798 18.484c-5.133 5.005-11.511 7.516-19.202 7.516v2c8.176 0 15.065-2.689 20.598-8.084l-1.396-1.432zm-19.202 7.516c-7.76 0-14.17-2.512-19.302-7.516l-1.396 1.432c5.535 5.396 12.459 8.084 20.698 8.084v-2zm-10.333-37.48c-2.797 3.013-4.167 6.869-4.167 11.48h2c0-4.189 1.231-7.533 3.633-10.12l-1.466-1.36zm-4.167 11.48c0 4.611 1.37 8.467 4.167 11.48l1.466-1.36c-2.402-2.587-3.633-5.931-3.633-10.12h-2zm4.167 11.48c2.788 3.003 6.253 4.52 10.333 4.52v-2c-3.52 0-6.455-1.283-8.867-3.88l-1.466 1.36zm10.333 4.52c4.08 0 7.545-1.517 10.333-4.52l-1.466-1.36c-2.412 2.597-5.347 3.88-8.867 3.88v2zm10.333-4.52c2.798-3.013 4.167-6.869 4.167-11.48h-2c0 4.189-1.23 7.533-3.633 10.12l1.466 1.36zm4.167-11.48c0-4.611-1.369-8.467-4.167-11.48l-1.466 1.36c2.403 2.587 3.633 5.931 3.633 10.12h2zm-4.167-11.48c-2.788-3.003-6.253-4.52-10.333-4.52v2c3.52 0 6.455 1.283 8.867 3.88l1.466-1.36zm-10.333-4.52c-4.08 0-7.545 1.517-10.333 4.52l1.466 1.36c2.412-2.597 5.347-3.88 8.867-3.88v-2zm36.035 41.5h-1v1h1v-1zm0-51v-1h-1v1h1zm14 0h1v-1h-1v1zm0 19h-1v1h1v-1zm21.5 0v1h1v-1h-1zm0-19v-1h-1v1h1zm14 0h1v-1h-1v1zm0 51v1h1v-1h-1zm-14 0h-1v1h1v-1zm0-20h1v-1h-1v1zm-21.5 0v-1h-1v1h1zm0 20v1h1v-1h-1zm-13 0v-51h-2v51h2zm-1-50h14v-2h-14v2zm13-1v19h2v-19h-2zm1 20h21.5v-2h-21.5v2zm22.5-1v-19h-2v19h2zm-1-18h14v-2h-14v2zm13-1v51h2v-51h-2zm1 50h-14v2h14v-2zm-13 1v-20h-2v20h2zm-1-21h-21.5v2h21.5v-2zm-22.5 1v20h2v-20h-2zm1 19h-14v2h14v-2zm41.047 1l-.966-.256-.333 1.256h1.299v-1zm13.5-51v-1h-.769l-.197.744.966.256zm27 0l.967-.256-.197-.744h-.77v1zm13.5 51v1h1.299l-.332-1.256-.967.256zm-14 0l-.965.26.199.74h.766v-1zm-10.5-39l.966-.26-.199-.74h-.767v1zm-5 0v-1h-.766l-.199.74.965.26zm-10.5 39v1h.767l.199-.74-.966-.26zm-13.033.256l13.5-51-1.933-.512-13.5 51 1.933.512zM337.031 146h27v-2h-27v2zm26.034-.744l13.5 51 1.933-.512-13.5-51-1.933.512zM377.531 195h-14v2h14v-2zm-13.034.74l-10.5-39-1.931.52 10.5 39 1.931-.52zM353.031 156h-5v2h5v-2zm-5.965.74l-10.5 39 1.931.52 10.5-39-1.931-.52zM337.531 195h-14v2h14v-2zm49.704-4.9l-.746.666.01.011.736-.677zm0-39.1l-.741-.672v.001l.741.671zm28.9-3.5l.637-.771-.02-.017-.022-.016-.595.804zm3.9 4l-.795.606.3.394h.495v-1zm.5 0v1h1v-1h-1zm0-6.5v-1h-1v1h1zm14 0h1v-1h-1v1zm0 51v1h1v-1h-1zm-14 0h-1v1h1v-1zm0-6.5h1v-1h-1v1zm-.5 0v-1h-.495l-.3.394.795.606zm-3.9 4l.595.804.022-.016.02-.017-.637-.771zm-17.6-34l.753.659-.753-.659zm0 22l.753-.659-.753.659zm18.4.1l.735.678.008-.009-.743-.669zm0-22.1l-.743.669.008.009.735-.678zm-28.954 29.934c-4.271-4.781-6.446-11.061-6.446-18.934h-2c0 8.26 2.292 15.047 6.954 20.266l1.492-1.332zm-6.446-18.934c0-7.874 2.175-14.117 6.441-18.829l-1.482-1.342c-4.667 5.154-6.959 11.912-6.959 20.171h2zm6.441-18.828c4.346-4.794 9.679-7.172 16.059-7.172v-2c-6.953 0-12.82 2.622-17.541 7.828l1.482 1.344zm16.059-7.172c4.252 0 8.077 1.264 11.505 3.804l1.19-1.608c-3.771-2.793-8.013-4.196-12.695-4.196v2zm11.463 3.771c1.482 1.224 2.727 2.503 3.742 3.835l1.591-1.212c-1.119-1.468-2.474-2.856-4.059-4.165l-1.274 1.542zm4.537 4.229h.5v-2h-.5v2zm1.5-1V145h-2v6.5h2zm-1-5.5h14v-2h-14v2zm13-1v51h2v-51h-2zm1 50h-14v2h14v-2zm-13 1v-6.5h-2v6.5h2zm-1-7.5h-.5v2h.5v-2zm-1.295.394c-1.015 1.332-2.26 2.611-3.742 3.835l1.274 1.542c1.585-1.309 2.94-2.697 4.059-4.165l-1.591-1.212zm-3.7 3.802c-3.428 2.54-7.253 3.804-11.505 3.804v2c4.682 0 8.924-1.403 12.695-4.196l-1.19-1.608zm-11.505 3.804c-6.385 0-11.718-2.348-16.064-7.077l-1.472 1.354c4.721 5.138 10.588 7.723 17.536 7.723v-2zm-6.252-37.659c-2.538 2.901-3.748 6.828-3.748 11.659h2c0-4.503 1.124-7.908 3.253-10.341l-1.505-1.318zm-3.748 11.659c0 4.831 1.21 8.758 3.748 11.659l1.505-1.318c-2.129-2.433-3.253-5.838-3.253-10.341h-2zm3.748 11.659c2.53 2.892 5.809 4.341 9.752 4.341v-2c-3.39 0-6.111-1.217-8.247-3.659l-1.505 1.318zm9.752 4.341c4.117 0 7.527-1.396 10.135-4.222l-1.47-1.356c-2.192 2.374-5.048 3.578-8.665 3.578v2zm10.143-4.231c2.613-2.902 3.857-6.869 3.857-11.769h-2c0 4.567-1.155 8-3.343 10.431l1.486 1.338zm3.857-11.769c0-4.898-1.244-8.839-3.865-11.678l-1.47 1.356c2.179 2.361 3.335 5.753 3.335 10.322h2zm-3.857-11.669c-2.605-2.895-6.017-4.331-10.143-4.331v2c3.608 0 6.462 1.231 8.657 3.669l1.486-1.338zm-10.143-4.331c-3.943 0-7.222 1.449-9.752 4.341l1.505 1.318c2.136-2.442 4.857-3.659 8.247-3.659v-2zm38 41.5h-1v1h1v-1zm0-51v-1h-1v1h1zm14 0h1v-1h-1v1zm0 22l.999.055.001-.027V167h-1zm-.5 9l-.998-.055-.059 1.055h1.057v-1zm1 0v1h.538l.296-.448-.834-.552zm20.5-31v-1h-.537l-.297.448.834.552zm15 0h1v-1h-1v1zm0 51v1h1v-1h-1zm-14 0h-1v1h1v-1zm0-22l-.998-.055-.002.027V174h1zm.5-9l.999.055.058-1.055h-1.057v1zm-1 0v-1h-.537l-.297.448.834.552zm-20.5 31v1h.538l.296-.448-.834-.552zm-6-71.5v-1h-1v1h1zm9.5 0h1v-1h-1v1zm13 0v-1h-1v1h1zm9.5 0h1v-1h-1v1zm-4.2 9.9l.66.751.001-.001-.661-.75zm-23.7 0l-.67.742.01.009.009.008.651-.759zm-12.1 61.6v-51h-2v51h2zm-1-50h14v-2h-14v2zm13-1v22h2v-22h-2zm.002 21.945l-.5 9 1.997.11.5-9-1.997-.11zm.498 10.055h1v-2h-1v2zm1.834-.448l20.5-31-1.668-1.104-20.5 31 1.668 1.104zM480.535 146h15v-2h-15v2zm14-1v51h2v-51h-2zm1 50h-14v2h14v-2zm-13 1v-22h-2v22h2zm-.001-21.945l.5-9-1.997-.11-.5 9 1.997.11zM482.035 164h-1v2h1v-2zm-1.834.448l-20.5 31 1.668 1.104 20.5-31-1.668-1.104zM460.535 195h-15v2h15v-2zm-6-69.5h9.5v-2h-9.5v2zm8.5-1c0 1.901.632 3.478 2.015 4.543 1.335 1.026 3.218 1.457 5.485 1.457v-2c-2.066 0-3.433-.402-4.265-1.043-.783-.602-1.235-1.525-1.235-2.957h-2zm7.5 6c2.267 0 4.151-.431 5.485-1.457 1.384-1.065 2.015-2.642 2.015-4.543h-2c0 1.432-.452 2.355-1.235 2.957-.832.641-2.198 1.043-4.265 1.043v2zm6.5-5h9.5v-2h-9.5v2zm8.5-1c0 3.881-1.301 6.895-3.861 9.15l1.322 1.5c3.04-2.678 4.539-6.264 4.539-10.65h-2zm-3.86 9.149c-2.488 2.184-6.15 3.351-11.14 3.351v2c5.277 0 9.481-1.233 12.46-3.849l-1.32-1.502zM470.535 137c-4.988 0-8.69-1.166-11.249-3.359l-1.302 1.518c3.042 2.607 7.272 3.841 12.551 3.841v-2zm-11.23-3.342c-2.496-2.253-3.77-5.269-3.77-9.158h-2c0 4.378 1.46 7.962 4.43 10.642l1.34-1.484zM506.57 196h-1v1h1v-1zm0-51v-1h-1v1h1zm14 0h1v-1h-1v1zm0 19h-1v1h1v-1zm21.5 0v1h1v-1h-1zm0-19v-1h-1v1h1zm14 0h1v-1h-1v1zm0 51v1h1v-1h-1zm-14 0h-1v1h1v-1zm0-20h1v-1h-1v1zm-21.5 0v-1h-1v1h1zm0 20v1h1v-1h-1zm-13 0v-51h-2v51h2zm-1-50h14v-2h-14v2zm13-1v19h2v-19h-2zm1 20h21.5v-2h-21.5v2zm22.5-1v-19h-2v19h2zm-1-18h14v-2h-14v2zm13-1v51h2v-51h-2zm1 50h-14v2h14v-2zm-13 1v-20h-2v20h2zm-1-21h-21.5v2h21.5v-2zm-22.5 1v20h2v-20h-2zm1 19h-14v2h14v-2zm46.547-20h-1v1h1v-1zm0-12v-1h-1v1h1zm37.5 0h1v-1h-1v1zm0 12v1h1v-1h-1zm-36.5 0v-12h-2v12h2zm-1-11h37.5v-2h-37.5v2zm36.5-1v12h2v-12h-2zm1 11h-37.5v2h37.5v-2zM14.5 299.7l-.703.712.005.004.698-.716zm0-38.3l.698.716.005-.004-.703-.712zm39.9 0l-.703.712.01.008.693-.72zm0 38.3l.698.716-.698-.716zm-29.5-30l.733.68-.733-.68zm0 21.6l-.733.68.733-.68zm19.2 0l.733.68-.733-.68zm0-21.6l-.733.68.733-.68zm-28.897 29.288C10.06 293.911 7.5 287.767 7.5 280.5h-2c0 7.799 2.773 14.456 8.297 19.912l1.406-1.424zM7.5 280.5c0-7.267 2.56-13.375 7.698-18.384l-1.396-1.432C8.273 266.075 5.5 272.701 5.5 280.5h2zm7.703-18.388c5.132-5.069 11.54-7.612 19.297-7.612v-2c-8.244 0-15.169 2.724-20.703 8.188l1.406 1.424zM34.5 254.5c7.687 0 14.063 2.541 19.197 7.612l1.406-1.424C49.57 255.225 42.679 252.5 34.5 252.5v2zm19.206 7.62c5.203 5.011 7.794 11.117 7.794 18.38h2c0-7.804-2.81-14.431-8.406-19.82l-1.388 1.44zM61.5 280.5c0 7.263-2.59 13.405-7.798 18.484l1.396 1.432c5.593-5.455 8.402-12.113 8.402-19.916h-2zm-7.798 18.484c-5.134 5.005-11.51 7.516-19.202 7.516v2c8.175 0 15.065-2.689 20.598-8.084l-1.396-1.432zM34.5 306.5c-7.76 0-14.17-2.512-19.302-7.516l-1.396 1.432c5.535 5.396 12.458 8.084 20.698 8.084v-2zm-10.333-37.48C21.37 272.033 20 275.889 20 280.5h2c0-4.189 1.23-7.533 3.633-10.12l-1.466-1.36zM20 280.5c0 4.611 1.37 8.467 4.167 11.48l1.466-1.36C23.23 288.033 22 284.689 22 280.5h-2zm4.167 11.48c2.788 3.003 6.253 4.52 10.333 4.52v-2c-3.52 0-6.455-1.283-8.867-3.88l-1.466 1.36zM34.5 296.5c4.08 0 7.545-1.517 10.333-4.52l-1.466-1.36c-2.412 2.597-5.347 3.88-8.867 3.88v2zm10.333-4.52C47.63 288.967 49 285.111 49 280.5h-2c0 4.189-1.23 7.533-3.633 10.12l1.466 1.36zM49 280.5c0-4.611-1.37-8.467-4.167-11.48l-1.466 1.36C45.77 272.967 47 276.311 47 280.5h2zm-4.167-11.48c-2.788-3.003-6.253-4.52-10.333-4.52v2c3.52 0 6.455 1.283 8.867 3.88l1.466-1.36zM34.5 264.5c-4.08 0-7.545 1.517-10.333 4.52l1.466 1.36c2.412-2.597 5.347-3.88 8.867-3.88v-2zm82.535-28.5h1v-1h-1v1zm0 12v1h1v-1h-1zm-28.7 4.8l.657.754.007-.007-.664-.747zm-5.8 13.2l-.999-.047-.049 1.047h1.048v-1zm.5 0v1h.518l.3-.423-.818-.577zm3.6-3.5l-.566-.825-.017.012-.017.013.6.8zm28.3 3.2l-.718.696.006.006.005.005.707-.707zm-.8 34.7l.697.717h.001l-.698-.717zm-38.1-1.2l.742-.67-.742.67zm10.3-7.2l-.737.676.01.01.727-.686zm17.4 0l.728.686.009-.01-.737-.676zm0-18.6l.718-.696-.718.696zm-17.4 0l.718.696-.718-.696zm-16.8 3.6c0-13.553 2.814-23.532 8.27-30.112C83.23 240.345 91.41 237 102.535 237v-2c-11.542 0-20.363 3.489-26.27 10.612-5.877 7.087-8.73 17.608-8.73 31.388h2zm33-40h14.5v-2h-14.5v2zm13.5-1v12h2v-12h-2zm1 11h-13v2h13v-2zm-13 0c-7.008 0-12.516 1.632-16.364 5.053l1.328 1.494c3.353-2.979 8.311-4.547 15.036-4.547v-2zm-16.356 5.046c-3.845 3.346-5.866 8.023-6.143 13.907l1.998.094c.256-5.45 2.102-9.572 5.458-12.493l-1.313-1.508zM82.535 267h.5v-2h-.5v2zm1.317-.423c.72-1.02 1.833-2.114 3.383-3.277l-1.2-1.6c-1.65 1.237-2.936 2.476-3.817 3.723l1.634 1.154zm3.349-3.252c3.217-2.208 6.982-3.325 11.334-3.325v-2c-4.714 0-8.883 1.217-12.466 3.675l1.132 1.65zM98.535 260c6.348 0 11.55 2.136 15.682 6.396l1.436-1.392C111.119 260.33 105.387 258 98.535 258v2zm15.693 6.407c4.194 4.194 6.307 9.531 6.307 16.093h2c0-7.038-2.287-12.901-6.893-17.507l-1.414 1.414zm6.307 16.093c0 6.874-2.365 12.579-7.097 17.183l1.395 1.434c5.134-4.996 7.702-11.225 7.702-18.617h-2zm-7.097 17.183c-4.65 4.523-10.752 6.817-18.403 6.817v2c8.083 0 14.714-2.439 19.797-7.383l-1.394-1.434zM95.035 306.5c-7.393 0-13.453-2.654-18.258-7.97l-1.484 1.34c5.196 5.75 11.802 8.63 19.742 8.63v-2zm-18.258-7.97c-4.796-5.308-7.242-12.448-7.242-21.53h-2c0 9.452 2.554 17.112 7.758 22.87l1.484-1.34zm5.258-16.03c0 4.129 1.16 7.554 3.563 10.176l1.474-1.352c-1.997-2.178-3.037-5.086-3.037-8.824h-2zm3.573 10.186c2.413 2.559 5.589 3.814 9.427 3.814v-2c-3.362 0-5.985-1.079-7.972-3.186l-1.455 1.372zm9.427 3.814c3.838 0 7.015-1.255 9.428-3.814l-1.455-1.372c-1.987 2.107-4.611 3.186-7.973 3.186v2zm9.437-3.824c2.403-2.622 3.563-6.047 3.563-10.176h-2c0 3.738-1.04 6.646-3.037 8.824l1.474 1.352zm3.563-10.176c0-4.004-1.165-7.306-3.582-9.796l-1.435 1.392c1.983 2.044 3.017 4.808 3.017 8.404h2zm-3.582-9.796c-2.416-2.489-5.589-3.704-9.418-3.704v2c3.371 0 5.998 1.052 7.983 3.096l1.435-1.392zM95.035 269c-3.829 0-7.002 1.215-9.417 3.704l1.435 1.392c1.984-2.044 4.611-3.096 7.982-3.096v-2zm-9.417 3.704c-2.417 2.49-3.583 5.792-3.583 9.796h2c0-3.596 1.035-6.36 3.018-8.404l-1.435-1.392zM123.555 255v-1h-1.299l.332 1.256.967-.256zm14.5 0l.968-.248-.192-.752h-.776v1zm10 39l-.969.248.193.752h.776v-1zm4 0v1h.757l.205-.729-.962-.271zm11-39v-1h-.757l-.206.729.963.271zm14.5 0l.959.281.376-1.281h-1.335v1zm-20.5 70v1h.749l.21-.719-.959-.281zm-14.5 0l-.961-.278-.37 1.278h1.331v-1zm5.5-19l.96.278.37-1.278h-1.33v1zm-11 0l-.967.256.197.744h.77v-1zm-13.5-50h14.5v-2h-14.5v2zm13.531-.752l10 39 1.937-.496-10-39-1.937.496zM148.055 295h4v-2h-4v2zm4.962-.729l11-39-1.925-.542-11 39 1.925.542zM163.055 256h14.5v-2h-14.5v2zm13.54-1.281l-20.5 70 1.919.562 20.5-70-1.919-.562zM157.055 324h-14.5v2h14.5v-2zm-13.54 1.278l5.5-19-1.921-.556-5.5 19 1.921.556zm4.54-20.278h-11v2h11v-2zm-10.034.744l-13.5-51-1.933.512 13.5 51 1.933-.512zM181.535 255v-1h-1v1h1zm14 0h1v-1h-1v1zm16.4 24.6l.346.938.013-.004.013-.006-.372-.928zm2.6-1.4l.588.809.412-.3v-.509h-1zm0-23.2v-1h-1v1h1zm14 0h1v-1h-1v1zm0 51v1h1v-1h-1zm-14 0h-1v1h1v-1zm0-16.5h1v-2.057l-1.618 1.271.618.786zm-3.3 1.8l-.346-.938-.011.004-.011.004.368.93zm-24.4-3.4l-.693.721.007.006.686-.727zm-4.3-13.9v-19h-2v19h2zm-1-18h14v-2h-14v2zm13-1v18h2v-18h-2zm0 18c0 2.837.757 5.144 2.44 6.728 1.672 1.574 4.087 2.272 7.06 2.272v-2c-2.694 0-4.528-.635-5.689-1.728-1.151-1.083-1.811-2.776-1.811-5.272h-2zm9.5 9c2.85 0 5.6-.487 8.246-1.462l-.692-1.876a21.67 21.67 0 01-7.554 1.338v2zm8.272-1.472c1.063-.425 2.005-.929 2.816-1.519l-1.176-1.618c-.655.477-1.446.906-2.383 1.281l.743 1.856zm3.228-2.328V255h-2v23.2h2zm-1-22.2h14v-2h-14v2zm13-1v51h2v-51h-2zm1 50h-14v2h14v-2zm-13 1v-16.5h-2V306h2zm-1.618-17.286c-.84.66-1.846 1.212-3.028 1.648l.692 1.876c1.351-.498 2.546-1.146 3.572-1.952l-1.236-1.572zm-3.05 1.656c-2.731 1.08-5.837 1.63-9.332 1.63v2c3.705 0 7.066-.583 10.068-1.77l-.736-1.86zm-9.332 1.63c-6.012 0-10.643-1.644-14.013-4.827l-1.373 1.454c3.829 3.617 8.998 5.373 15.386 5.373v-2zm-14.006-4.821c-3.3-3.175-4.994-7.527-4.994-13.179h-2c0 6.081 1.84 10.996 5.607 14.621l1.387-1.442zm56.949 12.521l-.707.707.009.009.698-.716zm0-38.3l.703.712-.703-.712zm39-.1l-.716.698.716-.698zm7.6 22.2v1h1v-1h-1zm-40 0v-1h-1.173l.186 1.158.987-.158zm4.5 8.5l-.687.726.687-.726zm17.6.5l.62.785.018-.014.017-.015-.655-.756zm2.4-3v-1h-.602l-.282.532.884.468zm15 0l.949.316.439-1.316h-1.388v1zm-5 9l.748.664.008-.009.008-.009-.764-.646zm-34-23.5l-.96-.281-.375 1.281h1.335v-1zm24.5 0v1h1.22l-.239-1.196-.981.196zm-4.1-6.7l-.658.753.012.01.013.011.633-.774zm-26.793 30.693c-5.077-5.077-7.607-11.221-7.607-18.493h-2c0 7.795 2.736 14.451 8.193 19.907l1.414-1.414zm-7.607-18.493c0-7.271 2.53-13.38 7.603-18.388l-1.405-1.424c-5.461 5.392-8.198 12.017-8.198 19.812h2zm7.603-18.388c5.139-5.076 11.418-7.612 18.897-7.612v-2c-7.987 0-14.776 2.731-20.303 8.188l1.406 1.424zm18.897-7.612c7.622 0 13.822 2.508 18.684 7.498l1.432-1.396c-5.271-5.41-12.004-8.102-20.116-8.102v2zm18.684 7.498c4.875 5.004 7.316 11.149 7.316 18.502h2c0-7.847-2.626-14.502-7.884-19.898l-1.432 1.396zm7.316 18.502v3h2v-3h-2zm1 2h-40v2h40v-2zm-40.987 1.158c.568 3.552 2.174 6.585 4.8 9.068l1.374-1.452c-2.307-2.183-3.701-4.817-4.199-7.932l-1.975.316zm4.8 9.068c2.64 2.498 5.715 3.774 9.187 3.774v-2c-2.928 0-5.519-1.057-7.813-3.226l-1.374 1.452zm9.187 3.774c3.736 0 6.993-1.062 9.72-3.215l-1.24-1.57c-2.339 1.847-5.149 2.785-8.48 2.785v2zm9.755-3.244a11.376 11.376 0 002.629-3.288l-1.768-.936a9.34 9.34 0 01-2.171 2.712l1.31 1.512zm1.745-2.756h15v-2h-15v2zm14.051-1.316c-1.095 3.285-2.701 6.172-4.814 8.67l1.527 1.292c2.286-2.702 4.013-5.815 5.185-9.33l-1.898-.632zm-4.798 8.652c-5.12 5.759-12 8.664-20.753 8.664v2c9.247 0 16.7-3.095 22.248-9.336l-1.495-1.328zm-20.753 8.664c-7.483 0-13.763-2.506-18.902-7.516l-1.396 1.432c5.528 5.39 12.315 8.084 20.298 8.084v-2zm-12.5-30.5h24.5v-2h-24.5v2zm25.481-1.196c-.581-2.905-2.077-5.339-4.448-7.278l-1.266 1.548c2.029 1.661 3.267 3.693 3.753 6.122l1.961-.392zm-4.422-7.257c-2.336-2.043-5.211-3.047-8.559-3.047v2c2.919 0 5.31.863 7.242 2.553l1.317-1.506zm-8.559-3.047c-3.339 0-6.236.965-8.633 2.926l1.266 1.548c2.003-1.639 4.439-2.474 7.367-2.474v-2zm-8.633 2.926c-2.356 1.928-3.97 4.367-4.827 7.293l1.92.562c.743-2.54 2.13-4.635 4.173-6.307l-1.266-1.548zM299.539 306h-1v1h1v-1zm0-51v-1h-1v1h1zm14 0h1v-1h-1v1zm0 19h-1v1h1v-1zm21.5 0v1h1v-1h-1zm0-19v-1h-1v1h1zm14 0h1v-1h-1v1zm0 51v1h1v-1h-1zm-14 0h-1v1h1v-1zm0-20h1v-1h-1v1zm-21.5 0v-1h-1v1h1zm0 20v1h1v-1h-1zm-13 0v-51h-2v51h2zm-1-50h14v-2h-14v2zm13-1v19h2v-19h-2zm1 20h21.5v-2h-21.5v2zm22.5-1v-19h-2v19h2zm-1-18h14v-2h-14v2zm13-1v51h2v-51h-2zm1 50h-14v2h14v-2zm-13 1v-20h-2v20h2zm-1-21h-21.5v2h21.5v-2zm-22.5 1v20h2v-20h-2zm1 19h-14v2h14v-2zm46.547 1h-1v1h1v-1zm0-51v-1h-1v1h1zm14 0h1v-1h-1v1zm0 22l.998.055.002-.027V277h-1zm-.5 9l-.999-.055-.058 1.055h1.057v-1zm1 0v1h.538l.296-.448-.834-.552zm20.5-31v-1h-.538l-.296.448.834.552zm15 0h1v-1h-1v1zm0 51v1h1v-1h-1zm-14 0h-1v1h1v-1zm0-22l-.999-.055-.001.027V284h1zm.5-9l.998.055.059-1.055h-1.057v1zm-1 0v-1h-.538l-.296.448.834.552zm-20.5 31v1h.538l.296-.448-.834-.552zm-14 0v-51h-2v51h2zm-1-50h14v-2h-14v2zm13-1v22h2v-22h-2zm.001 21.945l-.5 9 1.997.11.5-9-1.997-.11zm.499 10.055h1v-2h-1v2zm1.834-.448l20.5-31-1.668-1.104-20.5 31 1.668 1.104zM395.086 256h15v-2h-15v2zm14-1v51h2v-51h-2zm1 50h-14v2h14v-2zm-13 1v-22h-2v22h2zm-.002-21.945l.5-9-1.997-.11-.5 9 1.997.11zM396.586 274h-1v2h1v-2zm-1.834.448l-20.5 31 1.668 1.104 20.5-31-1.668-1.104zM375.086 305h-15v2h15v-2zm43.535 1l-.87-.494-.847 1.494h1.717v-1zm10.5-18.5l.87.494.529-.932-.966-.464-.433.902zm-4.5-3.2l-.707.707.707-.707zm.9-24.4l-.665-.747-.007.006.672.741zm40.6-4.9h1v-1h-1v1zm0 51v1h1v-1h-1zm-14 0h-1v1h1v-1zm0-15.5h1v-1h-1v1zm-10 0v-1h-.609l-.28.541.889.459zm-8 15.5v1h.609l.28-.541-.889-.459zm2.4-28.7l-.667.745.667-.745zm15.6 1.7v1h1v-1h-1zm0-12h1v-1h-1v1zm-15.6 1.6l.62.785.005-.004-.625-.781zm-17.03 37.894l10.5-18.5-1.74-.988-10.5 18.5 1.74.988zm10.063-19.896a15.3 15.3 0 01-4.226-3.005l-1.414 1.414a17.314 17.314 0 004.774 3.395l.866-1.804zm-4.226-3.005c-2.784-2.785-4.207-6.449-4.207-11.093h-2c0 5.09 1.577 9.292 4.793 12.507l1.414-1.414zm-4.207-11.093c0-4.869 1.694-8.794 5.072-11.859l-1.344-1.482c-3.822 3.468-5.728 7.943-5.728 13.341h2zm5.065-11.853c3.434-3.059 8.204-4.647 14.435-4.647v-2c-6.569 0-11.865 1.679-15.765 5.153l1.33 1.494zM440.621 256h25.5v-2h-25.5v2zm24.5-1v51h2v-51h-2zm1 50h-14v2h14v-2zm-13 1v-15.5h-2V306h2zm-1-16.5h-10v2h10v-2zm-10.889.541l-8 15.5 1.778.918 8-15.5-1.778-.918zM434.121 305h-15.5v2h15.5v-2zm-.5-32.5c0 2.285.71 4.182 2.233 5.545l1.334-1.49c-1.01-.904-1.567-2.206-1.567-4.055h-2zm2.233 5.545c1.514 1.354 3.622 1.955 6.167 1.955v-2c-2.255 0-3.813-.533-4.833-1.445l-1.334 1.49zm6.167 1.955h10.1v-2h-10.1v2zm11.1-1v-12h-2v12h2zm-1-13h-10.1v2h10.1v-2zm-10.1 0c-2.478 0-4.559.566-6.125 1.819l1.25 1.562c1.101-.881 2.686-1.381 4.875-1.381v-2zm-6.12 1.815c-1.504 1.188-2.28 2.776-2.28 4.685h2c0-1.291.491-2.303 1.52-3.115l-1.24-1.57z" fill="#262B37"/><path d="M6.965 89V19h61v70h-15V33h-31v56h-15zm67.523 0l13.5-51h27l13.5 51h-14l-10.5-39h-5l-10.5 39h-14zm63.704-5.9c-4.466-5-6.7-11.533-6.7-19.6 0-8.067 2.234-14.567 6.7-19.5 4.534-5 10.134-7.5 16.8-7.5 4.467 0 8.5 1.333 12.1 4 1.534 1.267 2.834 2.6 3.9 4h.5V38h14v51h-14v-6.5h-.5c-1.066 1.4-2.366 2.733-3.9 4-3.6 2.667-7.633 4-12.1 4-6.666 0-12.266-2.467-16.8-7.4zm11.3-30.6c-2.333 2.667-3.5 6.333-3.5 11s1.167 8.333 3.5 11c2.334 2.667 5.334 4 9 4 3.867 0 7-1.3 9.4-3.9 2.4-2.667 3.6-6.367 3.6-11.1s-1.2-8.4-3.6-11c-2.4-2.667-5.533-4-9.4-4-3.666 0-6.666 1.333-9 4zm42-2.5V38h48v12h-17v39h-14V50h-17zm58.624 31.6c-5.067-5.067-7.6-11.1-7.6-18.1 0-7 2.533-13.033 7.6-18.1 5.133-5.067 11.433-7.867 18.9-8.4V19h14v18c7.466.533 13.733 3.333 18.8 8.4 5.133 5.067 7.7 11.1 7.7 18.1 0 7-2.567 13.033-7.7 18.1-5.067 5.067-11.334 7.867-18.8 8.4v17.8h-14V90c-7.467-.533-13.767-3.333-18.9-8.4zm32.9-32.6v29c3.666-.6 6.566-2.133 8.7-4.6 2.2-2.467 3.3-5.767 3.3-9.9s-1.1-7.433-3.3-9.9c-2.134-2.467-5.034-4-8.7-4.6zm-22.8 4.6c-2.134 2.467-3.2 5.767-3.2 9.9s1.066 7.433 3.2 9.9c2.2 2.467 5.133 4 8.8 4.6V49c-3.667.6-6.6 2.133-8.8 4.6zm62.272 29.1c-5.333-5.267-8-11.667-8-19.2 0-7.533 2.667-13.9 8-19.1 5.334-5.267 12-7.9 20-7.9 7.934 0 14.567 2.633 19.9 7.9 5.4 5.2 8.1 11.567 8.1 19.1 0 7.533-2.7 13.933-8.1 19.2-5.333 5.2-11.966 7.8-19.9 7.8-8 0-14.666-2.6-20-7.8zm10.4-30c-2.6 2.8-3.9 6.4-3.9 10.8s1.3 8 3.9 10.8c2.6 2.8 5.8 4.2 9.6 4.2s7-1.4 9.6-4.2c2.6-2.8 3.9-6.4 3.9-10.8s-1.3-8-3.9-10.8c-2.6-2.8-5.8-4.2-9.6-4.2s-7 1.4-9.6 4.2zm45.635 55.3V38h14v6.5h.5c1.067-1.4 2.367-2.733 3.9-4 3.6-2.667 7.634-4 12.1-4 6.667 0 12.234 2.5 16.7 7.5 4.534 4.933 6.8 11.433 6.8 19.5s-2.266 14.6-6.8 19.6c-4.466 4.933-10.033 7.4-16.7 7.4-4.466 0-8.5-1.333-12.1-4-1.533-1.267-2.833-2.6-3.9-4h-.5V108h-14zm17.6-55.5c-2.4 2.6-3.6 6.267-3.6 11s1.2 8.433 3.6 11.1c2.4 2.6 5.534 3.9 9.4 3.9 3.667 0 6.667-1.333 9-4 2.334-2.667 3.5-6.333 3.5-11s-1.166-8.333-3.5-11c-2.333-2.667-5.333-4-9-4-3.866 0-7 1.333-9.4 4zm44.9 36.5V38h19l12 27.5h1.5l12-27.5h19v51h-14V63.5l.5-9h-.5l-11 25h-13.5l-11-25h-.5l.5 9V89h-14zm78.712-5.9c-4.467-5-6.7-11.533-6.7-19.6 0-8.067 2.233-14.567 6.7-19.5 4.533-5 10.133-7.5 16.8-7.5 4.467 0 8.5 1.333 12.1 4 1.533 1.267 2.833 2.6 3.9 4h.5V38h14v51h-14v-6.5h-.5c-1.067 1.4-2.367 2.733-3.9 4-3.6 2.667-7.633 4-12.1 4-6.667 0-12.267-2.467-16.8-7.4zm11.3-30.6c-2.333 2.667-3.5 6.333-3.5 11s1.167 8.333 3.5 11 5.333 4 9 4c3.867 0 7-1.3 9.4-3.9 2.4-2.667 3.6-6.367 3.6-11.1s-1.2-8.4-3.6-11c-2.4-2.667-5.533-4-9.4-4-3.667 0-6.667 1.333-9 4z" fill="#262B37"/><path d="M6.965 89h-1v1h1v-1zm0-70v-1h-1v1h1zm61 0h1v-1h-1v1zm0 70v1h1v-1h-1zm-15 0h-1v1h1v-1zm0-56h1v-1h-1v1zm-31 0v-1h-1v1h1zm0 56v1h1v-1h-1zm-14 0V19h-2v70h2zm-1-69h61v-2h-61v2zm60-1v70h2V19h-2zm1 69h-15v2h15v-2zm-14 1V33h-2v56h2zm-1-57h-31v2h31v-2zm-32 1v56h2V33h-2zm1 55h-15v2h15v-2zm52.523 1l-.966-.256L73.189 90h1.3v-1zm13.5-51v-1h-.77l-.196.744.966.256zm27 0l.967-.256-.197-.744h-.77v1zm13.5 51v1h1.299l-.332-1.256-.967.256zm-14 0l-.965.26.199.74h.766v-1zm-10.5-39l.966-.26-.199-.74h-.767v1zm-5 0v-1h-.766l-.2.74.966.26zm-10.5 39v1h.767l.199-.74-.966-.26zm-13.033.256l13.5-51-1.933-.512-13.5 51 1.933.512zM87.988 39h27v-2h-27v2zm26.034-.744l13.5 51 1.933-.512-13.5-51-1.933.512zM128.488 88h-14v2h14v-2zm-13.034.74l-10.5-39-1.931.52 10.5 39 1.931-.52zM103.988 49h-5v2h5v-2zm-5.965.74l-10.5 39 1.93.52 10.5-39-1.93-.52zM88.488 88h-14v2h14v-2zm49.704-4.9l-.746.666.01.01.736-.676zm0-39.1l-.741-.672.741.672zm28.9-3.5l.637-.771-.02-.017-.022-.016-.595.804zm3.9 4l-.795.606.3.394h.495v-1zm.5 0v1h1v-1h-1zm0-6.5v-1h-1v1h1zm14 0h1v-1h-1v1zm0 51v1h1v-1h-1zm-14 0h-1v1h1v-1zm0-6.5h1v-1h-1v1zm-.5 0v-1h-.495l-.3.394.795.606zm-3.9 4l.595.804.022-.016.02-.017-.637-.771zm-17.6-34l.753.658-.753-.658zm0 22l.753-.659-.753.659zm18.4.1l.735.678.008-.009-.743-.669zm0-22.1l-.743.669.008.01.735-.679zm-28.954 29.934c-4.271-4.781-6.446-11.06-6.446-18.934h-2c0 8.26 2.292 15.047 6.954 20.266l1.492-1.332zM132.492 63.5c0-7.874 2.175-14.117 6.441-18.829l-1.482-1.342c-4.667 5.154-6.959 11.912-6.959 20.171h2zm6.441-18.828c4.346-4.794 9.679-7.172 16.059-7.172v-2c-6.953 0-12.82 2.622-17.541 7.828l1.482 1.344zm16.059-7.172c4.252 0 8.077 1.264 11.505 3.804l1.19-1.608c-3.771-2.793-8.013-4.196-12.695-4.196v2zm11.463 3.771c1.482 1.224 2.727 2.503 3.742 3.835l1.591-1.212c-1.119-1.468-2.474-2.856-4.059-4.165l-1.274 1.542zm4.537 4.229h.5v-2h-.5v2zm1.5-1V38h-2v6.5h2zm-1-5.5h14v-2h-14v2zm13-1v51h2V38h-2zm1 50h-14v2h14v-2zm-13 1v-6.5h-2V89h2zm-1-7.5h-.5v2h.5v-2zm-1.295.394c-1.015 1.332-2.26 2.61-3.742 3.835l1.274 1.542c1.585-1.31 2.94-2.697 4.059-4.165l-1.591-1.212zm-3.7 3.802c-3.428 2.54-7.253 3.804-11.505 3.804v2c4.682 0 8.924-1.403 12.695-4.196l-1.19-1.608zM154.992 89.5c-6.385 0-11.718-2.348-16.063-7.077l-1.473 1.354c4.721 5.138 10.588 7.723 17.536 7.723v-2zm-6.252-37.658c-2.538 2.9-3.748 6.827-3.748 11.658h2c0-4.503 1.124-7.908 3.253-10.342l-1.505-1.316zM144.992 63.5c0 4.83 1.21 8.758 3.748 11.659l1.505-1.318c-2.129-2.433-3.253-5.838-3.253-10.341h-2zm3.748 11.659c2.53 2.892 5.809 4.341 9.752 4.341v-2c-3.39 0-6.111-1.217-8.247-3.659l-1.505 1.318zm9.752 4.341c4.117 0 7.527-1.396 10.135-4.222l-1.47-1.356c-2.192 2.374-5.048 3.578-8.665 3.578v2zm10.143-4.231c2.613-2.903 3.857-6.87 3.857-11.769h-2c0 4.567-1.155 8-3.343 10.431l1.486 1.338zm3.857-11.769c0-4.898-1.244-8.839-3.865-11.678l-1.47 1.356c2.179 2.36 3.335 5.754 3.335 10.322h2zm-3.857-11.669c-2.605-2.895-6.017-4.331-10.143-4.331v2c3.608 0 6.463 1.23 8.657 3.669l1.486-1.338zM158.492 47.5c-3.943 0-7.222 1.45-9.752 4.342l1.505 1.316c2.136-2.44 4.857-3.658 8.247-3.658v-2zm33 2.5h-1v1h1v-1zm0-12v-1h-1v1h1zm48 0h1v-1h-1v1zm0 12v1h1v-1h-1zm-17 0v-1h-1v1h1zm0 39v1h1v-1h-1zm-14 0h-1v1h1v-1zm0-39h1v-1h-1v1zm-16 0V38h-2v12h2zm-1-11h48v-2h-48v2zm47-1v12h2V38h-2zm1 11h-17v2h17v-2zm-18 1v39h2V50h-2zm1 38h-14v2h14v-2zm-13 1V50h-2v39h2zm-1-40h-17v2h17v-2zm41.624 32.6l-.707.707.004.005.703-.712zm0-36.2l-.703-.712-.004.005.707.707zm18.9-8.4l.071.998.929-.067V37h-1zm0-18v-1h-1v1h1zm14 0h1v-1h-1v1zm0 18h-1v.931l.928.067.072-.998zm18.8 8.4l-.707.707.004.005.703-.712zm0 36.2l-.703-.712-.004.005.707.707zm-18.8 8.4l-.072-.998-.928.067V90h1zm0 17.8v1h1v-1h-1zm-14 0h-1v1h1v-1zm0-17.8h1v-.931l-.929-.067-.071.998zm14-41l.161-.987-1.161-.19V49h1zm0 29h-1v1.177l1.161-.19-.161-.987zm8.7-4.6l-.747-.666-.005.006-.005.006.757.654zm0-19.8l-.757.654.005.006.005.006.747-.666zm-31.5 0l-.747-.666-.005.006-.005.006.757.654zm0 19.8l-.757.654.005.006.005.006.747-.666zm8.8 4.6l-.162.987 1.162.19V78h-1zm0-29h1v-1.177l-1.162.19.162.987zm-18.193 31.893c-4.884-4.884-7.307-10.665-7.307-17.393h-2c0 7.272 2.643 13.558 7.893 18.807l1.414-1.414zM243.516 63.5c0-6.728 2.423-12.509 7.307-17.393l-1.414-1.414c-5.25 5.25-7.893 11.535-7.893 18.807h2zm7.302-17.388c4.957-4.893 11.03-7.598 18.269-8.114l-.143-1.995c-7.694.55-14.221 3.444-19.531 8.685l1.405 1.424zM270.016 37V19h-2v18h2zm-1-17h14v-2h-14v2zm13-1v18h2V19h-2zm.928 18.998c7.239.517 13.276 3.22 18.165 8.11l1.414-1.415c-5.245-5.245-11.741-8.14-19.436-8.69l-.143 1.995zm18.169 8.114c4.95 4.885 7.403 10.664 7.403 17.388h2c0-7.276-2.681-13.563-7.998-18.812l-1.405 1.424zm7.403 17.388c0 6.724-2.453 12.503-7.403 17.388l1.405 1.424c5.317-5.248 7.998-11.535 7.998-18.812h-2zm-7.407 17.393c-4.889 4.888-10.926 7.593-18.165 8.11l.143 1.995c7.695-.55 14.191-3.446 19.436-8.69l-1.414-1.415zM282.016 90v17.8h2V90h-2zm1 16.8h-14v2h14v-2zm-13 1V90h-2v17.8h2zm-.929-18.797c-7.239-.517-13.312-3.222-18.269-8.115l-1.405 1.424c5.31 5.24 11.837 8.136 19.531 8.686l.143-1.996zM282.016 49v29h2V49h-2zm1.161 29.987c3.864-.632 6.987-2.264 9.295-4.933l-1.513-1.308c-1.959 2.265-4.635 3.7-8.105 4.267l.323 1.974zm9.285-4.921c2.401-2.693 3.554-6.251 3.554-10.566h-2c0 3.952-1.048 6.994-3.047 9.234l1.493 1.332zm3.554-10.566c0-4.315-1.153-7.873-3.554-10.566l-1.493 1.332c1.999 2.24 3.047 5.282 3.047 9.234h2zm-3.544-10.554c-2.308-2.668-5.431-4.3-9.295-4.933l-.323 1.974c3.47.568 6.146 2.002 8.105 4.267l1.513-1.308zm-33.013 0c-2.329 2.693-3.443 6.247-3.443 10.554h2c0-3.96 1.018-7.005 2.956-9.246l-1.513-1.308zM256.016 63.5c0 4.308 1.114 7.861 3.443 10.554l1.513-1.308c-1.938-2.24-2.956-5.287-2.956-9.246h-2zm3.453 10.566c2.372 2.658 5.522 4.289 9.385 4.92l.323-1.973c-3.47-.568-6.186-2.004-8.215-4.279l-1.493 1.332zM270.016 78V49h-2v29h2zm-1.162-29.987c-3.863.632-7.013 2.263-9.385 4.921l1.493 1.332c2.029-2.275 4.745-3.711 8.215-4.28l-.323-1.973zM322.488 82.7l-.702.712.004.004.698-.716zm0-38.3l.698.716.005-.005-.703-.711zm39.9 0l-.702.712.009.008.693-.72zm0 38.3l.698.716-.698-.716zm-29.5-30l.733.68-.733-.68zm0 21.6l-.733.68.733-.68zm19.2 0l.733.68-.733-.68zm0-21.6l-.733.68.733-.68zm-28.897 29.288c-5.142-5.077-7.703-11.22-7.703-18.488h-2c0 7.8 2.773 14.456 8.298 19.912l1.405-1.424zM315.488 63.5c0-7.267 2.561-13.375 7.698-18.384l-1.396-1.432c-5.529 5.39-8.302 12.017-8.302 19.816h2zm7.703-18.389c5.133-5.068 11.541-7.611 19.297-7.611v-2c-8.243 0-15.168 2.724-20.702 8.188l1.405 1.423zm19.297-7.611c7.688 0 14.063 2.541 19.198 7.611l1.405-1.422c-5.532-5.464-12.423-8.189-20.603-8.189v2zm19.207 7.62c5.203 5.01 7.793 11.117 7.793 18.38h2c0-7.804-2.809-14.43-8.406-19.82l-1.387 1.44zm7.793 18.38c0 7.263-2.591 13.405-7.798 18.484l1.396 1.432c5.593-5.455 8.402-12.113 8.402-19.916h-2zm-7.798 18.484c-5.133 5.005-11.51 7.516-19.202 7.516v2c8.176 0 15.065-2.69 20.598-8.084l-1.396-1.432zM342.488 89.5c-7.76 0-14.17-2.512-19.302-7.516l-1.396 1.432c5.535 5.396 12.459 8.084 20.698 8.084v-2zm-10.333-37.48c-2.797 3.012-4.167 6.869-4.167 11.48h2c0-4.189 1.231-7.532 3.633-10.12l-1.466-1.36zm-4.167 11.48c0 4.611 1.37 8.468 4.167 11.48l1.466-1.36c-2.402-2.588-3.633-5.931-3.633-10.12h-2zm4.167 11.48c2.789 3.003 6.253 4.52 10.333 4.52v-2c-3.52 0-6.455-1.283-8.867-3.88l-1.466 1.36zm10.333 4.52c4.08 0 7.545-1.517 10.333-4.52l-1.466-1.36c-2.411 2.597-5.347 3.88-8.867 3.88v2zm10.333-4.52c2.798-3.013 4.167-6.869 4.167-11.48h-2c0 4.189-1.23 7.532-3.633 10.12l1.466 1.36zm4.167-11.48c0-4.611-1.369-8.468-4.167-11.48l-1.466 1.36c2.403 2.587 3.633 5.931 3.633 10.12h2zm-4.167-11.48c-2.788-3.003-6.253-4.52-10.333-4.52v2c3.52 0 6.456 1.283 8.867 3.88l1.466-1.36zm-10.333-4.52c-4.08 0-7.544 1.517-10.333 4.52l1.466 1.36c2.412-2.597 5.347-3.88 8.867-3.88v-2zm36.035 60.5h-1v1h1v-1zm0-70v-1h-1v1h1zm14 0h1v-1h-1v1zm0 6.5h-1v1h1v-1zm.5 0v1h.496l.3-.394-.796-.606zm3.9-4l-.595-.804-.021.016-.02.017.636.771zm28.8 3.5l-.745.666.009.01.736-.676zm0 39.1l-.74-.672h-.001l.741.672zm-28.8 3.4l-.636.771.02.017.021.016.595-.804zm-3.9-4l.796-.606-.3-.394h-.496v1zm-.5 0v-1h-1v1h1zm0 25.5v1h1v-1h-1zm3.6-55.5l.735.678.009-.009-.744-.669zm0 22.1l-.743.669.009.01.734-.679zm18.4-.1l-.752-.659.752.659zm0-22l-.752.658.752-.658zm-35 55.5V38h-2v70h2zm-1-69h14v-2h-14v2zm13-1v6.5h2V38h-2zm1 7.5h.5v-2h-.5v2zm1.296-.394c1.015-1.332 2.259-2.61 3.741-3.835l-1.273-1.542c-1.585 1.31-2.94 2.697-4.059 4.165l1.591 1.212zm3.7-3.802c3.428-2.54 7.253-3.804 11.504-3.804v-2c-4.681 0-8.923 1.403-12.695 4.196l1.191 1.608zm11.504-3.804c6.38 0 11.676 2.377 15.955 7.166l1.491-1.332c-4.655-5.211-10.492-7.834-17.446-7.834v2zm15.964 7.177c4.331 4.712 6.536 10.953 6.536 18.823h2c0-8.263-2.327-15.023-7.063-20.177l-1.473 1.354zm6.536 18.823c0 7.87-2.205 14.147-6.54 18.928l1.481 1.344c4.732-5.219 7.059-12.008 7.059-20.272h-2zm-6.541 18.929c-4.277 4.723-9.574 7.071-15.959 7.071v2c6.949 0 12.785-2.586 17.442-7.729l-1.483-1.342zM409.023 89.5c-4.251 0-8.076-1.264-11.504-3.804l-1.191 1.608c3.772 2.793 8.014 4.196 12.695 4.196v-2zm-11.463-3.771c-1.482-1.224-2.726-2.503-3.741-3.835l-1.591 1.212c1.119 1.468 2.474 2.856 4.059 4.165l1.273-1.542zm-4.537-4.229h-.5v2h.5v-2zm-1.5 1V108h2V82.5h-2zm1 24.5h-14v2h14v-2zm2.866-55.178c-2.622 2.84-3.866 6.78-3.866 11.678h2c0-4.569 1.157-7.962 3.335-10.322l-1.469-1.356zM391.523 63.5c0 4.9 1.245 8.867 3.857 11.769l1.487-1.338c-2.188-2.43-3.344-5.864-3.344-10.431h-2zm3.866 11.778c2.608 2.826 6.018 4.222 10.134 4.222v-2c-3.616 0-6.473-1.204-8.665-3.578l-1.469 1.356zm10.134 4.222c3.944 0 7.222-1.45 9.753-4.341l-1.505-1.318c-2.136 2.442-4.858 3.659-8.248 3.659v2zm9.753-4.341c2.538-2.9 3.747-6.828 3.747-11.659h-2c0 4.503-1.123 7.908-3.252 10.341l1.505 1.318zm3.747-11.659c0-4.83-1.209-8.758-3.747-11.658l-1.505 1.316c2.129 2.434 3.252 5.84 3.252 10.342h2zm-3.747-11.658c-2.531-2.893-5.809-4.342-9.753-4.342v2c3.39 0 6.112 1.217 8.248 3.658l1.505-1.316zm-9.753-4.342c-4.125 0-7.537 1.436-10.143 4.331l1.487 1.338c2.194-2.438 5.048-3.669 8.656-3.669v-2zm35.5 41.5h-1v1h1v-1zm0-51v-1h-1v1h1zm19 0l.917-.4-.262-.6h-.655v1zm12 27.5l-.916.4.262.6h.654v-1zm1.5 0v1h.655l.262-.6-.917-.4zm12-27.5v-1h-.654l-.262.6.916.4zm19 0h1v-1h-1v1zm0 51v1h1v-1h-1zm-14 0h-1v1h1v-1zm0-25.5l-.998-.056-.002.028v.028h1zm.5-9l.999.056.059-1.056h-1.058v1zm-.5 0v-1h-.652l-.263.597.915.403zm-11 25v1h.653l.263-.597-.916-.403zm-13.5 0l-.915.403.263.597h.652v-1zm-11-25l.916-.403-.263-.597h-.653v1zm-.5 0v-1h-1.057l.059 1.056.998-.056zm.5 9h1v-.028l-.001-.028-.999.056zm0 25.5v1h1v-1h-1zm-13 0V38h-2v51h2zm-1-50h19v-2h-19v2zm18.084-.6l12 27.5 1.833-.8-12-27.5-1.833.8zm12.916 28.1h1.5v-2h-1.5v2zm2.417-.6l12-27.5-1.833-.8-12 27.5 1.833.8zM485.523 39h19v-2h-19v2zm18-1v51h2V38h-2zm1 50h-14v2h14v-2zm-13 1V63.5h-2V89h2zm-.001-25.444l.5-9-1.997-.111-.5 9 1.997.11zm-.499-10.056h-.5v2h.5v-2zm-1.415.597l-11 25 1.831.806 11-25-1.831-.806zM479.523 78.5h-13.5v2h13.5v-2zm-12.584.597l-11-25-1.831.806 11 25 1.831-.806zM455.023 53.5h-.5v2h.5v-2zm-1.498 1.056l.5 9 1.997-.111-.5-9-1.997.11zm.498 8.944V89h2V63.5h-2zm1 24.5h-14v2h14v-2zm64.712-4.9l-.746.666.01.01.736-.676zm0-39.1l-.741-.672.741.672zm28.9-3.5l.637-.771-.02-.017-.022-.016-.595.804zm3.9 4l-.795.606.3.394h.495v-1zm.5 0v1h1v-1h-1zm0-6.5v-1h-1v1h1zm14 0h1v-1h-1v1zm0 51v1h1v-1h-1zm-14 0h-1v1h1v-1zm0-6.5h1v-1h-1v1zm-.5 0v-1h-.495l-.3.394.795.606zm-3.9 4l.595.804.022-.016.02-.017-.637-.771zm-17.6-34l.753.658-.753-.658zm0 22l.753-.659-.753.659zm18.4.1l.735.678.008-.009-.743-.669zm0-22.1l-.743.669.008.01.735-.679zm-28.954 29.934c-4.271-4.781-6.446-11.06-6.446-18.934h-2c0 8.26 2.292 15.047 6.954 20.266l1.492-1.332zM514.035 63.5c0-7.874 2.175-14.117 6.441-18.829l-1.482-1.342c-4.667 5.154-6.959 11.912-6.959 20.171h2zm6.441-18.828c4.346-4.794 9.679-7.172 16.059-7.172v-2c-6.953 0-12.82 2.622-17.541 7.828l1.482 1.344zm16.059-7.172c4.252 0 8.077 1.264 11.505 3.804l1.19-1.608c-3.771-2.793-8.013-4.196-12.695-4.196v2zm11.463 3.771c1.482 1.224 2.727 2.503 3.742 3.835l1.591-1.212c-1.119-1.468-2.474-2.856-4.059-4.165l-1.274 1.542zm4.537 4.229h.5v-2h-.5v2zm1.5-1V38h-2v6.5h2zm-1-5.5h14v-2h-14v2zm13-1v51h2V38h-2zm1 50h-14v2h14v-2zm-13 1v-6.5h-2V89h2zm-1-7.5h-.5v2h.5v-2zm-1.295.394c-1.015 1.332-2.26 2.61-3.742 3.835l1.274 1.542c1.585-1.31 2.94-2.697 4.059-4.165l-1.591-1.212zm-3.7 3.802c-3.428 2.54-7.253 3.804-11.505 3.804v2c4.682 0 8.924-1.403 12.695-4.196l-1.19-1.608zM536.535 89.5c-6.385 0-11.718-2.348-16.064-7.077l-1.472 1.354c4.721 5.138 10.588 7.723 17.536 7.723v-2zm-6.252-37.658c-2.538 2.9-3.748 6.827-3.748 11.658h2c0-4.503 1.124-7.908 3.253-10.342l-1.505-1.316zM526.535 63.5c0 4.83 1.21 8.758 3.748 11.659l1.505-1.318c-2.129-2.433-3.253-5.838-3.253-10.341h-2zm3.748 11.659c2.53 2.892 5.809 4.341 9.752 4.341v-2c-3.39 0-6.111-1.217-8.247-3.659l-1.505 1.318zm9.752 4.341c4.117 0 7.527-1.396 10.135-4.222l-1.47-1.356c-2.192 2.374-5.048 3.578-8.665 3.578v2zm10.143-4.231c2.613-2.903 3.857-6.87 3.857-11.769h-2c0 4.567-1.155 8-3.343 10.431l1.486 1.338zm3.857-11.769c0-4.898-1.244-8.839-3.865-11.678l-1.47 1.356c2.179 2.36 3.335 5.754 3.335 10.322h2zm-3.857-11.669c-2.605-2.895-6.017-4.331-10.143-4.331v2c3.608 0 6.462 1.23 8.657 3.669l1.486-1.338zM540.035 47.5c-3.943 0-7.222 1.45-9.752 4.342l1.505 1.316c2.136-2.44 4.857-3.658 8.247-3.658v-2z" fill="#fff"/></svg>