<svg width="260" height="100" viewBox="0 0 260 100" fill="none" xmlns="http://www.w3.org/2000/svg">
<path d="M0 3.38953C0 1.51754 1.51755 0 3.38953 0H256.61C258.482 0 260 1.51755 260 3.38953V96.6105C260 98.4825 258.482 100 256.61 100H3.38952C1.51753 100 0 98.4825 0 96.6105V3.38953Z" fill="white"/>
<g filter="url(#filter0_d)">
<path d="M38.2903 58.1601C38.2903 58.7231 38.7467 59.1795 39.3097 59.1795H44.5733C45.1364 59.1795 45.5928 58.7231 45.5928 58.1601V56.9891C45.7884 53.156 48.918 50.3496 51.9824 47.2695C54.9164 44.2577 57.7201 41.1091 57.7201 36.2493C57.7201 29.6098 53.3516 24.2708 44.0279 24.2708C35.6443 24.2708 29.7221 29.4389 28.8537 37.7792C28.7933 38.3595 29.2603 38.8503 29.8436 38.8503H35.4086C35.9336 38.8503 36.3679 38.45 36.4559 37.9324C37.1685 33.7407 39.8627 31.1157 43.6367 31.1157C47.614 31.1157 49.4396 33.3745 49.4396 36.8653C49.4396 39.8086 47.288 42.0674 44.8755 44.6C41.7459 47.8171 38.2903 51.171 38.2903 56.5784V58.1601ZM41.8763 74.375C44.7451 74.375 47.0924 72.0478 47.0924 69.1045C47.0924 66.0928 44.7451 63.7655 41.8763 63.7655C38.9423 63.7655 36.5299 66.0928 36.5299 69.1045C36.5299 72.0478 38.9423 74.375 41.8763 74.375Z" fill="white"/>
<path d="M44.5941 56.9382L44.5928 56.9636V56.9891V58.1601C44.5928 58.1616 44.5927 58.1629 44.5925 58.1639C44.5923 58.1657 44.5919 58.1667 44.5916 58.1673C44.591 58.1689 44.5896 58.1713 44.5871 58.1738C44.5846 58.1763 44.5822 58.1777 44.5806 58.1784C44.5797 58.1788 44.5779 58.1795 44.5733 58.1795H39.3097C39.3052 58.1795 39.3034 58.1788 39.3024 58.1784C39.3018 58.1781 39.3011 58.1777 39.3002 58.1772C39.2989 58.1764 39.2975 58.1753 39.296 58.1738C39.295 58.1729 39.2943 58.172 39.2936 58.1711C39.2925 58.1696 39.2918 58.1683 39.2914 58.1673C39.291 58.1664 39.2903 58.1646 39.2903 58.1601V56.5784C39.2903 51.7688 42.2472 48.7324 45.3478 45.5485C45.4292 45.4649 45.5107 45.3812 45.5923 45.2973L45.5924 45.2973L45.5996 45.2897L45.6354 45.2522C46.8151 44.0138 48.0052 42.7644 48.8922 41.4444C49.8008 40.0924 50.4396 38.5991 50.4396 36.8653C50.4396 34.9556 49.9393 33.2364 48.7537 31.9917C47.5597 30.7383 45.8137 30.1157 43.6367 30.1157C41.5035 30.1157 39.6356 30.8636 38.2072 32.2294C36.7882 33.5862 35.8549 35.5008 35.4701 37.7648C35.4644 37.7981 35.448 37.8236 35.4314 37.8384C35.4178 37.8505 35.4108 37.8504 35.4089 37.8503L35.4086 37.8503H29.8517C30.2686 33.9135 31.8646 30.7893 34.2855 28.6462C36.7148 26.4955 40.045 25.2708 44.0279 25.2708C48.4993 25.2708 51.6505 26.5477 53.6783 28.4921C55.7052 30.4355 56.7201 33.1511 56.7201 36.2493C56.7201 40.6657 54.2068 43.5529 51.2697 46.568C51.0363 46.8026 50.8 47.0379 50.5627 47.2743C49.2773 48.5545 47.9631 49.8635 46.9156 51.2419C45.6584 52.8962 44.7059 54.7466 44.5941 56.9382ZM46.0924 69.1045C46.0924 71.4998 44.1886 73.375 41.8763 73.375C39.4747 73.375 37.5299 71.4758 37.5299 69.1045C37.5299 66.6563 39.4832 64.7655 41.8763 64.7655C44.1802 64.7655 46.0924 66.6323 46.0924 69.1045Z" stroke="#333A4A" stroke-width="2"/>
</g>
<rect x="62.6837" y="51.4337" width="16.8305" height="16.8305" rx="1.10214" transform="rotate(13.8952 62.6837 51.4337)" fill="#1ABF7E" stroke="#21A37A"/>
<path d="M63.7163 60.0274L66.8428 65.2092L74.9751 59.0656" stroke="white" stroke-linecap="round" stroke-linejoin="round"/>
<path d="M100.17 44V31.4H106.65C107.91 31.4 108.9 31.706 109.62 32.318C110.34 32.93 110.7 33.704 110.7 34.64C110.7 35.54 110.37 36.248 109.71 36.764C109.398 36.98 109.068 37.142 108.72 37.25V37.34C109.14 37.424 109.542 37.592 109.926 37.844C110.742 38.384 111.15 39.206 111.15 40.31C111.15 41.39 110.742 42.278 109.926 42.974C109.122 43.658 108 44 106.56 44H100.17ZM102.87 36.35H106.29C106.806 36.35 107.202 36.236 107.478 36.008C107.766 35.768 107.91 35.462 107.91 35.09C107.91 34.718 107.766 34.418 107.478 34.19C107.202 33.95 106.806 33.83 106.29 33.83H102.87V36.35ZM102.87 41.57H106.38C107.04 41.57 107.532 41.438 107.856 41.174C108.192 40.91 108.36 40.562 108.36 40.13C108.36 39.698 108.192 39.35 107.856 39.086C107.532 38.822 107.04 38.69 106.38 38.69H102.87V41.57ZM113.509 42.866C112.549 41.918 112.069 40.766 112.069 39.41C112.069 38.054 112.549 36.908 113.509 35.972C114.469 35.024 115.669 34.55 117.109 34.55C118.537 34.55 119.731 35.024 120.691 35.972C121.663 36.908 122.149 38.054 122.149 39.41C122.149 40.766 121.663 41.918 120.691 42.866C119.731 43.802 118.537 44.27 117.109 44.27C115.669 44.27 114.469 43.802 113.509 42.866ZM115.381 37.466C114.913 37.97 114.679 38.618 114.679 39.41C114.679 40.202 114.913 40.85 115.381 41.354C115.849 41.858 116.425 42.11 117.109 42.11C117.793 42.11 118.369 41.858 118.837 41.354C119.305 40.85 119.539 40.202 119.539 39.41C119.539 38.618 119.305 37.97 118.837 37.466C118.369 36.962 117.793 36.71 117.109 36.71C116.425 36.71 115.849 36.962 115.381 37.466ZM123.434 44V34.82H132.254V44H129.734V36.98H125.954V44H123.434ZM134.066 47.42V34.82H136.586V35.99H136.676C136.868 35.738 137.102 35.498 137.378 35.27C138.026 34.79 138.752 34.55 139.556 34.55C140.756 34.55 141.758 35 142.562 35.9C143.378 36.788 143.786 37.958 143.786 39.41C143.786 40.862 143.378 42.038 142.562 42.938C141.758 43.826 140.756 44.27 139.556 44.27C138.752 44.27 138.026 44.03 137.378 43.55C137.102 43.322 136.868 43.082 136.676 42.83H136.586V47.42H134.066ZM137.234 37.43C136.802 37.898 136.586 38.558 136.586 39.41C136.586 40.262 136.802 40.928 137.234 41.408C137.666 41.876 138.23 42.11 138.926 42.11C139.586 42.11 140.126 41.87 140.546 41.39C140.966 40.91 141.176 40.25 141.176 39.41C141.176 38.57 140.966 37.91 140.546 37.43C140.126 36.95 139.586 36.71 138.926 36.71C138.23 36.71 137.666 36.95 137.234 37.43ZM146.056 42.866C145.096 41.918 144.616 40.766 144.616 39.41C144.616 38.054 145.096 36.908 146.056 35.972C147.016 35.024 148.216 34.55 149.656 34.55C151.084 34.55 152.278 35.024 153.238 35.972C154.21 36.908 154.696 38.054 154.696 39.41C154.696 40.766 154.21 41.918 153.238 42.866C152.278 43.802 151.084 44.27 149.656 44.27C148.216 44.27 147.016 43.802 146.056 42.866ZM147.928 37.466C147.46 37.97 147.226 38.618 147.226 39.41C147.226 40.202 147.46 40.85 147.928 41.354C148.396 41.858 148.972 42.11 149.656 42.11C150.34 42.11 150.916 41.858 151.384 41.354C151.852 40.85 152.086 40.202 152.086 39.41C152.086 38.618 151.852 37.97 151.384 37.466C150.916 36.962 150.34 36.71 149.656 36.71C148.972 36.71 148.396 36.962 147.928 37.466ZM156.863 42.866C155.915 41.918 155.441 40.766 155.441 39.41C155.441 38.054 155.915 36.908 156.863 35.972C157.823 35.024 158.999 34.55 160.391 34.55C162.059 34.55 163.331 35.15 164.207 36.35C164.603 36.866 164.891 37.466 165.071 38.15H162.461C162.353 37.886 162.209 37.646 162.029 37.43C161.573 36.95 161.027 36.71 160.391 36.71C159.755 36.71 159.203 36.962 158.735 37.466C158.279 37.97 158.051 38.618 158.051 39.41C158.051 40.202 158.279 40.85 158.735 41.354C159.203 41.858 159.755 42.11 160.391 42.11C161.027 42.11 161.573 41.87 162.029 41.39C162.209 41.174 162.353 40.934 162.461 40.67H165.071C164.903 41.366 164.627 41.966 164.243 42.47C163.367 43.67 162.083 44.27 160.391 44.27C158.999 44.27 157.823 43.802 156.863 42.866ZM100.872 65.866C99.924 64.918 99.45 63.766 99.45 62.41C99.45 61.054 99.924 59.908 100.872 58.972C101.832 58.024 103.008 57.55 104.4 57.55C106.068 57.55 107.34 58.15 108.216 59.35C108.612 59.866 108.9 60.466 109.08 61.15H106.47C106.362 60.886 106.218 60.646 106.038 60.43C105.582 59.95 105.036 59.71 104.4 59.71C103.764 59.71 103.212 59.962 102.744 60.466C102.288 60.97 102.06 61.618 102.06 62.41C102.06 63.202 102.288 63.85 102.744 64.354C103.212 64.858 103.764 65.11 104.4 65.11C105.036 65.11 105.582 64.87 106.038 64.39C106.218 64.174 106.362 63.934 106.47 63.67H109.08C108.912 64.366 108.636 64.966 108.252 65.47C107.376 66.67 106.092 67.27 104.4 67.27C103.008 67.27 101.832 66.802 100.872 65.866ZM115.999 65.938C115.195 65.038 114.793 63.862 114.793 62.41C114.793 60.958 115.195 59.788 115.999 58.9C116.815 58 117.823 57.55 119.023 57.55C119.827 57.55 120.553 57.79 121.201 58.27C121.477 58.498 121.711 58.738 121.903 58.99H121.993V57.82H124.513V67H121.993V65.83H121.903C121.711 66.082 121.477 66.322 121.201 66.55C120.553 67.03 119.827 67.27 119.023 67.27C117.823 67.27 116.815 66.826 115.999 65.938ZM118.033 60.43C117.613 60.91 117.403 61.57 117.403 62.41C117.403 63.25 117.613 63.91 118.033 64.39C118.453 64.87 118.993 65.11 119.653 65.11C120.349 65.11 120.913 64.876 121.345 64.408C121.777 63.928 121.993 63.262 121.993 62.41C121.993 61.558 121.777 60.898 121.345 60.43C120.913 59.95 120.349 59.71 119.653 59.71C118.993 59.71 118.453 59.95 118.033 60.43ZM126.332 67V57.82H131.372C132.32 57.82 133.052 58.03 133.568 58.45C134.084 58.87 134.342 59.41 134.342 60.07C134.342 60.766 134.084 61.312 133.568 61.708C133.328 61.888 133.076 62.002 132.812 62.05V62.14C133.16 62.212 133.49 62.338 133.802 62.518C134.462 62.986 134.792 63.61 134.792 64.39C134.792 65.158 134.492 65.788 133.892 66.28C133.292 66.76 132.452 67 131.372 67H126.332ZM128.852 61.33H131.012C131.288 61.33 131.504 61.252 131.66 61.096C131.828 60.94 131.912 60.748 131.912 60.52C131.912 60.292 131.828 60.1 131.66 59.944C131.504 59.788 131.288 59.71 131.012 59.71H128.852V61.33ZM128.852 65.11H131.192C131.504 65.11 131.762 65.014 131.966 64.822C132.17 64.63 132.272 64.396 132.272 64.12C132.272 63.844 132.17 63.61 131.966 63.418C131.762 63.226 131.504 63.13 131.192 63.13H128.852V65.11ZM135.256 59.98V57.82H143.896V59.98H140.836V67H138.316V59.98H135.256ZM145.719 65.866C144.759 64.918 144.279 63.766 144.279 62.41C144.279 61.054 144.759 59.908 145.719 58.972C146.679 58.024 147.879 57.55 149.319 57.55C150.747 57.55 151.941 58.024 152.901 58.972C153.873 59.908 154.359 61.054 154.359 62.41C154.359 63.766 153.873 64.918 152.901 65.866C151.941 66.802 150.747 67.27 149.319 67.27C147.879 67.27 146.679 66.802 145.719 65.866ZM147.591 60.466C147.123 60.97 146.889 61.618 146.889 62.41C146.889 63.202 147.123 63.85 147.591 64.354C148.059 64.858 148.635 65.11 149.319 65.11C150.003 65.11 150.579 64.858 151.047 64.354C151.515 63.85 151.749 63.202 151.749 62.41C151.749 61.618 151.515 60.97 151.047 60.466C150.579 59.962 150.003 59.71 149.319 59.71C148.635 59.71 148.059 59.962 147.591 60.466ZM155.645 67V57.82H164.465V67H161.945V59.98H158.165V67H155.645ZM166.277 70.42V57.82H168.797V58.99H168.887C169.079 58.738 169.313 58.498 169.589 58.27C170.237 57.79 170.963 57.55 171.767 57.55C172.967 57.55 173.969 58 174.773 58.9C175.589 59.788 175.997 60.958 175.997 62.41C175.997 63.862 175.589 65.038 174.773 65.938C173.969 66.826 172.967 67.27 171.767 67.27C170.963 67.27 170.237 67.03 169.589 66.55C169.313 66.322 169.079 66.082 168.887 65.83H168.797V70.42H166.277ZM169.445 60.43C169.013 60.898 168.797 61.558 168.797 62.41C168.797 63.262 169.013 63.928 169.445 64.408C169.877 64.876 170.441 65.11 171.137 65.11C171.797 65.11 172.337 64.87 172.757 64.39C173.177 63.91 173.387 63.25 173.387 62.41C173.387 61.57 173.177 60.91 172.757 60.43C172.337 59.95 171.797 59.71 171.137 59.71C170.441 59.71 169.877 59.95 169.445 60.43ZM178.266 65.866C177.306 64.918 176.826 63.766 176.826 62.41C176.826 61.054 177.306 59.908 178.266 58.972C179.226 58.024 180.426 57.55 181.866 57.55C183.294 57.55 184.488 58.024 185.448 58.972C186.42 59.908 186.906 61.054 186.906 62.41C186.906 63.766 186.42 64.918 185.448 65.866C184.488 66.802 183.294 67.27 181.866 67.27C180.426 67.27 179.226 66.802 178.266 65.866ZM180.138 60.466C179.67 60.97 179.436 61.618 179.436 62.41C179.436 63.202 179.67 63.85 180.138 64.354C180.606 64.858 181.182 65.11 181.866 65.11C182.55 65.11 183.126 64.858 183.594 64.354C184.062 63.85 184.296 63.202 184.296 62.41C184.296 61.618 184.062 60.97 183.594 60.466C183.126 59.962 182.55 59.71 181.866 59.71C181.182 59.71 180.606 59.962 180.138 60.466ZM188.192 67V57.82H193.232C194.18 57.82 194.912 58.03 195.428 58.45C195.944 58.87 196.202 59.41 196.202 60.07C196.202 60.766 195.944 61.312 195.428 61.708C195.188 61.888 194.936 62.002 194.672 62.05V62.14C195.02 62.212 195.35 62.338 195.662 62.518C196.322 62.986 196.652 63.61 196.652 64.39C196.652 65.158 196.352 65.788 195.752 66.28C195.152 66.76 194.312 67 193.232 67H188.192ZM190.712 61.33H192.872C193.148 61.33 193.364 61.252 193.52 61.096C193.688 60.94 193.772 60.748 193.772 60.52C193.772 60.292 193.688 60.1 193.52 59.944C193.364 59.788 193.148 59.71 192.872 59.71H190.712V61.33ZM190.712 65.11H193.052C193.364 65.11 193.622 65.014 193.826 64.822C194.03 64.63 194.132 64.396 194.132 64.12C194.132 63.844 194.03 63.61 193.826 63.418C193.622 63.226 193.364 63.13 193.052 63.13H190.712V65.11ZM198.898 65.866C197.95 64.918 197.476 63.766 197.476 62.41C197.476 61.054 197.95 59.908 198.898 58.972C199.858 58.024 201.034 57.55 202.426 57.55C203.842 57.55 205.006 58.018 205.918 58.954C206.83 59.89 207.286 61.042 207.286 62.41V62.95H200.086C200.182 63.55 200.452 64.06 200.896 64.48C201.34 64.9 201.85 65.11 202.426 65.11C203.062 65.11 203.608 64.93 204.064 64.57C204.244 64.414 204.388 64.234 204.496 64.03H207.196C206.992 64.642 206.692 65.182 206.296 65.65C205.336 66.73 204.046 67.27 202.426 67.27C201.034 67.27 199.858 66.802 198.898 65.866ZM200.176 61.42H204.586C204.49 60.94 204.244 60.538 203.848 60.214C203.464 59.878 202.99 59.71 202.426 59.71C201.862 59.71 201.382 59.872 200.986 60.196C200.59 60.52 200.32 60.928 200.176 61.42ZM208.648 70.42V57.82H211.168V58.99H211.258C211.45 58.738 211.684 58.498 211.96 58.27C212.608 57.79 213.334 57.55 214.138 57.55C215.338 57.55 216.34 58 217.144 58.9C217.96 59.788 218.368 60.958 218.368 62.41C218.368 63.862 217.96 65.038 217.144 65.938C216.34 66.826 215.338 67.27 214.138 67.27C213.334 67.27 212.608 67.03 211.96 66.55C211.684 66.322 211.45 66.082 211.258 65.83H211.168V70.42H208.648ZM211.816 60.43C211.384 60.898 211.168 61.558 211.168 62.41C211.168 63.262 211.384 63.928 211.816 64.408C212.248 64.876 212.812 65.11 213.508 65.11C214.168 65.11 214.708 64.87 215.128 64.39C215.548 63.91 215.758 63.25 215.758 62.41C215.758 61.57 215.548 60.91 215.128 60.43C214.708 59.95 214.168 59.71 213.508 59.71C212.812 59.71 212.248 59.95 211.816 60.43ZM219.737 67V57.82H222.257V61.24H223.337L225.767 57.82H228.557L225.587 62.05L228.827 67H225.947L223.607 63.4H222.257V67H219.737ZM230.109 65.866C229.149 64.918 228.669 63.766 228.669 62.41C228.669 61.054 229.149 59.908 230.109 58.972C231.069 58.024 232.269 57.55 233.709 57.55C235.137 57.55 236.331 58.024 237.291 58.972C238.263 59.908 238.749 61.054 238.749 62.41C238.749 63.766 238.263 64.918 237.291 65.866C236.331 66.802 235.137 67.27 233.709 67.27C232.269 67.27 231.069 66.802 230.109 65.866ZM231.981 60.466C231.513 60.97 231.279 61.618 231.279 62.41C231.279 63.202 231.513 63.85 231.981 64.354C232.449 64.858 233.025 65.11 233.709 65.11C234.393 65.11 234.969 64.858 235.437 64.354C235.905 63.85 236.139 63.202 236.139 62.41C236.139 61.618 235.905 60.97 235.437 60.466C234.969 59.962 234.393 59.71 233.709 59.71C233.025 59.71 232.449 59.962 231.981 60.466ZM240.035 67V57.82H242.555V61.78L242.465 63.4H242.645L246.335 57.82H249.035V67H246.515V63.04L246.605 61.42H246.425L242.735 67H240.035ZM241.655 54.13H243.365C243.365 54.73 243.755 55.03 244.535 55.03C245.315 55.03 245.705 54.73 245.705 54.13H247.415C247.415 54.874 247.163 55.468 246.659 55.912C246.167 56.344 245.459 56.56 244.535 56.56C243.611 56.56 242.897 56.344 242.393 55.912C241.901 55.468 241.655 54.874 241.655 54.13Z" fill="#333A4A"/>
<path d="M3.38953 2H256.61V-2H3.38953V2ZM258 3.38953V96.6105H262V3.38953H258ZM256.61 98H3.38952V102H256.61V98ZM2 96.6105V3.38953H-2V96.6105H2ZM3.38952 98C2.62211 98 2 97.3779 2 96.6105H-2C-2 99.587 0.412951 102 3.38952 102V98ZM258 96.6105C258 97.3779 257.378 98 256.61 98V102C259.587 102 262 99.587 262 96.6105H258ZM256.61 2C257.378 2 258 2.6221 258 3.38953H262C262 0.412987 259.587 -2 256.61 -2V2ZM3.38953 -2C0.412977 -2 -2 0.412973 -2 3.38953H2C2 2.62211 2.62211 2 3.38953 2V-2Z" fill="#333A4A"/>
<defs>
<filter id="filter0_d" x="28.8486" y="24.2708" width="30.8716" height="52.1042" filterUnits="userSpaceOnUse" color-interpolation-filters="sRGB">
<feFlood flood-opacity="0" result="BackgroundImageFix"/>
<feColorMatrix in="SourceAlpha" type="matrix" values="0 0 0 0 0 0 0 0 0 0 0 0 0 0 0 0 0 0 127 0" result="hardAlpha"/>
<feOffset dx="2" dy="2"/>
<feColorMatrix type="matrix" values="0 0 0 0 0.2 0 0 0 0 0.227451 0 0 0 0 0.290196 0 0 0 1 0"/>
<feBlend mode="normal" in2="BackgroundImageFix" result="effect1_dropShadow"/>
<feBlend mode="normal" in="SourceGraphic" in2="effect1_dropShadow" result="shape"/>
</filter>
</defs>
</svg>
