<svg width="279" height="174" viewBox="0 0 279 174" fill="none" xmlns="http://www.w3.org/2000/svg">
<g clip-path="url(#clip0)">
<path d="M1.01518 81.105C0.454512 79.319 1.44788 77.4166 3.23394 76.8559L244.831 1.01494C246.617 0.454259 248.519 1.44764 249.08 3.23369L277 92.1753C277.561 93.9613 276.567 95.8637 274.781 96.4244L33.1844 172.265C31.3984 172.826 29.496 171.833 28.9353 170.047L1.01518 81.105Z" fill="white"/>
<g clip-path="url(#clip1)">
<g filter="url(#filter0_d)">
<mask id="path-3-inside-1" fill="white">
<rect x="37.5583" y="101.455" width="50.1042" height="32.5" rx="1.625" transform="rotate(-17.4279 37.5583 101.455)"/>
</mask>
<rect x="37.5583" y="101.455" width="50.1042" height="32.5" rx="1.625" transform="rotate(-17.4279 37.5583 101.455)" fill="white"/>
<rect x="37.5583" y="101.455" width="50.1042" height="32.5" rx="1.625" transform="rotate(-17.4279 37.5583 101.455)" stroke="#333A4A" stroke-width="4" mask="url(#path-3-inside-1)"/>
</g>
<path d="M89.5082 106.437L81.2488 102.331C80.5981 102.005 79.7888 102.259 79.4412 102.898L72.9497 114.84L67.4628 112.091C66.8121 111.765 66.0028 112.019 65.6552 112.658L57.02 127.28L92.5501 116.127L89.5082 106.437Z" fill="#1ABF7E"/>
<ellipse cx="55.8639" cy="107.772" rx="4.73958" ry="4.73958" transform="rotate(-17.4279 55.8639 107.772)" fill="#FFAA00"/>
</g>
<path d="M112.194 100.822L115.371 99.8245L117.624 89.8729L117.796 89.819L118.082 91.3327L120.266 98.288L122.842 97.4793L119.068 85.4578L115.891 86.4551L113.638 96.4067L113.466 96.4606L113.18 94.9469L110.996 87.9916L108.42 88.8002L112.194 100.822ZM123.259 94.2356C123.557 94.7646 123.942 95.2097 124.431 95.5656C125.257 96.1551 126.548 96.5991 128.437 96.006C131.185 95.1435 131.896 93.505 131.438 92.0452C131.158 91.1522 130.561 90.7546 130.03 90.5631C129.713 90.455 129.4 90.4211 129.047 90.4376L129.02 90.3518C129.29 90.1914 129.516 90.0075 129.69 89.7829C130.005 89.4013 130.237 88.819 130 88.0633C129.595 86.7753 128.016 85.9505 125.526 86.7322C123.739 87.2929 122.987 88.3215 122.641 89.2035C122.444 89.7181 122.35 90.2573 122.379 90.8328L124.784 90.078C124.764 89.8955 124.801 89.714 124.878 89.5389C125.004 89.2166 125.277 88.8855 125.947 88.6752C126.977 88.3518 127.541 88.6463 127.676 89.0757C127.865 89.6768 127.629 90.1281 126.599 90.4515L125.568 90.775L126.107 92.4924L127.224 92.1419C128.34 91.7915 128.791 92.0272 128.98 92.6283C129.147 93.1606 128.847 93.7076 127.817 94.0311C127.044 94.2737 126.511 94.139 126.167 93.9451C125.964 93.8391 125.802 93.6825 125.663 93.4808L123.259 94.2356ZM131.628 89.9103C132.437 92.4863 135.128 93.9056 137.893 93.0377C140.623 92.1805 142.054 89.4673 141.246 86.8913C140.437 84.3152 137.712 82.9067 134.981 83.7639C132.216 84.6318 130.82 87.3342 131.628 89.9103ZM134.119 89.1286C133.633 87.5829 134.34 86.2291 135.628 85.8247C136.916 85.4204 138.27 86.1274 138.755 87.673C139.241 89.2186 138.534 90.5725 137.246 90.9768C135.958 91.3812 134.604 90.6742 134.119 89.1286ZM141.94 86.013C142.959 89.2588 145.577 90.6256 148.135 89.8223C150.883 88.9597 152.093 86.5046 151.339 84.1003C150.605 81.7646 148.372 80.5981 146.122 81.3044C145.16 81.6063 144.605 82.1203 144.267 82.547C144.069 82.8168 143.922 83.0704 143.837 83.3422L143.751 83.3691C143.239 81.4359 144.052 79.8789 146.473 79.1188L148.706 78.4179L148.059 76.3571L145.569 77.1388C141.791 78.3248 140.431 81.2043 141.94 86.013ZM144.727 86.1758C144.317 84.8706 144.894 83.7649 146.114 83.3822C147.333 82.9994 148.439 83.5768 148.848 84.882C149.28 86.2559 148.708 87.3787 147.488 87.7615C146.269 88.1442 145.158 87.5497 144.727 86.1758ZM154.848 91.0168L157.252 90.262L155.877 85.8827L155.963 85.8558C156.233 86.0541 156.526 86.2072 156.849 86.3325C157.42 86.5304 158.181 86.669 159.142 86.3671C161.375 85.6662 162.612 83.2969 161.723 80.4633C160.833 77.6296 158.464 76.3924 156.231 77.0933C155.269 77.3952 154.725 77.9435 154.369 78.4326C154.176 78.7195 154.023 79.0128 153.915 79.3298L153.829 79.3567L153.478 78.2404L151.074 78.9952L154.848 91.0168ZM154.853 82.6197C154.335 80.971 154.972 79.7525 156.277 79.3428C157.496 78.9601 158.715 79.5963 159.232 81.245C159.75 82.8937 159.114 84.1122 157.894 84.4949C156.589 84.9047 155.371 84.2684 154.853 82.6197ZM162.6 80.188C163.489 83.0216 165.858 84.2588 168.091 83.5579C169.053 83.256 169.598 82.7077 169.953 82.2187C170.146 81.9317 170.299 81.6384 170.407 81.3215L170.493 81.2945L170.844 82.4108L173.248 81.6561L170.499 72.8975L168.094 73.6522L168.445 74.7685L168.359 74.7955C168.089 74.5972 167.796 74.444 167.473 74.3188C166.902 74.1209 166.142 73.9822 165.18 74.2841C162.947 74.985 161.71 77.3543 162.6 80.188ZM165.09 79.4062C164.572 77.7576 165.208 76.5391 166.428 76.1563C167.733 75.7466 168.952 76.3828 169.469 78.0315C169.987 79.6802 169.35 80.8987 168.045 81.3084C166.826 81.6912 165.607 81.0549 165.09 79.4062ZM173.953 81.4346L176.701 80.5721L177.684 76.4904L178.886 76.113L179.964 79.5478L182.369 78.793L181.29 75.3583L182.493 74.9809L185.632 77.7687L188.379 76.9061L183.977 73.0998L185.372 68.2284L182.71 69.064L181.588 73.0009L180.643 73.2974L179.619 70.0344L177.215 70.7892L178.239 74.0522L177.295 74.3487L174.124 71.7596L171.462 72.5952L175.39 75.7954L173.953 81.4346ZM186.861 72.572C187.669 75.1481 190.36 76.5674 193.039 75.7264C194.928 75.1333 195.802 74.0101 196.246 73.0217C196.496 72.434 196.609 71.8325 196.62 71.2065L194.044 72.0151C194 72.2364 193.916 72.4512 193.793 72.6597C193.548 73.0198 193.165 73.4229 192.392 73.6655C191.276 74.0159 190.052 73.3625 189.513 72.3055L196.382 70.1491L196.22 69.6339C195.417 67.075 192.876 65.59 190.128 66.4526C187.449 67.2936 186.052 69.996 186.861 72.572ZM189.14 70.8188C189.123 69.8621 189.658 68.8638 190.775 68.5134C191.891 68.163 192.906 68.6932 193.348 69.498L189.14 70.8188ZM198.895 73.6052L201.299 72.8504L200.221 69.4157L203.913 68.2566L204.991 71.6913L207.396 70.9366L204.646 62.178L202.242 62.9327L203.266 66.1957L199.574 67.3548L198.55 64.0918L196.145 64.8466L198.895 73.6052ZM209.14 70.3892L211.716 69.5805L213.565 63.1515L213.737 63.0976L214.136 64.6702L215.322 68.4484L217.726 67.6936L214.977 58.935L212.401 59.7437L210.552 66.1727L210.38 66.2266L209.98 64.654L208.794 60.8758L206.39 61.6306L209.14 70.3892ZM217.578 62.9293C218.387 65.5053 221.078 66.9246 223.757 66.0836C225.646 65.4906 226.519 64.3674 226.964 63.3789C227.213 62.7912 227.326 62.1898 227.337 61.5637L224.761 62.3724C224.717 62.5936 224.634 62.8085 224.511 63.017C224.265 63.377 223.883 63.7802 223.11 64.0228C221.993 64.3732 220.77 63.7198 220.23 62.6628L227.1 60.5064L226.938 59.9911C226.135 57.4323 223.593 55.9473 220.845 56.8098C218.166 57.6508 216.77 60.3532 217.578 62.9293ZM219.858 61.1761C219.84 60.2193 220.376 59.2211 221.492 58.8707C222.609 58.5203 223.624 59.0505 224.065 59.8552L219.858 61.1761Z" fill="#333A4A"/>
</g>
<path d="M32.8849 171.311C32.574 171.409 32.2606 171.439 31.9583 171.413L31.7807 173.405C32.3403 173.455 32.9178 173.397 33.4839 173.219L32.8849 171.311ZM30.3359 170.565C30.141 170.333 29.987 170.058 29.8894 169.747L27.9812 170.346C28.1589 170.912 28.442 171.419 28.8027 171.85L30.3359 170.565ZM29.8894 169.747L28.4934 165.3L26.5852 165.899L27.9812 170.346L29.8894 169.747ZM25.7014 156.406L22.9094 147.512L21.0012 148.111L23.7932 157.005L25.7014 156.406ZM20.1174 138.618L17.3254 129.723L15.4172 130.322L18.2092 139.217L20.1174 138.618ZM14.5333 120.829L11.7413 111.935L9.83314 112.534L12.6252 121.428L14.5333 120.829ZM8.94931 103.041L6.1573 94.1468L4.24911 94.7458L7.04112 103.64L8.94931 103.041ZM3.36528 85.2526L1.96928 80.8055L0.0610874 81.4045L1.4571 85.8516L3.36528 85.2526ZM1.96928 80.8055C1.87168 80.4946 1.84107 80.1812 1.86802 79.8789L-0.124073 79.7013C-0.173966 80.2609 -0.116621 80.8384 0.0610874 81.4045L1.96928 80.8055ZM2.71519 78.2565C2.94785 78.0616 3.22256 77.9076 3.53344 77.81L2.93443 75.9018C2.36833 76.0795 1.8616 76.3626 1.43093 76.7233L2.71519 78.2565ZM3.53344 77.81L8.17953 76.3515L7.58052 74.4433L2.93443 75.9018L3.53344 77.81ZM17.4717 73.4346L26.7639 70.5176L26.1649 68.6094L16.8727 71.5264L17.4717 73.4346ZM36.0561 67.6006L45.3483 64.6837L44.7493 62.7755L35.4571 65.6925L36.0561 67.6006ZM54.6405 61.7667L63.9326 58.8498L63.3336 56.9416L54.0414 59.8585L54.6405 61.7667ZM73.2248 55.9328L82.517 53.0158L81.918 51.1076L72.6258 54.0246L73.2248 55.9328ZM91.8092 50.0989L101.101 47.1819L100.502 45.2737L91.2102 48.1907L91.8092 50.0989ZM110.394 44.265L119.686 41.348L119.087 39.4398L109.795 42.3568L110.394 44.265ZM128.978 38.431L138.27 35.5141L137.671 33.6059L128.379 36.5229L128.978 38.431ZM147.562 32.5971L156.854 29.6801L156.255 27.772L146.963 30.6889L147.562 32.5971ZM166.147 26.7632L175.439 23.8462L174.84 21.938L165.548 24.855L166.147 26.7632ZM184.731 20.9293L194.023 18.0123L193.424 16.1041L184.132 19.0211L184.731 20.9293ZM203.315 15.0953L212.608 12.1784L212.009 10.2702L202.716 13.1872L203.315 15.0953ZM221.9 9.26141L231.192 6.34445L230.593 4.43626L221.301 7.35323L221.9 9.26141ZM240.484 3.42749L245.13 1.96903L244.531 0.0608407L239.885 1.5193L240.484 3.42749ZM245.13 1.96903C245.441 1.87144 245.755 1.84082 246.057 1.86777L246.234 -0.124325C245.675 -0.174216 245.097 -0.116872 244.531 0.0608407L245.13 1.96903ZM247.679 2.71494C247.874 2.94761 248.028 3.22231 248.126 3.5332L250.034 2.93419C249.856 2.36808 249.573 1.86136 249.212 1.43068L247.679 2.71494ZM248.126 3.5332L249.522 7.98028L251.43 7.38127L250.034 2.93419L248.126 3.5332ZM252.314 16.8744L255.106 25.7686L257.014 25.1696L254.222 16.2754L252.314 16.8744ZM257.898 34.6628L260.69 43.5569L262.598 42.9579L259.806 34.0637L257.898 34.6628ZM263.482 52.4511L266.274 61.3452L268.182 60.7462L265.39 51.8521L263.482 52.4511ZM269.066 70.2394L271.858 79.1336L273.766 78.5345L270.974 69.6404L269.066 70.2394ZM274.65 88.0277L276.046 92.4748L277.954 91.8758L276.558 87.4287L274.65 88.0277ZM276.046 92.4748C276.143 92.7857 276.174 93.0991 276.147 93.4014L278.139 93.579C278.189 93.0195 278.132 92.4419 277.954 91.8758L276.046 92.4748ZM275.3 95.0238C275.067 95.2187 274.793 95.3727 274.482 95.4703L275.081 97.3785C275.647 97.2008 276.154 96.9178 276.584 96.557L275.3 95.0238ZM274.482 95.4703L269.836 96.9288L270.435 98.837L275.081 97.3785L274.482 95.4703ZM260.543 99.8458L251.251 102.763L251.85 104.671L261.142 101.754L260.543 99.8458ZM241.959 105.68L232.667 108.597L233.266 110.505L242.558 107.588L241.959 105.68ZM223.375 111.514L214.083 114.431L214.682 116.339L223.974 113.422L223.375 111.514ZM204.79 117.348L195.498 120.264L196.097 122.173L205.389 119.256L204.79 117.348ZM186.206 123.181L176.914 126.098L177.513 128.007L186.805 125.09L186.206 123.181ZM167.622 129.015L158.329 131.932L158.928 133.841L168.221 130.924L167.622 129.015ZM149.037 134.849L139.745 137.766L140.344 139.674L149.636 136.757L149.037 134.849ZM130.453 140.683L121.161 143.6L121.76 145.508L131.052 142.591L130.453 140.683ZM111.868 146.517L102.576 149.434L103.175 151.342L112.467 148.425L111.868 146.517ZM93.2841 152.351L83.9919 155.268L84.5909 157.176L93.8831 154.259L93.2841 152.351ZM74.6997 158.185L65.4075 161.102L66.0065 163.01L75.2987 160.093L74.6997 158.185ZM56.1153 164.019L46.8232 166.936L47.4222 168.844L56.7144 165.927L56.1153 164.019ZM37.531 169.853L32.8849 171.311L33.4839 173.219L38.13 171.761L37.531 169.853ZM32.5854 170.357C32.4021 170.415 32.2208 170.432 32.0471 170.416L31.6919 174.401C32.3801 174.462 33.0897 174.391 33.7834 174.174L32.5854 170.357ZM31.1025 169.923C30.9906 169.79 30.9011 169.631 30.8435 169.448L27.0271 170.646C27.2449 171.339 27.5925 171.962 28.0361 172.492L31.1025 169.923ZM30.8435 169.448L29.4475 165.001L25.6311 166.199L27.0271 170.646L30.8435 169.448ZM26.6555 156.106L23.8635 147.212L20.0471 148.41L22.8391 157.304L26.6555 156.106ZM21.0715 138.318L18.2795 129.424L14.4631 130.622L17.2551 139.516L21.0715 138.318ZM15.4874 120.53L12.6954 111.636L8.87905 112.834L11.6711 121.728L15.4874 120.53ZM9.90341 102.741L7.11139 93.8473L3.29502 95.0453L6.08703 103.939L9.90341 102.741ZM4.31938 84.9531L2.92337 80.506L-0.893007 81.704L0.503001 86.1511L4.31938 84.9531ZM2.92337 80.506C2.86584 80.3227 2.84859 80.1414 2.86407 79.9677L-1.12012 79.6125C-1.18148 80.3007 -1.11077 81.0103 -0.893007 81.704L2.92337 80.506ZM3.35732 79.0231C3.49098 78.9111 3.64967 78.8216 3.83295 78.7641L2.63493 74.9477C1.94121 75.1655 1.31847 75.513 0.788798 75.9567L3.35732 79.0231ZM3.83295 78.7641L8.47904 77.3056L7.28102 73.4892L2.63493 74.9477L3.83295 78.7641ZM17.7712 74.3887L27.0634 71.4717L25.8654 67.6553L16.5732 70.5723L17.7712 74.3887ZM36.3556 68.5547L45.6478 65.6378L44.4498 61.8214L35.1576 64.7384L36.3556 68.5547ZM54.94 62.7208L64.2321 59.8039L63.0341 55.9875L53.7419 58.9044L54.94 62.7208ZM73.5243 56.8869L82.8165 53.9699L81.6185 50.1536L72.3263 53.0705L73.5243 56.8869ZM92.1087 51.053L101.401 48.136L100.203 44.3196L90.9107 47.2366L92.1087 51.053ZM110.693 45.2191L119.985 42.3021L118.787 38.4857L109.495 41.4027L110.693 45.2191ZM129.277 39.3851L138.57 36.4682L137.372 32.6518L128.079 35.5688L129.277 39.3851ZM147.862 33.5512L157.154 30.6342L155.956 26.8179L146.664 29.7348L147.862 33.5512ZM166.446 27.7173L175.738 24.8003L174.54 20.9839L165.248 23.9009L166.446 27.7173ZM185.031 21.8834L194.323 18.9664L193.125 15.15L183.833 18.067L185.031 21.8834ZM203.615 16.0494L212.907 13.1325L211.709 9.3161L202.417 12.2331L203.615 16.0494ZM222.199 10.2155L231.492 7.29855L230.293 3.48217L221.001 6.39913L222.199 10.2155ZM240.784 4.38159L245.43 2.92312L244.232 -0.893254L239.586 0.565206L240.784 4.38159ZM245.43 2.92312C245.613 2.86559 245.794 2.84834 245.968 2.86382L246.323 -1.12037C245.635 -1.18174 244.925 -1.11103 244.232 -0.893254L245.43 2.92312ZM246.913 3.35707C247.025 3.49074 247.114 3.64942 247.172 3.8327L250.988 2.63468C250.77 1.94097 250.423 1.31823 249.979 0.788553L246.913 3.35707ZM247.172 3.8327L248.568 8.27978L252.384 7.08176L250.988 2.63468L247.172 3.8327ZM251.36 17.1739L254.152 26.0681L257.968 24.8701L255.176 15.9759L251.36 17.1739ZM256.944 34.9623L259.736 43.8564L263.552 42.6584L260.76 33.7642L256.944 34.9623ZM262.528 52.7506L265.32 61.6447L269.136 60.4467L266.344 51.5526L262.528 52.7506ZM268.112 70.5389L270.904 79.4331L274.72 78.235L271.928 69.3409L268.112 70.5389ZM273.696 88.3272L275.092 92.7743L278.908 91.5763L277.512 87.1292L273.696 88.3272ZM275.092 92.7743C275.149 92.9576 275.167 93.139 275.151 93.3126L279.135 93.6679C279.197 92.9796 279.126 92.27 278.908 91.5763L275.092 92.7743ZM274.658 94.2572C274.524 94.3692 274.365 94.4587 274.182 94.5162L275.38 98.3326C276.074 98.1148 276.697 97.7673 277.226 97.3236L274.658 94.2572ZM274.182 94.5162L269.536 95.9747L270.734 99.7911L275.38 98.3326L274.182 94.5162ZM260.244 98.8917L250.952 101.809L252.15 105.625L261.442 102.708L260.244 98.8917ZM241.66 104.726L232.367 107.643L233.565 111.459L242.858 108.542L241.66 104.726ZM223.075 110.56L213.783 113.476L214.981 117.293L224.273 114.376L223.075 110.56ZM204.491 116.393L195.199 119.31L196.397 123.127L205.689 120.21L204.491 116.393ZM185.906 122.227L176.614 125.144L177.812 128.961L187.104 126.044L185.906 122.227ZM167.322 128.061L158.03 130.978L159.228 134.795L168.52 131.878L167.322 128.061ZM148.738 133.895L139.446 136.812L140.644 140.629L149.936 137.712L148.738 133.895ZM130.153 139.729L120.861 142.646L122.059 146.462L131.351 143.545L130.153 139.729ZM111.569 145.563L102.277 148.48L103.475 152.296L112.767 149.379L111.569 145.563ZM92.9846 151.397L83.6924 154.314L84.8904 158.13L94.1826 155.213L92.9846 151.397ZM74.4002 157.231L65.108 160.148L66.3061 163.964L75.5982 161.047L74.4002 157.231ZM55.8158 163.065L46.5237 165.982L47.7217 169.798L57.0139 166.881L55.8158 163.065ZM37.2315 168.899L32.5854 170.357L33.7834 174.174L38.4295 172.715L37.2315 168.899Z" fill="#6AB0FF"/>
<defs>
<filter id="filter0_d" x="37.97" y="86.8599" width="59.9647" height="48.4412" filterUnits="userSpaceOnUse" color-interpolation-filters="sRGB">
<feFlood flood-opacity="0" result="BackgroundImageFix"/>
<feColorMatrix in="SourceAlpha" type="matrix" values="0 0 0 0 0 0 0 0 0 0 0 0 0 0 0 0 0 0 127 0" result="hardAlpha"/>
<feOffset dx="3.25" dy="3.25"/>
<feColorMatrix type="matrix" values="0 0 0 0 0.2 0 0 0 0 0.227451 0 0 0 0 0.290196 0 0 0 1 0"/>
<feBlend mode="normal" in2="BackgroundImageFix" result="effect1_dropShadow"/>
<feBlend mode="normal" in="SourceGraphic" in2="effect1_dropShadow" result="shape"/>
</filter>
<clipPath id="clip0">
<path d="M1.01518 81.105C0.454512 79.319 1.44788 77.4166 3.23394 76.8559L244.831 1.01494C246.617 0.454259 248.519 1.44764 249.08 3.23369L277 92.1753C277.561 93.9613 276.567 95.8637 274.781 96.4244L33.1844 172.265C31.3984 172.826 29.496 171.833 28.9353 170.047L1.01518 81.105Z" fill="white"/>
</clipPath>
<clipPath id="clip1">
<rect width="65" height="65" fill="white" transform="translate(26.2314 87.9785) rotate(-17.4279)"/>
</clipPath>
</defs>
</svg>
