<svg width="276" height="151" viewBox="0 0 276 151" fill="none" xmlns="http://www.w3.org/2000/svg">
<path d="M1.31106 55.985C0.936474 54.1509 2.11967 52.3604 3.95379 51.9858L252.053 1.31615C253.888 0.94156 255.678 2.12476 256.053 3.95888L274.706 95.2945C275.081 97.1286 273.898 98.9191 272.064 99.2937L23.9638 149.963C22.1297 150.338 20.3392 149.155 19.9646 147.321L1.31106 55.985Z" fill="white"/>
<g clip-path="url(#clip0)">
<g filter="url(#filter0_d)">
<mask id="path-3-inside-1" fill="white">
<rect x="35.5752" y="79.9741" width="50.1042" height="32.5" rx="1.625" transform="rotate(-11.5428 35.5752 79.9741)"/>
</mask>
<rect x="35.5752" y="79.9741" width="50.1042" height="32.5" rx="1.625" transform="rotate(-11.5428 35.5752 79.9741)" fill="white"/>
<rect x="35.5752" y="79.9741" width="50.1042" height="32.5" rx="1.625" transform="rotate(-11.5428 35.5752 79.9741)" stroke="#333A4A" stroke-width="4" mask="url(#path-3-inside-1)"/>
</g>
<path d="M86.7404 90.2564L78.9455 85.3252C78.3316 84.9341 77.5006 85.1038 77.0892 85.7043L69.4075 96.9182L64.2314 93.6203C63.6176 93.2292 62.7865 93.399 62.3751 93.9995L52.2863 107.659L88.7727 100.207L86.7404 90.2564Z" fill="#1ABF7E"/>
<ellipse cx="53.1363" cy="88.1358" rx="4.73958" ry="4.73958" transform="rotate(-11.5428 53.1363 88.1358)" fill="#FFAA00"/>
</g>
<path d="M109.883 86.9977L113.145 86.3314L116.407 76.6633L116.583 76.6273L116.713 78.1623L118.171 85.3049L120.817 84.7646L118.296 72.4195L115.033 73.0858L111.772 82.7539L111.595 82.7899L111.465 81.2549L110.007 74.1123L107.361 74.6526L109.883 86.9977ZM121.564 81.5807C121.806 82.1375 122.144 82.6197 122.594 83.0239C123.355 83.695 124.593 84.2689 126.533 83.8727C129.355 83.2964 130.231 81.7396 129.925 80.2406C129.738 79.3235 129.185 78.8668 128.676 78.6218C128.372 78.4818 128.064 78.416 127.711 78.3963L127.693 78.3081C127.979 78.1763 128.222 78.0165 128.418 77.8109C128.77 77.4635 129.061 76.9081 128.902 76.1321C128.632 74.8094 127.145 73.827 124.588 74.3493C122.754 74.7239 121.9 75.6699 121.466 76.5118C121.217 77.0035 121.068 77.5301 121.038 78.1057L123.507 77.6014C123.506 77.4179 123.562 77.2411 123.657 77.0748C123.814 76.7671 124.12 76.4658 124.808 76.3253C125.866 76.1092 126.397 76.46 126.487 76.9009C126.613 77.5182 126.333 77.9429 125.274 78.159L124.216 78.3752L124.576 80.1388L125.723 79.9046C126.869 79.6705 127.294 79.9512 127.42 80.5685C127.532 81.1152 127.177 81.6285 126.119 81.8446C125.325 82.0067 124.809 81.8181 124.487 81.59C124.296 81.4637 124.15 81.2913 124.033 81.0764L121.564 81.5807ZM130.333 78.1364C130.873 80.7818 133.404 82.4695 136.244 81.8896C139.048 81.3169 140.749 78.7647 140.209 76.1193C139.669 73.474 137.103 71.7935 134.299 72.3661C131.459 72.946 129.793 75.491 130.333 78.1364ZM132.89 77.6141C132.566 76.0269 133.408 74.7526 134.731 74.4825C136.054 74.2123 137.328 75.0544 137.652 76.6416C137.976 78.2288 137.134 79.5031 135.811 79.7732C134.489 80.0434 133.214 79.2013 132.89 77.6141ZM140.99 75.3169C141.671 78.6501 144.134 80.278 146.762 79.7414C149.584 79.1651 151.039 76.8469 150.535 74.3779C150.045 71.9794 147.943 70.59 145.632 71.0619C144.645 71.2636 144.04 71.7179 143.66 72.1077C143.435 72.3558 143.263 72.593 143.151 72.8547L143.063 72.8727C142.751 70.8971 143.72 69.4317 146.206 68.9238L148.499 68.4556L148.067 66.3393L145.51 66.8615C141.63 67.6539 139.982 70.3788 140.99 75.3169ZM143.745 75.7646C143.472 74.4243 144.159 73.3836 145.411 73.1279C146.664 72.8721 147.704 73.5598 147.978 74.9002C148.266 76.311 147.582 77.3693 146.33 77.625C145.078 77.8808 144.033 77.1755 143.745 75.7646ZM153.317 81.6178L155.786 81.1135L154.867 76.6163L154.955 76.5983C155.203 76.8232 155.479 77.0057 155.787 77.1633C156.335 77.4188 157.078 77.6346 158.065 77.4329C160.358 76.9647 161.832 74.7347 161.237 71.8248C160.643 68.9148 158.413 67.4413 156.12 67.9095C155.133 68.1112 154.535 68.6008 154.13 69.0507C153.909 69.3164 153.727 69.5925 153.587 69.8967L153.498 69.9147L153.264 68.7683L150.795 69.2726L153.317 81.6178ZM154.183 73.2655C153.837 71.5724 154.595 70.4256 155.935 70.1519C157.187 69.8961 158.334 70.654 158.68 72.347C159.026 74.0401 158.268 75.1869 157.016 75.4427C155.675 75.7164 154.529 74.9586 154.183 73.2655ZM162.138 71.6408C162.732 74.5508 164.962 76.0243 167.255 75.5561C168.242 75.3544 168.841 74.8648 169.245 74.4149C169.466 74.1492 169.648 73.8731 169.788 73.5689L169.877 73.5509L170.111 74.6973L172.58 74.193L170.743 65.1987L168.274 65.7029L168.508 66.8493L168.42 66.8673C168.172 66.6424 167.896 66.4599 167.588 66.3023C167.04 66.0468 166.297 65.831 165.31 66.0327C163.017 66.5009 161.544 68.7309 162.138 71.6408ZM164.695 71.1186C164.349 69.4255 165.107 68.2787 166.359 68.0229C167.7 67.7492 168.846 68.5071 169.192 70.2001C169.538 71.8932 168.78 73.04 167.44 73.3137C166.188 73.5695 165.041 72.8116 164.695 71.1186ZM173.304 74.0451L176.126 73.4688L177.522 69.5094L178.756 69.2573L179.477 72.7845L181.946 72.2802L181.225 68.753L182.46 68.5009L185.297 71.5959L188.118 71.0196L184.13 66.782L186.017 62.0793L183.283 62.6375L181.763 66.4386L180.793 66.6367L180.109 63.2859L177.64 63.7901L178.324 67.1409L177.354 67.339L174.465 64.4384L171.732 64.9967L175.312 68.5829L173.304 74.0451ZM187.052 66.5526C187.592 69.198 190.123 70.8857 192.874 70.3238C194.814 69.9276 195.799 68.8999 196.342 67.9622C196.65 67.4032 196.824 66.8165 196.9 66.1948L194.254 66.7351C194.188 66.9507 194.083 67.1559 193.939 67.3506C193.658 67.6836 193.236 68.0454 192.442 68.2075C191.296 68.4416 190.145 67.6661 189.717 66.5594L196.772 65.1187L196.664 64.5896C196.127 61.9618 193.751 60.2241 190.929 60.8004C188.178 61.3623 186.512 63.9072 187.052 66.5526ZM189.499 65.0423C189.58 64.0889 190.215 63.1508 191.362 62.9167C192.508 62.6826 193.464 63.3141 193.82 64.1599L189.499 65.0423ZM198.917 68.8142L201.386 68.3099L200.665 64.7827L204.457 64.0084L205.178 67.5355L207.647 67.0313L205.81 58.037L203.341 58.5412L204.025 61.892L200.233 62.6664L199.549 59.3156L197.08 59.8198L198.917 68.8142ZM209.437 66.6656L212.083 66.1253L214.581 59.9198L214.758 59.8838L214.994 61.489L215.786 65.3689L218.255 64.8647L216.418 55.8703L213.773 56.4106L211.274 62.6161L211.098 62.6521L210.862 61.0469L210.069 57.167L207.6 57.6712L209.437 66.6656ZM218.596 60.1102C219.137 62.7556 221.668 64.4433 224.419 63.8815C226.359 63.4853 227.343 62.4575 227.886 61.5198C228.195 60.9608 228.369 60.3741 228.444 59.7525L225.799 60.2928C225.732 60.5084 225.627 60.7136 225.483 60.9083C225.202 61.2413 224.78 61.6031 223.987 61.7651C222.84 61.9993 221.69 61.2238 221.262 60.1171L228.316 58.6763L228.208 58.1473C227.671 55.5195 225.296 53.7817 222.474 54.358C219.723 54.9199 218.056 57.4648 218.596 60.1102ZM221.044 58.6C221.125 57.6465 221.76 56.7085 222.906 56.4744C224.052 56.2402 225.008 56.8718 225.365 57.7175L221.044 58.6Z" fill="#333A4A"/>
<path d="M4.35399 53.9454L252.454 3.2757L251.653 -0.6434L3.55359 50.0263L4.35399 53.9454ZM254.093 4.35909L272.747 95.6947L276.666 94.8943L258.012 3.55868L254.093 4.35909ZM271.663 97.3341L23.5636 148.004L24.364 151.923L272.464 101.253L271.663 97.3341ZM21.9242 146.92L3.27061 55.5848L-0.648491 56.3852L18.0051 147.721L21.9242 146.92ZM23.5636 148.004C22.8118 148.157 22.0777 147.672 21.9242 146.92L18.0051 147.721C18.6007 150.637 21.4477 152.519 24.364 151.923L23.5636 148.004ZM272.747 95.6947C272.9 96.4466 272.415 97.1806 271.663 97.3341L272.464 101.253C275.38 100.658 277.261 97.8106 276.666 94.8943L272.747 95.6947ZM252.454 3.2757C253.206 3.12214 253.94 3.60718 254.093 4.35909L258.012 3.55868C257.417 0.642338 254.57 -1.23901 251.653 -0.6434L252.454 3.2757ZM3.55359 50.0263C0.637236 50.6219 -1.2441 53.4689 -0.648491 56.3852L3.27061 55.5848C3.11705 54.8329 3.6021 54.0989 4.35399 53.9454L3.55359 50.0263Z" fill="#333A4A"/>
<defs>
<filter id="filter0_d" x="35.8672" y="70.2402" width="58.2601" height="44.5346" filterUnits="userSpaceOnUse" color-interpolation-filters="sRGB">
<feFlood flood-opacity="0" result="BackgroundImageFix"/>
<feColorMatrix in="SourceAlpha" type="matrix" values="0 0 0 0 0 0 0 0 0 0 0 0 0 0 0 0 0 0 127 0" result="hardAlpha"/>
<feOffset dx="3.25" dy="3.25"/>
<feColorMatrix type="matrix" values="0 0 0 0 0.2 0 0 0 0 0.227451 0 0 0 0 0.290196 0 0 0 1 0"/>
<feBlend mode="normal" in2="BackgroundImageFix" result="effect1_dropShadow"/>
<feBlend mode="normal" in="SourceGraphic" in2="effect1_dropShadow" result="shape"/>
</filter>
<clipPath id="clip0">
<rect width="65" height="65" fill="white" transform="translate(25.6897 65.4077) rotate(-11.5428)"/>
</clipPath>
</defs>
</svg>
