<?xml version="1.0" encoding="utf-8"?>
<!-- Generator: Adobe Illustrator 25.0.0, SVG Export Plug-In . SVG Version: 6.00 Build 0)  -->
<svg version="1.1" id="Слой_1" xmlns="http://www.w3.org/2000/svg" xmlns:xlink="http://www.w3.org/1999/xlink" x="0px" y="0px"
	 viewBox="0 0 260 202" style="enable-background:new 0 0 260 202;" xml:space="preserve">
<style type="text/css">
	.st0{fill:#FFFFFF;}
	.st1{fill:#FFFFFF;filter:url(#Adobe_OpacityMaskFilter);}
	.st2{mask:url(#path-3-inside-1_1_);fill:none;stroke:#333A4A;stroke-width:2.9355;stroke-miterlimit:4;}
	.st3{fill:#1ABF7E;}
	.st4{fill:#FFAA00;}
	.st5{fill:#333A4A;}
	.st6{fill:#6AB0FF;}
	.st7{fill:#FFFFFF;filter:url(#Adobe_OpacityMaskFilter_1_);}
	.st8{mask:url(#path-9-inside-2_1_);fill:none;stroke:#333A4A;stroke-width:2.9355;stroke-miterlimit:4;}
	.st9{clip-path:url(#SVGID_2_);}
	.st10{fill:#E2E7EE;}
	.st11{fill:#A6AFC0;}
	.st12{fill:#262B37;}
</style>
<path class="st0" d="M10.9,64c0-1.4,1-2.5,2.4-2.6L199,55.3c1.4,0,2.5,1,2.6,2.4l2.3,68.4c0,1.4-1,2.5-2.4,2.6l-185.7,6.2
	c-1.4,0-2.5-1-2.6-2.4L10.9,64z"/>
<g>
	<path class="st0" d="M44.3,86.5l34.2-1.1c0.7,0,1.2,0.5,1.2,1.2l0.7,21.4c0,0.7-0.5,1.2-1.2,1.2l-34.2,1.1c-0.7,0-1.2-0.5-1.2-1.2
		l-0.7-21.4C43.1,87.1,43.6,86.5,44.3,86.5z"/>
	<defs>
		<filter id="Adobe_OpacityMaskFilter" filterUnits="userSpaceOnUse" x="41.7" y="83.9" width="40.2" height="27.8">
			<feColorMatrix  type="matrix" values="1 0 0 0 0  0 1 0 0 0  0 0 1 0 0  0 0 0 1 0"/>
		</filter>
	</defs>
	<mask maskUnits="userSpaceOnUse" x="41.7" y="83.9" width="40.2" height="27.8" id="path-3-inside-1_1_">
		<path class="st1" d="M44.3,86.5l34.2-1.1c0.7,0,1.2,0.5,1.2,1.2l0.7,21.4c0,0.7-0.5,1.2-1.2,1.2l-34.2,1.1c-0.7,0-1.2-0.5-1.2-1.2
			l-0.7-21.4C43.1,87.1,43.6,86.5,44.3,86.5z"/>
	</mask>
	<path class="st2" d="M44.3,86.5l34.2-1.1c0.7,0,1.2,0.5,1.2,1.2l0.7,21.4c0,0.7-0.5,1.2-1.2,1.2l-34.2,1.1c-0.7,0-1.2-0.5-1.2-1.2
		l-0.7-21.4C43.1,87.1,43.6,86.5,44.3,86.5z"/>
</g>
<path class="st3" d="M78.7,100.2l-5-4.5c-0.4-0.4-1-0.3-1.4,0l-6.9,7.1l-3.3-3c-0.4-0.4-1-0.3-1.4,0l-8.9,8.6l27.2-0.9L78.7,100.2z"
	/>
<ellipse transform="matrix(0.9978 -6.600185e-02 6.600185e-02 0.9978 -6.1242 3.8202)" class="st4" cx="54.8" cy="94.6" rx="3.5" ry="3.5"/>
<path class="st5" d="M95.8,101.2l2.4-0.1l3.5-6.6l0.1,0l-0.1,1.1l0.2,5.3l2-0.1l-0.3-9.2l-2.4,0.1l-3.5,6.6l-0.1,0l0.1-1.1l-0.2-5.3
	l-2,0.1L95.8,101.2z M104.9,98.7c0.1,0.4,0.3,0.8,0.6,1.2c0.5,0.6,1.3,1.1,2.7,1.1c2.1-0.1,2.9-1.1,2.9-2.2c0-0.7-0.4-1.1-0.7-1.3
	c-0.2-0.1-0.4-0.2-0.7-0.3l0-0.1c0.2-0.1,0.4-0.1,0.6-0.3c0.3-0.2,0.6-0.6,0.6-1.2c0-1-1-1.9-2.9-1.8c-1.4,0-2.1,0.6-2.5,1.2
	c-0.2,0.3-0.4,0.7-0.5,1.1l1.8-0.1c0-0.1,0.1-0.3,0.2-0.4c0.2-0.2,0.4-0.4,0.9-0.4c0.8,0,1.1,0.3,1.1,0.6c0,0.5-0.2,0.7-1,0.8
	l-0.8,0l0,1.3l0.9,0c0.9,0,1.1,0.2,1.1,0.7c0,0.4-0.3,0.7-1.1,0.8c-0.6,0-0.9-0.2-1.1-0.4c-0.1-0.1-0.2-0.3-0.3-0.4L104.9,98.7z
	 M111.6,97.3c0.1,2,1.7,3.5,3.8,3.4c2.1-0.1,3.6-1.7,3.6-3.7c-0.1-2-1.7-3.5-3.8-3.4C113.1,93.7,111.5,95.3,111.6,97.3z M113.5,97.2
	c0-1.2,0.7-2,1.7-2c1,0,1.8,0.7,1.8,1.9c0,1.2-0.7,2-1.7,2C114.4,99.2,113.6,98.4,113.5,97.2z M119.6,96.6c0.1,2.5,1.7,4,3.6,3.9
	c2.1-0.1,3.4-1.6,3.4-3.4c-0.1-1.8-1.4-3-3.1-3c-0.7,0-1.2,0.3-1.5,0.5c-0.2,0.2-0.3,0.3-0.5,0.5l-0.1,0c0-1.5,0.9-2.4,2.7-2.5
	l1.7-0.1l-0.1-1.6l-1.9,0.1C121,91.1,119.5,92.9,119.6,96.6z M121.6,97.2c0-1,0.6-1.7,1.5-1.7c0.9,0,1.6,0.6,1.6,1.6
	c0,1.1-0.6,1.7-1.5,1.8C122.3,98.9,121.6,98.3,121.6,97.2z M127.7,102.6l1.8-0.1l-0.1-3.4l0.1,0c0.2,0.2,0.3,0.4,0.5,0.5
	c0.4,0.3,0.9,0.5,1.6,0.5c1.7-0.1,3-1.5,3-3.7c-0.1-2.2-1.5-3.5-3.2-3.4c-0.7,0-1.2,0.3-1.6,0.6c-0.2,0.2-0.4,0.3-0.5,0.5l-0.1,0
	l0-0.9l-1.8,0.1L127.7,102.6z M129.4,96.7c0-1.3,0.6-2,1.6-2c0.9,0,1.7,0.7,1.7,1.9c0,1.3-0.6,2-1.6,2
	C130.2,98.7,129.4,98,129.4,96.7z M135.3,96.5c0.1,2.2,1.5,3.5,3.2,3.4c0.7,0,1.2-0.3,1.6-0.6c0.2-0.2,0.4-0.3,0.5-0.5l0.1,0l0,0.9
	l1.8-0.1l-0.2-6.7l-1.8,0.1l0,0.9l-0.1,0c-0.2-0.2-0.3-0.4-0.5-0.5c-0.4-0.3-0.9-0.5-1.6-0.5C136.6,92.9,135.2,94.4,135.3,96.5z
	 M137.2,96.5c0-1.3,0.6-2,1.6-2c1,0,1.7,0.7,1.8,1.9c0,1.3-0.6,2-1.6,2C138,98.4,137.3,97.7,137.2,96.5z M143.1,99.6l2.1-0.1
	l1.5-2.7l0.9,0l0.1,2.6l1.8-0.1l-0.1-2.6l0.9,0l1.7,2.6l2.1-0.1l-2.4-3.5l1.9-3.2l-2,0.1l-1.6,2.6l-0.7,0l-0.1-2.5l-1.8,0.1l0.1,2.5
	l-0.7,0l-1.7-2.4l-2,0.1l2.1,3L143.1,99.6z M153.9,95.9c0.1,2,1.7,3.5,3.7,3.4c1.4,0,2.3-0.7,2.8-1.3c0.3-0.4,0.5-0.8,0.6-1.2
	l-2,0.1c-0.1,0.1-0.2,0.3-0.3,0.4c-0.2,0.2-0.6,0.4-1.2,0.4c-0.9,0-1.6-0.7-1.8-1.5l5.3-0.2l0-0.4c-0.1-2-1.6-3.5-3.7-3.4
	C155.3,92.3,153.8,93.9,153.9,95.9z M155.8,95.1c0.2-0.7,0.7-1.3,1.6-1.3c0.9,0,1.5,0.5,1.6,1.2L155.8,95.1z M162.2,99l1.8-0.1
	l-0.1-2.6l2.8-0.1l0.1,2.6l1.8-0.1l-0.2-6.7l-1.8,0.1l0.1,2.5l-2.8,0.1l-0.1-2.5l-1.8,0.1L162.2,99z M170,98.7l2-0.1l2.6-4.2l0.1,0
	l0,1.2l0.1,2.9l1.8-0.1l-0.2-6.7l-2,0.1l-2.6,4.2l-0.1,0l0-1.2l-0.1-2.9l-1.8,0.1L170,98.7z M177.4,95.1c0.1,2,1.7,3.5,3.7,3.4
	c1.4,0,2.3-0.7,2.8-1.3c0.3-0.4,0.5-0.8,0.6-1.2l-2,0.1c-0.1,0.1-0.2,0.3-0.3,0.4c-0.2,0.2-0.6,0.4-1.2,0.4c-0.9,0-1.6-0.7-1.8-1.5
	l5.3-0.2l0-0.4c-0.1-2-1.6-3.5-3.7-3.4C178.9,91.5,177.3,93.2,177.4,95.1z M179.4,94.3c0.2-0.7,0.7-1.3,1.6-1.3
	c0.9,0,1.5,0.5,1.6,1.2L179.4,94.3z"/>
<g>
	<path class="st6" d="M24.5,134c-0.1-0.2-0.1-0.4-0.2-0.7l-1.5,0c0,0.4,0.1,0.8,0.3,1.2L24.5,134z M24.3,133.3l-0.1-3.4l-1.5,0
		l0.1,3.4L24.3,133.3z M24,123l-0.2-6.8l-1.5,0l0.2,6.8L24,123z M23.6,109.4l-0.2-6.8l-1.5,0l0.2,6.8L23.6,109.4z M23.1,95.7
		l-0.2-6.8l-1.5,0l0.2,6.8L23.1,95.7z M22.6,82l-0.2-6.8l-1.5,0l0.2,6.8L22.6,82z M22.2,68.3l-0.1-3.4l-1.5,0l0.1,3.4L22.2,68.3z
		 M22.1,64.9c0-0.2,0-0.5,0.1-0.7l-1.4-0.5c-0.1,0.4-0.2,0.8-0.2,1.2L22.1,64.9z M23.1,63.3c0.2-0.1,0.4-0.1,0.7-0.2l0-1.5
		c-0.4,0-0.8,0.1-1.2,0.3L23.1,63.3z M23.8,63.1l3.6-0.1l0-1.5l-3.6,0.1L23.8,63.1z M34.5,62.8l7.1-0.2l0-1.5l-7.1,0.2L34.5,62.8z
		 M48.8,62.3l7.1-0.2l0-1.5l-7.1,0.2L48.8,62.3z M63.1,61.8l7.1-0.2l0-1.5L63,60.3L63.1,61.8z M77.3,61.3l7.1-0.2l0-1.5l-7.1,0.2
		L77.3,61.3z M91.6,60.9l7.1-0.2l0-1.5l-7.1,0.2L91.6,60.9z M105.9,60.4l7.1-0.2l0-1.5l-7.1,0.2L105.9,60.4z M120.2,59.9l7.1-0.2
		l0-1.5l-7.1,0.2L120.2,59.9z M134.5,59.4l7.1-0.2l0-1.5l-7.1,0.2L134.5,59.4z M148.8,59l7.1-0.2l0-1.5l-7.1,0.2L148.8,59z
		 M163.1,58.5l7.1-0.2l0-1.5L163,57L163.1,58.5z M177.4,58l7.1-0.2l0-1.5l-7.1,0.2L177.4,58z M191.7,57.5l7.1-0.2l0-1.5l-7.1,0.2
		L191.7,57.5z M205.9,57.1l3.6-0.1l0-1.5l-3.6,0.1L205.9,57.1z M209.5,57c0.2,0,0.5,0,0.7,0.1l0.5-1.4c-0.4-0.1-0.8-0.2-1.2-0.2
		L209.5,57z M211.2,58c0.1,0.2,0.1,0.4,0.2,0.7l1.5,0c0-0.4-0.1-0.8-0.3-1.2L211.2,58z M211.3,58.6l0.1,3.4l1.5,0l-0.1-3.4
		L211.3,58.6z M211.7,68.9l0.2,6.8l1.5,0l-0.2-6.8L211.7,68.9z M212.1,82.6l0.2,6.8l1.5,0l-0.2-6.8L212.1,82.6z M212.6,96.3l0.2,6.8
		l1.5,0l-0.2-6.8L212.6,96.3z M213,109.9l0.2,6.8l1.5,0l-0.2-6.8L213,109.9z M213.5,123.6l0.1,3.4l1.5,0l-0.1-3.4L213.5,123.6z
		 M213.6,127c0,0.2,0,0.5-0.1,0.7l1.4,0.5c0.1-0.4,0.2-0.8,0.2-1.2L213.6,127z M212.6,128.7c-0.2,0.1-0.4,0.1-0.7,0.2l0,1.5
		c0.4,0,0.8-0.1,1.2-0.3L212.6,128.7z M211.9,128.8l-3.6,0.1l0,1.5l3.6-0.1L211.9,128.8z M201.2,129.2l-7.1,0.2l0,1.5l7.1-0.2
		L201.2,129.2z M186.9,129.7l-7.1,0.2l0,1.5l7.1-0.2L186.9,129.7z M172.6,130.1l-7.1,0.2l0,1.5l7.1-0.2L172.6,130.1z M158.3,130.6
		l-7.1,0.2l0,1.5l7.1-0.2L158.3,130.6z M144,131.1l-7.1,0.2l0,1.5l7.1-0.2L144,131.1z M129.7,131.6l-7.1,0.2l0,1.5l7.1-0.2
		L129.7,131.6z M115.5,132l-7.1,0.2l0,1.5l7.1-0.2L115.5,132z M101.2,132.5l-7.1,0.2l0,1.5l7.1-0.2L101.2,132.5z M86.9,133l-7.1,0.2
		l0,1.5l7.1-0.2L86.9,133z M72.6,133.5l-7.1,0.2l0,1.5l7.1-0.2L72.6,133.5z M58.3,133.9l-7.1,0.2l0,1.5l7.1-0.2L58.3,133.9z
		 M44,134.4l-7.1,0.2l0,1.5l7.1-0.2L44,134.4z M29.7,134.9l-3.6,0.1l0,1.5l3.6-0.1L29.7,134.9z M24.7,123l-0.2-6.8l-2.9,0.1l0.2,6.8
		L24.7,123z M24.3,109.3l-0.2-6.8l-2.9,0.1l0.2,6.8L24.3,109.3z M23.8,63.8l3.6-0.1l-0.1-2.9l-3.6,0.1L23.8,63.8z M34.5,63.5
		l7.1-0.2l-0.1-2.9l-7.1,0.2L34.5,63.5z M48.8,63l7.1-0.2l-0.1-2.9l-7.1,0.2L48.8,63z M63.1,62.5l7.1-0.2l-0.1-2.9L63,59.6
		L63.1,62.5z M77.4,62.1l7.1-0.2l-0.1-2.9l-7.1,0.2L77.4,62.1z M91.7,61.6l7.1-0.2l-0.1-2.9l-7.1,0.2L91.7,61.6z M105.9,61.1
		l7.1-0.2L113,58l-7.1,0.2L105.9,61.1z M120.2,60.6l7.1-0.2l-0.1-2.9l-7.1,0.2L120.2,60.6z M210.9,68.9l0.2,6.8l2.9-0.1l-0.2-6.8
		L210.9,68.9z M211.4,82.6l0.2,6.8l2.9-0.1l-0.2-6.8L211.4,82.6z M211.8,96.3l0.2,6.8l2.9-0.1l-0.2-6.8L211.8,96.3z M212.3,110
		l0.2,6.8l2.9-0.1l-0.2-6.8L212.3,110z M212.7,123.6l0.1,3.4l2.9-0.1l-0.1-3.4L212.7,123.6z M212.9,127.1c0,0.1,0,0.3-0.1,0.4l2.7,1
		c0.2-0.5,0.3-1,0.2-1.5L212.9,127.1z M212.3,128c-0.1,0.1-0.2,0.1-0.4,0.1l0.1,2.9c0.5,0,1-0.1,1.5-0.3L212.3,128z M211.9,128.1
		l-3.6,0.1l0.1,2.9l3.6-0.1L211.9,128.1z M201.2,128.5l-7.1,0.2l0.1,2.9l7.1-0.2L201.2,128.5z M186.9,128.9l-7.1,0.2l0.1,2.9
		l7.1-0.2L186.9,128.9z M172.6,129.4l-7.1,0.2l0.1,2.9l7.1-0.2L172.6,129.4z M158.3,129.9l-7.1,0.2l0.1,2.9l7.1-0.2L158.3,129.9z
		 M144,130.4l-7.1,0.2l0.1,2.9l7.1-0.2L144,130.4z"/>
</g>
<path class="st0" d="M25.4,53.9c0.1-1.4,1.3-2.4,2.6-2.3l185.4,12.9c1.4,0.1,2.4,1.3,2.3,2.6l-4.8,68.3c-0.1,1.4-1.3,2.4-2.6,2.3
	L22.9,124.8c-1.4-0.1-2.4-1.3-2.3-2.7L25.4,53.9z"/>
<g>
	<path class="st0" d="M46,77.7L80.3,80c0.7,0,1.2,0.6,1.1,1.3l-1.5,21.4c0,0.7-0.6,1.2-1.3,1.1l-34.2-2.4c-0.7,0-1.2-0.6-1.1-1.3
		l1.5-21.4C44.8,78.1,45.4,77.6,46,77.7z"/>
	<defs>
		<filter id="Adobe_OpacityMaskFilter_1_" filterUnits="userSpaceOnUse" x="41.8" y="76.2" width="41" height="29.1">
			<feColorMatrix  type="matrix" values="1 0 0 0 0  0 1 0 0 0  0 0 1 0 0  0 0 0 1 0"/>
		</filter>
	</defs>
	<mask maskUnits="userSpaceOnUse" x="41.8" y="76.2" width="41" height="29.1" id="path-9-inside-2_1_">
		<path class="st7" d="M46,77.7L80.3,80c0.7,0,1.2,0.6,1.1,1.3l-1.5,21.4c0,0.7-0.6,1.2-1.3,1.1l-34.2-2.4c-0.7,0-1.2-0.6-1.1-1.3
			l1.5-21.4C44.8,78.1,45.4,77.6,46,77.7z"/>
	</mask>
	<path class="st8" d="M46,77.7L80.3,80c0.7,0,1.2,0.6,1.1,1.3l-1.5,21.4c0,0.7-0.6,1.2-1.3,1.1l-34.2-2.4c-0.7,0-1.2-0.6-1.1-1.3
		l1.5-21.4C44.8,78.1,45.4,77.6,46,77.7z"/>
</g>
<path class="st3" d="M78.9,94.9l-4.5-5c-0.4-0.4-1-0.4-1.4-0.1l-7.6,6.4l-3-3.3c-0.4-0.4-1-0.4-1.4-0.1l-9.8,7.7l27.2,1.9L78.9,94.9
	z"/>
<ellipse transform="matrix(0.1364 -0.9907 0.9907 0.1364 -37.909 130.0639)" class="st4" cx="55.6" cy="86.8" rx="3.5" ry="3.5"/>
<path class="st5" d="M95.9,97.6l2.4,0.2l4.2-6.2l0.1,0l-0.2,1.1l-0.4,5.3l2,0.1l0.6-9.2l-2.4-0.2L98,94.9l-0.1,0l0.2-1.1l0.4-5.3
	l-2-0.1L95.9,97.6z M105.2,96c0.1,0.4,0.2,0.8,0.4,1.2c0.4,0.6,1.2,1.3,2.6,1.4c2.1,0.1,3-0.8,3.1-1.9c0-0.7-0.3-1.1-0.6-1.4
	c-0.2-0.2-0.4-0.3-0.6-0.3l0-0.1c0.2,0,0.4-0.1,0.6-0.2c0.3-0.2,0.6-0.5,0.7-1.1c0.1-1-0.8-2-2.7-2.1c-1.4-0.1-2.2,0.4-2.6,0.9
	c-0.3,0.3-0.5,0.6-0.6,1l1.8,0.1c0-0.1,0.1-0.2,0.2-0.3c0.2-0.2,0.4-0.3,1-0.3c0.8,0.1,1.1,0.4,1.1,0.7c0,0.5-0.3,0.7-1.1,0.7
	l-0.8-0.1l-0.1,1.3l0.9,0.1c0.9,0.1,1.1,0.3,1.1,0.8c0,0.4-0.4,0.7-1.2,0.6c-0.6,0-0.9-0.3-1.1-0.5c-0.1-0.1-0.2-0.3-0.2-0.5
	L105.2,96z M112,95.3c-0.1,2,1.3,3.7,3.4,3.8c2.1,0.1,3.8-1.3,3.9-3.3c0.1-2-1.3-3.7-3.4-3.8C113.9,91.9,112.2,93.3,112,95.3z
	 M114,95.5c0.1-1.2,0.9-1.9,1.9-1.8c1,0.1,1.7,0.9,1.6,2.1c-0.1,1.2-0.9,1.9-1.9,1.8C114.6,97.5,113.9,96.6,114,95.5z M120.1,95.4
	c-0.2,2.5,1.2,4.1,3.2,4.3c2.1,0.1,3.6-1.2,3.7-3c0.1-1.8-1.1-3.2-2.8-3.3c-0.7-0.1-1.3,0.2-1.6,0.4c-0.2,0.1-0.4,0.3-0.5,0.4
	l-0.1,0c0.2-1.5,1.1-2.3,3-2.2l1.7,0.1l0.1-1.6l-1.9-0.1C122.1,90.1,120.4,91.7,120.1,95.4z M122,96.3c0.1-1,0.8-1.6,1.7-1.5
	c0.9,0.1,1.5,0.8,1.5,1.8c-0.1,1.1-0.8,1.7-1.7,1.6C122.5,98,121.9,97.3,122,96.3z M127.6,102.3l1.8,0.1l0.2-3.4l0.1,0
	c0.1,0.2,0.3,0.4,0.5,0.6c0.3,0.3,0.8,0.6,1.6,0.6c1.7,0.1,3.2-1.2,3.3-3.3c0.2-2.2-1.1-3.6-2.8-3.8c-0.7-0.1-1.3,0.2-1.6,0.4
	c-0.2,0.1-0.4,0.3-0.5,0.5l-0.1,0l0.1-0.9l-1.8-0.1L127.6,102.3z M129.8,96.6c0.1-1.3,0.8-1.9,1.8-1.9c0.9,0.1,1.6,0.8,1.5,2.1
	c-0.1,1.3-0.8,1.9-1.8,1.9C130.4,98.6,129.7,97.8,129.8,96.6z M135.8,97c-0.2,2.2,1.1,3.6,2.8,3.8c0.7,0.1,1.3-0.2,1.6-0.4
	c0.2-0.1,0.4-0.3,0.6-0.5l0.1,0l-0.1,0.9l1.8,0.1l0.5-6.7l-1.8-0.1l-0.1,0.9l-0.1,0c-0.1-0.2-0.3-0.4-0.5-0.6
	c-0.3-0.3-0.8-0.6-1.6-0.6C137.4,93.5,135.9,94.8,135.8,97z M137.7,97.1c0.1-1.3,0.8-1.9,1.8-1.9c1,0.1,1.7,0.8,1.6,2.1
	c-0.1,1.3-0.8,1.9-1.8,1.9C138.2,99.1,137.6,98.4,137.7,97.1z M143.2,100.9l2.1,0.1l1.8-2.5l0.9,0.1l-0.2,2.6l1.8,0.1l0.2-2.6
	l0.9,0.1l1.4,2.7l2.1,0.1l-2-3.8l2.3-2.9l-2-0.1l-1.8,2.4l-0.7-0.1l0.2-2.5l-1.8-0.1l-0.2,2.5l-0.7-0.1l-1.5-2.6l-2-0.1l1.8,3.2
	L143.2,100.9z M154.3,98.3c-0.1,2,1.3,3.7,3.4,3.8c1.4,0.1,2.3-0.4,2.9-1c0.3-0.3,0.6-0.7,0.7-1.1l-2-0.1c-0.1,0.1-0.2,0.3-0.3,0.4
	c-0.3,0.2-0.6,0.4-1.2,0.3c-0.9-0.1-1.5-0.8-1.6-1.7l5.3,0.4l0-0.4c0.1-2-1.2-3.7-3.3-3.8C156.2,94.8,154.5,96.3,154.3,98.3z
	 M156.4,97.7c0.2-0.7,0.9-1.2,1.7-1.1s1.4,0.7,1.5,1.4L156.4,97.7z M162.3,102.2l1.8,0.1l0.2-2.6l2.8,0.2l-0.2,2.6l1.8,0.1l0.5-6.7
	l-1.8-0.1l-0.2,2.5l-2.8-0.2l0.2-2.5l-1.8-0.1L162.3,102.2z M170.1,102.7l2,0.1l3-3.9l0.1,0l-0.1,1.2l-0.2,2.9l1.8,0.1l0.5-6.7
	l-2-0.1l-3,3.9l-0.1,0l0.1-1.2l0.2-2.9l-1.8-0.1L170.1,102.7z M177.9,99.9c-0.1,2,1.3,3.7,3.4,3.8c1.4,0.1,2.3-0.4,2.9-1
	c0.3-0.3,0.6-0.7,0.7-1.1l-2-0.1c-0.1,0.1-0.2,0.3-0.3,0.4c-0.3,0.2-0.6,0.4-1.2,0.3c-0.9-0.1-1.5-0.8-1.6-1.7l5.3,0.4l0-0.4
	c0.1-2-1.2-3.7-3.3-3.8C179.7,96.5,178,97.9,177.9,99.9z M179.9,99.3c0.2-0.7,0.9-1.2,1.7-1.1c0.9,0.1,1.4,0.7,1.5,1.4L179.9,99.3z"
	/>
<path class="st5" d="M27.9,53l185.4,12.9l0.2-2.9L28.1,50.1L27.9,53z M214.3,67l-4.8,68.3l2.9,0.2l4.8-68.3L214.3,67z M208.4,136.2
	L23,123.3l-0.2,2.9l185.4,12.9L208.4,136.2z M22.1,122.2L26.8,54l-2.9-0.2L19.2,122L22.1,122.2z M23,123.3c-0.6,0-1-0.5-0.9-1.1
	l-2.9-0.2c-0.2,2.2,1.5,4.1,3.7,4.2L23,123.3z M209.5,135.3c0,0.6-0.5,1-1.1,0.9l-0.2,2.9c2.2,0.2,4.1-1.5,4.2-3.7L209.5,135.3z
	 M213.3,65.9c0.6,0,1,0.5,0.9,1.1l2.9,0.2c0.2-2.2-1.5-4.1-3.7-4.2L213.3,65.9z M28.1,50.1c-2.2-0.2-4.1,1.5-4.2,3.7l2.9,0.2
	c0-0.6,0.5-1,1.1-0.9L28.1,50.1z"/>
<g>
	<defs>
		<polygon id="SVGID_1_" points="173.4,99.8 230.7,85.9 238.2,150.4 181,164.2 		"/>
	</defs>
	<clipPath id="SVGID_2_">
		<use xlink:href="#SVGID_1_"  style="overflow:visible;"/>
	</clipPath>
	<g class="st9">
		<path class="st0" d="M203.9,140.5l-4.5-0.6l-2.5-2.7l-2.4-7.7l1.3-7.8l2.3-5.5l3.5-1.7l1.2-2l3.7-0.1l3.1,0.9l3.1,0.9l3,0.1
			l1.7,2.1l0.2,8.2l1.3,4.7l-1.6,5.4l-2.1,1.3l-2.7,2.3L203.9,140.5z"/>
		<path class="st10" d="M196.1,126c-0.3-2.7,1.4-5.4,3.8-5.9l1.2-0.3l-0.4-3.1c-0.1-0.7,0.1-1.3,0.4-1.9c-0.5-0.5-1.2-0.7-1.9-0.5
			c-1.3,0.3-2.2,1.8-2.1,3.3l0.4,3.1l-1.2,0.3c-2.4,0.6-4.1,3.2-3.8,5.9c1,9.7,7.6,14.8,11.4,13.9l3.6-0.9
			C203.7,140.8,197.1,135.8,196.1,126z"/>
		<path class="st11" d="M193,154.9c-1.3,0.3-2.5-0.6-2.7-2.1c-0.2-1.5,0.8-2.9,2.1-3.3c1.3-0.3,2.5,0.6,2.7,2.1
			C195.2,153.1,194.3,154.6,193,154.9z M192.5,151.3c-0.4,0.1-0.7,0.6-0.7,1.1c0.1,0.5,0.5,0.8,0.9,0.7s0.7-0.6,0.7-1.1
			C193.4,151.5,193,151.2,192.5,151.3z"/>
		<path class="st11" d="M222.5,101.5l3.2-0.8l0.2,1.8l-3.2,0.8L222.5,101.5z"/>
		<path class="st11" d="M213.4,103.7l3.2-0.8l0.2,1.8l-3.2,0.8L213.4,103.7z"/>
		<path class="st11" d="M218.2,96.1l1.6-0.4l0.4,3.6l-1.6,0.4L218.2,96.1z"/>
		<path class="st11" d="M219.4,106.4l1.6-0.4l0.4,3.6l-1.6,0.4L219.4,106.4z"/>
		<path class="st12" d="M199.3,125.3l-2.4,0.6l-0.9-8.1c-0.3-2.2,1.1-4.4,3.1-4.9c2-0.5,3.8,0.9,4.1,3.2l0.7,6.3l-2.4,0.6l-0.7-6.3
			c-0.1-0.7-0.7-1.2-1.4-1.1c-0.7,0.2-1.1,0.9-1,1.6L199.3,125.3z"/>
		<path class="st12" d="M208.6,121.2l-2.4,0.6l-0.8-7.2c-0.1-0.7-0.7-1.2-1.4-1.1c-0.7,0.2-1.1,0.9-1,1.6l-2.4,0.6
			c-0.3-2.2,1.1-4.4,3.1-4.9c2-0.5,3.8,0.9,4.1,3.2L208.6,121.2z"/>
		<path class="st12" d="M213.4,120l-2.4,0.6l-0.6-5.4c-0.1-0.7-0.7-1.2-1.4-1.1c-0.7,0.2-1.1,0.9-1,1.6l-2.4,0.6
			c-0.3-2.2,1.1-4.4,3.1-4.9s3.8,0.9,4.1,3.2L213.4,120z"/>
		<path class="st12" d="M212.9,140l-8.8,2.1c-1.9,0.5-4.3-0.3-6.4-2c-3.5-2.8-5.8-7.5-6.3-13c-0.3-3.4,1.8-6.8,4.8-7.6l1.2-0.3
			l0.3,2.7l-1.2,0.3c-1.8,0.4-3,2.3-2.8,4.3c0.7,6.7,4,10.1,5.4,11.2c1.6,1.3,3.3,1.9,4.6,1.6l8.8-2.1c2.9-0.7,4.9-3.9,4.5-7.1
			l-1.7-14.3c-0.1-0.7-0.7-1.2-1.3-1.1c-0.7,0.2-1.1,0.9-1,1.6l-2.4,0.6c-0.3-2.2,1.1-4.4,3.1-4.9c2-0.5,3.8,0.9,4.1,3.2l1.7,14.3
			C220,134.3,217,139,212.9,140z"/>
	</g>
</g>
</svg>
