<svg width="289" height="227" viewBox="0 0 289 227" fill="none" xmlns="http://www.w3.org/2000/svg">
<g filter="url(#filter0_d)">
<path d="M-2.02569 80.16C-2.21615 78.2978 -0.860873 76.6337 1.0014 76.4432L252.908 50.6805C254.771 50.49 256.435 51.8453 256.625 53.7076L266.11 146.445C266.3 148.307 264.945 149.971 263.082 150.162L11.1754 175.924C9.31314 176.115 7.64909 174.76 7.45863 172.897L-2.02569 80.16Z" fill="white"/>
<g filter="url(#filter1_d)">
<mask id="path-3-inside-1" fill="white">
<rect x="29.6848" y="107.436" width="50.1042" height="32.5" rx="1.625" transform="rotate(-5.83939 29.6848 107.436)"/>
</mask>
<rect x="29.6848" y="107.436" width="50.1042" height="32.5" rx="1.625" transform="rotate(-5.83939 29.6848 107.436)" fill="white"/>
<rect x="29.6848" y="107.436" width="50.1042" height="32.5" rx="1.625" transform="rotate(-5.83939 29.6848 107.436)" stroke="#333A4A" stroke-width="4" mask="url(#path-3-inside-1)"/>
</g>
<path d="M79.5748 122.752L72.3085 117.07C71.7366 116.62 70.8927 116.707 70.4237 117.263L61.6656 127.658L56.8429 123.862C56.271 123.412 55.4271 123.498 54.9581 124.055L43.5617 136.644L80.6081 132.855L79.5748 122.752Z" fill="#1ABF7E"/>
<ellipse cx="46.348" cy="117.302" rx="4.73958" ry="4.73958" transform="rotate(-5.83939 46.348 117.302)" fill="#FFAA00"/>
<path d="M102.926 121.809L106.239 121.47L110.445 112.174L110.624 112.156L110.601 113.696L111.342 120.948L114.028 120.673L112.746 108.139L109.434 108.478L105.228 117.774L105.049 117.792L105.072 116.252L104.33 109L101.644 109.274L102.926 121.809ZM115.088 117.58C115.274 118.158 115.562 118.671 115.969 119.118C116.661 119.861 117.835 120.556 119.805 120.354C122.67 120.061 123.697 118.599 123.541 117.077C123.446 116.146 122.941 115.636 122.459 115.342C122.17 115.173 121.871 115.076 121.521 115.022L121.512 114.932C121.809 114.829 122.067 114.695 122.283 114.51C122.668 114.199 123.012 113.675 122.932 112.887C122.794 111.544 121.413 110.419 118.816 110.684C116.954 110.875 116.01 111.731 115.494 112.526C115.198 112.991 114.997 113.5 114.91 114.069L117.417 113.813C117.435 113.63 117.508 113.46 117.618 113.304C117.806 113.013 118.14 112.744 118.839 112.673C119.913 112.563 120.406 112.965 120.452 113.412C120.516 114.039 120.195 114.434 119.12 114.544L118.046 114.653L118.229 116.444L119.393 116.325C120.557 116.206 120.952 116.528 121.016 117.154C121.073 117.709 120.669 118.185 119.594 118.295C118.789 118.377 118.294 118.138 117.996 117.879C117.818 117.735 117.691 117.549 117.595 117.323L115.088 117.58ZM124.156 115.024C124.431 117.71 126.782 119.641 129.664 119.346C132.512 119.055 134.459 116.684 134.184 113.998C133.909 111.312 131.523 109.385 128.676 109.676C125.793 109.971 123.881 112.338 124.156 115.024ZM126.753 114.758C126.588 113.147 127.552 111.962 128.895 111.825C130.238 111.688 131.423 112.652 131.587 114.264C131.752 115.875 130.788 117.06 129.445 117.197C128.102 117.334 126.917 116.37 126.753 114.758ZM135.041 113.277C135.387 116.662 137.676 118.526 140.344 118.253C143.209 117.96 144.888 115.798 144.632 113.292C144.383 110.856 142.429 109.265 140.083 109.505C139.08 109.607 138.433 109.999 138.016 110.349C137.768 110.574 137.573 110.793 137.436 111.042L137.346 111.051C137.232 109.054 138.342 107.692 140.866 107.434L143.194 107.196L142.974 105.047L140.378 105.313C136.439 105.716 134.528 108.263 135.041 113.277ZM137.738 113.997C137.599 112.636 138.386 111.669 139.658 111.539C140.929 111.408 141.896 112.196 142.035 113.557C142.182 114.99 141.396 115.975 140.125 116.105C138.853 116.235 137.884 115.429 137.738 113.997ZM146.68 120.772L149.187 120.516L148.72 115.949L148.809 115.94C149.034 116.189 149.29 116.398 149.581 116.585C150.101 116.894 150.818 117.182 151.821 117.08C154.149 116.842 155.837 114.769 155.535 111.815C155.232 108.86 153.16 107.172 150.832 107.41C149.829 107.513 149.185 107.94 148.739 108.348C148.492 108.59 148.283 108.847 148.114 109.136L148.024 109.145L147.905 107.981L145.398 108.237L146.68 120.772ZM148.372 112.547C148.196 110.828 149.064 109.762 150.425 109.623C151.696 109.493 152.762 110.361 152.938 112.08C153.114 113.799 152.246 114.865 150.974 114.995C149.614 115.134 148.548 114.266 148.372 112.547ZM156.449 111.721C156.751 114.676 158.824 116.364 161.152 116.126C162.154 116.023 162.798 115.595 163.245 115.188C163.492 114.945 163.701 114.689 163.87 114.4L163.96 114.391L164.079 115.555L166.586 115.298L165.652 106.166L163.145 106.422L163.264 107.586L163.174 107.595C162.95 107.347 162.693 107.138 162.403 106.951C161.883 106.642 161.165 106.353 160.163 106.456C157.835 106.694 156.147 108.766 156.449 111.721ZM159.046 111.456C158.87 109.737 159.738 108.671 161.009 108.541C162.37 108.401 163.436 109.27 163.612 110.989C163.788 112.708 162.919 113.773 161.559 113.913C160.287 114.043 159.221 113.175 159.046 111.456ZM167.321 115.223L170.186 114.93L171.969 111.129L173.222 111.001L173.588 114.582L176.095 114.326L175.729 110.744L176.982 110.616L179.498 113.978L182.363 113.685L178.815 109.072L181.16 104.58L178.385 104.864L176.494 108.495L175.509 108.596L175.161 105.193L172.654 105.45L173.002 108.852L172.017 108.953L169.431 105.779L166.656 106.063L169.862 109.988L167.321 115.223ZM181.746 109.134C182.02 111.82 184.371 113.751 187.164 113.465C189.134 113.264 190.216 112.339 190.849 111.46C191.212 110.934 191.443 110.368 191.58 109.757L188.894 110.031C188.807 110.239 188.682 110.433 188.519 110.613C188.206 110.916 187.75 111.234 186.945 111.316C185.781 111.435 184.713 110.549 184.397 109.406L191.56 108.673L191.505 108.136C191.232 105.468 189.04 103.503 186.175 103.796C183.382 104.081 181.471 106.448 181.746 109.134ZM184.331 107.874C184.506 106.934 185.231 106.063 186.395 105.944C187.559 105.825 188.447 106.549 188.718 107.426L184.331 107.874ZM193.327 112.564L195.834 112.307L195.467 108.726L199.317 108.332L199.684 111.913L202.191 111.657L201.257 102.525L198.75 102.781L199.098 106.183L195.248 106.577L194.9 103.175L192.393 103.431L193.327 112.564ZM204.009 111.471L206.695 111.196L209.798 105.27L209.977 105.252L210.052 106.872L210.455 110.812L212.962 110.555L212.028 101.423L209.342 101.698L206.239 107.624L206.06 107.643L205.985 106.022L205.582 102.082L203.075 102.339L204.009 111.471ZM213.774 105.858C214.049 108.544 216.399 110.475 219.193 110.19C221.163 109.988 222.244 109.063 222.878 108.184C223.24 107.659 223.472 107.092 223.608 106.481L220.922 106.756C220.835 106.964 220.71 107.157 220.548 107.337C220.235 107.64 219.779 107.958 218.973 108.041C217.809 108.16 216.741 107.274 216.425 106.13L223.588 105.398L223.533 104.86C223.26 102.192 221.069 100.227 218.204 100.52C215.41 100.806 213.499 103.172 213.774 105.858ZM216.359 104.599C216.534 103.658 217.26 102.788 218.424 102.669C219.588 102.55 220.476 103.273 220.746 104.15L216.359 104.599Z" fill="#333A4A"/>
<path d="M11.0737 174.93C10.7495 174.963 10.4363 174.93 10.1456 174.843L9.57142 176.758C10.1096 176.92 10.6869 176.98 11.2772 176.919L11.0737 174.93ZM8.72646 173.687C8.58228 173.42 8.48659 173.12 8.45344 172.796L6.46382 172.999C6.52419 173.589 6.69966 174.142 6.96654 174.637L8.72646 173.687ZM8.45344 172.796L7.97923 168.159L5.9896 168.362L6.46382 172.999L8.45344 172.796ZM7.03079 158.885L6.08236 149.611L4.09274 149.815L5.04117 159.088L7.03079 158.885ZM5.13393 140.337L4.1855 131.064L2.19587 131.267L3.14431 140.541L5.13393 140.337ZM3.23706 121.79L2.28863 112.516L0.29901 112.72L1.24744 121.994L3.23706 121.79ZM1.3402 103.243L0.391767 93.9689L-1.59785 94.1724L-0.649423 103.446L1.3402 103.243ZM-0.556665 84.6952L-1.03088 80.0583L-3.0205 80.2618L-2.54629 84.8986L-0.556665 84.6952ZM-1.03088 80.0583C-1.06403 79.7341 -1.03106 79.4209 -0.943928 79.1302L-2.85974 78.556C-3.02102 79.0942 -3.08087 79.6715 -3.0205 80.2618L-1.03088 80.0583ZM0.211875 77.7111C0.478949 77.5669 0.778988 77.4712 1.10314 77.438L0.89966 75.4484C0.309399 75.5088 -0.243857 75.6843 -0.738217 75.9511L0.211875 77.7111ZM1.10314 77.438L5.94751 76.9426L5.74403 74.953L0.89966 75.4484L1.10314 77.438ZM15.6362 75.9517L25.325 74.9609L25.1215 72.9712L15.4328 73.9621L15.6362 75.9517ZM35.0137 73.97L44.7024 72.9791L44.4989 70.9895L34.8102 71.9804L35.0137 73.97ZM54.3912 71.9882L64.0799 70.9974L63.8764 69.0077L54.1877 69.9986L54.3912 71.9882ZM73.7686 70.0065L83.4574 69.0156L83.2539 67.026L73.5651 68.0169L73.7686 70.0065ZM93.1461 68.0247L102.835 67.0338L102.631 65.0442L92.9426 66.0351L93.1461 68.0247ZM112.524 66.043L122.212 65.0521L122.009 63.0625L112.32 64.0534L112.524 66.043ZM131.901 64.0612L141.59 63.0703L141.386 61.0807L131.698 62.0716L131.901 64.0612ZM151.278 62.0795L160.967 61.0886L160.764 59.099L151.075 60.0898L151.278 62.0795ZM170.656 60.0977L180.345 59.1068L180.141 57.1172L170.452 58.1081L170.656 60.0977ZM190.033 58.116L199.722 57.1251L199.519 55.1355L189.83 56.1263L190.033 58.116ZM209.411 56.1342L219.1 55.1433L218.896 53.1537L209.207 54.1446L209.411 56.1342ZM228.788 54.1525L238.477 53.1616L238.274 51.172L228.585 52.1628L228.788 54.1525ZM248.166 52.1707L253.01 51.6753L252.807 49.6857L247.962 50.1811L248.166 52.1707ZM253.01 51.6753C253.334 51.6421 253.647 51.6751 253.938 51.7622L254.512 49.8464C253.974 49.6851 253.397 49.6253 252.807 49.6857L253.01 51.6753ZM255.357 52.918C255.502 53.1851 255.597 53.4851 255.63 53.8093L257.62 53.6058C257.56 53.0156 257.384 52.4623 257.117 51.9679L255.357 52.918ZM255.63 53.8093L256.105 58.4462L258.094 58.2427L257.62 53.6058L255.63 53.8093ZM257.053 67.7199L258.001 76.9936L259.991 76.7901L259.043 67.5164L257.053 67.7199ZM258.95 86.2673L259.898 95.541L261.888 95.3376L260.94 86.0638L258.95 86.2673ZM260.847 104.815L261.795 114.088L263.785 113.885L262.836 104.611L260.847 104.815ZM262.744 123.362L263.692 132.636L265.682 132.432L264.733 123.159L262.744 123.362ZM264.64 141.91L265.115 146.547L267.104 146.343L266.63 141.706L264.64 141.91ZM265.115 146.547C265.148 146.871 265.115 147.184 265.028 147.475L266.944 148.049C267.105 147.511 267.165 146.933 267.104 146.343L265.115 146.547ZM263.872 148.894C263.605 149.038 263.305 149.134 262.981 149.167L263.184 151.156C263.774 151.096 264.328 150.921 264.822 150.654L263.872 148.894ZM262.981 149.167L258.136 149.662L258.34 151.652L263.184 151.156L262.981 149.167ZM248.448 150.653L238.759 151.644L238.962 153.634L248.651 152.643L248.448 150.653ZM229.07 152.635L219.381 153.626L219.585 155.615L229.274 154.624L229.07 152.635ZM209.693 154.617L200.004 155.607L200.207 157.597L209.896 156.606L209.693 154.617ZM190.315 156.598L180.626 157.589L180.83 159.579L190.519 158.588L190.315 156.598ZM170.938 158.58L161.249 159.571L161.452 161.561L171.141 160.57L170.938 158.58ZM151.56 160.562L141.872 161.553L142.075 163.542L151.764 162.551L151.56 160.562ZM132.183 162.544L122.494 163.534L122.698 165.524L132.386 164.533L132.183 162.544ZM112.805 164.525L103.117 165.516L103.32 167.506L113.009 166.515L112.805 164.525ZM93.4279 166.507L83.7391 167.498L83.9426 169.488L93.6313 168.497L93.4279 166.507ZM74.0504 168.489L64.3617 169.48L64.5652 171.469L74.2539 170.478L74.0504 168.489ZM54.6729 170.471L44.9842 171.461L45.1877 173.451L54.8764 172.46L54.6729 170.471ZM35.2955 172.452L25.6067 173.443L25.8102 175.433L35.4989 174.442L35.2955 172.452ZM15.918 174.434L11.0737 174.93L11.2772 176.919L16.1215 176.424L15.918 174.434ZM10.9719 173.935C10.7808 173.954 10.5997 173.935 10.4327 173.885L9.28434 177.716C9.94619 177.915 10.6556 177.988 11.3789 177.914L10.9719 173.935ZM9.60642 173.212C9.52359 173.058 9.4678 172.885 9.44825 172.694L5.46901 173.101C5.54298 173.824 5.75835 174.504 6.08657 175.112L9.60642 173.212ZM9.44825 172.694L8.97404 168.057L4.99479 168.464L5.46901 173.101L9.44825 172.694ZM8.0256 158.783L7.07717 149.509L3.09793 149.916L4.04636 159.19L8.0256 158.783ZM6.12874 140.236L5.18031 130.962L1.20106 131.369L2.1495 140.643L6.12874 140.236ZM4.23188 121.688L3.28344 112.415L-0.695801 112.822L0.252632 122.095L4.23188 121.688ZM2.33501 103.141L1.38658 93.8671L-2.59267 94.2741L-1.64423 103.548L2.33501 103.141ZM0.438146 84.5934L-0.0360707 79.9565L-4.01531 80.3635L-3.5411 85.0004L0.438146 84.5934ZM-0.0360707 79.9565C-0.0556145 79.7655 -0.03608 79.5843 0.0139767 79.4173L-3.81764 78.2689C-4.016 78.9308 -4.08929 79.6402 -4.01531 80.3635L-0.0360707 79.9565ZM0.686921 78.591C0.840352 78.5082 1.01378 78.4524 1.20488 78.4329L0.79792 74.4536C0.0746041 74.5276 -0.60526 74.743 -1.21326 75.0712L0.686921 78.591ZM1.20488 78.4329L6.04925 77.9374L5.64229 73.9582L0.79792 74.4536L1.20488 78.4329ZM15.738 76.9465L25.4267 75.9557L25.0197 71.9764L15.331 72.9673L15.738 76.9465ZM35.1154 74.9648L44.8042 73.9739L44.3972 69.9947L34.7085 70.9855L35.1154 74.9648ZM54.4929 72.983L64.1816 71.9922L63.7747 68.0129L54.0859 69.0038L54.4929 72.983ZM73.8704 71.0013L83.5591 70.0104L83.1521 66.0312L73.4634 67.022L73.8704 71.0013ZM93.2478 69.0195L102.937 68.0287L102.53 64.0494L92.8409 65.0403L93.2478 69.0195ZM112.625 67.0378L122.314 66.0469L121.907 62.0677L112.218 63.0585L112.625 67.0378ZM132.003 65.056L141.691 64.0652L141.285 60.0859L131.596 61.0768L132.003 65.056ZM151.38 63.0743L161.069 62.0834L160.662 58.1042L150.973 59.095L151.38 63.0743ZM170.758 61.0925L180.446 60.1017L180.039 56.1224L170.351 57.1133L170.758 61.0925ZM190.135 59.1108L199.824 58.1199L199.417 54.1407L189.728 55.1315L190.135 59.1108ZM209.513 57.129L219.201 56.1381L218.794 52.1589L209.106 53.1498L209.513 57.129ZM228.89 55.1473L238.579 54.1564L238.172 50.1771L228.483 51.168L228.89 55.1473ZM248.268 53.1655L253.112 52.6701L252.705 48.6908L247.861 49.1863L248.268 53.1655ZM253.112 52.6701C253.303 52.6505 253.484 52.6701 253.651 52.7201L254.799 48.8885C254.138 48.6902 253.428 48.6169 252.705 48.6908L253.112 52.6701ZM254.477 53.3931C254.56 53.5465 254.616 53.7199 254.636 53.911L258.615 53.5041C258.541 52.7808 258.325 52.1009 257.997 51.4929L254.477 53.3931ZM254.636 53.911L255.11 58.5479L259.089 58.1409L258.615 53.5041L254.636 53.911ZM256.058 67.8216L257.007 77.0953L260.986 76.6884L260.037 67.4147L256.058 67.8216ZM257.955 86.3691L258.904 95.6428L262.883 95.2358L261.934 85.9621L257.955 86.3691ZM259.852 104.917L260.8 114.19L264.78 113.783L263.831 104.51L259.852 104.917ZM261.749 123.464L262.697 132.738L266.676 132.331L265.728 123.057L261.749 123.464ZM263.646 142.011L264.12 146.648L268.099 146.241L267.625 141.604L263.646 142.011ZM264.12 146.648C264.139 146.839 264.12 147.02 264.07 147.188L267.901 148.336C268.1 147.674 268.173 146.965 268.099 146.241L264.12 146.648ZM263.397 148.014C263.243 148.097 263.07 148.152 262.879 148.172L263.286 152.151C264.009 152.077 264.689 151.862 265.297 151.534L263.397 148.014ZM262.879 148.172L258.035 148.667L258.442 152.647L263.286 152.151L262.879 148.172ZM248.346 149.658L238.657 150.649L239.064 154.628L248.753 153.638L248.346 149.658ZM228.968 151.64L219.28 152.631L219.687 156.61L229.375 155.619L228.968 151.64ZM209.591 153.622L199.902 154.613L200.309 158.592L209.998 157.601L209.591 153.622ZM190.213 155.604L180.525 156.594L180.932 160.574L190.62 159.583L190.213 155.604ZM170.836 157.585L161.147 158.576L161.554 162.555L171.243 161.565L170.836 157.585ZM151.459 159.567L141.77 160.558L142.177 164.537L151.866 163.546L151.459 159.567ZM132.081 161.549L122.392 162.54L122.799 166.519L132.488 165.528L132.081 161.549ZM112.704 163.531L103.015 164.521L103.422 168.501L113.111 167.51L112.704 163.531ZM93.3261 165.512L83.6374 166.503L84.0444 170.482L93.7331 169.492L93.3261 165.512ZM73.9487 167.494L64.2599 168.485L64.6669 172.464L74.3556 171.473L73.9487 167.494ZM54.5712 169.476L44.8825 170.467L45.2894 174.446L54.9782 173.455L54.5712 169.476ZM35.1937 171.458L25.505 172.448L25.9119 176.428L35.6007 175.437L35.1937 171.458ZM15.8162 173.439L10.9719 173.935L11.3789 177.914L16.2232 177.419L15.8162 173.439Z" fill="#6AB0FF"/>
<path d="M6.97826 67.5922C6.97975 65.7202 8.4985 64.2038 10.3705 64.2053L263.591 64.4071C265.463 64.4086 266.98 65.9273 266.978 67.7993L266.904 161.02C266.902 162.892 265.384 164.409 263.512 164.407L10.2908 164.205C8.41881 164.204 6.90249 162.685 6.90398 160.813L6.97826 67.5922Z" fill="white"/>
<g filter="url(#filter2_d)">
<mask id="path-9-inside-2" fill="white">
<rect x="23.7249" y="97.9658" width="50.1042" height="32.5" rx="1.625" transform="rotate(0.0456493 23.7249 97.9658)"/>
</mask>
<rect x="23.7249" y="97.9658" width="50.1042" height="32.5" rx="1.625" transform="rotate(0.0456493 23.7249 97.9658)" fill="white"/>
<rect x="23.7249" y="97.9658" width="50.1042" height="32.5" rx="1.625" transform="rotate(0.0456493 23.7249 97.9658)" stroke="#333A4A" stroke-width="4" mask="url(#path-9-inside-2)"/>
</g>
<path d="M71.7816 118.316L65.1362 111.92C64.6134 111.413 63.7651 111.413 63.2416 111.918L53.4638 121.361L49.0557 117.09C48.5329 116.584 47.6847 116.583 47.1611 117.089L34.5339 128.443L71.7735 128.473L71.7816 118.316Z" fill="#1ABF7E"/>
<ellipse cx="39.2887" cy="109.488" rx="4.73958" ry="4.73958" transform="rotate(0.0456493 39.2887 109.488)" fill="#FFAA00"/>
<path d="M95.1067 119.773L98.4367 119.776L103.574 110.96L103.754 110.96L103.573 112.49L103.567 119.78L106.267 119.782L106.277 107.182L102.947 107.179L97.8097 115.995L97.6297 115.995L97.8109 114.465L97.8167 107.175L95.1168 107.173L95.1067 119.773ZM107.638 116.813C107.764 117.407 107.997 117.947 108.357 118.433C108.968 119.244 110.066 120.055 112.046 120.056C114.926 120.059 116.097 118.71 116.098 117.18C116.099 116.244 115.649 115.685 115.2 115.343C114.93 115.145 114.642 115.018 114.3 114.928L114.3 114.838C114.606 114.766 114.876 114.659 115.11 114.497C115.524 114.227 115.921 113.741 115.921 112.949C115.923 111.599 114.664 110.338 112.054 110.336C110.182 110.335 109.155 111.09 108.56 111.828C108.218 112.259 107.966 112.745 107.821 113.303L110.341 113.305C110.377 113.125 110.467 112.963 110.594 112.819C110.81 112.549 111.17 112.316 111.872 112.316C112.952 112.317 113.402 112.767 113.401 113.217C113.401 113.847 113.04 114.207 111.96 114.206L110.88 114.205L110.879 116.005L112.049 116.006C113.219 116.007 113.579 116.368 113.578 116.998C113.578 117.556 113.127 117.987 112.047 117.986C111.237 117.986 110.77 117.697 110.5 117.409C110.338 117.247 110.23 117.049 110.158 116.815L107.638 116.813ZM116.92 115.2C116.918 117.9 119.059 120.062 121.957 120.064C124.819 120.067 126.998 117.908 127 115.208C127.003 112.508 124.826 110.347 121.964 110.344C119.066 110.342 116.923 112.5 116.92 115.2ZM119.53 115.202C119.532 113.582 120.613 112.503 121.963 112.504C123.313 112.505 124.392 113.586 124.39 115.206C124.389 116.826 123.308 117.905 121.958 117.904C120.608 117.903 119.529 116.822 119.53 115.202ZM127.927 114.579C127.924 117.981 130.01 120.071 132.692 120.073C135.572 120.075 137.464 118.097 137.466 115.577C137.468 113.129 135.687 111.345 133.329 111.343C132.321 111.343 131.637 111.666 131.187 111.972C130.916 112.169 130.7 112.367 130.538 112.601L130.448 112.601C130.54 110.603 131.783 109.362 134.321 109.364L136.661 109.366L136.662 107.206L134.052 107.204C130.092 107.201 127.931 109.539 127.927 114.579ZM130.536 115.571C130.537 114.203 131.42 113.322 132.698 113.323C133.976 113.324 134.857 114.207 134.856 115.575C134.855 117.015 133.972 117.914 132.694 117.913C131.416 117.912 130.535 117.011 130.536 115.571ZM138.736 123.228L141.256 123.23L141.26 118.64L141.35 118.64C141.548 118.91 141.781 119.144 142.051 119.36C142.537 119.721 143.221 120.081 144.229 120.082C146.569 120.084 148.46 118.195 148.463 115.225C148.465 112.255 146.576 110.364 144.236 110.362C143.228 110.361 142.544 110.721 142.058 111.08C141.788 111.296 141.553 111.53 141.355 111.8L141.265 111.8L141.266 110.63L138.746 110.628L138.736 123.228ZM141.263 115.22C141.264 113.492 142.237 112.52 143.605 112.522C144.883 112.523 145.854 113.495 145.853 115.223C145.851 116.951 144.878 117.923 143.6 117.922C142.232 117.92 141.261 116.948 141.263 115.22ZM149.382 115.226C149.379 118.196 151.268 120.088 153.608 120.09C154.616 120.09 155.3 119.731 155.786 119.371C156.057 119.155 156.291 118.922 156.489 118.652L156.579 118.652L156.578 119.822L159.098 119.824L159.105 110.644L156.585 110.642L156.585 111.812L156.495 111.812C156.297 111.542 156.063 111.307 155.793 111.091C155.307 110.731 154.624 110.37 153.616 110.37C151.276 110.368 149.384 112.256 149.382 115.226ZM151.992 115.228C151.993 113.5 152.966 112.529 154.244 112.53C155.612 112.531 156.583 113.504 156.582 115.232C156.58 116.96 155.608 117.931 154.24 117.93C152.962 117.929 151.99 116.956 151.992 115.228ZM159.837 119.824L162.717 119.827L164.88 116.228L166.14 116.229L166.137 119.829L168.657 119.831L168.66 116.232L169.92 116.233L172.077 119.834L174.957 119.837L171.901 114.884L174.695 110.656L171.905 110.654L169.652 114.072L168.662 114.072L168.665 110.652L166.145 110.649L166.142 114.069L165.152 114.069L162.905 110.647L160.115 110.645L162.901 114.877L159.837 119.824ZM174.81 115.246C174.808 117.946 176.948 120.108 179.756 120.11C181.736 120.112 182.907 119.303 183.628 118.493C184.042 118.008 184.33 117.468 184.529 116.874L181.829 116.872C181.721 117.07 181.577 117.25 181.396 117.412C181.054 117.681 180.568 117.951 179.758 117.95C178.588 117.949 177.617 116.959 177.42 115.788L184.62 115.794L184.62 115.254C184.622 112.572 182.644 110.393 179.764 110.39C176.956 110.388 174.812 112.546 174.81 115.246ZM177.511 114.259C177.782 113.341 178.592 112.549 179.762 112.55C180.932 112.551 181.742 113.362 181.921 114.262L177.511 114.259ZM185.979 119.845L188.499 119.847L188.502 116.247L192.372 116.25L192.369 119.85L194.889 119.852L194.896 110.672L192.376 110.67L192.373 114.09L188.503 114.087L188.506 110.667L185.986 110.665L185.979 119.845ZM196.716 119.854L199.416 119.856L203.111 114.279L203.291 114.279L203.2 115.899L203.196 119.859L205.716 119.861L205.724 110.681L203.024 110.679L199.329 116.256L199.149 116.256L199.241 114.636L199.244 110.676L196.724 110.674L196.716 119.854ZM207.006 115.272C207.004 117.972 209.144 120.134 211.952 120.136C213.932 120.138 215.103 119.329 215.823 118.519C216.238 118.033 216.526 117.494 216.724 116.9L214.024 116.898C213.916 117.096 213.772 117.275 213.592 117.437C213.25 117.707 212.764 117.977 211.954 117.976C210.784 117.975 209.812 116.984 209.615 115.814L216.815 115.82L216.816 115.28C216.818 112.598 214.84 110.418 211.96 110.416C209.152 110.414 207.008 112.572 207.006 115.272ZM209.707 114.284C209.977 113.366 210.788 112.575 211.958 112.576C213.128 112.577 213.937 113.388 214.117 114.288L209.707 114.284Z" fill="#333A4A"/>
<path d="M10.3689 66.2053L263.59 66.4071L263.593 62.4071L10.3721 62.2053L10.3689 66.2053ZM264.978 67.7977L264.904 161.019L268.904 161.022L268.978 67.8009L264.978 67.7977ZM263.513 162.407L10.2924 162.205L10.2892 166.205L263.51 166.407L263.513 162.407ZM8.90398 160.815L8.97826 67.5938L4.97826 67.5906L4.90399 160.811L8.90398 160.815ZM10.2924 162.205C9.52499 162.205 8.90337 161.582 8.90398 160.815L4.90399 160.811C4.90161 163.788 7.31264 166.203 10.2892 166.205L10.2924 162.205ZM264.904 161.019C264.903 161.786 264.281 162.408 263.513 162.407L263.51 166.407C266.487 166.409 268.902 163.998 268.904 161.022L264.904 161.019ZM263.59 66.4071C264.357 66.4077 264.979 67.0303 264.978 67.7977L268.978 67.8009C268.981 64.8244 266.57 62.4095 263.593 62.4071L263.59 66.4071ZM10.3721 62.2053C7.39553 62.203 4.98063 64.614 4.97826 67.5906L8.97826 67.5938C8.97887 66.8263 9.60148 66.2047 10.3689 66.2053L10.3721 62.2053Z" fill="#333A4A"/>
</g>
<defs>
<filter id="filter0_d" x="-6.37054" y="50.3354" width="277.351" height="133.934" filterUnits="userSpaceOnUse" color-interpolation-filters="sRGB">
<feFlood flood-opacity="0" result="BackgroundImageFix"/>
<feColorMatrix in="SourceAlpha" type="matrix" values="0 0 0 0 0 0 0 0 0 0 0 0 0 0 0 0 0 0 127 0" result="hardAlpha"/>
<feOffset dy="4"/>
<feGaussianBlur stdDeviation="2"/>
<feComposite in2="hardAlpha" operator="out"/>
<feColorMatrix type="matrix" values="0 0 0 0 0 0 0 0 0 0 0 0 0 0 0 0 0 0 0.25 0"/>
<feBlend mode="normal" in2="BackgroundImageFix" result="effect1_dropShadow"/>
<feBlend mode="normal" in="SourceGraphic" in2="effect1_dropShadow" result="shape"/>
</filter>
<filter id="filter1_d" x="29.6848" y="102.338" width="56.4008" height="40.6792" filterUnits="userSpaceOnUse" color-interpolation-filters="sRGB">
<feFlood flood-opacity="0" result="BackgroundImageFix"/>
<feColorMatrix in="SourceAlpha" type="matrix" values="0 0 0 0 0 0 0 0 0 0 0 0 0 0 0 0 0 0 127 0" result="hardAlpha"/>
<feOffset dx="3.25" dy="3.25"/>
<feColorMatrix type="matrix" values="0 0 0 0 0.2 0 0 0 0 0.227451 0 0 0 0 0.290196 0 0 0 1 0"/>
<feBlend mode="normal" in2="BackgroundImageFix" result="effect1_dropShadow"/>
<feBlend mode="normal" in="SourceGraphic" in2="effect1_dropShadow" result="shape"/>
</filter>
<filter id="filter2_d" x="23.699" y="97.9658" width="53.38" height="35.79" filterUnits="userSpaceOnUse" color-interpolation-filters="sRGB">
<feFlood flood-opacity="0" result="BackgroundImageFix"/>
<feColorMatrix in="SourceAlpha" type="matrix" values="0 0 0 0 0 0 0 0 0 0 0 0 0 0 0 0 0 0 127 0" result="hardAlpha"/>
<feOffset dx="3.25" dy="3.25"/>
<feColorMatrix type="matrix" values="0 0 0 0 0.2 0 0 0 0 0.227451 0 0 0 0 0.290196 0 0 0 1 0"/>
<feBlend mode="normal" in2="BackgroundImageFix" result="effect1_dropShadow"/>
<feBlend mode="normal" in="SourceGraphic" in2="effect1_dropShadow" result="shape"/>
</filter>
</defs>
</svg>
