<svg width="629" height="339" viewBox="0 0 629 339" fill="none" xmlns="http://www.w3.org/2000/svg">
<path d="M0.5 209.5V187H6L16.5 148H43.5L54 187H59.5V209.5H46.5V199H13.5V209.5H0.5ZM20 187H40L32.5 160H27.5L20 187ZM59.9609 199L73.4609 148H100.461L113.961 199H99.9609L89.4609 160H84.4609L73.9609 199H59.9609ZM116.965 199L127.465 180.5C125.798 179.7 124.298 178.633 122.965 177.3C119.965 174.3 118.465 170.367 118.465 165.5C118.465 160.367 120.265 156.167 123.865 152.9C127.532 149.633 132.565 148 138.965 148H164.465V199H150.465V183.5H140.465L132.465 199H116.965ZM132.965 165.5C132.965 167.567 133.598 169.167 134.865 170.3C136.132 171.433 137.965 172 140.365 172H150.465V160H140.365C138.032 160 136.198 160.533 134.865 161.6C133.598 162.6 132.965 163.9 132.965 165.5ZM208.449 192.7C203.116 187.433 200.449 181.033 200.449 173.5C200.449 165.967 203.116 159.6 208.449 154.4C213.783 149.133 220.449 146.5 228.449 146.5C236.383 146.5 243.016 149.133 248.349 154.4C253.749 159.6 256.449 165.967 256.449 173.5C256.449 181.033 253.749 187.433 248.349 192.7C243.016 197.9 236.383 200.5 228.449 200.5C220.449 200.5 213.783 197.9 208.449 192.7ZM218.849 162.7C216.249 165.5 214.949 169.1 214.949 173.5C214.949 177.9 216.249 181.5 218.849 184.3C221.449 187.1 224.649 188.5 228.449 188.5C232.249 188.5 235.449 187.1 238.049 184.3C240.649 181.5 241.949 177.9 241.949 173.5C241.949 169.1 240.649 165.5 238.049 162.7C235.449 159.9 232.249 158.5 228.449 158.5C224.649 158.5 221.449 159.9 218.849 162.7ZM264.484 199V148H278.484V167H299.984V148H313.984V199H299.984V179H278.484V199H264.484ZM319.531 199L333.031 148H360.031L373.531 199H359.531L349.031 160H344.031L333.531 199H319.531ZM383.235 193.1C378.768 188.1 376.535 181.567 376.535 173.5C376.535 165.433 378.768 158.933 383.235 154C387.768 149 393.368 146.5 400.035 146.5C404.502 146.5 408.535 147.833 412.135 150.5C413.668 151.767 414.968 153.1 416.035 154.5H416.535V148H430.535V199H416.535V192.5H416.035C414.968 193.9 413.668 195.233 412.135 196.5C408.535 199.167 404.502 200.5 400.035 200.5C393.368 200.5 387.768 198.033 383.235 193.1ZM394.535 162.5C392.202 165.167 391.035 168.833 391.035 173.5C391.035 178.167 392.202 181.833 394.535 184.5C396.868 187.167 399.868 188.5 403.535 188.5C407.402 188.5 410.535 187.2 412.935 184.6C415.335 181.933 416.535 178.233 416.535 173.5C416.535 168.767 415.335 165.1 412.935 162.5C410.535 159.833 407.402 158.5 403.535 158.5C399.868 158.5 396.868 159.833 394.535 162.5ZM441.535 199V148H455.535V170L455.035 179H456.035L476.535 148H491.535V199H477.535V177L478.035 168H477.035L456.535 199H441.535ZM450.535 127.5H460.035C460.035 130.833 462.202 132.5 466.535 132.5C470.868 132.5 473.035 130.833 473.035 127.5H482.535C482.535 131.633 481.135 134.933 478.335 137.4C475.602 139.8 471.668 141 466.535 141C461.402 141 457.435 139.8 454.635 137.4C451.902 134.933 450.535 131.633 450.535 127.5ZM502.57 199V148H516.57V167H538.07V148H552.07V199H538.07V179H516.57V199H502.57ZM563.117 178V166H600.617V178H563.117ZM10.5 302.7C5.16667 297.433 2.5 291.033 2.5 283.5C2.5 275.967 5.16667 269.6 10.5 264.4C15.8333 259.133 22.5 256.5 30.5 256.5C38.4333 256.5 45.0667 259.133 50.4 264.4C55.8 269.6 58.5 275.967 58.5 283.5C58.5 291.033 55.8 297.433 50.4 302.7C45.0667 307.9 38.4333 310.5 30.5 310.5C22.5 310.5 15.8333 307.9 10.5 302.7ZM20.9 272.7C18.3 275.5 17 279.1 17 283.5C17 287.9 18.3 291.5 20.9 294.3C23.5 297.1 26.7 298.5 30.5 298.5C34.3 298.5 37.5 297.1 40.1 294.3C42.7 291.5 44 287.9 44 283.5C44 279.1 42.7 275.5 40.1 272.7C37.5 269.9 34.3 268.5 30.5 268.5C26.7 268.5 23.5 269.9 20.9 272.7ZM64.5352 280C64.5352 252.667 75.8685 239 98.5352 239H113.035V251H100.035C93.1685 251 87.9352 252.6 84.3352 255.8C80.7352 258.933 78.8018 263.333 78.5352 269H79.0352C79.8352 267.867 81.0352 266.7 82.6352 265.5C86.0352 263.167 90.0018 262 94.5352 262C101.135 262 106.602 264.233 110.935 268.7C115.335 273.1 117.535 278.7 117.535 285.5C117.535 292.633 115.068 298.6 110.135 303.4C105.268 308.133 98.9018 310.5 91.0352 310.5C83.3685 310.5 77.0352 307.733 72.0352 302.2C67.0352 296.667 64.5352 289.267 64.5352 280ZM79.0352 285.5C79.0352 289.433 80.1352 292.6 82.3352 295C84.5352 297.333 87.4352 298.5 91.0352 298.5C94.6352 298.5 97.5352 297.333 99.7352 295C101.935 292.6 103.035 289.433 103.035 285.5C103.035 281.7 101.935 278.667 99.7352 276.4C97.5352 274.133 94.6352 273 91.0352 273C87.4352 273 84.5352 274.133 82.3352 276.4C80.1352 278.667 79.0352 281.7 79.0352 285.5ZM119.555 258H134.055L144.055 297H148.055L159.055 258H173.555L153.055 328H138.555L144.055 309H133.055L119.555 258ZM177.535 277V258H191.535V276C191.535 281.333 194.368 284 200.035 284C202.768 284 205.402 283.533 207.935 282.6C208.935 282.2 209.802 281.733 210.535 281.2V258H224.535V309H210.535V292.5C209.602 293.233 208.502 293.833 207.235 294.3C204.368 295.433 201.135 296 197.535 296C191.335 296 186.435 294.3 182.835 290.9C179.302 287.5 177.535 282.867 177.535 277ZM240.478 302.7C235.211 297.433 232.578 291.033 232.578 283.5C232.578 275.967 235.211 269.6 240.478 264.4C245.811 259.133 252.345 256.5 260.078 256.5C267.945 256.5 274.411 259.1 279.478 264.3C284.545 269.5 287.078 275.9 287.078 283.5V286.5H247.078C247.611 289.833 249.111 292.667 251.578 295C254.045 297.333 256.878 298.5 260.078 298.5C263.611 298.5 266.645 297.5 269.178 295.5C270.178 294.633 270.978 293.633 271.578 292.5H286.578C285.445 295.9 283.778 298.9 281.578 301.5C276.245 307.5 269.078 310.5 260.078 310.5C252.345 310.5 245.811 307.9 240.478 302.7ZM247.578 278H272.078C271.545 275.333 270.178 273.1 267.978 271.3C265.845 269.433 263.211 268.5 260.078 268.5C256.945 268.5 254.278 269.4 252.078 271.2C249.878 273 248.378 275.267 247.578 278ZM295.539 309V258H309.539V277H331.039V258H345.039V309H331.039V289H309.539V309H295.539ZM356.086 309V258H370.086V280L369.586 289H370.586L391.086 258H406.086V309H392.086V287L392.586 278H391.586L371.086 309H356.086ZM414.621 309L425.121 290.5C423.454 289.7 421.954 288.633 420.621 287.3C417.621 284.3 416.121 280.367 416.121 275.5C416.121 270.367 417.921 266.167 421.521 262.9C425.188 259.633 430.221 258 436.621 258H462.121V309H448.121V293.5H438.121L430.121 309H414.621ZM430.621 275.5C430.621 277.567 431.254 279.167 432.521 280.3C433.788 281.433 435.621 282 438.021 282H448.121V270H438.021C435.688 270 433.854 270.533 432.521 271.6C431.254 272.6 430.621 273.9 430.621 275.5Z" fill="#262B37"/>
<path d="M10.5 86H9.5V87H10.5V86ZM10.5 16V15H9.5V16H10.5ZM71.5 16H72.5V15H71.5V16ZM71.5 86V87H72.5V86H71.5ZM56.5 86H55.5V87H56.5V86ZM56.5 30H57.5V29H56.5V30ZM25.5 30V29H24.5V30H25.5ZM25.5 86V87H26.5V86H25.5ZM11.5 86V16H9.5V86H11.5ZM10.5 17H71.5V15H10.5V17ZM70.5 16V86H72.5V16H70.5ZM71.5 85H56.5V87H71.5V85ZM57.5 86V30H55.5V86H57.5ZM56.5 29H25.5V31H56.5V29ZM24.5 30V86H26.5V30H24.5ZM25.5 85H10.5V87H25.5V85ZM78.0234 86L77.0567 85.7441L76.7243 87H78.0234V86ZM91.5234 35V34H90.7537L90.5567 34.7441L91.5234 35ZM118.523 35L119.49 34.7441L119.293 34H118.523V35ZM132.023 86V87H133.323L132.99 85.7441L132.023 86ZM118.023 86L117.058 86.26L117.257 87H118.023V86ZM107.523 47L108.489 46.74L108.29 46H107.523V47ZM102.523 47V46H101.757L101.558 46.74L102.523 47ZM92.0234 86V87H92.7898L92.9891 86.26L92.0234 86ZM78.9901 86.2559L92.4901 35.2559L90.5567 34.7441L77.0567 85.7441L78.9901 86.2559ZM91.5234 36H118.523V34H91.5234V36ZM117.557 35.2559L131.057 86.2559L132.99 85.7441L119.49 34.7441L117.557 35.2559ZM132.023 85H118.023V87H132.023V85ZM118.989 85.74L108.489 46.74L106.558 47.26L117.058 86.26L118.989 85.74ZM107.523 46H102.523V48H107.523V46ZM101.558 46.74L91.0578 85.74L92.9891 86.26L103.489 47.26L101.558 46.74ZM92.0234 85H78.0234V87H92.0234V85ZM141.727 80.1L140.982 80.7663L140.991 80.7766L141.727 80.1ZM141.727 41L140.987 40.3283L140.986 40.3288L141.727 41ZM170.627 37.5L171.264 36.729L171.244 36.7122L171.223 36.6964L170.627 37.5ZM174.527 41.5L173.732 42.106L174.032 42.5H174.527V41.5ZM175.027 41.5V42.5H176.027V41.5H175.027ZM175.027 35V34H174.027V35H175.027ZM189.027 35H190.027V34H189.027V35ZM189.027 86V87H190.027V86H189.027ZM175.027 86H174.027V87H175.027V86ZM175.027 79.5H176.027V78.5H175.027V79.5ZM174.527 79.5V78.5H174.032L173.732 78.894L174.527 79.5ZM170.627 83.5L171.223 84.3036L171.244 84.2878L171.264 84.271L170.627 83.5ZM153.027 49.5L153.78 50.1585L153.78 50.1585L153.027 49.5ZM153.027 71.5L153.78 70.8415L153.78 70.8415L153.027 71.5ZM171.427 71.6L172.162 72.2783L172.171 72.269L171.427 71.6ZM171.427 49.5L170.684 50.169L170.693 50.1783L171.427 49.5ZM142.473 79.4338C138.202 74.6528 136.027 68.3734 136.027 60.5H134.027C134.027 68.7599 136.319 75.5472 140.982 80.7662L142.473 79.4338ZM136.027 60.5C136.027 52.6261 138.202 46.3834 142.469 41.6712L140.986 40.3288C136.319 45.4833 134.027 52.2406 134.027 60.5H136.027ZM142.468 41.6717C146.815 36.8778 152.147 34.5 158.527 34.5V32.5C151.575 32.5 145.707 35.1222 140.987 40.3283L142.468 41.6717ZM158.527 34.5C162.779 34.5 166.604 35.7641 170.032 38.3036L171.223 36.6964C167.451 33.9026 163.209 32.5 158.527 32.5V34.5ZM169.99 38.271C171.472 39.4951 172.717 40.7742 173.732 42.106L175.323 40.894C174.204 39.4258 172.849 38.0382 171.264 36.729L169.99 38.271ZM174.527 42.5H175.027V40.5H174.527V42.5ZM176.027 41.5V35H174.027V41.5H176.027ZM175.027 36H189.027V34H175.027V36ZM188.027 35V86H190.027V35H188.027ZM189.027 85H175.027V87H189.027V85ZM176.027 86V79.5H174.027V86H176.027ZM175.027 78.5H174.527V80.5H175.027V78.5ZM173.732 78.894C172.717 80.2258 171.472 81.5049 169.99 82.729L171.264 84.271C172.849 82.9618 174.204 81.5742 175.323 80.106L173.732 78.894ZM170.032 82.6964C166.604 85.2359 162.779 86.5 158.527 86.5V88.5C163.209 88.5 167.451 87.0974 171.223 84.3036L170.032 82.6964ZM158.527 86.5C152.142 86.5 146.809 84.1518 142.464 79.4234L140.991 80.7766C145.713 85.9149 151.579 88.5 158.527 88.5V86.5ZM152.275 48.8415C149.737 51.7417 148.527 55.6692 148.527 60.5H150.527C150.527 55.9974 151.651 52.5916 153.78 50.1585L152.275 48.8415ZM148.527 60.5C148.527 65.3308 149.737 69.2583 152.275 72.1585L153.78 70.8415C151.651 68.4084 150.527 65.0026 150.527 60.5H148.527ZM152.275 72.1585C154.805 75.0507 158.084 76.5 162.027 76.5V74.5C158.638 74.5 155.916 73.2827 153.78 70.8415L152.275 72.1585ZM162.027 76.5C166.144 76.5 169.554 75.1037 172.162 72.2783L170.693 70.9217C168.501 73.2963 165.644 74.5 162.027 74.5V76.5ZM172.171 72.269C174.783 69.3665 176.027 65.3998 176.027 60.5H174.027C174.027 65.0668 172.872 68.5001 170.684 70.931L172.171 72.269ZM176.027 60.5C176.027 55.6018 174.783 51.6615 172.162 48.8217L170.693 50.1783C172.871 52.5385 174.027 55.9315 174.027 60.5H176.027ZM172.171 48.831C169.565 45.9359 166.153 44.5 162.027 44.5V46.5C165.635 46.5 168.49 47.7308 170.684 50.169L172.171 48.831ZM162.027 44.5C158.084 44.5 154.805 45.9493 152.275 48.8415L153.78 50.1585C155.916 47.7173 158.638 46.5 162.027 46.5V44.5ZM195.027 47H194.027V48H195.027V47ZM195.027 35V34H194.027V35H195.027ZM243.027 35H244.027V34H243.027V35ZM243.027 47V48H244.027V47H243.027ZM226.027 47V46H225.027V47H226.027ZM226.027 86V87H227.027V86H226.027ZM212.027 86H211.027V87H212.027V86ZM212.027 47H213.027V46H212.027V47ZM196.027 47V35H194.027V47H196.027ZM195.027 36H243.027V34H195.027V36ZM242.027 35V47H244.027V35H242.027ZM243.027 46H226.027V48H243.027V46ZM225.027 47V86H227.027V47H225.027ZM226.027 85H212.027V87H226.027V85ZM213.027 86V47H211.027V86H213.027ZM212.027 46H195.027V48H212.027V46ZM253.651 78.6L252.944 79.3071L252.948 79.3117L253.651 78.6ZM253.651 42.4L252.948 41.6883L252.944 41.6929L253.651 42.4ZM272.551 34L272.622 34.9975L273.551 34.9311V34H272.551ZM272.551 16V15H271.551V16H272.551ZM286.551 16H287.551V15H286.551V16ZM286.551 34H285.551V34.9311L286.48 34.9975L286.551 34ZM305.351 42.4L304.644 43.1071L304.648 43.1117L305.351 42.4ZM305.351 78.6L304.648 77.8883L304.644 77.8929L305.351 78.6ZM286.551 87L286.48 86.0025L285.551 86.0689V87H286.551ZM286.551 104.8V105.8H287.551V104.8H286.551ZM272.551 104.8H271.551V105.8H272.551V104.8ZM272.551 87H273.551V86.0689L272.622 86.0025L272.551 87ZM286.551 46L286.712 45.0131L285.551 44.8231V46H286.551ZM286.551 75H285.551V76.1769L286.712 75.9869L286.551 75ZM295.251 70.4L294.504 69.7344L294.499 69.7401L294.494 69.7458L295.251 70.4ZM295.251 50.6L294.494 51.2542L294.499 51.2599L294.504 51.2656L295.251 50.6ZM263.751 50.6L263.004 49.9344L262.999 49.9401L262.994 49.9458L263.751 50.6ZM263.751 70.4L262.994 71.0542L262.999 71.0599L263.004 71.0656L263.751 70.4ZM272.551 75L272.389 75.9869L273.551 76.1769V75H272.551ZM272.551 46H273.551V44.8231L272.389 45.0131L272.551 46ZM254.358 77.8929C249.474 73.0088 247.051 67.2278 247.051 60.5H245.051C245.051 67.7722 247.694 74.0579 252.944 79.3071L254.358 77.8929ZM247.051 60.5C247.051 53.7722 249.474 47.9912 254.358 43.1071L252.944 41.6929C247.694 46.9421 245.051 53.2278 245.051 60.5H247.051ZM254.353 43.1117C259.31 38.2193 265.383 35.5145 272.622 34.9975L272.48 33.0025C264.785 33.5522 258.258 36.4474 252.948 41.6883L254.353 43.1117ZM273.551 34V16H271.551V34H273.551ZM272.551 17H286.551V15H272.551V17ZM285.551 16V34H287.551V16H285.551ZM286.48 34.9975C293.718 35.5145 299.755 38.2187 304.644 43.1071L306.058 41.6929C300.813 36.448 294.317 33.5522 286.622 33.0025L286.48 34.9975ZM304.648 43.1117C309.598 47.9969 312.051 53.7765 312.051 60.5H314.051C314.051 53.2235 311.37 46.9365 306.053 41.6883L304.648 43.1117ZM312.051 60.5C312.051 67.2235 309.598 73.0031 304.648 77.8883L306.053 79.3117C311.37 74.0635 314.051 67.7765 314.051 60.5H312.051ZM304.644 77.8929C299.755 82.7813 293.718 85.4855 286.48 86.0025L286.622 87.9975C294.317 87.4478 300.813 84.552 306.058 79.3071L304.644 77.8929ZM285.551 87V104.8H287.551V87H285.551ZM286.551 103.8H272.551V105.8H286.551V103.8ZM273.551 104.8V87H271.551V104.8H273.551ZM272.622 86.0025C265.383 85.4855 259.31 82.7807 254.353 77.8883L252.948 79.3117C258.258 84.5526 264.785 87.4478 272.48 87.9975L272.622 86.0025ZM285.551 46V75H287.551V46H285.551ZM286.712 75.9869C290.576 75.3546 293.699 73.7225 296.007 71.0542L294.494 69.7458C292.535 72.0109 289.859 73.4454 286.389 74.0131L286.712 75.9869ZM295.997 71.0656C298.399 68.3731 299.551 64.815 299.551 60.5H297.551C297.551 64.4517 296.503 67.4936 294.504 69.7344L295.997 71.0656ZM299.551 60.5C299.551 56.185 298.399 52.6269 295.997 49.9344L294.504 51.2656C296.503 53.5064 297.551 56.5483 297.551 60.5H299.551ZM296.007 49.9458C293.699 47.2775 290.576 45.6454 286.712 45.0131L286.389 46.9869C289.859 47.5546 292.535 48.9891 294.494 51.2542L296.007 49.9458ZM262.994 49.9458C260.665 52.6387 259.551 56.1925 259.551 60.5H261.551C261.551 56.5408 262.569 53.4947 264.507 51.2542L262.994 49.9458ZM259.551 60.5C259.551 64.8075 260.665 68.3613 262.994 71.0542L264.507 69.7458C262.569 67.5053 261.551 64.4592 261.551 60.5H259.551ZM263.004 71.0656C265.376 73.7243 268.526 75.3548 272.389 75.9869L272.712 74.0131C269.242 73.4452 266.526 72.009 264.497 69.7344L263.004 71.0656ZM273.551 75V46H271.551V75H273.551ZM272.389 45.0131C268.526 45.6452 265.376 47.2757 263.004 49.9344L264.497 51.2656C266.526 48.991 269.242 47.5548 272.712 46.9869L272.389 45.0131ZM326.023 79.7L325.321 80.4116L325.325 80.416L326.023 79.7ZM326.023 41.4L326.722 42.116L326.726 42.1115L326.023 41.4ZM365.923 41.4L365.221 42.1116L365.23 42.1203L365.923 41.4ZM365.923 79.7L366.622 80.416L366.622 80.4159L365.923 79.7ZM336.423 49.7L337.156 50.3805L337.156 50.3805L336.423 49.7ZM336.423 71.3L335.691 71.9805L335.691 71.9805L336.423 71.3ZM355.623 71.3L356.356 71.9805L356.356 71.9805L355.623 71.3ZM355.623 49.7L354.891 50.3805L354.891 50.3805L355.623 49.7ZM326.726 78.9885C321.584 73.9107 319.023 67.7675 319.023 60.5H317.023C317.023 68.2992 319.796 74.9559 325.321 80.4115L326.726 78.9885ZM319.023 60.5C319.023 53.2328 321.584 47.1254 326.722 42.116L325.325 40.684C319.797 46.0746 317.023 52.7005 317.023 60.5H319.023ZM326.726 42.1115C331.859 37.043 338.267 34.5 346.023 34.5V32.5C337.78 32.5 330.855 35.2237 325.321 40.6885L326.726 42.1115ZM346.023 34.5C353.711 34.5 360.086 37.0413 365.221 42.1115L366.626 40.6885C361.094 35.2253 354.203 32.5 346.023 32.5V34.5ZM365.23 42.1203C370.433 47.1308 373.023 53.2369 373.023 60.5H375.023C375.023 52.6964 372.214 46.0692 366.617 40.6797L365.23 42.1203ZM373.023 60.5C373.023 67.7634 370.433 73.9054 365.225 78.9841L366.622 80.4159C372.214 74.9613 375.023 68.3033 375.023 60.5H373.023ZM365.225 78.984C360.092 83.9892 353.715 86.5 346.023 86.5V88.5C354.199 88.5 361.088 85.8108 366.622 80.416L365.225 78.984ZM346.023 86.5C338.263 86.5 331.853 83.9876 326.722 78.984L325.325 80.416C330.86 85.8124 337.784 88.5 346.023 88.5V86.5ZM335.691 49.0195C332.893 52.0325 331.523 55.8886 331.523 60.5H333.523C333.523 56.3114 334.754 52.9675 337.156 50.3805L335.691 49.0195ZM331.523 60.5C331.523 65.1114 332.893 68.9675 335.691 71.9805L337.156 70.6195C334.754 68.0325 333.523 64.6886 333.523 60.5H331.523ZM335.691 71.9805C338.479 74.9829 341.944 76.5 346.023 76.5V74.5C342.503 74.5 339.568 73.2171 337.156 70.6195L335.691 71.9805ZM346.023 76.5C350.103 76.5 353.568 74.9829 356.356 71.9805L354.891 70.6195C352.479 73.2171 349.544 74.5 346.023 74.5V76.5ZM356.356 71.9805C359.154 68.9675 360.523 65.1114 360.523 60.5H358.523C358.523 64.6886 357.293 68.0325 354.891 70.6195L356.356 71.9805ZM360.523 60.5C360.523 55.8886 359.154 52.0325 356.356 49.0195L354.891 50.3805C357.293 52.9675 358.523 56.3114 358.523 60.5H360.523ZM356.356 49.0195C353.568 46.0171 350.103 44.5 346.023 44.5V46.5C349.544 46.5 352.479 47.7829 354.891 50.3805L356.356 49.0195ZM346.023 44.5C341.944 44.5 338.479 46.0171 335.691 49.0195L337.156 50.3805C339.568 47.7829 342.503 46.5 346.023 46.5V44.5ZM382.059 105H381.059V106H382.059V105ZM382.059 35V34H381.059V35H382.059ZM396.059 35H397.059V34H396.059V35ZM396.059 41.5H395.059V42.5H396.059V41.5ZM396.559 41.5V42.5H397.054L397.354 42.106L396.559 41.5ZM400.459 37.5L399.863 36.6964L399.842 36.7122L399.822 36.729L400.459 37.5ZM429.259 41L428.513 41.6663L428.522 41.6766L429.259 41ZM429.259 80.1L428.518 79.4283L428.517 79.4288L429.259 80.1ZM400.459 83.5L399.822 84.271L399.842 84.2878L399.863 84.3036L400.459 83.5ZM396.559 79.5L397.354 78.894L397.054 78.5H396.559V79.5ZM396.059 79.5V78.5H395.059V79.5H396.059ZM396.059 105V106H397.059V105H396.059ZM399.659 49.5L400.393 50.1783L400.402 50.169L399.659 49.5ZM399.659 71.6L398.915 72.269L398.924 72.2783L399.659 71.6ZM418.059 71.5L417.306 70.8415L417.306 70.8415L418.059 71.5ZM418.059 49.5L417.306 50.1585L417.306 50.1585L418.059 49.5ZM383.059 105V35H381.059V105H383.059ZM382.059 36H396.059V34H382.059V36ZM395.059 35V41.5H397.059V35H395.059ZM396.059 42.5H396.559V40.5H396.059V42.5ZM397.354 42.106C398.369 40.7742 399.614 39.4951 401.095 38.271L399.822 36.729C398.237 38.0382 396.882 39.4258 395.763 40.894L397.354 42.106ZM401.054 38.3036C404.482 35.7641 408.307 34.5 412.559 34.5V32.5C407.877 32.5 403.635 33.9026 399.863 36.6964L401.054 38.3036ZM412.559 34.5C418.939 34.5 424.235 36.8772 428.513 41.6662L430.004 40.3338C425.349 35.1228 419.512 32.5 412.559 32.5V34.5ZM428.522 41.6766C432.853 46.3892 435.059 52.63 435.059 60.5H437.059C437.059 52.2367 434.731 45.4775 429.995 40.3234L428.522 41.6766ZM435.059 60.5C435.059 68.3695 432.853 74.647 428.518 79.4283L429.999 80.7717C434.731 75.553 437.059 68.7638 437.059 60.5H435.059ZM428.517 79.4288C424.241 84.1524 418.943 86.5 412.559 86.5V88.5C419.507 88.5 425.343 85.9143 430 80.7712L428.517 79.4288ZM412.559 86.5C408.307 86.5 404.482 85.2359 401.054 82.6964L399.863 84.3036C403.635 87.0974 407.877 88.5 412.559 88.5V86.5ZM401.095 82.729C399.614 81.5049 398.369 80.2258 397.354 78.894L395.763 80.106C396.882 81.5742 398.237 82.9618 399.822 84.271L401.095 82.729ZM396.559 78.5H396.059V80.5H396.559V78.5ZM395.059 79.5V105H397.059V79.5H395.059ZM396.059 104H382.059V106H396.059V104ZM398.924 48.8217C396.302 51.6615 395.059 55.6018 395.059 60.5H397.059C397.059 55.9315 398.215 52.5385 400.393 50.1783L398.924 48.8217ZM395.059 60.5C395.059 65.3998 396.303 69.3665 398.915 72.269L400.402 70.931C398.214 68.5001 397.059 65.0668 397.059 60.5H395.059ZM398.924 72.2783C401.532 75.1037 404.942 76.5 409.059 76.5V74.5C405.442 74.5 402.585 73.2963 400.393 70.9217L398.924 72.2783ZM409.059 76.5C413.002 76.5 416.281 75.0507 418.811 72.1585L417.306 70.8415C415.17 73.2827 412.448 74.5 409.059 74.5V76.5ZM418.811 72.1585C421.349 69.2583 422.559 65.3308 422.559 60.5H420.559C420.559 65.0026 419.435 68.4084 417.306 70.8415L418.811 72.1585ZM422.559 60.5C422.559 55.6692 421.349 51.7417 418.811 48.8415L417.306 50.1585C419.435 52.5916 420.559 55.9974 420.559 60.5H422.559ZM418.811 48.8415C416.281 45.9493 413.002 44.5 409.059 44.5V46.5C412.448 46.5 415.17 47.7173 417.306 50.1585L418.811 48.8415ZM409.059 44.5C404.933 44.5 401.521 45.9359 398.915 48.831L400.402 50.169C402.596 47.7308 405.451 46.5 409.059 46.5V44.5ZM444.559 86H443.559V87H444.559V86ZM444.559 35V34H443.559V35H444.559ZM463.559 35L464.475 34.6001L464.213 34H463.559V35ZM475.559 62.5L474.642 62.8999L474.904 63.5H475.559V62.5ZM477.059 62.5V63.5H477.713L477.975 62.8999L477.059 62.5ZM489.059 35V34H488.404L488.142 34.6001L489.059 35ZM508.059 35H509.059V34H508.059V35ZM508.059 86V87H509.059V86H508.059ZM494.059 86H493.059V87H494.059V86ZM494.059 60.5L493.06 60.4445L493.059 60.4722V60.5H494.059ZM494.559 51.5L495.557 51.5555L495.616 50.5H494.559V51.5ZM494.059 51.5V50.5H493.406L493.143 51.0973L494.059 51.5ZM483.059 76.5V77.5H483.711L483.974 76.9027L483.059 76.5ZM469.559 76.5L468.643 76.9027L468.906 77.5H469.559V76.5ZM458.559 51.5L459.474 51.0973L459.211 50.5H458.559V51.5ZM458.059 51.5V50.5H457.001L457.06 51.5555L458.059 51.5ZM458.559 60.5H459.559V60.4722L459.557 60.4445L458.559 60.5ZM458.559 86V87H459.559V86H458.559ZM445.559 86V35H443.559V86H445.559ZM444.559 36H463.559V34H444.559V36ZM462.642 35.3999L474.642 62.8999L476.475 62.1001L464.475 34.6001L462.642 35.3999ZM475.559 63.5H477.059V61.5H475.559V63.5ZM477.975 62.8999L489.975 35.3999L488.142 34.6001L476.142 62.1001L477.975 62.8999ZM489.059 36H508.059V34H489.059V36ZM507.059 35V86H509.059V35H507.059ZM508.059 85H494.059V87H508.059V85ZM495.059 86V60.5H493.059V86H495.059ZM495.057 60.5555L495.557 51.5555L493.56 51.4445L493.06 60.4445L495.057 60.5555ZM494.559 50.5H494.059V52.5H494.559V50.5ZM493.143 51.0973L482.143 76.0973L483.974 76.9027L494.974 51.9027L493.143 51.0973ZM483.059 75.5H469.559V77.5H483.059V75.5ZM470.474 76.0973L459.474 51.0973L457.643 51.9027L468.643 76.9027L470.474 76.0973ZM458.559 50.5H458.059V52.5H458.559V50.5ZM457.06 51.5555L457.56 60.5555L459.557 60.4445L459.057 51.4445L457.06 51.5555ZM457.559 60.5V86H459.559V60.5H457.559ZM458.559 85H444.559V87H458.559V85ZM523.27 80.1L522.524 80.7663L522.534 80.7766L523.27 80.1ZM523.27 41L522.529 40.3283L522.529 40.3288L523.27 41ZM552.17 37.5L552.807 36.729L552.787 36.7122L552.766 36.6964L552.17 37.5ZM556.07 41.5L555.275 42.106L555.575 42.5H556.07V41.5ZM556.57 41.5V42.5H557.57V41.5H556.57ZM556.57 35V34H555.57V35H556.57ZM570.57 35H571.57V34H570.57V35ZM570.57 86V87H571.57V86H570.57ZM556.57 86H555.57V87H556.57V86ZM556.57 79.5H557.57V78.5H556.57V79.5ZM556.07 79.5V78.5H555.575L555.275 78.894L556.07 79.5ZM552.17 83.5L552.766 84.3036L552.787 84.2878L552.807 84.271L552.17 83.5ZM534.57 49.5L535.323 50.1585L535.323 50.1585L534.57 49.5ZM534.57 71.5L535.323 70.8415L535.323 70.8415L534.57 71.5ZM552.97 71.6L553.705 72.2783L553.714 72.269L552.97 71.6ZM552.97 49.5L552.227 50.169L552.236 50.1783L552.97 49.5ZM524.016 79.4338C519.745 74.6528 517.57 68.3734 517.57 60.5H515.57C515.57 68.7599 517.862 75.5472 522.525 80.7662L524.016 79.4338ZM517.57 60.5C517.57 52.6261 519.745 46.3834 524.012 41.6712L522.529 40.3288C517.862 45.4833 515.57 52.2406 515.57 60.5H517.57ZM524.011 41.6717C528.358 36.8778 533.69 34.5 540.07 34.5V32.5C533.117 32.5 527.25 35.1222 522.529 40.3283L524.011 41.6717ZM540.07 34.5C544.322 34.5 548.147 35.7641 551.575 38.3036L552.766 36.6964C548.994 33.9026 544.752 32.5 540.07 32.5V34.5ZM551.533 38.271C553.015 39.4951 554.26 40.7742 555.275 42.106L556.866 40.894C555.747 39.4258 554.392 38.0382 552.807 36.729L551.533 38.271ZM556.07 42.5H556.57V40.5H556.07V42.5ZM557.57 41.5V35H555.57V41.5H557.57ZM556.57 36H570.57V34H556.57V36ZM569.57 35V86H571.57V35H569.57ZM570.57 85H556.57V87H570.57V85ZM557.57 86V79.5H555.57V86H557.57ZM556.57 78.5H556.07V80.5H556.57V78.5ZM555.275 78.894C554.26 80.2258 553.015 81.5049 551.533 82.729L552.807 84.271C554.392 82.9618 555.747 81.5742 556.866 80.106L555.275 78.894ZM551.575 82.6964C548.147 85.2359 544.322 86.5 540.07 86.5V88.5C544.752 88.5 548.994 87.0974 552.766 84.3036L551.575 82.6964ZM540.07 86.5C533.685 86.5 528.352 84.1518 524.007 79.4234L522.534 80.7766C527.256 85.9149 533.122 88.5 540.07 88.5V86.5ZM533.818 48.8415C531.28 51.7417 530.07 55.6692 530.07 60.5H532.07C532.07 55.9974 533.194 52.5916 535.323 50.1585L533.818 48.8415ZM530.07 60.5C530.07 65.3308 531.28 69.2583 533.818 72.1585L535.323 70.8415C533.194 68.4084 532.07 65.0026 532.07 60.5H530.07ZM533.818 72.1585C536.348 75.0507 539.627 76.5 543.57 76.5V74.5C540.181 74.5 537.459 73.2827 535.323 70.8415L533.818 72.1585ZM543.57 76.5C547.687 76.5 551.097 75.1037 553.705 72.2783L552.236 70.9217C550.044 73.2963 547.187 74.5 543.57 74.5V76.5ZM553.714 72.269C556.326 69.3665 557.57 65.3998 557.57 60.5H555.57C555.57 65.0668 554.415 68.5001 552.227 70.931L553.714 72.269ZM557.57 60.5C557.57 55.6018 556.326 51.6615 553.705 48.8217L552.236 50.1783C554.414 52.5385 555.57 55.9315 555.57 60.5H557.57ZM553.714 48.831C551.108 45.9359 547.696 44.5 543.57 44.5V46.5C547.178 46.5 550.033 47.7308 552.227 50.169L553.714 48.831ZM543.57 44.5C539.627 44.5 536.348 45.9493 533.818 48.8415L535.323 50.1585C537.459 47.7173 540.181 46.5 543.57 46.5V44.5ZM4.5 206.5H3.5V207.5H4.5V206.5ZM4.5 184V183H3.5V184H4.5ZM10 184V185H10.7664L10.9656 184.26L10 184ZM20.5 145V144H19.7336L19.5344 144.74L20.5 145ZM47.5 145L48.4656 144.74L48.2664 144H47.5V145ZM58 184L57.0344 184.26L57.2336 185H58V184ZM63.5 184H64.5V183H63.5V184ZM63.5 206.5V207.5H64.5V206.5H63.5ZM50.5 206.5H49.5V207.5H50.5V206.5ZM50.5 196H51.5V195H50.5V196ZM17.5 196V195H16.5V196H17.5ZM17.5 206.5V207.5H18.5V206.5H17.5ZM24 184L23.0365 183.732L22.6844 185H24V184ZM44 184V185H45.3156L44.9635 183.732L44 184ZM36.5 157L37.4635 156.732L37.2601 156H36.5V157ZM31.5 157V156H30.7399L30.5365 156.732L31.5 157ZM5.5 206.5V184H3.5V206.5H5.5ZM4.5 185H10V183H4.5V185ZM10.9656 184.26L21.4656 145.26L19.5344 144.74L9.03438 183.74L10.9656 184.26ZM20.5 146H47.5V144H20.5V146ZM46.5344 145.26L57.0344 184.26L58.9656 183.74L48.4656 144.74L46.5344 145.26ZM58 185H63.5V183H58V185ZM62.5 184V206.5H64.5V184H62.5ZM63.5 205.5H50.5V207.5H63.5V205.5ZM51.5 206.5V196H49.5V206.5H51.5ZM50.5 195H17.5V197H50.5V195ZM16.5 196V206.5H18.5V196H16.5ZM17.5 205.5H4.5V207.5H17.5V205.5ZM24 185H44V183H24V185ZM44.9635 183.732L37.4635 156.732L35.5365 157.268L43.0365 184.268L44.9635 183.732ZM36.5 156H31.5V158H36.5V156ZM30.5365 156.732L23.0365 183.732L24.9635 184.268L32.4635 157.268L30.5365 156.732ZM63.9609 196L62.9942 195.744L62.6618 197H63.9609V196ZM77.4609 145V144H76.6912L76.4942 144.744L77.4609 145ZM104.461 145L105.428 144.744L105.231 144H104.461V145ZM117.961 196V197H119.26L118.928 195.744L117.961 196ZM103.961 196L102.995 196.26L103.195 197H103.961V196ZM93.4609 157L94.4266 156.74L94.2273 156H93.4609V157ZM88.4609 157V156H87.6946L87.4953 156.74L88.4609 157ZM77.9609 196V197H78.7273L78.9266 196.26L77.9609 196ZM64.9276 196.256L78.4276 145.256L76.4942 144.744L62.9942 195.744L64.9276 196.256ZM77.4609 146H104.461V144H77.4609V146ZM103.494 145.256L116.994 196.256L118.928 195.744L105.428 144.744L103.494 145.256ZM117.961 195H103.961V197H117.961V195ZM104.927 195.74L94.4266 156.74L92.4953 157.26L102.995 196.26L104.927 195.74ZM93.4609 156H88.4609V158H93.4609V156ZM87.4953 156.74L76.9953 195.74L78.9266 196.26L89.4266 157.26L87.4953 156.74ZM77.9609 195H63.9609V197H77.9609V195ZM120.965 196L120.095 195.506L119.247 197H120.965V196ZM131.465 177.5L132.335 177.994L132.863 177.062L131.898 176.598L131.465 177.5ZM126.965 174.3L126.258 175.007L126.258 175.007L126.965 174.3ZM127.865 149.9L127.2 149.153L127.193 149.159L127.865 149.9ZM168.465 145H169.465V144H168.465V145ZM168.465 196V197H169.465V196H168.465ZM154.465 196H153.465V197H154.465V196ZM154.465 180.5H155.465V179.5H154.465V180.5ZM144.465 180.5V179.5H143.856L143.576 180.041L144.465 180.5ZM136.465 196V197H137.074L137.353 196.459L136.465 196ZM138.865 167.3L138.198 168.045L138.198 168.045L138.865 167.3ZM154.465 169V170H155.465V169H154.465ZM154.465 157H155.465V156H154.465V157ZM138.865 158.6L139.485 159.385L139.49 159.381L138.865 158.6ZM121.835 196.494L132.335 177.994L130.595 177.006L120.095 195.506L121.835 196.494ZM131.898 176.598C130.335 175.848 128.927 174.848 127.672 173.593L126.258 175.007C127.669 176.419 129.262 177.552 131.032 178.402L131.898 176.598ZM127.672 173.593C124.887 170.808 123.465 167.144 123.465 162.5H121.465C121.465 167.59 123.042 171.792 126.258 175.007L127.672 173.593ZM123.465 162.5C123.465 157.631 125.159 153.706 128.537 150.641L127.193 149.159C123.371 152.627 121.465 157.102 121.465 162.5H123.465ZM128.53 150.647C131.964 147.588 136.734 146 142.965 146V144C136.396 144 131.099 145.679 127.2 149.153L128.53 150.647ZM142.965 146H168.465V144H142.965V146ZM167.465 145V196H169.465V145H167.465ZM168.465 195H154.465V197H168.465V195ZM155.465 196V180.5H153.465V196H155.465ZM154.465 179.5H144.465V181.5H154.465V179.5ZM143.576 180.041L135.576 195.541L137.353 196.459L145.353 180.959L143.576 180.041ZM136.465 195H120.965V197H136.465V195ZM135.965 162.5C135.965 164.785 136.674 166.682 138.198 168.045L139.532 166.555C138.522 165.651 137.965 164.349 137.965 162.5H135.965ZM138.198 168.045C139.711 169.399 141.82 170 144.365 170V168C142.11 168 140.552 167.467 139.532 166.555L138.198 168.045ZM144.365 170H154.465V168H144.365V170ZM155.465 169V157H153.465V169H155.465ZM154.465 156H144.365V158H154.465V156ZM144.365 156C141.887 156 139.806 156.566 138.24 157.819L139.49 159.381C140.59 158.5 142.176 158 144.365 158V156ZM138.245 157.815C136.741 159.003 135.965 160.591 135.965 162.5H137.965C137.965 161.209 138.456 160.197 139.484 159.385L138.245 157.815ZM212.449 189.7L211.747 190.412L211.751 190.416L212.449 189.7ZM212.449 151.4L213.147 152.116L213.152 152.112L212.449 151.4ZM252.349 151.4L251.647 152.112L251.656 152.12L252.349 151.4ZM252.349 189.7L253.047 190.416L253.047 190.416L252.349 189.7ZM222.849 159.7L223.582 160.38L223.582 160.38L222.849 159.7ZM222.849 181.3L222.116 181.98L222.116 181.98L222.849 181.3ZM242.049 181.3L242.782 181.98L242.782 181.98L242.049 181.3ZM242.049 159.7L241.316 160.38L241.316 160.38L242.049 159.7ZM213.152 188.988C208.01 183.911 205.449 177.767 205.449 170.5H203.449C203.449 178.299 206.222 184.956 211.747 190.412L213.152 188.988ZM205.449 170.5C205.449 163.233 208.009 157.125 213.147 152.116L211.751 150.684C206.222 156.075 203.449 162.701 203.449 170.5H205.449ZM213.152 152.112C218.285 147.043 224.693 144.5 232.449 144.5V142.5C224.206 142.5 217.281 145.224 211.747 150.688L213.152 152.112ZM232.449 144.5C240.137 144.5 246.512 147.041 251.647 152.112L253.052 150.688C247.52 145.225 240.629 142.5 232.449 142.5V144.5ZM251.656 152.12C256.859 157.131 259.449 163.237 259.449 170.5H261.449C261.449 162.696 258.64 156.069 253.043 150.68L251.656 152.12ZM259.449 170.5C259.449 177.763 256.858 183.905 251.651 188.984L253.047 190.416C258.64 184.961 261.449 178.303 261.449 170.5H259.449ZM251.651 188.984C246.518 193.989 240.14 196.5 232.449 196.5V198.5C240.625 198.5 247.514 195.811 253.047 190.416L251.651 188.984ZM232.449 196.5C224.689 196.5 218.279 193.988 213.147 188.984L211.751 190.416C217.286 195.812 224.21 198.5 232.449 198.5V196.5ZM222.116 159.02C219.319 162.033 217.949 165.889 217.949 170.5H219.949C219.949 166.311 221.18 162.967 223.582 160.38L222.116 159.02ZM217.949 170.5C217.949 175.111 219.319 178.967 222.116 181.98L223.582 180.62C221.18 178.033 219.949 174.689 219.949 170.5H217.949ZM222.116 181.98C224.904 184.983 228.369 186.5 232.449 186.5V184.5C228.929 184.5 225.994 183.217 223.582 180.62L222.116 181.98ZM232.449 186.5C236.529 186.5 239.994 184.983 242.782 181.98L241.316 180.62C238.904 183.217 235.969 184.5 232.449 184.5V186.5ZM242.782 181.98C245.58 178.967 246.949 175.111 246.949 170.5H244.949C244.949 174.689 243.719 178.033 241.316 180.62L242.782 181.98ZM246.949 170.5C246.949 165.889 245.58 162.033 242.782 159.02L241.316 160.38C243.719 162.967 244.949 166.311 244.949 170.5H246.949ZM242.782 159.02C239.994 156.017 236.529 154.5 232.449 154.5V156.5C235.969 156.5 238.904 157.783 241.316 160.38L242.782 159.02ZM232.449 154.5C228.369 154.5 224.904 156.017 222.116 159.02L223.582 160.38C225.994 157.783 228.929 156.5 232.449 156.5V154.5ZM268.484 196H267.484V197H268.484V196ZM268.484 145V144H267.484V145H268.484ZM282.484 145H283.484V144H282.484V145ZM282.484 164H281.484V165H282.484V164ZM303.984 164V165H304.984V164H303.984ZM303.984 145V144H302.984V145H303.984ZM317.984 145H318.984V144H317.984V145ZM317.984 196V197H318.984V196H317.984ZM303.984 196H302.984V197H303.984V196ZM303.984 176H304.984V175H303.984V176ZM282.484 176V175H281.484V176H282.484ZM282.484 196V197H283.484V196H282.484ZM269.484 196V145H267.484V196H269.484ZM268.484 146H282.484V144H268.484V146ZM281.484 145V164H283.484V145H281.484ZM282.484 165H303.984V163H282.484V165ZM304.984 164V145H302.984V164H304.984ZM303.984 146H317.984V144H303.984V146ZM316.984 145V196H318.984V145H316.984ZM317.984 195H303.984V197H317.984V195ZM304.984 196V176H302.984V196H304.984ZM303.984 175H282.484V177H303.984V175ZM281.484 176V196H283.484V176H281.484ZM282.484 195H268.484V197H282.484V195ZM323.531 196L322.565 195.744L322.232 197H323.531V196ZM337.031 145V144H336.262L336.065 144.744L337.031 145ZM364.031 145L364.998 144.744L364.801 144H364.031V145ZM377.531 196V197H378.83L378.498 195.744L377.531 196ZM363.531 196L362.566 196.26L362.765 197H363.531V196ZM353.031 157L353.997 156.74L353.798 156H353.031V157ZM348.031 157V156H347.265L347.066 156.74L348.031 157ZM337.531 196V197H338.298L338.497 196.26L337.531 196ZM324.498 196.256L337.998 145.256L336.065 144.744L322.565 195.744L324.498 196.256ZM337.031 146H364.031V144H337.031V146ZM363.065 145.256L376.565 196.256L378.498 195.744L364.998 144.744L363.065 145.256ZM377.531 195H363.531V197H377.531V195ZM364.497 195.74L353.997 156.74L352.066 157.26L362.566 196.26L364.497 195.74ZM353.031 156H348.031V158H353.031V156ZM347.066 156.74L336.566 195.74L338.497 196.26L348.997 157.26L347.066 156.74ZM337.531 195H323.531V197H337.531V195ZM387.235 190.1L386.489 190.766L386.499 190.777L387.235 190.1ZM387.235 151L386.494 150.328L386.494 150.329L387.235 151ZM416.135 147.5L416.772 146.729L416.752 146.712L416.73 146.696L416.135 147.5ZM420.035 151.5L419.24 152.106L419.54 152.5H420.035V151.5ZM420.535 151.5V152.5H421.535V151.5H420.535ZM420.535 145V144H419.535V145H420.535ZM434.535 145H435.535V144H434.535V145ZM434.535 196V197H435.535V196H434.535ZM420.535 196H419.535V197H420.535V196ZM420.535 189.5H421.535V188.5H420.535V189.5ZM420.035 189.5V188.5H419.54L419.24 188.894L420.035 189.5ZM416.135 193.5L416.73 194.304L416.752 194.288L416.772 194.271L416.135 193.5ZM398.535 159.5L399.288 160.159L399.288 160.159L398.535 159.5ZM398.535 181.5L399.288 180.841L399.288 180.841L398.535 181.5ZM416.935 181.6L417.67 182.278L417.678 182.269L416.935 181.6ZM416.935 159.5L416.192 160.169L416.2 160.178L416.935 159.5ZM387.981 189.434C383.71 184.653 381.535 178.373 381.535 170.5H379.535C379.535 178.76 381.827 185.547 386.489 190.766L387.981 189.434ZM381.535 170.5C381.535 162.626 383.71 156.383 387.976 151.671L386.494 150.329C381.827 155.483 379.535 162.241 379.535 170.5H381.535ZM387.976 151.672C392.322 146.878 397.655 144.5 404.035 144.5V142.5C397.082 142.5 391.215 145.122 386.494 150.328L387.976 151.672ZM404.035 144.5C408.287 144.5 412.112 145.764 415.54 148.304L416.73 146.696C412.959 143.903 408.717 142.5 404.035 142.5V144.5ZM415.498 148.271C416.98 149.495 418.225 150.774 419.24 152.106L420.831 150.894C419.712 149.426 418.357 148.038 416.772 146.729L415.498 148.271ZM420.035 152.5H420.535V150.5H420.035V152.5ZM421.535 151.5V145H419.535V151.5H421.535ZM420.535 146H434.535V144H420.535V146ZM433.535 145V196H435.535V145H433.535ZM434.535 195H420.535V197H434.535V195ZM421.535 196V189.5H419.535V196H421.535ZM420.535 188.5H420.035V190.5H420.535V188.5ZM419.24 188.894C418.225 190.226 416.98 191.505 415.498 192.729L416.772 194.271C418.357 192.962 419.712 191.574 420.831 190.106L419.24 188.894ZM415.54 192.696C412.112 195.236 408.287 196.5 404.035 196.5V198.5C408.717 198.5 412.959 197.097 416.73 194.304L415.54 192.696ZM404.035 196.5C397.65 196.5 392.317 194.152 387.971 189.423L386.499 190.777C391.22 195.915 397.087 198.5 404.035 198.5V196.5ZM397.783 158.841C395.245 161.742 394.035 165.669 394.035 170.5H396.035C396.035 165.997 397.159 162.592 399.288 160.159L397.783 158.841ZM394.035 170.5C394.035 175.331 395.245 179.258 397.783 182.159L399.288 180.841C397.159 178.408 396.035 175.003 396.035 170.5H394.035ZM397.783 182.159C400.313 185.051 403.592 186.5 407.535 186.5V184.5C404.145 184.5 401.424 183.283 399.288 180.841L397.783 182.159ZM407.535 186.5C411.652 186.5 415.062 185.104 417.67 182.278L416.2 180.922C414.008 183.296 411.152 184.5 407.535 184.5V186.5ZM417.678 182.269C420.291 179.367 421.535 175.4 421.535 170.5H419.535C419.535 175.067 418.38 178.5 416.192 180.931L417.678 182.269ZM421.535 170.5C421.535 165.602 420.291 161.661 417.67 158.822L416.2 160.178C418.379 162.539 419.535 165.931 419.535 170.5H421.535ZM417.678 158.831C415.073 155.936 411.661 154.5 407.535 154.5V156.5C411.143 156.5 413.997 157.731 416.192 160.169L417.678 158.831ZM407.535 154.5C403.592 154.5 400.313 155.949 397.783 158.841L399.288 160.159C401.424 157.717 404.145 156.5 407.535 156.5V154.5ZM445.535 196H444.535V197H445.535V196ZM445.535 145V144H444.535V145H445.535ZM459.535 145H460.535V144H459.535V145ZM459.535 167L460.534 167.055L460.535 167.028V167H459.535ZM459.035 176L458.037 175.945L457.978 177H459.035V176ZM460.035 176V177H460.573L460.869 176.552L460.035 176ZM480.535 145V144H479.998L479.701 144.448L480.535 145ZM495.535 145H496.535V144H495.535V145ZM495.535 196V197H496.535V196H495.535ZM481.535 196H480.535V197H481.535V196ZM481.535 174L480.537 173.945L480.535 173.972V174H481.535ZM482.035 165L483.034 165.055L483.092 164H482.035V165ZM481.035 165V164H480.498L480.201 164.448L481.035 165ZM460.535 196V197H461.073L461.369 196.552L460.535 196ZM454.535 124.5V123.5H453.535V124.5H454.535ZM464.035 124.5H465.035V123.5H464.035V124.5ZM477.035 124.5V123.5H476.035V124.5H477.035ZM486.535 124.5H487.535V123.5H486.535V124.5ZM482.335 134.4L482.995 135.151L482.996 135.15L482.335 134.4ZM458.635 134.4L457.965 135.142L457.975 135.151L457.984 135.159L458.635 134.4ZM446.535 196V145H444.535V196H446.535ZM445.535 146H459.535V144H445.535V146ZM458.535 145V167H460.535V145H458.535ZM458.537 166.945L458.037 175.945L460.034 176.055L460.534 167.055L458.537 166.945ZM459.035 177H460.035V175H459.035V177ZM460.869 176.552L481.369 145.552L479.701 144.448L459.201 175.448L460.869 176.552ZM480.535 146H495.535V144H480.535V146ZM494.535 145V196H496.535V145H494.535ZM495.535 195H481.535V197H495.535V195ZM482.535 196V174H480.535V196H482.535ZM482.534 174.055L483.034 165.055L481.037 164.945L480.537 173.945L482.534 174.055ZM482.035 164H481.035V166H482.035V164ZM480.201 164.448L459.701 195.448L461.369 196.552L481.869 165.552L480.201 164.448ZM460.535 195H445.535V197H460.535V195ZM454.535 125.5H464.035V123.5H454.535V125.5ZM463.035 124.5C463.035 126.401 463.667 127.978 465.05 129.043C466.385 130.069 468.268 130.5 470.535 130.5V128.5C468.469 128.5 467.102 128.098 466.27 127.457C465.487 126.855 465.035 125.932 465.035 124.5H463.035ZM470.535 130.5C472.802 130.5 474.686 130.069 476.02 129.043C477.404 127.978 478.035 126.401 478.035 124.5H476.035C476.035 125.932 475.583 126.855 474.8 127.457C473.968 128.098 472.602 128.5 470.535 128.5V130.5ZM477.035 125.5H486.535V123.5H477.035V125.5ZM485.535 124.5C485.535 128.381 484.234 131.395 481.674 133.65L482.996 135.15C486.036 132.472 487.535 128.886 487.535 124.5H485.535ZM481.675 133.649C479.187 135.833 475.525 137 470.535 137V139C475.812 139 480.016 137.767 482.995 135.151L481.675 133.649ZM470.535 137C465.547 137 461.845 135.834 459.286 133.641L457.984 135.159C461.026 137.766 465.256 139 470.535 139V137ZM459.305 133.658C456.809 131.405 455.535 128.389 455.535 124.5H453.535C453.535 128.878 454.995 132.462 457.965 135.142L459.305 133.658ZM506.57 196H505.57V197H506.57V196ZM506.57 145V144H505.57V145H506.57ZM520.57 145H521.57V144H520.57V145ZM520.57 164H519.57V165H520.57V164ZM542.07 164V165H543.07V164H542.07ZM542.07 145V144H541.07V145H542.07ZM556.07 145H557.07V144H556.07V145ZM556.07 196V197H557.07V196H556.07ZM542.07 196H541.07V197H542.07V196ZM542.07 176H543.07V175H542.07V176ZM520.57 176V175H519.57V176H520.57ZM520.57 196V197H521.57V196H520.57ZM507.57 196V145H505.57V196H507.57ZM506.57 146H520.57V144H506.57V146ZM519.57 145V164H521.57V145H519.57ZM520.57 165H542.07V163H520.57V165ZM543.07 164V145H541.07V164H543.07ZM542.07 146H556.07V144H542.07V146ZM555.07 145V196H557.07V145H555.07ZM556.07 195H542.07V197H556.07V195ZM543.07 196V176H541.07V196H543.07ZM542.07 175H520.57V177H542.07V175ZM519.57 176V196H521.57V176H519.57ZM520.57 195H506.57V197H520.57V195ZM567.117 175H566.117V176H567.117V175ZM567.117 163V162H566.117V163H567.117ZM604.617 163H605.617V162H604.617V163ZM604.617 175V176H605.617V175H604.617ZM568.117 175V163H566.117V175H568.117ZM567.117 164H604.617V162H567.117V164ZM603.617 163V175H605.617V163H603.617ZM604.617 174H567.117V176H604.617V174ZM14.5 299.7L13.7973 300.412L13.8019 300.416L14.5 299.7ZM14.5 261.4L15.1981 262.116L15.2026 262.112L14.5 261.4ZM54.4 261.4L53.6973 262.112L53.7064 262.12L54.4 261.4ZM54.4 299.7L55.0981 300.416L55.0982 300.416L54.4 299.7ZM24.9 269.7L25.6328 270.38L25.6328 270.38L24.9 269.7ZM24.9 291.3L24.1672 291.98L24.1672 291.98L24.9 291.3ZM44.1 291.3L44.8328 291.98L44.8328 291.98L44.1 291.3ZM44.1 269.7L43.3672 270.38L43.3672 270.38L44.1 269.7ZM15.2026 298.988C10.0607 293.911 7.5 287.767 7.5 280.5H5.5C5.5 288.299 8.27268 294.956 13.7974 300.412L15.2026 298.988ZM7.5 280.5C7.5 273.233 10.0603 267.125 15.1981 262.116L13.8019 260.684C8.27307 266.075 5.5 272.701 5.5 280.5H7.5ZM15.2026 262.112C20.3353 257.043 26.7435 254.5 34.5 254.5V252.5C26.2565 252.5 19.3313 255.224 13.7974 260.688L15.2026 262.112ZM34.5 254.5C42.1873 254.5 48.563 257.041 53.6974 262.112L55.1026 260.688C49.5704 255.225 42.6793 252.5 34.5 252.5V254.5ZM53.7064 262.12C58.9095 267.131 61.5 273.237 61.5 280.5H63.5C63.5 272.696 60.6905 266.069 55.0936 260.68L53.7064 262.12ZM61.5 280.5C61.5 287.763 58.9091 293.905 53.7018 298.984L55.0982 300.416C60.6909 294.961 63.5 288.303 63.5 280.5H61.5ZM53.7019 298.984C48.5683 303.989 42.1912 306.5 34.5 306.5V308.5C42.6754 308.5 49.565 305.811 55.0981 300.416L53.7019 298.984ZM34.5 306.5C26.7396 306.5 20.33 303.988 15.1981 298.984L13.8019 300.416C19.3367 305.812 26.2604 308.5 34.5 308.5V306.5ZM24.1672 269.02C21.3695 272.033 20 275.889 20 280.5H22C22 276.311 23.2305 272.967 25.6328 270.38L24.1672 269.02ZM20 280.5C20 285.111 21.3695 288.967 24.1672 291.98L25.6328 290.62C23.2305 288.033 22 284.689 22 280.5H20ZM24.1672 291.98C26.9552 294.983 30.4202 296.5 34.5 296.5V294.5C30.9798 294.5 28.0448 293.217 25.6328 290.62L24.1672 291.98ZM34.5 296.5C38.5798 296.5 42.0448 294.983 44.8328 291.98L43.3672 290.62C40.9552 293.217 38.0202 294.5 34.5 294.5V296.5ZM44.8328 291.98C47.6305 288.967 49 285.111 49 280.5H47C47 284.689 45.7695 288.033 43.3672 290.62L44.8328 291.98ZM49 280.5C49 275.889 47.6305 272.033 44.8328 269.02L43.3672 270.38C45.7695 272.967 47 276.311 47 280.5H49ZM44.8328 269.02C42.0448 266.017 38.5798 264.5 34.5 264.5V266.5C38.0202 266.5 40.9552 267.783 43.3672 270.38L44.8328 269.02ZM34.5 264.5C30.4202 264.5 26.9552 266.017 24.1672 269.02L25.6328 270.38C28.0448 267.783 30.9798 266.5 34.5 266.5V264.5ZM117.035 236H118.035V235H117.035V236ZM117.035 248V249H118.035V248H117.035ZM88.3352 252.8L88.9917 253.554L88.9995 253.547L88.3352 252.8ZM82.5352 266L81.5363 265.953L81.487 267H82.5352V266ZM83.0352 266V267H83.5533L83.8521 266.577L83.0352 266ZM86.6352 262.5L86.0693 261.675L86.052 261.687L86.0352 261.7L86.6352 262.5ZM114.935 265.7L114.217 266.396L114.223 266.402L114.228 266.407L114.935 265.7ZM114.135 300.4L114.832 301.117L114.833 301.117L114.135 300.4ZM76.0352 299.2L76.7771 298.53L76.7771 298.53L76.0352 299.2ZM86.3352 292L85.5979 292.676L85.6076 292.686L86.3352 292ZM103.735 292L104.463 292.686L104.472 292.676L103.735 292ZM103.735 273.4L104.453 272.704L103.735 273.4ZM86.3352 273.4L87.0527 274.096L87.0527 274.096L86.3352 273.4ZM69.5352 277C69.5352 263.447 72.3488 253.468 77.8049 246.888C83.2312 240.345 91.4104 237 102.535 237V235C90.9933 235 82.1724 238.489 76.2654 245.612C70.3881 252.699 67.5352 263.22 67.5352 277H69.5352ZM102.535 237H117.035V235H102.535V237ZM116.035 236V248H118.035V236H116.035ZM117.035 247H104.035V249H117.035V247ZM104.035 247C97.0268 247 91.5186 248.632 87.6708 252.053L88.9995 253.547C92.3517 250.568 97.3101 249 104.035 249V247ZM87.6786 252.046C83.8343 255.392 81.8131 260.069 81.5363 265.953L83.5341 266.047C83.7905 260.597 85.6361 256.475 88.9917 253.554L87.6786 252.046ZM82.5352 267H83.0352V265H82.5352V267ZM83.8521 266.577C84.5717 265.557 85.6851 264.463 87.2352 263.3L86.0352 261.7C84.3852 262.937 83.0986 264.176 82.2182 265.423L83.8521 266.577ZM87.201 263.325C90.4179 261.117 94.1829 260 98.5352 260V258C93.8208 258 89.6524 259.217 86.0693 261.675L87.201 263.325ZM98.5352 260C104.883 260 110.085 262.136 114.217 266.396L115.653 265.004C111.119 260.33 105.387 258 98.5352 258V260ZM114.228 266.407C118.422 270.601 120.535 275.938 120.535 282.5H122.535C122.535 275.462 120.248 269.599 115.642 264.993L114.228 266.407ZM120.535 282.5C120.535 289.374 118.17 295.079 113.438 299.683L114.833 301.117C119.967 296.121 122.535 289.892 122.535 282.5H120.535ZM113.438 299.683C108.788 304.206 102.686 306.5 95.0352 306.5V308.5C103.118 308.5 109.749 306.061 114.832 301.117L113.438 299.683ZM95.0352 306.5C87.6423 306.5 81.5816 303.846 76.7771 298.53L75.2932 299.87C80.4888 305.62 87.0947 308.5 95.0352 308.5V306.5ZM76.7771 298.53C71.9809 293.222 69.5352 286.082 69.5352 277H67.5352C67.5352 286.452 70.0894 294.112 75.2932 299.87L76.7771 298.53ZM82.0352 282.5C82.0352 286.629 83.1952 290.054 85.598 292.676L87.0723 291.324C85.0751 289.146 84.0352 286.238 84.0352 282.5H82.0352ZM85.6076 292.686C88.0206 295.245 91.197 296.5 95.0352 296.5V294.5C91.6734 294.5 89.0497 293.421 87.0627 291.314L85.6076 292.686ZM95.0352 296.5C98.8734 296.5 102.05 295.245 104.463 292.686L103.008 291.314C101.021 293.421 98.397 294.5 95.0352 294.5V296.5ZM104.472 292.676C106.875 290.054 108.035 286.629 108.035 282.5H106.035C106.035 286.238 104.995 289.146 102.998 291.324L104.472 292.676ZM108.035 282.5C108.035 278.496 106.87 275.194 104.453 272.704L103.018 274.096C105.001 276.14 106.035 278.904 106.035 282.5H108.035ZM104.453 272.704C102.037 270.215 98.8643 269 95.0352 269V271C98.406 271 101.033 272.052 103.018 274.096L104.453 272.704ZM95.0352 269C91.206 269 88.0328 270.215 85.6176 272.704L87.0527 274.096C89.0375 272.052 91.6643 271 95.0352 271V269ZM85.6176 272.704C83.2008 275.194 82.0352 278.496 82.0352 282.5H84.0352C84.0352 278.904 85.0695 276.14 87.0527 274.096L85.6176 272.704ZM123.555 255V254H122.256L122.588 255.256L123.555 255ZM138.055 255L139.023 254.752L138.831 254H138.055V255ZM148.055 294L147.086 294.248L147.279 295H148.055V294ZM152.055 294V295H152.812L153.017 294.271L152.055 294ZM163.055 255V254H162.298L162.092 254.729L163.055 255ZM177.555 255L178.514 255.281L178.89 254H177.555V255ZM157.055 325V326H157.804L158.014 325.281L157.055 325ZM142.555 325L141.594 324.722L141.224 326H142.555V325ZM148.055 306L149.015 306.278L149.385 305H148.055V306ZM137.055 306L136.088 306.256L136.285 307H137.055V306ZM123.555 256H138.055V254H123.555V256ZM137.086 255.248L147.086 294.248L149.023 293.752L139.023 254.752L137.086 255.248ZM148.055 295H152.055V293H148.055V295ZM153.017 294.271L164.017 255.271L162.092 254.729L151.092 293.729L153.017 294.271ZM163.055 256H177.555V254H163.055V256ZM176.595 254.719L156.095 324.719L158.014 325.281L178.514 255.281L176.595 254.719ZM157.055 324H142.555V326H157.055V324ZM143.515 325.278L149.015 306.278L147.094 305.722L141.594 324.722L143.515 325.278ZM148.055 305H137.055V307H148.055V305ZM138.021 305.744L124.521 254.744L122.588 255.256L136.088 306.256L138.021 305.744ZM181.535 255V254H180.535V255H181.535ZM195.535 255H196.535V254H195.535V255ZM211.935 279.6L212.281 280.538L212.294 280.534L212.307 280.528L211.935 279.6ZM214.535 278.2L215.123 279.009L215.535 278.709V278.2H214.535ZM214.535 255V254H213.535V255H214.535ZM228.535 255H229.535V254H228.535V255ZM228.535 306V307H229.535V306H228.535ZM214.535 306H213.535V307H214.535V306ZM214.535 289.5H215.535V287.443L213.917 288.714L214.535 289.5ZM211.235 291.3L210.889 290.362L210.878 290.366L210.867 290.37L211.235 291.3ZM186.835 287.9L186.142 288.621L186.149 288.627L186.835 287.9ZM182.535 274V255H180.535V274H182.535ZM181.535 256H195.535V254H181.535V256ZM194.535 255V273H196.535V255H194.535ZM194.535 273C194.535 275.837 195.292 278.144 196.975 279.728C198.647 281.302 201.062 282 204.035 282V280C201.341 280 199.507 279.365 198.346 278.272C197.195 277.189 196.535 275.496 196.535 273H194.535ZM204.035 282C206.885 282 209.635 281.513 212.281 280.538L211.589 278.662C209.168 279.554 206.652 280 204.035 280V282ZM212.307 280.528C213.37 280.103 214.312 279.599 215.123 279.009L213.947 277.391C213.292 277.868 212.501 278.297 211.564 278.672L212.307 280.528ZM215.535 278.2V255H213.535V278.2H215.535ZM214.535 256H228.535V254H214.535V256ZM227.535 255V306H229.535V255H227.535ZM228.535 305H214.535V307H228.535V305ZM215.535 306V289.5H213.535V306H215.535ZM213.917 288.714C213.077 289.374 212.071 289.926 210.889 290.362L211.581 292.238C212.932 291.74 214.127 291.092 215.153 290.286L213.917 288.714ZM210.867 290.37C208.136 291.45 205.03 292 201.535 292V294C205.24 294 208.601 293.417 211.603 292.23L210.867 290.37ZM201.535 292C195.523 292 190.892 290.356 187.522 287.173L186.149 288.627C189.978 292.244 195.147 294 201.535 294V292ZM187.529 287.179C184.229 284.004 182.535 279.652 182.535 274H180.535C180.535 280.081 182.375 284.996 186.142 288.621L187.529 287.179ZM244.478 299.7L243.771 300.407L243.78 300.416L244.478 299.7ZM244.478 261.4L245.181 262.112L245.181 262.112L244.478 261.4ZM283.478 261.3L282.762 261.998L282.762 261.998L283.478 261.3ZM291.078 283.5V284.5H292.078V283.5H291.078ZM251.078 283.5V282.5H249.905L250.091 283.658L251.078 283.5ZM255.578 292L254.891 292.726L254.891 292.726L255.578 292ZM273.178 292.5L273.798 293.285L273.816 293.271L273.833 293.256L273.178 292.5ZM275.578 289.5V288.5H274.976L274.694 289.032L275.578 289.5ZM290.578 289.5L291.527 289.816L291.966 288.5H290.578V289.5ZM285.578 298.5L286.326 299.164L286.334 299.155L286.342 299.146L285.578 298.5ZM251.578 275L250.618 274.719L250.243 276H251.578V275ZM276.078 275V276H277.298L277.059 274.804L276.078 275ZM271.978 268.3L271.32 269.053L271.332 269.063L271.345 269.074L271.978 268.3ZM245.185 298.993C240.108 293.916 237.578 287.772 237.578 280.5H235.578C235.578 288.295 238.314 294.951 243.771 300.407L245.185 298.993ZM237.578 280.5C237.578 273.229 240.108 267.12 245.181 262.112L243.776 260.688C238.315 266.08 235.578 272.705 235.578 280.5H237.578ZM245.181 262.112C250.32 257.036 256.599 254.5 264.078 254.5V252.5C256.091 252.5 249.302 255.231 243.775 260.688L245.181 262.112ZM264.078 254.5C271.7 254.5 277.9 257.008 282.762 261.998L284.194 260.602C278.923 255.192 272.19 252.5 264.078 252.5V254.5ZM282.762 261.998C287.637 267.002 290.078 273.147 290.078 280.5H292.078C292.078 272.653 289.452 265.998 284.194 260.602L282.762 261.998ZM290.078 280.5V283.5H292.078V280.5H290.078ZM291.078 282.5H251.078V284.5H291.078V282.5ZM250.091 283.658C250.659 287.21 252.265 290.243 254.891 292.726L256.265 291.274C253.958 289.091 252.564 286.457 252.066 283.342L250.091 283.658ZM254.891 292.726C257.531 295.224 260.606 296.5 264.078 296.5V294.5C261.15 294.5 258.559 293.443 256.265 291.274L254.891 292.726ZM264.078 296.5C267.814 296.5 271.071 295.438 273.798 293.285L272.558 291.715C270.219 293.562 267.409 294.5 264.078 294.5V296.5ZM273.833 293.256C274.923 292.311 275.802 291.214 276.462 289.968L274.694 289.032C274.154 290.053 273.433 290.956 272.523 291.744L273.833 293.256ZM275.578 290.5H290.578V288.5H275.578V290.5ZM289.629 289.184C288.534 292.469 286.928 295.356 284.815 297.854L286.342 299.146C288.628 296.444 290.355 293.331 291.527 289.816L289.629 289.184ZM284.831 297.836C279.711 303.595 272.831 306.5 264.078 306.5V308.5C273.325 308.5 280.778 305.405 286.326 299.164L284.831 297.836ZM264.078 306.5C256.595 306.5 250.315 303.994 245.176 298.984L243.78 300.416C249.308 305.806 256.095 308.5 264.078 308.5V306.5ZM251.578 276H276.078V274H251.578V276ZM277.059 274.804C276.478 271.899 274.982 269.465 272.611 267.526L271.345 269.074C273.374 270.735 274.612 272.767 275.098 275.196L277.059 274.804ZM272.637 267.547C270.301 265.504 267.426 264.5 264.078 264.5V266.5C266.997 266.5 269.388 267.363 271.32 269.053L272.637 267.547ZM264.078 264.5C260.739 264.5 257.842 265.465 255.445 267.426L256.711 268.974C258.714 267.335 261.15 266.5 264.078 266.5V264.5ZM255.445 267.426C253.089 269.354 251.475 271.793 250.618 274.719L252.538 275.281C253.281 272.741 254.668 270.646 256.711 268.974L255.445 267.426ZM299.539 306H298.539V307H299.539V306ZM299.539 255V254H298.539V255H299.539ZM313.539 255H314.539V254H313.539V255ZM313.539 274H312.539V275H313.539V274ZM335.039 274V275H336.039V274H335.039ZM335.039 255V254H334.039V255H335.039ZM349.039 255H350.039V254H349.039V255ZM349.039 306V307H350.039V306H349.039ZM335.039 306H334.039V307H335.039V306ZM335.039 286H336.039V285H335.039V286ZM313.539 286V285H312.539V286H313.539ZM313.539 306V307H314.539V306H313.539ZM300.539 306V255H298.539V306H300.539ZM299.539 256H313.539V254H299.539V256ZM312.539 255V274H314.539V255H312.539ZM313.539 275H335.039V273H313.539V275ZM336.039 274V255H334.039V274H336.039ZM335.039 256H349.039V254H335.039V256ZM348.039 255V306H350.039V255H348.039ZM349.039 305H335.039V307H349.039V305ZM336.039 306V286H334.039V306H336.039ZM335.039 285H313.539V287H335.039V285ZM312.539 286V306H314.539V286H312.539ZM313.539 305H299.539V307H313.539V305ZM360.086 306H359.086V307H360.086V306ZM360.086 255V254H359.086V255H360.086ZM374.086 255H375.086V254H374.086V255ZM374.086 277L375.084 277.055L375.086 277.028V277H374.086ZM373.586 286L372.587 285.945L372.529 287H373.586V286ZM374.586 286V287H375.124L375.42 286.552L374.586 286ZM395.086 255V254H394.548L394.252 254.448L395.086 255ZM410.086 255H411.086V254H410.086V255ZM410.086 306V307H411.086V306H410.086ZM396.086 306H395.086V307H396.086V306ZM396.086 284L395.087 283.945L395.086 283.972V284H396.086ZM396.586 275L397.584 275.055L397.643 274H396.586V275ZM395.586 275V274H395.048L394.752 274.448L395.586 275ZM375.086 306V307H375.624L375.92 306.552L375.086 306ZM361.086 306V255H359.086V306H361.086ZM360.086 256H374.086V254H360.086V256ZM373.086 255V277H375.086V255H373.086ZM373.087 276.945L372.587 285.945L374.584 286.055L375.084 277.055L373.087 276.945ZM373.586 287H374.586V285H373.586V287ZM375.42 286.552L395.92 255.552L394.252 254.448L373.752 285.448L375.42 286.552ZM395.086 256H410.086V254H395.086V256ZM409.086 255V306H411.086V255H409.086ZM410.086 305H396.086V307H410.086V305ZM397.086 306V284H395.086V306H397.086ZM397.084 284.055L397.584 275.055L395.587 274.945L395.087 283.945L397.084 284.055ZM396.586 274H395.586V276H396.586V274ZM394.752 274.448L374.252 305.448L375.92 306.552L396.42 275.552L394.752 274.448ZM375.086 305H360.086V307H375.086V305ZM418.621 306L417.751 305.506L416.904 307H418.621V306ZM429.121 287.5L429.991 287.994L430.52 287.062L429.554 286.598L429.121 287.5ZM424.621 284.3L423.914 285.007L423.914 285.007L424.621 284.3ZM425.521 259.9L424.856 259.153L424.849 259.159L425.521 259.9ZM466.121 255H467.121V254H466.121V255ZM466.121 306V307H467.121V306H466.121ZM452.121 306H451.121V307H452.121V306ZM452.121 290.5H453.121V289.5H452.121V290.5ZM442.121 290.5V289.5H441.512L441.232 290.041L442.121 290.5ZM434.121 306V307H434.73L435.01 306.459L434.121 306ZM436.521 277.3L435.854 278.045L435.854 278.045L436.521 277.3ZM452.121 279V280H453.121V279H452.121ZM452.121 267H453.121V266H452.121V267ZM436.521 268.6L437.141 269.385L437.146 269.381L436.521 268.6ZM419.491 306.494L429.991 287.994L428.251 287.006L417.751 305.506L419.491 306.494ZM429.554 286.598C427.991 285.848 426.583 284.848 425.328 283.593L423.914 285.007C425.326 286.419 426.918 287.552 428.688 288.402L429.554 286.598ZM425.328 283.593C422.544 280.808 421.121 277.144 421.121 272.5H419.121C419.121 277.59 420.698 281.792 423.914 285.007L425.328 283.593ZM421.121 272.5C421.121 267.631 422.815 263.706 426.193 260.641L424.849 259.159C421.027 262.627 419.121 267.102 419.121 272.5H421.121ZM426.186 260.647C429.62 257.588 434.39 256 440.621 256V254C434.052 254 428.756 255.679 424.856 259.153L426.186 260.647ZM440.621 256H466.121V254H440.621V256ZM465.121 255V306H467.121V255H465.121ZM466.121 305H452.121V307H466.121V305ZM453.121 306V290.5H451.121V306H453.121ZM452.121 289.5H442.121V291.5H452.121V289.5ZM441.232 290.041L433.232 305.541L435.01 306.459L443.01 290.959L441.232 290.041ZM434.121 305H418.621V307H434.121V305ZM433.621 272.5C433.621 274.785 434.331 276.682 435.854 278.045L437.188 276.555C436.178 275.651 435.621 274.349 435.621 272.5H433.621ZM435.854 278.045C437.368 279.399 439.476 280 442.021 280V278C439.766 278 438.208 277.467 437.188 276.555L435.854 278.045ZM442.021 280H452.121V278H442.021V280ZM453.121 279V267H451.121V279H453.121ZM452.121 266H442.021V268H452.121V266ZM442.021 266C439.543 266 437.462 266.566 435.896 267.819L437.146 269.381C438.247 268.5 439.832 268 442.021 268V266ZM435.901 267.815C434.397 269.003 433.621 270.591 433.621 272.5H435.621C435.621 271.209 436.112 270.197 437.141 269.385L435.901 267.815Z" fill="#262B37"/>
<path d="M6.96484 89V19H67.9648V89H52.9648V33H21.9648V89H6.96484ZM74.4883 89L87.9883 38H114.988L128.488 89H114.488L103.988 50H98.9883L88.4883 89H74.4883ZM138.192 83.1C133.726 78.1 131.492 71.5667 131.492 63.5C131.492 55.4333 133.726 48.9333 138.192 44C142.726 39 148.326 36.5 154.992 36.5C159.459 36.5 163.492 37.8333 167.092 40.5C168.626 41.7667 169.926 43.1 170.992 44.5H171.492V38H185.492V89H171.492V82.5H170.992C169.926 83.9 168.626 85.2333 167.092 86.5C163.492 89.1667 159.459 90.5 154.992 90.5C148.326 90.5 142.726 88.0333 138.192 83.1ZM149.492 52.5C147.159 55.1667 145.992 58.8333 145.992 63.5C145.992 68.1667 147.159 71.8333 149.492 74.5C151.826 77.1667 154.826 78.5 158.492 78.5C162.359 78.5 165.492 77.2 167.892 74.6C170.292 71.9333 171.492 68.2333 171.492 63.5C171.492 58.7667 170.292 55.1 167.892 52.5C165.492 49.8333 162.359 48.5 158.492 48.5C154.826 48.5 151.826 49.8333 149.492 52.5ZM191.492 50V38H239.492V50H222.492V89H208.492V50H191.492ZM250.116 81.6C245.049 76.5333 242.516 70.5 242.516 63.5C242.516 56.5 245.049 50.4667 250.116 45.4C255.249 40.3333 261.549 37.5333 269.016 37V19H283.016V37C290.482 37.5333 296.749 40.3333 301.816 45.4C306.949 50.4667 309.516 56.5 309.516 63.5C309.516 70.5 306.949 76.5333 301.816 81.6C296.749 86.6667 290.482 89.4667 283.016 90V107.8H269.016V90C261.549 89.4667 255.249 86.6667 250.116 81.6ZM283.016 49V78C286.682 77.4 289.582 75.8667 291.716 73.4C293.916 70.9333 295.016 67.6333 295.016 63.5C295.016 59.3667 293.916 56.0667 291.716 53.6C289.582 51.1333 286.682 49.6 283.016 49ZM260.216 53.6C258.082 56.0667 257.016 59.3667 257.016 63.5C257.016 67.6333 258.082 70.9333 260.216 73.4C262.416 75.8667 265.349 77.4 269.016 78V49C265.349 49.6 262.416 51.1333 260.216 53.6ZM322.488 82.7C317.155 77.4333 314.488 71.0333 314.488 63.5C314.488 55.9667 317.155 49.6 322.488 44.4C327.822 39.1333 334.488 36.5 342.488 36.5C350.422 36.5 357.055 39.1333 362.388 44.4C367.788 49.6 370.488 55.9667 370.488 63.5C370.488 71.0333 367.788 77.4333 362.388 82.7C357.055 87.9 350.422 90.5 342.488 90.5C334.488 90.5 327.822 87.9 322.488 82.7ZM332.888 52.7C330.288 55.5 328.988 59.1 328.988 63.5C328.988 67.9 330.288 71.5 332.888 74.3C335.488 77.1 338.688 78.5 342.488 78.5C346.288 78.5 349.488 77.1 352.088 74.3C354.688 71.5 355.988 67.9 355.988 63.5C355.988 59.1 354.688 55.5 352.088 52.7C349.488 49.9 346.288 48.5 342.488 48.5C338.688 48.5 335.488 49.9 332.888 52.7ZM378.523 108V38H392.523V44.5H393.023C394.09 43.1 395.39 41.7667 396.923 40.5C400.523 37.8333 404.557 36.5 409.023 36.5C415.69 36.5 421.257 39 425.723 44C430.257 48.9333 432.523 55.4333 432.523 63.5C432.523 71.5667 430.257 78.1 425.723 83.1C421.257 88.0333 415.69 90.5 409.023 90.5C404.557 90.5 400.523 89.1667 396.923 86.5C395.39 85.2333 394.09 83.9 393.023 82.5H392.523V108H378.523ZM396.123 52.5C393.723 55.1 392.523 58.7667 392.523 63.5C392.523 68.2333 393.723 71.9333 396.123 74.6C398.523 77.2 401.657 78.5 405.523 78.5C409.19 78.5 412.19 77.1667 414.523 74.5C416.857 71.8333 418.023 68.1667 418.023 63.5C418.023 58.8333 416.857 55.1667 414.523 52.5C412.19 49.8333 409.19 48.5 405.523 48.5C401.657 48.5 398.523 49.8333 396.123 52.5ZM441.023 89V38H460.023L472.023 65.5H473.523L485.523 38H504.523V89H490.523V63.5L491.023 54.5H490.523L479.523 79.5H466.023L455.023 54.5H454.523L455.023 63.5V89H441.023ZM519.735 83.1C515.268 78.1 513.035 71.5667 513.035 63.5C513.035 55.4333 515.268 48.9333 519.735 44C524.268 39 529.868 36.5 536.535 36.5C541.002 36.5 545.035 37.8333 548.635 40.5C550.168 41.7667 551.468 43.1 552.535 44.5H553.035V38H567.035V89H553.035V82.5H552.535C551.468 83.9 550.168 85.2333 548.635 86.5C545.035 89.1667 541.002 90.5 536.535 90.5C529.868 90.5 524.268 88.0333 519.735 83.1ZM531.035 52.5C528.702 55.1667 527.535 58.8333 527.535 63.5C527.535 68.1667 528.702 71.8333 531.035 74.5C533.368 77.1667 536.368 78.5 540.035 78.5C543.902 78.5 547.035 77.2 549.435 74.6C551.835 71.9333 553.035 68.2333 553.035 63.5C553.035 58.7667 551.835 55.1 549.435 52.5C547.035 49.8333 543.902 48.5 540.035 48.5C536.368 48.5 533.368 49.8333 531.035 52.5Z" fill="#262B37"/>
<path d="M6.96484 89H5.96484V90H6.96484V89ZM6.96484 19V18H5.96484V19H6.96484ZM67.9648 19H68.9648V18H67.9648V19ZM67.9648 89V90H68.9648V89H67.9648ZM52.9648 89H51.9648V90H52.9648V89ZM52.9648 33H53.9648V32H52.9648V33ZM21.9648 33V32H20.9648V33H21.9648ZM21.9648 89V90H22.9648V89H21.9648ZM7.96484 89V19H5.96484V89H7.96484ZM6.96484 20H67.9648V18H6.96484V20ZM66.9648 19V89H68.9648V19H66.9648ZM67.9648 88H52.9648V90H67.9648V88ZM53.9648 89V33H51.9648V89H53.9648ZM52.9648 32H21.9648V34H52.9648V32ZM20.9648 33V89H22.9648V33H20.9648ZM21.9648 88H6.96484V90H21.9648V88ZM74.4883 89L73.5216 88.7441L73.1891 90H74.4883V89ZM87.9883 38V37H87.2185L87.0216 37.7441L87.9883 38ZM114.988 38L115.955 37.7441L115.758 37H114.988V38ZM128.488 89V90H129.787L129.455 88.7441L128.488 89ZM114.488 89L113.523 89.26L113.722 90H114.488V89ZM103.988 50L104.954 49.74L104.755 49H103.988V50ZM98.9883 50V49H98.2219L98.0227 49.74L98.9883 50ZM88.4883 89V90H89.2547L89.4539 89.26L88.4883 89ZM75.455 89.2559L88.955 38.2559L87.0216 37.7441L73.5216 88.7441L75.455 89.2559ZM87.9883 39H114.988V37H87.9883V39ZM114.022 38.2559L127.522 89.2559L129.455 88.7441L115.955 37.7441L114.022 38.2559ZM128.488 88H114.488V90H128.488V88ZM115.454 88.74L104.954 49.74L103.023 50.26L113.523 89.26L115.454 88.74ZM103.988 49H98.9883V51H103.988V49ZM98.0227 49.74L87.5227 88.74L89.4539 89.26L99.9539 50.26L98.0227 49.74ZM88.4883 88H74.4883V90H88.4883V88ZM138.192 83.1L137.446 83.7663L137.456 83.7766L138.192 83.1ZM138.192 44L137.451 43.3283L137.451 43.3288L138.192 44ZM167.092 40.5L167.729 39.729L167.709 39.7122L167.687 39.6964L167.092 40.5ZM170.992 44.5L170.197 45.106L170.497 45.5H170.992V44.5ZM171.492 44.5V45.5H172.492V44.5H171.492ZM171.492 38V37H170.492V38H171.492ZM185.492 38H186.492V37H185.492V38ZM185.492 89V90H186.492V89H185.492ZM171.492 89H170.492V90H171.492V89ZM171.492 82.5H172.492V81.5H171.492V82.5ZM170.992 82.5V81.5H170.497L170.197 81.894L170.992 82.5ZM167.092 86.5L167.687 87.3036L167.709 87.2878L167.729 87.271L167.092 86.5ZM149.492 52.5L150.245 53.1585L150.245 53.1585L149.492 52.5ZM149.492 74.5L150.245 73.8415L150.245 73.8415L149.492 74.5ZM167.892 74.6L168.627 75.2783L168.635 75.269L167.892 74.6ZM167.892 52.5L167.149 53.169L167.157 53.1783L167.892 52.5ZM138.938 82.4338C134.667 77.6528 132.492 71.3734 132.492 63.5H130.492C130.492 71.7599 132.784 78.5472 137.446 83.7662L138.938 82.4338ZM132.492 63.5C132.492 55.6261 134.667 49.3834 138.933 44.6712L137.451 43.3288C132.784 48.4833 130.492 55.2406 130.492 63.5H132.492ZM138.933 44.6717C143.279 39.8778 148.612 37.5 154.992 37.5V35.5C148.039 35.5 142.172 38.1222 137.451 43.3283L138.933 44.6717ZM154.992 37.5C159.244 37.5 163.069 38.7641 166.497 41.3036L167.687 39.6964C163.916 36.9026 159.674 35.5 154.992 35.5V37.5ZM166.455 41.271C167.937 42.4951 169.182 43.7742 170.197 45.106L171.788 43.894C170.669 42.4258 169.314 41.0382 167.729 39.729L166.455 41.271ZM170.992 45.5H171.492V43.5H170.992V45.5ZM172.492 44.5V38H170.492V44.5H172.492ZM171.492 39H185.492V37H171.492V39ZM184.492 38V89H186.492V38H184.492ZM185.492 88H171.492V90H185.492V88ZM172.492 89V82.5H170.492V89H172.492ZM171.492 81.5H170.992V83.5H171.492V81.5ZM170.197 81.894C169.182 83.2258 167.937 84.5049 166.455 85.729L167.729 87.271C169.314 85.9618 170.669 84.5742 171.788 83.106L170.197 81.894ZM166.497 85.6964C163.069 88.2359 159.244 89.5 154.992 89.5V91.5C159.674 91.5 163.916 90.0974 167.687 87.3036L166.497 85.6964ZM154.992 89.5C148.607 89.5 143.274 87.1518 138.929 82.4234L137.456 83.7766C142.177 88.9149 148.044 91.5 154.992 91.5V89.5ZM148.74 51.8415C146.202 54.7417 144.992 58.6692 144.992 63.5H146.992C146.992 58.9974 148.116 55.5916 150.245 53.1585L148.74 51.8415ZM144.992 63.5C144.992 68.3308 146.202 72.2583 148.74 75.1585L150.245 73.8415C148.116 71.4084 146.992 68.0026 146.992 63.5H144.992ZM148.74 75.1585C151.27 78.0507 154.549 79.5 158.492 79.5V77.5C155.102 77.5 152.381 76.2827 150.245 73.8415L148.74 75.1585ZM158.492 79.5C162.609 79.5 166.019 78.1037 168.627 75.2783L167.157 73.9217C164.965 76.2963 162.109 77.5 158.492 77.5V79.5ZM168.635 75.269C171.248 72.3665 172.492 68.3998 172.492 63.5H170.492C170.492 68.0668 169.337 71.5001 167.149 73.931L168.635 75.269ZM172.492 63.5C172.492 58.6018 171.248 54.6615 168.627 51.8217L167.157 53.1783C169.336 55.5385 170.492 58.9315 170.492 63.5H172.492ZM168.635 51.831C166.03 48.9359 162.618 47.5 158.492 47.5V49.5C162.1 49.5 164.955 50.7308 167.149 53.169L168.635 51.831ZM158.492 47.5C154.549 47.5 151.27 48.9493 148.74 51.8415L150.245 53.1585C152.381 50.7173 155.102 49.5 158.492 49.5V47.5ZM191.492 50H190.492V51H191.492V50ZM191.492 38V37H190.492V38H191.492ZM239.492 38H240.492V37H239.492V38ZM239.492 50V51H240.492V50H239.492ZM222.492 50V49H221.492V50H222.492ZM222.492 89V90H223.492V89H222.492ZM208.492 89H207.492V90H208.492V89ZM208.492 50H209.492V49H208.492V50ZM192.492 50V38H190.492V50H192.492ZM191.492 39H239.492V37H191.492V39ZM238.492 38V50H240.492V38H238.492ZM239.492 49H222.492V51H239.492V49ZM221.492 50V89H223.492V50H221.492ZM222.492 88H208.492V90H222.492V88ZM209.492 89V50H207.492V89H209.492ZM208.492 49H191.492V51H208.492V49ZM250.116 81.6L249.409 82.3071L249.413 82.3117L250.116 81.6ZM250.116 45.4L249.413 44.6883L249.409 44.6929L250.116 45.4ZM269.016 37L269.087 37.9975L270.016 37.9311V37H269.016ZM269.016 19V18H268.016V19H269.016ZM283.016 19H284.016V18H283.016V19ZM283.016 37H282.016V37.9311L282.944 37.9975L283.016 37ZM301.816 45.4L301.109 46.1071L301.113 46.1117L301.816 45.4ZM301.816 81.6L301.113 80.8883L301.109 80.8929L301.816 81.6ZM283.016 90L282.944 89.0025L282.016 89.0689V90H283.016ZM283.016 107.8V108.8H284.016V107.8H283.016ZM269.016 107.8H268.016V108.8H269.016V107.8ZM269.016 90H270.016V89.0689L269.087 89.0025L269.016 90ZM283.016 49L283.177 48.0131L282.016 47.8231V49H283.016ZM283.016 78H282.016V79.1769L283.177 78.9869L283.016 78ZM291.716 73.4L290.969 72.7344L290.964 72.7401L290.959 72.7458L291.716 73.4ZM291.716 53.6L290.959 54.2542L290.964 54.2599L290.969 54.2656L291.716 53.6ZM260.216 53.6L259.469 52.9344L259.464 52.9401L259.459 52.9458L260.216 53.6ZM260.216 73.4L259.459 74.0542L259.464 74.0599L259.469 74.0656L260.216 73.4ZM269.016 78L268.854 78.9869L270.016 79.1769V78H269.016ZM269.016 49H270.016V47.8231L268.854 48.0131L269.016 49ZM250.823 80.8929C245.939 76.0088 243.516 70.2278 243.516 63.5H241.516C241.516 70.7722 244.159 77.0579 249.409 82.3071L250.823 80.8929ZM243.516 63.5C243.516 56.7722 245.939 50.9912 250.823 46.1071L249.409 44.6929C244.159 49.9421 241.516 56.2278 241.516 63.5H243.516ZM250.818 46.1117C255.775 41.2193 261.848 38.5145 269.087 37.9975L268.944 36.0025C261.25 36.5522 254.723 39.4474 249.413 44.6883L250.818 46.1117ZM270.016 37V19H268.016V37H270.016ZM269.016 20H283.016V18H269.016V20ZM282.016 19V37H284.016V19H282.016ZM282.944 37.9975C290.183 38.5145 296.22 41.2187 301.109 46.1071L302.523 44.6929C297.278 39.448 290.782 36.5522 283.087 36.0025L282.944 37.9975ZM301.113 46.1117C306.063 50.9969 308.516 56.7765 308.516 63.5H310.516C310.516 56.2235 307.835 49.9365 302.518 44.6883L301.113 46.1117ZM308.516 63.5C308.516 70.2235 306.063 76.0031 301.113 80.8883L302.518 82.3117C307.835 77.0635 310.516 70.7765 310.516 63.5H308.516ZM301.109 80.8929C296.22 85.7813 290.183 88.4855 282.944 89.0025L283.087 90.9975C290.782 90.4478 297.278 87.552 302.523 82.3071L301.109 80.8929ZM282.016 90V107.8H284.016V90H282.016ZM283.016 106.8H269.016V108.8H283.016V106.8ZM270.016 107.8V90H268.016V107.8H270.016ZM269.087 89.0025C261.848 88.4855 255.775 85.7807 250.818 80.8883L249.413 82.3117C254.723 87.5526 261.25 90.4478 268.944 90.9975L269.087 89.0025ZM282.016 49V78H284.016V49H282.016ZM283.177 78.9869C287.041 78.3546 290.164 76.7225 292.472 74.0542L290.959 72.7458C289 75.0109 286.324 76.4454 282.854 77.0131L283.177 78.9869ZM292.462 74.0656C294.863 71.3731 296.016 67.815 296.016 63.5H294.016C294.016 67.4517 292.968 70.4936 290.969 72.7344L292.462 74.0656ZM296.016 63.5C296.016 59.185 294.863 55.6269 292.462 52.9344L290.969 54.2656C292.968 56.5064 294.016 59.5483 294.016 63.5H296.016ZM292.472 52.9458C290.164 50.2775 287.041 48.6454 283.177 48.0131L282.854 49.9869C286.324 50.5546 289 51.9891 290.959 54.2542L292.472 52.9458ZM259.459 52.9458C257.13 55.6387 256.016 59.1925 256.016 63.5H258.016C258.016 59.5408 259.034 56.4947 260.972 54.2542L259.459 52.9458ZM256.016 63.5C256.016 67.8075 257.13 71.3613 259.459 74.0542L260.972 72.7458C259.034 70.5053 258.016 67.4592 258.016 63.5H256.016ZM259.469 74.0656C261.841 76.7243 264.991 78.3548 268.854 78.9869L269.177 77.0131C265.707 76.4452 262.991 75.009 260.962 72.7344L259.469 74.0656ZM270.016 78V49H268.016V78H270.016ZM268.854 48.0131C264.991 48.6452 261.841 50.2757 259.469 52.9344L260.962 54.2656C262.991 51.991 265.707 50.5548 269.177 49.9869L268.854 48.0131ZM322.488 82.7L321.786 83.4116L321.79 83.416L322.488 82.7ZM322.488 44.4L323.186 45.116L323.191 45.1115L322.488 44.4ZM362.388 44.4L361.686 45.1116L361.695 45.1203L362.388 44.4ZM362.388 82.7L363.086 83.416L363.086 83.4159L362.388 82.7ZM332.888 52.7L333.621 53.3805L333.621 53.3805L332.888 52.7ZM332.888 74.3L332.155 74.9805L332.155 74.9805L332.888 74.3ZM352.088 74.3L352.821 74.9805L352.821 74.9805L352.088 74.3ZM352.088 52.7L351.355 53.3805L351.355 53.3805L352.088 52.7ZM323.191 81.9885C318.049 76.9107 315.488 70.7675 315.488 63.5H313.488C313.488 71.2992 316.261 77.9559 321.786 83.4115L323.191 81.9885ZM315.488 63.5C315.488 56.2328 318.049 50.1254 323.186 45.116L321.79 43.684C316.261 49.0746 313.488 55.7005 313.488 63.5H315.488ZM323.191 45.1115C328.324 40.043 334.732 37.5 342.488 37.5V35.5C334.245 35.5 327.32 38.2237 321.786 43.6885L323.191 45.1115ZM342.488 37.5C350.176 37.5 356.551 40.0413 361.686 45.1115L363.091 43.6885C357.559 38.2253 350.668 35.5 342.488 35.5V37.5ZM361.695 45.1203C366.898 50.1308 369.488 56.2369 369.488 63.5H371.488C371.488 55.6964 368.679 49.0692 363.082 43.6797L361.695 45.1203ZM369.488 63.5C369.488 70.7634 366.897 76.9054 361.69 81.9841L363.086 83.4159C368.679 77.9613 371.488 71.3033 371.488 63.5H369.488ZM361.69 81.984C356.557 86.9892 350.18 89.5 342.488 89.5V91.5C350.664 91.5 357.553 88.8108 363.086 83.416L361.69 81.984ZM342.488 89.5C334.728 89.5 328.318 86.9876 323.186 81.984L321.79 83.416C327.325 88.8124 334.249 91.5 342.488 91.5V89.5ZM332.155 52.0195C329.358 55.0325 327.988 58.8886 327.988 63.5H329.988C329.988 59.3114 331.219 55.9675 333.621 53.3805L332.155 52.0195ZM327.988 63.5C327.988 68.1114 329.358 71.9675 332.155 74.9805L333.621 73.6195C331.219 71.0325 329.988 67.6886 329.988 63.5H327.988ZM332.155 74.9805C334.944 77.9829 338.408 79.5 342.488 79.5V77.5C338.968 77.5 336.033 76.2171 333.621 73.6195L332.155 74.9805ZM342.488 79.5C346.568 79.5 350.033 77.9829 352.821 74.9805L351.355 73.6195C348.944 76.2171 346.008 77.5 342.488 77.5V79.5ZM352.821 74.9805C355.619 71.9675 356.988 68.1114 356.988 63.5H354.988C354.988 67.6886 353.758 71.0325 351.355 73.6195L352.821 74.9805ZM356.988 63.5C356.988 58.8886 355.619 55.0325 352.821 52.0195L351.355 53.3805C353.758 55.9675 354.988 59.3114 354.988 63.5H356.988ZM352.821 52.0195C350.033 49.0171 346.568 47.5 342.488 47.5V49.5C346.008 49.5 348.944 50.7829 351.355 53.3805L352.821 52.0195ZM342.488 47.5C338.408 47.5 334.944 49.0171 332.155 52.0195L333.621 53.3805C336.033 50.7829 338.968 49.5 342.488 49.5V47.5ZM378.523 108H377.523V109H378.523V108ZM378.523 38V37H377.523V38H378.523ZM392.523 38H393.523V37H392.523V38ZM392.523 44.5H391.523V45.5H392.523V44.5ZM393.023 44.5V45.5H393.519L393.819 45.106L393.023 44.5ZM396.923 40.5L396.328 39.6964L396.307 39.7122L396.287 39.729L396.923 40.5ZM425.723 44L424.978 44.6663L424.987 44.6766L425.723 44ZM425.723 83.1L424.983 82.4283L424.982 82.4288L425.723 83.1ZM396.923 86.5L396.287 87.271L396.307 87.2878L396.328 87.3036L396.923 86.5ZM393.023 82.5L393.819 81.894L393.519 81.5H393.023V82.5ZM392.523 82.5V81.5H391.523V82.5H392.523ZM392.523 108V109H393.523V108H392.523ZM396.123 52.5L396.858 53.1783L396.867 53.169L396.123 52.5ZM396.123 74.6L395.38 75.269L395.389 75.2783L396.123 74.6ZM414.523 74.5L413.771 73.8415L413.771 73.8415L414.523 74.5ZM414.523 52.5L413.771 53.1585L413.771 53.1585L414.523 52.5ZM379.523 108V38H377.523V108H379.523ZM378.523 39H392.523V37H378.523V39ZM391.523 38V44.5H393.523V38H391.523ZM392.523 45.5H393.023V43.5H392.523V45.5ZM393.819 45.106C394.834 43.7742 396.078 42.4951 397.56 41.271L396.287 39.729C394.702 41.0382 393.347 42.4258 392.228 43.894L393.819 45.106ZM397.519 41.3036C400.947 38.7641 404.772 37.5 409.023 37.5V35.5C404.342 35.5 400.1 36.9026 396.328 39.6964L397.519 41.3036ZM409.023 37.5C415.403 37.5 420.699 39.8772 424.978 44.6662L426.469 43.3338C421.814 38.1228 415.977 35.5 409.023 35.5V37.5ZM424.987 44.6766C429.318 49.3892 431.523 55.63 431.523 63.5H433.523C433.523 55.2367 431.196 48.4775 426.46 43.3234L424.987 44.6766ZM431.523 63.5C431.523 71.3695 429.318 77.647 424.983 82.4283L426.464 83.7717C431.196 78.553 433.523 71.7638 433.523 63.5H431.523ZM424.982 82.4288C420.705 87.1524 415.408 89.5 409.023 89.5V91.5C415.972 91.5 421.808 88.9143 426.465 83.7712L424.982 82.4288ZM409.023 89.5C404.772 89.5 400.947 88.2359 397.519 85.6964L396.328 87.3036C400.1 90.0974 404.342 91.5 409.023 91.5V89.5ZM397.56 85.729C396.078 84.5049 394.834 83.2258 393.819 81.894L392.228 83.106C393.347 84.5742 394.702 85.9618 396.287 87.271L397.56 85.729ZM393.023 81.5H392.523V83.5H393.023V81.5ZM391.523 82.5V108H393.523V82.5H391.523ZM392.523 107H378.523V109H392.523V107ZM395.389 51.8217C392.767 54.6615 391.523 58.6018 391.523 63.5H393.523C393.523 58.9315 394.68 55.5385 396.858 53.1783L395.389 51.8217ZM391.523 63.5C391.523 68.3998 392.768 72.3665 395.38 75.269L396.867 73.931C394.679 71.5001 393.523 68.0668 393.523 63.5H391.523ZM395.389 75.2783C397.997 78.1037 401.407 79.5 405.523 79.5V77.5C401.907 77.5 399.05 76.2963 396.858 73.9217L395.389 75.2783ZM405.523 79.5C409.467 79.5 412.745 78.0507 415.276 75.1585L413.771 73.8415C411.635 76.2827 408.913 77.5 405.523 77.5V79.5ZM415.276 75.1585C417.814 72.2583 419.023 68.3308 419.023 63.5H417.023C417.023 68.0026 415.9 71.4084 413.771 73.8415L415.276 75.1585ZM419.023 63.5C419.023 58.6692 417.814 54.7417 415.276 51.8415L413.771 53.1585C415.9 55.5916 417.023 58.9974 417.023 63.5H419.023ZM415.276 51.8415C412.745 48.9493 409.467 47.5 405.523 47.5V49.5C408.913 49.5 411.635 50.7173 413.771 53.1585L415.276 51.8415ZM405.523 47.5C401.398 47.5 397.986 48.9359 395.38 51.831L396.867 53.169C399.061 50.7308 401.915 49.5 405.523 49.5V47.5ZM441.023 89H440.023V90H441.023V89ZM441.023 38V37H440.023V38H441.023ZM460.023 38L460.94 37.6001L460.678 37H460.023V38ZM472.023 65.5L471.107 65.8999L471.369 66.5H472.023V65.5ZM473.523 65.5V66.5H474.178L474.44 65.8999L473.523 65.5ZM485.523 38V37H484.869L484.607 37.6001L485.523 38ZM504.523 38H505.523V37H504.523V38ZM504.523 89V90H505.523V89H504.523ZM490.523 89H489.523V90H490.523V89ZM490.523 63.5L489.525 63.4445L489.523 63.4722V63.5H490.523ZM491.023 54.5L492.022 54.5555L492.081 53.5H491.023V54.5ZM490.523 54.5V53.5H489.871L489.608 54.0973L490.523 54.5ZM479.523 79.5V80.5H480.176L480.439 79.9027L479.523 79.5ZM466.023 79.5L465.108 79.9027L465.371 80.5H466.023V79.5ZM455.023 54.5L455.939 54.0973L455.676 53.5H455.023V54.5ZM454.523 54.5V53.5H453.466L453.525 54.5555L454.523 54.5ZM455.023 63.5H456.023V63.4722L456.022 63.4445L455.023 63.5ZM455.023 89V90H456.023V89H455.023ZM442.023 89V38H440.023V89H442.023ZM441.023 39H460.023V37H441.023V39ZM459.107 38.3999L471.107 65.8999L472.94 65.1001L460.94 37.6001L459.107 38.3999ZM472.023 66.5H473.523V64.5H472.023V66.5ZM474.44 65.8999L486.44 38.3999L484.607 37.6001L472.607 65.1001L474.44 65.8999ZM485.523 39H504.523V37H485.523V39ZM503.523 38V89H505.523V38H503.523ZM504.523 88H490.523V90H504.523V88ZM491.523 89V63.5H489.523V89H491.523ZM491.522 63.5555L492.022 54.5555L490.025 54.4445L489.525 63.4445L491.522 63.5555ZM491.023 53.5H490.523V55.5H491.023V53.5ZM489.608 54.0973L478.608 79.0973L480.439 79.9027L491.439 54.9027L489.608 54.0973ZM479.523 78.5H466.023V80.5H479.523V78.5ZM466.939 79.0973L455.939 54.0973L454.108 54.9027L465.108 79.9027L466.939 79.0973ZM455.023 53.5H454.523V55.5H455.023V53.5ZM453.525 54.5555L454.025 63.5555L456.022 63.4445L455.522 54.4445L453.525 54.5555ZM454.023 63.5V89H456.023V63.5H454.023ZM455.023 88H441.023V90H455.023V88ZM519.735 83.1L518.989 83.7663L518.999 83.7766L519.735 83.1ZM519.735 44L518.994 43.3283L518.994 43.3288L519.735 44ZM548.635 40.5L549.272 39.729L549.252 39.7122L549.23 39.6964L548.635 40.5ZM552.535 44.5L551.74 45.106L552.04 45.5H552.535V44.5ZM553.035 44.5V45.5H554.035V44.5H553.035ZM553.035 38V37H552.035V38H553.035ZM567.035 38H568.035V37H567.035V38ZM567.035 89V90H568.035V89H567.035ZM553.035 89H552.035V90H553.035V89ZM553.035 82.5H554.035V81.5H553.035V82.5ZM552.535 82.5V81.5H552.04L551.74 81.894L552.535 82.5ZM548.635 86.5L549.23 87.3036L549.252 87.2878L549.272 87.271L548.635 86.5ZM531.035 52.5L531.788 53.1585L531.788 53.1585L531.035 52.5ZM531.035 74.5L531.788 73.8415L531.788 73.8415L531.035 74.5ZM549.435 74.6L550.17 75.2783L550.178 75.269L549.435 74.6ZM549.435 52.5L548.692 53.169L548.7 53.1783L549.435 52.5ZM520.481 82.4338C516.21 77.6528 514.035 71.3734 514.035 63.5H512.035C512.035 71.7599 514.327 78.5472 518.989 83.7662L520.481 82.4338ZM514.035 63.5C514.035 55.6261 516.21 49.3834 520.476 44.6712L518.994 43.3288C514.327 48.4833 512.035 55.2406 512.035 63.5H514.035ZM520.476 44.6717C524.822 39.8778 530.155 37.5 536.535 37.5V35.5C529.582 35.5 523.715 38.1222 518.994 43.3283L520.476 44.6717ZM536.535 37.5C540.787 37.5 544.612 38.7641 548.04 41.3036L549.23 39.6964C545.459 36.9026 541.217 35.5 536.535 35.5V37.5ZM547.998 41.271C549.48 42.4951 550.725 43.7742 551.74 45.106L553.331 43.894C552.212 42.4258 550.857 41.0382 549.272 39.729L547.998 41.271ZM552.535 45.5H553.035V43.5H552.535V45.5ZM554.035 44.5V38H552.035V44.5H554.035ZM553.035 39H567.035V37H553.035V39ZM566.035 38V89H568.035V38H566.035ZM567.035 88H553.035V90H567.035V88ZM554.035 89V82.5H552.035V89H554.035ZM553.035 81.5H552.535V83.5H553.035V81.5ZM551.74 81.894C550.725 83.2258 549.48 84.5049 547.998 85.729L549.272 87.271C550.857 85.9618 552.212 84.5742 553.331 83.106L551.74 81.894ZM548.04 85.6964C544.612 88.2359 540.787 89.5 536.535 89.5V91.5C541.217 91.5 545.459 90.0974 549.23 87.3036L548.04 85.6964ZM536.535 89.5C530.15 89.5 524.817 87.1518 520.471 82.4234L518.999 83.7766C523.72 88.9149 529.587 91.5 536.535 91.5V89.5ZM530.283 51.8415C527.745 54.7417 526.535 58.6692 526.535 63.5H528.535C528.535 58.9974 529.659 55.5916 531.788 53.1585L530.283 51.8415ZM526.535 63.5C526.535 68.3308 527.745 72.2583 530.283 75.1585L531.788 73.8415C529.659 71.4084 528.535 68.0026 528.535 63.5H526.535ZM530.283 75.1585C532.813 78.0507 536.092 79.5 540.035 79.5V77.5C536.645 77.5 533.924 76.2827 531.788 73.8415L530.283 75.1585ZM540.035 79.5C544.152 79.5 547.562 78.1037 550.17 75.2783L548.7 73.9217C546.508 76.2963 543.652 77.5 540.035 77.5V79.5ZM550.178 75.269C552.791 72.3665 554.035 68.3998 554.035 63.5H552.035C552.035 68.0668 550.88 71.5001 548.692 73.931L550.178 75.269ZM554.035 63.5C554.035 58.6018 552.791 54.6615 550.17 51.8217L548.7 53.1783C550.879 55.5385 552.035 58.9315 552.035 63.5H554.035ZM550.178 51.831C547.573 48.9359 544.161 47.5 540.035 47.5V49.5C543.643 49.5 546.497 50.7308 548.692 53.169L550.178 51.831ZM540.035 47.5C536.092 47.5 532.813 48.9493 530.283 51.8415L531.788 53.1585C533.924 50.7173 536.645 49.5 540.035 49.5V47.5Z" fill="white"/>
</svg>
