<svg width="1151" height="234" viewBox="0 0 1151 234" fill="none" xmlns="http://www.w3.org/2000/svg">
<path d="M21.0954 81.611C21.1843 81.5392 21.2951 81.5 21.4094 81.5H616.169C616.641 81.5 616.85 82.0928 616.484 82.389L597.905 97.389C597.816 97.4608 597.705 97.5 597.591 97.5H2.83051C2.35897 97.5 2.14955 96.9072 2.5164 96.611L21.0954 81.611Z" fill="#EBF5FF" stroke="#C7E2FF"/>
<path d="M2.5 97C2.5 96.7239 2.72386 96.5 3 96.5H598C598.276 96.5 598.5 96.7239 598.5 97V114C598.5 114.276 598.276 114.5 598 114.5H3.00002C2.72386 114.5 2.5 114.276 2.5 114V97Z" fill="#EBF5FF" stroke="#C7E2FF"/>
<path d="M598.551 97.4697L617.162 81.9648L617.168 97.534C617.168 97.8165 617.049 98.0858 616.839 98.2755L598.625 114.777L598.551 97.4697Z" fill="#C7E2FF"/>
<path d="M18.5 209.5V187H24L34.5 148H61.5L72 187H77.5V209.5H64.5V199H31.5V209.5H18.5ZM38 187H58L50.5 160H45.5L38 187ZM77.9609 199L91.4609 148H118.461L131.961 199H117.961L107.461 160H102.461L91.9609 199H77.9609ZM134.965 199L145.465 180.5C143.798 179.7 142.298 178.633 140.965 177.3C137.965 174.3 136.465 170.367 136.465 165.5C136.465 160.367 138.265 156.167 141.865 152.9C145.532 149.633 150.565 148 156.965 148H182.465V199H168.465V183.5H158.465L150.465 199H134.965ZM150.965 165.5C150.965 167.567 151.598 169.167 152.865 170.3C154.132 171.433 155.965 172 158.365 172H168.465V160H158.365C156.032 160 154.198 160.533 152.865 161.6C151.598 162.6 150.965 163.9 150.965 165.5ZM226.449 192.7C221.116 187.433 218.449 181.033 218.449 173.5C218.449 165.967 221.116 159.6 226.449 154.4C231.783 149.133 238.449 146.5 246.449 146.5C254.383 146.5 261.016 149.133 266.349 154.4C271.749 159.6 274.449 165.967 274.449 173.5C274.449 181.033 271.749 187.433 266.349 192.7C261.016 197.9 254.383 200.5 246.449 200.5C238.449 200.5 231.783 197.9 226.449 192.7ZM236.849 162.7C234.249 165.5 232.949 169.1 232.949 173.5C232.949 177.9 234.249 181.5 236.849 184.3C239.449 187.1 242.649 188.5 246.449 188.5C250.249 188.5 253.449 187.1 256.049 184.3C258.649 181.5 259.949 177.9 259.949 173.5C259.949 169.1 258.649 165.5 256.049 162.7C253.449 159.9 250.249 158.5 246.449 158.5C242.649 158.5 239.449 159.9 236.849 162.7ZM282.484 199V148H296.484V167H317.984V148H331.984V199H317.984V179H296.484V199H282.484ZM337.531 199L351.031 148H378.031L391.531 199H377.531L367.031 160H362.031L351.531 199H337.531ZM401.235 193.1C396.768 188.1 394.535 181.567 394.535 173.5C394.535 165.433 396.768 158.933 401.235 154C405.768 149 411.368 146.5 418.035 146.5C422.502 146.5 426.535 147.833 430.135 150.5C431.668 151.767 432.968 153.1 434.035 154.5H434.535V148H448.535V199H434.535V192.5H434.035C432.968 193.9 431.668 195.233 430.135 196.5C426.535 199.167 422.502 200.5 418.035 200.5C411.368 200.5 405.768 198.033 401.235 193.1ZM412.535 162.5C410.202 165.167 409.035 168.833 409.035 173.5C409.035 178.167 410.202 181.833 412.535 184.5C414.868 187.167 417.868 188.5 421.535 188.5C425.402 188.5 428.535 187.2 430.935 184.6C433.335 181.933 434.535 178.233 434.535 173.5C434.535 168.767 433.335 165.1 430.935 162.5C428.535 159.833 425.402 158.5 421.535 158.5C417.868 158.5 414.868 159.833 412.535 162.5ZM459.535 199V148H473.535V170L473.035 179H474.035L494.535 148H509.535V199H495.535V177L496.035 168H495.035L474.535 199H459.535ZM468.535 127.5H478.035C478.035 130.833 480.202 132.5 484.535 132.5C488.868 132.5 491.035 130.833 491.035 127.5H500.535C500.535 131.633 499.135 134.933 496.335 137.4C493.602 139.8 489.668 141 484.535 141C479.402 141 475.435 139.8 472.635 137.4C469.902 134.933 468.535 131.633 468.535 127.5ZM520.57 199V148H534.57V167H556.07V148H570.07V199H556.07V179H534.57V199H520.57ZM581.117 178V166H618.617V178H581.117ZM634.652 192.7C629.319 187.433 626.652 181.033 626.652 173.5C626.652 165.967 629.319 159.6 634.652 154.4C639.986 149.133 646.652 146.5 654.652 146.5C662.586 146.5 669.219 149.133 674.552 154.4C679.952 159.6 682.652 165.967 682.652 173.5C682.652 181.033 679.952 187.433 674.552 192.7C669.219 197.9 662.586 200.5 654.652 200.5C646.652 200.5 639.986 197.9 634.652 192.7ZM645.052 162.7C642.452 165.5 641.152 169.1 641.152 173.5C641.152 177.9 642.452 181.5 645.052 184.3C647.652 187.1 650.852 188.5 654.652 188.5C658.452 188.5 661.652 187.1 664.252 184.3C666.852 181.5 668.152 177.9 668.152 173.5C668.152 169.1 666.852 165.5 664.252 162.7C661.652 159.9 658.452 158.5 654.652 158.5C650.852 158.5 647.652 159.9 645.052 162.7ZM688.688 170C688.688 142.667 700.021 129 722.688 129H737.188V141H724.188C717.321 141 712.088 142.6 708.488 145.8C704.888 148.933 702.954 153.333 702.688 159H703.188C703.988 157.867 705.188 156.7 706.788 155.5C710.188 153.167 714.154 152 718.688 152C725.288 152 730.754 154.233 735.088 158.7C739.488 163.1 741.687 168.7 741.687 175.5C741.687 182.633 739.221 188.6 734.288 193.4C729.421 198.133 723.054 200.5 715.188 200.5C707.521 200.5 701.188 197.733 696.188 192.2C691.188 186.667 688.688 179.267 688.688 170ZM703.188 175.5C703.188 179.433 704.288 182.6 706.488 185C708.688 187.333 711.588 188.5 715.188 188.5C718.788 188.5 721.688 187.333 723.888 185C726.088 182.6 727.188 179.433 727.188 175.5C727.188 171.7 726.088 168.667 723.888 166.4C721.688 164.133 718.788 163 715.188 163C711.588 163 708.688 164.133 706.488 166.4C704.288 168.667 703.188 171.7 703.188 175.5ZM743.707 148H758.207L768.207 187H772.207L783.207 148H797.707L777.207 218H762.707L768.207 199H757.207L743.707 148ZM801.688 167V148H815.688V166C815.688 171.333 818.521 174 824.188 174C826.921 174 829.554 173.533 832.088 172.6C833.088 172.2 833.954 171.733 834.688 171.2V148H848.688V199H834.688V182.5C833.754 183.233 832.654 183.833 831.388 184.3C828.521 185.433 825.288 186 821.688 186C815.488 186 810.588 184.3 806.988 180.9C803.454 177.5 801.688 172.867 801.688 167ZM864.63 192.7C859.364 187.433 856.73 181.033 856.73 173.5C856.73 165.967 859.364 159.6 864.63 154.4C869.964 149.133 876.497 146.5 884.23 146.5C892.097 146.5 898.564 149.1 903.63 154.3C908.697 159.5 911.23 165.9 911.23 173.5V176.5H871.23C871.764 179.833 873.264 182.667 875.73 185C878.197 187.333 881.03 188.5 884.23 188.5C887.764 188.5 890.797 187.5 893.33 185.5C894.33 184.633 895.13 183.633 895.73 182.5H910.73C909.597 185.9 907.93 188.9 905.73 191.5C900.397 197.5 893.23 200.5 884.23 200.5C876.497 200.5 869.964 197.9 864.63 192.7ZM871.73 168H896.23C895.697 165.333 894.33 163.1 892.13 161.3C889.997 159.433 887.364 158.5 884.23 158.5C881.097 158.5 878.43 159.4 876.23 161.2C874.03 163 872.53 165.267 871.73 168ZM919.691 199V148H933.691V167H955.191V148H969.191V199H955.191V179H933.691V199H919.691ZM980.238 199V148H994.238V170L993.738 179H994.738L1015.24 148H1030.24V199H1016.24V177L1016.74 168H1015.74L995.238 199H980.238ZM1038.77 199L1049.27 180.5C1047.61 179.7 1046.11 178.633 1044.77 177.3C1041.77 174.3 1040.27 170.367 1040.27 165.5C1040.27 160.367 1042.07 156.167 1045.67 152.9C1049.34 149.633 1054.37 148 1060.77 148H1086.27V199H1072.27V183.5H1062.27L1054.27 199H1038.77ZM1054.77 165.5C1054.77 167.567 1055.41 169.167 1056.67 170.3C1057.94 171.433 1059.77 172 1062.17 172H1072.27V160H1062.17C1059.84 160 1058.01 160.533 1056.67 161.6C1055.41 162.6 1054.77 163.9 1054.77 165.5Z" fill="#262B37"/>
<path d="M28.5 86H27.5V87H28.5V86ZM28.5 16V15H27.5V16H28.5ZM89.5 16H90.5V15H89.5V16ZM89.5 86V87H90.5V86H89.5ZM74.5 86H73.5V87H74.5V86ZM74.5 30H75.5V29H74.5V30ZM43.5 30V29H42.5V30H43.5ZM43.5 86V87H44.5V86H43.5ZM29.5 86V16H27.5V86H29.5ZM28.5 17H89.5V15H28.5V17ZM88.5 16V86H90.5V16H88.5ZM89.5 85H74.5V87H89.5V85ZM75.5 86V30H73.5V86H75.5ZM74.5 29H43.5V31H74.5V29ZM42.5 30V86H44.5V30H42.5ZM43.5 85H28.5V87H43.5V85ZM96.0234 86L95.0567 85.7441L94.7243 87H96.0234V86ZM109.523 35V34H108.754L108.557 34.7441L109.523 35ZM136.523 35L137.49 34.7441L137.293 34H136.523V35ZM150.023 86V87H151.323L150.99 85.7441L150.023 86ZM136.023 86L135.058 86.26L135.257 87H136.023V86ZM125.523 47L126.489 46.74L126.29 46H125.523V47ZM120.523 47V46H119.757L119.558 46.74L120.523 47ZM110.023 86V87H110.79L110.989 86.26L110.023 86ZM96.9901 86.2559L110.49 35.2559L108.557 34.7441L95.0567 85.7441L96.9901 86.2559ZM109.523 36H136.523V34H109.523V36ZM135.557 35.2559L149.057 86.2559L150.99 85.7441L137.49 34.7441L135.557 35.2559ZM150.023 85H136.023V87H150.023V85ZM136.989 85.74L126.489 46.74L124.558 47.26L135.058 86.26L136.989 85.74ZM125.523 46H120.523V48H125.523V46ZM119.558 46.74L109.058 85.74L110.989 86.26L121.489 47.26L119.558 46.74ZM110.023 85H96.0234V87H110.023V85ZM159.727 80.1L158.982 80.7663L158.991 80.7766L159.727 80.1ZM159.727 41L158.987 40.3283L158.986 40.3288L159.727 41ZM188.627 37.5L189.264 36.729L189.244 36.7122L189.223 36.6964L188.627 37.5ZM192.527 41.5L191.732 42.106L192.032 42.5H192.527V41.5ZM193.027 41.5V42.5H194.027V41.5H193.027ZM193.027 35V34H192.027V35H193.027ZM207.027 35H208.027V34H207.027V35ZM207.027 86V87H208.027V86H207.027ZM193.027 86H192.027V87H193.027V86ZM193.027 79.5H194.027V78.5H193.027V79.5ZM192.527 79.5V78.5H192.032L191.732 78.894L192.527 79.5ZM188.627 83.5L189.223 84.3036L189.244 84.2878L189.264 84.271L188.627 83.5ZM171.027 49.5L171.78 50.1585L171.78 50.1585L171.027 49.5ZM171.027 71.5L171.78 70.8415L171.78 70.8415L171.027 71.5ZM189.427 71.6L190.162 72.2783L190.171 72.269L189.427 71.6ZM189.427 49.5L188.684 50.169L188.693 50.1783L189.427 49.5ZM160.473 79.4338C156.202 74.6528 154.027 68.3734 154.027 60.5H152.027C152.027 68.7599 154.319 75.5472 158.982 80.7662L160.473 79.4338ZM154.027 60.5C154.027 52.6261 156.202 46.3834 160.469 41.6712L158.986 40.3288C154.319 45.4833 152.027 52.2406 152.027 60.5H154.027ZM160.468 41.6717C164.815 36.8778 170.147 34.5 176.527 34.5V32.5C169.575 32.5 163.707 35.1222 158.987 40.3283L160.468 41.6717ZM176.527 34.5C180.779 34.5 184.604 35.7641 188.032 38.3036L189.223 36.6964C185.451 33.9026 181.209 32.5 176.527 32.5V34.5ZM187.99 38.271C189.472 39.4951 190.717 40.7742 191.732 42.106L193.323 40.894C192.204 39.4258 190.849 38.0382 189.264 36.729L187.99 38.271ZM192.527 42.5H193.027V40.5H192.527V42.5ZM194.027 41.5V35H192.027V41.5H194.027ZM193.027 36H207.027V34H193.027V36ZM206.027 35V86H208.027V35H206.027ZM207.027 85H193.027V87H207.027V85ZM194.027 86V79.5H192.027V86H194.027ZM193.027 78.5H192.527V80.5H193.027V78.5ZM191.732 78.894C190.717 80.2258 189.472 81.5049 187.99 82.729L189.264 84.271C190.849 82.9618 192.204 81.5742 193.323 80.106L191.732 78.894ZM188.032 82.6964C184.604 85.2359 180.779 86.5 176.527 86.5V88.5C181.209 88.5 185.451 87.0974 189.223 84.3036L188.032 82.6964ZM176.527 86.5C170.142 86.5 164.809 84.1518 160.464 79.4234L158.991 80.7766C163.713 85.9149 169.579 88.5 176.527 88.5V86.5ZM170.275 48.8415C167.737 51.7417 166.527 55.6692 166.527 60.5H168.527C168.527 55.9974 169.651 52.5916 171.78 50.1585L170.275 48.8415ZM166.527 60.5C166.527 65.3308 167.737 69.2583 170.275 72.1585L171.78 70.8415C169.651 68.4084 168.527 65.0026 168.527 60.5H166.527ZM170.275 72.1585C172.805 75.0507 176.084 76.5 180.027 76.5V74.5C176.638 74.5 173.916 73.2827 171.78 70.8415L170.275 72.1585ZM180.027 76.5C184.144 76.5 187.554 75.1037 190.162 72.2783L188.693 70.9217C186.501 73.2963 183.644 74.5 180.027 74.5V76.5ZM190.171 72.269C192.783 69.3665 194.027 65.3998 194.027 60.5H192.027C192.027 65.0668 190.872 68.5001 188.684 70.931L190.171 72.269ZM194.027 60.5C194.027 55.6018 192.783 51.6615 190.162 48.8217L188.693 50.1783C190.871 52.5385 192.027 55.9315 192.027 60.5H194.027ZM190.171 48.831C187.565 45.9359 184.153 44.5 180.027 44.5V46.5C183.635 46.5 186.49 47.7308 188.684 50.169L190.171 48.831ZM180.027 44.5C176.084 44.5 172.805 45.9493 170.275 48.8415L171.78 50.1585C173.916 47.7173 176.638 46.5 180.027 46.5V44.5ZM213.027 47H212.027V48H213.027V47ZM213.027 35V34H212.027V35H213.027ZM261.027 35H262.027V34H261.027V35ZM261.027 47V48H262.027V47H261.027ZM244.027 47V46H243.027V47H244.027ZM244.027 86V87H245.027V86H244.027ZM230.027 86H229.027V87H230.027V86ZM230.027 47H231.027V46H230.027V47ZM214.027 47V35H212.027V47H214.027ZM213.027 36H261.027V34H213.027V36ZM260.027 35V47H262.027V35H260.027ZM261.027 46H244.027V48H261.027V46ZM243.027 47V86H245.027V47H243.027ZM244.027 85H230.027V87H244.027V85ZM231.027 86V47H229.027V86H231.027ZM230.027 46H213.027V48H230.027V46ZM271.651 78.6L270.944 79.3071L270.948 79.3117L271.651 78.6ZM271.651 42.4L270.948 41.6883L270.944 41.6929L271.651 42.4ZM290.551 34L290.622 34.9975L291.551 34.9311V34H290.551ZM290.551 16V15H289.551V16H290.551ZM304.551 16H305.551V15H304.551V16ZM304.551 34H303.551V34.9311L304.48 34.9975L304.551 34ZM323.351 42.4L322.644 43.1071L322.648 43.1117L323.351 42.4ZM323.351 78.6L322.648 77.8883L322.644 77.8929L323.351 78.6ZM304.551 87L304.48 86.0025L303.551 86.0689V87H304.551ZM304.551 104.8V105.8H305.551V104.8H304.551ZM290.551 104.8H289.551V105.8H290.551V104.8ZM290.551 87H291.551V86.0689L290.622 86.0025L290.551 87ZM304.551 46L304.712 45.0131L303.551 44.8231V46H304.551ZM304.551 75H303.551V76.1769L304.712 75.9869L304.551 75ZM313.251 70.4L312.504 69.7344L312.499 69.7401L312.494 69.7458L313.251 70.4ZM313.251 50.6L312.494 51.2542L312.499 51.2599L312.504 51.2656L313.251 50.6ZM281.751 50.6L281.004 49.9344L280.999 49.9401L280.994 49.9458L281.751 50.6ZM281.751 70.4L280.994 71.0542L280.999 71.0599L281.004 71.0656L281.751 70.4ZM290.551 75L290.389 75.9869L291.551 76.1769V75H290.551ZM290.551 46H291.551V44.8231L290.389 45.0131L290.551 46ZM272.358 77.8929C267.474 73.0088 265.051 67.2278 265.051 60.5H263.051C263.051 67.7722 265.694 74.0579 270.944 79.3071L272.358 77.8929ZM265.051 60.5C265.051 53.7722 267.474 47.9912 272.358 43.1071L270.944 41.6929C265.694 46.9421 263.051 53.2278 263.051 60.5H265.051ZM272.353 43.1117C277.31 38.2193 283.383 35.5145 290.622 34.9975L290.48 33.0025C282.785 33.5522 276.258 36.4474 270.948 41.6883L272.353 43.1117ZM291.551 34V16H289.551V34H291.551ZM290.551 17H304.551V15H290.551V17ZM303.551 16V34H305.551V16H303.551ZM304.48 34.9975C311.718 35.5145 317.755 38.2187 322.644 43.1071L324.058 41.6929C318.813 36.448 312.317 33.5522 304.622 33.0025L304.48 34.9975ZM322.648 43.1117C327.598 47.9969 330.051 53.7765 330.051 60.5H332.051C332.051 53.2235 329.37 46.9365 324.053 41.6883L322.648 43.1117ZM330.051 60.5C330.051 67.2235 327.598 73.0031 322.648 77.8883L324.053 79.3117C329.37 74.0635 332.051 67.7765 332.051 60.5H330.051ZM322.644 77.8929C317.755 82.7813 311.718 85.4855 304.48 86.0025L304.622 87.9975C312.317 87.4478 318.813 84.552 324.058 79.3071L322.644 77.8929ZM303.551 87V104.8H305.551V87H303.551ZM304.551 103.8H290.551V105.8H304.551V103.8ZM291.551 104.8V87H289.551V104.8H291.551ZM290.622 86.0025C283.383 85.4855 277.31 82.7807 272.353 77.8883L270.948 79.3117C276.258 84.5526 282.785 87.4478 290.48 87.9975L290.622 86.0025ZM303.551 46V75H305.551V46H303.551ZM304.712 75.9869C308.576 75.3546 311.699 73.7225 314.007 71.0542L312.494 69.7458C310.535 72.0109 307.859 73.4454 304.389 74.0131L304.712 75.9869ZM313.997 71.0656C316.399 68.3731 317.551 64.815 317.551 60.5H315.551C315.551 64.4517 314.503 67.4936 312.504 69.7344L313.997 71.0656ZM317.551 60.5C317.551 56.185 316.399 52.6269 313.997 49.9344L312.504 51.2656C314.503 53.5064 315.551 56.5483 315.551 60.5H317.551ZM314.007 49.9458C311.699 47.2775 308.576 45.6454 304.712 45.0131L304.389 46.9869C307.859 47.5546 310.535 48.9891 312.494 51.2542L314.007 49.9458ZM280.994 49.9458C278.665 52.6387 277.551 56.1925 277.551 60.5H279.551C279.551 56.5408 280.569 53.4947 282.507 51.2542L280.994 49.9458ZM277.551 60.5C277.551 64.8075 278.665 68.3613 280.994 71.0542L282.507 69.7458C280.569 67.5053 279.551 64.4592 279.551 60.5H277.551ZM281.004 71.0656C283.376 73.7243 286.526 75.3548 290.389 75.9869L290.712 74.0131C287.242 73.4452 284.526 72.009 282.497 69.7344L281.004 71.0656ZM291.551 75V46H289.551V75H291.551ZM290.389 45.0131C286.526 45.6452 283.376 47.2757 281.004 49.9344L282.497 51.2656C284.526 48.991 287.242 47.5548 290.712 46.9869L290.389 45.0131ZM344.023 79.7L343.321 80.4116L343.325 80.416L344.023 79.7ZM344.023 41.4L344.722 42.116L344.726 42.1115L344.023 41.4ZM383.923 41.4L383.221 42.1116L383.23 42.1203L383.923 41.4ZM383.923 79.7L384.622 80.416L384.622 80.4159L383.923 79.7ZM354.423 49.7L355.156 50.3805L355.156 50.3805L354.423 49.7ZM354.423 71.3L353.691 71.9805L353.691 71.9805L354.423 71.3ZM373.623 71.3L374.356 71.9805L374.356 71.9805L373.623 71.3ZM373.623 49.7L372.891 50.3805L372.891 50.3805L373.623 49.7ZM344.726 78.9885C339.584 73.9107 337.023 67.7675 337.023 60.5H335.023C335.023 68.2992 337.796 74.9559 343.321 80.4115L344.726 78.9885ZM337.023 60.5C337.023 53.2328 339.584 47.1254 344.722 42.116L343.325 40.684C337.797 46.0746 335.023 52.7005 335.023 60.5H337.023ZM344.726 42.1115C349.859 37.043 356.267 34.5 364.023 34.5V32.5C355.78 32.5 348.855 35.2237 343.321 40.6885L344.726 42.1115ZM364.023 34.5C371.711 34.5 378.086 37.0413 383.221 42.1115L384.626 40.6885C379.094 35.2253 372.203 32.5 364.023 32.5V34.5ZM383.23 42.1203C388.433 47.1308 391.023 53.2369 391.023 60.5H393.023C393.023 52.6964 390.214 46.0692 384.617 40.6797L383.23 42.1203ZM391.023 60.5C391.023 67.7634 388.433 73.9054 383.225 78.9841L384.622 80.4159C390.214 74.9613 393.023 68.3033 393.023 60.5H391.023ZM383.225 78.984C378.092 83.9892 371.715 86.5 364.023 86.5V88.5C372.199 88.5 379.088 85.8108 384.622 80.416L383.225 78.984ZM364.023 86.5C356.263 86.5 349.853 83.9876 344.722 78.984L343.325 80.416C348.86 85.8124 355.784 88.5 364.023 88.5V86.5ZM353.691 49.0195C350.893 52.0325 349.523 55.8886 349.523 60.5H351.523C351.523 56.3114 352.754 52.9675 355.156 50.3805L353.691 49.0195ZM349.523 60.5C349.523 65.1114 350.893 68.9675 353.691 71.9805L355.156 70.6195C352.754 68.0325 351.523 64.6886 351.523 60.5H349.523ZM353.691 71.9805C356.479 74.9829 359.944 76.5 364.023 76.5V74.5C360.503 74.5 357.568 73.2171 355.156 70.6195L353.691 71.9805ZM364.023 76.5C368.103 76.5 371.568 74.9829 374.356 71.9805L372.891 70.6195C370.479 73.2171 367.544 74.5 364.023 74.5V76.5ZM374.356 71.9805C377.154 68.9675 378.523 65.1114 378.523 60.5H376.523C376.523 64.6886 375.293 68.0325 372.891 70.6195L374.356 71.9805ZM378.523 60.5C378.523 55.8886 377.154 52.0325 374.356 49.0195L372.891 50.3805C375.293 52.9675 376.523 56.3114 376.523 60.5H378.523ZM374.356 49.0195C371.568 46.0171 368.103 44.5 364.023 44.5V46.5C367.544 46.5 370.479 47.7829 372.891 50.3805L374.356 49.0195ZM364.023 44.5C359.944 44.5 356.479 46.0171 353.691 49.0195L355.156 50.3805C357.568 47.7829 360.503 46.5 364.023 46.5V44.5ZM400.059 105H399.059V106H400.059V105ZM400.059 35V34H399.059V35H400.059ZM414.059 35H415.059V34H414.059V35ZM414.059 41.5H413.059V42.5H414.059V41.5ZM414.559 41.5V42.5H415.054L415.354 42.106L414.559 41.5ZM418.459 37.5L417.863 36.6964L417.842 36.7122L417.822 36.729L418.459 37.5ZM447.259 41L446.513 41.6663L446.522 41.6766L447.259 41ZM447.259 80.1L446.518 79.4283L446.517 79.4288L447.259 80.1ZM418.459 83.5L417.822 84.271L417.842 84.2878L417.863 84.3036L418.459 83.5ZM414.559 79.5L415.354 78.894L415.054 78.5H414.559V79.5ZM414.059 79.5V78.5H413.059V79.5H414.059ZM414.059 105V106H415.059V105H414.059ZM417.659 49.5L418.393 50.1783L418.402 50.169L417.659 49.5ZM417.659 71.6L416.915 72.269L416.924 72.2783L417.659 71.6ZM436.059 71.5L435.306 70.8415L435.306 70.8415L436.059 71.5ZM436.059 49.5L435.306 50.1585L435.306 50.1585L436.059 49.5ZM401.059 105V35H399.059V105H401.059ZM400.059 36H414.059V34H400.059V36ZM413.059 35V41.5H415.059V35H413.059ZM414.059 42.5H414.559V40.5H414.059V42.5ZM415.354 42.106C416.369 40.7742 417.614 39.4951 419.095 38.271L417.822 36.729C416.237 38.0382 414.882 39.4258 413.763 40.894L415.354 42.106ZM419.054 38.3036C422.482 35.7641 426.307 34.5 430.559 34.5V32.5C425.877 32.5 421.635 33.9026 417.863 36.6964L419.054 38.3036ZM430.559 34.5C436.939 34.5 442.235 36.8772 446.513 41.6662L448.004 40.3338C443.349 35.1228 437.512 32.5 430.559 32.5V34.5ZM446.522 41.6766C450.853 46.3892 453.059 52.63 453.059 60.5H455.059C455.059 52.2367 452.731 45.4775 447.995 40.3234L446.522 41.6766ZM453.059 60.5C453.059 68.3695 450.853 74.647 446.518 79.4283L447.999 80.7717C452.731 75.553 455.059 68.7638 455.059 60.5H453.059ZM446.517 79.4288C442.241 84.1524 436.943 86.5 430.559 86.5V88.5C437.507 88.5 443.343 85.9143 448 80.7712L446.517 79.4288ZM430.559 86.5C426.307 86.5 422.482 85.2359 419.054 82.6964L417.863 84.3036C421.635 87.0974 425.877 88.5 430.559 88.5V86.5ZM419.095 82.729C417.614 81.5049 416.369 80.2258 415.354 78.894L413.763 80.106C414.882 81.5742 416.237 82.9618 417.822 84.271L419.095 82.729ZM414.559 78.5H414.059V80.5H414.559V78.5ZM413.059 79.5V105H415.059V79.5H413.059ZM414.059 104H400.059V106H414.059V104ZM416.924 48.8217C414.302 51.6615 413.059 55.6018 413.059 60.5H415.059C415.059 55.9315 416.215 52.5385 418.393 50.1783L416.924 48.8217ZM413.059 60.5C413.059 65.3998 414.303 69.3665 416.915 72.269L418.402 70.931C416.214 68.5001 415.059 65.0668 415.059 60.5H413.059ZM416.924 72.2783C419.532 75.1037 422.942 76.5 427.059 76.5V74.5C423.442 74.5 420.585 73.2963 418.393 70.9217L416.924 72.2783ZM427.059 76.5C431.002 76.5 434.281 75.0507 436.811 72.1585L435.306 70.8415C433.17 73.2827 430.448 74.5 427.059 74.5V76.5ZM436.811 72.1585C439.349 69.2583 440.559 65.3308 440.559 60.5H438.559C438.559 65.0026 437.435 68.4084 435.306 70.8415L436.811 72.1585ZM440.559 60.5C440.559 55.6692 439.349 51.7417 436.811 48.8415L435.306 50.1585C437.435 52.5916 438.559 55.9974 438.559 60.5H440.559ZM436.811 48.8415C434.281 45.9493 431.002 44.5 427.059 44.5V46.5C430.448 46.5 433.17 47.7173 435.306 50.1585L436.811 48.8415ZM427.059 44.5C422.933 44.5 419.521 45.9359 416.915 48.831L418.402 50.169C420.596 47.7308 423.451 46.5 427.059 46.5V44.5ZM462.559 86H461.559V87H462.559V86ZM462.559 35V34H461.559V35H462.559ZM481.559 35L482.475 34.6001L482.213 34H481.559V35ZM493.559 62.5L492.642 62.8999L492.904 63.5H493.559V62.5ZM495.059 62.5V63.5H495.713L495.975 62.8999L495.059 62.5ZM507.059 35V34H506.404L506.142 34.6001L507.059 35ZM526.059 35H527.059V34H526.059V35ZM526.059 86V87H527.059V86H526.059ZM512.059 86H511.059V87H512.059V86ZM512.059 60.5L511.06 60.4445L511.059 60.4722V60.5H512.059ZM512.559 51.5L513.557 51.5555L513.616 50.5H512.559V51.5ZM512.059 51.5V50.5H511.406L511.143 51.0973L512.059 51.5ZM501.059 76.5V77.5H501.711L501.974 76.9027L501.059 76.5ZM487.559 76.5L486.643 76.9027L486.906 77.5H487.559V76.5ZM476.559 51.5L477.474 51.0973L477.211 50.5H476.559V51.5ZM476.059 51.5V50.5H475.001L475.06 51.5555L476.059 51.5ZM476.559 60.5H477.559V60.4722L477.557 60.4445L476.559 60.5ZM476.559 86V87H477.559V86H476.559ZM463.559 86V35H461.559V86H463.559ZM462.559 36H481.559V34H462.559V36ZM480.642 35.3999L492.642 62.8999L494.475 62.1001L482.475 34.6001L480.642 35.3999ZM493.559 63.5H495.059V61.5H493.559V63.5ZM495.975 62.8999L507.975 35.3999L506.142 34.6001L494.142 62.1001L495.975 62.8999ZM507.059 36H526.059V34H507.059V36ZM525.059 35V86H527.059V35H525.059ZM526.059 85H512.059V87H526.059V85ZM513.059 86V60.5H511.059V86H513.059ZM513.057 60.5555L513.557 51.5555L511.56 51.4445L511.06 60.4445L513.057 60.5555ZM512.559 50.5H512.059V52.5H512.559V50.5ZM511.143 51.0973L500.143 76.0973L501.974 76.9027L512.974 51.9027L511.143 51.0973ZM501.059 75.5H487.559V77.5H501.059V75.5ZM488.474 76.0973L477.474 51.0973L475.643 51.9027L486.643 76.9027L488.474 76.0973ZM476.559 50.5H476.059V52.5H476.559V50.5ZM475.06 51.5555L475.56 60.5555L477.557 60.4445L477.057 51.4445L475.06 51.5555ZM475.559 60.5V86H477.559V60.5H475.559ZM476.559 85H462.559V87H476.559V85ZM541.27 80.1L540.524 80.7663L540.534 80.7766L541.27 80.1ZM541.27 41L540.529 40.3283L540.529 40.3288L541.27 41ZM570.17 37.5L570.807 36.729L570.787 36.7122L570.766 36.6964L570.17 37.5ZM574.07 41.5L573.275 42.106L573.575 42.5H574.07V41.5ZM574.57 41.5V42.5H575.57V41.5H574.57ZM574.57 35V34H573.57V35H574.57ZM588.57 35H589.57V34H588.57V35ZM588.57 86V87H589.57V86H588.57ZM574.57 86H573.57V87H574.57V86ZM574.57 79.5H575.57V78.5H574.57V79.5ZM574.07 79.5V78.5H573.575L573.275 78.894L574.07 79.5ZM570.17 83.5L570.766 84.3036L570.787 84.2878L570.807 84.271L570.17 83.5ZM552.57 49.5L553.323 50.1585L553.323 50.1585L552.57 49.5ZM552.57 71.5L553.323 70.8415L553.323 70.8415L552.57 71.5ZM570.97 71.6L571.705 72.2783L571.714 72.269L570.97 71.6ZM570.97 49.5L570.227 50.169L570.236 50.1783L570.97 49.5ZM542.016 79.4338C537.745 74.6528 535.57 68.3734 535.57 60.5H533.57C533.57 68.7599 535.862 75.5472 540.525 80.7662L542.016 79.4338ZM535.57 60.5C535.57 52.6261 537.745 46.3834 542.012 41.6712L540.529 40.3288C535.862 45.4833 533.57 52.2406 533.57 60.5H535.57ZM542.011 41.6717C546.358 36.8778 551.69 34.5 558.07 34.5V32.5C551.117 32.5 545.25 35.1222 540.529 40.3283L542.011 41.6717ZM558.07 34.5C562.322 34.5 566.147 35.7641 569.575 38.3036L570.766 36.6964C566.994 33.9026 562.752 32.5 558.07 32.5V34.5ZM569.533 38.271C571.015 39.4951 572.26 40.7742 573.275 42.106L574.866 40.894C573.747 39.4258 572.392 38.0382 570.807 36.729L569.533 38.271ZM574.07 42.5H574.57V40.5H574.07V42.5ZM575.57 41.5V35H573.57V41.5H575.57ZM574.57 36H588.57V34H574.57V36ZM587.57 35V86H589.57V35H587.57ZM588.57 85H574.57V87H588.57V85ZM575.57 86V79.5H573.57V86H575.57ZM574.57 78.5H574.07V80.5H574.57V78.5ZM573.275 78.894C572.26 80.2258 571.015 81.5049 569.533 82.729L570.807 84.271C572.392 82.9618 573.747 81.5742 574.866 80.106L573.275 78.894ZM569.575 82.6964C566.147 85.2359 562.322 86.5 558.07 86.5V88.5C562.752 88.5 566.994 87.0974 570.766 84.3036L569.575 82.6964ZM558.07 86.5C551.685 86.5 546.352 84.1518 542.007 79.4234L540.534 80.7766C545.256 85.9149 551.122 88.5 558.07 88.5V86.5ZM551.818 48.8415C549.28 51.7417 548.07 55.6692 548.07 60.5H550.07C550.07 55.9974 551.194 52.5916 553.323 50.1585L551.818 48.8415ZM548.07 60.5C548.07 65.3308 549.28 69.2583 551.818 72.1585L553.323 70.8415C551.194 68.4084 550.07 65.0026 550.07 60.5H548.07ZM551.818 72.1585C554.348 75.0507 557.627 76.5 561.57 76.5V74.5C558.181 74.5 555.459 73.2827 553.323 70.8415L551.818 72.1585ZM561.57 76.5C565.687 76.5 569.097 75.1037 571.705 72.2783L570.236 70.9217C568.044 73.2963 565.187 74.5 561.57 74.5V76.5ZM571.714 72.269C574.326 69.3665 575.57 65.3998 575.57 60.5H573.57C573.57 65.0668 572.415 68.5001 570.227 70.931L571.714 72.269ZM575.57 60.5C575.57 55.6018 574.326 51.6615 571.705 48.8217L570.236 50.1783C572.414 52.5385 573.57 55.9315 573.57 60.5H575.57ZM571.714 48.831C569.108 45.9359 565.696 44.5 561.57 44.5V46.5C565.178 46.5 568.033 47.7308 570.227 50.169L571.714 48.831ZM561.57 44.5C557.627 44.5 554.348 45.9493 551.818 48.8415L553.323 50.1585C555.459 47.7173 558.181 46.5 561.57 46.5V44.5ZM22.5 206.5H21.5V207.5H22.5V206.5ZM22.5 184V183H21.5V184H22.5ZM28 184V185H28.7664L28.9656 184.26L28 184ZM38.5 145V144H37.7336L37.5344 144.74L38.5 145ZM65.5 145L66.4656 144.74L66.2664 144H65.5V145ZM76 184L75.0344 184.26L75.2336 185H76V184ZM81.5 184H82.5V183H81.5V184ZM81.5 206.5V207.5H82.5V206.5H81.5ZM68.5 206.5H67.5V207.5H68.5V206.5ZM68.5 196H69.5V195H68.5V196ZM35.5 196V195H34.5V196H35.5ZM35.5 206.5V207.5H36.5V206.5H35.5ZM42 184L41.0365 183.732L40.6844 185H42V184ZM62 184V185H63.3156L62.9635 183.732L62 184ZM54.5 157L55.4635 156.732L55.2601 156H54.5V157ZM49.5 157V156H48.7399L48.5365 156.732L49.5 157ZM23.5 206.5V184H21.5V206.5H23.5ZM22.5 185H28V183H22.5V185ZM28.9656 184.26L39.4656 145.26L37.5344 144.74L27.0344 183.74L28.9656 184.26ZM38.5 146H65.5V144H38.5V146ZM64.5344 145.26L75.0344 184.26L76.9656 183.74L66.4656 144.74L64.5344 145.26ZM76 185H81.5V183H76V185ZM80.5 184V206.5H82.5V184H80.5ZM81.5 205.5H68.5V207.5H81.5V205.5ZM69.5 206.5V196H67.5V206.5H69.5ZM68.5 195H35.5V197H68.5V195ZM34.5 196V206.5H36.5V196H34.5ZM35.5 205.5H22.5V207.5H35.5V205.5ZM42 185H62V183H42V185ZM62.9635 183.732L55.4635 156.732L53.5365 157.268L61.0365 184.268L62.9635 183.732ZM54.5 156H49.5V158H54.5V156ZM48.5365 156.732L41.0365 183.732L42.9635 184.268L50.4635 157.268L48.5365 156.732ZM81.9609 196L80.9942 195.744L80.6618 197H81.9609V196ZM95.4609 145V144H94.6912L94.4942 144.744L95.4609 145ZM122.461 145L123.428 144.744L123.231 144H122.461V145ZM135.961 196V197H137.26L136.928 195.744L135.961 196ZM121.961 196L120.995 196.26L121.195 197H121.961V196ZM111.461 157L112.427 156.74L112.227 156H111.461V157ZM106.461 157V156H105.695L105.495 156.74L106.461 157ZM95.9609 196V197H96.7273L96.9266 196.26L95.9609 196ZM82.9276 196.256L96.4276 145.256L94.4942 144.744L80.9942 195.744L82.9276 196.256ZM95.4609 146H122.461V144H95.4609V146ZM121.494 145.256L134.994 196.256L136.928 195.744L123.428 144.744L121.494 145.256ZM135.961 195H121.961V197H135.961V195ZM122.927 195.74L112.427 156.74L110.495 157.26L120.995 196.26L122.927 195.74ZM111.461 156H106.461V158H111.461V156ZM105.495 156.74L94.9953 195.74L96.9266 196.26L107.427 157.26L105.495 156.74ZM95.9609 195H81.9609V197H95.9609V195ZM138.965 196L138.095 195.506L137.247 197H138.965V196ZM149.465 177.5L150.335 177.994L150.863 177.062L149.898 176.598L149.465 177.5ZM144.965 174.3L144.258 175.007L144.258 175.007L144.965 174.3ZM145.865 149.9L145.2 149.153L145.193 149.159L145.865 149.9ZM186.465 145H187.465V144H186.465V145ZM186.465 196V197H187.465V196H186.465ZM172.465 196H171.465V197H172.465V196ZM172.465 180.5H173.465V179.5H172.465V180.5ZM162.465 180.5V179.5H161.856L161.576 180.041L162.465 180.5ZM154.465 196V197H155.074L155.353 196.459L154.465 196ZM156.865 167.3L156.198 168.045L156.198 168.045L156.865 167.3ZM172.465 169V170H173.465V169H172.465ZM172.465 157H173.465V156H172.465V157ZM156.865 158.6L157.485 159.385L157.49 159.381L156.865 158.6ZM139.835 196.494L150.335 177.994L148.595 177.006L138.095 195.506L139.835 196.494ZM149.898 176.598C148.335 175.848 146.927 174.848 145.672 173.593L144.258 175.007C145.669 176.419 147.262 177.552 149.032 178.402L149.898 176.598ZM145.672 173.593C142.887 170.808 141.465 167.144 141.465 162.5H139.465C139.465 167.59 141.042 171.792 144.258 175.007L145.672 173.593ZM141.465 162.5C141.465 157.631 143.159 153.706 146.537 150.641L145.193 149.159C141.371 152.627 139.465 157.102 139.465 162.5H141.465ZM146.53 150.647C149.964 147.588 154.734 146 160.965 146V144C154.396 144 149.099 145.679 145.2 149.153L146.53 150.647ZM160.965 146H186.465V144H160.965V146ZM185.465 145V196H187.465V145H185.465ZM186.465 195H172.465V197H186.465V195ZM173.465 196V180.5H171.465V196H173.465ZM172.465 179.5H162.465V181.5H172.465V179.5ZM161.576 180.041L153.576 195.541L155.353 196.459L163.353 180.959L161.576 180.041ZM154.465 195H138.965V197H154.465V195ZM153.965 162.5C153.965 164.785 154.674 166.682 156.198 168.045L157.532 166.555C156.522 165.651 155.965 164.349 155.965 162.5H153.965ZM156.198 168.045C157.711 169.399 159.82 170 162.365 170V168C160.11 168 158.552 167.467 157.532 166.555L156.198 168.045ZM162.365 170H172.465V168H162.365V170ZM173.465 169V157H171.465V169H173.465ZM172.465 156H162.365V158H172.465V156ZM162.365 156C159.887 156 157.806 156.566 156.24 157.819L157.49 159.381C158.59 158.5 160.176 158 162.365 158V156ZM156.245 157.815C154.741 159.003 153.965 160.591 153.965 162.5H155.965C155.965 161.209 156.456 160.197 157.484 159.385L156.245 157.815ZM230.449 189.7L229.747 190.412L229.751 190.416L230.449 189.7ZM230.449 151.4L231.147 152.116L231.152 152.112L230.449 151.4ZM270.349 151.4L269.647 152.112L269.656 152.12L270.349 151.4ZM270.349 189.7L271.047 190.416L271.047 190.416L270.349 189.7ZM240.849 159.7L241.582 160.38L241.582 160.38L240.849 159.7ZM240.849 181.3L240.116 181.98L240.116 181.98L240.849 181.3ZM260.049 181.3L260.782 181.98L260.782 181.98L260.049 181.3ZM260.049 159.7L259.316 160.38L259.316 160.38L260.049 159.7ZM231.152 188.988C226.01 183.911 223.449 177.767 223.449 170.5H221.449C221.449 178.299 224.222 184.956 229.747 190.412L231.152 188.988ZM223.449 170.5C223.449 163.233 226.009 157.125 231.147 152.116L229.751 150.684C224.222 156.075 221.449 162.701 221.449 170.5H223.449ZM231.152 152.112C236.285 147.043 242.693 144.5 250.449 144.5V142.5C242.206 142.5 235.281 145.224 229.747 150.688L231.152 152.112ZM250.449 144.5C258.137 144.5 264.512 147.041 269.647 152.112L271.052 150.688C265.52 145.225 258.629 142.5 250.449 142.5V144.5ZM269.656 152.12C274.859 157.131 277.449 163.237 277.449 170.5H279.449C279.449 162.696 276.64 156.069 271.043 150.68L269.656 152.12ZM277.449 170.5C277.449 177.763 274.858 183.905 269.651 188.984L271.047 190.416C276.64 184.961 279.449 178.303 279.449 170.5H277.449ZM269.651 188.984C264.518 193.989 258.14 196.5 250.449 196.5V198.5C258.625 198.5 265.514 195.811 271.047 190.416L269.651 188.984ZM250.449 196.5C242.689 196.5 236.279 193.988 231.147 188.984L229.751 190.416C235.286 195.812 242.21 198.5 250.449 198.5V196.5ZM240.116 159.02C237.319 162.033 235.949 165.889 235.949 170.5H237.949C237.949 166.311 239.18 162.967 241.582 160.38L240.116 159.02ZM235.949 170.5C235.949 175.111 237.319 178.967 240.116 181.98L241.582 180.62C239.18 178.033 237.949 174.689 237.949 170.5H235.949ZM240.116 181.98C242.904 184.983 246.369 186.5 250.449 186.5V184.5C246.929 184.5 243.994 183.217 241.582 180.62L240.116 181.98ZM250.449 186.5C254.529 186.5 257.994 184.983 260.782 181.98L259.316 180.62C256.904 183.217 253.969 184.5 250.449 184.5V186.5ZM260.782 181.98C263.58 178.967 264.949 175.111 264.949 170.5H262.949C262.949 174.689 261.719 178.033 259.316 180.62L260.782 181.98ZM264.949 170.5C264.949 165.889 263.58 162.033 260.782 159.02L259.316 160.38C261.719 162.967 262.949 166.311 262.949 170.5H264.949ZM260.782 159.02C257.994 156.017 254.529 154.5 250.449 154.5V156.5C253.969 156.5 256.904 157.783 259.316 160.38L260.782 159.02ZM250.449 154.5C246.369 154.5 242.904 156.017 240.116 159.02L241.582 160.38C243.994 157.783 246.929 156.5 250.449 156.5V154.5ZM286.484 196H285.484V197H286.484V196ZM286.484 145V144H285.484V145H286.484ZM300.484 145H301.484V144H300.484V145ZM300.484 164H299.484V165H300.484V164ZM321.984 164V165H322.984V164H321.984ZM321.984 145V144H320.984V145H321.984ZM335.984 145H336.984V144H335.984V145ZM335.984 196V197H336.984V196H335.984ZM321.984 196H320.984V197H321.984V196ZM321.984 176H322.984V175H321.984V176ZM300.484 176V175H299.484V176H300.484ZM300.484 196V197H301.484V196H300.484ZM287.484 196V145H285.484V196H287.484ZM286.484 146H300.484V144H286.484V146ZM299.484 145V164H301.484V145H299.484ZM300.484 165H321.984V163H300.484V165ZM322.984 164V145H320.984V164H322.984ZM321.984 146H335.984V144H321.984V146ZM334.984 145V196H336.984V145H334.984ZM335.984 195H321.984V197H335.984V195ZM322.984 196V176H320.984V196H322.984ZM321.984 175H300.484V177H321.984V175ZM299.484 176V196H301.484V176H299.484ZM300.484 195H286.484V197H300.484V195ZM341.531 196L340.565 195.744L340.232 197H341.531V196ZM355.031 145V144H354.262L354.065 144.744L355.031 145ZM382.031 145L382.998 144.744L382.801 144H382.031V145ZM395.531 196V197H396.83L396.498 195.744L395.531 196ZM381.531 196L380.566 196.26L380.765 197H381.531V196ZM371.031 157L371.997 156.74L371.798 156H371.031V157ZM366.031 157V156H365.265L365.066 156.74L366.031 157ZM355.531 196V197H356.298L356.497 196.26L355.531 196ZM342.498 196.256L355.998 145.256L354.065 144.744L340.565 195.744L342.498 196.256ZM355.031 146H382.031V144H355.031V146ZM381.065 145.256L394.565 196.256L396.498 195.744L382.998 144.744L381.065 145.256ZM395.531 195H381.531V197H395.531V195ZM382.497 195.74L371.997 156.74L370.066 157.26L380.566 196.26L382.497 195.74ZM371.031 156H366.031V158H371.031V156ZM365.066 156.74L354.566 195.74L356.497 196.26L366.997 157.26L365.066 156.74ZM355.531 195H341.531V197H355.531V195ZM405.235 190.1L404.489 190.766L404.499 190.777L405.235 190.1ZM405.235 151L404.494 150.328L404.494 150.329L405.235 151ZM434.135 147.5L434.772 146.729L434.752 146.712L434.73 146.696L434.135 147.5ZM438.035 151.5L437.24 152.106L437.54 152.5H438.035V151.5ZM438.535 151.5V152.5H439.535V151.5H438.535ZM438.535 145V144H437.535V145H438.535ZM452.535 145H453.535V144H452.535V145ZM452.535 196V197H453.535V196H452.535ZM438.535 196H437.535V197H438.535V196ZM438.535 189.5H439.535V188.5H438.535V189.5ZM438.035 189.5V188.5H437.54L437.24 188.894L438.035 189.5ZM434.135 193.5L434.73 194.304L434.752 194.288L434.772 194.271L434.135 193.5ZM416.535 159.5L417.288 160.159L417.288 160.159L416.535 159.5ZM416.535 181.5L417.288 180.841L417.288 180.841L416.535 181.5ZM434.935 181.6L435.67 182.278L435.678 182.269L434.935 181.6ZM434.935 159.5L434.192 160.169L434.2 160.178L434.935 159.5ZM405.981 189.434C401.71 184.653 399.535 178.373 399.535 170.5H397.535C397.535 178.76 399.827 185.547 404.489 190.766L405.981 189.434ZM399.535 170.5C399.535 162.626 401.71 156.383 405.976 151.671L404.494 150.329C399.827 155.483 397.535 162.241 397.535 170.5H399.535ZM405.976 151.672C410.322 146.878 415.655 144.5 422.035 144.5V142.5C415.082 142.5 409.215 145.122 404.494 150.328L405.976 151.672ZM422.035 144.5C426.287 144.5 430.112 145.764 433.54 148.304L434.73 146.696C430.959 143.903 426.717 142.5 422.035 142.5V144.5ZM433.498 148.271C434.98 149.495 436.225 150.774 437.24 152.106L438.831 150.894C437.712 149.426 436.357 148.038 434.772 146.729L433.498 148.271ZM438.035 152.5H438.535V150.5H438.035V152.5ZM439.535 151.5V145H437.535V151.5H439.535ZM438.535 146H452.535V144H438.535V146ZM451.535 145V196H453.535V145H451.535ZM452.535 195H438.535V197H452.535V195ZM439.535 196V189.5H437.535V196H439.535ZM438.535 188.5H438.035V190.5H438.535V188.5ZM437.24 188.894C436.225 190.226 434.98 191.505 433.498 192.729L434.772 194.271C436.357 192.962 437.712 191.574 438.831 190.106L437.24 188.894ZM433.54 192.696C430.112 195.236 426.287 196.5 422.035 196.5V198.5C426.717 198.5 430.959 197.097 434.73 194.304L433.54 192.696ZM422.035 196.5C415.65 196.5 410.317 194.152 405.971 189.423L404.499 190.777C409.22 195.915 415.087 198.5 422.035 198.5V196.5ZM415.783 158.841C413.245 161.742 412.035 165.669 412.035 170.5H414.035C414.035 165.997 415.159 162.592 417.288 160.159L415.783 158.841ZM412.035 170.5C412.035 175.331 413.245 179.258 415.783 182.159L417.288 180.841C415.159 178.408 414.035 175.003 414.035 170.5H412.035ZM415.783 182.159C418.313 185.051 421.592 186.5 425.535 186.5V184.5C422.145 184.5 419.424 183.283 417.288 180.841L415.783 182.159ZM425.535 186.5C429.652 186.5 433.062 185.104 435.67 182.278L434.2 180.922C432.008 183.296 429.152 184.5 425.535 184.5V186.5ZM435.678 182.269C438.291 179.367 439.535 175.4 439.535 170.5H437.535C437.535 175.067 436.38 178.5 434.192 180.931L435.678 182.269ZM439.535 170.5C439.535 165.602 438.291 161.661 435.67 158.822L434.2 160.178C436.379 162.539 437.535 165.931 437.535 170.5H439.535ZM435.678 158.831C433.073 155.936 429.661 154.5 425.535 154.5V156.5C429.143 156.5 431.997 157.731 434.192 160.169L435.678 158.831ZM425.535 154.5C421.592 154.5 418.313 155.949 415.783 158.841L417.288 160.159C419.424 157.717 422.145 156.5 425.535 156.5V154.5ZM463.535 196H462.535V197H463.535V196ZM463.535 145V144H462.535V145H463.535ZM477.535 145H478.535V144H477.535V145ZM477.535 167L478.534 167.055L478.535 167.028V167H477.535ZM477.035 176L476.037 175.945L475.978 177H477.035V176ZM478.035 176V177H478.573L478.869 176.552L478.035 176ZM498.535 145V144H497.998L497.701 144.448L498.535 145ZM513.535 145H514.535V144H513.535V145ZM513.535 196V197H514.535V196H513.535ZM499.535 196H498.535V197H499.535V196ZM499.535 174L498.537 173.945L498.535 173.972V174H499.535ZM500.035 165L501.034 165.055L501.092 164H500.035V165ZM499.035 165V164H498.498L498.201 164.448L499.035 165ZM478.535 196V197H479.073L479.369 196.552L478.535 196ZM472.535 124.5V123.5H471.535V124.5H472.535ZM482.035 124.5H483.035V123.5H482.035V124.5ZM495.035 124.5V123.5H494.035V124.5H495.035ZM504.535 124.5H505.535V123.5H504.535V124.5ZM500.335 134.4L500.995 135.151L500.996 135.15L500.335 134.4ZM476.635 134.4L475.965 135.142L475.975 135.151L475.984 135.159L476.635 134.4ZM464.535 196V145H462.535V196H464.535ZM463.535 146H477.535V144H463.535V146ZM476.535 145V167H478.535V145H476.535ZM476.537 166.945L476.037 175.945L478.034 176.055L478.534 167.055L476.537 166.945ZM477.035 177H478.035V175H477.035V177ZM478.869 176.552L499.369 145.552L497.701 144.448L477.201 175.448L478.869 176.552ZM498.535 146H513.535V144H498.535V146ZM512.535 145V196H514.535V145H512.535ZM513.535 195H499.535V197H513.535V195ZM500.535 196V174H498.535V196H500.535ZM500.534 174.055L501.034 165.055L499.037 164.945L498.537 173.945L500.534 174.055ZM500.035 164H499.035V166H500.035V164ZM498.201 164.448L477.701 195.448L479.369 196.552L499.869 165.552L498.201 164.448ZM478.535 195H463.535V197H478.535V195ZM472.535 125.5H482.035V123.5H472.535V125.5ZM481.035 124.5C481.035 126.401 481.667 127.978 483.05 129.043C484.385 130.069 486.268 130.5 488.535 130.5V128.5C486.469 128.5 485.102 128.098 484.27 127.457C483.487 126.855 483.035 125.932 483.035 124.5H481.035ZM488.535 130.5C490.802 130.5 492.686 130.069 494.02 129.043C495.404 127.978 496.035 126.401 496.035 124.5H494.035C494.035 125.932 493.583 126.855 492.8 127.457C491.968 128.098 490.602 128.5 488.535 128.5V130.5ZM495.035 125.5H504.535V123.5H495.035V125.5ZM503.535 124.5C503.535 128.381 502.234 131.395 499.674 133.65L500.996 135.15C504.036 132.472 505.535 128.886 505.535 124.5H503.535ZM499.675 133.649C497.187 135.833 493.525 137 488.535 137V139C493.812 139 498.016 137.767 500.995 135.151L499.675 133.649ZM488.535 137C483.547 137 479.845 135.834 477.286 133.641L475.984 135.159C479.026 137.766 483.256 139 488.535 139V137ZM477.305 133.658C474.809 131.405 473.535 128.389 473.535 124.5H471.535C471.535 128.878 472.995 132.462 475.965 135.142L477.305 133.658ZM524.57 196H523.57V197H524.57V196ZM524.57 145V144H523.57V145H524.57ZM538.57 145H539.57V144H538.57V145ZM538.57 164H537.57V165H538.57V164ZM560.07 164V165H561.07V164H560.07ZM560.07 145V144H559.07V145H560.07ZM574.07 145H575.07V144H574.07V145ZM574.07 196V197H575.07V196H574.07ZM560.07 196H559.07V197H560.07V196ZM560.07 176H561.07V175H560.07V176ZM538.57 176V175H537.57V176H538.57ZM538.57 196V197H539.57V196H538.57ZM525.57 196V145H523.57V196H525.57ZM524.57 146H538.57V144H524.57V146ZM537.57 145V164H539.57V145H537.57ZM538.57 165H560.07V163H538.57V165ZM561.07 164V145H559.07V164H561.07ZM560.07 146H574.07V144H560.07V146ZM573.07 145V196H575.07V145H573.07ZM574.07 195H560.07V197H574.07V195ZM561.07 196V176H559.07V196H561.07ZM560.07 175H538.57V177H560.07V175ZM537.57 176V196H539.57V176H537.57ZM538.57 195H524.57V197H538.57V195ZM585.117 175H584.117V176H585.117V175ZM585.117 163V162H584.117V163H585.117ZM622.617 163H623.617V162H622.617V163ZM622.617 175V176H623.617V175H622.617ZM586.117 175V163H584.117V175H586.117ZM585.117 164H622.617V162H585.117V164ZM621.617 163V175H623.617V163H621.617ZM622.617 174H585.117V176H622.617V174ZM638.652 189.7L637.95 190.412L637.954 190.416L638.652 189.7ZM638.652 151.4L639.35 152.116L639.355 152.112L638.652 151.4ZM678.552 151.4L677.85 152.112L677.859 152.12L678.552 151.4ZM678.552 189.7L679.25 190.416L679.251 190.416L678.552 189.7ZM649.052 159.7L649.785 160.38L649.785 160.38L649.052 159.7ZM649.052 181.3L648.32 181.98L648.32 181.98L649.052 181.3ZM668.252 181.3L668.985 181.98L668.985 181.98L668.252 181.3ZM668.252 159.7L667.52 160.38L667.52 160.38L668.252 159.7ZM639.355 188.988C634.213 183.911 631.652 177.767 631.652 170.5H629.652C629.652 178.299 632.425 184.956 637.95 190.412L639.355 188.988ZM631.652 170.5C631.652 163.233 634.213 157.125 639.35 152.116L637.954 150.684C632.425 156.075 629.652 162.701 629.652 170.5H631.652ZM639.355 152.112C644.488 147.043 650.896 144.5 658.652 144.5V142.5C650.409 142.5 643.484 145.224 637.95 150.688L639.355 152.112ZM658.652 144.5C666.34 144.5 672.715 147.041 677.85 152.112L679.255 150.688C673.723 145.225 666.832 142.5 658.652 142.5V144.5ZM677.859 152.12C683.062 157.131 685.652 163.237 685.652 170.5H687.652C687.652 162.696 684.843 156.069 679.246 150.68L677.859 152.12ZM685.652 170.5C685.652 177.763 683.061 183.905 677.854 188.984L679.251 190.416C684.843 184.961 687.652 178.303 687.652 170.5H685.652ZM677.854 188.984C672.721 193.989 666.344 196.5 658.652 196.5V198.5C666.828 198.5 673.717 195.811 679.25 190.416L677.854 188.984ZM658.652 196.5C650.892 196.5 644.482 193.988 639.35 188.984L637.954 190.416C643.489 195.812 650.413 198.5 658.652 198.5V196.5ZM648.32 159.02C645.522 162.033 644.152 165.889 644.152 170.5H646.152C646.152 166.311 647.383 162.967 649.785 160.38L648.32 159.02ZM644.152 170.5C644.152 175.111 645.522 178.967 648.32 181.98L649.785 180.62C647.383 178.033 646.152 174.689 646.152 170.5H644.152ZM648.32 181.98C651.108 184.983 654.573 186.5 658.652 186.5V184.5C655.132 184.5 652.197 183.217 649.785 180.62L648.32 181.98ZM658.652 186.5C662.732 186.5 666.197 184.983 668.985 181.98L667.52 180.62C665.108 183.217 662.173 184.5 658.652 184.5V186.5ZM668.985 181.98C671.783 178.967 673.152 175.111 673.152 170.5H671.152C671.152 174.689 669.922 178.033 667.52 180.62L668.985 181.98ZM673.152 170.5C673.152 165.889 671.783 162.033 668.985 159.02L667.52 160.38C669.922 162.967 671.152 166.311 671.152 170.5H673.152ZM668.985 159.02C666.197 156.017 662.732 154.5 658.652 154.5V156.5C662.173 156.5 665.108 157.783 667.52 160.38L668.985 159.02ZM658.652 154.5C654.573 154.5 651.108 156.017 648.32 159.02L649.785 160.38C652.197 157.783 655.132 156.5 658.652 156.5V154.5ZM741.188 126H742.188V125H741.188V126ZM741.188 138V139H742.188V138H741.188ZM712.488 142.8L713.144 143.554L713.152 143.547L712.488 142.8ZM706.688 156L705.689 155.953L705.639 157H706.688V156ZM707.188 156V157H707.706L708.004 156.577L707.188 156ZM710.788 152.5L710.222 151.675L710.204 151.687L710.188 151.7L710.788 152.5ZM739.088 155.7L738.37 156.396L738.375 156.402L738.38 156.407L739.088 155.7ZM738.288 190.4L738.985 191.117L738.985 191.117L738.288 190.4ZM700.188 189.2L700.929 188.53L700.929 188.53L700.188 189.2ZM710.488 182L709.75 182.676L709.76 182.686L710.488 182ZM727.888 182L728.615 182.686L728.625 182.676L727.888 182ZM727.888 163.4L728.605 162.704L727.888 163.4ZM710.488 163.4L711.205 164.096L711.205 164.096L710.488 163.4ZM693.688 167C693.688 153.447 696.501 143.468 701.957 136.888C707.384 130.345 715.563 127 726.688 127V125C715.146 125 706.325 128.489 700.418 135.612C694.54 142.699 691.688 153.22 691.688 167H693.688ZM726.688 127H741.188V125H726.688V127ZM740.188 126V138H742.188V126H740.188ZM741.188 137H728.188V139H741.188V137ZM728.188 137C721.179 137 715.671 138.632 711.823 142.053L713.152 143.547C716.504 140.568 721.462 139 728.188 139V137ZM711.831 142.046C707.987 145.392 705.965 150.069 705.689 155.953L707.686 156.047C707.943 150.597 709.788 146.475 713.144 143.554L711.831 142.046ZM706.688 157H707.188V155H706.688V157ZM708.004 156.577C708.724 155.557 709.837 154.463 711.388 153.3L710.188 151.7C708.538 152.937 707.251 154.176 706.371 155.423L708.004 156.577ZM711.353 153.325C714.57 151.117 718.335 150 722.688 150V148C717.973 148 713.805 149.217 710.222 151.675L711.353 153.325ZM722.688 150C729.035 150 734.237 152.136 738.37 156.396L739.805 155.004C735.271 150.33 729.54 148 722.688 148V150ZM738.38 156.407C742.575 160.601 744.687 165.938 744.687 172.5H746.687C746.687 165.462 744.4 159.599 739.795 154.993L738.38 156.407ZM744.687 172.5C744.687 179.374 742.322 185.079 737.59 189.683L738.985 191.117C744.119 186.121 746.687 179.892 746.687 172.5H744.687ZM737.59 189.683C732.94 194.206 726.838 196.5 719.188 196.5V198.5C727.27 198.5 733.902 196.061 738.985 191.117L737.59 189.683ZM719.188 196.5C711.795 196.5 705.734 193.846 700.929 188.53L699.446 189.87C704.641 195.62 711.247 198.5 719.188 198.5V196.5ZM700.929 188.53C696.133 183.222 693.688 176.082 693.688 167H691.688C691.688 176.452 694.242 184.112 699.446 189.87L700.929 188.53ZM706.188 172.5C706.188 176.629 707.348 180.054 709.75 182.676L711.225 181.324C709.227 179.146 708.188 176.238 708.188 172.5H706.188ZM709.76 182.686C712.173 185.245 715.349 186.5 719.188 186.5V184.5C715.826 184.5 713.202 183.421 711.215 181.314L709.76 182.686ZM719.188 186.5C723.026 186.5 726.202 185.245 728.615 182.686L727.16 181.314C725.173 183.421 722.549 184.5 719.188 184.5V186.5ZM728.625 182.676C731.027 180.054 732.188 176.629 732.188 172.5H730.188C730.188 176.238 729.148 179.146 727.15 181.324L728.625 182.676ZM732.188 172.5C732.188 168.496 731.022 165.194 728.605 162.704L727.17 164.096C729.153 166.14 730.188 168.904 730.188 172.5H732.188ZM728.605 162.704C726.19 160.215 723.017 159 719.188 159V161C722.558 161 725.185 162.052 727.17 164.096L728.605 162.704ZM719.188 159C715.358 159 712.185 160.215 709.77 162.704L711.205 164.096C713.19 162.052 715.817 161 719.188 161V159ZM709.77 162.704C707.353 165.194 706.188 168.496 706.188 172.5H708.188C708.188 168.904 709.222 166.14 711.205 164.096L709.77 162.704ZM747.707 145V144H746.408L746.74 145.256L747.707 145ZM762.207 145L763.176 144.752L762.983 144H762.207V145ZM772.207 184L771.238 184.248L771.431 185H772.207V184ZM776.207 184V185H776.964L777.169 184.271L776.207 184ZM787.207 145V144H786.45L786.245 144.729L787.207 145ZM801.707 145L802.667 145.281L803.042 144H801.707V145ZM781.207 215V216H781.956L782.167 215.281L781.207 215ZM766.707 215L765.746 214.722L765.377 216H766.707V215ZM772.207 196L773.168 196.278L773.538 195H772.207V196ZM761.207 196L760.24 196.256L760.437 197H761.207V196ZM747.707 146H762.207V144H747.707V146ZM761.238 145.248L771.238 184.248L773.176 183.752L763.176 144.752L761.238 145.248ZM772.207 185H776.207V183H772.207V185ZM777.169 184.271L788.169 145.271L786.245 144.729L775.245 183.729L777.169 184.271ZM787.207 146H801.707V144H787.207V146ZM800.747 144.719L780.247 214.719L782.167 215.281L802.667 145.281L800.747 144.719ZM781.207 214H766.707V216H781.207V214ZM767.668 215.278L773.168 196.278L771.246 195.722L765.746 214.722L767.668 215.278ZM772.207 195H761.207V197H772.207V195ZM762.174 195.744L748.674 144.744L746.74 145.256L760.24 196.256L762.174 195.744ZM805.688 145V144H804.688V145H805.688ZM819.688 145H820.688V144H819.688V145ZM836.088 169.6L836.433 170.538L836.446 170.534L836.459 170.528L836.088 169.6ZM838.688 168.2L839.276 169.009L839.688 168.709V168.2H838.688ZM838.688 145V144H837.688V145H838.688ZM852.688 145H853.688V144H852.688V145ZM852.688 196V197H853.688V196H852.688ZM838.688 196H837.688V197H838.688V196ZM838.688 179.5H839.688V177.443L838.07 178.714L838.688 179.5ZM835.388 181.3L835.042 180.362L835.031 180.366L835.02 180.37L835.388 181.3ZM810.988 177.9L810.294 178.621L810.301 178.627L810.988 177.9ZM806.688 164V145H804.688V164H806.688ZM805.688 146H819.688V144H805.688V146ZM818.688 145V163H820.688V145H818.688ZM818.688 163C818.688 165.837 819.444 168.144 821.127 169.728C822.799 171.302 825.215 172 828.188 172V170C825.494 170 823.659 169.365 822.498 168.272C821.348 167.189 820.688 165.496 820.688 163H818.688ZM828.188 172C831.037 172 833.788 171.513 836.433 170.538L835.742 168.662C833.321 169.554 830.804 170 828.188 170V172ZM836.459 170.528C837.522 170.103 838.464 169.599 839.276 169.009L838.099 167.391C837.444 167.868 836.653 168.297 835.716 168.672L836.459 170.528ZM839.688 168.2V145H837.688V168.2H839.688ZM838.688 146H852.688V144H838.688V146ZM851.688 145V196H853.688V145H851.688ZM852.688 195H838.688V197H852.688V195ZM839.688 196V179.5H837.688V196H839.688ZM838.07 178.714C837.229 179.374 836.224 179.926 835.042 180.362L835.733 182.238C837.085 181.74 838.279 181.092 839.305 180.286L838.07 178.714ZM835.02 180.37C832.288 181.45 829.182 182 825.688 182V184C829.393 184 832.754 183.417 835.755 182.23L835.02 180.37ZM825.688 182C819.675 182 815.045 180.356 811.674 177.173L810.301 178.627C814.13 182.244 819.3 184 825.688 184V182ZM811.681 177.179C808.381 174.004 806.688 169.652 806.688 164H804.688C804.688 170.081 806.527 174.996 810.294 178.621L811.681 177.179ZM868.63 189.7L867.923 190.407L867.932 190.416L868.63 189.7ZM868.63 151.4L869.333 152.112L869.333 152.112L868.63 151.4ZM907.63 151.3L906.914 151.998L906.914 151.998L907.63 151.3ZM915.23 173.5V174.5H916.23V173.5H915.23ZM875.23 173.5V172.5H874.058L874.243 173.658L875.23 173.5ZM879.73 182L879.043 182.726L879.043 182.726L879.73 182ZM897.33 182.5L897.95 183.285L897.968 183.271L897.985 183.256L897.33 182.5ZM899.73 179.5V178.5H899.128L898.847 179.032L899.73 179.5ZM914.73 179.5L915.679 179.816L916.118 178.5H914.73V179.5ZM909.73 188.5L910.478 189.164L910.486 189.155L910.494 189.146L909.73 188.5ZM875.73 165L874.771 164.719L874.396 166H875.73V165ZM900.23 165V166H901.45L901.211 164.804L900.23 165ZM896.13 158.3L895.472 159.053L895.484 159.063L895.497 159.074L896.13 158.3ZM869.338 188.993C864.261 183.916 861.73 177.772 861.73 170.5H859.73C859.73 178.295 862.467 184.951 867.923 190.407L869.338 188.993ZM861.73 170.5C861.73 163.229 864.26 157.12 869.333 152.112L867.928 150.688C862.467 156.08 859.73 162.705 859.73 170.5H861.73ZM869.333 152.112C874.473 147.036 880.751 144.5 888.23 144.5V142.5C880.243 142.5 873.455 145.231 867.928 150.688L869.333 152.112ZM888.23 144.5C895.852 144.5 902.053 147.008 906.914 151.998L908.347 150.602C903.075 145.192 896.342 142.5 888.23 142.5V144.5ZM906.914 151.998C911.79 157.002 914.23 163.147 914.23 170.5H916.23C916.23 162.653 913.605 155.998 908.347 150.602L906.914 151.998ZM914.23 170.5V173.5H916.23V170.5H914.23ZM915.23 172.5H875.23V174.5H915.23V172.5ZM874.243 173.658C874.811 177.21 876.418 180.243 879.043 182.726L880.418 181.274C878.11 179.091 876.716 176.457 876.218 173.342L874.243 173.658ZM879.043 182.726C881.683 185.224 884.758 186.5 888.23 186.5V184.5C885.303 184.5 882.711 183.443 880.418 181.274L879.043 182.726ZM888.23 186.5C891.966 186.5 895.223 185.438 897.95 183.285L896.711 181.715C894.371 183.562 891.562 184.5 888.23 184.5V186.5ZM897.985 183.256C899.076 182.311 899.955 181.214 900.614 179.968L898.847 179.032C898.306 180.053 897.585 180.956 896.676 181.744L897.985 183.256ZM899.73 180.5H914.73V178.5H899.73V180.5ZM913.782 179.184C912.687 182.469 911.081 185.356 908.967 187.854L910.494 189.146C912.78 186.444 914.508 183.331 915.679 179.816L913.782 179.184ZM908.983 187.836C903.864 193.595 896.983 196.5 888.23 196.5V198.5C897.478 198.5 904.931 195.405 910.478 189.164L908.983 187.836ZM888.23 196.5C880.747 196.5 874.467 193.994 869.329 188.984L867.932 190.416C873.46 195.806 880.247 198.5 888.23 198.5V196.5ZM875.73 166H900.23V164H875.73V166ZM901.211 164.804C900.63 161.899 899.134 159.465 896.764 157.526L895.497 159.074C897.527 160.735 898.764 162.767 899.25 165.196L901.211 164.804ZM896.789 157.547C894.454 155.504 891.579 154.5 888.23 154.5V156.5C891.149 156.5 893.541 157.363 895.472 159.053L896.789 157.547ZM888.23 154.5C884.891 154.5 881.994 155.465 879.597 157.426L880.864 158.974C882.866 157.335 885.303 156.5 888.23 156.5V154.5ZM879.597 157.426C877.241 159.354 875.627 161.793 874.771 164.719L876.69 165.281C877.434 162.741 878.82 160.646 880.864 158.974L879.597 157.426ZM923.691 196H922.691V197H923.691V196ZM923.691 145V144H922.691V145H923.691ZM937.691 145H938.691V144H937.691V145ZM937.691 164H936.691V165H937.691V164ZM959.191 164V165H960.191V164H959.191ZM959.191 145V144H958.191V145H959.191ZM973.191 145H974.191V144H973.191V145ZM973.191 196V197H974.191V196H973.191ZM959.191 196H958.191V197H959.191V196ZM959.191 176H960.191V175H959.191V176ZM937.691 176V175H936.691V176H937.691ZM937.691 196V197H938.691V196H937.691ZM924.691 196V145H922.691V196H924.691ZM923.691 146H937.691V144H923.691V146ZM936.691 145V164H938.691V145H936.691ZM937.691 165H959.191V163H937.691V165ZM960.191 164V145H958.191V164H960.191ZM959.191 146H973.191V144H959.191V146ZM972.191 145V196H974.191V145H972.191ZM973.191 195H959.191V197H973.191V195ZM960.191 196V176H958.191V196H960.191ZM959.191 175H937.691V177H959.191V175ZM936.691 176V196H938.691V176H936.691ZM937.691 195H923.691V197H937.691V195ZM984.238 196H983.238V197H984.238V196ZM984.238 145V144H983.238V145H984.238ZM998.238 145H999.238V144H998.238V145ZM998.238 167L999.237 167.055L999.238 167.028V167H998.238ZM997.738 176L996.74 175.945L996.681 177H997.738V176ZM998.738 176V177H999.276L999.572 176.552L998.738 176ZM1019.24 145V144H1018.7L1018.4 144.448L1019.24 145ZM1034.24 145H1035.24V144H1034.24V145ZM1034.24 196V197H1035.24V196H1034.24ZM1020.24 196H1019.24V197H1020.24V196ZM1020.24 174L1019.24 173.945L1019.24 173.972V174H1020.24ZM1020.74 165L1021.74 165.055L1021.8 164H1020.74V165ZM1019.74 165V164H1019.2L1018.9 164.448L1019.74 165ZM999.238 196V197H999.776L1000.07 196.552L999.238 196ZM985.238 196V145H983.238V196H985.238ZM984.238 146H998.238V144H984.238V146ZM997.238 145V167H999.238V145H997.238ZM997.24 166.945L996.74 175.945L998.737 176.055L999.237 167.055L997.24 166.945ZM997.738 177H998.738V175H997.738V177ZM999.572 176.552L1020.07 145.552L1018.4 144.448L997.904 175.448L999.572 176.552ZM1019.24 146H1034.24V144H1019.24V146ZM1033.24 145V196H1035.24V145H1033.24ZM1034.24 195H1020.24V197H1034.24V195ZM1021.24 196V174H1019.24V196H1021.24ZM1021.24 174.055L1021.74 165.055L1019.74 164.945L1019.24 173.945L1021.24 174.055ZM1020.74 164H1019.74V166H1020.74V164ZM1018.9 164.448L998.404 195.448L1000.07 196.552L1020.57 165.552L1018.9 164.448ZM999.238 195H984.238V197H999.238V195ZM1042.77 196L1041.9 195.506L1041.06 197H1042.77V196ZM1053.27 177.5L1054.14 177.994L1054.67 177.062L1053.71 176.598L1053.27 177.5ZM1048.77 174.3L1048.07 175.007L1048.07 175.007L1048.77 174.3ZM1049.67 149.9L1049.01 149.153L1049 149.159L1049.67 149.9ZM1090.27 145H1091.27V144H1090.27V145ZM1090.27 196V197H1091.27V196H1090.27ZM1076.27 196H1075.27V197H1076.27V196ZM1076.27 180.5H1077.27V179.5H1076.27V180.5ZM1066.27 180.5V179.5H1065.66L1065.38 180.041L1066.27 180.5ZM1058.27 196V197H1058.88L1059.16 196.459L1058.27 196ZM1060.67 167.3L1060.01 168.045L1060.01 168.045L1060.67 167.3ZM1076.27 169V170H1077.27V169H1076.27ZM1076.27 157H1077.27V156H1076.27V157ZM1060.67 158.6L1061.29 159.385L1061.3 159.381L1060.67 158.6ZM1043.64 196.494L1054.14 177.994L1052.4 177.006L1041.9 195.506L1043.64 196.494ZM1053.71 176.598C1052.14 175.848 1050.74 174.848 1049.48 173.593L1048.07 175.007C1049.48 176.419 1051.07 177.552 1052.84 178.402L1053.71 176.598ZM1049.48 173.593C1046.7 170.808 1045.27 167.144 1045.27 162.5H1043.27C1043.27 167.59 1044.85 171.792 1048.07 175.007L1049.48 173.593ZM1045.27 162.5C1045.27 157.631 1046.97 153.706 1050.35 150.641L1049 149.159C1045.18 152.627 1043.27 157.102 1043.27 162.5H1045.27ZM1050.34 150.647C1053.77 147.588 1058.54 146 1064.77 146V144C1058.2 144 1052.91 145.679 1049.01 149.153L1050.34 150.647ZM1064.77 146H1090.27V144H1064.77V146ZM1089.27 145V196H1091.27V145H1089.27ZM1090.27 195H1076.27V197H1090.27V195ZM1077.27 196V180.5H1075.27V196H1077.27ZM1076.27 179.5H1066.27V181.5H1076.27V179.5ZM1065.38 180.041L1057.38 195.541L1059.16 196.459L1067.16 180.959L1065.38 180.041ZM1058.27 195H1042.77V197H1058.27V195ZM1057.77 162.5C1057.77 164.785 1058.48 166.682 1060.01 168.045L1061.34 166.555C1060.33 165.651 1059.77 164.349 1059.77 162.5H1057.77ZM1060.01 168.045C1061.52 169.399 1063.63 170 1066.17 170V168C1063.92 168 1062.36 167.467 1061.34 166.555L1060.01 168.045ZM1066.17 170H1076.27V168H1066.17V170ZM1077.27 169V157H1075.27V169H1077.27ZM1076.27 156H1066.17V158H1076.27V156ZM1066.17 156C1063.7 156 1061.61 156.566 1060.05 157.819L1061.3 159.381C1062.4 158.5 1063.98 158 1066.17 158V156ZM1060.05 157.815C1058.55 159.003 1057.77 160.591 1057.77 162.5H1059.77C1059.77 161.209 1060.26 160.197 1061.29 159.385L1060.05 157.815Z" fill="#262B37"/>
<path d="M24.9648 89V19H85.9648V89H70.9648V33H39.9648V89H24.9648ZM92.4883 89L105.988 38H132.988L146.488 89H132.488L121.988 50H116.988L106.488 89H92.4883ZM156.192 83.1C151.726 78.1 149.492 71.5667 149.492 63.5C149.492 55.4333 151.726 48.9333 156.192 44C160.726 39 166.326 36.5 172.992 36.5C177.459 36.5 181.492 37.8333 185.092 40.5C186.626 41.7667 187.926 43.1 188.992 44.5H189.492V38H203.492V89H189.492V82.5H188.992C187.926 83.9 186.626 85.2333 185.092 86.5C181.492 89.1667 177.459 90.5 172.992 90.5C166.326 90.5 160.726 88.0333 156.192 83.1ZM167.492 52.5C165.159 55.1667 163.992 58.8333 163.992 63.5C163.992 68.1667 165.159 71.8333 167.492 74.5C169.826 77.1667 172.826 78.5 176.492 78.5C180.359 78.5 183.492 77.2 185.892 74.6C188.292 71.9333 189.492 68.2333 189.492 63.5C189.492 58.7667 188.292 55.1 185.892 52.5C183.492 49.8333 180.359 48.5 176.492 48.5C172.826 48.5 169.826 49.8333 167.492 52.5ZM209.492 50V38H257.492V50H240.492V89H226.492V50H209.492ZM268.116 81.6C263.049 76.5333 260.516 70.5 260.516 63.5C260.516 56.5 263.049 50.4667 268.116 45.4C273.249 40.3333 279.549 37.5333 287.016 37V19H301.016V37C308.482 37.5333 314.749 40.3333 319.816 45.4C324.949 50.4667 327.516 56.5 327.516 63.5C327.516 70.5 324.949 76.5333 319.816 81.6C314.749 86.6667 308.482 89.4667 301.016 90V107.8H287.016V90C279.549 89.4667 273.249 86.6667 268.116 81.6ZM301.016 49V78C304.682 77.4 307.582 75.8667 309.716 73.4C311.916 70.9333 313.016 67.6333 313.016 63.5C313.016 59.3667 311.916 56.0667 309.716 53.6C307.582 51.1333 304.682 49.6 301.016 49ZM278.216 53.6C276.082 56.0667 275.016 59.3667 275.016 63.5C275.016 67.6333 276.082 70.9333 278.216 73.4C280.416 75.8667 283.349 77.4 287.016 78V49C283.349 49.6 280.416 51.1333 278.216 53.6ZM340.488 82.7C335.155 77.4333 332.488 71.0333 332.488 63.5C332.488 55.9667 335.155 49.6 340.488 44.4C345.822 39.1333 352.488 36.5 360.488 36.5C368.422 36.5 375.055 39.1333 380.388 44.4C385.788 49.6 388.488 55.9667 388.488 63.5C388.488 71.0333 385.788 77.4333 380.388 82.7C375.055 87.9 368.422 90.5 360.488 90.5C352.488 90.5 345.822 87.9 340.488 82.7ZM350.888 52.7C348.288 55.5 346.988 59.1 346.988 63.5C346.988 67.9 348.288 71.5 350.888 74.3C353.488 77.1 356.688 78.5 360.488 78.5C364.288 78.5 367.488 77.1 370.088 74.3C372.688 71.5 373.988 67.9 373.988 63.5C373.988 59.1 372.688 55.5 370.088 52.7C367.488 49.9 364.288 48.5 360.488 48.5C356.688 48.5 353.488 49.9 350.888 52.7ZM396.523 108V38H410.523V44.5H411.023C412.09 43.1 413.39 41.7667 414.923 40.5C418.523 37.8333 422.557 36.5 427.023 36.5C433.69 36.5 439.257 39 443.723 44C448.257 48.9333 450.523 55.4333 450.523 63.5C450.523 71.5667 448.257 78.1 443.723 83.1C439.257 88.0333 433.69 90.5 427.023 90.5C422.557 90.5 418.523 89.1667 414.923 86.5C413.39 85.2333 412.09 83.9 411.023 82.5H410.523V108H396.523ZM414.123 52.5C411.723 55.1 410.523 58.7667 410.523 63.5C410.523 68.2333 411.723 71.9333 414.123 74.6C416.523 77.2 419.657 78.5 423.523 78.5C427.19 78.5 430.19 77.1667 432.523 74.5C434.857 71.8333 436.023 68.1667 436.023 63.5C436.023 58.8333 434.857 55.1667 432.523 52.5C430.19 49.8333 427.19 48.5 423.523 48.5C419.657 48.5 416.523 49.8333 414.123 52.5ZM459.023 89V38H478.023L490.023 65.5H491.523L503.523 38H522.523V89H508.523V63.5L509.023 54.5H508.523L497.523 79.5H484.023L473.023 54.5H472.523L473.023 63.5V89H459.023ZM537.735 83.1C533.268 78.1 531.035 71.5667 531.035 63.5C531.035 55.4333 533.268 48.9333 537.735 44C542.268 39 547.868 36.5 554.535 36.5C559.002 36.5 563.035 37.8333 566.635 40.5C568.168 41.7667 569.468 43.1 570.535 44.5H571.035V38H585.035V89H571.035V82.5H570.535C569.468 83.9 568.168 85.2333 566.635 86.5C563.035 89.1667 559.002 90.5 554.535 90.5C547.868 90.5 542.268 88.0333 537.735 83.1ZM549.035 52.5C546.702 55.1667 545.535 58.8333 545.535 63.5C545.535 68.1667 546.702 71.8333 549.035 74.5C551.368 77.1667 554.368 78.5 558.035 78.5C561.902 78.5 565.035 77.2 567.435 74.6C569.835 71.9333 571.035 68.2333 571.035 63.5C571.035 58.7667 569.835 55.1 567.435 52.5C565.035 49.8333 561.902 48.5 558.035 48.5C554.368 48.5 551.368 49.8333 549.035 52.5Z" fill="#262B37"/>
<path d="M24.9648 89H23.9648V90H24.9648V89ZM24.9648 19V18H23.9648V19H24.9648ZM85.9648 19H86.9648V18H85.9648V19ZM85.9648 89V90H86.9648V89H85.9648ZM70.9648 89H69.9648V90H70.9648V89ZM70.9648 33H71.9648V32H70.9648V33ZM39.9648 33V32H38.9648V33H39.9648ZM39.9648 89V90H40.9648V89H39.9648ZM25.9648 89V19H23.9648V89H25.9648ZM24.9648 20H85.9648V18H24.9648V20ZM84.9648 19V89H86.9648V19H84.9648ZM85.9648 88H70.9648V90H85.9648V88ZM71.9648 89V33H69.9648V89H71.9648ZM70.9648 32H39.9648V34H70.9648V32ZM38.9648 33V89H40.9648V33H38.9648ZM39.9648 88H24.9648V90H39.9648V88ZM92.4883 89L91.5216 88.7441L91.1891 90H92.4883V89ZM105.988 38V37H105.219L105.022 37.7441L105.988 38ZM132.988 38L133.955 37.7441L133.758 37H132.988V38ZM146.488 89V90H147.787L147.455 88.7441L146.488 89ZM132.488 89L131.523 89.26L131.722 90H132.488V89ZM121.988 50L122.954 49.74L122.755 49H121.988V50ZM116.988 50V49H116.222L116.023 49.74L116.988 50ZM106.488 89V90H107.255L107.454 89.26L106.488 89ZM93.455 89.2559L106.955 38.2559L105.022 37.7441L91.5216 88.7441L93.455 89.2559ZM105.988 39H132.988V37H105.988V39ZM132.022 38.2559L145.522 89.2559L147.455 88.7441L133.955 37.7441L132.022 38.2559ZM146.488 88H132.488V90H146.488V88ZM133.454 88.74L122.954 49.74L121.023 50.26L131.523 89.26L133.454 88.74ZM121.988 49H116.988V51H121.988V49ZM116.023 49.74L105.523 88.74L107.454 89.26L117.954 50.26L116.023 49.74ZM106.488 88H92.4883V90H106.488V88ZM156.192 83.1L155.446 83.7663L155.456 83.7766L156.192 83.1ZM156.192 44L155.451 43.3283L155.451 43.3288L156.192 44ZM185.092 40.5L185.729 39.729L185.709 39.7122L185.687 39.6964L185.092 40.5ZM188.992 44.5L188.197 45.106L188.497 45.5H188.992V44.5ZM189.492 44.5V45.5H190.492V44.5H189.492ZM189.492 38V37H188.492V38H189.492ZM203.492 38H204.492V37H203.492V38ZM203.492 89V90H204.492V89H203.492ZM189.492 89H188.492V90H189.492V89ZM189.492 82.5H190.492V81.5H189.492V82.5ZM188.992 82.5V81.5H188.497L188.197 81.894L188.992 82.5ZM185.092 86.5L185.687 87.3036L185.709 87.2878L185.729 87.271L185.092 86.5ZM167.492 52.5L168.245 53.1585L168.245 53.1585L167.492 52.5ZM167.492 74.5L168.245 73.8415L168.245 73.8415L167.492 74.5ZM185.892 74.6L186.627 75.2783L186.635 75.269L185.892 74.6ZM185.892 52.5L185.149 53.169L185.157 53.1783L185.892 52.5ZM156.938 82.4338C152.667 77.6528 150.492 71.3734 150.492 63.5H148.492C148.492 71.7599 150.784 78.5472 155.446 83.7662L156.938 82.4338ZM150.492 63.5C150.492 55.6261 152.667 49.3834 156.933 44.6712L155.451 43.3288C150.784 48.4833 148.492 55.2406 148.492 63.5H150.492ZM156.933 44.6717C161.279 39.8778 166.612 37.5 172.992 37.5V35.5C166.039 35.5 160.172 38.1222 155.451 43.3283L156.933 44.6717ZM172.992 37.5C177.244 37.5 181.069 38.7641 184.497 41.3036L185.687 39.6964C181.916 36.9026 177.674 35.5 172.992 35.5V37.5ZM184.455 41.271C185.937 42.4951 187.182 43.7742 188.197 45.106L189.788 43.894C188.669 42.4258 187.314 41.0382 185.729 39.729L184.455 41.271ZM188.992 45.5H189.492V43.5H188.992V45.5ZM190.492 44.5V38H188.492V44.5H190.492ZM189.492 39H203.492V37H189.492V39ZM202.492 38V89H204.492V38H202.492ZM203.492 88H189.492V90H203.492V88ZM190.492 89V82.5H188.492V89H190.492ZM189.492 81.5H188.992V83.5H189.492V81.5ZM188.197 81.894C187.182 83.2258 185.937 84.5049 184.455 85.729L185.729 87.271C187.314 85.9618 188.669 84.5742 189.788 83.106L188.197 81.894ZM184.497 85.6964C181.069 88.2359 177.244 89.5 172.992 89.5V91.5C177.674 91.5 181.916 90.0974 185.687 87.3036L184.497 85.6964ZM172.992 89.5C166.607 89.5 161.274 87.1518 156.929 82.4234L155.456 83.7766C160.177 88.9149 166.044 91.5 172.992 91.5V89.5ZM166.74 51.8415C164.202 54.7417 162.992 58.6692 162.992 63.5H164.992C164.992 58.9974 166.116 55.5916 168.245 53.1585L166.74 51.8415ZM162.992 63.5C162.992 68.3308 164.202 72.2583 166.74 75.1585L168.245 73.8415C166.116 71.4084 164.992 68.0026 164.992 63.5H162.992ZM166.74 75.1585C169.27 78.0507 172.549 79.5 176.492 79.5V77.5C173.102 77.5 170.381 76.2827 168.245 73.8415L166.74 75.1585ZM176.492 79.5C180.609 79.5 184.019 78.1037 186.627 75.2783L185.157 73.9217C182.965 76.2963 180.109 77.5 176.492 77.5V79.5ZM186.635 75.269C189.248 72.3665 190.492 68.3998 190.492 63.5H188.492C188.492 68.0668 187.337 71.5001 185.149 73.931L186.635 75.269ZM190.492 63.5C190.492 58.6018 189.248 54.6615 186.627 51.8217L185.157 53.1783C187.336 55.5385 188.492 58.9315 188.492 63.5H190.492ZM186.635 51.831C184.03 48.9359 180.618 47.5 176.492 47.5V49.5C180.1 49.5 182.955 50.7308 185.149 53.169L186.635 51.831ZM176.492 47.5C172.549 47.5 169.27 48.9493 166.74 51.8415L168.245 53.1585C170.381 50.7173 173.102 49.5 176.492 49.5V47.5ZM209.492 50H208.492V51H209.492V50ZM209.492 38V37H208.492V38H209.492ZM257.492 38H258.492V37H257.492V38ZM257.492 50V51H258.492V50H257.492ZM240.492 50V49H239.492V50H240.492ZM240.492 89V90H241.492V89H240.492ZM226.492 89H225.492V90H226.492V89ZM226.492 50H227.492V49H226.492V50ZM210.492 50V38H208.492V50H210.492ZM209.492 39H257.492V37H209.492V39ZM256.492 38V50H258.492V38H256.492ZM257.492 49H240.492V51H257.492V49ZM239.492 50V89H241.492V50H239.492ZM240.492 88H226.492V90H240.492V88ZM227.492 89V50H225.492V89H227.492ZM226.492 49H209.492V51H226.492V49ZM268.116 81.6L267.409 82.3071L267.413 82.3117L268.116 81.6ZM268.116 45.4L267.413 44.6883L267.409 44.6929L268.116 45.4ZM287.016 37L287.087 37.9975L288.016 37.9311V37H287.016ZM287.016 19V18H286.016V19H287.016ZM301.016 19H302.016V18H301.016V19ZM301.016 37H300.016V37.9311L300.944 37.9975L301.016 37ZM319.816 45.4L319.109 46.1071L319.113 46.1117L319.816 45.4ZM319.816 81.6L319.113 80.8883L319.109 80.8929L319.816 81.6ZM301.016 90L300.944 89.0025L300.016 89.0689V90H301.016ZM301.016 107.8V108.8H302.016V107.8H301.016ZM287.016 107.8H286.016V108.8H287.016V107.8ZM287.016 90H288.016V89.0689L287.087 89.0025L287.016 90ZM301.016 49L301.177 48.0131L300.016 47.8231V49H301.016ZM301.016 78H300.016V79.1769L301.177 78.9869L301.016 78ZM309.716 73.4L308.969 72.7344L308.964 72.7401L308.959 72.7458L309.716 73.4ZM309.716 53.6L308.959 54.2542L308.964 54.2599L308.969 54.2656L309.716 53.6ZM278.216 53.6L277.469 52.9344L277.464 52.9401L277.459 52.9458L278.216 53.6ZM278.216 73.4L277.459 74.0542L277.464 74.0599L277.469 74.0656L278.216 73.4ZM287.016 78L286.854 78.9869L288.016 79.1769V78H287.016ZM287.016 49H288.016V47.8231L286.854 48.0131L287.016 49ZM268.823 80.8929C263.939 76.0088 261.516 70.2278 261.516 63.5H259.516C259.516 70.7722 262.159 77.0579 267.409 82.3071L268.823 80.8929ZM261.516 63.5C261.516 56.7722 263.939 50.9912 268.823 46.1071L267.409 44.6929C262.159 49.9421 259.516 56.2278 259.516 63.5H261.516ZM268.818 46.1117C273.775 41.2193 279.848 38.5145 287.087 37.9975L286.944 36.0025C279.25 36.5522 272.723 39.4474 267.413 44.6883L268.818 46.1117ZM288.016 37V19H286.016V37H288.016ZM287.016 20H301.016V18H287.016V20ZM300.016 19V37H302.016V19H300.016ZM300.944 37.9975C308.183 38.5145 314.22 41.2187 319.109 46.1071L320.523 44.6929C315.278 39.448 308.782 36.5522 301.087 36.0025L300.944 37.9975ZM319.113 46.1117C324.063 50.9969 326.516 56.7765 326.516 63.5H328.516C328.516 56.2235 325.835 49.9365 320.518 44.6883L319.113 46.1117ZM326.516 63.5C326.516 70.2235 324.063 76.0031 319.113 80.8883L320.518 82.3117C325.835 77.0635 328.516 70.7765 328.516 63.5H326.516ZM319.109 80.8929C314.22 85.7813 308.183 88.4855 300.944 89.0025L301.087 90.9975C308.782 90.4478 315.278 87.552 320.523 82.3071L319.109 80.8929ZM300.016 90V107.8H302.016V90H300.016ZM301.016 106.8H287.016V108.8H301.016V106.8ZM288.016 107.8V90H286.016V107.8H288.016ZM287.087 89.0025C279.848 88.4855 273.775 85.7807 268.818 80.8883L267.413 82.3117C272.723 87.5526 279.25 90.4478 286.944 90.9975L287.087 89.0025ZM300.016 49V78H302.016V49H300.016ZM301.177 78.9869C305.041 78.3546 308.164 76.7225 310.472 74.0542L308.959 72.7458C307 75.0109 304.324 76.4454 300.854 77.0131L301.177 78.9869ZM310.462 74.0656C312.863 71.3731 314.016 67.815 314.016 63.5H312.016C312.016 67.4517 310.968 70.4936 308.969 72.7344L310.462 74.0656ZM314.016 63.5C314.016 59.185 312.863 55.6269 310.462 52.9344L308.969 54.2656C310.968 56.5064 312.016 59.5483 312.016 63.5H314.016ZM310.472 52.9458C308.164 50.2775 305.041 48.6454 301.177 48.0131L300.854 49.9869C304.324 50.5546 307 51.9891 308.959 54.2542L310.472 52.9458ZM277.459 52.9458C275.13 55.6387 274.016 59.1925 274.016 63.5H276.016C276.016 59.5408 277.034 56.4947 278.972 54.2542L277.459 52.9458ZM274.016 63.5C274.016 67.8075 275.13 71.3613 277.459 74.0542L278.972 72.7458C277.034 70.5053 276.016 67.4592 276.016 63.5H274.016ZM277.469 74.0656C279.841 76.7243 282.991 78.3548 286.854 78.9869L287.177 77.0131C283.707 76.4452 280.991 75.009 278.962 72.7344L277.469 74.0656ZM288.016 78V49H286.016V78H288.016ZM286.854 48.0131C282.991 48.6452 279.841 50.2757 277.469 52.9344L278.962 54.2656C280.991 51.991 283.707 50.5548 287.177 49.9869L286.854 48.0131ZM340.488 82.7L339.786 83.4116L339.79 83.416L340.488 82.7ZM340.488 44.4L341.186 45.116L341.191 45.1115L340.488 44.4ZM380.388 44.4L379.686 45.1116L379.695 45.1203L380.388 44.4ZM380.388 82.7L381.086 83.416L381.086 83.4159L380.388 82.7ZM350.888 52.7L351.621 53.3805L351.621 53.3805L350.888 52.7ZM350.888 74.3L350.155 74.9805L350.155 74.9805L350.888 74.3ZM370.088 74.3L370.821 74.9805L370.821 74.9805L370.088 74.3ZM370.088 52.7L369.355 53.3805L369.355 53.3805L370.088 52.7ZM341.191 81.9885C336.049 76.9107 333.488 70.7675 333.488 63.5H331.488C331.488 71.2992 334.261 77.9559 339.786 83.4115L341.191 81.9885ZM333.488 63.5C333.488 56.2328 336.049 50.1254 341.186 45.116L339.79 43.684C334.261 49.0746 331.488 55.7005 331.488 63.5H333.488ZM341.191 45.1115C346.324 40.043 352.732 37.5 360.488 37.5V35.5C352.245 35.5 345.32 38.2237 339.786 43.6885L341.191 45.1115ZM360.488 37.5C368.176 37.5 374.551 40.0413 379.686 45.1115L381.091 43.6885C375.559 38.2253 368.668 35.5 360.488 35.5V37.5ZM379.695 45.1203C384.898 50.1308 387.488 56.2369 387.488 63.5H389.488C389.488 55.6964 386.679 49.0692 381.082 43.6797L379.695 45.1203ZM387.488 63.5C387.488 70.7634 384.897 76.9054 379.69 81.9841L381.086 83.4159C386.679 77.9613 389.488 71.3033 389.488 63.5H387.488ZM379.69 81.984C374.557 86.9892 368.18 89.5 360.488 89.5V91.5C368.664 91.5 375.553 88.8108 381.086 83.416L379.69 81.984ZM360.488 89.5C352.728 89.5 346.318 86.9876 341.186 81.984L339.79 83.416C345.325 88.8124 352.249 91.5 360.488 91.5V89.5ZM350.155 52.0195C347.358 55.0325 345.988 58.8886 345.988 63.5H347.988C347.988 59.3114 349.219 55.9675 351.621 53.3805L350.155 52.0195ZM345.988 63.5C345.988 68.1114 347.358 71.9675 350.155 74.9805L351.621 73.6195C349.219 71.0325 347.988 67.6886 347.988 63.5H345.988ZM350.155 74.9805C352.944 77.9829 356.408 79.5 360.488 79.5V77.5C356.968 77.5 354.033 76.2171 351.621 73.6195L350.155 74.9805ZM360.488 79.5C364.568 79.5 368.033 77.9829 370.821 74.9805L369.355 73.6195C366.944 76.2171 364.008 77.5 360.488 77.5V79.5ZM370.821 74.9805C373.619 71.9675 374.988 68.1114 374.988 63.5H372.988C372.988 67.6886 371.758 71.0325 369.355 73.6195L370.821 74.9805ZM374.988 63.5C374.988 58.8886 373.619 55.0325 370.821 52.0195L369.355 53.3805C371.758 55.9675 372.988 59.3114 372.988 63.5H374.988ZM370.821 52.0195C368.033 49.0171 364.568 47.5 360.488 47.5V49.5C364.008 49.5 366.944 50.7829 369.355 53.3805L370.821 52.0195ZM360.488 47.5C356.408 47.5 352.944 49.0171 350.155 52.0195L351.621 53.3805C354.033 50.7829 356.968 49.5 360.488 49.5V47.5ZM396.523 108H395.523V109H396.523V108ZM396.523 38V37H395.523V38H396.523ZM410.523 38H411.523V37H410.523V38ZM410.523 44.5H409.523V45.5H410.523V44.5ZM411.023 44.5V45.5H411.519L411.819 45.106L411.023 44.5ZM414.923 40.5L414.328 39.6964L414.307 39.7122L414.287 39.729L414.923 40.5ZM443.723 44L442.978 44.6663L442.987 44.6766L443.723 44ZM443.723 83.1L442.983 82.4283L442.982 82.4288L443.723 83.1ZM414.923 86.5L414.287 87.271L414.307 87.2878L414.328 87.3036L414.923 86.5ZM411.023 82.5L411.819 81.894L411.519 81.5H411.023V82.5ZM410.523 82.5V81.5H409.523V82.5H410.523ZM410.523 108V109H411.523V108H410.523ZM414.123 52.5L414.858 53.1783L414.867 53.169L414.123 52.5ZM414.123 74.6L413.38 75.269L413.389 75.2783L414.123 74.6ZM432.523 74.5L431.771 73.8415L431.771 73.8415L432.523 74.5ZM432.523 52.5L431.771 53.1585L431.771 53.1585L432.523 52.5ZM397.523 108V38H395.523V108H397.523ZM396.523 39H410.523V37H396.523V39ZM409.523 38V44.5H411.523V38H409.523ZM410.523 45.5H411.023V43.5H410.523V45.5ZM411.819 45.106C412.834 43.7742 414.078 42.4951 415.56 41.271L414.287 39.729C412.702 41.0382 411.347 42.4258 410.228 43.894L411.819 45.106ZM415.519 41.3036C418.947 38.7641 422.772 37.5 427.023 37.5V35.5C422.342 35.5 418.1 36.9026 414.328 39.6964L415.519 41.3036ZM427.023 37.5C433.403 37.5 438.699 39.8772 442.978 44.6662L444.469 43.3338C439.814 38.1228 433.977 35.5 427.023 35.5V37.5ZM442.987 44.6766C447.318 49.3892 449.523 55.63 449.523 63.5H451.523C451.523 55.2367 449.196 48.4775 444.46 43.3234L442.987 44.6766ZM449.523 63.5C449.523 71.3695 447.318 77.647 442.983 82.4283L444.464 83.7717C449.196 78.553 451.523 71.7638 451.523 63.5H449.523ZM442.982 82.4288C438.705 87.1524 433.408 89.5 427.023 89.5V91.5C433.972 91.5 439.808 88.9143 444.465 83.7712L442.982 82.4288ZM427.023 89.5C422.772 89.5 418.947 88.2359 415.519 85.6964L414.328 87.3036C418.1 90.0974 422.342 91.5 427.023 91.5V89.5ZM415.56 85.729C414.078 84.5049 412.834 83.2258 411.819 81.894L410.228 83.106C411.347 84.5742 412.702 85.9618 414.287 87.271L415.56 85.729ZM411.023 81.5H410.523V83.5H411.023V81.5ZM409.523 82.5V108H411.523V82.5H409.523ZM410.523 107H396.523V109H410.523V107ZM413.389 51.8217C410.767 54.6615 409.523 58.6018 409.523 63.5H411.523C411.523 58.9315 412.68 55.5385 414.858 53.1783L413.389 51.8217ZM409.523 63.5C409.523 68.3998 410.768 72.3665 413.38 75.269L414.867 73.931C412.679 71.5001 411.523 68.0668 411.523 63.5H409.523ZM413.389 75.2783C415.997 78.1037 419.407 79.5 423.523 79.5V77.5C419.907 77.5 417.05 76.2963 414.858 73.9217L413.389 75.2783ZM423.523 79.5C427.467 79.5 430.745 78.0507 433.276 75.1585L431.771 73.8415C429.635 76.2827 426.913 77.5 423.523 77.5V79.5ZM433.276 75.1585C435.814 72.2583 437.023 68.3308 437.023 63.5H435.023C435.023 68.0026 433.9 71.4084 431.771 73.8415L433.276 75.1585ZM437.023 63.5C437.023 58.6692 435.814 54.7417 433.276 51.8415L431.771 53.1585C433.9 55.5916 435.023 58.9974 435.023 63.5H437.023ZM433.276 51.8415C430.745 48.9493 427.467 47.5 423.523 47.5V49.5C426.913 49.5 429.635 50.7173 431.771 53.1585L433.276 51.8415ZM423.523 47.5C419.398 47.5 415.986 48.9359 413.38 51.831L414.867 53.169C417.061 50.7308 419.915 49.5 423.523 49.5V47.5ZM459.023 89H458.023V90H459.023V89ZM459.023 38V37H458.023V38H459.023ZM478.023 38L478.94 37.6001L478.678 37H478.023V38ZM490.023 65.5L489.107 65.8999L489.369 66.5H490.023V65.5ZM491.523 65.5V66.5H492.178L492.44 65.8999L491.523 65.5ZM503.523 38V37H502.869L502.607 37.6001L503.523 38ZM522.523 38H523.523V37H522.523V38ZM522.523 89V90H523.523V89H522.523ZM508.523 89H507.523V90H508.523V89ZM508.523 63.5L507.525 63.4445L507.523 63.4722V63.5H508.523ZM509.023 54.5L510.022 54.5555L510.081 53.5H509.023V54.5ZM508.523 54.5V53.5H507.871L507.608 54.0973L508.523 54.5ZM497.523 79.5V80.5H498.176L498.439 79.9027L497.523 79.5ZM484.023 79.5L483.108 79.9027L483.371 80.5H484.023V79.5ZM473.023 54.5L473.939 54.0973L473.676 53.5H473.023V54.5ZM472.523 54.5V53.5H471.466L471.525 54.5555L472.523 54.5ZM473.023 63.5H474.023V63.4722L474.022 63.4445L473.023 63.5ZM473.023 89V90H474.023V89H473.023ZM460.023 89V38H458.023V89H460.023ZM459.023 39H478.023V37H459.023V39ZM477.107 38.3999L489.107 65.8999L490.94 65.1001L478.94 37.6001L477.107 38.3999ZM490.023 66.5H491.523V64.5H490.023V66.5ZM492.44 65.8999L504.44 38.3999L502.607 37.6001L490.607 65.1001L492.44 65.8999ZM503.523 39H522.523V37H503.523V39ZM521.523 38V89H523.523V38H521.523ZM522.523 88H508.523V90H522.523V88ZM509.523 89V63.5H507.523V89H509.523ZM509.522 63.5555L510.022 54.5555L508.025 54.4445L507.525 63.4445L509.522 63.5555ZM509.023 53.5H508.523V55.5H509.023V53.5ZM507.608 54.0973L496.608 79.0973L498.439 79.9027L509.439 54.9027L507.608 54.0973ZM497.523 78.5H484.023V80.5H497.523V78.5ZM484.939 79.0973L473.939 54.0973L472.108 54.9027L483.108 79.9027L484.939 79.0973ZM473.023 53.5H472.523V55.5H473.023V53.5ZM471.525 54.5555L472.025 63.5555L474.022 63.4445L473.522 54.4445L471.525 54.5555ZM472.023 63.5V89H474.023V63.5H472.023ZM473.023 88H459.023V90H473.023V88ZM537.735 83.1L536.989 83.7663L536.999 83.7766L537.735 83.1ZM537.735 44L536.994 43.3283L536.994 43.3288L537.735 44ZM566.635 40.5L567.272 39.729L567.252 39.7122L567.23 39.6964L566.635 40.5ZM570.535 44.5L569.74 45.106L570.04 45.5H570.535V44.5ZM571.035 44.5V45.5H572.035V44.5H571.035ZM571.035 38V37H570.035V38H571.035ZM585.035 38H586.035V37H585.035V38ZM585.035 89V90H586.035V89H585.035ZM571.035 89H570.035V90H571.035V89ZM571.035 82.5H572.035V81.5H571.035V82.5ZM570.535 82.5V81.5H570.04L569.74 81.894L570.535 82.5ZM566.635 86.5L567.23 87.3036L567.252 87.2878L567.272 87.271L566.635 86.5ZM549.035 52.5L549.788 53.1585L549.788 53.1585L549.035 52.5ZM549.035 74.5L549.788 73.8415L549.788 73.8415L549.035 74.5ZM567.435 74.6L568.17 75.2783L568.178 75.269L567.435 74.6ZM567.435 52.5L566.692 53.169L566.7 53.1783L567.435 52.5ZM538.481 82.4338C534.21 77.6528 532.035 71.3734 532.035 63.5H530.035C530.035 71.7599 532.327 78.5472 536.989 83.7662L538.481 82.4338ZM532.035 63.5C532.035 55.6261 534.21 49.3834 538.476 44.6712L536.994 43.3288C532.327 48.4833 530.035 55.2406 530.035 63.5H532.035ZM538.476 44.6717C542.822 39.8778 548.155 37.5 554.535 37.5V35.5C547.582 35.5 541.715 38.1222 536.994 43.3283L538.476 44.6717ZM554.535 37.5C558.787 37.5 562.612 38.7641 566.04 41.3036L567.23 39.6964C563.459 36.9026 559.217 35.5 554.535 35.5V37.5ZM565.998 41.271C567.48 42.4951 568.725 43.7742 569.74 45.106L571.331 43.894C570.212 42.4258 568.857 41.0382 567.272 39.729L565.998 41.271ZM570.535 45.5H571.035V43.5H570.535V45.5ZM572.035 44.5V38H570.035V44.5H572.035ZM571.035 39H585.035V37H571.035V39ZM584.035 38V89H586.035V38H584.035ZM585.035 88H571.035V90H585.035V88ZM572.035 89V82.5H570.035V89H572.035ZM571.035 81.5H570.535V83.5H571.035V81.5ZM569.74 81.894C568.725 83.2258 567.48 84.5049 565.998 85.729L567.272 87.271C568.857 85.9618 570.212 84.5742 571.331 83.106L569.74 81.894ZM566.04 85.6964C562.612 88.2359 558.787 89.5 554.535 89.5V91.5C559.217 91.5 563.459 90.0974 567.23 87.3036L566.04 85.6964ZM554.535 89.5C548.15 89.5 542.817 87.1518 538.471 82.4234L536.999 83.7766C541.72 88.9149 547.587 91.5 554.535 91.5V89.5ZM548.283 51.8415C545.745 54.7417 544.535 58.6692 544.535 63.5H546.535C546.535 58.9974 547.659 55.5916 549.788 53.1585L548.283 51.8415ZM544.535 63.5C544.535 68.3308 545.745 72.2583 548.283 75.1585L549.788 73.8415C547.659 71.4084 546.535 68.0026 546.535 63.5H544.535ZM548.283 75.1585C550.813 78.0507 554.092 79.5 558.035 79.5V77.5C554.645 77.5 551.924 76.2827 549.788 73.8415L548.283 75.1585ZM558.035 79.5C562.152 79.5 565.562 78.1037 568.17 75.2783L566.7 73.9217C564.508 76.2963 561.652 77.5 558.035 77.5V79.5ZM568.178 75.269C570.791 72.3665 572.035 68.3998 572.035 63.5H570.035C570.035 68.0668 568.88 71.5001 566.692 73.931L568.178 75.269ZM572.035 63.5C572.035 58.6018 570.791 54.6615 568.17 51.8217L566.7 53.1783C568.879 55.5385 570.035 58.9315 570.035 63.5H572.035ZM568.178 51.831C565.573 48.9359 562.161 47.5 558.035 47.5V49.5C561.643 49.5 564.497 50.7308 566.692 53.169L568.178 51.831ZM558.035 47.5C554.092 47.5 550.813 48.9493 548.283 51.8415L549.788 53.1585C551.924 50.7173 554.645 49.5 558.035 49.5V47.5Z" fill="white"/>
</svg>
