<svg width="233" height="74" viewBox="0 0 233 74" fill="none" xmlns="http://www.w3.org/2000/svg">
<path d="M4 19.0566L4.35817 19.4482L4.71634 19.8395L5.0745 20.2301L5.43267 20.6196L5.79084 21.0077L6.14901 21.3941L6.50718 21.7784L6.86534 22.1602L7.22351 22.5392L7.58168 22.9151L7.93985 23.2875L8.29802 23.6561L8.65618 24.0206L9.01435 24.3806L9.37252 24.7358L9.73069 25.0859L10.0889 25.4305L10.447 25.7695L10.8052 26.1023L11.1634 26.4289L11.5215 26.7488L11.8797 27.0618L12.2379 27.3676L12.596 27.6659L12.9542 27.9565L13.3124 28.239L13.6705 28.5133L14.0287 28.7791L14.3869 29.0361L14.745 29.2842L15.1032 29.523L15.4614 29.7524L15.8195 29.9722L16.1777 30.1822L16.5359 30.3822L16.894 30.572L17.2522 30.7514L17.6104 30.9202L17.9686 31.0785L18.3267 31.2258L18.6849 31.3623L19.0431 31.4876L19.4012 31.6018L19.7594 31.7047L20.1176 31.7962L20.4757 31.8763L20.8339 31.9448L21.1921 32.0017L21.5502 32.0469L21.9084 32.0805L22.2666 32.1023L22.6247 32.1124L22.9829 32.1108L23.3411 32.0974L23.6992 32.0723L24.0574 32.0354L24.4156 31.9869L24.7737 31.9267L25.1319 31.855L25.4901 31.7717L25.8483 31.677L26.2064 31.571L26.5646 31.4536L26.9228 31.3252L27.2809 31.1856L27.6391 31.0352L27.9973 30.874L28.3554 30.7021L28.7136 30.5198L29.0718 30.3272L29.4299 30.1244L29.7881 29.9116L30.1463 29.6891L30.5044 29.457L30.8626 29.2156L31.2208 28.965L31.5789 28.7055L31.9371 28.4373L32.2953 28.1607L32.6534 27.8758L33.0116 27.5831L33.3698 27.2826L33.7279 26.9748L34.0861 26.6598L34.4443 26.338L34.8025 26.0097L35.1606 25.6751L35.5188 25.3345L35.877 24.9883L36.2351 24.6367L36.5933 24.2801L36.9515 23.9189L37.3096 23.5532L37.6678 23.1835L38.026 22.8101L38.3841 22.4333L38.7423 22.0534L39.1005 21.6709L39.4586 21.286L39.8168 20.8991L40.175 20.5106L40.5331 20.1207L40.8913 19.7299L41.2495 19.3385L41.6076 18.9468L41.9658 18.5552L42.324 18.1641L42.6821 17.7738L43.0403 17.3846L43.3985 16.997L43.7567 16.6112L44.1148 16.2275L44.473 15.8465L44.8312 15.4683L45.1893 15.0934L45.5475 14.722L45.9057 14.3545L46.2638 13.9913L46.622 13.6326L46.9802 13.2788L47.3383 12.9302L47.6965 12.5871L48.0547 12.2498L48.4128 11.9187L48.771 11.5939L49.1292 11.2759L49.4873 10.9649L49.8455 10.6612L50.2037 10.365L50.5618 10.0767L50.92 9.79644L51.2782 9.52451L51.6364 9.26116L51.9945 9.00662L52.3527 8.76113L52.7109 8.5249L53.069 8.29816L53.4272 8.08109L53.7854 7.8739L54.1435 7.67677L54.5017 7.48989L54.8599 7.31341L55.218 7.14751L55.5762 6.99232L55.9344 6.84798L56.2925 6.71464L56.6507 6.5924L57.0089 6.48137L57.367 6.38167L57.7252 6.29337L58.0834 6.21656L58.4415 6.1513L58.7997 6.09766L59.1579 6.05567L59.516 6.02539L59.8742 6.00684L60.2324 6.00003L60.5906 6.00497L60.9487 6.02165L61.3069 6.05007L61.6651 6.09019L62.0232 6.14198L62.3814 6.20539L62.7396 6.28037L63.0977 6.36684L63.4559 6.46473L63.8141 6.57396L64.1722 6.69442L64.5304 6.82601L64.8886 6.9686L65.2467 7.12207L65.6049 7.28628L65.9631 7.46108L66.3212 7.64632L66.6794 7.84183L67.0376 8.04742L67.3957 8.26293L67.7539 8.48815L68.1121 8.72288L68.4703 8.96691L68.8284 9.22002L69.1866 9.48199L69.5448 9.75257L69.9029 10.0315L70.2611 10.3186L70.6193 10.6135L70.9774 10.9161L71.3356 11.2259L71.6938 11.5428L72.0519 11.8665L72.4101 12.1966L72.7683 12.533L73.1264 12.8752L73.4846 13.2229L73.8428 13.5759L74.2009 13.9338L74.5591 14.2964L74.9173 14.6632L75.2754 15.034L75.6336 15.4084L75.9918 15.7861L76.3499 16.1667L76.7081 16.5499L77.0663 16.9354L77.4245 17.3228L77.7826 17.7117L78.1408 18.1019L78.499 18.4929L78.8571 18.8844L79.2153 19.2761L79.5735 19.6676L79.9316 20.0585L80.2898 20.4486L80.648 20.8374L81.0061 21.2245L81.3643 21.6098L81.7225 21.9927L82.0806 22.373L82.4388 22.7503L82.797 23.1243L83.1551 23.4946L83.5133 23.8609L83.8715 24.2229L84.2296 24.5803L84.5878 24.9326L84.946 25.2797L85.3041 25.6212L85.6623 25.9568L86.0205 26.2862L86.3786 26.609L86.7368 26.9251L87.095 27.2341L87.4532 27.5357L87.8113 27.8297L88.1695 28.1158L88.5277 28.3938L88.8858 28.6633L89.244 28.9242L89.6022 29.1763L89.9603 29.4192L90.3185 29.6528L90.6767 29.8768L91.0348 30.0912L91.393 30.2955L91.7512 30.4898L92.1093 30.6738L92.4675 30.8473L92.8257 31.0102L93.1838 31.1624L93.542 31.3037L93.9002 31.4339L94.2584 31.553L94.6165 31.6609L94.9747 31.7574L95.3329 31.8425L95.691 31.9161L96.0492 31.9781L96.4074 32.0285L96.7655 32.0672L97.1237 32.0942L97.4819 32.1094L97.84 32.1129L98.1982 32.1047L98.5564 32.0847L98.9145 32.053L99.2727 32.0096L99.6309 31.9546L99.989 31.8879L100.347 31.8097L100.705 31.72L101.064 31.619L101.422 31.5066L101.78 31.383L102.138 31.2483L102.496 31.1027L102.854 30.9462L103.213 30.779L103.571 30.6012L103.929 30.4131L104.287 30.2147L104.645 30.0063L105.003 29.7881L105.362 29.5602L105.72 29.3228L106.078 29.0762L106.436 28.8206L106.794 28.5562L107.152 28.2833L107.511 28.002L107.869 27.7127L108.227 27.4156L108.585 27.111L108.943 26.7991L109.301 26.4803L109.66 26.1548L110.018 25.8229L110.376 25.4849L110.734 25.1411L111.092 24.7919L111.45 24.4375L111.809 24.0782L112.167 23.7144L112.525 23.3465L112.883 22.9746L113.241 22.5993L113.599 22.2207L113.958 21.8393L114.316 21.4555L114.674 21.0694L115.032 20.6815L115.39 20.2922L115.748 19.9018L116.107 19.5106L116.465 19.119L116.823 18.7273L117.181 18.3359L117.539 17.9452L117.897 17.5555L118.256 17.1671L118.614 16.7805L118.972 16.3959L119.33 16.0136L119.688 15.6341L120.046 15.2577L120.405 14.8848L120.763 14.5155L121.121 14.1504L121.479 13.7896L121.837 13.4337L122.195 13.0827L122.554 12.7372L122.912 12.3973L123.27 12.0634L123.628 11.7358L123.986 11.4149L124.344 11.1007L124.703 10.7938L125.061 10.4943L125.419 10.2025L125.777 9.91861L126.135 9.64298L126.493 9.37583L126.852 9.11739L127.21 8.8679L127.568 8.62757L127.926 8.39663L128.284 8.17529L128.642 7.96373L129.001 7.76216L129.359 7.57075L129.717 7.38968L130.075 7.21911L130.433 7.05919L130.791 6.91007L131.15 6.77188L131.508 6.64475L131.866 6.52878L132.224 6.42409L132.582 6.33077L132.941 6.2489L133.299 6.17855L133.657 6.1198L134.015 6.07269L134.373 6.03726L134.731 6.01355L135.09 6.00157L135.448 6.00135L135.806 6.01287L136.164 6.03613L136.522 6.07111L136.88 6.11778L137.239 6.17609L137.597 6.24599L137.955 6.32742L138.313 6.42031L138.671 6.52457L139.029 6.6401L139.388 6.76681L139.746 6.90458L140.104 7.05329L140.462 7.21279L140.82 7.38296L141.178 7.56363L141.537 7.75464L141.895 7.95583L142.253 8.16701L142.611 8.38798L142.969 8.61856L143.327 8.85853L143.686 9.10767L144.044 9.36578L144.402 9.6326L144.76 9.9079L145.118 10.1914L145.476 10.4829L145.835 10.7822L146.193 11.0889L146.551 11.4027L146.909 11.7234L147.267 12.0508L147.625 12.3844L147.984 12.7241L148.342 13.0694L148.7 13.4201L149.058 13.7759L149.416 14.1365L149.774 14.5015L150.133 14.8705L150.491 15.2434L150.849 15.6197L151.207 15.999L151.565 16.3812L151.923 16.7657L152.282 17.1523L152.64 17.5406L152.998 17.9303L153.356 18.321L153.714 18.7123L154.072 19.104L154.431 19.4956L154.789 19.8868L155.147 20.2773L155.505 20.6667L155.863 21.0546L156.221 21.4407L156.58 21.8247L156.938 22.2062L157.296 22.5848L157.654 22.9603L158.012 23.3323L158.37 23.7004L158.729 24.0644L159.087 24.4238L159.445 24.7784L159.803 25.1278L160.161 25.4718L160.519 25.8101L160.878 26.1422L161.236 26.468L161.594 26.7871L161.952 27.0992L162.31 27.4041L162.668 27.7015L163.027 27.9911L163.385 28.2727L163.743 28.5459L164.101 28.8107L164.459 29.0666L164.817 29.3136L165.176 29.5513L165.534 29.7796L165.892 29.9982L166.25 30.2069L166.608 30.4057L166.966 30.5942L167.325 30.7724L167.683 30.94L168.041 31.0969L168.399 31.2429L168.757 31.378L169.115 31.5021L169.474 31.6149L169.832 31.7164L170.19 31.8065L170.548 31.8852L170.906 31.9523L171.264 32.0078L171.623 32.0516L171.981 32.0837L172.339 32.1042L172.697 32.1129L173.055 32.1098L173.413 32.095L173.772 32.0684L174.13 32.0302L174.488 31.9802L174.846 31.9187L175.204 31.8455L175.563 31.7609L175.921 31.6648L176.279 31.5574L176.637 31.4387L176.995 31.3089L177.353 31.168L177.712 31.0163L178.07 30.8538L178.428 30.6806L178.786 30.4971L179.144 30.3032L179.502 30.0992L179.861 29.8852L180.219 29.6615L180.577 29.4283L180.935 29.1857L181.293 28.9341L181.651 28.6735L182.01 28.4043L182.368 28.1266L182.726 27.8408L183.084 27.5471L183.442 27.2458L183.8 26.9371L184.159 26.6213L184.517 26.2987L184.875 25.9695L185.233 25.6342L185.591 25.2929L185.949 24.946L186.308 24.5938L186.666 24.2367L187.024 23.8748L187.382 23.5087L187.74 23.1385L188.098 22.7647L188.457 22.3875L188.815 22.0073L189.173 21.6245L189.531 21.2393L189.889 20.8522L190.247 20.4635L190.606 20.0735L190.964 19.6826L191.322 19.2911L191.68 18.8994L192.038 18.5079L192.396 18.1168L192.755 17.7266L193.113 17.3376L193.471 16.9502L193.829 16.5646L194.187 16.1813L194.545 15.8006L194.904 15.4228L195.262 15.0482L195.62 14.6773L195.978 14.3103L196.336 13.9476L196.694 13.5895L197.053 13.2363L197.411 12.8884L197.769 12.546L198.127 12.2094L198.485 11.879L198.843 11.5551L199.202 11.2379L199.56 10.9278L199.918 10.625L200.276 10.3297L200.634 10.0424L200.992 9.76309L201.351 9.49219L201.709 9.22989L202.067 8.97644L202.425 8.73206L202.783 8.49696L203.141 8.27138L203.5 8.05549L203.858 7.84951L204.216 7.65362L204.574 7.46798L204.932 7.29278L205.29 7.12816L205.649 6.97427L206.007 6.83126L206.365 6.69925L206.723 6.57837L207.081 6.46871L207.439 6.37038L207.798 6.28347L208.156 6.20805L208.514 6.14419L208.872 6.09196L209.23 6.05139L209.588 6.02252L209.947 6.00539L210.305 6L210.663 6.00636L211.021 6.02447L211.379 6.0543L211.737 6.09583L212.096 6.14903L212.454 6.21385L212.812 6.29022L213.17 6.37808L213.528 6.47735L213.886 6.58794L214.245 6.70975L214.603 6.84267L214.961 6.98659L215.319 7.14137L215.677 7.30687L216.035 7.48294L216.394 7.66943L216.752 7.86617L217.11 8.07297L217.468 8.28967L217.826 8.51605L218.184 8.75191L218.543 8.99706L218.901 9.25125L219.259 9.51427L219.617 9.78587L219.975 10.0658L220.333 10.3539L220.692 10.6497L221.05 10.9532L221.408 11.2639L221.766 11.5816L222.124 11.9061L222.483 12.237L222.841 12.5741L223.199 12.9169L223.557 13.2653L223.915 13.6189L224.273 13.9774L224.632 14.3405L224.99 14.7078L225.348 15.0791L225.706 15.4539L226.064 15.832L226.422 16.2129L226.781 16.5964L227.139 16.9822L227.497 17.3698L227.855 17.7589L228.213 18.1492L228.571 18.5403" stroke="#EBF5FF" stroke-width="10.4452"/>
<path d="M4 55.018L4.35817 55.4097L4.71634 55.8009L5.0745 56.1915L5.43267 56.581L5.79084 56.9692L6.14901 57.3555L6.50718 57.7398L6.86534 58.1216L7.22351 58.5006L7.58168 58.8765L7.93985 59.2489L8.29802 59.6175L8.65619 59.982L9.01435 60.342L9.37252 60.6972L9.73069 61.0473L10.0889 61.3919L10.447 61.7309L10.8052 62.0638L11.1634 62.3903L11.5215 62.7102L11.8797 63.0232L12.2379 63.329L12.596 63.6273L12.9542 63.9179L13.3124 64.2004L13.6705 64.4747L14.0287 64.7405L14.3869 64.9975L14.745 65.2456L15.1032 65.4844L15.4614 65.7139L15.8195 65.9337L16.1777 66.1436L16.5359 66.3436L16.894 66.5334L17.2522 66.7128L17.6104 66.8817L17.9686 67.0399L18.3267 67.1873L18.6849 67.3237L19.0431 67.4491L19.4012 67.5633L19.7594 67.6661L20.1176 67.7576L20.4757 67.8377L20.8339 67.9062L21.1921 67.9631L21.5502 68.0083L21.9084 68.0419L22.2666 68.0637L22.6247 68.0739L22.9829 68.0722L23.3411 68.0588L23.6992 68.0337L24.0574 67.9968L24.4156 67.9483L24.7737 67.8882L25.1319 67.8164L25.4901 67.7332L25.8483 67.6384L26.2064 67.5324L26.5646 67.4151L26.9228 67.2866L27.2809 67.1471L27.6391 66.9966L27.9973 66.8354L28.3554 66.6636L28.7136 66.4812L29.0718 66.2886L29.4299 66.0858L29.7881 65.8731L30.1463 65.6505L30.5044 65.4184L30.8626 65.177L31.2208 64.9264L31.5789 64.6669L31.9371 64.3987L32.2953 64.1221L32.6534 63.8373L33.0116 63.5445L33.3698 63.2441L33.7279 62.9362L34.0861 62.6213L34.4443 62.2995L34.8025 61.9711L35.1606 61.6365L35.5188 61.2959L35.877 60.9497L36.2351 60.5981L36.5933 60.2416L36.9515 59.8803L37.3096 59.5146L37.6678 59.1449L38.026 58.7715L38.3841 58.3947L38.7423 58.0149L39.1005 57.6323L39.4586 57.2475L39.8168 56.8606L40.175 56.472L40.5331 56.0822L40.8913 55.6913L41.2495 55.2999L41.6076 54.9082L41.9658 54.5167L42.324 54.1255L42.6822 53.7352L43.0403 53.3461L43.3985 52.9584L43.7567 52.5726L44.1148 52.189L44.473 51.8079L44.8312 51.4297L45.1893 51.0548L45.5475 50.6834L45.9057 50.3159L46.2638 49.9527L46.622 49.594L46.9802 49.2402L47.3383 48.8916L47.6965 48.5485L48.0547 48.2112L48.4128 47.8801L48.771 47.5554L49.1292 47.2374L49.4873 46.9264L49.8455 46.6226L50.2037 46.3265L50.5618 46.0381L50.92 45.7579L51.2782 45.4859L51.6364 45.2226L51.9945 44.968L52.3527 44.7226L52.7109 44.4863L53.069 44.2596L53.4272 44.0425L53.7854 43.8353L54.1435 43.6382L54.5017 43.4513L54.8599 43.2748L55.218 43.1089L55.5762 42.9537L55.9344 42.8094L56.2925 42.6761L56.6507 42.5538L57.0089 42.4428L57.367 42.3431L57.7252 42.2548L58.0834 42.178L58.4415 42.1127L58.7997 42.0591L59.1579 42.0171L59.5161 41.9868L59.8742 41.9683L60.2324 41.9615L60.5906 41.9664L60.9487 41.9831L61.3069 42.0115L61.6651 42.0516L62.0232 42.1034L62.3814 42.1668L62.7396 42.2418L63.0977 42.3283L63.4559 42.4262L63.8141 42.5354L64.1722 42.6558L64.5304 42.7874L64.8886 42.93L65.2467 43.0835L65.6049 43.2477L65.9631 43.4225L66.3212 43.6077L66.6794 43.8033L67.0376 44.0089L67.3957 44.2244L67.7539 44.4496L68.1121 44.6843L68.4703 44.9283L68.8284 45.1814L69.1866 45.4434L69.5448 45.714L69.9029 45.9929L70.2611 46.28L70.6193 46.575L70.9774 46.8775L71.3356 47.1874L71.6938 47.5043L72.0519 47.8279L72.4101 48.1581L72.7683 48.4944L73.1264 48.8366L73.4846 49.1843L73.8428 49.5373L74.2009 49.8953L74.5591 50.2578L74.9173 50.6246L75.2755 50.9954L75.6336 51.3698L75.9918 51.7475L76.35 52.1281L76.7081 52.5113L77.0663 52.8968L77.4245 53.2842L77.7826 53.6732L78.1408 54.0633L78.499 54.4543L78.8571 54.8459L79.2153 55.2375L79.5735 55.629L79.9316 56.02L80.2898 56.41L80.648 56.7988L81.0061 57.186L81.3643 57.5712L81.7225 57.9541L82.0806 58.3344L82.4388 58.7117L82.797 59.0857L83.1551 59.456L83.5133 59.8223L83.8715 60.1843L84.2296 60.5417L84.5878 60.8941L84.946 61.2412L85.3041 61.5826L85.6623 61.9182L86.0205 62.2476L86.3786 62.5705L86.7368 62.8865L87.095 63.1955L87.4532 63.4972L87.8113 63.7912L88.1695 64.0773L88.5277 64.3552L88.8858 64.6248L89.244 64.8857L89.6022 65.1377L89.9603 65.3806L90.3185 65.6142L90.6767 65.8383L91.0348 66.0526L91.393 66.257L91.7512 66.4512L92.1093 66.6352L92.4675 66.8088L92.8257 66.9717L93.1838 67.1238L93.542 67.2651L93.9002 67.3953L94.2584 67.5145L94.6165 67.6223L94.9747 67.7188L95.3329 67.8039L95.691 67.8775L96.0492 67.9395L96.4074 67.9899L96.7655 68.0286L97.1237 68.0556L97.4819 68.0709L97.84 68.0744L98.1982 68.0661L98.5564 68.0462L98.9145 68.0145L99.2727 67.9711L99.6309 67.916L99.989 67.8494L100.347 67.7712L100.705 67.6815L101.064 67.5804L101.422 67.468L101.78 67.3444L102.138 67.2097L102.496 67.0641L102.854 66.9076L103.213 66.7404L103.571 66.5627L103.929 66.3745L104.287 66.1762L104.645 65.9678L105.003 65.7495L105.362 65.5216L105.72 65.2843L106.078 65.0377L106.436 64.782L106.794 64.5176L107.152 64.2447L107.511 63.9634L107.869 63.6741L108.227 63.377L108.585 63.0724L108.943 62.7606L109.301 62.4417L109.66 62.1162L110.018 61.7843L110.376 61.4463L110.734 61.1025L111.092 60.7533L111.45 60.3989L111.809 60.0396L112.167 59.6759L112.525 59.3079L112.883 58.9361L113.241 58.5607L113.599 58.1822L113.958 57.8008L114.316 57.4169L114.674 57.0308L115.032 56.643L115.39 56.2536L115.748 55.8632L116.107 55.472L116.465 55.0804L116.823 54.6887L117.181 54.2974L117.539 53.9066L117.897 53.5169L118.256 53.1286L118.614 52.7419L118.972 52.3573L119.33 51.9751L119.688 51.5956L120.046 51.2192L120.405 50.8462L120.763 50.4769L121.121 50.1118L121.479 49.7511L121.837 49.3951L122.195 49.0442L122.554 48.6986L122.912 48.3587L123.27 48.0249L123.628 47.6973L123.986 47.3763L124.344 47.0622L124.703 46.7552L125.061 46.4557L125.419 46.1639L125.777 45.88L126.135 45.6044L126.493 45.3373L126.852 45.0788L127.21 44.8293L127.568 44.589L127.926 44.3581L128.284 44.1367L128.642 43.9252L129.001 43.7236L129.359 43.5322L129.717 43.3511L130.075 43.1805L130.433 43.0206L130.791 42.8715L131.15 42.7333L131.508 42.6062L131.866 42.4902L132.224 42.3855L132.582 42.2922L132.941 42.2103L133.299 42.14L133.657 42.0812L134.015 42.0341L134.373 41.9987L134.731 41.975L135.09 41.963L135.448 41.9628L135.806 41.9743L136.164 41.9976L136.522 42.0325L136.88 42.0792L137.239 42.1375L137.597 42.2074L137.955 42.2888L138.313 42.3817L138.671 42.486L139.029 42.6015L139.388 42.7282L139.746 42.866L140.104 43.0147L140.462 43.1742L140.82 43.3444L141.178 43.5251L141.537 43.7161L141.895 43.9173L142.253 44.1284L142.611 44.3494L142.969 44.58L143.327 44.82L143.686 45.0691L144.044 45.3272L144.402 45.594L144.76 45.8693L145.118 46.1529L145.476 46.4444L145.835 46.7436L146.193 47.0503L146.551 47.3641L146.909 47.6849L147.267 48.0122L147.625 48.3458L147.984 48.6855L148.342 49.0308L148.7 49.3816L149.058 49.7374L149.416 50.0979L149.774 50.4629L150.133 50.832L150.491 51.2048L150.849 51.5811L151.207 51.9605L151.565 52.3426L151.923 52.7271L152.282 53.1137L152.64 53.502L152.998 53.8917L153.356 54.2824L153.714 54.6737L154.072 55.0654L154.431 55.457L154.789 55.8482L155.147 56.2387L155.505 56.6281L155.863 57.016L156.221 57.4021L156.58 57.7861L156.938 58.1676L157.296 58.5463L157.654 58.9217L158.012 59.2937L158.37 59.6618L158.729 60.0258L159.087 60.3852L159.445 60.7398L159.803 61.0893L160.161 61.4333L160.519 61.7715L160.878 62.1036L161.236 62.4294L161.594 62.7485L161.952 63.0606L162.31 63.3655L162.668 63.6629L163.027 63.9525L163.385 64.2341L163.743 64.5074L164.101 64.7721L164.459 65.028L164.817 65.275L165.176 65.5127L165.534 65.741L165.892 65.9596L166.25 66.1684L166.608 66.3671L166.966 66.5556L167.325 66.7338L167.683 66.9014L168.041 67.0583L168.399 67.2044L168.757 67.3395L169.115 67.4635L169.474 67.5763L169.832 67.6778L170.19 67.7679L170.548 67.8466L170.906 67.9137L171.264 67.9692L171.623 68.013L171.981 68.0452L172.339 68.0656L172.697 68.0743L173.055 68.0712L173.413 68.0564L173.772 68.0298L174.13 67.9916L174.488 67.9417L174.846 67.8801L175.204 67.8069L175.563 67.7223L175.921 67.6262L176.279 67.5188L176.637 67.4001L176.995 67.2703L177.353 67.1294L177.712 66.9777L178.07 66.8152L178.428 66.6421L178.786 66.4585L179.144 66.2646L179.502 66.0606L179.861 65.8466L180.219 65.623L180.577 65.3897L180.935 65.1472L181.293 64.8955L181.651 64.6349L182.01 64.3657L182.368 64.0881L182.726 63.8023L183.084 63.5086L183.442 63.2072L183.8 62.8985L184.159 62.5827L184.517 62.2601L184.875 61.931L185.233 61.5956L185.591 61.2543L185.949 60.9074L186.308 60.5553L186.666 60.1981L187.024 59.8363L187.382 59.4701L187.74 59.0999L188.098 58.7261L188.457 58.3489L188.815 57.9687L189.173 57.5859L189.531 57.2007L189.889 56.8136L190.247 56.4249L190.606 56.0349L190.964 55.644L191.322 55.2525L191.68 54.8609L192.038 54.4693L192.396 54.0783L192.755 53.6881L193.113 53.2991L193.471 52.9116L193.829 52.526L194.187 52.1427L194.545 51.762L194.904 51.3842L195.262 51.0097L195.62 50.6387L195.978 50.2718L196.336 49.9091L196.694 49.5509L197.053 49.1977L197.411 48.8498L197.769 48.5074L198.127 48.1708L198.485 47.8405L198.843 47.5165L199.202 47.1994L199.56 46.8892L199.918 46.5864L200.276 46.2912L200.634 46.0038L200.992 45.7245L201.351 45.4536L201.709 45.1913L202.067 44.9379L202.425 44.6935L202.783 44.4584L203.141 44.2328L203.5 44.0169L203.858 43.8109L204.216 43.615L204.574 43.4294L204.932 43.2542L205.29 43.0896L205.649 42.9357L206.007 42.7927L206.365 42.6607L206.723 42.5398L207.081 42.4301L207.439 42.3318L207.798 42.2449L208.156 42.1695L208.514 42.1056L208.872 42.0534L209.23 42.0128L209.588 41.9839L209.947 41.9668L210.305 41.9614L210.663 41.9678L211.021 41.9859L211.379 42.0157L211.737 42.0573L212.096 42.1105L212.454 42.1753L212.812 42.2516L213.17 42.3395L213.528 42.4388L213.887 42.5494L214.245 42.6712L214.603 42.8041L214.961 42.948L215.319 43.1028L215.677 43.2683L216.035 43.4444L216.394 43.6309L216.752 43.8276L217.11 44.0344L217.468 44.2511L217.826 44.4775L218.184 44.7133L218.543 44.9585L218.901 45.2127L219.259 45.4757L219.617 45.7473L219.975 46.0272L220.333 46.3153L220.692 46.6112L221.05 46.9146L221.408 47.2253L221.766 47.5431L222.124 47.8675L222.483 48.1984L222.841 48.5355L223.199 48.8784L223.557 49.2268L223.915 49.5804L224.273 49.9389L224.632 50.302L224.99 50.6693L225.348 51.0405L225.706 51.4153L226.064 51.7934L226.422 52.1743L226.781 52.5579L227.139 52.9436L227.497 53.3312L227.855 53.7203L228.213 54.1106L228.571 54.5017" stroke="#EBF5FF" stroke-width="10.4452"/>
</svg>
