<svg width="234" height="167" viewBox="0 0 234 167" fill="none" xmlns="http://www.w3.org/2000/svg">
<rect y="0.000488281" width="1.90374" height="1.90374" rx="0.95187" fill="#FEE36F"/>
<rect x="8.25476" width="1.90374" height="1.90374" rx="0.95187" fill="#FEE36F"/>
<rect x="16.5096" width="1.90374" height="1.90374" rx="0.95187" fill="#FEE36F"/>
<rect x="24.7642" width="1.90374" height="1.90374" rx="0.95187" fill="#FEE36F"/>
<rect x="33.0192" width="1.90374" height="1.90374" rx="0.95187" fill="#FEE36F"/>
<rect x="41.274" width="1.90374" height="1.90374" rx="0.95187" fill="#FEE36F"/>
<rect x="49.5288" width="1.90374" height="1.90374" rx="0.95187" fill="#FEE36F"/>
<rect x="57.7837" width="1.90374" height="1.90374" rx="0.95187" fill="#FEE36F"/>
<rect x="66.0385" width="1.90374" height="1.90374" rx="0.95187" fill="#FEE36F"/>
<rect x="74.293" width="1.90374" height="1.90374" rx="0.95187" fill="#FEE36F"/>
<rect x="82.5481" width="1.90374" height="1.90374" rx="0.95187" fill="#FEE36F"/>
<rect x="90.8029" width="1.90374" height="1.90374" rx="0.95187" fill="#FEE36F"/>
<rect x="99.0576" width="1.90374" height="1.90374" rx="0.95187" fill="#FEE36F"/>
<rect x="107.312" width="1.90374" height="1.90374" rx="0.95187" fill="#FEE36F"/>
<rect x="115.567" width="1.90374" height="1.90374" rx="0.95187" fill="#FEE36F"/>
<rect x="123.822" width="1.90374" height="1.90374" rx="0.95187" fill="#FEE36F"/>
<rect x="132.077" width="1.90374" height="1.90374" rx="0.95187" fill="#FEE36F"/>
<rect x="140.332" width="1.90374" height="1.90374" rx="0.95187" fill="#FEE36F"/>
<rect x="148.586" width="1.90374" height="1.90374" rx="0.95187" fill="#FEE36F"/>
<rect x="156.841" width="1.90374" height="1.90374" rx="0.95187" fill="#FEE36F"/>
<rect x="165.096" width="1.90374" height="1.90374" rx="0.95187" fill="#FEE36F"/>
<rect x="173.351" width="1.90374" height="1.90374" rx="0.95187" fill="#FEE36F"/>
<rect x="181.606" width="1.90374" height="1.90374" rx="0.95187" fill="#FEE36F"/>
<rect x="189.86" width="1.90374" height="1.90374" rx="0.95187" fill="#FEE36F"/>
<rect x="198.115" width="1.90374" height="1.90374" rx="0.95187" fill="#FEE36F"/>
<rect x="206.37" width="1.90374" height="1.90374" rx="0.95187" fill="#FEE36F"/>
<rect x="214.625" width="1.90374" height="1.90374" rx="0.95187" fill="#FEE36F"/>
<rect x="222.879" width="1.90374" height="1.90374" rx="0.95187" fill="#FEE36F"/>
<rect x="231.135" width="1.90374" height="1.90374" rx="0.95187" fill="#FEE36F"/>
<rect y="8.25488" width="1.90374" height="1.90374" rx="0.95187" fill="#FEE36F"/>
<rect x="8.25476" y="8.25488" width="1.90374" height="1.90374" rx="0.95187" fill="#FEE36F"/>
<rect x="16.5096" y="8.25488" width="1.90374" height="1.90374" rx="0.95187" fill="#FEE36F"/>
<rect x="24.7642" y="8.25488" width="1.90374" height="1.90374" rx="0.95187" fill="#FEE36F"/>
<rect x="33.0192" y="8.25488" width="1.90374" height="1.90374" rx="0.95187" fill="#FEE36F"/>
<rect x="41.274" y="8.25488" width="1.90374" height="1.90374" rx="0.95187" fill="#FEE36F"/>
<rect x="49.5288" y="8.25488" width="1.90374" height="1.90374" rx="0.95187" fill="#FEE36F"/>
<rect x="57.7837" y="8.25488" width="1.90374" height="1.90374" rx="0.95187" fill="#FEE36F"/>
<rect x="66.0385" y="8.25488" width="1.90374" height="1.90374" rx="0.95187" fill="#FEE36F"/>
<rect x="74.293" y="8.25488" width="1.90374" height="1.90374" rx="0.95187" fill="#FEE36F"/>
<rect x="82.5481" y="8.25488" width="1.90374" height="1.90374" rx="0.95187" fill="#FEE36F"/>
<rect x="90.8029" y="8.25488" width="1.90374" height="1.90374" rx="0.95187" fill="#FEE36F"/>
<rect x="99.0576" y="8.25488" width="1.90374" height="1.90374" rx="0.95187" fill="#FEE36F"/>
<rect x="107.312" y="8.25488" width="1.90374" height="1.90374" rx="0.95187" fill="#FEE36F"/>
<rect x="115.567" y="8.25488" width="1.90374" height="1.90374" rx="0.95187" fill="#FEE36F"/>
<rect x="123.822" y="8.25488" width="1.90374" height="1.90374" rx="0.95187" fill="#FEE36F"/>
<rect x="132.077" y="8.25488" width="1.90374" height="1.90374" rx="0.95187" fill="#FEE36F"/>
<rect x="140.332" y="8.25488" width="1.90374" height="1.90374" rx="0.95187" fill="#FEE36F"/>
<rect x="148.586" y="8.25488" width="1.90374" height="1.90374" rx="0.95187" fill="#FEE36F"/>
<rect x="156.841" y="8.25488" width="1.90374" height="1.90374" rx="0.95187" fill="#FEE36F"/>
<rect x="165.096" y="8.25488" width="1.90374" height="1.90374" rx="0.95187" fill="#FEE36F"/>
<rect x="173.351" y="8.25488" width="1.90374" height="1.90374" rx="0.95187" fill="#FEE36F"/>
<rect x="181.606" y="8.25488" width="1.90374" height="1.90374" rx="0.95187" fill="#FEE36F"/>
<rect x="189.86" y="8.25488" width="1.90374" height="1.90374" rx="0.95187" fill="#FEE36F"/>
<rect x="198.115" y="8.25488" width="1.90374" height="1.90374" rx="0.95187" fill="#FEE36F"/>
<rect x="206.37" y="8.25488" width="1.90374" height="1.90374" rx="0.95187" fill="#FEE36F"/>
<rect x="214.625" y="8.25488" width="1.90374" height="1.90374" rx="0.95187" fill="#FEE36F"/>
<rect x="222.879" y="8.25488" width="1.90374" height="1.90374" rx="0.95187" fill="#FEE36F"/>
<rect x="231.135" y="8.25488" width="1.90374" height="1.90374" rx="0.95187" fill="#FEE36F"/>
<rect y="16.5098" width="1.90374" height="1.90374" rx="0.95187" fill="#FEE36F"/>
<rect x="8.25476" y="16.5098" width="1.90374" height="1.90374" rx="0.95187" fill="#FEE36F"/>
<rect x="16.5096" y="16.5098" width="1.90374" height="1.90374" rx="0.95187" fill="#FEE36F"/>
<rect x="24.7642" y="16.5098" width="1.90374" height="1.90374" rx="0.95187" fill="#FEE36F"/>
<rect x="33.0192" y="16.5098" width="1.90374" height="1.90374" rx="0.95187" fill="#FEE36F"/>
<rect x="41.274" y="16.5098" width="1.90374" height="1.90374" rx="0.95187" fill="#FEE36F"/>
<rect x="49.5288" y="16.5098" width="1.90374" height="1.90374" rx="0.95187" fill="#FEE36F"/>
<rect x="57.7837" y="16.5098" width="1.90374" height="1.90374" rx="0.95187" fill="#FEE36F"/>
<rect x="66.0385" y="16.5098" width="1.90374" height="1.90374" rx="0.95187" fill="#FEE36F"/>
<rect x="74.293" y="16.5098" width="1.90374" height="1.90374" rx="0.95187" fill="#FEE36F"/>
<rect x="82.5481" y="16.5098" width="1.90374" height="1.90374" rx="0.95187" fill="#FEE36F"/>
<rect x="90.8029" y="16.5098" width="1.90374" height="1.90374" rx="0.95187" fill="#FEE36F"/>
<rect x="99.0576" y="16.5098" width="1.90374" height="1.90374" rx="0.95187" fill="#FEE36F"/>
<rect x="107.312" y="16.5098" width="1.90374" height="1.90374" rx="0.95187" fill="#FEE36F"/>
<rect x="115.567" y="16.5098" width="1.90374" height="1.90374" rx="0.95187" fill="#FEE36F"/>
<rect x="123.822" y="16.5098" width="1.90374" height="1.90374" rx="0.95187" fill="#FEE36F"/>
<rect x="132.077" y="16.5098" width="1.90374" height="1.90374" rx="0.95187" fill="#FEE36F"/>
<rect x="140.332" y="16.5098" width="1.90374" height="1.90374" rx="0.95187" fill="#FEE36F"/>
<rect x="148.586" y="16.5098" width="1.90374" height="1.90374" rx="0.95187" fill="#FEE36F"/>
<rect x="156.841" y="16.5098" width="1.90374" height="1.90374" rx="0.95187" fill="#FEE36F"/>
<rect x="165.096" y="16.5098" width="1.90374" height="1.90374" rx="0.95187" fill="#FEE36F"/>
<rect x="173.351" y="16.5098" width="1.90374" height="1.90374" rx="0.95187" fill="#FEE36F"/>
<rect x="181.606" y="16.5098" width="1.90374" height="1.90374" rx="0.95187" fill="#FEE36F"/>
<rect x="189.86" y="16.5098" width="1.90374" height="1.90374" rx="0.95187" fill="#FEE36F"/>
<rect x="198.115" y="16.5098" width="1.90374" height="1.90374" rx="0.95187" fill="#FEE36F"/>
<rect x="206.37" y="16.5098" width="1.90374" height="1.90374" rx="0.95187" fill="#FEE36F"/>
<rect x="214.625" y="16.5098" width="1.90374" height="1.90374" rx="0.95187" fill="#FEE36F"/>
<rect x="222.879" y="16.5098" width="1.90374" height="1.90374" rx="0.95187" fill="#FEE36F"/>
<rect x="231.135" y="16.5098" width="1.90374" height="1.90374" rx="0.95187" fill="#FEE36F"/>
<rect y="24.7642" width="1.90374" height="1.90374" rx="0.95187" fill="#FEE36F"/>
<rect x="8.25476" y="24.7642" width="1.90374" height="1.90374" rx="0.95187" fill="#FEE36F"/>
<rect x="16.5096" y="24.7642" width="1.90374" height="1.90374" rx="0.95187" fill="#FEE36F"/>
<rect x="24.7642" y="24.7642" width="1.90374" height="1.90374" rx="0.95187" fill="#FEE36F"/>
<rect x="33.0192" y="24.7642" width="1.90374" height="1.90374" rx="0.95187" fill="#FEE36F"/>
<rect x="41.274" y="24.7642" width="1.90374" height="1.90374" rx="0.95187" fill="#FEE36F"/>
<rect x="49.5288" y="24.7642" width="1.90374" height="1.90374" rx="0.95187" fill="#FEE36F"/>
<rect x="57.7837" y="24.7642" width="1.90374" height="1.90374" rx="0.95187" fill="#FEE36F"/>
<rect x="66.0385" y="24.7642" width="1.90374" height="1.90374" rx="0.95187" fill="#FEE36F"/>
<rect x="74.293" y="24.7642" width="1.90374" height="1.90374" rx="0.95187" fill="#FEE36F"/>
<rect x="82.5481" y="24.7642" width="1.90374" height="1.90374" rx="0.95187" fill="#FEE36F"/>
<rect x="90.8029" y="24.7642" width="1.90374" height="1.90374" rx="0.95187" fill="#FEE36F"/>
<rect x="99.0576" y="24.7642" width="1.90374" height="1.90374" rx="0.95187" fill="#FEE36F"/>
<rect x="107.312" y="24.7642" width="1.90374" height="1.90374" rx="0.95187" fill="#FEE36F"/>
<rect x="115.567" y="24.7642" width="1.90374" height="1.90374" rx="0.95187" fill="#FEE36F"/>
<rect x="123.822" y="24.7642" width="1.90374" height="1.90374" rx="0.95187" fill="#FEE36F"/>
<rect x="132.077" y="24.7642" width="1.90374" height="1.90374" rx="0.95187" fill="#FEE36F"/>
<rect x="140.332" y="24.7642" width="1.90374" height="1.90374" rx="0.95187" fill="#FEE36F"/>
<rect x="148.586" y="24.7642" width="1.90374" height="1.90374" rx="0.95187" fill="#FEE36F"/>
<rect x="156.841" y="24.7642" width="1.90374" height="1.90374" rx="0.95187" fill="#FEE36F"/>
<rect x="165.096" y="24.7642" width="1.90374" height="1.90374" rx="0.95187" fill="#FEE36F"/>
<rect x="173.351" y="24.7642" width="1.90374" height="1.90374" rx="0.95187" fill="#FEE36F"/>
<rect x="181.606" y="24.7642" width="1.90374" height="1.90374" rx="0.95187" fill="#FEE36F"/>
<rect x="189.86" y="24.7642" width="1.90374" height="1.90374" rx="0.95187" fill="#FEE36F"/>
<rect x="198.115" y="24.7642" width="1.90374" height="1.90374" rx="0.95187" fill="#FEE36F"/>
<rect x="206.37" y="24.7642" width="1.90374" height="1.90374" rx="0.95187" fill="#FEE36F"/>
<rect x="214.625" y="24.7642" width="1.90374" height="1.90374" rx="0.95187" fill="#FEE36F"/>
<rect x="222.879" y="24.7642" width="1.90374" height="1.90374" rx="0.95187" fill="#FEE36F"/>
<rect x="231.135" y="24.7642" width="1.90374" height="1.90374" rx="0.95187" fill="#FEE36F"/>
<rect y="33.019" width="1.90374" height="1.90374" rx="0.95187" fill="#FEE36F"/>
<rect x="8.25476" y="33.019" width="1.90374" height="1.90374" rx="0.95187" fill="#FEE36F"/>
<rect x="16.5096" y="33.019" width="1.90374" height="1.90374" rx="0.95187" fill="#FEE36F"/>
<rect x="24.7642" y="33.019" width="1.90374" height="1.90374" rx="0.95187" fill="#FEE36F"/>
<rect x="33.0192" y="33.019" width="1.90374" height="1.90374" rx="0.95187" fill="#FEE36F"/>
<rect x="41.274" y="33.019" width="1.90374" height="1.90374" rx="0.95187" fill="#FEE36F"/>
<rect x="49.5288" y="33.019" width="1.90374" height="1.90374" rx="0.95187" fill="#FEE36F"/>
<rect x="57.7837" y="33.019" width="1.90374" height="1.90374" rx="0.95187" fill="#FEE36F"/>
<rect x="66.0385" y="33.019" width="1.90374" height="1.90374" rx="0.95187" fill="#FEE36F"/>
<rect x="74.293" y="33.019" width="1.90374" height="1.90374" rx="0.95187" fill="#FEE36F"/>
<rect x="82.5481" y="33.019" width="1.90374" height="1.90374" rx="0.95187" fill="#FEE36F"/>
<rect x="90.8029" y="33.019" width="1.90374" height="1.90374" rx="0.95187" fill="#FEE36F"/>
<rect x="99.0576" y="33.019" width="1.90374" height="1.90374" rx="0.95187" fill="#FEE36F"/>
<rect x="107.312" y="33.019" width="1.90374" height="1.90374" rx="0.95187" fill="#FEE36F"/>
<rect x="115.567" y="33.019" width="1.90374" height="1.90374" rx="0.95187" fill="#FEE36F"/>
<rect x="123.822" y="33.019" width="1.90374" height="1.90374" rx="0.95187" fill="#FEE36F"/>
<rect x="132.077" y="33.019" width="1.90374" height="1.90374" rx="0.95187" fill="#FEE36F"/>
<rect x="140.332" y="33.019" width="1.90374" height="1.90374" rx="0.95187" fill="#FEE36F"/>
<rect x="148.586" y="33.019" width="1.90374" height="1.90374" rx="0.95187" fill="#FEE36F"/>
<rect x="156.841" y="33.019" width="1.90374" height="1.90374" rx="0.95187" fill="#FEE36F"/>
<rect x="165.096" y="33.019" width="1.90374" height="1.90374" rx="0.95187" fill="#FEE36F"/>
<rect x="173.351" y="33.019" width="1.90374" height="1.90374" rx="0.95187" fill="#FEE36F"/>
<rect x="181.606" y="33.019" width="1.90374" height="1.90374" rx="0.95187" fill="#FEE36F"/>
<rect x="189.86" y="33.019" width="1.90374" height="1.90374" rx="0.95187" fill="#FEE36F"/>
<rect x="198.115" y="33.019" width="1.90374" height="1.90374" rx="0.95187" fill="#FEE36F"/>
<rect x="206.37" y="33.019" width="1.90374" height="1.90374" rx="0.95187" fill="#FEE36F"/>
<rect x="214.625" y="33.019" width="1.90374" height="1.90374" rx="0.95187" fill="#FEE36F"/>
<rect x="222.879" y="33.019" width="1.90374" height="1.90374" rx="0.95187" fill="#FEE36F"/>
<rect x="231.135" y="33.019" width="1.90374" height="1.90374" rx="0.95187" fill="#FEE36F"/>
<rect y="41.2739" width="1.90374" height="1.90374" rx="0.95187" fill="#FEE36F"/>
<rect x="8.25476" y="41.2739" width="1.90374" height="1.90374" rx="0.95187" fill="#FEE36F"/>
<rect x="16.5096" y="41.2739" width="1.90374" height="1.90374" rx="0.95187" fill="#FEE36F"/>
<rect x="24.7642" y="41.2739" width="1.90374" height="1.90374" rx="0.95187" fill="#FEE36F"/>
<rect x="33.0192" y="41.2739" width="1.90374" height="1.90374" rx="0.95187" fill="#FEE36F"/>
<rect x="41.274" y="41.2739" width="1.90374" height="1.90374" rx="0.95187" fill="#FEE36F"/>
<rect x="49.5288" y="41.2739" width="1.90374" height="1.90374" rx="0.95187" fill="#FEE36F"/>
<rect x="57.7837" y="41.2739" width="1.90374" height="1.90374" rx="0.95187" fill="#FEE36F"/>
<rect x="66.0385" y="41.2739" width="1.90374" height="1.90374" rx="0.95187" fill="#FEE36F"/>
<rect x="74.293" y="41.2739" width="1.90374" height="1.90374" rx="0.95187" fill="#FEE36F"/>
<rect x="82.5481" y="41.2739" width="1.90374" height="1.90374" rx="0.95187" fill="#FEE36F"/>
<rect x="90.8029" y="41.2739" width="1.90374" height="1.90374" rx="0.95187" fill="#FEE36F"/>
<rect x="99.0576" y="41.2739" width="1.90374" height="1.90374" rx="0.95187" fill="#FEE36F"/>
<rect x="107.312" y="41.2739" width="1.90374" height="1.90374" rx="0.95187" fill="#FEE36F"/>
<rect x="115.567" y="41.2739" width="1.90374" height="1.90374" rx="0.95187" fill="#FEE36F"/>
<rect x="123.822" y="41.2739" width="1.90374" height="1.90374" rx="0.95187" fill="#FEE36F"/>
<rect x="132.077" y="41.2739" width="1.90374" height="1.90374" rx="0.95187" fill="#FEE36F"/>
<rect x="140.332" y="41.2739" width="1.90374" height="1.90374" rx="0.95187" fill="#FEE36F"/>
<rect x="148.586" y="41.2739" width="1.90374" height="1.90374" rx="0.95187" fill="#FEE36F"/>
<rect x="156.841" y="41.2739" width="1.90374" height="1.90374" rx="0.95187" fill="#FEE36F"/>
<rect x="165.096" y="41.2739" width="1.90374" height="1.90374" rx="0.95187" fill="#FEE36F"/>
<rect x="173.351" y="41.2739" width="1.90374" height="1.90374" rx="0.95187" fill="#FEE36F"/>
<rect x="181.606" y="41.2739" width="1.90374" height="1.90374" rx="0.95187" fill="#FEE36F"/>
<rect x="189.86" y="41.2739" width="1.90374" height="1.90374" rx="0.95187" fill="#FEE36F"/>
<rect x="198.115" y="41.2739" width="1.90374" height="1.90374" rx="0.95187" fill="#FEE36F"/>
<rect x="206.37" y="41.2739" width="1.90374" height="1.90374" rx="0.95187" fill="#FEE36F"/>
<rect x="214.625" y="41.2739" width="1.90374" height="1.90374" rx="0.95187" fill="#FEE36F"/>
<rect x="222.879" y="41.2739" width="1.90374" height="1.90374" rx="0.95187" fill="#FEE36F"/>
<rect x="231.135" y="41.2739" width="1.90374" height="1.90374" rx="0.95187" fill="#FEE36F"/>
<rect y="49.5288" width="1.90374" height="1.90374" rx="0.95187" fill="#FEE36F"/>
<rect x="8.25476" y="49.5288" width="1.90374" height="1.90374" rx="0.95187" fill="#FEE36F"/>
<rect x="16.5096" y="49.5288" width="1.90374" height="1.90374" rx="0.95187" fill="#FEE36F"/>
<rect x="24.7642" y="49.5288" width="1.90374" height="1.90374" rx="0.95187" fill="#FEE36F"/>
<rect x="33.0192" y="49.5288" width="1.90374" height="1.90374" rx="0.95187" fill="#FEE36F"/>
<rect x="41.274" y="49.5288" width="1.90374" height="1.90374" rx="0.95187" fill="#FEE36F"/>
<rect x="49.5288" y="49.5288" width="1.90374" height="1.90374" rx="0.95187" fill="#FEE36F"/>
<rect x="57.7837" y="49.5288" width="1.90374" height="1.90374" rx="0.95187" fill="#FEE36F"/>
<rect x="66.0385" y="49.5288" width="1.90374" height="1.90374" rx="0.95187" fill="#FEE36F"/>
<rect x="74.293" y="49.5288" width="1.90374" height="1.90374" rx="0.95187" fill="#FEE36F"/>
<rect x="82.5481" y="49.5288" width="1.90374" height="1.90374" rx="0.95187" fill="#FEE36F"/>
<rect x="90.8029" y="49.5288" width="1.90374" height="1.90374" rx="0.95187" fill="#FEE36F"/>
<rect x="99.0576" y="49.5288" width="1.90374" height="1.90374" rx="0.95187" fill="#FEE36F"/>
<rect x="107.312" y="49.5288" width="1.90374" height="1.90374" rx="0.95187" fill="#FEE36F"/>
<rect x="115.567" y="49.5288" width="1.90374" height="1.90374" rx="0.95187" fill="#FEE36F"/>
<rect x="123.822" y="49.5288" width="1.90374" height="1.90374" rx="0.95187" fill="#FEE36F"/>
<rect x="132.077" y="49.5288" width="1.90374" height="1.90374" rx="0.95187" fill="#FEE36F"/>
<rect x="140.332" y="49.5288" width="1.90374" height="1.90374" rx="0.95187" fill="#FEE36F"/>
<rect x="148.586" y="49.5288" width="1.90374" height="1.90374" rx="0.95187" fill="#FEE36F"/>
<rect x="156.841" y="49.5288" width="1.90374" height="1.90374" rx="0.95187" fill="#FEE36F"/>
<rect x="165.096" y="49.5288" width="1.90374" height="1.90374" rx="0.95187" fill="#FEE36F"/>
<rect x="173.351" y="49.5288" width="1.90374" height="1.90374" rx="0.95187" fill="#FEE36F"/>
<rect x="181.606" y="49.5288" width="1.90374" height="1.90374" rx="0.95187" fill="#FEE36F"/>
<rect x="189.86" y="49.5288" width="1.90374" height="1.90374" rx="0.95187" fill="#FEE36F"/>
<rect x="198.115" y="49.5288" width="1.90374" height="1.90374" rx="0.95187" fill="#FEE36F"/>
<rect x="206.37" y="49.5288" width="1.90374" height="1.90374" rx="0.95187" fill="#FEE36F"/>
<rect x="214.625" y="49.5288" width="1.90374" height="1.90374" rx="0.95187" fill="#FEE36F"/>
<rect x="222.879" y="49.5288" width="1.90374" height="1.90374" rx="0.95187" fill="#FEE36F"/>
<rect x="231.135" y="49.5288" width="1.90374" height="1.90374" rx="0.95187" fill="#FEE36F"/>
<rect y="57.7842" width="1.90374" height="1.90374" rx="0.95187" fill="#FEE36F"/>
<rect x="8.25476" y="57.7842" width="1.90374" height="1.90374" rx="0.95187" fill="#FEE36F"/>
<rect x="16.5096" y="57.7842" width="1.90374" height="1.90374" rx="0.95187" fill="#FEE36F"/>
<rect x="24.7642" y="57.7842" width="1.90374" height="1.90374" rx="0.95187" fill="#FEE36F"/>
<rect x="33.0192" y="57.7842" width="1.90374" height="1.90374" rx="0.95187" fill="#FEE36F"/>
<rect x="41.274" y="57.7842" width="1.90374" height="1.90374" rx="0.95187" fill="#FEE36F"/>
<rect x="49.5288" y="57.7842" width="1.90374" height="1.90374" rx="0.95187" fill="#FEE36F"/>
<rect x="57.7837" y="57.7842" width="1.90374" height="1.90374" rx="0.95187" fill="#FEE36F"/>
<rect x="66.0385" y="57.7842" width="1.90374" height="1.90374" rx="0.95187" fill="#FEE36F"/>
<rect x="74.293" y="57.7842" width="1.90374" height="1.90374" rx="0.95187" fill="#FEE36F"/>
<rect x="82.5481" y="57.7842" width="1.90374" height="1.90374" rx="0.95187" fill="#FEE36F"/>
<rect x="90.8029" y="57.7842" width="1.90374" height="1.90374" rx="0.95187" fill="#FEE36F"/>
<rect x="99.0576" y="57.7842" width="1.90374" height="1.90374" rx="0.95187" fill="#FEE36F"/>
<rect x="107.312" y="57.7842" width="1.90374" height="1.90374" rx="0.95187" fill="#FEE36F"/>
<rect x="115.567" y="57.7842" width="1.90374" height="1.90374" rx="0.95187" fill="#FEE36F"/>
<rect x="123.822" y="57.7842" width="1.90374" height="1.90374" rx="0.95187" fill="#FEE36F"/>
<rect x="132.077" y="57.7842" width="1.90374" height="1.90374" rx="0.95187" fill="#FEE36F"/>
<rect x="140.332" y="57.7842" width="1.90374" height="1.90374" rx="0.95187" fill="#FEE36F"/>
<rect x="148.586" y="57.7842" width="1.90374" height="1.90374" rx="0.95187" fill="#FEE36F"/>
<rect x="156.841" y="57.7842" width="1.90374" height="1.90374" rx="0.95187" fill="#FEE36F"/>
<rect x="165.096" y="57.7842" width="1.90374" height="1.90374" rx="0.95187" fill="#FEE36F"/>
<rect x="173.351" y="57.7842" width="1.90374" height="1.90374" rx="0.95187" fill="#FEE36F"/>
<rect x="181.606" y="57.7842" width="1.90374" height="1.90374" rx="0.95187" fill="#FEE36F"/>
<rect x="189.86" y="57.7842" width="1.90374" height="1.90374" rx="0.95187" fill="#FEE36F"/>
<rect x="198.115" y="57.7842" width="1.90374" height="1.90374" rx="0.95187" fill="#FEE36F"/>
<rect x="206.37" y="57.7842" width="1.90374" height="1.90374" rx="0.95187" fill="#FEE36F"/>
<rect x="214.625" y="57.7842" width="1.90374" height="1.90374" rx="0.95187" fill="#FEE36F"/>
<rect x="222.879" y="57.7842" width="1.90374" height="1.90374" rx="0.95187" fill="#FEE36F"/>
<rect x="231.135" y="57.7842" width="1.90374" height="1.90374" rx="0.95187" fill="#FEE36F"/>
<rect y="66.0386" width="1.90374" height="1.90374" rx="0.95187" fill="#FEE36F"/>
<rect x="8.25476" y="66.0386" width="1.90374" height="1.90374" rx="0.95187" fill="#FEE36F"/>
<rect x="16.5096" y="66.0386" width="1.90374" height="1.90374" rx="0.95187" fill="#FEE36F"/>
<rect x="24.7642" y="66.0386" width="1.90374" height="1.90374" rx="0.95187" fill="#FEE36F"/>
<rect x="33.0192" y="66.0386" width="1.90374" height="1.90374" rx="0.95187" fill="#FEE36F"/>
<rect x="41.274" y="66.0386" width="1.90374" height="1.90374" rx="0.95187" fill="#FEE36F"/>
<rect x="49.5288" y="66.0386" width="1.90374" height="1.90374" rx="0.95187" fill="#FEE36F"/>
<rect x="57.7837" y="66.0386" width="1.90374" height="1.90374" rx="0.95187" fill="#FEE36F"/>
<rect x="66.0385" y="66.0386" width="1.90374" height="1.90374" rx="0.95187" fill="#FEE36F"/>
<rect x="74.293" y="66.0386" width="1.90374" height="1.90374" rx="0.95187" fill="#FEE36F"/>
<rect x="82.5481" y="66.0386" width="1.90374" height="1.90374" rx="0.95187" fill="#FEE36F"/>
<rect x="90.8029" y="66.0386" width="1.90374" height="1.90374" rx="0.95187" fill="#FEE36F"/>
<rect x="99.0576" y="66.0386" width="1.90374" height="1.90374" rx="0.95187" fill="#FEE36F"/>
<rect x="107.312" y="66.0386" width="1.90374" height="1.90374" rx="0.95187" fill="#FEE36F"/>
<rect x="115.567" y="66.0386" width="1.90374" height="1.90374" rx="0.95187" fill="#FEE36F"/>
<rect x="123.822" y="66.0386" width="1.90374" height="1.90374" rx="0.95187" fill="#FEE36F"/>
<rect x="132.077" y="66.0386" width="1.90374" height="1.90374" rx="0.95187" fill="#FEE36F"/>
<rect x="140.332" y="66.0386" width="1.90374" height="1.90374" rx="0.95187" fill="#FEE36F"/>
<rect x="148.586" y="66.0386" width="1.90374" height="1.90374" rx="0.95187" fill="#FEE36F"/>
<rect x="156.841" y="66.0386" width="1.90374" height="1.90374" rx="0.95187" fill="#FEE36F"/>
<rect x="165.096" y="66.0386" width="1.90374" height="1.90374" rx="0.95187" fill="#FEE36F"/>
<rect x="173.351" y="66.0386" width="1.90374" height="1.90374" rx="0.95187" fill="#FEE36F"/>
<rect x="181.606" y="66.0386" width="1.90374" height="1.90374" rx="0.95187" fill="#FEE36F"/>
<rect x="189.86" y="66.0386" width="1.90374" height="1.90374" rx="0.95187" fill="#FEE36F"/>
<rect x="198.115" y="66.0386" width="1.90374" height="1.90374" rx="0.95187" fill="#FEE36F"/>
<rect x="206.37" y="66.0386" width="1.90374" height="1.90374" rx="0.95187" fill="#FEE36F"/>
<rect x="214.625" y="66.0386" width="1.90374" height="1.90374" rx="0.95187" fill="#FEE36F"/>
<rect x="222.879" y="66.0386" width="1.90374" height="1.90374" rx="0.95187" fill="#FEE36F"/>
<rect x="231.135" y="66.0386" width="1.90374" height="1.90374" rx="0.95187" fill="#FEE36F"/>
<rect y="74.293" width="1.90374" height="1.90374" rx="0.95187" fill="#FEE36F"/>
<rect x="8.25476" y="74.293" width="1.90374" height="1.90374" rx="0.95187" fill="#FEE36F"/>
<rect x="16.5096" y="74.293" width="1.90374" height="1.90374" rx="0.95187" fill="#FEE36F"/>
<rect x="24.7642" y="74.293" width="1.90374" height="1.90374" rx="0.95187" fill="#FEE36F"/>
<rect x="33.0192" y="74.293" width="1.90374" height="1.90374" rx="0.95187" fill="#FEE36F"/>
<rect x="41.274" y="74.293" width="1.90374" height="1.90374" rx="0.95187" fill="#FEE36F"/>
<rect x="49.5288" y="74.293" width="1.90374" height="1.90374" rx="0.95187" fill="#FEE36F"/>
<rect x="57.7837" y="74.293" width="1.90374" height="1.90374" rx="0.95187" fill="#FEE36F"/>
<rect x="66.0385" y="74.293" width="1.90374" height="1.90374" rx="0.95187" fill="#FEE36F"/>
<rect x="74.293" y="74.293" width="1.90374" height="1.90374" rx="0.95187" fill="#FEE36F"/>
<rect x="82.5481" y="74.293" width="1.90374" height="1.90374" rx="0.95187" fill="#FEE36F"/>
<rect x="90.8029" y="74.293" width="1.90374" height="1.90374" rx="0.95187" fill="#FEE36F"/>
<rect x="99.0576" y="74.293" width="1.90374" height="1.90374" rx="0.95187" fill="#FEE36F"/>
<rect x="107.312" y="74.293" width="1.90374" height="1.90374" rx="0.95187" fill="#FEE36F"/>
<rect x="115.567" y="74.293" width="1.90374" height="1.90374" rx="0.95187" fill="#FEE36F"/>
<rect x="123.822" y="74.293" width="1.90374" height="1.90374" rx="0.95187" fill="#FEE36F"/>
<rect x="132.077" y="74.293" width="1.90374" height="1.90374" rx="0.95187" fill="#FEE36F"/>
<rect x="140.332" y="74.293" width="1.90374" height="1.90374" rx="0.95187" fill="#FEE36F"/>
<rect x="148.586" y="74.293" width="1.90374" height="1.90374" rx="0.95187" fill="#FEE36F"/>
<rect x="156.841" y="74.293" width="1.90374" height="1.90374" rx="0.95187" fill="#FEE36F"/>
<rect x="165.096" y="74.293" width="1.90374" height="1.90374" rx="0.95187" fill="#FEE36F"/>
<rect x="173.351" y="74.293" width="1.90374" height="1.90374" rx="0.95187" fill="#FEE36F"/>
<rect x="181.606" y="74.293" width="1.90374" height="1.90374" rx="0.95187" fill="#FEE36F"/>
<rect x="189.86" y="74.293" width="1.90374" height="1.90374" rx="0.95187" fill="#FEE36F"/>
<rect x="198.115" y="74.293" width="1.90374" height="1.90374" rx="0.95187" fill="#FEE36F"/>
<rect x="206.37" y="74.293" width="1.90374" height="1.90374" rx="0.95187" fill="#FEE36F"/>
<rect x="214.625" y="74.293" width="1.90374" height="1.90374" rx="0.95187" fill="#FEE36F"/>
<rect x="222.879" y="74.293" width="1.90374" height="1.90374" rx="0.95187" fill="#FEE36F"/>
<rect x="231.135" y="74.293" width="1.90374" height="1.90374" rx="0.95187" fill="#FEE36F"/>
<rect y="82.5479" width="1.90374" height="1.90374" rx="0.95187" fill="#FEE36F"/>
<rect x="8.25476" y="82.5479" width="1.90374" height="1.90374" rx="0.95187" fill="#FEE36F"/>
<rect x="16.5096" y="82.5479" width="1.90374" height="1.90374" rx="0.95187" fill="#FEE36F"/>
<rect x="24.7642" y="82.5479" width="1.90374" height="1.90374" rx="0.95187" fill="#FEE36F"/>
<rect x="33.0192" y="82.5479" width="1.90374" height="1.90374" rx="0.95187" fill="#FEE36F"/>
<rect x="41.274" y="82.5479" width="1.90374" height="1.90374" rx="0.95187" fill="#FEE36F"/>
<rect x="49.5288" y="82.5479" width="1.90374" height="1.90374" rx="0.95187" fill="#FEE36F"/>
<rect x="57.7837" y="82.5479" width="1.90374" height="1.90374" rx="0.95187" fill="#FEE36F"/>
<rect x="66.0385" y="82.5479" width="1.90374" height="1.90374" rx="0.95187" fill="#FEE36F"/>
<rect x="74.293" y="82.5479" width="1.90374" height="1.90374" rx="0.95187" fill="#FEE36F"/>
<rect x="82.5481" y="82.5479" width="1.90374" height="1.90374" rx="0.95187" fill="#FEE36F"/>
<rect x="90.8029" y="82.5479" width="1.90374" height="1.90374" rx="0.95187" fill="#FEE36F"/>
<rect x="99.0576" y="82.5479" width="1.90374" height="1.90374" rx="0.95187" fill="#FEE36F"/>
<rect x="107.312" y="82.5479" width="1.90374" height="1.90374" rx="0.95187" fill="#FEE36F"/>
<rect x="115.567" y="82.5479" width="1.90374" height="1.90374" rx="0.95187" fill="#FEE36F"/>
<rect x="123.822" y="82.5479" width="1.90374" height="1.90374" rx="0.95187" fill="#FEE36F"/>
<rect x="132.077" y="82.5479" width="1.90374" height="1.90374" rx="0.95187" fill="#FEE36F"/>
<rect x="140.332" y="82.5479" width="1.90374" height="1.90374" rx="0.95187" fill="#FEE36F"/>
<rect y="90.8027" width="1.90374" height="1.90374" rx="0.95187" fill="#FEE36F"/>
<rect x="8.25476" y="90.8027" width="1.90374" height="1.90374" rx="0.95187" fill="#FEE36F"/>
<rect x="16.5096" y="90.8027" width="1.90374" height="1.90374" rx="0.95187" fill="#FEE36F"/>
<rect x="24.7642" y="90.8027" width="1.90374" height="1.90374" rx="0.95187" fill="#FEE36F"/>
<rect x="33.0192" y="90.8027" width="1.90374" height="1.90374" rx="0.95187" fill="#FEE36F"/>
<rect x="41.274" y="90.8027" width="1.90374" height="1.90374" rx="0.95187" fill="#FEE36F"/>
<rect x="49.5288" y="90.8027" width="1.90374" height="1.90374" rx="0.95187" fill="#FEE36F"/>
<rect x="57.7837" y="90.8027" width="1.90374" height="1.90374" rx="0.95187" fill="#FEE36F"/>
<rect x="66.0385" y="90.8027" width="1.90374" height="1.90374" rx="0.95187" fill="#FEE36F"/>
<rect x="74.293" y="90.8027" width="1.90374" height="1.90374" rx="0.95187" fill="#FEE36F"/>
<rect x="82.5481" y="90.8027" width="1.90374" height="1.90374" rx="0.95187" fill="#FEE36F"/>
<rect x="90.8029" y="90.8027" width="1.90374" height="1.90374" rx="0.95187" fill="#FEE36F"/>
<rect x="99.0576" y="90.8027" width="1.90374" height="1.90374" rx="0.95187" fill="#FEE36F"/>
<rect x="107.312" y="90.8027" width="1.90374" height="1.90374" rx="0.95187" fill="#FEE36F"/>
<rect x="115.567" y="90.8027" width="1.90374" height="1.90374" rx="0.95187" fill="#FEE36F"/>
<rect x="123.822" y="90.8027" width="1.90374" height="1.90374" rx="0.95187" fill="#FEE36F"/>
<rect x="132.077" y="90.8027" width="1.90374" height="1.90374" rx="0.95187" fill="#FEE36F"/>
<rect x="140.332" y="90.8027" width="1.90374" height="1.90374" rx="0.95187" fill="#FEE36F"/>
<rect y="99.0576" width="1.90374" height="1.90374" rx="0.95187" fill="#FEE36F"/>
<rect x="8.25476" y="99.0576" width="1.90374" height="1.90374" rx="0.95187" fill="#FEE36F"/>
<rect x="16.5096" y="99.0576" width="1.90374" height="1.90374" rx="0.95187" fill="#FEE36F"/>
<rect x="24.7642" y="99.0576" width="1.90374" height="1.90374" rx="0.95187" fill="#FEE36F"/>
<rect x="33.0192" y="99.0576" width="1.90374" height="1.90374" rx="0.95187" fill="#FEE36F"/>
<rect x="41.274" y="99.0576" width="1.90374" height="1.90374" rx="0.95187" fill="#FEE36F"/>
<rect x="49.5288" y="99.0576" width="1.90374" height="1.90374" rx="0.95187" fill="#FEE36F"/>
<rect x="57.7837" y="99.0576" width="1.90374" height="1.90374" rx="0.95187" fill="#FEE36F"/>
<rect x="66.0385" y="99.0576" width="1.90374" height="1.90374" rx="0.95187" fill="#FEE36F"/>
<rect x="74.293" y="99.0576" width="1.90374" height="1.90374" rx="0.95187" fill="#FEE36F"/>
<rect x="82.5481" y="99.0576" width="1.90374" height="1.90374" rx="0.95187" fill="#FEE36F"/>
<rect x="90.8029" y="99.0576" width="1.90374" height="1.90374" rx="0.95187" fill="#FEE36F"/>
<rect x="99.0576" y="99.0576" width="1.90374" height="1.90374" rx="0.95187" fill="#FEE36F"/>
<rect x="107.312" y="99.0576" width="1.90374" height="1.90374" rx="0.95187" fill="#FEE36F"/>
<rect x="115.567" y="99.0576" width="1.90374" height="1.90374" rx="0.95187" fill="#FEE36F"/>
<rect x="123.822" y="99.0576" width="1.90374" height="1.90374" rx="0.95187" fill="#FEE36F"/>
<rect x="132.077" y="99.0576" width="1.90374" height="1.90374" rx="0.95187" fill="#FEE36F"/>
<rect x="140.332" y="99.0576" width="1.90374" height="1.90374" rx="0.95187" fill="#FEE36F"/>
<rect y="107.313" width="1.90374" height="1.90374" rx="0.95187" fill="#FEE36F"/>
<rect x="8.25476" y="107.313" width="1.90374" height="1.90374" rx="0.95187" fill="#FEE36F"/>
<rect x="16.5096" y="107.313" width="1.90374" height="1.90374" rx="0.95187" fill="#FEE36F"/>
<rect x="24.7642" y="107.313" width="1.90374" height="1.90374" rx="0.95187" fill="#FEE36F"/>
<rect x="33.0192" y="107.313" width="1.90374" height="1.90374" rx="0.95187" fill="#FEE36F"/>
<rect x="41.274" y="107.313" width="1.90374" height="1.90374" rx="0.95187" fill="#FEE36F"/>
<rect x="49.5288" y="107.313" width="1.90374" height="1.90374" rx="0.95187" fill="#FEE36F"/>
<rect x="57.7837" y="107.313" width="1.90374" height="1.90374" rx="0.95187" fill="#FEE36F"/>
<rect x="66.0385" y="107.313" width="1.90374" height="1.90374" rx="0.95187" fill="#FEE36F"/>
<rect x="74.293" y="107.313" width="1.90374" height="1.90374" rx="0.95187" fill="#FEE36F"/>
<rect x="82.5481" y="107.313" width="1.90374" height="1.90374" rx="0.95187" fill="#FEE36F"/>
<rect x="90.8029" y="107.313" width="1.90374" height="1.90374" rx="0.95187" fill="#FEE36F"/>
<rect x="99.0576" y="107.313" width="1.90374" height="1.90374" rx="0.95187" fill="#FEE36F"/>
<rect x="107.312" y="107.313" width="1.90374" height="1.90374" rx="0.95187" fill="#FEE36F"/>
<rect x="115.567" y="107.313" width="1.90374" height="1.90374" rx="0.95187" fill="#FEE36F"/>
<rect x="123.822" y="107.313" width="1.90374" height="1.90374" rx="0.95187" fill="#FEE36F"/>
<rect x="132.077" y="107.313" width="1.90374" height="1.90374" rx="0.95187" fill="#FEE36F"/>
<rect x="140.332" y="107.313" width="1.90374" height="1.90374" rx="0.95187" fill="#FEE36F"/>
<rect y="115.567" width="1.90374" height="1.90374" rx="0.95187" fill="#FEE36F"/>
<rect x="8.25476" y="115.567" width="1.90374" height="1.90374" rx="0.95187" fill="#FEE36F"/>
<rect x="16.5096" y="115.567" width="1.90374" height="1.90374" rx="0.95187" fill="#FEE36F"/>
<rect x="24.7642" y="115.567" width="1.90374" height="1.90374" rx="0.95187" fill="#FEE36F"/>
<rect x="33.0192" y="115.567" width="1.90374" height="1.90374" rx="0.95187" fill="#FEE36F"/>
<rect x="41.274" y="115.567" width="1.90374" height="1.90374" rx="0.95187" fill="#FEE36F"/>
<rect x="49.5288" y="115.567" width="1.90374" height="1.90374" rx="0.95187" fill="#FEE36F"/>
<rect x="57.7837" y="115.567" width="1.90374" height="1.90374" rx="0.95187" fill="#FEE36F"/>
<rect x="66.0385" y="115.567" width="1.90374" height="1.90374" rx="0.95187" fill="#FEE36F"/>
<rect x="74.293" y="115.567" width="1.90374" height="1.90374" rx="0.95187" fill="#FEE36F"/>
<rect x="82.5481" y="115.567" width="1.90374" height="1.90374" rx="0.95187" fill="#FEE36F"/>
<rect x="90.8029" y="115.567" width="1.90374" height="1.90374" rx="0.95187" fill="#FEE36F"/>
<rect x="99.0576" y="115.567" width="1.90374" height="1.90374" rx="0.95187" fill="#FEE36F"/>
<rect x="107.312" y="115.567" width="1.90374" height="1.90374" rx="0.95187" fill="#FEE36F"/>
<rect x="115.567" y="115.567" width="1.90374" height="1.90374" rx="0.95187" fill="#FEE36F"/>
<rect x="123.822" y="115.567" width="1.90374" height="1.90374" rx="0.95187" fill="#FEE36F"/>
<rect x="132.077" y="115.567" width="1.90374" height="1.90374" rx="0.95187" fill="#FEE36F"/>
<rect x="140.332" y="115.567" width="1.90374" height="1.90374" rx="0.95187" fill="#FEE36F"/>
<rect y="123.822" width="1.90374" height="1.90374" rx="0.95187" fill="#FEE36F"/>
<rect x="8.25476" y="123.822" width="1.90374" height="1.90374" rx="0.95187" fill="#FEE36F"/>
<rect x="16.5096" y="123.822" width="1.90374" height="1.90374" rx="0.95187" fill="#FEE36F"/>
<rect x="24.7642" y="123.822" width="1.90374" height="1.90374" rx="0.95187" fill="#FEE36F"/>
<rect x="33.0192" y="123.822" width="1.90374" height="1.90374" rx="0.95187" fill="#FEE36F"/>
<rect x="41.274" y="123.822" width="1.90374" height="1.90374" rx="0.95187" fill="#FEE36F"/>
<rect x="49.5288" y="123.822" width="1.90374" height="1.90374" rx="0.95187" fill="#FEE36F"/>
<rect x="57.7837" y="123.822" width="1.90374" height="1.90374" rx="0.95187" fill="#FEE36F"/>
<rect x="66.0385" y="123.822" width="1.90374" height="1.90374" rx="0.95187" fill="#FEE36F"/>
<rect x="74.293" y="123.822" width="1.90374" height="1.90374" rx="0.95187" fill="#FEE36F"/>
<rect x="82.5481" y="123.822" width="1.90374" height="1.90374" rx="0.95187" fill="#FEE36F"/>
<rect x="90.8029" y="123.822" width="1.90374" height="1.90374" rx="0.95187" fill="#FEE36F"/>
<rect x="99.0576" y="123.822" width="1.90374" height="1.90374" rx="0.95187" fill="#FEE36F"/>
<rect x="107.312" y="123.822" width="1.90374" height="1.90374" rx="0.95187" fill="#FEE36F"/>
<rect x="115.567" y="123.822" width="1.90374" height="1.90374" rx="0.95187" fill="#FEE36F"/>
<rect x="123.822" y="123.822" width="1.90374" height="1.90374" rx="0.95187" fill="#FEE36F"/>
<rect x="132.077" y="123.822" width="1.90374" height="1.90374" rx="0.95187" fill="#FEE36F"/>
<rect x="140.332" y="123.822" width="1.90374" height="1.90374" rx="0.95187" fill="#FEE36F"/>
<rect y="132.077" width="1.90374" height="1.90374" rx="0.95187" fill="#FEE36F"/>
<rect x="8.25476" y="132.077" width="1.90374" height="1.90374" rx="0.95187" fill="#FEE36F"/>
<rect x="16.5096" y="132.077" width="1.90374" height="1.90374" rx="0.95187" fill="#FEE36F"/>
<rect x="24.7642" y="132.077" width="1.90374" height="1.90374" rx="0.95187" fill="#FEE36F"/>
<rect x="33.0192" y="132.077" width="1.90374" height="1.90374" rx="0.95187" fill="#FEE36F"/>
<rect x="41.274" y="132.077" width="1.90374" height="1.90374" rx="0.95187" fill="#FEE36F"/>
<rect x="49.5288" y="132.077" width="1.90374" height="1.90374" rx="0.95187" fill="#FEE36F"/>
<rect x="57.7837" y="132.077" width="1.90374" height="1.90374" rx="0.95187" fill="#FEE36F"/>
<rect x="66.0385" y="132.077" width="1.90374" height="1.90374" rx="0.95187" fill="#FEE36F"/>
<rect x="74.293" y="132.077" width="1.90374" height="1.90374" rx="0.95187" fill="#FEE36F"/>
<rect x="82.5481" y="132.077" width="1.90374" height="1.90374" rx="0.95187" fill="#FEE36F"/>
<rect x="90.8029" y="132.077" width="1.90374" height="1.90374" rx="0.95187" fill="#FEE36F"/>
<rect x="99.0576" y="132.077" width="1.90374" height="1.90374" rx="0.95187" fill="#FEE36F"/>
<rect x="107.312" y="132.077" width="1.90374" height="1.90374" rx="0.95187" fill="#FEE36F"/>
<rect x="115.567" y="132.077" width="1.90374" height="1.90374" rx="0.95187" fill="#FEE36F"/>
<rect x="123.822" y="132.077" width="1.90374" height="1.90374" rx="0.95187" fill="#FEE36F"/>
<rect x="132.077" y="132.077" width="1.90374" height="1.90374" rx="0.95187" fill="#FEE36F"/>
<rect x="140.332" y="132.077" width="1.90374" height="1.90374" rx="0.95187" fill="#FEE36F"/>
<rect y="140.332" width="1.90374" height="1.90374" rx="0.95187" fill="#FEE36F"/>
<rect x="8.25476" y="140.332" width="1.90374" height="1.90374" rx="0.95187" fill="#FEE36F"/>
<rect x="16.5096" y="140.332" width="1.90374" height="1.90374" rx="0.95187" fill="#FEE36F"/>
<rect x="24.7642" y="140.332" width="1.90374" height="1.90374" rx="0.95187" fill="#FEE36F"/>
<rect x="33.0192" y="140.332" width="1.90374" height="1.90374" rx="0.95187" fill="#FEE36F"/>
<rect x="41.274" y="140.332" width="1.90374" height="1.90374" rx="0.95187" fill="#FEE36F"/>
<rect x="49.5288" y="140.332" width="1.90374" height="1.90374" rx="0.95187" fill="#FEE36F"/>
<rect x="57.7837" y="140.332" width="1.90374" height="1.90374" rx="0.95187" fill="#FEE36F"/>
<rect x="66.0385" y="140.332" width="1.90374" height="1.90374" rx="0.95187" fill="#FEE36F"/>
<rect x="74.293" y="140.332" width="1.90374" height="1.90374" rx="0.95187" fill="#FEE36F"/>
<rect x="82.5481" y="140.332" width="1.90374" height="1.90374" rx="0.95187" fill="#FEE36F"/>
<rect x="90.8029" y="140.332" width="1.90374" height="1.90374" rx="0.95187" fill="#FEE36F"/>
<rect x="99.0576" y="140.332" width="1.90374" height="1.90374" rx="0.95187" fill="#FEE36F"/>
<rect x="107.312" y="140.332" width="1.90374" height="1.90374" rx="0.95187" fill="#FEE36F"/>
<rect x="115.567" y="140.332" width="1.90374" height="1.90374" rx="0.95187" fill="#FEE36F"/>
<rect x="123.822" y="140.332" width="1.90374" height="1.90374" rx="0.95187" fill="#FEE36F"/>
<rect x="132.077" y="140.332" width="1.90374" height="1.90374" rx="0.95187" fill="#FEE36F"/>
<rect x="140.332" y="140.332" width="1.90374" height="1.90374" rx="0.95187" fill="#FEE36F"/>
<rect y="148.586" width="1.90374" height="1.90374" rx="0.95187" fill="#FEE36F"/>
<rect x="8.25476" y="148.586" width="1.90374" height="1.90374" rx="0.95187" fill="#FEE36F"/>
<rect x="16.5096" y="148.586" width="1.90374" height="1.90374" rx="0.95187" fill="#FEE36F"/>
<rect x="24.7642" y="148.586" width="1.90374" height="1.90374" rx="0.95187" fill="#FEE36F"/>
<rect x="33.0192" y="148.586" width="1.90374" height="1.90374" rx="0.95187" fill="#FEE36F"/>
<rect x="41.274" y="148.586" width="1.90374" height="1.90374" rx="0.95187" fill="#FEE36F"/>
<rect x="49.5288" y="148.586" width="1.90374" height="1.90374" rx="0.95187" fill="#FEE36F"/>
<rect x="57.7837" y="148.586" width="1.90374" height="1.90374" rx="0.95187" fill="#FEE36F"/>
<rect x="66.0385" y="148.586" width="1.90374" height="1.90374" rx="0.95187" fill="#FEE36F"/>
<rect x="74.293" y="148.586" width="1.90374" height="1.90374" rx="0.95187" fill="#FEE36F"/>
<rect x="82.5481" y="148.586" width="1.90374" height="1.90374" rx="0.95187" fill="#FEE36F"/>
<rect x="90.8029" y="148.586" width="1.90374" height="1.90374" rx="0.95187" fill="#FEE36F"/>
<rect x="99.0576" y="148.586" width="1.90374" height="1.90374" rx="0.95187" fill="#FEE36F"/>
<rect x="107.312" y="148.586" width="1.90374" height="1.90374" rx="0.95187" fill="#FEE36F"/>
<rect x="115.567" y="148.586" width="1.90374" height="1.90374" rx="0.95187" fill="#FEE36F"/>
<rect x="123.822" y="148.586" width="1.90374" height="1.90374" rx="0.95187" fill="#FEE36F"/>
<rect x="132.077" y="148.586" width="1.90374" height="1.90374" rx="0.95187" fill="#FEE36F"/>
<rect x="140.332" y="148.586" width="1.90374" height="1.90374" rx="0.95187" fill="#FEE36F"/>
<rect y="156.842" width="1.90374" height="1.90374" rx="0.95187" fill="#FEE36F"/>
<rect x="8.25476" y="156.842" width="1.90374" height="1.90374" rx="0.95187" fill="#FEE36F"/>
<rect x="16.5096" y="156.842" width="1.90374" height="1.90374" rx="0.95187" fill="#FEE36F"/>
<rect x="24.7642" y="156.842" width="1.90374" height="1.90374" rx="0.95187" fill="#FEE36F"/>
<rect x="33.0192" y="156.842" width="1.90374" height="1.90374" rx="0.95187" fill="#FEE36F"/>
<rect x="41.274" y="156.842" width="1.90374" height="1.90374" rx="0.95187" fill="#FEE36F"/>
<rect x="49.5288" y="156.842" width="1.90374" height="1.90374" rx="0.95187" fill="#FEE36F"/>
<rect x="57.7837" y="156.842" width="1.90374" height="1.90374" rx="0.95187" fill="#FEE36F"/>
<rect x="66.0385" y="156.842" width="1.90374" height="1.90374" rx="0.95187" fill="#FEE36F"/>
<rect x="74.293" y="156.842" width="1.90374" height="1.90374" rx="0.95187" fill="#FEE36F"/>
<rect x="82.5481" y="156.842" width="1.90374" height="1.90374" rx="0.95187" fill="#FEE36F"/>
<rect x="90.8029" y="156.842" width="1.90374" height="1.90374" rx="0.95187" fill="#FEE36F"/>
<rect x="99.0576" y="156.842" width="1.90374" height="1.90374" rx="0.95187" fill="#FEE36F"/>
<rect x="107.312" y="156.842" width="1.90374" height="1.90374" rx="0.95187" fill="#FEE36F"/>
<rect x="115.567" y="156.842" width="1.90374" height="1.90374" rx="0.95187" fill="#FEE36F"/>
<rect x="123.822" y="156.842" width="1.90374" height="1.90374" rx="0.95187" fill="#FEE36F"/>
<rect x="132.077" y="156.842" width="1.90374" height="1.90374" rx="0.95187" fill="#FEE36F"/>
<rect x="140.332" y="156.842" width="1.90374" height="1.90374" rx="0.95187" fill="#FEE36F"/>
<rect y="165.096" width="1.90374" height="1.90374" rx="0.95187" fill="#FEE36F"/>
<rect x="8.25476" y="165.096" width="1.90374" height="1.90374" rx="0.95187" fill="#FEE36F"/>
<rect x="16.5096" y="165.096" width="1.90374" height="1.90374" rx="0.95187" fill="#FEE36F"/>
<rect x="24.7642" y="165.096" width="1.90374" height="1.90374" rx="0.95187" fill="#FEE36F"/>
<rect x="33.0192" y="165.096" width="1.90374" height="1.90374" rx="0.95187" fill="#FEE36F"/>
<rect x="41.274" y="165.096" width="1.90374" height="1.90374" rx="0.95187" fill="#FEE36F"/>
<rect x="49.5288" y="165.096" width="1.90374" height="1.90374" rx="0.95187" fill="#FEE36F"/>
<rect x="57.7837" y="165.096" width="1.90374" height="1.90374" rx="0.95187" fill="#FEE36F"/>
<rect x="66.0385" y="165.096" width="1.90374" height="1.90374" rx="0.95187" fill="#FEE36F"/>
<rect x="74.293" y="165.096" width="1.90374" height="1.90374" rx="0.95187" fill="#FEE36F"/>
<rect x="82.5481" y="165.096" width="1.90374" height="1.90374" rx="0.95187" fill="#FEE36F"/>
<rect x="90.8029" y="165.096" width="1.90374" height="1.90374" rx="0.95187" fill="#FEE36F"/>
<rect x="99.0576" y="165.096" width="1.90374" height="1.90374" rx="0.95187" fill="#FEE36F"/>
<rect x="107.312" y="165.096" width="1.90374" height="1.90374" rx="0.95187" fill="#FEE36F"/>
<rect x="115.567" y="165.096" width="1.90374" height="1.90374" rx="0.95187" fill="#FEE36F"/>
<rect x="123.822" y="165.096" width="1.90374" height="1.90374" rx="0.95187" fill="#FEE36F"/>
<rect x="132.077" y="165.096" width="1.90374" height="1.90374" rx="0.95187" fill="#FEE36F"/>
<rect x="140.332" y="165.096" width="1.90374" height="1.90374" rx="0.95187" fill="#FEE36F"/>
</svg>
