<svg width="181" height="111" viewBox="0 0 181 111" fill="none" xmlns="http://www.w3.org/2000/svg">
<rect x="38.6164" y="0.000976562" width="1.15649" height="1.15649" rx="0.578244" fill="#474F60"/>
<rect x="43.631" y="0.000488281" width="1.15649" height="1.15649" rx="0.578244" fill="#474F60"/>
<rect x="48.6457" y="0.000488281" width="1.15649" height="1.15649" rx="0.578244" fill="#474F60"/>
<rect x="53.6602" y="0.000488281" width="1.15649" height="1.15649" rx="0.578244" fill="#474F60"/>
<rect x="58.6749" y="0.000488281" width="1.15649" height="1.15649" rx="0.578244" fill="#474F60"/>
<rect x="63.6896" y="0.000488281" width="1.15649" height="1.15649" rx="0.578244" fill="#474F60"/>
<rect x="68.7043" y="0.000488281" width="1.15649" height="1.15649" rx="0.578244" fill="#474F60"/>
<rect x="73.7189" y="0.000488281" width="1.15649" height="1.15649" rx="0.578244" fill="#474F60"/>
<rect x="78.7336" y="0.000488281" width="1.15649" height="1.15649" rx="0.578244" fill="#474F60"/>
<rect x="83.7481" y="0.000488281" width="1.15649" height="1.15649" rx="0.578244" fill="#474F60"/>
<rect x="88.7628" y="0.000488281" width="1.15649" height="1.15649" rx="0.578244" fill="#474F60"/>
<rect x="93.7775" y="0.000488281" width="1.15649" height="1.15649" rx="0.578244" fill="#474F60"/>
<rect x="98.7922" y="0.000488281" width="1.15649" height="1.15649" rx="0.578244" fill="#474F60"/>
<rect x="103.807" y="0.000488281" width="1.15649" height="1.15649" rx="0.578244" fill="#474F60"/>
<rect x="108.821" y="0.000488281" width="1.15649" height="1.15649" rx="0.578244" fill="#474F60"/>
<rect x="113.836" y="0.000488281" width="1.15649" height="1.15649" rx="0.578244" fill="#474F60"/>
<rect x="118.851" y="0.000488281" width="1.15649" height="1.15649" rx="0.578244" fill="#474F60"/>
<rect x="123.865" y="0.000488281" width="1.15649" height="1.15649" rx="0.578244" fill="#474F60"/>
<rect x="128.88" y="0.000488281" width="1.15649" height="1.15649" rx="0.578244" fill="#474F60"/>
<rect x="133.895" y="0.000488281" width="1.15649" height="1.15649" rx="0.578244" fill="#474F60"/>
<rect x="138.909" y="0.000488281" width="1.15649" height="1.15649" rx="0.578244" fill="#474F60"/>
<rect x="143.924" y="0.000488281" width="1.15649" height="1.15649" rx="0.578244" fill="#474F60"/>
<rect x="148.939" y="0.000488281" width="1.15649" height="1.15649" rx="0.578244" fill="#474F60"/>
<rect x="153.953" y="0.000488281" width="1.15649" height="1.15649" rx="0.578244" fill="#474F60"/>
<rect x="158.968" y="0.000488281" width="1.15649" height="1.15649" rx="0.578244" fill="#474F60"/>
<rect x="163.983" y="0.000488281" width="1.15649" height="1.15649" rx="0.578244" fill="#474F60"/>
<rect x="168.997" y="0.000488281" width="1.15649" height="1.15649" rx="0.578244" fill="#474F60"/>
<rect x="174.012" y="0.000488281" width="1.15649" height="1.15649" rx="0.578244" fill="#474F60"/>
<rect x="179.027" y="0.000488281" width="1.15649" height="1.15649" rx="0.578244" fill="#474F60"/>
<rect x="38.6164" y="5.01514" width="1.15649" height="1.15649" rx="0.578244" fill="#474F60"/>
<rect x="43.631" y="5.01514" width="1.15649" height="1.15649" rx="0.578244" fill="#474F60"/>
<rect x="48.6457" y="5.01514" width="1.15649" height="1.15649" rx="0.578244" fill="#474F60"/>
<rect x="53.6602" y="5.01514" width="1.15649" height="1.15649" rx="0.578244" fill="#474F60"/>
<rect x="58.6749" y="5.01514" width="1.15649" height="1.15649" rx="0.578244" fill="#474F60"/>
<rect x="63.6896" y="5.01514" width="1.15649" height="1.15649" rx="0.578244" fill="#474F60"/>
<rect x="68.7043" y="5.01514" width="1.15649" height="1.15649" rx="0.578244" fill="#474F60"/>
<rect x="73.7189" y="5.01514" width="1.15649" height="1.15649" rx="0.578244" fill="#474F60"/>
<rect x="78.7336" y="5.01514" width="1.15649" height="1.15649" rx="0.578244" fill="#474F60"/>
<rect x="83.7481" y="5.01514" width="1.15649" height="1.15649" rx="0.578244" fill="#474F60"/>
<rect x="88.7628" y="5.01514" width="1.15649" height="1.15649" rx="0.578244" fill="#474F60"/>
<rect x="93.7775" y="5.01514" width="1.15649" height="1.15649" rx="0.578244" fill="#474F60"/>
<rect x="98.7922" y="5.01514" width="1.15649" height="1.15649" rx="0.578244" fill="#474F60"/>
<rect x="103.807" y="5.01514" width="1.15649" height="1.15649" rx="0.578244" fill="#474F60"/>
<rect x="108.821" y="5.01514" width="1.15649" height="1.15649" rx="0.578244" fill="#474F60"/>
<rect x="113.836" y="5.01514" width="1.15649" height="1.15649" rx="0.578244" fill="#474F60"/>
<rect x="118.851" y="5.01514" width="1.15649" height="1.15649" rx="0.578244" fill="#474F60"/>
<rect x="123.865" y="5.01514" width="1.15649" height="1.15649" rx="0.578244" fill="#474F60"/>
<rect x="128.88" y="5.01514" width="1.15649" height="1.15649" rx="0.578244" fill="#474F60"/>
<rect x="133.895" y="5.01514" width="1.15649" height="1.15649" rx="0.578244" fill="#474F60"/>
<rect x="138.909" y="5.01514" width="1.15649" height="1.15649" rx="0.578244" fill="#474F60"/>
<rect x="143.924" y="5.01514" width="1.15649" height="1.15649" rx="0.578244" fill="#474F60"/>
<rect x="148.939" y="5.01514" width="1.15649" height="1.15649" rx="0.578244" fill="#474F60"/>
<rect x="153.953" y="5.01514" width="1.15649" height="1.15649" rx="0.578244" fill="#474F60"/>
<rect x="158.968" y="5.01514" width="1.15649" height="1.15649" rx="0.578244" fill="#474F60"/>
<rect x="163.983" y="5.01514" width="1.15649" height="1.15649" rx="0.578244" fill="#474F60"/>
<rect x="168.997" y="5.01514" width="1.15649" height="1.15649" rx="0.578244" fill="#474F60"/>
<rect x="174.012" y="5.01514" width="1.15649" height="1.15649" rx="0.578244" fill="#474F60"/>
<rect x="179.027" y="5.01514" width="1.15649" height="1.15649" rx="0.578244" fill="#474F60"/>
<rect x="38.6164" y="10.0298" width="1.15649" height="1.15649" rx="0.578244" fill="#474F60"/>
<rect x="43.631" y="10.0298" width="1.15649" height="1.15649" rx="0.578244" fill="#474F60"/>
<rect x="48.6457" y="10.0298" width="1.15649" height="1.15649" rx="0.578244" fill="#474F60"/>
<rect x="53.6602" y="10.0298" width="1.15649" height="1.15649" rx="0.578244" fill="#474F60"/>
<rect x="58.6749" y="10.0298" width="1.15649" height="1.15649" rx="0.578244" fill="#474F60"/>
<rect x="63.6896" y="10.0298" width="1.15649" height="1.15649" rx="0.578244" fill="#474F60"/>
<rect x="68.7043" y="10.0298" width="1.15649" height="1.15649" rx="0.578244" fill="#474F60"/>
<rect x="73.7189" y="10.0298" width="1.15649" height="1.15649" rx="0.578244" fill="#474F60"/>
<rect x="78.7336" y="10.0298" width="1.15649" height="1.15649" rx="0.578244" fill="#474F60"/>
<rect x="83.7481" y="10.0298" width="1.15649" height="1.15649" rx="0.578244" fill="#474F60"/>
<rect x="88.7628" y="10.0298" width="1.15649" height="1.15649" rx="0.578244" fill="#474F60"/>
<rect x="93.7775" y="10.0298" width="1.15649" height="1.15649" rx="0.578244" fill="#474F60"/>
<rect x="98.7922" y="10.0298" width="1.15649" height="1.15649" rx="0.578244" fill="#474F60"/>
<rect x="103.807" y="10.0298" width="1.15649" height="1.15649" rx="0.578244" fill="#474F60"/>
<rect x="108.821" y="10.0298" width="1.15649" height="1.15649" rx="0.578244" fill="#474F60"/>
<rect x="113.836" y="10.0298" width="1.15649" height="1.15649" rx="0.578244" fill="#474F60"/>
<rect x="118.851" y="10.0298" width="1.15649" height="1.15649" rx="0.578244" fill="#474F60"/>
<rect x="123.865" y="10.0298" width="1.15649" height="1.15649" rx="0.578244" fill="#474F60"/>
<rect x="128.88" y="10.0298" width="1.15649" height="1.15649" rx="0.578244" fill="#474F60"/>
<rect x="133.895" y="10.0298" width="1.15649" height="1.15649" rx="0.578244" fill="#474F60"/>
<rect x="138.909" y="10.0298" width="1.15649" height="1.15649" rx="0.578244" fill="#474F60"/>
<rect x="143.924" y="10.0298" width="1.15649" height="1.15649" rx="0.578244" fill="#474F60"/>
<rect x="148.939" y="10.0298" width="1.15649" height="1.15649" rx="0.578244" fill="#474F60"/>
<rect x="153.953" y="10.0298" width="1.15649" height="1.15649" rx="0.578244" fill="#474F60"/>
<rect x="158.968" y="10.0298" width="1.15649" height="1.15649" rx="0.578244" fill="#474F60"/>
<rect x="163.983" y="10.0298" width="1.15649" height="1.15649" rx="0.578244" fill="#474F60"/>
<rect x="168.997" y="10.0298" width="1.15649" height="1.15649" rx="0.578244" fill="#474F60"/>
<rect x="174.012" y="10.0298" width="1.15649" height="1.15649" rx="0.578244" fill="#474F60"/>
<rect x="179.027" y="10.0298" width="1.15649" height="1.15649" rx="0.578244" fill="#474F60"/>
<rect x="38.6164" y="15.0442" width="1.15649" height="1.15649" rx="0.578244" fill="#474F60"/>
<rect x="43.631" y="15.0442" width="1.15649" height="1.15649" rx="0.578244" fill="#474F60"/>
<rect x="48.6457" y="15.0442" width="1.15649" height="1.15649" rx="0.578244" fill="#474F60"/>
<rect x="53.6602" y="15.0442" width="1.15649" height="1.15649" rx="0.578244" fill="#474F60"/>
<rect x="58.6749" y="15.0442" width="1.15649" height="1.15649" rx="0.578244" fill="#474F60"/>
<rect x="63.6896" y="15.0442" width="1.15649" height="1.15649" rx="0.578244" fill="#474F60"/>
<rect x="68.7043" y="15.0442" width="1.15649" height="1.15649" rx="0.578244" fill="#474F60"/>
<rect x="73.7189" y="15.0442" width="1.15649" height="1.15649" rx="0.578244" fill="#474F60"/>
<rect x="78.7336" y="15.0442" width="1.15649" height="1.15649" rx="0.578244" fill="#474F60"/>
<rect x="83.7481" y="15.0442" width="1.15649" height="1.15649" rx="0.578244" fill="#474F60"/>
<rect x="88.7628" y="15.0442" width="1.15649" height="1.15649" rx="0.578244" fill="#474F60"/>
<rect x="93.7775" y="15.0442" width="1.15649" height="1.15649" rx="0.578244" fill="#474F60"/>
<rect x="98.7922" y="15.0442" width="1.15649" height="1.15649" rx="0.578244" fill="#474F60"/>
<rect x="103.807" y="15.0442" width="1.15649" height="1.15649" rx="0.578244" fill="#474F60"/>
<rect x="108.821" y="15.0442" width="1.15649" height="1.15649" rx="0.578244" fill="#474F60"/>
<rect x="113.836" y="15.0442" width="1.15649" height="1.15649" rx="0.578244" fill="#474F60"/>
<rect x="118.851" y="15.0442" width="1.15649" height="1.15649" rx="0.578244" fill="#474F60"/>
<rect x="123.865" y="15.0442" width="1.15649" height="1.15649" rx="0.578244" fill="#474F60"/>
<rect x="128.88" y="15.0442" width="1.15649" height="1.15649" rx="0.578244" fill="#474F60"/>
<rect x="133.895" y="15.0442" width="1.15649" height="1.15649" rx="0.578244" fill="#474F60"/>
<rect x="138.909" y="15.0442" width="1.15649" height="1.15649" rx="0.578244" fill="#474F60"/>
<rect x="143.924" y="15.0442" width="1.15649" height="1.15649" rx="0.578244" fill="#474F60"/>
<rect x="148.939" y="15.0442" width="1.15649" height="1.15649" rx="0.578244" fill="#474F60"/>
<rect x="153.953" y="15.0442" width="1.15649" height="1.15649" rx="0.578244" fill="#474F60"/>
<rect x="158.968" y="15.0442" width="1.15649" height="1.15649" rx="0.578244" fill="#474F60"/>
<rect x="163.983" y="15.0442" width="1.15649" height="1.15649" rx="0.578244" fill="#474F60"/>
<rect x="168.997" y="15.0442" width="1.15649" height="1.15649" rx="0.578244" fill="#474F60"/>
<rect x="174.012" y="15.0442" width="1.15649" height="1.15649" rx="0.578244" fill="#474F60"/>
<rect x="179.027" y="15.0442" width="1.15649" height="1.15649" rx="0.578244" fill="#474F60"/>
<rect x="38.6164" y="20.0591" width="1.15649" height="1.15649" rx="0.578244" fill="#474F60"/>
<rect x="43.631" y="20.0591" width="1.15649" height="1.15649" rx="0.578244" fill="#474F60"/>
<rect x="48.6457" y="20.0591" width="1.15649" height="1.15649" rx="0.578244" fill="#474F60"/>
<rect x="53.6602" y="20.0591" width="1.15649" height="1.15649" rx="0.578244" fill="#474F60"/>
<rect x="58.6749" y="20.0591" width="1.15649" height="1.15649" rx="0.578244" fill="#474F60"/>
<rect x="63.6896" y="20.0591" width="1.15649" height="1.15649" rx="0.578244" fill="#474F60"/>
<rect x="68.7043" y="20.0591" width="1.15649" height="1.15649" rx="0.578244" fill="#474F60"/>
<rect x="73.7189" y="20.0591" width="1.15649" height="1.15649" rx="0.578244" fill="#474F60"/>
<rect x="78.7336" y="20.0591" width="1.15649" height="1.15649" rx="0.578244" fill="#474F60"/>
<rect x="83.7481" y="20.0591" width="1.15649" height="1.15649" rx="0.578244" fill="#474F60"/>
<rect x="88.7628" y="20.0591" width="1.15649" height="1.15649" rx="0.578244" fill="#474F60"/>
<rect x="93.7775" y="20.0591" width="1.15649" height="1.15649" rx="0.578244" fill="#474F60"/>
<rect x="98.7922" y="20.0591" width="1.15649" height="1.15649" rx="0.578244" fill="#474F60"/>
<rect x="103.807" y="20.0591" width="1.15649" height="1.15649" rx="0.578244" fill="#474F60"/>
<rect x="108.821" y="20.0591" width="1.15649" height="1.15649" rx="0.578244" fill="#474F60"/>
<rect x="113.836" y="20.0591" width="1.15649" height="1.15649" rx="0.578244" fill="#474F60"/>
<rect x="118.851" y="20.0591" width="1.15649" height="1.15649" rx="0.578244" fill="#474F60"/>
<rect x="123.865" y="20.0591" width="1.15649" height="1.15649" rx="0.578244" fill="#474F60"/>
<rect x="128.88" y="20.0591" width="1.15649" height="1.15649" rx="0.578244" fill="#474F60"/>
<rect x="133.895" y="20.0591" width="1.15649" height="1.15649" rx="0.578244" fill="#474F60"/>
<rect x="138.909" y="20.0591" width="1.15649" height="1.15649" rx="0.578244" fill="#474F60"/>
<rect x="143.924" y="20.0591" width="1.15649" height="1.15649" rx="0.578244" fill="#474F60"/>
<rect x="148.939" y="20.0591" width="1.15649" height="1.15649" rx="0.578244" fill="#474F60"/>
<rect x="153.953" y="20.0591" width="1.15649" height="1.15649" rx="0.578244" fill="#474F60"/>
<rect x="158.968" y="20.0591" width="1.15649" height="1.15649" rx="0.578244" fill="#474F60"/>
<rect x="163.983" y="20.0591" width="1.15649" height="1.15649" rx="0.578244" fill="#474F60"/>
<rect x="168.997" y="20.0591" width="1.15649" height="1.15649" rx="0.578244" fill="#474F60"/>
<rect x="174.012" y="20.0591" width="1.15649" height="1.15649" rx="0.578244" fill="#474F60"/>
<rect x="179.027" y="20.0591" width="1.15649" height="1.15649" rx="0.578244" fill="#474F60"/>
<rect x="38.6164" y="25.0737" width="1.15649" height="1.15649" rx="0.578244" fill="#474F60"/>
<rect x="43.631" y="25.0737" width="1.15649" height="1.15649" rx="0.578244" fill="#474F60"/>
<rect x="48.6457" y="25.0737" width="1.15649" height="1.15649" rx="0.578244" fill="#474F60"/>
<rect x="53.6602" y="25.0737" width="1.15649" height="1.15649" rx="0.578244" fill="#474F60"/>
<rect x="58.6749" y="25.0737" width="1.15649" height="1.15649" rx="0.578244" fill="#474F60"/>
<rect x="63.6896" y="25.0737" width="1.15649" height="1.15649" rx="0.578244" fill="#474F60"/>
<rect x="68.7043" y="25.0737" width="1.15649" height="1.15649" rx="0.578244" fill="#474F60"/>
<rect x="73.7189" y="25.0737" width="1.15649" height="1.15649" rx="0.578244" fill="#474F60"/>
<rect x="78.7336" y="25.0737" width="1.15649" height="1.15649" rx="0.578244" fill="#474F60"/>
<rect x="83.7481" y="25.0737" width="1.15649" height="1.15649" rx="0.578244" fill="#474F60"/>
<rect x="88.7628" y="25.0737" width="1.15649" height="1.15649" rx="0.578244" fill="#474F60"/>
<rect x="93.7775" y="25.0737" width="1.15649" height="1.15649" rx="0.578244" fill="#474F60"/>
<rect x="98.7922" y="25.0737" width="1.15649" height="1.15649" rx="0.578244" fill="#474F60"/>
<rect x="103.807" y="25.0737" width="1.15649" height="1.15649" rx="0.578244" fill="#474F60"/>
<rect x="108.821" y="25.0737" width="1.15649" height="1.15649" rx="0.578244" fill="#474F60"/>
<rect x="113.836" y="25.0737" width="1.15649" height="1.15649" rx="0.578244" fill="#474F60"/>
<rect x="118.851" y="25.0737" width="1.15649" height="1.15649" rx="0.578244" fill="#474F60"/>
<rect x="123.865" y="25.0737" width="1.15649" height="1.15649" rx="0.578244" fill="#474F60"/>
<rect x="128.88" y="25.0737" width="1.15649" height="1.15649" rx="0.578244" fill="#474F60"/>
<rect x="133.895" y="25.0737" width="1.15649" height="1.15649" rx="0.578244" fill="#474F60"/>
<rect x="138.909" y="25.0737" width="1.15649" height="1.15649" rx="0.578244" fill="#474F60"/>
<rect x="143.924" y="25.0737" width="1.15649" height="1.15649" rx="0.578244" fill="#474F60"/>
<rect x="148.939" y="25.0737" width="1.15649" height="1.15649" rx="0.578244" fill="#474F60"/>
<rect x="153.953" y="25.0737" width="1.15649" height="1.15649" rx="0.578244" fill="#474F60"/>
<rect x="158.968" y="25.0737" width="1.15649" height="1.15649" rx="0.578244" fill="#474F60"/>
<rect x="163.983" y="25.0737" width="1.15649" height="1.15649" rx="0.578244" fill="#474F60"/>
<rect x="168.997" y="25.0737" width="1.15649" height="1.15649" rx="0.578244" fill="#474F60"/>
<rect x="174.012" y="25.0737" width="1.15649" height="1.15649" rx="0.578244" fill="#474F60"/>
<rect x="179.027" y="25.0737" width="1.15649" height="1.15649" rx="0.578244" fill="#474F60"/>
<rect x="38.6164" y="30.0884" width="1.15649" height="1.15649" rx="0.578244" fill="#474F60"/>
<rect x="43.631" y="30.0884" width="1.15649" height="1.15649" rx="0.578244" fill="#474F60"/>
<rect x="48.6457" y="30.0884" width="1.15649" height="1.15649" rx="0.578244" fill="#474F60"/>
<rect x="53.6602" y="30.0884" width="1.15649" height="1.15649" rx="0.578244" fill="#474F60"/>
<rect x="58.6749" y="30.0884" width="1.15649" height="1.15649" rx="0.578244" fill="#474F60"/>
<rect x="63.6896" y="30.0884" width="1.15649" height="1.15649" rx="0.578244" fill="#474F60"/>
<rect x="68.7043" y="30.0884" width="1.15649" height="1.15649" rx="0.578244" fill="#474F60"/>
<rect x="73.7189" y="30.0884" width="1.15649" height="1.15649" rx="0.578244" fill="#474F60"/>
<rect x="78.7336" y="30.0884" width="1.15649" height="1.15649" rx="0.578244" fill="#474F60"/>
<rect x="83.7481" y="30.0884" width="1.15649" height="1.15649" rx="0.578244" fill="#474F60"/>
<rect x="88.7628" y="30.0884" width="1.15649" height="1.15649" rx="0.578244" fill="#474F60"/>
<rect x="93.7775" y="30.0884" width="1.15649" height="1.15649" rx="0.578244" fill="#474F60"/>
<rect x="98.7922" y="30.0884" width="1.15649" height="1.15649" rx="0.578244" fill="#474F60"/>
<rect x="103.807" y="30.0884" width="1.15649" height="1.15649" rx="0.578244" fill="#474F60"/>
<rect x="108.821" y="30.0884" width="1.15649" height="1.15649" rx="0.578244" fill="#474F60"/>
<rect x="113.836" y="30.0884" width="1.15649" height="1.15649" rx="0.578244" fill="#474F60"/>
<rect x="118.851" y="30.0884" width="1.15649" height="1.15649" rx="0.578244" fill="#474F60"/>
<rect x="123.865" y="30.0884" width="1.15649" height="1.15649" rx="0.578244" fill="#474F60"/>
<rect x="128.88" y="30.0884" width="1.15649" height="1.15649" rx="0.578244" fill="#474F60"/>
<rect x="133.895" y="30.0884" width="1.15649" height="1.15649" rx="0.578244" fill="#474F60"/>
<rect x="138.909" y="30.0884" width="1.15649" height="1.15649" rx="0.578244" fill="#474F60"/>
<rect x="143.924" y="30.0884" width="1.15649" height="1.15649" rx="0.578244" fill="#474F60"/>
<rect x="148.939" y="30.0884" width="1.15649" height="1.15649" rx="0.578244" fill="#474F60"/>
<rect x="153.953" y="30.0884" width="1.15649" height="1.15649" rx="0.578244" fill="#474F60"/>
<rect x="158.968" y="30.0884" width="1.15649" height="1.15649" rx="0.578244" fill="#474F60"/>
<rect x="163.983" y="30.0884" width="1.15649" height="1.15649" rx="0.578244" fill="#474F60"/>
<rect x="168.997" y="30.0884" width="1.15649" height="1.15649" rx="0.578244" fill="#474F60"/>
<rect x="174.012" y="30.0884" width="1.15649" height="1.15649" rx="0.578244" fill="#474F60"/>
<rect x="179.027" y="30.0884" width="1.15649" height="1.15649" rx="0.578244" fill="#474F60"/>
<rect x="38.6164" y="35.103" width="1.15649" height="1.15649" rx="0.578244" fill="#474F60"/>
<rect x="43.631" y="35.103" width="1.15649" height="1.15649" rx="0.578244" fill="#474F60"/>
<rect x="48.6457" y="35.103" width="1.15649" height="1.15649" rx="0.578244" fill="#474F60"/>
<rect x="53.6602" y="35.103" width="1.15649" height="1.15649" rx="0.578244" fill="#474F60"/>
<rect x="58.6749" y="35.103" width="1.15649" height="1.15649" rx="0.578244" fill="#474F60"/>
<rect x="63.6896" y="35.103" width="1.15649" height="1.15649" rx="0.578244" fill="#474F60"/>
<rect x="68.7043" y="35.103" width="1.15649" height="1.15649" rx="0.578244" fill="#474F60"/>
<rect x="73.7189" y="35.103" width="1.15649" height="1.15649" rx="0.578244" fill="#474F60"/>
<rect x="78.7336" y="35.103" width="1.15649" height="1.15649" rx="0.578244" fill="#474F60"/>
<rect x="83.7481" y="35.103" width="1.15649" height="1.15649" rx="0.578244" fill="#474F60"/>
<rect x="88.7628" y="35.103" width="1.15649" height="1.15649" rx="0.578244" fill="#474F60"/>
<rect x="93.7775" y="35.103" width="1.15649" height="1.15649" rx="0.578244" fill="#474F60"/>
<rect x="98.7922" y="35.103" width="1.15649" height="1.15649" rx="0.578244" fill="#474F60"/>
<rect x="103.807" y="35.103" width="1.15649" height="1.15649" rx="0.578244" fill="#474F60"/>
<rect x="108.821" y="35.103" width="1.15649" height="1.15649" rx="0.578244" fill="#474F60"/>
<rect x="113.836" y="35.103" width="1.15649" height="1.15649" rx="0.578244" fill="#474F60"/>
<rect x="118.851" y="35.103" width="1.15649" height="1.15649" rx="0.578244" fill="#474F60"/>
<rect x="123.865" y="35.103" width="1.15649" height="1.15649" rx="0.578244" fill="#474F60"/>
<rect x="128.88" y="35.103" width="1.15649" height="1.15649" rx="0.578244" fill="#474F60"/>
<rect x="133.895" y="35.103" width="1.15649" height="1.15649" rx="0.578244" fill="#474F60"/>
<rect x="138.909" y="35.103" width="1.15649" height="1.15649" rx="0.578244" fill="#474F60"/>
<rect x="143.924" y="35.103" width="1.15649" height="1.15649" rx="0.578244" fill="#474F60"/>
<rect x="148.939" y="35.103" width="1.15649" height="1.15649" rx="0.578244" fill="#474F60"/>
<rect x="153.953" y="35.103" width="1.15649" height="1.15649" rx="0.578244" fill="#474F60"/>
<rect x="158.968" y="35.103" width="1.15649" height="1.15649" rx="0.578244" fill="#474F60"/>
<rect x="163.983" y="35.103" width="1.15649" height="1.15649" rx="0.578244" fill="#474F60"/>
<rect x="168.997" y="35.103" width="1.15649" height="1.15649" rx="0.578244" fill="#474F60"/>
<rect x="174.012" y="35.103" width="1.15649" height="1.15649" rx="0.578244" fill="#474F60"/>
<rect x="179.027" y="35.103" width="1.15649" height="1.15649" rx="0.578244" fill="#474F60"/>
<rect x="38.6164" y="40.1177" width="1.15649" height="1.15649" rx="0.578244" fill="#474F60"/>
<rect x="43.631" y="40.1177" width="1.15649" height="1.15649" rx="0.578244" fill="#474F60"/>
<rect x="48.6457" y="40.1177" width="1.15649" height="1.15649" rx="0.578244" fill="#474F60"/>
<rect x="53.6602" y="40.1177" width="1.15649" height="1.15649" rx="0.578244" fill="#474F60"/>
<rect x="58.6749" y="40.1177" width="1.15649" height="1.15649" rx="0.578244" fill="#474F60"/>
<rect x="63.6896" y="40.1177" width="1.15649" height="1.15649" rx="0.578244" fill="#474F60"/>
<rect x="68.7043" y="40.1177" width="1.15649" height="1.15649" rx="0.578244" fill="#474F60"/>
<rect x="73.7189" y="40.1177" width="1.15649" height="1.15649" rx="0.578244" fill="#474F60"/>
<rect x="78.7336" y="40.1177" width="1.15649" height="1.15649" rx="0.578244" fill="#474F60"/>
<rect x="83.7481" y="40.1177" width="1.15649" height="1.15649" rx="0.578244" fill="#474F60"/>
<rect x="88.7628" y="40.1177" width="1.15649" height="1.15649" rx="0.578244" fill="#474F60"/>
<rect x="93.7775" y="40.1177" width="1.15649" height="1.15649" rx="0.578244" fill="#474F60"/>
<rect x="98.7922" y="40.1177" width="1.15649" height="1.15649" rx="0.578244" fill="#474F60"/>
<rect x="103.807" y="40.1177" width="1.15649" height="1.15649" rx="0.578244" fill="#474F60"/>
<rect x="108.821" y="40.1177" width="1.15649" height="1.15649" rx="0.578244" fill="#474F60"/>
<rect x="113.836" y="40.1177" width="1.15649" height="1.15649" rx="0.578244" fill="#474F60"/>
<rect x="118.851" y="40.1177" width="1.15649" height="1.15649" rx="0.578244" fill="#474F60"/>
<rect x="123.865" y="40.1177" width="1.15649" height="1.15649" rx="0.578244" fill="#474F60"/>
<rect x="128.88" y="40.1177" width="1.15649" height="1.15649" rx="0.578244" fill="#474F60"/>
<rect x="133.895" y="40.1177" width="1.15649" height="1.15649" rx="0.578244" fill="#474F60"/>
<rect x="138.909" y="40.1177" width="1.15649" height="1.15649" rx="0.578244" fill="#474F60"/>
<rect x="143.924" y="40.1177" width="1.15649" height="1.15649" rx="0.578244" fill="#474F60"/>
<rect x="148.939" y="40.1177" width="1.15649" height="1.15649" rx="0.578244" fill="#474F60"/>
<rect x="153.953" y="40.1177" width="1.15649" height="1.15649" rx="0.578244" fill="#474F60"/>
<rect x="158.968" y="40.1177" width="1.15649" height="1.15649" rx="0.578244" fill="#474F60"/>
<rect x="163.983" y="40.1177" width="1.15649" height="1.15649" rx="0.578244" fill="#474F60"/>
<rect x="168.997" y="40.1177" width="1.15649" height="1.15649" rx="0.578244" fill="#474F60"/>
<rect x="174.012" y="40.1177" width="1.15649" height="1.15649" rx="0.578244" fill="#474F60"/>
<rect x="179.027" y="40.1177" width="1.15649" height="1.15649" rx="0.578244" fill="#474F60"/>
<rect x="38.6164" y="45.1321" width="1.15649" height="1.15649" rx="0.578244" fill="#474F60"/>
<rect x="43.631" y="45.1321" width="1.15649" height="1.15649" rx="0.578244" fill="#474F60"/>
<rect x="48.6457" y="45.1321" width="1.15649" height="1.15649" rx="0.578244" fill="#474F60"/>
<rect x="53.6602" y="45.1321" width="1.15649" height="1.15649" rx="0.578244" fill="#474F60"/>
<rect x="58.6749" y="45.1321" width="1.15649" height="1.15649" rx="0.578244" fill="#474F60"/>
<rect x="63.6896" y="45.1321" width="1.15649" height="1.15649" rx="0.578244" fill="#474F60"/>
<rect x="68.7043" y="45.1321" width="1.15649" height="1.15649" rx="0.578244" fill="#474F60"/>
<rect x="73.7189" y="45.1321" width="1.15649" height="1.15649" rx="0.578244" fill="#474F60"/>
<rect x="78.7336" y="45.1321" width="1.15649" height="1.15649" rx="0.578244" fill="#474F60"/>
<rect x="83.7481" y="45.1321" width="1.15649" height="1.15649" rx="0.578244" fill="#474F60"/>
<rect x="88.7628" y="45.1321" width="1.15649" height="1.15649" rx="0.578244" fill="#474F60"/>
<rect x="93.7775" y="45.1321" width="1.15649" height="1.15649" rx="0.578244" fill="#474F60"/>
<rect x="98.7922" y="45.1321" width="1.15649" height="1.15649" rx="0.578244" fill="#474F60"/>
<rect x="103.807" y="45.1321" width="1.15649" height="1.15649" rx="0.578244" fill="#474F60"/>
<rect x="108.821" y="45.1321" width="1.15649" height="1.15649" rx="0.578244" fill="#474F60"/>
<rect x="113.836" y="45.1321" width="1.15649" height="1.15649" rx="0.578244" fill="#474F60"/>
<rect x="118.851" y="45.1321" width="1.15649" height="1.15649" rx="0.578244" fill="#474F60"/>
<rect x="123.865" y="45.1321" width="1.15649" height="1.15649" rx="0.578244" fill="#474F60"/>
<rect x="128.88" y="45.1321" width="1.15649" height="1.15649" rx="0.578244" fill="#474F60"/>
<rect x="133.895" y="45.1321" width="1.15649" height="1.15649" rx="0.578244" fill="#474F60"/>
<rect x="138.909" y="45.1321" width="1.15649" height="1.15649" rx="0.578244" fill="#474F60"/>
<rect x="143.924" y="45.1321" width="1.15649" height="1.15649" rx="0.578244" fill="#474F60"/>
<rect x="148.939" y="45.1321" width="1.15649" height="1.15649" rx="0.578244" fill="#474F60"/>
<rect x="153.953" y="45.1321" width="1.15649" height="1.15649" rx="0.578244" fill="#474F60"/>
<rect x="158.968" y="45.1321" width="1.15649" height="1.15649" rx="0.578244" fill="#474F60"/>
<rect x="163.983" y="45.1321" width="1.15649" height="1.15649" rx="0.578244" fill="#474F60"/>
<rect x="168.997" y="45.1321" width="1.15649" height="1.15649" rx="0.578244" fill="#474F60"/>
<rect x="174.012" y="45.1321" width="1.15649" height="1.15649" rx="0.578244" fill="#474F60"/>
<rect x="179.027" y="45.1321" width="1.15649" height="1.15649" rx="0.578244" fill="#474F60"/>
<rect x="38.6164" y="50.147" width="1.15649" height="1.15649" rx="0.578244" fill="#474F60"/>
<rect x="43.631" y="50.147" width="1.15649" height="1.15649" rx="0.578244" fill="#474F60"/>
<rect x="48.6457" y="50.147" width="1.15649" height="1.15649" rx="0.578244" fill="#474F60"/>
<rect x="53.6602" y="50.147" width="1.15649" height="1.15649" rx="0.578244" fill="#474F60"/>
<rect x="58.6749" y="50.147" width="1.15649" height="1.15649" rx="0.578244" fill="#474F60"/>
<rect x="63.6896" y="50.147" width="1.15649" height="1.15649" rx="0.578244" fill="#474F60"/>
<rect x="68.7043" y="50.147" width="1.15649" height="1.15649" rx="0.578244" fill="#474F60"/>
<rect x="73.7189" y="50.147" width="1.15649" height="1.15649" rx="0.578244" fill="#474F60"/>
<rect x="78.7336" y="50.147" width="1.15649" height="1.15649" rx="0.578244" fill="#474F60"/>
<rect x="83.7481" y="50.147" width="1.15649" height="1.15649" rx="0.578244" fill="#474F60"/>
<rect x="88.7628" y="50.147" width="1.15649" height="1.15649" rx="0.578244" fill="#474F60"/>
<rect x="93.7775" y="50.147" width="1.15649" height="1.15649" rx="0.578244" fill="#474F60"/>
<rect x="98.7922" y="50.147" width="1.15649" height="1.15649" rx="0.578244" fill="#474F60"/>
<rect x="103.807" y="50.147" width="1.15649" height="1.15649" rx="0.578244" fill="#474F60"/>
<rect x="108.821" y="50.147" width="1.15649" height="1.15649" rx="0.578244" fill="#474F60"/>
<rect x="113.836" y="50.147" width="1.15649" height="1.15649" rx="0.578244" fill="#474F60"/>
<rect x="118.851" y="50.147" width="1.15649" height="1.15649" rx="0.578244" fill="#474F60"/>
<rect x="123.865" y="50.147" width="1.15649" height="1.15649" rx="0.578244" fill="#474F60"/>
<rect x="128.88" y="50.147" width="1.15649" height="1.15649" rx="0.578244" fill="#474F60"/>
<rect x="133.895" y="50.147" width="1.15649" height="1.15649" rx="0.578244" fill="#474F60"/>
<rect x="138.909" y="50.147" width="1.15649" height="1.15649" rx="0.578244" fill="#474F60"/>
<rect x="143.924" y="50.147" width="1.15649" height="1.15649" rx="0.578244" fill="#474F60"/>
<rect x="148.939" y="50.147" width="1.15649" height="1.15649" rx="0.578244" fill="#474F60"/>
<rect x="153.953" y="50.147" width="1.15649" height="1.15649" rx="0.578244" fill="#474F60"/>
<rect x="158.968" y="50.147" width="1.15649" height="1.15649" rx="0.578244" fill="#474F60"/>
<rect x="163.983" y="50.147" width="1.15649" height="1.15649" rx="0.578244" fill="#474F60"/>
<rect x="168.997" y="50.147" width="1.15649" height="1.15649" rx="0.578244" fill="#474F60"/>
<rect x="174.012" y="50.147" width="1.15649" height="1.15649" rx="0.578244" fill="#474F60"/>
<rect x="179.027" y="50.147" width="1.15649" height="1.15649" rx="0.578244" fill="#474F60"/>
<rect x="38.6164" y="55.1616" width="1.15649" height="1.15649" rx="0.578244" fill="#474F60"/>
<rect x="43.631" y="55.1616" width="1.15649" height="1.15649" rx="0.578244" fill="#474F60"/>
<rect x="48.6457" y="55.1616" width="1.15649" height="1.15649" rx="0.578244" fill="#474F60"/>
<rect x="53.6602" y="55.1616" width="1.15649" height="1.15649" rx="0.578244" fill="#474F60"/>
<rect x="58.6749" y="55.1616" width="1.15649" height="1.15649" rx="0.578244" fill="#474F60"/>
<rect x="63.6896" y="55.1616" width="1.15649" height="1.15649" rx="0.578244" fill="#474F60"/>
<rect x="68.7043" y="55.1616" width="1.15649" height="1.15649" rx="0.578244" fill="#474F60"/>
<rect x="73.7189" y="55.1616" width="1.15649" height="1.15649" rx="0.578244" fill="#474F60"/>
<rect x="78.7336" y="55.1616" width="1.15649" height="1.15649" rx="0.578244" fill="#474F60"/>
<rect x="83.7481" y="55.1616" width="1.15649" height="1.15649" rx="0.578244" fill="#474F60"/>
<rect x="88.7628" y="55.1616" width="1.15649" height="1.15649" rx="0.578244" fill="#474F60"/>
<rect x="93.7775" y="55.1616" width="1.15649" height="1.15649" rx="0.578244" fill="#474F60"/>
<rect x="98.7922" y="55.1616" width="1.15649" height="1.15649" rx="0.578244" fill="#474F60"/>
<rect x="103.807" y="55.1616" width="1.15649" height="1.15649" rx="0.578244" fill="#474F60"/>
<rect x="108.821" y="55.1616" width="1.15649" height="1.15649" rx="0.578244" fill="#474F60"/>
<rect x="113.836" y="55.1616" width="1.15649" height="1.15649" rx="0.578244" fill="#474F60"/>
<rect x="118.851" y="55.1616" width="1.15649" height="1.15649" rx="0.578244" fill="#474F60"/>
<rect x="123.865" y="55.1616" width="1.15649" height="1.15649" rx="0.578244" fill="#474F60"/>
<rect x="128.88" y="55.1616" width="1.15649" height="1.15649" rx="0.578244" fill="#474F60"/>
<rect x="133.895" y="55.1616" width="1.15649" height="1.15649" rx="0.578244" fill="#474F60"/>
<rect x="138.909" y="55.1616" width="1.15649" height="1.15649" rx="0.578244" fill="#474F60"/>
<rect x="143.924" y="55.1616" width="1.15649" height="1.15649" rx="0.578244" fill="#474F60"/>
<rect x="148.939" y="55.1616" width="1.15649" height="1.15649" rx="0.578244" fill="#474F60"/>
<rect x="153.953" y="55.1616" width="1.15649" height="1.15649" rx="0.578244" fill="#474F60"/>
<rect x="158.968" y="55.1616" width="1.15649" height="1.15649" rx="0.578244" fill="#474F60"/>
<rect x="163.983" y="55.1616" width="1.15649" height="1.15649" rx="0.578244" fill="#474F60"/>
<rect x="168.997" y="55.1616" width="1.15649" height="1.15649" rx="0.578244" fill="#474F60"/>
<rect x="174.012" y="55.1616" width="1.15649" height="1.15649" rx="0.578244" fill="#474F60"/>
<rect x="179.027" y="55.1616" width="1.15649" height="1.15649" rx="0.578244" fill="#474F60"/>
<rect x="38.6164" y="60.1763" width="1.15649" height="1.15649" rx="0.578244" fill="#474F60"/>
<rect x="43.631" y="60.1763" width="1.15649" height="1.15649" rx="0.578244" fill="#474F60"/>
<rect x="48.6457" y="60.1763" width="1.15649" height="1.15649" rx="0.578244" fill="#474F60"/>
<rect x="53.6602" y="60.1763" width="1.15649" height="1.15649" rx="0.578244" fill="#474F60"/>
<rect x="58.6749" y="60.1763" width="1.15649" height="1.15649" rx="0.578244" fill="#474F60"/>
<rect x="63.6896" y="60.1763" width="1.15649" height="1.15649" rx="0.578244" fill="#474F60"/>
<rect x="68.7043" y="60.1763" width="1.15649" height="1.15649" rx="0.578244" fill="#474F60"/>
<rect x="73.7189" y="60.1763" width="1.15649" height="1.15649" rx="0.578244" fill="#474F60"/>
<rect x="78.7336" y="60.1763" width="1.15649" height="1.15649" rx="0.578244" fill="#474F60"/>
<rect x="83.7481" y="60.1763" width="1.15649" height="1.15649" rx="0.578244" fill="#474F60"/>
<rect x="88.7628" y="60.1763" width="1.15649" height="1.15649" rx="0.578244" fill="#474F60"/>
<rect x="93.7775" y="60.1763" width="1.15649" height="1.15649" rx="0.578244" fill="#474F60"/>
<rect x="98.7922" y="60.1763" width="1.15649" height="1.15649" rx="0.578244" fill="#474F60"/>
<rect x="103.807" y="60.1763" width="1.15649" height="1.15649" rx="0.578244" fill="#474F60"/>
<rect x="108.821" y="60.1763" width="1.15649" height="1.15649" rx="0.578244" fill="#474F60"/>
<rect x="113.836" y="60.1763" width="1.15649" height="1.15649" rx="0.578244" fill="#474F60"/>
<rect x="118.851" y="60.1763" width="1.15649" height="1.15649" rx="0.578244" fill="#474F60"/>
<rect x="123.865" y="60.1763" width="1.15649" height="1.15649" rx="0.578244" fill="#474F60"/>
<rect x="128.88" y="60.1763" width="1.15649" height="1.15649" rx="0.578244" fill="#474F60"/>
<rect x="133.895" y="60.1763" width="1.15649" height="1.15649" rx="0.578244" fill="#474F60"/>
<rect x="138.909" y="60.1763" width="1.15649" height="1.15649" rx="0.578244" fill="#474F60"/>
<rect x="143.924" y="60.1763" width="1.15649" height="1.15649" rx="0.578244" fill="#474F60"/>
<rect x="148.939" y="60.1763" width="1.15649" height="1.15649" rx="0.578244" fill="#474F60"/>
<rect x="153.953" y="60.1763" width="1.15649" height="1.15649" rx="0.578244" fill="#474F60"/>
<rect x="158.968" y="60.1763" width="1.15649" height="1.15649" rx="0.578244" fill="#474F60"/>
<rect x="163.983" y="60.1763" width="1.15649" height="1.15649" rx="0.578244" fill="#474F60"/>
<rect x="168.997" y="60.1763" width="1.15649" height="1.15649" rx="0.578244" fill="#474F60"/>
<rect x="174.012" y="60.1763" width="1.15649" height="1.15649" rx="0.578244" fill="#474F60"/>
<rect x="179.027" y="60.1763" width="1.15649" height="1.15649" rx="0.578244" fill="#474F60"/>
<rect x="38.6164" y="65.1909" width="1.15649" height="1.15649" rx="0.578244" fill="#474F60"/>
<rect x="43.631" y="65.1909" width="1.15649" height="1.15649" rx="0.578244" fill="#474F60"/>
<rect x="48.6457" y="65.1909" width="1.15649" height="1.15649" rx="0.578244" fill="#474F60"/>
<rect x="53.6602" y="65.1909" width="1.15649" height="1.15649" rx="0.578244" fill="#474F60"/>
<rect x="58.6749" y="65.1909" width="1.15649" height="1.15649" rx="0.578244" fill="#474F60"/>
<rect x="63.6896" y="65.1909" width="1.15649" height="1.15649" rx="0.578244" fill="#474F60"/>
<rect x="68.7043" y="65.1909" width="1.15649" height="1.15649" rx="0.578244" fill="#474F60"/>
<rect x="73.7189" y="65.1909" width="1.15649" height="1.15649" rx="0.578244" fill="#474F60"/>
<rect x="78.7336" y="65.1909" width="1.15649" height="1.15649" rx="0.578244" fill="#474F60"/>
<rect x="83.7481" y="65.1909" width="1.15649" height="1.15649" rx="0.578244" fill="#474F60"/>
<rect x="88.7628" y="65.1909" width="1.15649" height="1.15649" rx="0.578244" fill="#474F60"/>
<rect x="93.7775" y="65.1909" width="1.15649" height="1.15649" rx="0.578244" fill="#474F60"/>
<rect x="98.7922" y="65.1909" width="1.15649" height="1.15649" rx="0.578244" fill="#474F60"/>
<rect x="103.807" y="65.1909" width="1.15649" height="1.15649" rx="0.578244" fill="#474F60"/>
<rect x="108.821" y="65.1909" width="1.15649" height="1.15649" rx="0.578244" fill="#474F60"/>
<rect x="113.836" y="65.1909" width="1.15649" height="1.15649" rx="0.578244" fill="#474F60"/>
<rect x="118.851" y="65.1909" width="1.15649" height="1.15649" rx="0.578244" fill="#474F60"/>
<rect x="123.865" y="65.1909" width="1.15649" height="1.15649" rx="0.578244" fill="#474F60"/>
<rect x="128.88" y="65.1909" width="1.15649" height="1.15649" rx="0.578244" fill="#474F60"/>
<rect x="133.895" y="65.1909" width="1.15649" height="1.15649" rx="0.578244" fill="#474F60"/>
<rect x="138.909" y="65.1909" width="1.15649" height="1.15649" rx="0.578244" fill="#474F60"/>
<rect x="143.924" y="65.1909" width="1.15649" height="1.15649" rx="0.578244" fill="#474F60"/>
<rect x="148.939" y="65.1909" width="1.15649" height="1.15649" rx="0.578244" fill="#474F60"/>
<rect x="153.953" y="65.1909" width="1.15649" height="1.15649" rx="0.578244" fill="#474F60"/>
<rect x="158.968" y="65.1909" width="1.15649" height="1.15649" rx="0.578244" fill="#474F60"/>
<rect x="163.983" y="65.1909" width="1.15649" height="1.15649" rx="0.578244" fill="#474F60"/>
<rect x="168.997" y="65.1909" width="1.15649" height="1.15649" rx="0.578244" fill="#474F60"/>
<rect x="174.012" y="65.1909" width="1.15649" height="1.15649" rx="0.578244" fill="#474F60"/>
<rect x="179.027" y="65.1909" width="1.15649" height="1.15649" rx="0.578244" fill="#474F60"/>
<rect x="38.6164" y="70.2056" width="1.15649" height="1.15649" rx="0.578244" fill="#474F60"/>
<rect x="43.631" y="70.2056" width="1.15649" height="1.15649" rx="0.578244" fill="#474F60"/>
<rect x="48.6457" y="70.2056" width="1.15649" height="1.15649" rx="0.578244" fill="#474F60"/>
<rect x="53.6602" y="70.2056" width="1.15649" height="1.15649" rx="0.578244" fill="#474F60"/>
<rect x="58.6749" y="70.2056" width="1.15649" height="1.15649" rx="0.578244" fill="#474F60"/>
<rect x="63.6896" y="70.2056" width="1.15649" height="1.15649" rx="0.578244" fill="#474F60"/>
<rect x="68.7043" y="70.2056" width="1.15649" height="1.15649" rx="0.578244" fill="#474F60"/>
<rect x="73.7189" y="70.2056" width="1.15649" height="1.15649" rx="0.578244" fill="#474F60"/>
<rect x="78.7336" y="70.2056" width="1.15649" height="1.15649" rx="0.578244" fill="#474F60"/>
<rect x="83.7481" y="70.2056" width="1.15649" height="1.15649" rx="0.578244" fill="#474F60"/>
<rect x="88.7628" y="70.2056" width="1.15649" height="1.15649" rx="0.578244" fill="#474F60"/>
<rect x="93.7775" y="70.2056" width="1.15649" height="1.15649" rx="0.578244" fill="#474F60"/>
<rect x="98.7922" y="70.2056" width="1.15649" height="1.15649" rx="0.578244" fill="#474F60"/>
<rect x="103.807" y="70.2056" width="1.15649" height="1.15649" rx="0.578244" fill="#474F60"/>
<rect x="108.821" y="70.2056" width="1.15649" height="1.15649" rx="0.578244" fill="#474F60"/>
<rect x="113.836" y="70.2056" width="1.15649" height="1.15649" rx="0.578244" fill="#474F60"/>
<rect x="118.851" y="70.2056" width="1.15649" height="1.15649" rx="0.578244" fill="#474F60"/>
<rect x="123.865" y="70.2056" width="1.15649" height="1.15649" rx="0.578244" fill="#474F60"/>
<rect x="128.88" y="70.2056" width="1.15649" height="1.15649" rx="0.578244" fill="#474F60"/>
<rect x="133.895" y="70.2056" width="1.15649" height="1.15649" rx="0.578244" fill="#474F60"/>
<rect x="138.909" y="70.2056" width="1.15649" height="1.15649" rx="0.578244" fill="#474F60"/>
<rect x="143.924" y="70.2056" width="1.15649" height="1.15649" rx="0.578244" fill="#474F60"/>
<rect x="148.939" y="70.2056" width="1.15649" height="1.15649" rx="0.578244" fill="#474F60"/>
<rect x="153.953" y="70.2056" width="1.15649" height="1.15649" rx="0.578244" fill="#474F60"/>
<rect x="158.968" y="70.2056" width="1.15649" height="1.15649" rx="0.578244" fill="#474F60"/>
<rect x="163.983" y="70.2056" width="1.15649" height="1.15649" rx="0.578244" fill="#474F60"/>
<rect x="168.997" y="70.2056" width="1.15649" height="1.15649" rx="0.578244" fill="#474F60"/>
<rect x="174.012" y="70.2056" width="1.15649" height="1.15649" rx="0.578244" fill="#474F60"/>
<rect x="179.027" y="70.2056" width="1.15649" height="1.15649" rx="0.578244" fill="#474F60"/>
<rect x="38.6164" y="75.22" width="1.15649" height="1.15649" rx="0.578244" fill="#474F60"/>
<rect x="43.631" y="75.22" width="1.15649" height="1.15649" rx="0.578244" fill="#474F60"/>
<rect x="48.6457" y="75.22" width="1.15649" height="1.15649" rx="0.578244" fill="#474F60"/>
<rect x="53.6602" y="75.22" width="1.15649" height="1.15649" rx="0.578244" fill="#474F60"/>
<rect x="58.6749" y="75.22" width="1.15649" height="1.15649" rx="0.578244" fill="#474F60"/>
<rect x="63.6896" y="75.22" width="1.15649" height="1.15649" rx="0.578244" fill="#474F60"/>
<rect x="68.7043" y="75.22" width="1.15649" height="1.15649" rx="0.578244" fill="#474F60"/>
<rect x="73.7189" y="75.22" width="1.15649" height="1.15649" rx="0.578244" fill="#474F60"/>
<rect x="78.7336" y="75.22" width="1.15649" height="1.15649" rx="0.578244" fill="#474F60"/>
<rect x="83.7481" y="75.22" width="1.15649" height="1.15649" rx="0.578244" fill="#474F60"/>
<rect x="88.7628" y="75.22" width="1.15649" height="1.15649" rx="0.578244" fill="#474F60"/>
<rect x="93.7775" y="75.22" width="1.15649" height="1.15649" rx="0.578244" fill="#474F60"/>
<rect x="98.7922" y="75.22" width="1.15649" height="1.15649" rx="0.578244" fill="#474F60"/>
<rect x="103.807" y="75.22" width="1.15649" height="1.15649" rx="0.578244" fill="#474F60"/>
<rect x="108.821" y="75.22" width="1.15649" height="1.15649" rx="0.578244" fill="#474F60"/>
<rect x="113.836" y="75.22" width="1.15649" height="1.15649" rx="0.578244" fill="#474F60"/>
<rect x="118.851" y="75.22" width="1.15649" height="1.15649" rx="0.578244" fill="#474F60"/>
<rect x="123.865" y="75.22" width="1.15649" height="1.15649" rx="0.578244" fill="#474F60"/>
<rect x="128.88" y="75.22" width="1.15649" height="1.15649" rx="0.578244" fill="#474F60"/>
<rect x="133.895" y="75.22" width="1.15649" height="1.15649" rx="0.578244" fill="#474F60"/>
<rect x="138.909" y="75.22" width="1.15649" height="1.15649" rx="0.578244" fill="#474F60"/>
<rect x="143.924" y="75.22" width="1.15649" height="1.15649" rx="0.578244" fill="#474F60"/>
<rect x="148.939" y="75.22" width="1.15649" height="1.15649" rx="0.578244" fill="#474F60"/>
<rect x="153.953" y="75.22" width="1.15649" height="1.15649" rx="0.578244" fill="#474F60"/>
<rect x="158.968" y="75.22" width="1.15649" height="1.15649" rx="0.578244" fill="#474F60"/>
<rect x="163.983" y="75.22" width="1.15649" height="1.15649" rx="0.578244" fill="#474F60"/>
<rect x="168.997" y="75.22" width="1.15649" height="1.15649" rx="0.578244" fill="#474F60"/>
<rect x="174.012" y="75.22" width="1.15649" height="1.15649" rx="0.578244" fill="#474F60"/>
<rect x="179.027" y="75.22" width="1.15649" height="1.15649" rx="0.578244" fill="#474F60"/>
<rect x="38.6164" y="80.2349" width="1.15649" height="1.15649" rx="0.578244" fill="#474F60"/>
<rect x="43.631" y="80.2349" width="1.15649" height="1.15649" rx="0.578244" fill="#474F60"/>
<rect x="48.6457" y="80.2349" width="1.15649" height="1.15649" rx="0.578244" fill="#474F60"/>
<rect x="53.6602" y="80.2349" width="1.15649" height="1.15649" rx="0.578244" fill="#474F60"/>
<rect x="58.6749" y="80.2349" width="1.15649" height="1.15649" rx="0.578244" fill="#474F60"/>
<rect x="63.6896" y="80.2349" width="1.15649" height="1.15649" rx="0.578244" fill="#474F60"/>
<rect x="68.7043" y="80.2349" width="1.15649" height="1.15649" rx="0.578244" fill="#474F60"/>
<rect x="73.7189" y="80.2349" width="1.15649" height="1.15649" rx="0.578244" fill="#474F60"/>
<rect x="78.7336" y="80.2349" width="1.15649" height="1.15649" rx="0.578244" fill="#474F60"/>
<rect x="83.7481" y="80.2349" width="1.15649" height="1.15649" rx="0.578244" fill="#474F60"/>
<rect x="88.7628" y="80.2349" width="1.15649" height="1.15649" rx="0.578244" fill="#474F60"/>
<rect x="93.7775" y="80.2349" width="1.15649" height="1.15649" rx="0.578244" fill="#474F60"/>
<rect x="98.7922" y="80.2349" width="1.15649" height="1.15649" rx="0.578244" fill="#474F60"/>
<rect x="103.807" y="80.2349" width="1.15649" height="1.15649" rx="0.578244" fill="#474F60"/>
<rect x="108.821" y="80.2349" width="1.15649" height="1.15649" rx="0.578244" fill="#474F60"/>
<rect x="113.836" y="80.2349" width="1.15649" height="1.15649" rx="0.578244" fill="#474F60"/>
<rect x="118.851" y="80.2349" width="1.15649" height="1.15649" rx="0.578244" fill="#474F60"/>
<rect x="123.865" y="80.2349" width="1.15649" height="1.15649" rx="0.578244" fill="#474F60"/>
<rect x="128.88" y="80.2349" width="1.15649" height="1.15649" rx="0.578244" fill="#474F60"/>
<rect x="133.895" y="80.2349" width="1.15649" height="1.15649" rx="0.578244" fill="#474F60"/>
<rect x="138.909" y="80.2349" width="1.15649" height="1.15649" rx="0.578244" fill="#474F60"/>
<rect x="143.924" y="80.2349" width="1.15649" height="1.15649" rx="0.578244" fill="#474F60"/>
<rect x="148.939" y="80.2349" width="1.15649" height="1.15649" rx="0.578244" fill="#474F60"/>
<rect x="153.953" y="80.2349" width="1.15649" height="1.15649" rx="0.578244" fill="#474F60"/>
<rect x="158.968" y="80.2349" width="1.15649" height="1.15649" rx="0.578244" fill="#474F60"/>
<rect x="163.983" y="80.2349" width="1.15649" height="1.15649" rx="0.578244" fill="#474F60"/>
<rect x="168.997" y="80.2349" width="1.15649" height="1.15649" rx="0.578244" fill="#474F60"/>
<rect x="174.012" y="80.2349" width="1.15649" height="1.15649" rx="0.578244" fill="#474F60"/>
<rect x="179.027" y="80.2349" width="1.15649" height="1.15649" rx="0.578244" fill="#474F60"/>
<rect x="38.6164" y="85.2495" width="1.15649" height="1.15649" rx="0.578244" fill="#474F60"/>
<rect x="43.631" y="85.2495" width="1.15649" height="1.15649" rx="0.578244" fill="#474F60"/>
<rect x="48.6457" y="85.2495" width="1.15649" height="1.15649" rx="0.578244" fill="#474F60"/>
<rect x="53.6602" y="85.2495" width="1.15649" height="1.15649" rx="0.578244" fill="#474F60"/>
<rect x="58.6749" y="85.2495" width="1.15649" height="1.15649" rx="0.578244" fill="#474F60"/>
<rect x="63.6896" y="85.2495" width="1.15649" height="1.15649" rx="0.578244" fill="#474F60"/>
<rect x="68.7043" y="85.2495" width="1.15649" height="1.15649" rx="0.578244" fill="#474F60"/>
<rect x="73.7189" y="85.2495" width="1.15649" height="1.15649" rx="0.578244" fill="#474F60"/>
<rect x="78.7336" y="85.2495" width="1.15649" height="1.15649" rx="0.578244" fill="#474F60"/>
<rect x="83.7481" y="85.2495" width="1.15649" height="1.15649" rx="0.578244" fill="#474F60"/>
<rect x="88.7628" y="85.2495" width="1.15649" height="1.15649" rx="0.578244" fill="#474F60"/>
<rect x="93.7775" y="85.2495" width="1.15649" height="1.15649" rx="0.578244" fill="#474F60"/>
<rect x="98.7922" y="85.2495" width="1.15649" height="1.15649" rx="0.578244" fill="#474F60"/>
<rect x="103.807" y="85.2495" width="1.15649" height="1.15649" rx="0.578244" fill="#474F60"/>
<rect x="108.821" y="85.2495" width="1.15649" height="1.15649" rx="0.578244" fill="#474F60"/>
<rect x="113.836" y="85.2495" width="1.15649" height="1.15649" rx="0.578244" fill="#474F60"/>
<rect x="118.851" y="85.2495" width="1.15649" height="1.15649" rx="0.578244" fill="#474F60"/>
<rect x="123.865" y="85.2495" width="1.15649" height="1.15649" rx="0.578244" fill="#474F60"/>
<rect x="128.88" y="85.2495" width="1.15649" height="1.15649" rx="0.578244" fill="#474F60"/>
<rect x="133.895" y="85.2495" width="1.15649" height="1.15649" rx="0.578244" fill="#474F60"/>
<rect x="138.909" y="85.2495" width="1.15649" height="1.15649" rx="0.578244" fill="#474F60"/>
<rect x="143.924" y="85.2495" width="1.15649" height="1.15649" rx="0.578244" fill="#474F60"/>
<rect x="148.939" y="85.2495" width="1.15649" height="1.15649" rx="0.578244" fill="#474F60"/>
<rect x="153.953" y="85.2495" width="1.15649" height="1.15649" rx="0.578244" fill="#474F60"/>
<rect x="158.968" y="85.2495" width="1.15649" height="1.15649" rx="0.578244" fill="#474F60"/>
<rect x="163.983" y="85.2495" width="1.15649" height="1.15649" rx="0.578244" fill="#474F60"/>
<rect x="168.997" y="85.2495" width="1.15649" height="1.15649" rx="0.578244" fill="#474F60"/>
<rect x="174.012" y="85.2495" width="1.15649" height="1.15649" rx="0.578244" fill="#474F60"/>
<rect x="179.027" y="85.2495" width="1.15649" height="1.15649" rx="0.578244" fill="#474F60"/>
<rect x="38.6164" y="90.2642" width="1.15649" height="1.15649" rx="0.578244" fill="#474F60"/>
<rect x="43.631" y="90.2642" width="1.15649" height="1.15649" rx="0.578244" fill="#474F60"/>
<rect x="48.6457" y="90.2642" width="1.15649" height="1.15649" rx="0.578244" fill="#474F60"/>
<rect x="53.6602" y="90.2642" width="1.15649" height="1.15649" rx="0.578244" fill="#474F60"/>
<rect x="58.6749" y="90.2642" width="1.15649" height="1.15649" rx="0.578244" fill="#474F60"/>
<rect x="63.6896" y="90.2642" width="1.15649" height="1.15649" rx="0.578244" fill="#474F60"/>
<rect x="68.7043" y="90.2642" width="1.15649" height="1.15649" rx="0.578244" fill="#474F60"/>
<rect x="73.7189" y="90.2642" width="1.15649" height="1.15649" rx="0.578244" fill="#474F60"/>
<rect x="78.7336" y="90.2642" width="1.15649" height="1.15649" rx="0.578244" fill="#474F60"/>
<rect x="83.7481" y="90.2642" width="1.15649" height="1.15649" rx="0.578244" fill="#474F60"/>
<rect x="88.7628" y="90.2642" width="1.15649" height="1.15649" rx="0.578244" fill="#474F60"/>
<rect x="93.7775" y="90.2642" width="1.15649" height="1.15649" rx="0.578244" fill="#474F60"/>
<rect x="98.7922" y="90.2642" width="1.15649" height="1.15649" rx="0.578244" fill="#474F60"/>
<rect x="103.807" y="90.2642" width="1.15649" height="1.15649" rx="0.578244" fill="#474F60"/>
<rect x="108.821" y="90.2642" width="1.15649" height="1.15649" rx="0.578244" fill="#474F60"/>
<rect x="113.836" y="90.2642" width="1.15649" height="1.15649" rx="0.578244" fill="#474F60"/>
<rect x="118.851" y="90.2642" width="1.15649" height="1.15649" rx="0.578244" fill="#474F60"/>
<rect x="123.865" y="90.2642" width="1.15649" height="1.15649" rx="0.578244" fill="#474F60"/>
<rect x="128.88" y="90.2642" width="1.15649" height="1.15649" rx="0.578244" fill="#474F60"/>
<rect x="133.895" y="90.2642" width="1.15649" height="1.15649" rx="0.578244" fill="#474F60"/>
<rect x="138.909" y="90.2642" width="1.15649" height="1.15649" rx="0.578244" fill="#474F60"/>
<rect x="143.924" y="90.2642" width="1.15649" height="1.15649" rx="0.578244" fill="#474F60"/>
<rect x="148.939" y="90.2642" width="1.15649" height="1.15649" rx="0.578244" fill="#474F60"/>
<rect x="153.953" y="90.2642" width="1.15649" height="1.15649" rx="0.578244" fill="#474F60"/>
<rect x="158.968" y="90.2642" width="1.15649" height="1.15649" rx="0.578244" fill="#474F60"/>
<rect x="163.983" y="90.2642" width="1.15649" height="1.15649" rx="0.578244" fill="#474F60"/>
<rect x="168.997" y="90.2642" width="1.15649" height="1.15649" rx="0.578244" fill="#474F60"/>
<rect x="174.012" y="90.2642" width="1.15649" height="1.15649" rx="0.578244" fill="#474F60"/>
<rect x="179.027" y="90.2642" width="1.15649" height="1.15649" rx="0.578244" fill="#474F60"/>
<rect x="38.6164" y="95.2788" width="1.15649" height="1.15649" rx="0.578244" fill="#474F60"/>
<rect x="43.631" y="95.2788" width="1.15649" height="1.15649" rx="0.578244" fill="#474F60"/>
<rect x="48.6457" y="95.2788" width="1.15649" height="1.15649" rx="0.578244" fill="#474F60"/>
<rect x="53.6602" y="95.2788" width="1.15649" height="1.15649" rx="0.578244" fill="#474F60"/>
<rect x="58.6749" y="95.2788" width="1.15649" height="1.15649" rx="0.578244" fill="#474F60"/>
<rect x="63.6896" y="95.2788" width="1.15649" height="1.15649" rx="0.578244" fill="#474F60"/>
<rect x="68.7043" y="95.2788" width="1.15649" height="1.15649" rx="0.578244" fill="#474F60"/>
<rect x="73.7189" y="95.2788" width="1.15649" height="1.15649" rx="0.578244" fill="#474F60"/>
<rect x="78.7336" y="95.2788" width="1.15649" height="1.15649" rx="0.578244" fill="#474F60"/>
<rect x="83.7481" y="95.2788" width="1.15649" height="1.15649" rx="0.578244" fill="#474F60"/>
<rect x="88.7628" y="95.2788" width="1.15649" height="1.15649" rx="0.578244" fill="#474F60"/>
<rect x="93.7775" y="95.2788" width="1.15649" height="1.15649" rx="0.578244" fill="#474F60"/>
<rect x="98.7922" y="95.2788" width="1.15649" height="1.15649" rx="0.578244" fill="#474F60"/>
<rect x="103.807" y="95.2788" width="1.15649" height="1.15649" rx="0.578244" fill="#474F60"/>
<rect x="108.821" y="95.2788" width="1.15649" height="1.15649" rx="0.578244" fill="#474F60"/>
<rect x="113.836" y="95.2788" width="1.15649" height="1.15649" rx="0.578244" fill="#474F60"/>
<rect x="118.851" y="95.2788" width="1.15649" height="1.15649" rx="0.578244" fill="#474F60"/>
<rect x="123.865" y="95.2788" width="1.15649" height="1.15649" rx="0.578244" fill="#474F60"/>
<rect x="128.88" y="95.2788" width="1.15649" height="1.15649" rx="0.578244" fill="#474F60"/>
<rect x="133.895" y="95.2788" width="1.15649" height="1.15649" rx="0.578244" fill="#474F60"/>
<rect x="138.909" y="95.2788" width="1.15649" height="1.15649" rx="0.578244" fill="#474F60"/>
<rect x="143.924" y="95.2788" width="1.15649" height="1.15649" rx="0.578244" fill="#474F60"/>
<rect x="148.939" y="95.2788" width="1.15649" height="1.15649" rx="0.578244" fill="#474F60"/>
<rect x="153.953" y="95.2788" width="1.15649" height="1.15649" rx="0.578244" fill="#474F60"/>
<rect x="158.968" y="95.2788" width="1.15649" height="1.15649" rx="0.578244" fill="#474F60"/>
<rect x="163.983" y="95.2788" width="1.15649" height="1.15649" rx="0.578244" fill="#474F60"/>
<rect x="168.997" y="95.2788" width="1.15649" height="1.15649" rx="0.578244" fill="#474F60"/>
<rect x="174.012" y="95.2788" width="1.15649" height="1.15649" rx="0.578244" fill="#474F60"/>
<rect x="179.027" y="95.2788" width="1.15649" height="1.15649" rx="0.578244" fill="#474F60"/>
<rect x="38.6164" y="100.294" width="1.15649" height="1.15649" rx="0.578244" fill="#474F60"/>
<rect x="43.631" y="100.294" width="1.15649" height="1.15649" rx="0.578244" fill="#474F60"/>
<rect x="48.6457" y="100.294" width="1.15649" height="1.15649" rx="0.578244" fill="#474F60"/>
<rect x="53.6602" y="100.294" width="1.15649" height="1.15649" rx="0.578244" fill="#474F60"/>
<rect x="58.6749" y="100.294" width="1.15649" height="1.15649" rx="0.578244" fill="#474F60"/>
<rect x="63.6896" y="100.294" width="1.15649" height="1.15649" rx="0.578244" fill="#474F60"/>
<rect x="68.7043" y="100.294" width="1.15649" height="1.15649" rx="0.578244" fill="#474F60"/>
<rect x="73.7189" y="100.294" width="1.15649" height="1.15649" rx="0.578244" fill="#474F60"/>
<rect x="78.7336" y="100.294" width="1.15649" height="1.15649" rx="0.578244" fill="#474F60"/>
<rect x="83.7481" y="100.294" width="1.15649" height="1.15649" rx="0.578244" fill="#474F60"/>
<rect x="88.7628" y="100.294" width="1.15649" height="1.15649" rx="0.578244" fill="#474F60"/>
<rect x="93.7775" y="100.294" width="1.15649" height="1.15649" rx="0.578244" fill="#474F60"/>
<rect x="98.7922" y="100.294" width="1.15649" height="1.15649" rx="0.578244" fill="#474F60"/>
<rect x="103.807" y="100.294" width="1.15649" height="1.15649" rx="0.578244" fill="#474F60"/>
<rect x="108.821" y="100.294" width="1.15649" height="1.15649" rx="0.578244" fill="#474F60"/>
<rect x="113.836" y="100.294" width="1.15649" height="1.15649" rx="0.578244" fill="#474F60"/>
<rect x="118.851" y="100.294" width="1.15649" height="1.15649" rx="0.578244" fill="#474F60"/>
<rect x="123.865" y="100.294" width="1.15649" height="1.15649" rx="0.578244" fill="#474F60"/>
<rect x="128.88" y="100.294" width="1.15649" height="1.15649" rx="0.578244" fill="#474F60"/>
<rect x="133.895" y="100.294" width="1.15649" height="1.15649" rx="0.578244" fill="#474F60"/>
<rect x="138.909" y="100.294" width="1.15649" height="1.15649" rx="0.578244" fill="#474F60"/>
<rect x="143.924" y="100.294" width="1.15649" height="1.15649" rx="0.578244" fill="#474F60"/>
<rect x="148.939" y="100.294" width="1.15649" height="1.15649" rx="0.578244" fill="#474F60"/>
<rect x="153.953" y="100.294" width="1.15649" height="1.15649" rx="0.578244" fill="#474F60"/>
<rect x="158.968" y="100.294" width="1.15649" height="1.15649" rx="0.578244" fill="#474F60"/>
<rect x="163.983" y="100.294" width="1.15649" height="1.15649" rx="0.578244" fill="#474F60"/>
<rect x="168.997" y="100.294" width="1.15649" height="1.15649" rx="0.578244" fill="#474F60"/>
<rect x="174.012" y="100.294" width="1.15649" height="1.15649" rx="0.578244" fill="#474F60"/>
<rect x="179.027" y="100.294" width="1.15649" height="1.15649" rx="0.578244" fill="#474F60"/>
<rect x="1.73843" y="21.3368" width="147.26" height="74.7863" rx="3.08397" transform="rotate(-1 1.73843 21.3368)" fill="white" stroke="#333A4A" stroke-width="1.54198"/>
<rect x="9.31869" y="26.9853" width="147.26" height="74.7863" rx="3.08397" fill="white" stroke="#333A4A" stroke-width="1.54198"/>
<rect x="18.3785" y="29.8355" width="147.26" height="74.7863" rx="3.08397" transform="rotate(2 18.3785 29.8355)" fill="white" stroke="#333A4A" stroke-width="1.54198"/>
<rect x="71.4541" y="56.3757" width="24.6718" height="6.16794" rx="0.770992" transform="rotate(2 71.4541 56.3757)" fill="#333A4A"/>
<rect x="71.9115" y="43.2769" width="77.8702" height="6.16794" rx="0.770992" transform="rotate(2 71.9115 43.2769)" fill="#333A4A"/>
<path d="M30.7921 59.6839L34.5052 59.8135L35.5931 56.1339L42.66 56.3806L43.4886 60.1272L47.2017 60.2569L43.3555 43.3332L35.8095 43.0697L30.7921 59.6839ZM36.5487 52.8094L38.4473 46.5197L40.4835 46.5908L41.9387 52.9976L36.5487 52.8094ZM47.7818 54.161C47.6438 58.1137 50.0713 60.7169 53.1855 60.8256C54.527 60.8725 55.4541 60.4251 56.1176 59.9686C56.487 59.6937 56.8093 59.3932 57.0853 59.043L57.2051 59.0472L57.1507 60.6043L60.5045 60.7214L60.9311 48.5041L57.5774 48.387L57.523 49.9441L57.4032 49.9399C57.1522 49.5714 56.8517 49.2491 56.5024 48.9491C55.8723 48.4474 54.9788 47.9365 53.6372 47.8896C50.523 47.7809 47.9199 50.2084 47.7818 54.161ZM51.2554 54.2823C51.3357 51.9826 52.6745 50.7342 54.3753 50.7936C56.1959 50.8571 57.4444 52.1959 57.364 54.4956C57.2837 56.7954 55.945 58.0438 54.1243 57.9802C52.4235 57.9208 51.1751 56.5821 51.2554 54.2823Z" fill="#333A4A"/>
<rect x="29.0656" y="77.2678" width="67.8473" height="10.7939" rx="5.39695" transform="rotate(2 29.0656 77.2678)" fill="#0C64F5"/>
<rect x="7.00573" y="60.9089" width="16.1908" height="16.1908" rx="8.09542" fill="white" stroke="#333A4A" stroke-width="1.54198"/>
<path d="M15.4866 66.3059L12.9479 68.8447C12.6468 69.1458 12.6468 69.634 12.9479 69.9351L15.4866 72.4738" stroke="#333A4A" stroke-width="1.15649" stroke-linecap="round"/>
<rect x="155.036" y="63.9929" width="16.1908" height="16.1908" rx="8.09542" fill="white" stroke="#333A4A" stroke-width="1.54198"/>
<path d="M162.746 75.5579L165.285 73.0191C165.586 72.718 165.586 72.2298 165.285 71.9287L162.746 69.3899" stroke="#333A4A" stroke-width="1.15649" stroke-linecap="round"/>
</svg>
