<svg width="219" height="126" viewBox="0 0 219 126" fill="none" xmlns="http://www.w3.org/2000/svg">
<g clip-path="url(#clip0)">
<rect x="53.2443" y="17.426" width="1.15649" height="1.15649" rx="0.578244" fill="#474F60"/>
<rect x="58.2588" y="17.4255" width="1.15649" height="1.15649" rx="0.578244" fill="#474F60"/>
<rect x="63.2735" y="17.4255" width="1.15649" height="1.15649" rx="0.578244" fill="#474F60"/>
<rect x="68.2881" y="17.4255" width="1.15649" height="1.15649" rx="0.578244" fill="#474F60"/>
<rect x="73.3028" y="17.4255" width="1.15649" height="1.15649" rx="0.578244" fill="#474F60"/>
<rect x="78.3175" y="17.4255" width="1.15649" height="1.15649" rx="0.578244" fill="#474F60"/>
<rect x="83.3322" y="17.4255" width="1.15649" height="1.15649" rx="0.578244" fill="#474F60"/>
<rect x="88.3467" y="17.4255" width="1.15649" height="1.15649" rx="0.578244" fill="#474F60"/>
<rect x="93.3614" y="17.4255" width="1.15649" height="1.15649" rx="0.578244" fill="#474F60"/>
<rect x="98.376" y="17.4255" width="1.15649" height="1.15649" rx="0.578244" fill="#474F60"/>
<rect x="103.391" y="17.4255" width="1.15649" height="1.15649" rx="0.578244" fill="#474F60"/>
<rect x="108.405" y="17.4255" width="1.15649" height="1.15649" rx="0.578244" fill="#474F60"/>
<rect x="113.42" y="17.4255" width="1.15649" height="1.15649" rx="0.578244" fill="#474F60"/>
<rect x="118.435" y="17.4255" width="1.15649" height="1.15649" rx="0.578244" fill="#474F60"/>
<rect x="123.449" y="17.4255" width="1.15649" height="1.15649" rx="0.578244" fill="#474F60"/>
<rect x="128.464" y="17.4255" width="1.15649" height="1.15649" rx="0.578244" fill="#474F60"/>
<rect x="133.479" y="17.4255" width="1.15649" height="1.15649" rx="0.578244" fill="#474F60"/>
<rect x="138.493" y="17.4255" width="1.15649" height="1.15649" rx="0.578244" fill="#474F60"/>
<rect x="143.508" y="17.4255" width="1.15649" height="1.15649" rx="0.578244" fill="#474F60"/>
<rect x="148.523" y="17.4255" width="1.15649" height="1.15649" rx="0.578244" fill="#474F60"/>
<rect x="153.537" y="17.4255" width="1.15649" height="1.15649" rx="0.578244" fill="#474F60"/>
<rect x="158.552" y="17.4255" width="1.15649" height="1.15649" rx="0.578244" fill="#474F60"/>
<rect x="163.566" y="17.4255" width="1.15649" height="1.15649" rx="0.578244" fill="#474F60"/>
<rect x="168.581" y="17.4255" width="1.15649" height="1.15649" rx="0.578244" fill="#474F60"/>
<rect x="173.596" y="17.4255" width="1.15649" height="1.15649" rx="0.578244" fill="#474F60"/>
<rect x="178.61" y="17.4255" width="1.15649" height="1.15649" rx="0.578244" fill="#474F60"/>
<rect x="183.625" y="17.4255" width="1.15649" height="1.15649" rx="0.578244" fill="#474F60"/>
<rect x="188.64" y="17.4255" width="1.15649" height="1.15649" rx="0.578244" fill="#474F60"/>
<rect x="193.654" y="17.4255" width="1.15649" height="1.15649" rx="0.578244" fill="#474F60"/>
<rect x="53.2443" y="22.4402" width="1.15649" height="1.15649" rx="0.578244" fill="#474F60"/>
<rect x="58.2588" y="22.4402" width="1.15649" height="1.15649" rx="0.578244" fill="#474F60"/>
<rect x="63.2735" y="22.4402" width="1.15649" height="1.15649" rx="0.578244" fill="#474F60"/>
<rect x="68.2881" y="22.4402" width="1.15649" height="1.15649" rx="0.578244" fill="#474F60"/>
<rect x="73.3028" y="22.4402" width="1.15649" height="1.15649" rx="0.578244" fill="#474F60"/>
<rect x="78.3175" y="22.4402" width="1.15649" height="1.15649" rx="0.578244" fill="#474F60"/>
<rect x="83.3322" y="22.4402" width="1.15649" height="1.15649" rx="0.578244" fill="#474F60"/>
<rect x="88.3467" y="22.4402" width="1.15649" height="1.15649" rx="0.578244" fill="#474F60"/>
<rect x="93.3614" y="22.4402" width="1.15649" height="1.15649" rx="0.578244" fill="#474F60"/>
<rect x="98.376" y="22.4402" width="1.15649" height="1.15649" rx="0.578244" fill="#474F60"/>
<rect x="103.391" y="22.4402" width="1.15649" height="1.15649" rx="0.578244" fill="#474F60"/>
<rect x="108.405" y="22.4402" width="1.15649" height="1.15649" rx="0.578244" fill="#474F60"/>
<rect x="113.42" y="22.4402" width="1.15649" height="1.15649" rx="0.578244" fill="#474F60"/>
<rect x="118.435" y="22.4402" width="1.15649" height="1.15649" rx="0.578244" fill="#474F60"/>
<rect x="123.449" y="22.4402" width="1.15649" height="1.15649" rx="0.578244" fill="#474F60"/>
<rect x="128.464" y="22.4402" width="1.15649" height="1.15649" rx="0.578244" fill="#474F60"/>
<rect x="133.479" y="22.4402" width="1.15649" height="1.15649" rx="0.578244" fill="#474F60"/>
<rect x="138.493" y="22.4402" width="1.15649" height="1.15649" rx="0.578244" fill="#474F60"/>
<rect x="143.508" y="22.4402" width="1.15649" height="1.15649" rx="0.578244" fill="#474F60"/>
<rect x="148.523" y="22.4402" width="1.15649" height="1.15649" rx="0.578244" fill="#474F60"/>
<rect x="153.537" y="22.4402" width="1.15649" height="1.15649" rx="0.578244" fill="#474F60"/>
<rect x="158.552" y="22.4402" width="1.15649" height="1.15649" rx="0.578244" fill="#474F60"/>
<rect x="163.566" y="22.4402" width="1.15649" height="1.15649" rx="0.578244" fill="#474F60"/>
<rect x="168.581" y="22.4402" width="1.15649" height="1.15649" rx="0.578244" fill="#474F60"/>
<rect x="173.596" y="22.4402" width="1.15649" height="1.15649" rx="0.578244" fill="#474F60"/>
<rect x="178.61" y="22.4402" width="1.15649" height="1.15649" rx="0.578244" fill="#474F60"/>
<rect x="183.625" y="22.4402" width="1.15649" height="1.15649" rx="0.578244" fill="#474F60"/>
<rect x="188.64" y="22.4402" width="1.15649" height="1.15649" rx="0.578244" fill="#474F60"/>
<rect x="193.654" y="22.4402" width="1.15649" height="1.15649" rx="0.578244" fill="#474F60"/>
<rect x="53.2443" y="27.4548" width="1.15649" height="1.15649" rx="0.578244" fill="#474F60"/>
<rect x="58.2588" y="27.4548" width="1.15649" height="1.15649" rx="0.578244" fill="#474F60"/>
<rect x="63.2735" y="27.4548" width="1.15649" height="1.15649" rx="0.578244" fill="#474F60"/>
<rect x="68.2881" y="27.4548" width="1.15649" height="1.15649" rx="0.578244" fill="#474F60"/>
<rect x="73.3028" y="27.4548" width="1.15649" height="1.15649" rx="0.578244" fill="#474F60"/>
<rect x="78.3175" y="27.4548" width="1.15649" height="1.15649" rx="0.578244" fill="#474F60"/>
<rect x="83.3322" y="27.4548" width="1.15649" height="1.15649" rx="0.578244" fill="#474F60"/>
<rect x="88.3467" y="27.4548" width="1.15649" height="1.15649" rx="0.578244" fill="#474F60"/>
<rect x="93.3614" y="27.4548" width="1.15649" height="1.15649" rx="0.578244" fill="#474F60"/>
<rect x="98.376" y="27.4548" width="1.15649" height="1.15649" rx="0.578244" fill="#474F60"/>
<rect x="103.391" y="27.4548" width="1.15649" height="1.15649" rx="0.578244" fill="#474F60"/>
<rect x="108.405" y="27.4548" width="1.15649" height="1.15649" rx="0.578244" fill="#474F60"/>
<rect x="113.42" y="27.4548" width="1.15649" height="1.15649" rx="0.578244" fill="#474F60"/>
<rect x="118.435" y="27.4548" width="1.15649" height="1.15649" rx="0.578244" fill="#474F60"/>
<rect x="123.449" y="27.4548" width="1.15649" height="1.15649" rx="0.578244" fill="#474F60"/>
<rect x="128.464" y="27.4548" width="1.15649" height="1.15649" rx="0.578244" fill="#474F60"/>
<rect x="133.479" y="27.4548" width="1.15649" height="1.15649" rx="0.578244" fill="#474F60"/>
<rect x="138.493" y="27.4548" width="1.15649" height="1.15649" rx="0.578244" fill="#474F60"/>
<rect x="143.508" y="27.4548" width="1.15649" height="1.15649" rx="0.578244" fill="#474F60"/>
<rect x="148.523" y="27.4548" width="1.15649" height="1.15649" rx="0.578244" fill="#474F60"/>
<rect x="153.537" y="27.4548" width="1.15649" height="1.15649" rx="0.578244" fill="#474F60"/>
<rect x="158.552" y="27.4548" width="1.15649" height="1.15649" rx="0.578244" fill="#474F60"/>
<rect x="163.566" y="27.4548" width="1.15649" height="1.15649" rx="0.578244" fill="#474F60"/>
<rect x="168.581" y="27.4548" width="1.15649" height="1.15649" rx="0.578244" fill="#474F60"/>
<rect x="173.596" y="27.4548" width="1.15649" height="1.15649" rx="0.578244" fill="#474F60"/>
<rect x="178.61" y="27.4548" width="1.15649" height="1.15649" rx="0.578244" fill="#474F60"/>
<rect x="183.625" y="27.4548" width="1.15649" height="1.15649" rx="0.578244" fill="#474F60"/>
<rect x="188.64" y="27.4548" width="1.15649" height="1.15649" rx="0.578244" fill="#474F60"/>
<rect x="193.654" y="27.4548" width="1.15649" height="1.15649" rx="0.578244" fill="#474F60"/>
<rect x="53.2443" y="32.4692" width="1.15649" height="1.15649" rx="0.578244" fill="#474F60"/>
<rect x="58.2588" y="32.4692" width="1.15649" height="1.15649" rx="0.578244" fill="#474F60"/>
<rect x="63.2735" y="32.4692" width="1.15649" height="1.15649" rx="0.578244" fill="#474F60"/>
<rect x="68.2881" y="32.4692" width="1.15649" height="1.15649" rx="0.578244" fill="#474F60"/>
<rect x="73.3028" y="32.4692" width="1.15649" height="1.15649" rx="0.578244" fill="#474F60"/>
<rect x="78.3175" y="32.4692" width="1.15649" height="1.15649" rx="0.578244" fill="#474F60"/>
<rect x="83.3322" y="32.4692" width="1.15649" height="1.15649" rx="0.578244" fill="#474F60"/>
<rect x="88.3467" y="32.4692" width="1.15649" height="1.15649" rx="0.578244" fill="#474F60"/>
<rect x="93.3614" y="32.4692" width="1.15649" height="1.15649" rx="0.578244" fill="#474F60"/>
<rect x="98.376" y="32.4692" width="1.15649" height="1.15649" rx="0.578244" fill="#474F60"/>
<rect x="103.391" y="32.4692" width="1.15649" height="1.15649" rx="0.578244" fill="#474F60"/>
<rect x="108.405" y="32.4692" width="1.15649" height="1.15649" rx="0.578244" fill="#474F60"/>
<rect x="113.42" y="32.4692" width="1.15649" height="1.15649" rx="0.578244" fill="#474F60"/>
<rect x="118.435" y="32.4692" width="1.15649" height="1.15649" rx="0.578244" fill="#474F60"/>
<rect x="123.449" y="32.4692" width="1.15649" height="1.15649" rx="0.578244" fill="#474F60"/>
<rect x="128.464" y="32.4692" width="1.15649" height="1.15649" rx="0.578244" fill="#474F60"/>
<rect x="133.479" y="32.4692" width="1.15649" height="1.15649" rx="0.578244" fill="#474F60"/>
<rect x="138.493" y="32.4692" width="1.15649" height="1.15649" rx="0.578244" fill="#474F60"/>
<rect x="143.508" y="32.4692" width="1.15649" height="1.15649" rx="0.578244" fill="#474F60"/>
<rect x="148.523" y="32.4692" width="1.15649" height="1.15649" rx="0.578244" fill="#474F60"/>
<rect x="153.537" y="32.4692" width="1.15649" height="1.15649" rx="0.578244" fill="#474F60"/>
<rect x="158.552" y="32.4692" width="1.15649" height="1.15649" rx="0.578244" fill="#474F60"/>
<rect x="163.566" y="32.4692" width="1.15649" height="1.15649" rx="0.578244" fill="#474F60"/>
<rect x="168.581" y="32.4692" width="1.15649" height="1.15649" rx="0.578244" fill="#474F60"/>
<rect x="173.596" y="32.4692" width="1.15649" height="1.15649" rx="0.578244" fill="#474F60"/>
<rect x="178.61" y="32.4692" width="1.15649" height="1.15649" rx="0.578244" fill="#474F60"/>
<rect x="183.625" y="32.4692" width="1.15649" height="1.15649" rx="0.578244" fill="#474F60"/>
<rect x="188.64" y="32.4692" width="1.15649" height="1.15649" rx="0.578244" fill="#474F60"/>
<rect x="193.654" y="32.4692" width="1.15649" height="1.15649" rx="0.578244" fill="#474F60"/>
<rect x="53.2443" y="37.4839" width="1.15649" height="1.15649" rx="0.578244" fill="#474F60"/>
<rect x="58.2588" y="37.4839" width="1.15649" height="1.15649" rx="0.578244" fill="#474F60"/>
<rect x="63.2735" y="37.4839" width="1.15649" height="1.15649" rx="0.578244" fill="#474F60"/>
<rect x="68.2881" y="37.4839" width="1.15649" height="1.15649" rx="0.578244" fill="#474F60"/>
<rect x="73.3028" y="37.4839" width="1.15649" height="1.15649" rx="0.578244" fill="#474F60"/>
<rect x="78.3175" y="37.4839" width="1.15649" height="1.15649" rx="0.578244" fill="#474F60"/>
<rect x="83.3322" y="37.4839" width="1.15649" height="1.15649" rx="0.578244" fill="#474F60"/>
<rect x="88.3467" y="37.4839" width="1.15649" height="1.15649" rx="0.578244" fill="#474F60"/>
<rect x="93.3614" y="37.4839" width="1.15649" height="1.15649" rx="0.578244" fill="#474F60"/>
<rect x="98.376" y="37.4839" width="1.15649" height="1.15649" rx="0.578244" fill="#474F60"/>
<rect x="103.391" y="37.4839" width="1.15649" height="1.15649" rx="0.578244" fill="#474F60"/>
<rect x="108.405" y="37.4839" width="1.15649" height="1.15649" rx="0.578244" fill="#474F60"/>
<rect x="113.42" y="37.4839" width="1.15649" height="1.15649" rx="0.578244" fill="#474F60"/>
<rect x="118.435" y="37.4839" width="1.15649" height="1.15649" rx="0.578244" fill="#474F60"/>
<rect x="123.449" y="37.4839" width="1.15649" height="1.15649" rx="0.578244" fill="#474F60"/>
<rect x="128.464" y="37.4839" width="1.15649" height="1.15649" rx="0.578244" fill="#474F60"/>
<rect x="133.479" y="37.4839" width="1.15649" height="1.15649" rx="0.578244" fill="#474F60"/>
<rect x="138.493" y="37.4839" width="1.15649" height="1.15649" rx="0.578244" fill="#474F60"/>
<rect x="143.508" y="37.4839" width="1.15649" height="1.15649" rx="0.578244" fill="#474F60"/>
<rect x="148.523" y="37.4839" width="1.15649" height="1.15649" rx="0.578244" fill="#474F60"/>
<rect x="153.537" y="37.4839" width="1.15649" height="1.15649" rx="0.578244" fill="#474F60"/>
<rect x="158.552" y="37.4839" width="1.15649" height="1.15649" rx="0.578244" fill="#474F60"/>
<rect x="163.566" y="37.4839" width="1.15649" height="1.15649" rx="0.578244" fill="#474F60"/>
<rect x="168.581" y="37.4839" width="1.15649" height="1.15649" rx="0.578244" fill="#474F60"/>
<rect x="173.596" y="37.4839" width="1.15649" height="1.15649" rx="0.578244" fill="#474F60"/>
<rect x="178.61" y="37.4839" width="1.15649" height="1.15649" rx="0.578244" fill="#474F60"/>
<rect x="183.625" y="37.4839" width="1.15649" height="1.15649" rx="0.578244" fill="#474F60"/>
<rect x="188.64" y="37.4839" width="1.15649" height="1.15649" rx="0.578244" fill="#474F60"/>
<rect x="193.654" y="37.4839" width="1.15649" height="1.15649" rx="0.578244" fill="#474F60"/>
<rect x="53.2443" y="42.4985" width="1.15649" height="1.15649" rx="0.578244" fill="#474F60"/>
<rect x="58.2588" y="42.4985" width="1.15649" height="1.15649" rx="0.578244" fill="#474F60"/>
<rect x="63.2735" y="42.4985" width="1.15649" height="1.15649" rx="0.578244" fill="#474F60"/>
<rect x="68.2881" y="42.4985" width="1.15649" height="1.15649" rx="0.578244" fill="#474F60"/>
<rect x="73.3028" y="42.4985" width="1.15649" height="1.15649" rx="0.578244" fill="#474F60"/>
<rect x="78.3175" y="42.4985" width="1.15649" height="1.15649" rx="0.578244" fill="#474F60"/>
<rect x="83.3322" y="42.4985" width="1.15649" height="1.15649" rx="0.578244" fill="#474F60"/>
<rect x="88.3467" y="42.4985" width="1.15649" height="1.15649" rx="0.578244" fill="#474F60"/>
<rect x="93.3614" y="42.4985" width="1.15649" height="1.15649" rx="0.578244" fill="#474F60"/>
<rect x="98.376" y="42.4985" width="1.15649" height="1.15649" rx="0.578244" fill="#474F60"/>
<rect x="103.391" y="42.4985" width="1.15649" height="1.15649" rx="0.578244" fill="#474F60"/>
<rect x="108.405" y="42.4985" width="1.15649" height="1.15649" rx="0.578244" fill="#474F60"/>
<rect x="113.42" y="42.4985" width="1.15649" height="1.15649" rx="0.578244" fill="#474F60"/>
<rect x="118.435" y="42.4985" width="1.15649" height="1.15649" rx="0.578244" fill="#474F60"/>
<rect x="123.449" y="42.4985" width="1.15649" height="1.15649" rx="0.578244" fill="#474F60"/>
<rect x="128.464" y="42.4985" width="1.15649" height="1.15649" rx="0.578244" fill="#474F60"/>
<rect x="133.479" y="42.4985" width="1.15649" height="1.15649" rx="0.578244" fill="#474F60"/>
<rect x="138.493" y="42.4985" width="1.15649" height="1.15649" rx="0.578244" fill="#474F60"/>
<rect x="143.508" y="42.4985" width="1.15649" height="1.15649" rx="0.578244" fill="#474F60"/>
<rect x="148.523" y="42.4985" width="1.15649" height="1.15649" rx="0.578244" fill="#474F60"/>
<rect x="153.537" y="42.4985" width="1.15649" height="1.15649" rx="0.578244" fill="#474F60"/>
<rect x="158.552" y="42.4985" width="1.15649" height="1.15649" rx="0.578244" fill="#474F60"/>
<rect x="163.566" y="42.4985" width="1.15649" height="1.15649" rx="0.578244" fill="#474F60"/>
<rect x="168.581" y="42.4985" width="1.15649" height="1.15649" rx="0.578244" fill="#474F60"/>
<rect x="173.596" y="42.4985" width="1.15649" height="1.15649" rx="0.578244" fill="#474F60"/>
<rect x="178.61" y="42.4985" width="1.15649" height="1.15649" rx="0.578244" fill="#474F60"/>
<rect x="183.625" y="42.4985" width="1.15649" height="1.15649" rx="0.578244" fill="#474F60"/>
<rect x="188.64" y="42.4985" width="1.15649" height="1.15649" rx="0.578244" fill="#474F60"/>
<rect x="193.654" y="42.4985" width="1.15649" height="1.15649" rx="0.578244" fill="#474F60"/>
<rect x="53.2443" y="47.5134" width="1.15649" height="1.15649" rx="0.578244" fill="#474F60"/>
<rect x="58.2588" y="47.5134" width="1.15649" height="1.15649" rx="0.578244" fill="#474F60"/>
<rect x="63.2735" y="47.5134" width="1.15649" height="1.15649" rx="0.578244" fill="#474F60"/>
<rect x="68.2881" y="47.5134" width="1.15649" height="1.15649" rx="0.578244" fill="#474F60"/>
<rect x="73.3028" y="47.5134" width="1.15649" height="1.15649" rx="0.578244" fill="#474F60"/>
<rect x="78.3175" y="47.5134" width="1.15649" height="1.15649" rx="0.578244" fill="#474F60"/>
<rect x="83.3322" y="47.5134" width="1.15649" height="1.15649" rx="0.578244" fill="#474F60"/>
<rect x="88.3467" y="47.5134" width="1.15649" height="1.15649" rx="0.578244" fill="#474F60"/>
<rect x="93.3614" y="47.5134" width="1.15649" height="1.15649" rx="0.578244" fill="#474F60"/>
<rect x="98.376" y="47.5134" width="1.15649" height="1.15649" rx="0.578244" fill="#474F60"/>
<rect x="103.391" y="47.5134" width="1.15649" height="1.15649" rx="0.578244" fill="#474F60"/>
<rect x="108.405" y="47.5134" width="1.15649" height="1.15649" rx="0.578244" fill="#474F60"/>
<rect x="113.42" y="47.5134" width="1.15649" height="1.15649" rx="0.578244" fill="#474F60"/>
<rect x="118.435" y="47.5134" width="1.15649" height="1.15649" rx="0.578244" fill="#474F60"/>
<rect x="123.449" y="47.5134" width="1.15649" height="1.15649" rx="0.578244" fill="#474F60"/>
<rect x="128.464" y="47.5134" width="1.15649" height="1.15649" rx="0.578244" fill="#474F60"/>
<rect x="133.479" y="47.5134" width="1.15649" height="1.15649" rx="0.578244" fill="#474F60"/>
<rect x="138.493" y="47.5134" width="1.15649" height="1.15649" rx="0.578244" fill="#474F60"/>
<rect x="143.508" y="47.5134" width="1.15649" height="1.15649" rx="0.578244" fill="#474F60"/>
<rect x="148.523" y="47.5134" width="1.15649" height="1.15649" rx="0.578244" fill="#474F60"/>
<rect x="153.537" y="47.5134" width="1.15649" height="1.15649" rx="0.578244" fill="#474F60"/>
<rect x="158.552" y="47.5134" width="1.15649" height="1.15649" rx="0.578244" fill="#474F60"/>
<rect x="163.566" y="47.5134" width="1.15649" height="1.15649" rx="0.578244" fill="#474F60"/>
<rect x="168.581" y="47.5134" width="1.15649" height="1.15649" rx="0.578244" fill="#474F60"/>
<rect x="173.596" y="47.5134" width="1.15649" height="1.15649" rx="0.578244" fill="#474F60"/>
<rect x="178.61" y="47.5134" width="1.15649" height="1.15649" rx="0.578244" fill="#474F60"/>
<rect x="183.625" y="47.5134" width="1.15649" height="1.15649" rx="0.578244" fill="#474F60"/>
<rect x="188.64" y="47.5134" width="1.15649" height="1.15649" rx="0.578244" fill="#474F60"/>
<rect x="193.654" y="47.5134" width="1.15649" height="1.15649" rx="0.578244" fill="#474F60"/>
<rect x="53.2443" y="52.5281" width="1.15649" height="1.15649" rx="0.578244" fill="#474F60"/>
<rect x="58.2588" y="52.5281" width="1.15649" height="1.15649" rx="0.578244" fill="#474F60"/>
<rect x="63.2735" y="52.5281" width="1.15649" height="1.15649" rx="0.578244" fill="#474F60"/>
<rect x="68.2881" y="52.5281" width="1.15649" height="1.15649" rx="0.578244" fill="#474F60"/>
<rect x="73.3028" y="52.5281" width="1.15649" height="1.15649" rx="0.578244" fill="#474F60"/>
<rect x="78.3175" y="52.5281" width="1.15649" height="1.15649" rx="0.578244" fill="#474F60"/>
<rect x="83.3322" y="52.5281" width="1.15649" height="1.15649" rx="0.578244" fill="#474F60"/>
<rect x="88.3467" y="52.5281" width="1.15649" height="1.15649" rx="0.578244" fill="#474F60"/>
<rect x="93.3614" y="52.5281" width="1.15649" height="1.15649" rx="0.578244" fill="#474F60"/>
<rect x="98.376" y="52.5281" width="1.15649" height="1.15649" rx="0.578244" fill="#474F60"/>
<rect x="103.391" y="52.5281" width="1.15649" height="1.15649" rx="0.578244" fill="#474F60"/>
<rect x="108.405" y="52.5281" width="1.15649" height="1.15649" rx="0.578244" fill="#474F60"/>
<rect x="113.42" y="52.5281" width="1.15649" height="1.15649" rx="0.578244" fill="#474F60"/>
<rect x="118.435" y="52.5281" width="1.15649" height="1.15649" rx="0.578244" fill="#474F60"/>
<rect x="123.449" y="52.5281" width="1.15649" height="1.15649" rx="0.578244" fill="#474F60"/>
<rect x="128.464" y="52.5281" width="1.15649" height="1.15649" rx="0.578244" fill="#474F60"/>
<rect x="133.479" y="52.5281" width="1.15649" height="1.15649" rx="0.578244" fill="#474F60"/>
<rect x="138.493" y="52.5281" width="1.15649" height="1.15649" rx="0.578244" fill="#474F60"/>
<rect x="143.508" y="52.5281" width="1.15649" height="1.15649" rx="0.578244" fill="#474F60"/>
<rect x="148.523" y="52.5281" width="1.15649" height="1.15649" rx="0.578244" fill="#474F60"/>
<rect x="153.537" y="52.5281" width="1.15649" height="1.15649" rx="0.578244" fill="#474F60"/>
<rect x="158.552" y="52.5281" width="1.15649" height="1.15649" rx="0.578244" fill="#474F60"/>
<rect x="163.566" y="52.5281" width="1.15649" height="1.15649" rx="0.578244" fill="#474F60"/>
<rect x="168.581" y="52.5281" width="1.15649" height="1.15649" rx="0.578244" fill="#474F60"/>
<rect x="173.596" y="52.5281" width="1.15649" height="1.15649" rx="0.578244" fill="#474F60"/>
<rect x="178.61" y="52.5281" width="1.15649" height="1.15649" rx="0.578244" fill="#474F60"/>
<rect x="183.625" y="52.5281" width="1.15649" height="1.15649" rx="0.578244" fill="#474F60"/>
<rect x="188.64" y="52.5281" width="1.15649" height="1.15649" rx="0.578244" fill="#474F60"/>
<rect x="193.654" y="52.5281" width="1.15649" height="1.15649" rx="0.578244" fill="#474F60"/>
<rect x="53.2443" y="57.5427" width="1.15649" height="1.15649" rx="0.578244" fill="#474F60"/>
<rect x="58.2588" y="57.5427" width="1.15649" height="1.15649" rx="0.578244" fill="#474F60"/>
<rect x="63.2735" y="57.5427" width="1.15649" height="1.15649" rx="0.578244" fill="#474F60"/>
<rect x="68.2881" y="57.5427" width="1.15649" height="1.15649" rx="0.578244" fill="#474F60"/>
<rect x="73.3028" y="57.5427" width="1.15649" height="1.15649" rx="0.578244" fill="#474F60"/>
<rect x="78.3175" y="57.5427" width="1.15649" height="1.15649" rx="0.578244" fill="#474F60"/>
<rect x="83.3322" y="57.5427" width="1.15649" height="1.15649" rx="0.578244" fill="#474F60"/>
<rect x="88.3467" y="57.5427" width="1.15649" height="1.15649" rx="0.578244" fill="#474F60"/>
<rect x="93.3614" y="57.5427" width="1.15649" height="1.15649" rx="0.578244" fill="#474F60"/>
<rect x="98.376" y="57.5427" width="1.15649" height="1.15649" rx="0.578244" fill="#474F60"/>
<rect x="103.391" y="57.5427" width="1.15649" height="1.15649" rx="0.578244" fill="#474F60"/>
<rect x="108.405" y="57.5427" width="1.15649" height="1.15649" rx="0.578244" fill="#474F60"/>
<rect x="113.42" y="57.5427" width="1.15649" height="1.15649" rx="0.578244" fill="#474F60"/>
<rect x="118.435" y="57.5427" width="1.15649" height="1.15649" rx="0.578244" fill="#474F60"/>
<rect x="123.449" y="57.5427" width="1.15649" height="1.15649" rx="0.578244" fill="#474F60"/>
<rect x="128.464" y="57.5427" width="1.15649" height="1.15649" rx="0.578244" fill="#474F60"/>
<rect x="133.479" y="57.5427" width="1.15649" height="1.15649" rx="0.578244" fill="#474F60"/>
<rect x="138.493" y="57.5427" width="1.15649" height="1.15649" rx="0.578244" fill="#474F60"/>
<rect x="143.508" y="57.5427" width="1.15649" height="1.15649" rx="0.578244" fill="#474F60"/>
<rect x="148.523" y="57.5427" width="1.15649" height="1.15649" rx="0.578244" fill="#474F60"/>
<rect x="153.537" y="57.5427" width="1.15649" height="1.15649" rx="0.578244" fill="#474F60"/>
<rect x="158.552" y="57.5427" width="1.15649" height="1.15649" rx="0.578244" fill="#474F60"/>
<rect x="163.566" y="57.5427" width="1.15649" height="1.15649" rx="0.578244" fill="#474F60"/>
<rect x="168.581" y="57.5427" width="1.15649" height="1.15649" rx="0.578244" fill="#474F60"/>
<rect x="173.596" y="57.5427" width="1.15649" height="1.15649" rx="0.578244" fill="#474F60"/>
<rect x="178.61" y="57.5427" width="1.15649" height="1.15649" rx="0.578244" fill="#474F60"/>
<rect x="183.625" y="57.5427" width="1.15649" height="1.15649" rx="0.578244" fill="#474F60"/>
<rect x="188.64" y="57.5427" width="1.15649" height="1.15649" rx="0.578244" fill="#474F60"/>
<rect x="193.654" y="57.5427" width="1.15649" height="1.15649" rx="0.578244" fill="#474F60"/>
<rect x="53.2443" y="62.5571" width="1.15649" height="1.15649" rx="0.578244" fill="#474F60"/>
<rect x="58.2588" y="62.5571" width="1.15649" height="1.15649" rx="0.578244" fill="#474F60"/>
<rect x="63.2735" y="62.5571" width="1.15649" height="1.15649" rx="0.578244" fill="#474F60"/>
<rect x="68.2881" y="62.5571" width="1.15649" height="1.15649" rx="0.578244" fill="#474F60"/>
<rect x="73.3028" y="62.5571" width="1.15649" height="1.15649" rx="0.578244" fill="#474F60"/>
<rect x="78.3175" y="62.5571" width="1.15649" height="1.15649" rx="0.578244" fill="#474F60"/>
<rect x="83.3322" y="62.5571" width="1.15649" height="1.15649" rx="0.578244" fill="#474F60"/>
<rect x="88.3467" y="62.5571" width="1.15649" height="1.15649" rx="0.578244" fill="#474F60"/>
<rect x="93.3614" y="62.5571" width="1.15649" height="1.15649" rx="0.578244" fill="#474F60"/>
<rect x="98.376" y="62.5571" width="1.15649" height="1.15649" rx="0.578244" fill="#474F60"/>
<rect x="103.391" y="62.5571" width="1.15649" height="1.15649" rx="0.578244" fill="#474F60"/>
<rect x="108.405" y="62.5571" width="1.15649" height="1.15649" rx="0.578244" fill="#474F60"/>
<rect x="113.42" y="62.5571" width="1.15649" height="1.15649" rx="0.578244" fill="#474F60"/>
<rect x="118.435" y="62.5571" width="1.15649" height="1.15649" rx="0.578244" fill="#474F60"/>
<rect x="123.449" y="62.5571" width="1.15649" height="1.15649" rx="0.578244" fill="#474F60"/>
<rect x="128.464" y="62.5571" width="1.15649" height="1.15649" rx="0.578244" fill="#474F60"/>
<rect x="133.479" y="62.5571" width="1.15649" height="1.15649" rx="0.578244" fill="#474F60"/>
<rect x="138.493" y="62.5571" width="1.15649" height="1.15649" rx="0.578244" fill="#474F60"/>
<rect x="143.508" y="62.5571" width="1.15649" height="1.15649" rx="0.578244" fill="#474F60"/>
<rect x="148.523" y="62.5571" width="1.15649" height="1.15649" rx="0.578244" fill="#474F60"/>
<rect x="153.537" y="62.5571" width="1.15649" height="1.15649" rx="0.578244" fill="#474F60"/>
<rect x="158.552" y="62.5571" width="1.15649" height="1.15649" rx="0.578244" fill="#474F60"/>
<rect x="163.566" y="62.5571" width="1.15649" height="1.15649" rx="0.578244" fill="#474F60"/>
<rect x="168.581" y="62.5571" width="1.15649" height="1.15649" rx="0.578244" fill="#474F60"/>
<rect x="173.596" y="62.5571" width="1.15649" height="1.15649" rx="0.578244" fill="#474F60"/>
<rect x="178.61" y="62.5571" width="1.15649" height="1.15649" rx="0.578244" fill="#474F60"/>
<rect x="183.625" y="62.5571" width="1.15649" height="1.15649" rx="0.578244" fill="#474F60"/>
<rect x="188.64" y="62.5571" width="1.15649" height="1.15649" rx="0.578244" fill="#474F60"/>
<rect x="193.654" y="62.5571" width="1.15649" height="1.15649" rx="0.578244" fill="#474F60"/>
<rect x="53.2443" y="67.572" width="1.15649" height="1.15649" rx="0.578244" fill="#474F60"/>
<rect x="58.2588" y="67.572" width="1.15649" height="1.15649" rx="0.578244" fill="#474F60"/>
<rect x="63.2735" y="67.572" width="1.15649" height="1.15649" rx="0.578244" fill="#474F60"/>
<rect x="68.2881" y="67.572" width="1.15649" height="1.15649" rx="0.578244" fill="#474F60"/>
<rect x="73.3028" y="67.572" width="1.15649" height="1.15649" rx="0.578244" fill="#474F60"/>
<rect x="78.3175" y="67.572" width="1.15649" height="1.15649" rx="0.578244" fill="#474F60"/>
<rect x="83.3322" y="67.572" width="1.15649" height="1.15649" rx="0.578244" fill="#474F60"/>
<rect x="88.3467" y="67.572" width="1.15649" height="1.15649" rx="0.578244" fill="#474F60"/>
<rect x="93.3614" y="67.572" width="1.15649" height="1.15649" rx="0.578244" fill="#474F60"/>
<rect x="98.376" y="67.572" width="1.15649" height="1.15649" rx="0.578244" fill="#474F60"/>
<rect x="103.391" y="67.572" width="1.15649" height="1.15649" rx="0.578244" fill="#474F60"/>
<rect x="108.405" y="67.572" width="1.15649" height="1.15649" rx="0.578244" fill="#474F60"/>
<rect x="113.42" y="67.572" width="1.15649" height="1.15649" rx="0.578244" fill="#474F60"/>
<rect x="118.435" y="67.572" width="1.15649" height="1.15649" rx="0.578244" fill="#474F60"/>
<rect x="123.449" y="67.572" width="1.15649" height="1.15649" rx="0.578244" fill="#474F60"/>
<rect x="128.464" y="67.572" width="1.15649" height="1.15649" rx="0.578244" fill="#474F60"/>
<rect x="133.479" y="67.572" width="1.15649" height="1.15649" rx="0.578244" fill="#474F60"/>
<rect x="138.493" y="67.572" width="1.15649" height="1.15649" rx="0.578244" fill="#474F60"/>
<rect x="143.508" y="67.572" width="1.15649" height="1.15649" rx="0.578244" fill="#474F60"/>
<rect x="148.523" y="67.572" width="1.15649" height="1.15649" rx="0.578244" fill="#474F60"/>
<rect x="153.537" y="67.572" width="1.15649" height="1.15649" rx="0.578244" fill="#474F60"/>
<rect x="158.552" y="67.572" width="1.15649" height="1.15649" rx="0.578244" fill="#474F60"/>
<rect x="163.566" y="67.572" width="1.15649" height="1.15649" rx="0.578244" fill="#474F60"/>
<rect x="168.581" y="67.572" width="1.15649" height="1.15649" rx="0.578244" fill="#474F60"/>
<rect x="173.596" y="67.572" width="1.15649" height="1.15649" rx="0.578244" fill="#474F60"/>
<rect x="178.61" y="67.572" width="1.15649" height="1.15649" rx="0.578244" fill="#474F60"/>
<rect x="183.625" y="67.572" width="1.15649" height="1.15649" rx="0.578244" fill="#474F60"/>
<rect x="188.64" y="67.572" width="1.15649" height="1.15649" rx="0.578244" fill="#474F60"/>
<rect x="193.654" y="67.572" width="1.15649" height="1.15649" rx="0.578244" fill="#474F60"/>
<rect x="53.2443" y="72.5867" width="1.15649" height="1.15649" rx="0.578244" fill="#474F60"/>
<rect x="58.2588" y="72.5867" width="1.15649" height="1.15649" rx="0.578244" fill="#474F60"/>
<rect x="63.2735" y="72.5867" width="1.15649" height="1.15649" rx="0.578244" fill="#474F60"/>
<rect x="68.2881" y="72.5867" width="1.15649" height="1.15649" rx="0.578244" fill="#474F60"/>
<rect x="73.3028" y="72.5867" width="1.15649" height="1.15649" rx="0.578244" fill="#474F60"/>
<rect x="78.3175" y="72.5867" width="1.15649" height="1.15649" rx="0.578244" fill="#474F60"/>
<rect x="83.3322" y="72.5867" width="1.15649" height="1.15649" rx="0.578244" fill="#474F60"/>
<rect x="88.3467" y="72.5867" width="1.15649" height="1.15649" rx="0.578244" fill="#474F60"/>
<rect x="93.3614" y="72.5867" width="1.15649" height="1.15649" rx="0.578244" fill="#474F60"/>
<rect x="98.376" y="72.5867" width="1.15649" height="1.15649" rx="0.578244" fill="#474F60"/>
<rect x="103.391" y="72.5867" width="1.15649" height="1.15649" rx="0.578244" fill="#474F60"/>
<rect x="108.405" y="72.5867" width="1.15649" height="1.15649" rx="0.578244" fill="#474F60"/>
<rect x="113.42" y="72.5867" width="1.15649" height="1.15649" rx="0.578244" fill="#474F60"/>
<rect x="118.435" y="72.5867" width="1.15649" height="1.15649" rx="0.578244" fill="#474F60"/>
<rect x="123.449" y="72.5867" width="1.15649" height="1.15649" rx="0.578244" fill="#474F60"/>
<rect x="128.464" y="72.5867" width="1.15649" height="1.15649" rx="0.578244" fill="#474F60"/>
<rect x="133.479" y="72.5867" width="1.15649" height="1.15649" rx="0.578244" fill="#474F60"/>
<rect x="138.493" y="72.5867" width="1.15649" height="1.15649" rx="0.578244" fill="#474F60"/>
<rect x="143.508" y="72.5867" width="1.15649" height="1.15649" rx="0.578244" fill="#474F60"/>
<rect x="148.523" y="72.5867" width="1.15649" height="1.15649" rx="0.578244" fill="#474F60"/>
<rect x="153.537" y="72.5867" width="1.15649" height="1.15649" rx="0.578244" fill="#474F60"/>
<rect x="158.552" y="72.5867" width="1.15649" height="1.15649" rx="0.578244" fill="#474F60"/>
<rect x="163.566" y="72.5867" width="1.15649" height="1.15649" rx="0.578244" fill="#474F60"/>
<rect x="168.581" y="72.5867" width="1.15649" height="1.15649" rx="0.578244" fill="#474F60"/>
<rect x="173.596" y="72.5867" width="1.15649" height="1.15649" rx="0.578244" fill="#474F60"/>
<rect x="178.61" y="72.5867" width="1.15649" height="1.15649" rx="0.578244" fill="#474F60"/>
<rect x="183.625" y="72.5867" width="1.15649" height="1.15649" rx="0.578244" fill="#474F60"/>
<rect x="188.64" y="72.5867" width="1.15649" height="1.15649" rx="0.578244" fill="#474F60"/>
<rect x="193.654" y="72.5867" width="1.15649" height="1.15649" rx="0.578244" fill="#474F60"/>
<rect x="53.2443" y="77.6013" width="1.15649" height="1.15649" rx="0.578244" fill="#474F60"/>
<rect x="58.2588" y="77.6013" width="1.15649" height="1.15649" rx="0.578244" fill="#474F60"/>
<rect x="63.2735" y="77.6013" width="1.15649" height="1.15649" rx="0.578244" fill="#474F60"/>
<rect x="68.2881" y="77.6013" width="1.15649" height="1.15649" rx="0.578244" fill="#474F60"/>
<rect x="73.3028" y="77.6013" width="1.15649" height="1.15649" rx="0.578244" fill="#474F60"/>
<rect x="78.3175" y="77.6013" width="1.15649" height="1.15649" rx="0.578244" fill="#474F60"/>
<rect x="83.3322" y="77.6013" width="1.15649" height="1.15649" rx="0.578244" fill="#474F60"/>
<rect x="88.3467" y="77.6013" width="1.15649" height="1.15649" rx="0.578244" fill="#474F60"/>
<rect x="93.3614" y="77.6013" width="1.15649" height="1.15649" rx="0.578244" fill="#474F60"/>
<rect x="98.376" y="77.6013" width="1.15649" height="1.15649" rx="0.578244" fill="#474F60"/>
<rect x="103.391" y="77.6013" width="1.15649" height="1.15649" rx="0.578244" fill="#474F60"/>
<rect x="108.405" y="77.6013" width="1.15649" height="1.15649" rx="0.578244" fill="#474F60"/>
<rect x="113.42" y="77.6013" width="1.15649" height="1.15649" rx="0.578244" fill="#474F60"/>
<rect x="118.435" y="77.6013" width="1.15649" height="1.15649" rx="0.578244" fill="#474F60"/>
<rect x="123.449" y="77.6013" width="1.15649" height="1.15649" rx="0.578244" fill="#474F60"/>
<rect x="128.464" y="77.6013" width="1.15649" height="1.15649" rx="0.578244" fill="#474F60"/>
<rect x="133.479" y="77.6013" width="1.15649" height="1.15649" rx="0.578244" fill="#474F60"/>
<rect x="138.493" y="77.6013" width="1.15649" height="1.15649" rx="0.578244" fill="#474F60"/>
<rect x="143.508" y="77.6013" width="1.15649" height="1.15649" rx="0.578244" fill="#474F60"/>
<rect x="148.523" y="77.6013" width="1.15649" height="1.15649" rx="0.578244" fill="#474F60"/>
<rect x="153.537" y="77.6013" width="1.15649" height="1.15649" rx="0.578244" fill="#474F60"/>
<rect x="158.552" y="77.6013" width="1.15649" height="1.15649" rx="0.578244" fill="#474F60"/>
<rect x="163.566" y="77.6013" width="1.15649" height="1.15649" rx="0.578244" fill="#474F60"/>
<rect x="168.581" y="77.6013" width="1.15649" height="1.15649" rx="0.578244" fill="#474F60"/>
<rect x="173.596" y="77.6013" width="1.15649" height="1.15649" rx="0.578244" fill="#474F60"/>
<rect x="178.61" y="77.6013" width="1.15649" height="1.15649" rx="0.578244" fill="#474F60"/>
<rect x="183.625" y="77.6013" width="1.15649" height="1.15649" rx="0.578244" fill="#474F60"/>
<rect x="188.64" y="77.6013" width="1.15649" height="1.15649" rx="0.578244" fill="#474F60"/>
<rect x="193.654" y="77.6013" width="1.15649" height="1.15649" rx="0.578244" fill="#474F60"/>
<rect x="53.2443" y="82.616" width="1.15649" height="1.15649" rx="0.578244" fill="#474F60"/>
<rect x="58.2588" y="82.616" width="1.15649" height="1.15649" rx="0.578244" fill="#474F60"/>
<rect x="63.2735" y="82.616" width="1.15649" height="1.15649" rx="0.578244" fill="#474F60"/>
<rect x="68.2881" y="82.616" width="1.15649" height="1.15649" rx="0.578244" fill="#474F60"/>
<rect x="73.3028" y="82.616" width="1.15649" height="1.15649" rx="0.578244" fill="#474F60"/>
<rect x="78.3175" y="82.616" width="1.15649" height="1.15649" rx="0.578244" fill="#474F60"/>
<rect x="83.3322" y="82.616" width="1.15649" height="1.15649" rx="0.578244" fill="#474F60"/>
<rect x="88.3467" y="82.616" width="1.15649" height="1.15649" rx="0.578244" fill="#474F60"/>
<rect x="93.3614" y="82.616" width="1.15649" height="1.15649" rx="0.578244" fill="#474F60"/>
<rect x="98.376" y="82.616" width="1.15649" height="1.15649" rx="0.578244" fill="#474F60"/>
<rect x="103.391" y="82.616" width="1.15649" height="1.15649" rx="0.578244" fill="#474F60"/>
<rect x="108.405" y="82.616" width="1.15649" height="1.15649" rx="0.578244" fill="#474F60"/>
<rect x="113.42" y="82.616" width="1.15649" height="1.15649" rx="0.578244" fill="#474F60"/>
<rect x="118.435" y="82.616" width="1.15649" height="1.15649" rx="0.578244" fill="#474F60"/>
<rect x="123.449" y="82.616" width="1.15649" height="1.15649" rx="0.578244" fill="#474F60"/>
<rect x="128.464" y="82.616" width="1.15649" height="1.15649" rx="0.578244" fill="#474F60"/>
<rect x="133.479" y="82.616" width="1.15649" height="1.15649" rx="0.578244" fill="#474F60"/>
<rect x="138.493" y="82.616" width="1.15649" height="1.15649" rx="0.578244" fill="#474F60"/>
<rect x="143.508" y="82.616" width="1.15649" height="1.15649" rx="0.578244" fill="#474F60"/>
<rect x="148.523" y="82.616" width="1.15649" height="1.15649" rx="0.578244" fill="#474F60"/>
<rect x="153.537" y="82.616" width="1.15649" height="1.15649" rx="0.578244" fill="#474F60"/>
<rect x="158.552" y="82.616" width="1.15649" height="1.15649" rx="0.578244" fill="#474F60"/>
<rect x="163.566" y="82.616" width="1.15649" height="1.15649" rx="0.578244" fill="#474F60"/>
<rect x="168.581" y="82.616" width="1.15649" height="1.15649" rx="0.578244" fill="#474F60"/>
<rect x="173.596" y="82.616" width="1.15649" height="1.15649" rx="0.578244" fill="#474F60"/>
<rect x="178.61" y="82.616" width="1.15649" height="1.15649" rx="0.578244" fill="#474F60"/>
<rect x="183.625" y="82.616" width="1.15649" height="1.15649" rx="0.578244" fill="#474F60"/>
<rect x="188.64" y="82.616" width="1.15649" height="1.15649" rx="0.578244" fill="#474F60"/>
<rect x="193.654" y="82.616" width="1.15649" height="1.15649" rx="0.578244" fill="#474F60"/>
<rect x="53.2443" y="87.6306" width="1.15649" height="1.15649" rx="0.578244" fill="#474F60"/>
<rect x="58.2588" y="87.6306" width="1.15649" height="1.15649" rx="0.578244" fill="#474F60"/>
<rect x="63.2735" y="87.6306" width="1.15649" height="1.15649" rx="0.578244" fill="#474F60"/>
<rect x="68.2881" y="87.6306" width="1.15649" height="1.15649" rx="0.578244" fill="#474F60"/>
<rect x="73.3028" y="87.6306" width="1.15649" height="1.15649" rx="0.578244" fill="#474F60"/>
<rect x="78.3175" y="87.6306" width="1.15649" height="1.15649" rx="0.578244" fill="#474F60"/>
<rect x="83.3322" y="87.6306" width="1.15649" height="1.15649" rx="0.578244" fill="#474F60"/>
<rect x="88.3467" y="87.6306" width="1.15649" height="1.15649" rx="0.578244" fill="#474F60"/>
<rect x="93.3614" y="87.6306" width="1.15649" height="1.15649" rx="0.578244" fill="#474F60"/>
<rect x="98.376" y="87.6306" width="1.15649" height="1.15649" rx="0.578244" fill="#474F60"/>
<rect x="103.391" y="87.6306" width="1.15649" height="1.15649" rx="0.578244" fill="#474F60"/>
<rect x="108.405" y="87.6306" width="1.15649" height="1.15649" rx="0.578244" fill="#474F60"/>
<rect x="113.42" y="87.6306" width="1.15649" height="1.15649" rx="0.578244" fill="#474F60"/>
<rect x="118.435" y="87.6306" width="1.15649" height="1.15649" rx="0.578244" fill="#474F60"/>
<rect x="123.449" y="87.6306" width="1.15649" height="1.15649" rx="0.578244" fill="#474F60"/>
<rect x="128.464" y="87.6306" width="1.15649" height="1.15649" rx="0.578244" fill="#474F60"/>
<rect x="133.479" y="87.6306" width="1.15649" height="1.15649" rx="0.578244" fill="#474F60"/>
<rect x="138.493" y="87.6306" width="1.15649" height="1.15649" rx="0.578244" fill="#474F60"/>
<rect x="143.508" y="87.6306" width="1.15649" height="1.15649" rx="0.578244" fill="#474F60"/>
<rect x="148.523" y="87.6306" width="1.15649" height="1.15649" rx="0.578244" fill="#474F60"/>
<rect x="153.537" y="87.6306" width="1.15649" height="1.15649" rx="0.578244" fill="#474F60"/>
<rect x="158.552" y="87.6306" width="1.15649" height="1.15649" rx="0.578244" fill="#474F60"/>
<rect x="163.566" y="87.6306" width="1.15649" height="1.15649" rx="0.578244" fill="#474F60"/>
<rect x="168.581" y="87.6306" width="1.15649" height="1.15649" rx="0.578244" fill="#474F60"/>
<rect x="173.596" y="87.6306" width="1.15649" height="1.15649" rx="0.578244" fill="#474F60"/>
<rect x="178.61" y="87.6306" width="1.15649" height="1.15649" rx="0.578244" fill="#474F60"/>
<rect x="183.625" y="87.6306" width="1.15649" height="1.15649" rx="0.578244" fill="#474F60"/>
<rect x="188.64" y="87.6306" width="1.15649" height="1.15649" rx="0.578244" fill="#474F60"/>
<rect x="193.654" y="87.6306" width="1.15649" height="1.15649" rx="0.578244" fill="#474F60"/>
<rect x="53.2443" y="92.645" width="1.15649" height="1.15649" rx="0.578244" fill="#474F60"/>
<rect x="58.2588" y="92.645" width="1.15649" height="1.15649" rx="0.578244" fill="#474F60"/>
<rect x="63.2735" y="92.645" width="1.15649" height="1.15649" rx="0.578244" fill="#474F60"/>
<rect x="68.2881" y="92.645" width="1.15649" height="1.15649" rx="0.578244" fill="#474F60"/>
<rect x="73.3028" y="92.645" width="1.15649" height="1.15649" rx="0.578244" fill="#474F60"/>
<rect x="78.3175" y="92.645" width="1.15649" height="1.15649" rx="0.578244" fill="#474F60"/>
<rect x="83.3322" y="92.645" width="1.15649" height="1.15649" rx="0.578244" fill="#474F60"/>
<rect x="88.3467" y="92.645" width="1.15649" height="1.15649" rx="0.578244" fill="#474F60"/>
<rect x="93.3614" y="92.645" width="1.15649" height="1.15649" rx="0.578244" fill="#474F60"/>
<rect x="98.376" y="92.645" width="1.15649" height="1.15649" rx="0.578244" fill="#474F60"/>
<rect x="103.391" y="92.645" width="1.15649" height="1.15649" rx="0.578244" fill="#474F60"/>
<rect x="108.405" y="92.645" width="1.15649" height="1.15649" rx="0.578244" fill="#474F60"/>
<rect x="113.42" y="92.645" width="1.15649" height="1.15649" rx="0.578244" fill="#474F60"/>
<rect x="118.435" y="92.645" width="1.15649" height="1.15649" rx="0.578244" fill="#474F60"/>
<rect x="123.449" y="92.645" width="1.15649" height="1.15649" rx="0.578244" fill="#474F60"/>
<rect x="128.464" y="92.645" width="1.15649" height="1.15649" rx="0.578244" fill="#474F60"/>
<rect x="133.479" y="92.645" width="1.15649" height="1.15649" rx="0.578244" fill="#474F60"/>
<rect x="138.493" y="92.645" width="1.15649" height="1.15649" rx="0.578244" fill="#474F60"/>
<rect x="143.508" y="92.645" width="1.15649" height="1.15649" rx="0.578244" fill="#474F60"/>
<rect x="148.523" y="92.645" width="1.15649" height="1.15649" rx="0.578244" fill="#474F60"/>
<rect x="153.537" y="92.645" width="1.15649" height="1.15649" rx="0.578244" fill="#474F60"/>
<rect x="158.552" y="92.645" width="1.15649" height="1.15649" rx="0.578244" fill="#474F60"/>
<rect x="163.566" y="92.645" width="1.15649" height="1.15649" rx="0.578244" fill="#474F60"/>
<rect x="168.581" y="92.645" width="1.15649" height="1.15649" rx="0.578244" fill="#474F60"/>
<rect x="173.596" y="92.645" width="1.15649" height="1.15649" rx="0.578244" fill="#474F60"/>
<rect x="178.61" y="92.645" width="1.15649" height="1.15649" rx="0.578244" fill="#474F60"/>
<rect x="183.625" y="92.645" width="1.15649" height="1.15649" rx="0.578244" fill="#474F60"/>
<rect x="188.64" y="92.645" width="1.15649" height="1.15649" rx="0.578244" fill="#474F60"/>
<rect x="193.654" y="92.645" width="1.15649" height="1.15649" rx="0.578244" fill="#474F60"/>
<rect x="53.2443" y="97.6599" width="1.15649" height="1.15649" rx="0.578244" fill="#474F60"/>
<rect x="58.2588" y="97.6599" width="1.15649" height="1.15649" rx="0.578244" fill="#474F60"/>
<rect x="63.2735" y="97.6599" width="1.15649" height="1.15649" rx="0.578244" fill="#474F60"/>
<rect x="68.2881" y="97.6599" width="1.15649" height="1.15649" rx="0.578244" fill="#474F60"/>
<rect x="73.3028" y="97.6599" width="1.15649" height="1.15649" rx="0.578244" fill="#474F60"/>
<rect x="78.3175" y="97.6599" width="1.15649" height="1.15649" rx="0.578244" fill="#474F60"/>
<rect x="83.3322" y="97.6599" width="1.15649" height="1.15649" rx="0.578244" fill="#474F60"/>
<rect x="88.3467" y="97.6599" width="1.15649" height="1.15649" rx="0.578244" fill="#474F60"/>
<rect x="93.3614" y="97.6599" width="1.15649" height="1.15649" rx="0.578244" fill="#474F60"/>
<rect x="98.376" y="97.6599" width="1.15649" height="1.15649" rx="0.578244" fill="#474F60"/>
<rect x="103.391" y="97.6599" width="1.15649" height="1.15649" rx="0.578244" fill="#474F60"/>
<rect x="108.405" y="97.6599" width="1.15649" height="1.15649" rx="0.578244" fill="#474F60"/>
<rect x="113.42" y="97.6599" width="1.15649" height="1.15649" rx="0.578244" fill="#474F60"/>
<rect x="118.435" y="97.6599" width="1.15649" height="1.15649" rx="0.578244" fill="#474F60"/>
<rect x="123.449" y="97.6599" width="1.15649" height="1.15649" rx="0.578244" fill="#474F60"/>
<rect x="128.464" y="97.6599" width="1.15649" height="1.15649" rx="0.578244" fill="#474F60"/>
<rect x="133.479" y="97.6599" width="1.15649" height="1.15649" rx="0.578244" fill="#474F60"/>
<rect x="138.493" y="97.6599" width="1.15649" height="1.15649" rx="0.578244" fill="#474F60"/>
<rect x="143.508" y="97.6599" width="1.15649" height="1.15649" rx="0.578244" fill="#474F60"/>
<rect x="148.523" y="97.6599" width="1.15649" height="1.15649" rx="0.578244" fill="#474F60"/>
<rect x="153.537" y="97.6599" width="1.15649" height="1.15649" rx="0.578244" fill="#474F60"/>
<rect x="158.552" y="97.6599" width="1.15649" height="1.15649" rx="0.578244" fill="#474F60"/>
<rect x="163.566" y="97.6599" width="1.15649" height="1.15649" rx="0.578244" fill="#474F60"/>
<rect x="168.581" y="97.6599" width="1.15649" height="1.15649" rx="0.578244" fill="#474F60"/>
<rect x="173.596" y="97.6599" width="1.15649" height="1.15649" rx="0.578244" fill="#474F60"/>
<rect x="178.61" y="97.6599" width="1.15649" height="1.15649" rx="0.578244" fill="#474F60"/>
<rect x="183.625" y="97.6599" width="1.15649" height="1.15649" rx="0.578244" fill="#474F60"/>
<rect x="188.64" y="97.6599" width="1.15649" height="1.15649" rx="0.578244" fill="#474F60"/>
<rect x="193.654" y="97.6599" width="1.15649" height="1.15649" rx="0.578244" fill="#474F60"/>
<rect x="53.2443" y="102.675" width="1.15649" height="1.15649" rx="0.578244" fill="#474F60"/>
<rect x="58.2588" y="102.675" width="1.15649" height="1.15649" rx="0.578244" fill="#474F60"/>
<rect x="63.2735" y="102.675" width="1.15649" height="1.15649" rx="0.578244" fill="#474F60"/>
<rect x="68.2881" y="102.675" width="1.15649" height="1.15649" rx="0.578244" fill="#474F60"/>
<rect x="73.3028" y="102.675" width="1.15649" height="1.15649" rx="0.578244" fill="#474F60"/>
<rect x="78.3175" y="102.675" width="1.15649" height="1.15649" rx="0.578244" fill="#474F60"/>
<rect x="83.3322" y="102.675" width="1.15649" height="1.15649" rx="0.578244" fill="#474F60"/>
<rect x="88.3467" y="102.675" width="1.15649" height="1.15649" rx="0.578244" fill="#474F60"/>
<rect x="93.3614" y="102.675" width="1.15649" height="1.15649" rx="0.578244" fill="#474F60"/>
<rect x="98.376" y="102.675" width="1.15649" height="1.15649" rx="0.578244" fill="#474F60"/>
<rect x="103.391" y="102.675" width="1.15649" height="1.15649" rx="0.578244" fill="#474F60"/>
<rect x="108.405" y="102.675" width="1.15649" height="1.15649" rx="0.578244" fill="#474F60"/>
<rect x="113.42" y="102.675" width="1.15649" height="1.15649" rx="0.578244" fill="#474F60"/>
<rect x="118.435" y="102.675" width="1.15649" height="1.15649" rx="0.578244" fill="#474F60"/>
<rect x="123.449" y="102.675" width="1.15649" height="1.15649" rx="0.578244" fill="#474F60"/>
<rect x="128.464" y="102.675" width="1.15649" height="1.15649" rx="0.578244" fill="#474F60"/>
<rect x="133.479" y="102.675" width="1.15649" height="1.15649" rx="0.578244" fill="#474F60"/>
<rect x="138.493" y="102.675" width="1.15649" height="1.15649" rx="0.578244" fill="#474F60"/>
<rect x="143.508" y="102.675" width="1.15649" height="1.15649" rx="0.578244" fill="#474F60"/>
<rect x="148.523" y="102.675" width="1.15649" height="1.15649" rx="0.578244" fill="#474F60"/>
<rect x="153.537" y="102.675" width="1.15649" height="1.15649" rx="0.578244" fill="#474F60"/>
<rect x="158.552" y="102.675" width="1.15649" height="1.15649" rx="0.578244" fill="#474F60"/>
<rect x="163.566" y="102.675" width="1.15649" height="1.15649" rx="0.578244" fill="#474F60"/>
<rect x="168.581" y="102.675" width="1.15649" height="1.15649" rx="0.578244" fill="#474F60"/>
<rect x="173.596" y="102.675" width="1.15649" height="1.15649" rx="0.578244" fill="#474F60"/>
<rect x="178.61" y="102.675" width="1.15649" height="1.15649" rx="0.578244" fill="#474F60"/>
<rect x="183.625" y="102.675" width="1.15649" height="1.15649" rx="0.578244" fill="#474F60"/>
<rect x="188.64" y="102.675" width="1.15649" height="1.15649" rx="0.578244" fill="#474F60"/>
<rect x="193.654" y="102.675" width="1.15649" height="1.15649" rx="0.578244" fill="#474F60"/>
<rect x="53.2443" y="107.689" width="1.15649" height="1.15649" rx="0.578244" fill="#474F60"/>
<rect x="58.2588" y="107.689" width="1.15649" height="1.15649" rx="0.578244" fill="#474F60"/>
<rect x="63.2735" y="107.689" width="1.15649" height="1.15649" rx="0.578244" fill="#474F60"/>
<rect x="68.2881" y="107.689" width="1.15649" height="1.15649" rx="0.578244" fill="#474F60"/>
<rect x="73.3028" y="107.689" width="1.15649" height="1.15649" rx="0.578244" fill="#474F60"/>
<rect x="78.3175" y="107.689" width="1.15649" height="1.15649" rx="0.578244" fill="#474F60"/>
<rect x="83.3322" y="107.689" width="1.15649" height="1.15649" rx="0.578244" fill="#474F60"/>
<rect x="88.3467" y="107.689" width="1.15649" height="1.15649" rx="0.578244" fill="#474F60"/>
<rect x="93.3614" y="107.689" width="1.15649" height="1.15649" rx="0.578244" fill="#474F60"/>
<rect x="98.376" y="107.689" width="1.15649" height="1.15649" rx="0.578244" fill="#474F60"/>
<rect x="103.391" y="107.689" width="1.15649" height="1.15649" rx="0.578244" fill="#474F60"/>
<rect x="108.405" y="107.689" width="1.15649" height="1.15649" rx="0.578244" fill="#474F60"/>
<rect x="113.42" y="107.689" width="1.15649" height="1.15649" rx="0.578244" fill="#474F60"/>
<rect x="118.435" y="107.689" width="1.15649" height="1.15649" rx="0.578244" fill="#474F60"/>
<rect x="123.449" y="107.689" width="1.15649" height="1.15649" rx="0.578244" fill="#474F60"/>
<rect x="128.464" y="107.689" width="1.15649" height="1.15649" rx="0.578244" fill="#474F60"/>
<rect x="133.479" y="107.689" width="1.15649" height="1.15649" rx="0.578244" fill="#474F60"/>
<rect x="138.493" y="107.689" width="1.15649" height="1.15649" rx="0.578244" fill="#474F60"/>
<rect x="143.508" y="107.689" width="1.15649" height="1.15649" rx="0.578244" fill="#474F60"/>
<rect x="148.523" y="107.689" width="1.15649" height="1.15649" rx="0.578244" fill="#474F60"/>
<rect x="153.537" y="107.689" width="1.15649" height="1.15649" rx="0.578244" fill="#474F60"/>
<rect x="158.552" y="107.689" width="1.15649" height="1.15649" rx="0.578244" fill="#474F60"/>
<rect x="163.566" y="107.689" width="1.15649" height="1.15649" rx="0.578244" fill="#474F60"/>
<rect x="168.581" y="107.689" width="1.15649" height="1.15649" rx="0.578244" fill="#474F60"/>
<rect x="173.596" y="107.689" width="1.15649" height="1.15649" rx="0.578244" fill="#474F60"/>
<rect x="178.61" y="107.689" width="1.15649" height="1.15649" rx="0.578244" fill="#474F60"/>
<rect x="183.625" y="107.689" width="1.15649" height="1.15649" rx="0.578244" fill="#474F60"/>
<rect x="188.64" y="107.689" width="1.15649" height="1.15649" rx="0.578244" fill="#474F60"/>
<rect x="193.654" y="107.689" width="1.15649" height="1.15649" rx="0.578244" fill="#474F60"/>
<rect x="53.2443" y="112.704" width="1.15649" height="1.15649" rx="0.578244" fill="#474F60"/>
<rect x="58.2588" y="112.704" width="1.15649" height="1.15649" rx="0.578244" fill="#474F60"/>
<rect x="63.2735" y="112.704" width="1.15649" height="1.15649" rx="0.578244" fill="#474F60"/>
<rect x="68.2881" y="112.704" width="1.15649" height="1.15649" rx="0.578244" fill="#474F60"/>
<rect x="73.3028" y="112.704" width="1.15649" height="1.15649" rx="0.578244" fill="#474F60"/>
<rect x="78.3175" y="112.704" width="1.15649" height="1.15649" rx="0.578244" fill="#474F60"/>
<rect x="83.3322" y="112.704" width="1.15649" height="1.15649" rx="0.578244" fill="#474F60"/>
<rect x="88.3467" y="112.704" width="1.15649" height="1.15649" rx="0.578244" fill="#474F60"/>
<rect x="93.3614" y="112.704" width="1.15649" height="1.15649" rx="0.578244" fill="#474F60"/>
<rect x="98.376" y="112.704" width="1.15649" height="1.15649" rx="0.578244" fill="#474F60"/>
<rect x="103.391" y="112.704" width="1.15649" height="1.15649" rx="0.578244" fill="#474F60"/>
<rect x="108.405" y="112.704" width="1.15649" height="1.15649" rx="0.578244" fill="#474F60"/>
<rect x="113.42" y="112.704" width="1.15649" height="1.15649" rx="0.578244" fill="#474F60"/>
<rect x="118.435" y="112.704" width="1.15649" height="1.15649" rx="0.578244" fill="#474F60"/>
<rect x="123.449" y="112.704" width="1.15649" height="1.15649" rx="0.578244" fill="#474F60"/>
<rect x="128.464" y="112.704" width="1.15649" height="1.15649" rx="0.578244" fill="#474F60"/>
<rect x="133.479" y="112.704" width="1.15649" height="1.15649" rx="0.578244" fill="#474F60"/>
<rect x="138.493" y="112.704" width="1.15649" height="1.15649" rx="0.578244" fill="#474F60"/>
<rect x="143.508" y="112.704" width="1.15649" height="1.15649" rx="0.578244" fill="#474F60"/>
<rect x="148.523" y="112.704" width="1.15649" height="1.15649" rx="0.578244" fill="#474F60"/>
<rect x="153.537" y="112.704" width="1.15649" height="1.15649" rx="0.578244" fill="#474F60"/>
<rect x="158.552" y="112.704" width="1.15649" height="1.15649" rx="0.578244" fill="#474F60"/>
<rect x="163.566" y="112.704" width="1.15649" height="1.15649" rx="0.578244" fill="#474F60"/>
<rect x="168.581" y="112.704" width="1.15649" height="1.15649" rx="0.578244" fill="#474F60"/>
<rect x="173.596" y="112.704" width="1.15649" height="1.15649" rx="0.578244" fill="#474F60"/>
<rect x="178.61" y="112.704" width="1.15649" height="1.15649" rx="0.578244" fill="#474F60"/>
<rect x="183.625" y="112.704" width="1.15649" height="1.15649" rx="0.578244" fill="#474F60"/>
<rect x="188.64" y="112.704" width="1.15649" height="1.15649" rx="0.578244" fill="#474F60"/>
<rect x="193.654" y="112.704" width="1.15649" height="1.15649" rx="0.578244" fill="#474F60"/>
<rect x="53.2443" y="117.719" width="1.15649" height="1.15649" rx="0.578244" fill="#474F60"/>
<rect x="58.2588" y="117.719" width="1.15649" height="1.15649" rx="0.578244" fill="#474F60"/>
<rect x="63.2735" y="117.719" width="1.15649" height="1.15649" rx="0.578244" fill="#474F60"/>
<rect x="68.2881" y="117.719" width="1.15649" height="1.15649" rx="0.578244" fill="#474F60"/>
<rect x="73.3028" y="117.719" width="1.15649" height="1.15649" rx="0.578244" fill="#474F60"/>
<rect x="78.3175" y="117.719" width="1.15649" height="1.15649" rx="0.578244" fill="#474F60"/>
<rect x="83.3322" y="117.719" width="1.15649" height="1.15649" rx="0.578244" fill="#474F60"/>
<rect x="88.3467" y="117.719" width="1.15649" height="1.15649" rx="0.578244" fill="#474F60"/>
<rect x="93.3614" y="117.719" width="1.15649" height="1.15649" rx="0.578244" fill="#474F60"/>
<rect x="98.376" y="117.719" width="1.15649" height="1.15649" rx="0.578244" fill="#474F60"/>
<rect x="103.391" y="117.719" width="1.15649" height="1.15649" rx="0.578244" fill="#474F60"/>
<rect x="108.405" y="117.719" width="1.15649" height="1.15649" rx="0.578244" fill="#474F60"/>
<rect x="113.42" y="117.719" width="1.15649" height="1.15649" rx="0.578244" fill="#474F60"/>
<rect x="118.435" y="117.719" width="1.15649" height="1.15649" rx="0.578244" fill="#474F60"/>
<rect x="123.449" y="117.719" width="1.15649" height="1.15649" rx="0.578244" fill="#474F60"/>
<rect x="128.464" y="117.719" width="1.15649" height="1.15649" rx="0.578244" fill="#474F60"/>
<rect x="133.479" y="117.719" width="1.15649" height="1.15649" rx="0.578244" fill="#474F60"/>
<rect x="138.493" y="117.719" width="1.15649" height="1.15649" rx="0.578244" fill="#474F60"/>
<rect x="143.508" y="117.719" width="1.15649" height="1.15649" rx="0.578244" fill="#474F60"/>
<rect x="148.523" y="117.719" width="1.15649" height="1.15649" rx="0.578244" fill="#474F60"/>
<rect x="153.537" y="117.719" width="1.15649" height="1.15649" rx="0.578244" fill="#474F60"/>
<rect x="158.552" y="117.719" width="1.15649" height="1.15649" rx="0.578244" fill="#474F60"/>
<rect x="163.566" y="117.719" width="1.15649" height="1.15649" rx="0.578244" fill="#474F60"/>
<rect x="168.581" y="117.719" width="1.15649" height="1.15649" rx="0.578244" fill="#474F60"/>
<rect x="173.596" y="117.719" width="1.15649" height="1.15649" rx="0.578244" fill="#474F60"/>
<rect x="178.61" y="117.719" width="1.15649" height="1.15649" rx="0.578244" fill="#474F60"/>
<rect x="183.625" y="117.719" width="1.15649" height="1.15649" rx="0.578244" fill="#474F60"/>
<rect x="188.64" y="117.719" width="1.15649" height="1.15649" rx="0.578244" fill="#474F60"/>
<rect x="193.654" y="117.719" width="1.15649" height="1.15649" rx="0.578244" fill="#474F60"/>
<mask id="path-610-inside-1" fill="white">
<rect x="21.6336" y="7.40259" width="159.595" height="94.8321" rx="1.38299"/>
</mask>
<rect x="21.6336" y="7.40259" width="159.595" height="94.8321" rx="1.38299" fill="white" stroke="#333A4A" stroke-width="3.08397" mask="url(#path-610-inside-1)"/>
<rect x="84.0839" y="39.7842" width="82.4962" height="49.3435" stroke="#727C90" stroke-width="1.54198" stroke-dasharray="4.63 7.71"/>
<rect x="84.0839" y="16.6545" width="28.5267" height="14.6489" rx="7.32443" fill="#1ABF7E"/>
<circle cx="92.9504" cy="23.979" r="5.01145" fill="white"/>
<mask id="path-614-inside-2" fill="white">
<rect x="0.816772" y="2.00562" width="66.3053" height="65.5343" rx="1.38299"/>
</mask>
<rect x="0.816772" y="2.00562" width="66.3053" height="65.5343" rx="1.38299" fill="white" stroke="#474F60" stroke-width="3.08397" mask="url(#path-614-inside-2)"/>
<circle cx="11.9962" cy="14.727" r="5.01145" fill="#1ABF7E"/>
<circle cx="11.9962" cy="32.4599" r="4.62595" stroke="#F58F00" stroke-width="0.770992"/>
<circle cx="11.9962" cy="49.4216" r="4.62595" stroke="#F58F00" stroke-width="0.770992"/>
<path d="M117.044 65.3033H123.405V72.0495H125.718V65.3033H132.078V63.183H125.718V56.4369H123.405V63.183H117.044V65.3033Z" fill="#727C90"/>
<path d="M69.4297 81.8775C69.4297 82.0741 69.2776 82.2291 69.0839 82.2291H61.0858L65.5971 92.9248L61.1417 94.862L56.5342 83.9409L50.6253 89.1625C50.5694 89.2185 50.4876 89.2472 50.4043 89.2472C50.2106 89.2472 50.0585 89.0922 50.0585 88.8956V62.9282C50.0585 62.7316 50.2106 62.5767 50.4043 62.5767C50.5019 62.5767 50.5837 62.6183 50.654 62.6742L69.3336 81.625C69.3881 81.6953 69.4297 81.78 69.4297 81.8775Z" fill="#1ABF7E"/>
<path d="M53.2871 65.346L50.654 62.6742C50.5851 62.6183 50.5019 62.5767 50.4043 62.5767C50.2106 62.5767 50.0585 62.7316 50.0585 62.9282V88.8971C50.0585 89.0937 50.2106 89.2486 50.4043 89.2486C50.4876 89.2486 50.5708 89.2199 50.6253 89.164L53.2871 86.8107V65.346Z" fill="#21A37A"/>
<path d="M70.8647 99.5252C69.678 99.5252 68.7123 98.5595 68.7123 97.3728C68.7123 96.1862 69.678 95.2205 70.8647 95.2205C72.0513 95.2205 73.017 96.1862 73.017 97.3728C73.017 98.5595 72.0513 99.5252 70.8647 99.5252ZM70.8647 96.6554C70.4686 96.6554 70.1472 96.9768 70.1472 97.3728C70.1472 97.7689 70.4686 98.0903 70.8647 98.0903C71.2607 98.0903 71.5821 97.7689 71.5821 97.3728C71.5821 96.9768 71.2607 96.6554 70.8647 96.6554Z" fill="#A6AFC0"/>
<path d="M45.2632 57.647L46.2778 56.6323L48.3071 58.6616L47.2925 59.6762L45.2632 57.647Z" fill="#A6AFC0"/>
<path d="M45.0085 64.4956L47.0378 62.4663L48.0524 63.481L46.0232 65.5102L45.0085 64.4956Z" fill="#A6AFC0"/>
<path d="M50.8429 58.6633L52.8722 56.6341L53.8868 57.6487L51.8575 59.678L50.8429 58.6633Z" fill="#A6AFC0"/>
<path d="M61.1418 95.9384C61.0054 95.9384 60.8706 95.9126 60.7414 95.8609C60.4745 95.7547 60.2622 95.5452 60.1502 95.2798L56.1239 85.7391L51.3385 89.9692C51.1376 90.1758 50.7775 90.3236 50.4044 90.3236C49.6209 90.3236 48.9824 89.6836 48.9824 88.8959V62.9285C48.9824 62.1407 49.6209 61.5007 50.4044 61.5007C50.7358 61.5007 51.0573 61.617 51.3299 61.8379L70.0998 80.8705C70.3926 81.2306 70.5059 81.5478 70.5059 81.8778C70.5059 82.6641 69.8674 83.3055 69.0839 83.3055H62.7087L66.5886 92.5075C66.8182 93.0514 66.5671 93.677 66.0262 93.9123L61.5708 95.8494C61.4345 95.9083 61.2881 95.9384 61.1418 95.9384ZM56.5343 82.865C56.6146 82.865 56.6936 82.8736 56.7739 82.8923C57.1111 82.9697 57.3924 83.2036 57.5258 83.5236L61.7114 93.4417L64.1924 92.3626L60.0957 82.6469C59.9551 82.3154 59.991 81.9337 60.1904 81.6338C60.3899 81.334 60.7271 81.1532 61.0872 81.1532H67.3649L51.1347 64.6963V87.2802L55.8211 83.1348C56.0191 82.9597 56.2746 82.865 56.5343 82.865ZM49.9438 88.3334C49.9136 88.3564 49.8864 88.3808 49.8605 88.4066L49.9438 88.3334Z" fill="#262B37"/>
<path d="M23.9465 14.7268L23.9994 14.7846L24.0523 14.8424L24.1052 14.9001L24.158 14.9576L24.2109 15.0149L24.2638 15.0719L24.3167 15.1286L24.3695 15.185L24.4224 15.2409L24.4753 15.2964L24.5282 15.3514L24.581 15.4058L24.6339 15.4596L24.6868 15.5128L24.7397 15.5652L24.7925 15.6169L24.8454 15.6678L24.8983 15.7178L24.9512 15.767L25.004 15.8152L25.0569 15.8624L25.1098 15.9086L25.1627 15.9537L25.2155 15.9978L25.2684 16.0407L25.3213 16.0824L25.3742 16.1229L25.427 16.1621L25.4799 16.2001L25.5328 16.2367L25.5857 16.2719L25.6385 16.3058L25.6914 16.3383L25.7443 16.3693L25.7972 16.3988L25.85 16.4268L25.9029 16.4533L25.9558 16.4782L26.0087 16.5016L26.0615 16.5233L26.1144 16.5435L26.1673 16.562L26.2202 16.5788L26.273 16.594L26.3259 16.6075L26.3788 16.6193L26.4317 16.6294L26.4845 16.6378L26.5374 16.6445L26.5903 16.6495L26.6432 16.6527L26.696 16.6542L26.7489 16.654L26.8018 16.652L26.8547 16.6483L26.9075 16.6428L26.9604 16.6357L27.0133 16.6268L27.0662 16.6162L27.119 16.6039L27.1719 16.5899L27.2248 16.5743L27.2777 16.5569L27.3305 16.538L27.3834 16.5174L27.4363 16.4952L27.4892 16.4714L27.542 16.446L27.5949 16.4191L27.6478 16.3906L27.7007 16.3607L27.7535 16.3293L27.8064 16.2965L27.8593 16.2622L27.9122 16.2265L27.965 16.1896L28.0179 16.1512L28.0708 16.1117L28.1237 16.0708L28.1765 16.0288L28.2294 15.9855L28.2823 15.9412L28.3352 15.8958L28.388 15.8493L28.4409 15.8017L28.4938 15.7533L28.5467 15.7039L28.5995 15.6536L28.6524 15.6025L28.7053 15.5506L28.7582 15.4979L28.811 15.4446L28.8639 15.3906L28.9168 15.3361L28.9697 15.2809L29.0225 15.2253L29.0754 15.1692L29.1283 15.1128L29.1812 15.0559L29.234 14.9988L29.2869 14.9415L29.3398 14.8839L29.3927 14.8262L29.4455 14.7684L29.4984 14.7106L29.5513 14.6528L29.6042 14.5951L29.657 14.5374L29.7099 14.48L29.7628 14.4228L29.8157 14.3658L29.8685 14.3092L29.9214 14.2529L29.9743 14.1971L30.0272 14.1417L30.08 14.0869L30.1329 14.0327L30.1858 13.979L30.2387 13.9261L30.2915 13.8739L30.3444 13.8224L30.3973 13.7717L30.4502 13.722L30.503 13.6731L30.5559 13.6251L30.6088 13.5782L30.6617 13.5323L30.7146 13.4874L30.7674 13.4437L30.8203 13.4011L30.8732 13.3598L30.9261 13.3196L30.9789 13.2807L31.0318 13.2432L31.0847 13.2069L31.1376 13.1721L31.1904 13.1386L31.2433 13.1065L31.2962 13.076L31.3491 13.0469L31.4019 13.0193L31.4548 12.9932L31.5077 12.9687L31.5606 12.9458L31.6134 12.9245L31.6663 12.9048L31.7192 12.8868L31.7721 12.8704L31.8249 12.8557L31.8778 12.8426L31.9307 12.8313L31.9836 12.8217L32.0364 12.8137L32.0893 12.8075L32.1422 12.8031L32.1951 12.8003L32.2479 12.7993L32.3008 12.8L32.3537 12.8025L32.4066 12.8067L32.4594 12.8126L32.5123 12.8203L32.5652 12.8296L32.6181 12.8407L32.6709 12.8535L32.7238 12.8679L32.7767 12.884L32.8296 12.9018L32.8824 12.9213L32.9353 12.9423L32.9882 12.965L33.0411 12.9892L33.0939 13.015L33.1468 13.0424L33.1997 13.0712L33.2526 13.1016L33.3054 13.1334L33.3583 13.1666L33.4112 13.2013L33.4641 13.2373L33.5169 13.2747L33.5698 13.3133L33.6227 13.3533L33.6756 13.3945L33.7284 13.4369L33.7813 13.4804L33.8342 13.5251L33.8871 13.5708L33.9399 13.6176L33.9928 13.6654L34.0457 13.7141L34.0986 13.7638L34.1514 13.8143L34.2043 13.8656L34.2572 13.9177L34.3101 13.9706L34.3629 14.0241L34.4158 14.0782L34.4687 14.133L34.5216 14.1882L34.5744 14.244L34.6273 14.3002L34.6802 14.3568L34.7331 14.4137L34.7859 14.4709L34.8388 14.5283L34.8917 14.5859L34.9446 14.6436L34.9974 14.7014L35.0503 14.7592L35.1032 14.817L35.1561 14.8747L35.2089 14.9323L35.2618 14.9897L35.3147 15.0469L35.3676 15.1037L35.4204 15.1603L35.4733 15.2164L35.5262 15.2721L35.5791 15.3273L35.6319 15.382L35.6848 15.4361L35.7377 15.4895L35.7906 15.5423L35.8434 15.5943L35.8963 15.6455L35.9492 15.6959L36.0021 15.7455L36.0549 15.7941L36.1078 15.8418L36.1607 15.8884L36.2136 15.934L36.2664 15.9786L36.3193 16.022L36.3722 16.0642L36.4251 16.1052L36.4779 16.145L36.5308 16.1835L36.5837 16.2207L36.6366 16.2566L36.6894 16.2911L36.7423 16.3242L36.7952 16.3558L36.8481 16.386L36.9009 16.4147L36.9538 16.4418L37.0067 16.4674L37.0596 16.4915L37.1124 16.514L37.1653 16.5348L37.2182 16.554L37.2711 16.5716L37.3239 16.5875L37.3768 16.6018L37.4297 16.6144L37.4826 16.6252L37.5354 16.6344L37.5883 16.6418L37.6412 16.6475L37.6941 16.6515L37.7469 16.6538L37.7998 16.6543L37.8527 16.6531L37.9056 16.6501L37.9584 16.6454L38.0113 16.639L38.0642 16.6309L38.1171 16.6211L38.1699 16.6095L38.2228 16.5963L38.2757 16.5814L38.3286 16.5648L38.3814 16.5465L38.4343 16.5266L38.4872 16.5051L38.5401 16.482L38.5929 16.4573L38.6458 16.4311L38.6987 16.4033L38.7516 16.3741L38.8044 16.3433L38.8573 16.3111L38.9102 16.2774L38.9631 16.2424L39.0159 16.206L39.0688 16.1682L39.1217 16.1292L39.1746 16.0889L39.2274 16.0474L39.2803 16.0047L39.3332 15.9608L39.3861 15.9159L39.4389 15.8698L39.4918 15.8228L39.5447 15.7747L39.5976 15.7257L39.6504 15.6758L39.7033 15.6251L39.7562 15.5735L39.8091 15.5212L39.8619 15.4681L39.9148 15.4144L39.9677 15.3601L40.0206 15.3052L40.0734 15.2498L40.1263 15.1939L40.1792 15.1376L40.2321 15.081L40.2849 15.024L40.3378 14.9667L40.3907 14.9092L40.4436 14.8516L40.4964 14.7938L40.5493 14.736L40.6022 14.6782L40.6551 14.6204L40.7079 14.5627L40.7608 14.5052L40.8137 14.4479L40.8666 14.3908L40.9194 14.334L40.9723 14.2776L41.0252 14.2216L41.0781 14.166L41.1309 14.1109L41.1838 14.0564L41.2367 14.0025L41.2896 13.9493L41.3424 13.8967L41.3953 13.8449L41.4482 13.7939L41.5011 13.7437L41.5539 13.6944L41.6068 13.6461L41.6597 13.5987L41.7126 13.5523L41.7654 13.507L41.8183 13.4628L41.8712 13.4197L41.9241 13.3778L41.9769 13.3371L42.0298 13.2977L42.0827 13.2595L42.1356 13.2227L42.1884 13.1872L42.2413 13.1531L42.2942 13.1204L42.3471 13.0892L42.3999 13.0595L42.4528 13.0312L42.5057 13.0045L42.5586 12.9793L42.6114 12.9557L42.6643 12.9337L42.7172 12.9133L42.7701 12.8945L42.8229 12.8774L42.8758 12.8619L42.9287 12.8481L42.9816 12.8361L43.0344 12.8257L43.0873 12.817L43.1402 12.81L43.1931 12.8048L43.2459 12.8013L43.2988 12.7995L43.3517 12.7995L43.4046 12.8012L43.4574 12.8047L43.5103 12.8098L43.5632 12.8167L43.6161 12.8253L43.6689 12.8356L43.7218 12.8477L43.7747 12.8614L43.8276 12.8768L43.8804 12.8938L43.9333 12.9125L43.9862 12.9329L44.0391 12.9548L44.0919 12.9784L44.1448 13.0035L44.1977 13.0301L44.2506 13.0583L44.3034 13.088L44.3563 13.1192L44.4092 13.1518L44.4621 13.1859L44.5149 13.2213L44.5678 13.2581L44.6207 13.2962L44.6736 13.3356L44.7264 13.3762L44.7793 13.4181L44.8322 13.4611L44.8851 13.5053L44.9379 13.5506L44.9908 13.5969L45.0437 13.6442L45.0966 13.6926L45.1494 13.7418L45.2023 13.792L45.2552 13.8429L45.3081 13.8947L45.3609 13.9472L45.4138 14.0005L45.4667 14.0544L45.5196 14.1088L45.5724 14.1639L45.6253 14.2194L45.6782 14.2754L45.7311 14.3319L45.7839 14.3886L45.8368 14.4457L45.8897 14.503L45.9426 14.5605L45.9954 14.6182L46.0483 14.676L46.1012 14.7338L46.1541 14.7916L46.2069 14.8494L46.2598 14.907L46.3127 14.9645L46.3656 15.0218L46.4184 15.0788L46.4713 15.1355L46.5242 15.1918L46.5771 15.2477L46.6299 15.3031L46.6828 15.358L46.7357 15.4124L46.7886 15.4661L46.8414 15.5192L46.8943 15.5715L46.9472 15.6231L47.0001 15.6739L47.0529 15.7238L47.1058 15.7728L47.1587 15.8209L47.2116 15.868L47.2644 15.9141L47.3173 15.9591L47.3702 16.003L47.4231 16.0458L47.4759 16.0873L47.5288 16.1277L47.5817 16.1668L47.6346 16.2046L47.6875 16.241L47.7403 16.2761L47.7932 16.3098L47.8461 16.3421L47.899 16.3729L47.9518 16.4022L48.0047 16.4301L48.0576 16.4564L48.1104 16.4811L48.1633 16.5043L48.2162 16.5258L48.2691 16.5458L48.322 16.5641L48.3748 16.5807L48.4277 16.5957L48.4806 16.609L48.5335 16.6207L48.5863 16.6306L48.6392 16.6387L48.6921 16.6452L48.745 16.65L48.7978 16.653L48.8507 16.6543L48.9036 16.6538L48.9565 16.6516L49.0093 16.6477L49.0622 16.6421L49.1151 16.6347L49.168 16.6256L49.2208 16.6148L49.2737 16.6023L49.3266 16.5881L49.3795 16.5723L49.4323 16.5547L49.4852 16.5356L49.5381 16.5148L49.591 16.4924L49.6438 16.4684L49.6967 16.4428L49.7496 16.4157L49.8025 16.3871L49.8553 16.357L49.9082 16.3254L49.9611 16.2924L50.014 16.258L50.0668 16.2221L50.1197 16.185L50.1726 16.1465L50.2255 16.1068L50.2783 16.0658L50.3312 16.0236L50.3841 15.9802L50.437 15.9358L50.4898 15.8902L50.5427 15.8436L50.5956 15.7959L50.6485 15.7473L50.7013 15.6978L50.7542 15.6475L50.8071 15.5963L50.86 15.5443L50.9128 15.4915L50.9657 15.4381L51.0186 15.3841L51.0715 15.3294L51.1243 15.2742L51.1772 15.2185L51.2301 15.1624L51.283 15.1059L51.3358 15.049L51.3887 14.9919L51.4416 14.9345L51.4945 14.8769L51.5473 14.8192L51.6002 14.7614L51.6531 14.7036L51.706 14.6458L51.7588 14.5881L51.8117 14.5305L51.8646 14.4731L51.9175 14.4159L51.9703 14.3589L52.0232 14.3023L52.0761 14.2461L52.129 14.1904L52.1818 14.1351L52.2347 14.0803L52.2876 14.0261L52.3405 13.9726L52.3933 13.9197L52.4462 13.8676L52.4991 13.8162L52.552 13.7657L52.6048 13.716L52.6577 13.6672L52.7106 13.6194L52.7635 13.5726L52.8163 13.5268L52.8692 13.4821L52.9221 13.4385L52.975 13.3961L53.0278 13.3548L53.0807 13.3149L53.1336 13.2761L53.1865 13.2387L53.2393 13.2026L53.2922 13.1679L53.3451 13.1346L53.398 13.1028L53.4508 13.0724L53.5037 13.0434L53.5566 13.016L53.6095 12.9902L53.6623 12.9659L53.7152 12.9431L53.7681 12.922L53.821 12.9025L53.8738 12.8847L53.9267 12.8685L53.9796 12.854L54.0325 12.8412L54.0853 12.83L54.1382 12.8206L54.1911 12.8129L54.244 12.8069L54.2968 12.8026L54.3497 12.8001L54.4026 12.7993L54.4555 12.8003L54.5083 12.8029L54.5612 12.8073L54.6141 12.8135L54.667 12.8213L54.7198 12.8309L54.7727 12.8422L54.8256 12.8551L54.8785 12.8698L54.9313 12.8861L54.9842 12.9041L55.0371 12.9237L55.09 12.945L55.1428 12.9678L55.1957 12.9922L55.2486 13.0182L55.3015 13.0458L55.3543 13.0748L55.4072 13.1053L55.4601 13.1373L55.513 13.1708L55.5658 13.2056L55.6187 13.2418L55.6716 13.2793L55.7245 13.3181L55.7773 13.3582L55.8302 13.3995L55.8831 13.4421L55.936 13.4857L55.9888 13.5305L56.0417 13.5764L56.0946 13.6233L56.1475 13.6712L56.2003 13.7201L56.2532 13.7698L56.3061 13.8204L56.359 13.8719L56.4118 13.9241L56.4647 13.977L56.5176 14.0306L56.5705 14.0848L56.6233 14.1396L56.6762 14.195L56.7291 14.2508L56.782 14.307L56.8348 14.3636L56.8877 14.4206L56.9406 14.4778L56.9935 14.5352L57.0463 14.5929L57.0992 14.6506" stroke="#474F60" stroke-width="1.54198"/>
<path d="M23.9465 32.4595L23.9994 32.5173L24.0523 32.5751L24.1052 32.6327L24.158 32.6902L24.2109 32.7475L24.2638 32.8046L24.3167 32.8613L24.3695 32.9177L24.4224 32.9736L24.4753 33.0291L24.5282 33.0841L24.581 33.1385L24.6339 33.1923L24.6868 33.2454L24.7397 33.2979L24.7925 33.3496L24.8454 33.4004L24.8983 33.4505L24.9512 33.4996L25.004 33.5478L25.0569 33.5951L25.1098 33.6413L25.1627 33.6864L25.2155 33.7304L25.2684 33.7733L25.3213 33.8151L25.3742 33.8555L25.427 33.8948L25.4799 33.9327L25.5328 33.9693L25.5857 34.0046L25.6385 34.0385L25.6914 34.0709L25.7443 34.1019L25.7972 34.1314L25.85 34.1595L25.9029 34.1859L25.9558 34.2109L26.0087 34.2342L26.0615 34.256L26.1144 34.2761L26.1673 34.2946L26.2202 34.3115L26.273 34.3267L26.3259 34.3402L26.3788 34.352L26.4317 34.3621L26.4845 34.3705L26.5374 34.3772L26.5903 34.3822L26.6432 34.3854L26.696 34.3869L26.7489 34.3866L26.8018 34.3846L26.8547 34.3809L26.9075 34.3755L26.9604 34.3683L27.0133 34.3595L27.0662 34.3489L27.119 34.3366L27.1719 34.3226L27.2248 34.3069L27.2777 34.2896L27.3305 34.2706L27.3834 34.25L27.4363 34.2278L27.4892 34.204L27.542 34.1787L27.5949 34.1518L27.6478 34.1233L27.7007 34.0934L27.7535 34.062L27.8064 34.0291L27.8593 33.9949L27.9122 33.9592L27.965 33.9222L28.0179 33.8839L28.0708 33.8443L28.1237 33.8035L28.1765 33.7614L28.2294 33.7182L28.2823 33.6739L28.3352 33.6284L28.388 33.5819L28.4409 33.5344L28.4938 33.4859L28.5467 33.4365L28.5995 33.3863L28.6524 33.3352L28.7053 33.2833L28.7582 33.2306L28.811 33.1773L28.8639 33.1233L28.9168 33.0687L28.9697 33.0136L29.0225 32.958L29.0754 32.9019L29.1283 32.8454L29.1812 32.7886L29.234 32.7315L29.2869 32.6741L29.3398 32.6166L29.3927 32.5589L29.4455 32.5011L29.4984 32.4433L29.5513 32.3855L29.6042 32.3277L29.657 32.2701L29.7099 32.2127L29.7628 32.1554L29.8157 32.0985L29.8685 32.0418L29.9214 31.9856L29.9743 31.9298L30.0272 31.8744L30.08 31.8196L30.1329 31.7653L30.1858 31.7117L30.2387 31.6588L30.2915 31.6065L30.3444 31.5551L30.3973 31.5044L30.4502 31.4546L30.503 31.4057L30.5559 31.3578L30.6088 31.3109L30.6617 31.2649L30.7146 31.2201L30.7674 31.1764L30.8203 31.1338L30.8732 31.0924L30.9261 31.0523L30.9789 31.0134L31.0318 30.9758L31.0847 30.9396L31.1376 30.9047L31.1904 30.8713L31.2433 30.8392L31.2962 30.8086L31.3491 30.7795L31.4019 30.7519L31.4548 30.7259L31.5077 30.7014L31.5606 30.6785L31.6134 30.6572L31.6663 30.6375L31.7192 30.6194L31.7721 30.603L31.8249 30.5883L31.8778 30.5753L31.9307 30.564L31.9836 30.5543L32.0364 30.5464L32.0893 30.5402L32.1422 30.5357L32.1951 30.533L32.2479 30.532L32.3008 30.5327L32.3537 30.5352L32.4066 30.5394L32.4594 30.5453L32.5123 30.5529L32.5652 30.5623L32.6181 30.5734L32.6709 30.5861L32.7238 30.6006L32.7767 30.6167L32.8296 30.6345L32.8824 30.6539L32.9353 30.675L32.9882 30.6976L33.0411 30.7219L33.0939 30.7477L33.1468 30.775L33.1997 30.8039L33.2526 30.8342L33.3054 30.8661L33.3583 30.8993L33.4112 30.934L33.4641 30.97L33.5169 31.0073L33.5698 31.046L33.6227 31.086L33.6756 31.1271L33.7284 31.1695L33.7813 31.2131L33.8342 31.2577L33.8871 31.3035L33.9399 31.3503L33.9928 31.398L34.0457 31.4468L34.0986 31.4964L34.1514 31.5469L34.2043 31.5983L34.2572 31.6504L34.3101 31.7032L34.3629 31.7567L34.4158 31.8109L34.4687 31.8656L34.5216 31.9209L34.5744 31.9767L34.6273 32.0329L34.6802 32.0894L34.7331 32.1463L34.7859 32.2035L34.8388 32.2609L34.8917 32.3185L34.9446 32.3763L34.9974 32.4341L35.0503 32.4919L35.1032 32.5497L35.1561 32.6074L35.2089 32.665L35.2618 32.7224L35.3147 32.7795L35.3676 32.8364L35.4204 32.8929L35.4733 32.9491L35.5262 33.0048L35.5791 33.06L35.6319 33.1146L35.6848 33.1687L35.7377 33.2222L35.7906 33.2749L35.8434 33.3269L35.8963 33.3782L35.9492 33.4286L36.0021 33.4781L36.0549 33.5268L36.1078 33.5744L36.1607 33.6211L36.2136 33.6667L36.2664 33.7112L36.3193 33.7546L36.3722 33.7969L36.4251 33.8379L36.4779 33.8777L36.5308 33.9162L36.5837 33.9534L36.6366 33.9893L36.6894 34.0238L36.7423 34.0568L36.7952 34.0885L36.8481 34.1186L36.9009 34.1473L36.9538 34.1745L37.0067 34.2001L37.0596 34.2242L37.1124 34.2466L37.1653 34.2675L37.2182 34.2867L37.2711 34.3043L37.3239 34.3202L37.3768 34.3345L37.4297 34.347L37.4826 34.3579L37.5354 34.367L37.5883 34.3745L37.6412 34.3802L37.6941 34.3842L37.7469 34.3864L37.7998 34.3869L37.8527 34.3857L37.9056 34.3828L37.9584 34.3781L38.0113 34.3717L38.0642 34.3636L38.1171 34.3537L38.1699 34.3422L38.2228 34.3289L38.2757 34.314L38.3286 34.2974L38.3814 34.2792L38.4343 34.2593L38.4872 34.2378L38.5401 34.2147L38.5929 34.19L38.6458 34.1638L38.6987 34.136L38.7516 34.1067L38.8044 34.076L38.8573 34.0437L38.9102 34.0101L38.9631 33.975L39.0159 33.9386L39.0688 33.9009L39.1217 33.8619L39.1746 33.8216L39.2274 33.7801L39.2803 33.7374L39.3332 33.6935L39.3861 33.6485L39.4389 33.6025L39.4918 33.5554L39.5447 33.5074L39.5976 33.4584L39.6504 33.4085L39.7033 33.3577L39.7562 33.3062L39.8091 33.2538L39.8619 33.2008L39.9148 33.1471L39.9677 33.0928L40.0206 33.0379L40.0734 32.9825L40.1263 32.9266L40.1792 32.8703L40.2321 32.8136L40.2849 32.7566L40.3378 32.6994L40.3907 32.6419L40.4436 32.5843L40.4964 32.5265L40.5493 32.4687L40.6022 32.4109L40.6551 32.3531L40.7079 32.2954L40.7608 32.2379L40.8137 32.1805L40.8666 32.1235L40.9194 32.0667L40.9723 32.0103L41.0252 31.9542L41.0781 31.8987L41.1309 31.8436L41.1838 31.7891L41.2367 31.7352L41.2896 31.6819L41.3424 31.6294L41.3953 31.5776L41.4482 31.5266L41.5011 31.4764L41.5539 31.4271L41.6068 31.3787L41.6597 31.3314L41.7126 31.285L41.7654 31.2397L41.8183 31.1955L41.8712 31.1524L41.9241 31.1105L41.9769 31.0698L42.0298 31.0303L42.0827 30.9922L42.1356 30.9554L42.1884 30.9199L42.2413 30.8858L42.2942 30.8531L42.3471 30.8219L42.3999 30.7921L42.4528 30.7639L42.5057 30.7371L42.5586 30.712L42.6114 30.6883L42.6643 30.6663L42.7172 30.6459L42.7701 30.6272L42.8229 30.61L42.8758 30.5946L42.9287 30.5808L42.9816 30.5687L43.0344 30.5583L43.0873 30.5497L43.1402 30.5427L43.1931 30.5375L43.2459 30.534L43.2988 30.5322L43.3517 30.5322L43.4046 30.5339L43.4574 30.5373L43.5103 30.5425L43.5632 30.5494L43.6161 30.558L43.6689 30.5683L43.7218 30.5803L43.7747 30.594L43.8276 30.6094L43.8804 30.6265L43.9333 30.6452L43.9862 30.6655L44.0391 30.6875L44.0919 30.711L44.1448 30.7361L44.1977 30.7628L44.2506 30.791L44.3034 30.8207L44.3563 30.8519L44.4092 30.8845L44.4621 30.9186L44.5149 30.954L44.5678 30.9908L44.6207 31.0289L44.6736 31.0682L44.7264 31.1089L44.7793 31.1507L44.8322 31.1938L44.8851 31.238L44.9379 31.2832L44.9908 31.3296L45.0437 31.3769L45.0966 31.4252L45.1494 31.4745L45.2023 31.5246L45.2552 31.5756L45.3081 31.6274L45.3609 31.6799L45.4138 31.7331L45.4667 31.787L45.5196 31.8415L45.5724 31.8966L45.6253 31.9521L45.6782 32.0081L45.7311 32.0645L45.7839 32.1213L45.8368 32.1784L45.8897 32.2357L45.9426 32.2932L45.9954 32.3509L46.0483 32.4087L46.1012 32.4665L46.1541 32.5243L46.2069 32.582L46.2598 32.6397L46.3127 32.6972L46.3656 32.7544L46.4184 32.8114L46.4713 32.8681L46.5242 32.9244L46.5771 32.9803L46.6299 33.0358L46.6828 33.0907L46.7357 33.145L46.7886 33.1988L46.8414 33.2518L46.8943 33.3042L46.9472 33.3558L47.0001 33.4065L47.0529 33.4565L47.1058 33.5055L47.1587 33.5536L47.2116 33.6007L47.2644 33.6468L47.3173 33.6918L47.3702 33.7357L47.4231 33.7784L47.4759 33.82L47.5288 33.8604L47.5817 33.8994L47.6346 33.9372L47.6875 33.9737L47.7403 34.0088L47.7932 34.0425L47.8461 34.0747L47.899 34.1056L47.9518 34.1349L48.0047 34.1627L48.0576 34.189L48.1104 34.2138L48.1633 34.2369L48.2162 34.2585L48.2691 34.2785L48.322 34.2968L48.3748 34.3134L48.4277 34.3284L48.4806 34.3417L48.5335 34.3533L48.5863 34.3632L48.6392 34.3714L48.6921 34.3779L48.745 34.3826L48.7978 34.3856L48.8507 34.3869L48.9036 34.3865L48.9565 34.3843L49.0093 34.3804L49.0622 34.3747L49.1151 34.3674L49.168 34.3583L49.2208 34.3475L49.2737 34.335L49.3266 34.3208L49.3795 34.3049L49.4323 34.2874L49.4852 34.2682L49.5381 34.2474L49.591 34.225L49.6438 34.2011L49.6967 34.1755L49.7496 34.1484L49.8025 34.1198L49.8553 34.0897L49.9082 34.0581L49.9611 34.0251L50.014 33.9906L50.0668 33.9548L50.1197 33.9177L50.1726 33.8792L50.2255 33.8394L50.2783 33.7985L50.3312 33.7563L50.3841 33.7129L50.437 33.6684L50.4898 33.6228L50.5427 33.5762L50.5956 33.5286L50.6485 33.48L50.7013 33.4305L50.7542 33.3801L50.8071 33.3289L50.86 33.2769L50.9128 33.2242L50.9657 33.1708L51.0186 33.1167L51.0715 33.0621L51.1243 33.0069L51.1772 32.9512L51.2301 32.8951L51.283 32.8386L51.3358 32.7817L51.3887 32.7246L51.4416 32.6672L51.4945 32.6096L51.5473 32.5519L51.6002 32.4941L51.6531 32.4363L51.706 32.3785L51.7588 32.3207L51.8117 32.2631L51.8646 32.2057L51.9175 32.1485L51.9703 32.0916L52.0232 32.035L52.0761 31.9788L52.129 31.923L52.1818 31.8677L52.2347 31.813L52.2876 31.7588L52.3405 31.7053L52.3933 31.6524L52.4462 31.6003L52.4991 31.5489L52.552 31.4983L52.6048 31.4487L52.6577 31.3999L52.7106 31.3521L52.7635 31.3052L52.8163 31.2595L52.8692 31.2148L52.9221 31.1712L52.975 31.1287L53.0278 31.0875L53.0807 31.0475L53.1336 31.0088L53.1865 30.9714L53.2393 30.9353L53.2922 30.9006L53.3451 30.8673L53.398 30.8354L53.4508 30.805L53.5037 30.7761L53.5566 30.7487L53.6095 30.7228L53.6623 30.6985L53.7152 30.6758L53.7681 30.6547L53.821 30.6352L53.8738 30.6174L53.9267 30.6012L53.9796 30.5867L54.0325 30.5738L54.0853 30.5627L54.1382 30.5533L54.1911 30.5456L54.244 30.5396L54.2968 30.5353L54.3497 30.5328L54.4026 30.532L54.4555 30.5329L54.5083 30.5356L54.5612 30.54L54.6141 30.5461L54.667 30.554L54.7198 30.5636L54.7727 30.5748L54.8256 30.5878L54.8785 30.6025L54.9313 30.6188L54.9842 30.6368L55.0371 30.6564L55.09 30.6776L55.1428 30.7005L55.1957 30.7249L55.2486 30.7509L55.3015 30.7784L55.3543 30.8075L55.4072 30.838L55.4601 30.87L55.513 30.9034L55.5658 30.9382L55.6187 30.9744L55.6716 31.012L55.7245 31.0508L55.7773 31.0909L55.8302 31.1322L55.8831 31.1747L55.936 31.2184L55.9888 31.2632L56.0417 31.3091L56.0946 31.356L56.1475 31.4039L56.2003 31.4527L56.2532 31.5025L56.3061 31.5531L56.359 31.6045L56.4118 31.6567L56.4647 31.7097L56.5176 31.7633L56.5705 31.8175L56.6233 31.8723L56.6762 31.9276L56.7291 31.9834L56.782 32.0397L56.8348 32.0963L56.8877 32.1532L56.9406 32.2105L56.9935 32.2679L57.0463 32.3255L57.0992 32.3833" stroke="#474F60" stroke-width="1.54198"/>
<path d="M23.9465 49.4214L23.9994 49.4792L24.0523 49.537L24.1052 49.5946L24.158 49.6521L24.2109 49.7094L24.2638 49.7665L24.3167 49.8232L24.3695 49.8796L24.4224 49.9355L24.4753 49.991L24.5282 50.046L24.581 50.1004L24.6339 50.1542L24.6868 50.2074L24.7397 50.2598L24.7925 50.3115L24.8454 50.3624L24.8983 50.4124L24.9512 50.4615L25.004 50.5097L25.0569 50.557L25.1098 50.6032L25.1627 50.6483L25.2155 50.6924L25.2684 50.7353L25.3213 50.777L25.3742 50.8175L25.427 50.8567L25.4799 50.8946L25.5328 50.9313L25.5857 50.9665L25.6385 51.0004L25.6914 51.0328L25.7443 51.0638L25.7972 51.0934L25.85 51.1214L25.9029 51.1479L25.9558 51.1728L26.0087 51.1961L26.0615 51.2179L26.1144 51.238L26.1673 51.2565L26.2202 51.2734L26.273 51.2886L26.3259 51.3021L26.3788 51.3139L26.4317 51.324L26.4845 51.3324L26.5374 51.3391L26.5903 51.3441L26.6432 51.3473L26.696 51.3488L26.7489 51.3485L26.8018 51.3466L26.8547 51.3429L26.9075 51.3374L26.9604 51.3302L27.0133 51.3214L27.0662 51.3108L27.119 51.2985L27.1719 51.2845L27.2248 51.2688L27.2777 51.2515L27.3305 51.2326L27.3834 51.212L27.4363 51.1898L27.4892 51.166L27.542 51.1406L27.5949 51.1137L27.6478 51.0852L27.7007 51.0553L27.7535 51.0239L27.8064 50.991L27.8593 50.9568L27.9122 50.9211L27.965 50.8841L28.0179 50.8458L28.0708 50.8062L28.1237 50.7654L28.1765 50.7233L28.2294 50.6801L28.2823 50.6358L28.3352 50.5903L28.388 50.5438L28.4409 50.4963L28.4938 50.4479L28.5467 50.3985L28.5995 50.3482L28.6524 50.2971L28.7053 50.2452L28.7582 50.1925L28.811 50.1392L28.8639 50.0852L28.9168 50.0306L28.9697 49.9755L29.0225 49.9199L29.0754 49.8638L29.1283 49.8073L29.1812 49.7505L29.234 49.6934L29.2869 49.636L29.3398 49.5785L29.3927 49.5208L29.4455 49.463L29.4984 49.4052L29.5513 49.3474L29.6042 49.2896L29.657 49.232L29.7099 49.1746L29.7628 49.1173L29.8157 49.0604L29.8685 49.0038L29.9214 48.9475L29.9743 48.8917L30.0272 48.8363L30.08 48.7815L30.1329 48.7272L30.1858 48.6736L30.2387 48.6207L30.2916 48.5684L30.3444 48.517L30.3973 48.4663L30.4502 48.4165L30.503 48.3676L30.5559 48.3197L30.6088 48.2728L30.6617 48.2269L30.7146 48.182L30.7674 48.1383L30.8203 48.0957L30.8732 48.0544L30.9261 48.0142L30.9789 47.9753L31.0318 47.9378L31.0847 47.9015L31.1376 47.8666L31.1904 47.8332L31.2433 47.8011L31.2962 47.7705L31.3491 47.7414L31.4019 47.7138L31.4548 47.6878L31.5077 47.6633L31.5606 47.6404L31.6134 47.6191L31.6663 47.5994L31.7192 47.5813L31.7721 47.565L31.8249 47.5502L31.8778 47.5372L31.9307 47.5259L31.9836 47.5162L32.0364 47.5083L32.0893 47.5021L32.1422 47.4976L32.1951 47.4949L32.2479 47.4939L32.3008 47.4946L32.3537 47.4971L32.4066 47.5013L32.4594 47.5072L32.5123 47.5149L32.5652 47.5242L32.6181 47.5353L32.6709 47.5481L32.7238 47.5625L32.7767 47.5786L32.8296 47.5964L32.8824 47.6158L32.9353 47.6369L32.9882 47.6595L33.0411 47.6838L33.0939 47.7096L33.1468 47.7369L33.1997 47.7658L33.2526 47.7962L33.3054 47.828L33.3583 47.8612L33.4112 47.8959L33.4641 47.9319L33.5169 47.9693L33.5698 48.0079L33.6227 48.0479L33.6756 48.0891L33.7284 48.1314L33.7813 48.175L33.8342 48.2196L33.8871 48.2654L33.9399 48.3122L33.9928 48.3599L34.0457 48.4087L34.0986 48.4583L34.1514 48.5089L34.2043 48.5602L34.2572 48.6123L34.3101 48.6651L34.3629 48.7187L34.4158 48.7728L34.4687 48.8275L34.5216 48.8828L34.5744 48.9386L34.6273 48.9948L34.6802 49.0513L34.7331 49.1082L34.7859 49.1654L34.8388 49.2229L34.8917 49.2805L34.9446 49.3382L34.9974 49.396L35.0503 49.4538L35.1032 49.5116L35.1561 49.5693L35.2089 49.6269L35.2618 49.6843L35.3147 49.7414L35.3676 49.7983L35.4204 49.8548L35.4733 49.911L35.5262 49.9667L35.5791 50.0219L35.6319 50.0766L35.6848 50.1306L35.7377 50.1841L35.7906 50.2368L35.8434 50.2889L35.8963 50.3401L35.9492 50.3905L36.0021 50.44L36.0549 50.4887L36.1078 50.5363L36.1607 50.583L36.2136 50.6286L36.2664 50.6731L36.3193 50.7165L36.3722 50.7588L36.4251 50.7998L36.4779 50.8396L36.5308 50.8781L36.5837 50.9153L36.6366 50.9512L36.6894 50.9857L36.7423 51.0187L36.7952 51.0504L36.8481 51.0806L36.9009 51.1092L36.9538 51.1364L37.0067 51.162L37.0596 51.1861L37.1124 51.2085L37.1653 51.2294L37.2182 51.2486L37.2711 51.2662L37.3239 51.2821L37.3768 51.2964L37.4297 51.3089L37.4826 51.3198L37.5354 51.3289L37.5883 51.3364L37.6412 51.3421L37.6941 51.3461L37.7469 51.3483L37.7998 51.3489L37.8527 51.3476L37.9056 51.3447L37.9584 51.34L38.0113 51.3336L38.0642 51.3255L38.1171 51.3156L38.1699 51.3041L38.2228 51.2909L38.2757 51.2759L38.3286 51.2593L38.3814 51.2411L38.4343 51.2212L38.4872 51.1997L38.5401 51.1766L38.5929 51.1519L38.6458 51.1257L38.6987 51.0979L38.7516 51.0686L38.8044 51.0379L38.8573 51.0056L38.9102 50.972L38.9631 50.937L39.0159 50.9006L39.0688 50.8628L39.1217 50.8238L39.1746 50.7835L39.2274 50.742L39.2803 50.6993L39.3332 50.6554L39.3861 50.6104L39.4389 50.5644L39.4918 50.5173L39.5447 50.4693L39.5976 50.4203L39.6504 50.3704L39.7033 50.3196L39.7562 50.2681L39.8091 50.2158L39.8619 50.1627L39.9148 50.109L39.9677 50.0547L40.0206 49.9998L40.0734 49.9444L40.1263 49.8885L40.1792 49.8322L40.2321 49.7755L40.2849 49.7185L40.3378 49.6613L40.3907 49.6038L40.4436 49.5462L40.4964 49.4884L40.5493 49.4306L40.6022 49.3728L40.6551 49.315L40.7079 49.2573L40.7608 49.1998L40.8137 49.1425L40.8666 49.0854L40.9194 49.0286L40.9723 48.9722L41.0252 48.9162L41.0781 48.8606L41.1309 48.8055L41.1838 48.751L41.2367 48.6971L41.2896 48.6439L41.3424 48.5913L41.3953 48.5395L41.4482 48.4885L41.5011 48.4383L41.5539 48.389L41.6068 48.3407L41.6597 48.2933L41.7126 48.2469L41.7654 48.2016L41.8183 48.1574L41.8712 48.1143L41.9241 48.0724L41.9769 48.0317L42.0298 47.9923L42.0827 47.9541L42.1356 47.9173L42.1884 47.8818L42.2413 47.8477L42.2942 47.815L42.3471 47.7838L42.3999 47.754L42.4528 47.7258L42.5057 47.6991L42.5586 47.6739L42.6114 47.6503L42.6643 47.6282L42.7172 47.6078L42.7701 47.5891L42.8229 47.572L42.8758 47.5565L42.9287 47.5427L42.9816 47.5306L43.0344 47.5203L43.0873 47.5116L43.1402 47.5046L43.1931 47.4994L43.2459 47.4959L43.2988 47.4941L43.3517 47.4941L43.4046 47.4958L43.4574 47.4992L43.5103 47.5044L43.5632 47.5113L43.6161 47.5199L43.6689 47.5302L43.7218 47.5422L43.7747 47.5559L43.8276 47.5713L43.8804 47.5884L43.9333 47.6071L43.9862 47.6274L44.0391 47.6494L44.0919 47.6729L44.1448 47.6981L44.1977 47.7247L44.2506 47.7529L44.3034 47.7826L44.3563 47.8138L44.4092 47.8464L44.4621 47.8805L44.5149 47.9159L44.5678 47.9527L44.6207 47.9908L44.6736 48.0302L44.7264 48.0708L44.7793 48.1127L44.8322 48.1557L44.8851 48.1999L44.9379 48.2451L44.9908 48.2915L45.0437 48.3388L45.0966 48.3872L45.1494 48.4364L45.2023 48.4865L45.2552 48.5375L45.3081 48.5893L45.3609 48.6418L45.4138 48.6951L45.4667 48.7489L45.5196 48.8034L45.5724 48.8585L45.6253 48.914L45.6782 48.97L45.7311 49.0264L45.7839 49.0832L45.8368 49.1403L45.8897 49.1976L45.9426 49.2551L45.9954 49.3128L46.0483 49.3706L46.1012 49.4284L46.1541 49.4862L46.2069 49.544L46.2598 49.6016L46.3127 49.6591L46.3656 49.7164L46.4184 49.7734L46.4713 49.83L46.5242 49.8864L46.5771 49.9423L46.6299 49.9977L46.6828 50.0526L46.7357 50.1069L46.7886 50.1607L46.8414 50.2137L46.8943 50.2661L46.9472 50.3177L47.0001 50.3685L47.0529 50.4184L47.1058 50.4674L47.1587 50.5155L47.2116 50.5626L47.2644 50.6087L47.3173 50.6537L47.3702 50.6976L47.4231 50.7404L47.4759 50.7819L47.5288 50.8223L47.5817 50.8614L47.6346 50.8991L47.6875 50.9356L47.7403 50.9707L47.7932 51.0044L47.8461 51.0367L47.899 51.0675L47.9518 51.0968L48.0047 51.1247L48.0576 51.151L48.1104 51.1757L48.1633 51.1989L48.2162 51.2204L48.2691 51.2404L48.322 51.2587L48.3748 51.2753L48.4277 51.2903L48.4806 51.3036L48.5335 51.3152L48.5863 51.3251L48.6392 51.3333L48.6921 51.3398L48.745 51.3445L48.7978 51.3476L48.8507 51.3488L48.9036 51.3484L48.9565 51.3462L49.0093 51.3423L49.0622 51.3366L49.1151 51.3293L49.168 51.3202L49.2208 51.3094L49.2737 51.2969L49.3266 51.2827L49.3795 51.2668L49.4323 51.2493L49.4852 51.2302L49.5381 51.2094L49.591 51.187L49.6438 51.163L49.6967 51.1374L49.7496 51.1103L49.8025 51.0817L49.8553 51.0516L49.9082 51.02L49.9611 50.987L50.014 50.9525L50.0668 50.9167L50.1197 50.8796L50.1726 50.8411L50.2255 50.8014L50.2783 50.7604L50.3312 50.7182L50.3841 50.6748L50.437 50.6303L50.4898 50.5848L50.5427 50.5381L50.5956 50.4905L50.6485 50.4419L50.7013 50.3924L50.7542 50.342L50.8071 50.2908L50.86 50.2388L50.9128 50.1861L50.9657 50.1327L51.0186 50.0786L51.0715 50.024L51.1243 49.9688L51.1772 49.9131L51.2301 49.857L51.283 49.8005L51.3358 49.7436L51.3887 49.6865L51.4416 49.6291L51.4945 49.5715L51.5473 49.5138L51.6002 49.456L51.6531 49.3982L51.706 49.3404L51.7588 49.2827L51.8117 49.2251L51.8646 49.1676L51.9175 49.1104L51.9703 49.0535L52.0232 48.9969L52.0761 48.9407L52.129 48.8849L52.1818 48.8297L52.2347 48.7749L52.2876 48.7207L52.3405 48.6672L52.3933 48.6143L52.4462 48.5622L52.4991 48.5108L52.552 48.4603L52.6048 48.4106L52.6577 48.3618L52.7106 48.314L52.7635 48.2672L52.8163 48.2214L52.8692 48.1767L52.9221 48.1331L52.975 48.0907L53.0278 48.0494L53.0807 48.0094L53.1336 47.9707L53.1865 47.9333L53.2393 47.8972L53.2922 47.8625L53.3451 47.8292L53.398 47.7973L53.4508 47.7669L53.5037 47.738L53.5566 47.7106L53.6095 47.6847L53.6623 47.6604L53.7152 47.6377L53.7681 47.6166L53.821 47.5971L53.8738 47.5793L53.9267 47.5631L53.9796 47.5486L54.0325 47.5357L54.0853 47.5246L54.1382 47.5152L54.1911 47.5075L54.244 47.5015L54.2968 47.4972L54.3497 47.4947L54.4026 47.4939L54.4555 47.4948L54.5083 47.4975L54.5612 47.5019L54.6141 47.508L54.667 47.5159L54.7198 47.5255L54.7727 47.5367L54.8256 47.5497L54.8785 47.5644L54.9313 47.5807L54.9842 47.5987L55.0371 47.6183L55.09 47.6395L55.1428 47.6624L55.1957 47.6868L55.2486 47.7128L55.3015 47.7403L55.3543 47.7694L55.4072 47.7999L55.4601 47.8319L55.513 47.8653L55.5658 47.9002L55.6187 47.9363L55.6716 47.9739L55.7245 48.0127L55.7773 48.0528L55.8302 48.0941L55.8831 48.1366L55.936 48.1803L55.9888 48.2251L56.0417 48.271L56.0946 48.3179L56.1475 48.3658L56.2003 48.4146L56.2532 48.4644L56.3061 48.515L56.359 48.5665L56.4118 48.6187L56.4647 48.6716L56.5176 48.7252L56.5705 48.7794L56.6233 48.8342L56.6762 48.8895L56.7291 48.9454L56.782 49.0016L56.8348 49.0582L56.8877 49.1152L56.9406 49.1724L56.9935 49.2298L57.0463 49.2874L57.0992 49.3452" stroke="#474F60" stroke-width="1.54198"/>
</g>
<defs>
<clipPath id="clip0">
<rect width="217.42" height="125.73" fill="white" transform="translate(0.816772 0.000488281)"/>
</clipPath>
</defs>
</svg>
