<svg width="161" height="127" viewBox="0 0 161 127" fill="none" xmlns="http://www.w3.org/2000/svg">
<rect x="19.1984" y="25.4448" width="1.15649" height="1.15649" rx="0.578244" fill="#474F60"/>
<rect x="24.213" y="25.4443" width="1.15649" height="1.15649" rx="0.578244" fill="#474F60"/>
<rect x="29.2277" y="25.4443" width="1.15649" height="1.15649" rx="0.578244" fill="#474F60"/>
<rect x="34.2422" y="25.4443" width="1.15649" height="1.15649" rx="0.578244" fill="#474F60"/>
<rect x="39.257" y="25.4443" width="1.15649" height="1.15649" rx="0.578244" fill="#474F60"/>
<rect x="44.2717" y="25.4443" width="1.15649" height="1.15649" rx="0.578244" fill="#474F60"/>
<rect x="49.2864" y="25.4443" width="1.15649" height="1.15649" rx="0.578244" fill="#474F60"/>
<rect x="54.3009" y="25.4443" width="1.15649" height="1.15649" rx="0.578244" fill="#474F60"/>
<rect x="59.3156" y="25.4443" width="1.15649" height="1.15649" rx="0.578244" fill="#474F60"/>
<rect x="64.3301" y="25.4443" width="1.15649" height="1.15649" rx="0.578244" fill="#474F60"/>
<rect x="69.3448" y="25.4443" width="1.15649" height="1.15649" rx="0.578244" fill="#474F60"/>
<rect x="74.3596" y="25.4443" width="1.15649" height="1.15649" rx="0.578244" fill="#474F60"/>
<rect x="79.3743" y="25.4443" width="1.15649" height="1.15649" rx="0.578244" fill="#474F60"/>
<rect x="84.3888" y="25.4443" width="1.15649" height="1.15649" rx="0.578244" fill="#474F60"/>
<rect x="89.4035" y="25.4443" width="1.15649" height="1.15649" rx="0.578244" fill="#474F60"/>
<rect x="94.418" y="25.4443" width="1.15649" height="1.15649" rx="0.578244" fill="#474F60"/>
<rect x="99.4327" y="25.4443" width="1.15649" height="1.15649" rx="0.578244" fill="#474F60"/>
<rect x="104.447" y="25.4443" width="1.15649" height="1.15649" rx="0.578244" fill="#474F60"/>
<rect x="109.462" y="25.4443" width="1.15649" height="1.15649" rx="0.578244" fill="#474F60"/>
<rect x="114.477" y="25.4443" width="1.15649" height="1.15649" rx="0.578244" fill="#474F60"/>
<rect x="119.491" y="25.4443" width="1.15649" height="1.15649" rx="0.578244" fill="#474F60"/>
<rect x="124.506" y="25.4443" width="1.15649" height="1.15649" rx="0.578244" fill="#474F60"/>
<rect x="129.521" y="25.4443" width="1.15649" height="1.15649" rx="0.578244" fill="#474F60"/>
<rect x="134.535" y="25.4443" width="1.15649" height="1.15649" rx="0.578244" fill="#474F60"/>
<rect x="139.55" y="25.4443" width="1.15649" height="1.15649" rx="0.578244" fill="#474F60"/>
<rect x="144.565" y="25.4443" width="1.15649" height="1.15649" rx="0.578244" fill="#474F60"/>
<rect x="149.579" y="25.4443" width="1.15649" height="1.15649" rx="0.578244" fill="#474F60"/>
<rect x="154.594" y="25.4443" width="1.15649" height="1.15649" rx="0.578244" fill="#474F60"/>
<rect x="159.609" y="25.4443" width="1.15649" height="1.15649" rx="0.578244" fill="#474F60"/>
<rect x="19.1985" y="30.459" width="1.15649" height="1.15649" rx="0.578244" fill="#474F60"/>
<rect x="24.213" y="30.459" width="1.15649" height="1.15649" rx="0.578244" fill="#474F60"/>
<rect x="29.2277" y="30.459" width="1.15649" height="1.15649" rx="0.578244" fill="#474F60"/>
<rect x="34.2422" y="30.459" width="1.15649" height="1.15649" rx="0.578244" fill="#474F60"/>
<rect x="39.257" y="30.459" width="1.15649" height="1.15649" rx="0.578244" fill="#474F60"/>
<rect x="44.2717" y="30.459" width="1.15649" height="1.15649" rx="0.578244" fill="#474F60"/>
<rect x="49.2864" y="30.459" width="1.15649" height="1.15649" rx="0.578244" fill="#474F60"/>
<rect x="54.3009" y="30.459" width="1.15649" height="1.15649" rx="0.578244" fill="#474F60"/>
<rect x="59.3156" y="30.459" width="1.15649" height="1.15649" rx="0.578244" fill="#474F60"/>
<rect x="64.3301" y="30.459" width="1.15649" height="1.15649" rx="0.578244" fill="#474F60"/>
<rect x="69.3448" y="30.459" width="1.15649" height="1.15649" rx="0.578244" fill="#474F60"/>
<rect x="74.3596" y="30.459" width="1.15649" height="1.15649" rx="0.578244" fill="#474F60"/>
<rect x="79.3743" y="30.459" width="1.15649" height="1.15649" rx="0.578244" fill="#474F60"/>
<rect x="84.3888" y="30.459" width="1.15649" height="1.15649" rx="0.578244" fill="#474F60"/>
<rect x="89.4035" y="30.459" width="1.15649" height="1.15649" rx="0.578244" fill="#474F60"/>
<rect x="94.418" y="30.459" width="1.15649" height="1.15649" rx="0.578244" fill="#474F60"/>
<rect x="99.4327" y="30.459" width="1.15649" height="1.15649" rx="0.578244" fill="#474F60"/>
<rect x="104.447" y="30.459" width="1.15649" height="1.15649" rx="0.578244" fill="#474F60"/>
<rect x="109.462" y="30.459" width="1.15649" height="1.15649" rx="0.578244" fill="#474F60"/>
<rect x="114.477" y="30.459" width="1.15649" height="1.15649" rx="0.578244" fill="#474F60"/>
<rect x="119.491" y="30.459" width="1.15649" height="1.15649" rx="0.578244" fill="#474F60"/>
<rect x="124.506" y="30.459" width="1.15649" height="1.15649" rx="0.578244" fill="#474F60"/>
<rect x="129.521" y="30.459" width="1.15649" height="1.15649" rx="0.578244" fill="#474F60"/>
<rect x="134.535" y="30.459" width="1.15649" height="1.15649" rx="0.578244" fill="#474F60"/>
<rect x="139.55" y="30.459" width="1.15649" height="1.15649" rx="0.578244" fill="#474F60"/>
<rect x="144.565" y="30.459" width="1.15649" height="1.15649" rx="0.578244" fill="#474F60"/>
<rect x="149.579" y="30.459" width="1.15649" height="1.15649" rx="0.578244" fill="#474F60"/>
<rect x="154.594" y="30.459" width="1.15649" height="1.15649" rx="0.578244" fill="#474F60"/>
<rect x="159.609" y="30.459" width="1.15649" height="1.15649" rx="0.578244" fill="#474F60"/>
<rect x="19.1985" y="35.4736" width="1.15649" height="1.15649" rx="0.578244" fill="#474F60"/>
<rect x="24.213" y="35.4736" width="1.15649" height="1.15649" rx="0.578244" fill="#474F60"/>
<rect x="29.2277" y="35.4736" width="1.15649" height="1.15649" rx="0.578244" fill="#474F60"/>
<rect x="34.2422" y="35.4736" width="1.15649" height="1.15649" rx="0.578244" fill="#474F60"/>
<rect x="39.257" y="35.4736" width="1.15649" height="1.15649" rx="0.578244" fill="#474F60"/>
<rect x="44.2717" y="35.4736" width="1.15649" height="1.15649" rx="0.578244" fill="#474F60"/>
<rect x="49.2864" y="35.4736" width="1.15649" height="1.15649" rx="0.578244" fill="#474F60"/>
<rect x="54.3009" y="35.4736" width="1.15649" height="1.15649" rx="0.578244" fill="#474F60"/>
<rect x="59.3156" y="35.4736" width="1.15649" height="1.15649" rx="0.578244" fill="#474F60"/>
<rect x="64.3301" y="35.4736" width="1.15649" height="1.15649" rx="0.578244" fill="#474F60"/>
<rect x="69.3448" y="35.4736" width="1.15649" height="1.15649" rx="0.578244" fill="#474F60"/>
<rect x="74.3596" y="35.4736" width="1.15649" height="1.15649" rx="0.578244" fill="#474F60"/>
<rect x="79.3743" y="35.4736" width="1.15649" height="1.15649" rx="0.578244" fill="#474F60"/>
<rect x="84.3888" y="35.4736" width="1.15649" height="1.15649" rx="0.578244" fill="#474F60"/>
<rect x="89.4035" y="35.4736" width="1.15649" height="1.15649" rx="0.578244" fill="#474F60"/>
<rect x="94.418" y="35.4736" width="1.15649" height="1.15649" rx="0.578244" fill="#474F60"/>
<rect x="99.4327" y="35.4736" width="1.15649" height="1.15649" rx="0.578244" fill="#474F60"/>
<rect x="104.447" y="35.4736" width="1.15649" height="1.15649" rx="0.578244" fill="#474F60"/>
<rect x="109.462" y="35.4736" width="1.15649" height="1.15649" rx="0.578244" fill="#474F60"/>
<rect x="114.477" y="35.4736" width="1.15649" height="1.15649" rx="0.578244" fill="#474F60"/>
<rect x="119.491" y="35.4736" width="1.15649" height="1.15649" rx="0.578244" fill="#474F60"/>
<rect x="124.506" y="35.4736" width="1.15649" height="1.15649" rx="0.578244" fill="#474F60"/>
<rect x="129.521" y="35.4736" width="1.15649" height="1.15649" rx="0.578244" fill="#474F60"/>
<rect x="134.535" y="35.4736" width="1.15649" height="1.15649" rx="0.578244" fill="#474F60"/>
<rect x="139.55" y="35.4736" width="1.15649" height="1.15649" rx="0.578244" fill="#474F60"/>
<rect x="144.565" y="35.4736" width="1.15649" height="1.15649" rx="0.578244" fill="#474F60"/>
<rect x="149.579" y="35.4736" width="1.15649" height="1.15649" rx="0.578244" fill="#474F60"/>
<rect x="154.594" y="35.4736" width="1.15649" height="1.15649" rx="0.578244" fill="#474F60"/>
<rect x="159.609" y="35.4736" width="1.15649" height="1.15649" rx="0.578244" fill="#474F60"/>
<rect x="19.1985" y="40.488" width="1.15649" height="1.15649" rx="0.578244" fill="#474F60"/>
<rect x="24.213" y="40.488" width="1.15649" height="1.15649" rx="0.578244" fill="#474F60"/>
<rect x="29.2277" y="40.488" width="1.15649" height="1.15649" rx="0.578244" fill="#474F60"/>
<rect x="34.2422" y="40.488" width="1.15649" height="1.15649" rx="0.578244" fill="#474F60"/>
<rect x="39.257" y="40.488" width="1.15649" height="1.15649" rx="0.578244" fill="#474F60"/>
<rect x="44.2717" y="40.488" width="1.15649" height="1.15649" rx="0.578244" fill="#474F60"/>
<rect x="49.2864" y="40.488" width="1.15649" height="1.15649" rx="0.578244" fill="#474F60"/>
<rect x="54.3009" y="40.488" width="1.15649" height="1.15649" rx="0.578244" fill="#474F60"/>
<rect x="59.3156" y="40.488" width="1.15649" height="1.15649" rx="0.578244" fill="#474F60"/>
<rect x="64.3301" y="40.488" width="1.15649" height="1.15649" rx="0.578244" fill="#474F60"/>
<rect x="69.3448" y="40.488" width="1.15649" height="1.15649" rx="0.578244" fill="#474F60"/>
<rect x="74.3596" y="40.488" width="1.15649" height="1.15649" rx="0.578244" fill="#474F60"/>
<rect x="79.3743" y="40.488" width="1.15649" height="1.15649" rx="0.578244" fill="#474F60"/>
<rect x="84.3888" y="40.488" width="1.15649" height="1.15649" rx="0.578244" fill="#474F60"/>
<rect x="89.4035" y="40.488" width="1.15649" height="1.15649" rx="0.578244" fill="#474F60"/>
<rect x="94.418" y="40.488" width="1.15649" height="1.15649" rx="0.578244" fill="#474F60"/>
<rect x="99.4327" y="40.488" width="1.15649" height="1.15649" rx="0.578244" fill="#474F60"/>
<rect x="104.447" y="40.488" width="1.15649" height="1.15649" rx="0.578244" fill="#474F60"/>
<rect x="109.462" y="40.488" width="1.15649" height="1.15649" rx="0.578244" fill="#474F60"/>
<rect x="114.477" y="40.488" width="1.15649" height="1.15649" rx="0.578244" fill="#474F60"/>
<rect x="119.491" y="40.488" width="1.15649" height="1.15649" rx="0.578244" fill="#474F60"/>
<rect x="124.506" y="40.488" width="1.15649" height="1.15649" rx="0.578244" fill="#474F60"/>
<rect x="129.521" y="40.488" width="1.15649" height="1.15649" rx="0.578244" fill="#474F60"/>
<rect x="134.535" y="40.488" width="1.15649" height="1.15649" rx="0.578244" fill="#474F60"/>
<rect x="139.55" y="40.488" width="1.15649" height="1.15649" rx="0.578244" fill="#474F60"/>
<rect x="144.565" y="40.488" width="1.15649" height="1.15649" rx="0.578244" fill="#474F60"/>
<rect x="149.579" y="40.488" width="1.15649" height="1.15649" rx="0.578244" fill="#474F60"/>
<rect x="154.594" y="40.488" width="1.15649" height="1.15649" rx="0.578244" fill="#474F60"/>
<rect x="159.609" y="40.488" width="1.15649" height="1.15649" rx="0.578244" fill="#474F60"/>
<rect x="19.1985" y="45.5027" width="1.15649" height="1.15649" rx="0.578244" fill="#474F60"/>
<rect x="24.213" y="45.5027" width="1.15649" height="1.15649" rx="0.578244" fill="#474F60"/>
<rect x="29.2277" y="45.5027" width="1.15649" height="1.15649" rx="0.578244" fill="#474F60"/>
<rect x="34.2422" y="45.5027" width="1.15649" height="1.15649" rx="0.578244" fill="#474F60"/>
<rect x="39.257" y="45.5027" width="1.15649" height="1.15649" rx="0.578244" fill="#474F60"/>
<rect x="44.2717" y="45.5027" width="1.15649" height="1.15649" rx="0.578244" fill="#474F60"/>
<rect x="49.2864" y="45.5027" width="1.15649" height="1.15649" rx="0.578244" fill="#474F60"/>
<rect x="54.3009" y="45.5027" width="1.15649" height="1.15649" rx="0.578244" fill="#474F60"/>
<rect x="59.3156" y="45.5027" width="1.15649" height="1.15649" rx="0.578244" fill="#474F60"/>
<rect x="64.3301" y="45.5027" width="1.15649" height="1.15649" rx="0.578244" fill="#474F60"/>
<rect x="69.3448" y="45.5027" width="1.15649" height="1.15649" rx="0.578244" fill="#474F60"/>
<rect x="74.3596" y="45.5027" width="1.15649" height="1.15649" rx="0.578244" fill="#474F60"/>
<rect x="79.3743" y="45.5027" width="1.15649" height="1.15649" rx="0.578244" fill="#474F60"/>
<rect x="84.3888" y="45.5027" width="1.15649" height="1.15649" rx="0.578244" fill="#474F60"/>
<rect x="89.4035" y="45.5027" width="1.15649" height="1.15649" rx="0.578244" fill="#474F60"/>
<rect x="94.418" y="45.5027" width="1.15649" height="1.15649" rx="0.578244" fill="#474F60"/>
<rect x="99.4327" y="45.5027" width="1.15649" height="1.15649" rx="0.578244" fill="#474F60"/>
<rect x="104.447" y="45.5027" width="1.15649" height="1.15649" rx="0.578244" fill="#474F60"/>
<rect x="109.462" y="45.5027" width="1.15649" height="1.15649" rx="0.578244" fill="#474F60"/>
<rect x="114.477" y="45.5027" width="1.15649" height="1.15649" rx="0.578244" fill="#474F60"/>
<rect x="119.491" y="45.5027" width="1.15649" height="1.15649" rx="0.578244" fill="#474F60"/>
<rect x="124.506" y="45.5027" width="1.15649" height="1.15649" rx="0.578244" fill="#474F60"/>
<rect x="129.521" y="45.5027" width="1.15649" height="1.15649" rx="0.578244" fill="#474F60"/>
<rect x="134.535" y="45.5027" width="1.15649" height="1.15649" rx="0.578244" fill="#474F60"/>
<rect x="139.55" y="45.5027" width="1.15649" height="1.15649" rx="0.578244" fill="#474F60"/>
<rect x="144.565" y="45.5027" width="1.15649" height="1.15649" rx="0.578244" fill="#474F60"/>
<rect x="149.579" y="45.5027" width="1.15649" height="1.15649" rx="0.578244" fill="#474F60"/>
<rect x="154.594" y="45.5027" width="1.15649" height="1.15649" rx="0.578244" fill="#474F60"/>
<rect x="159.609" y="45.5027" width="1.15649" height="1.15649" rx="0.578244" fill="#474F60"/>
<rect x="19.1985" y="50.5173" width="1.15649" height="1.15649" rx="0.578244" fill="#474F60"/>
<rect x="24.213" y="50.5173" width="1.15649" height="1.15649" rx="0.578244" fill="#474F60"/>
<rect x="29.2277" y="50.5173" width="1.15649" height="1.15649" rx="0.578244" fill="#474F60"/>
<rect x="34.2422" y="50.5173" width="1.15649" height="1.15649" rx="0.578244" fill="#474F60"/>
<rect x="39.257" y="50.5173" width="1.15649" height="1.15649" rx="0.578244" fill="#474F60"/>
<rect x="44.2717" y="50.5173" width="1.15649" height="1.15649" rx="0.578244" fill="#474F60"/>
<rect x="49.2864" y="50.5173" width="1.15649" height="1.15649" rx="0.578244" fill="#474F60"/>
<rect x="54.3009" y="50.5173" width="1.15649" height="1.15649" rx="0.578244" fill="#474F60"/>
<rect x="59.3156" y="50.5173" width="1.15649" height="1.15649" rx="0.578244" fill="#474F60"/>
<rect x="64.3301" y="50.5173" width="1.15649" height="1.15649" rx="0.578244" fill="#474F60"/>
<rect x="69.3448" y="50.5173" width="1.15649" height="1.15649" rx="0.578244" fill="#474F60"/>
<rect x="74.3596" y="50.5173" width="1.15649" height="1.15649" rx="0.578244" fill="#474F60"/>
<rect x="79.3743" y="50.5173" width="1.15649" height="1.15649" rx="0.578244" fill="#474F60"/>
<rect x="84.3888" y="50.5173" width="1.15649" height="1.15649" rx="0.578244" fill="#474F60"/>
<rect x="89.4035" y="50.5173" width="1.15649" height="1.15649" rx="0.578244" fill="#474F60"/>
<rect x="94.418" y="50.5173" width="1.15649" height="1.15649" rx="0.578244" fill="#474F60"/>
<rect x="99.4327" y="50.5173" width="1.15649" height="1.15649" rx="0.578244" fill="#474F60"/>
<rect x="104.447" y="50.5173" width="1.15649" height="1.15649" rx="0.578244" fill="#474F60"/>
<rect x="109.462" y="50.5173" width="1.15649" height="1.15649" rx="0.578244" fill="#474F60"/>
<rect x="114.477" y="50.5173" width="1.15649" height="1.15649" rx="0.578244" fill="#474F60"/>
<rect x="119.491" y="50.5173" width="1.15649" height="1.15649" rx="0.578244" fill="#474F60"/>
<rect x="124.506" y="50.5173" width="1.15649" height="1.15649" rx="0.578244" fill="#474F60"/>
<rect x="129.521" y="50.5173" width="1.15649" height="1.15649" rx="0.578244" fill="#474F60"/>
<rect x="134.535" y="50.5173" width="1.15649" height="1.15649" rx="0.578244" fill="#474F60"/>
<rect x="139.55" y="50.5173" width="1.15649" height="1.15649" rx="0.578244" fill="#474F60"/>
<rect x="144.565" y="50.5173" width="1.15649" height="1.15649" rx="0.578244" fill="#474F60"/>
<rect x="149.579" y="50.5173" width="1.15649" height="1.15649" rx="0.578244" fill="#474F60"/>
<rect x="154.594" y="50.5173" width="1.15649" height="1.15649" rx="0.578244" fill="#474F60"/>
<rect x="159.609" y="50.5173" width="1.15649" height="1.15649" rx="0.578244" fill="#474F60"/>
<rect x="19.1985" y="55.5322" width="1.15649" height="1.15649" rx="0.578244" fill="#474F60"/>
<rect x="24.213" y="55.5322" width="1.15649" height="1.15649" rx="0.578244" fill="#474F60"/>
<rect x="29.2277" y="55.5322" width="1.15649" height="1.15649" rx="0.578244" fill="#474F60"/>
<rect x="34.2422" y="55.5322" width="1.15649" height="1.15649" rx="0.578244" fill="#474F60"/>
<rect x="39.257" y="55.5322" width="1.15649" height="1.15649" rx="0.578244" fill="#474F60"/>
<rect x="44.2717" y="55.5322" width="1.15649" height="1.15649" rx="0.578244" fill="#474F60"/>
<rect x="49.2864" y="55.5322" width="1.15649" height="1.15649" rx="0.578244" fill="#474F60"/>
<rect x="54.3009" y="55.5322" width="1.15649" height="1.15649" rx="0.578244" fill="#474F60"/>
<rect x="59.3156" y="55.5322" width="1.15649" height="1.15649" rx="0.578244" fill="#474F60"/>
<rect x="64.3301" y="55.5322" width="1.15649" height="1.15649" rx="0.578244" fill="#474F60"/>
<rect x="69.3448" y="55.5322" width="1.15649" height="1.15649" rx="0.578244" fill="#474F60"/>
<rect x="74.3596" y="55.5322" width="1.15649" height="1.15649" rx="0.578244" fill="#474F60"/>
<rect x="79.3743" y="55.5322" width="1.15649" height="1.15649" rx="0.578244" fill="#474F60"/>
<rect x="84.3888" y="55.5322" width="1.15649" height="1.15649" rx="0.578244" fill="#474F60"/>
<rect x="89.4035" y="55.5322" width="1.15649" height="1.15649" rx="0.578244" fill="#474F60"/>
<rect x="94.418" y="55.5322" width="1.15649" height="1.15649" rx="0.578244" fill="#474F60"/>
<rect x="99.4327" y="55.5322" width="1.15649" height="1.15649" rx="0.578244" fill="#474F60"/>
<rect x="104.447" y="55.5322" width="1.15649" height="1.15649" rx="0.578244" fill="#474F60"/>
<rect x="109.462" y="55.5322" width="1.15649" height="1.15649" rx="0.578244" fill="#474F60"/>
<rect x="114.477" y="55.5322" width="1.15649" height="1.15649" rx="0.578244" fill="#474F60"/>
<rect x="119.491" y="55.5322" width="1.15649" height="1.15649" rx="0.578244" fill="#474F60"/>
<rect x="124.506" y="55.5322" width="1.15649" height="1.15649" rx="0.578244" fill="#474F60"/>
<rect x="129.521" y="55.5322" width="1.15649" height="1.15649" rx="0.578244" fill="#474F60"/>
<rect x="134.535" y="55.5322" width="1.15649" height="1.15649" rx="0.578244" fill="#474F60"/>
<rect x="139.55" y="55.5322" width="1.15649" height="1.15649" rx="0.578244" fill="#474F60"/>
<rect x="144.565" y="55.5322" width="1.15649" height="1.15649" rx="0.578244" fill="#474F60"/>
<rect x="149.579" y="55.5322" width="1.15649" height="1.15649" rx="0.578244" fill="#474F60"/>
<rect x="154.594" y="55.5322" width="1.15649" height="1.15649" rx="0.578244" fill="#474F60"/>
<rect x="159.609" y="55.5322" width="1.15649" height="1.15649" rx="0.578244" fill="#474F60"/>
<rect x="19.1985" y="60.5469" width="1.15649" height="1.15649" rx="0.578244" fill="#474F60"/>
<rect x="24.213" y="60.5469" width="1.15649" height="1.15649" rx="0.578244" fill="#474F60"/>
<rect x="29.2277" y="60.5469" width="1.15649" height="1.15649" rx="0.578244" fill="#474F60"/>
<rect x="34.2422" y="60.5469" width="1.15649" height="1.15649" rx="0.578244" fill="#474F60"/>
<rect x="39.257" y="60.5469" width="1.15649" height="1.15649" rx="0.578244" fill="#474F60"/>
<rect x="44.2717" y="60.5469" width="1.15649" height="1.15649" rx="0.578244" fill="#474F60"/>
<rect x="49.2864" y="60.5469" width="1.15649" height="1.15649" rx="0.578244" fill="#474F60"/>
<rect x="54.3009" y="60.5469" width="1.15649" height="1.15649" rx="0.578244" fill="#474F60"/>
<rect x="59.3156" y="60.5469" width="1.15649" height="1.15649" rx="0.578244" fill="#474F60"/>
<rect x="64.3301" y="60.5469" width="1.15649" height="1.15649" rx="0.578244" fill="#474F60"/>
<rect x="69.3448" y="60.5469" width="1.15649" height="1.15649" rx="0.578244" fill="#474F60"/>
<rect x="74.3596" y="60.5469" width="1.15649" height="1.15649" rx="0.578244" fill="#474F60"/>
<rect x="79.3743" y="60.5469" width="1.15649" height="1.15649" rx="0.578244" fill="#474F60"/>
<rect x="84.3888" y="60.5469" width="1.15649" height="1.15649" rx="0.578244" fill="#474F60"/>
<rect x="89.4035" y="60.5469" width="1.15649" height="1.15649" rx="0.578244" fill="#474F60"/>
<rect x="94.418" y="60.5469" width="1.15649" height="1.15649" rx="0.578244" fill="#474F60"/>
<rect x="99.4327" y="60.5469" width="1.15649" height="1.15649" rx="0.578244" fill="#474F60"/>
<rect x="104.447" y="60.5469" width="1.15649" height="1.15649" rx="0.578244" fill="#474F60"/>
<rect x="109.462" y="60.5469" width="1.15649" height="1.15649" rx="0.578244" fill="#474F60"/>
<rect x="114.477" y="60.5469" width="1.15649" height="1.15649" rx="0.578244" fill="#474F60"/>
<rect x="119.491" y="60.5469" width="1.15649" height="1.15649" rx="0.578244" fill="#474F60"/>
<rect x="124.506" y="60.5469" width="1.15649" height="1.15649" rx="0.578244" fill="#474F60"/>
<rect x="129.521" y="60.5469" width="1.15649" height="1.15649" rx="0.578244" fill="#474F60"/>
<rect x="134.535" y="60.5469" width="1.15649" height="1.15649" rx="0.578244" fill="#474F60"/>
<rect x="139.55" y="60.5469" width="1.15649" height="1.15649" rx="0.578244" fill="#474F60"/>
<rect x="144.565" y="60.5469" width="1.15649" height="1.15649" rx="0.578244" fill="#474F60"/>
<rect x="149.579" y="60.5469" width="1.15649" height="1.15649" rx="0.578244" fill="#474F60"/>
<rect x="154.594" y="60.5469" width="1.15649" height="1.15649" rx="0.578244" fill="#474F60"/>
<rect x="159.609" y="60.5469" width="1.15649" height="1.15649" rx="0.578244" fill="#474F60"/>
<rect x="19.1985" y="65.5615" width="1.15649" height="1.15649" rx="0.578244" fill="#474F60"/>
<rect x="24.213" y="65.5615" width="1.15649" height="1.15649" rx="0.578244" fill="#474F60"/>
<rect x="29.2277" y="65.5615" width="1.15649" height="1.15649" rx="0.578244" fill="#474F60"/>
<rect x="34.2422" y="65.5615" width="1.15649" height="1.15649" rx="0.578244" fill="#474F60"/>
<rect x="39.257" y="65.5615" width="1.15649" height="1.15649" rx="0.578244" fill="#474F60"/>
<rect x="44.2717" y="65.5615" width="1.15649" height="1.15649" rx="0.578244" fill="#474F60"/>
<rect x="49.2864" y="65.5615" width="1.15649" height="1.15649" rx="0.578244" fill="#474F60"/>
<rect x="54.3009" y="65.5615" width="1.15649" height="1.15649" rx="0.578244" fill="#474F60"/>
<rect x="59.3156" y="65.5615" width="1.15649" height="1.15649" rx="0.578244" fill="#474F60"/>
<rect x="64.3301" y="65.5615" width="1.15649" height="1.15649" rx="0.578244" fill="#474F60"/>
<rect x="69.3448" y="65.5615" width="1.15649" height="1.15649" rx="0.578244" fill="#474F60"/>
<rect x="74.3596" y="65.5615" width="1.15649" height="1.15649" rx="0.578244" fill="#474F60"/>
<rect x="79.3743" y="65.5615" width="1.15649" height="1.15649" rx="0.578244" fill="#474F60"/>
<rect x="84.3888" y="65.5615" width="1.15649" height="1.15649" rx="0.578244" fill="#474F60"/>
<rect x="89.4035" y="65.5615" width="1.15649" height="1.15649" rx="0.578244" fill="#474F60"/>
<rect x="94.418" y="65.5615" width="1.15649" height="1.15649" rx="0.578244" fill="#474F60"/>
<rect x="99.4327" y="65.5615" width="1.15649" height="1.15649" rx="0.578244" fill="#474F60"/>
<rect x="104.447" y="65.5615" width="1.15649" height="1.15649" rx="0.578244" fill="#474F60"/>
<rect x="109.462" y="65.5615" width="1.15649" height="1.15649" rx="0.578244" fill="#474F60"/>
<rect x="114.477" y="65.5615" width="1.15649" height="1.15649" rx="0.578244" fill="#474F60"/>
<rect x="119.491" y="65.5615" width="1.15649" height="1.15649" rx="0.578244" fill="#474F60"/>
<rect x="124.506" y="65.5615" width="1.15649" height="1.15649" rx="0.578244" fill="#474F60"/>
<rect x="129.521" y="65.5615" width="1.15649" height="1.15649" rx="0.578244" fill="#474F60"/>
<rect x="134.535" y="65.5615" width="1.15649" height="1.15649" rx="0.578244" fill="#474F60"/>
<rect x="139.55" y="65.5615" width="1.15649" height="1.15649" rx="0.578244" fill="#474F60"/>
<rect x="144.565" y="65.5615" width="1.15649" height="1.15649" rx="0.578244" fill="#474F60"/>
<rect x="149.579" y="65.5615" width="1.15649" height="1.15649" rx="0.578244" fill="#474F60"/>
<rect x="154.594" y="65.5615" width="1.15649" height="1.15649" rx="0.578244" fill="#474F60"/>
<rect x="159.609" y="65.5615" width="1.15649" height="1.15649" rx="0.578244" fill="#474F60"/>
<rect x="19.1985" y="70.5759" width="1.15649" height="1.15649" rx="0.578244" fill="#474F60"/>
<rect x="24.213" y="70.5759" width="1.15649" height="1.15649" rx="0.578244" fill="#474F60"/>
<rect x="29.2277" y="70.5759" width="1.15649" height="1.15649" rx="0.578244" fill="#474F60"/>
<rect x="34.2422" y="70.5759" width="1.15649" height="1.15649" rx="0.578244" fill="#474F60"/>
<rect x="39.257" y="70.5759" width="1.15649" height="1.15649" rx="0.578244" fill="#474F60"/>
<rect x="44.2717" y="70.5759" width="1.15649" height="1.15649" rx="0.578244" fill="#474F60"/>
<rect x="49.2864" y="70.5759" width="1.15649" height="1.15649" rx="0.578244" fill="#474F60"/>
<rect x="54.3009" y="70.5759" width="1.15649" height="1.15649" rx="0.578244" fill="#474F60"/>
<rect x="59.3156" y="70.5759" width="1.15649" height="1.15649" rx="0.578244" fill="#474F60"/>
<rect x="64.3301" y="70.5759" width="1.15649" height="1.15649" rx="0.578244" fill="#474F60"/>
<rect x="69.3448" y="70.5759" width="1.15649" height="1.15649" rx="0.578244" fill="#474F60"/>
<rect x="74.3596" y="70.5759" width="1.15649" height="1.15649" rx="0.578244" fill="#474F60"/>
<rect x="79.3743" y="70.5759" width="1.15649" height="1.15649" rx="0.578244" fill="#474F60"/>
<rect x="84.3888" y="70.5759" width="1.15649" height="1.15649" rx="0.578244" fill="#474F60"/>
<rect x="89.4035" y="70.5759" width="1.15649" height="1.15649" rx="0.578244" fill="#474F60"/>
<rect x="94.418" y="70.5759" width="1.15649" height="1.15649" rx="0.578244" fill="#474F60"/>
<rect x="99.4327" y="70.5759" width="1.15649" height="1.15649" rx="0.578244" fill="#474F60"/>
<rect x="104.447" y="70.5759" width="1.15649" height="1.15649" rx="0.578244" fill="#474F60"/>
<rect x="109.462" y="70.5759" width="1.15649" height="1.15649" rx="0.578244" fill="#474F60"/>
<rect x="114.477" y="70.5759" width="1.15649" height="1.15649" rx="0.578244" fill="#474F60"/>
<rect x="119.491" y="70.5759" width="1.15649" height="1.15649" rx="0.578244" fill="#474F60"/>
<rect x="124.506" y="70.5759" width="1.15649" height="1.15649" rx="0.578244" fill="#474F60"/>
<rect x="129.521" y="70.5759" width="1.15649" height="1.15649" rx="0.578244" fill="#474F60"/>
<rect x="134.535" y="70.5759" width="1.15649" height="1.15649" rx="0.578244" fill="#474F60"/>
<rect x="139.55" y="70.5759" width="1.15649" height="1.15649" rx="0.578244" fill="#474F60"/>
<rect x="144.565" y="70.5759" width="1.15649" height="1.15649" rx="0.578244" fill="#474F60"/>
<rect x="149.579" y="70.5759" width="1.15649" height="1.15649" rx="0.578244" fill="#474F60"/>
<rect x="154.594" y="70.5759" width="1.15649" height="1.15649" rx="0.578244" fill="#474F60"/>
<rect x="159.609" y="70.5759" width="1.15649" height="1.15649" rx="0.578244" fill="#474F60"/>
<rect x="19.1985" y="75.5908" width="1.15649" height="1.15649" rx="0.578244" fill="#474F60"/>
<rect x="24.213" y="75.5908" width="1.15649" height="1.15649" rx="0.578244" fill="#474F60"/>
<rect x="29.2277" y="75.5908" width="1.15649" height="1.15649" rx="0.578244" fill="#474F60"/>
<rect x="34.2422" y="75.5908" width="1.15649" height="1.15649" rx="0.578244" fill="#474F60"/>
<rect x="39.257" y="75.5908" width="1.15649" height="1.15649" rx="0.578244" fill="#474F60"/>
<rect x="44.2717" y="75.5908" width="1.15649" height="1.15649" rx="0.578244" fill="#474F60"/>
<rect x="49.2864" y="75.5908" width="1.15649" height="1.15649" rx="0.578244" fill="#474F60"/>
<rect x="54.3009" y="75.5908" width="1.15649" height="1.15649" rx="0.578244" fill="#474F60"/>
<rect x="59.3156" y="75.5908" width="1.15649" height="1.15649" rx="0.578244" fill="#474F60"/>
<rect x="64.3301" y="75.5908" width="1.15649" height="1.15649" rx="0.578244" fill="#474F60"/>
<rect x="69.3448" y="75.5908" width="1.15649" height="1.15649" rx="0.578244" fill="#474F60"/>
<rect x="74.3596" y="75.5908" width="1.15649" height="1.15649" rx="0.578244" fill="#474F60"/>
<rect x="79.3743" y="75.5908" width="1.15649" height="1.15649" rx="0.578244" fill="#474F60"/>
<rect x="84.3888" y="75.5908" width="1.15649" height="1.15649" rx="0.578244" fill="#474F60"/>
<rect x="89.4035" y="75.5908" width="1.15649" height="1.15649" rx="0.578244" fill="#474F60"/>
<rect x="94.418" y="75.5908" width="1.15649" height="1.15649" rx="0.578244" fill="#474F60"/>
<rect x="99.4327" y="75.5908" width="1.15649" height="1.15649" rx="0.578244" fill="#474F60"/>
<rect x="104.447" y="75.5908" width="1.15649" height="1.15649" rx="0.578244" fill="#474F60"/>
<rect x="109.462" y="75.5908" width="1.15649" height="1.15649" rx="0.578244" fill="#474F60"/>
<rect x="114.477" y="75.5908" width="1.15649" height="1.15649" rx="0.578244" fill="#474F60"/>
<rect x="119.491" y="75.5908" width="1.15649" height="1.15649" rx="0.578244" fill="#474F60"/>
<rect x="124.506" y="75.5908" width="1.15649" height="1.15649" rx="0.578244" fill="#474F60"/>
<rect x="129.521" y="75.5908" width="1.15649" height="1.15649" rx="0.578244" fill="#474F60"/>
<rect x="134.535" y="75.5908" width="1.15649" height="1.15649" rx="0.578244" fill="#474F60"/>
<rect x="139.55" y="75.5908" width="1.15649" height="1.15649" rx="0.578244" fill="#474F60"/>
<rect x="144.565" y="75.5908" width="1.15649" height="1.15649" rx="0.578244" fill="#474F60"/>
<rect x="149.579" y="75.5908" width="1.15649" height="1.15649" rx="0.578244" fill="#474F60"/>
<rect x="154.594" y="75.5908" width="1.15649" height="1.15649" rx="0.578244" fill="#474F60"/>
<rect x="159.609" y="75.5908" width="1.15649" height="1.15649" rx="0.578244" fill="#474F60"/>
<rect x="19.1985" y="80.6055" width="1.15649" height="1.15649" rx="0.578244" fill="#474F60"/>
<rect x="24.213" y="80.6055" width="1.15649" height="1.15649" rx="0.578244" fill="#474F60"/>
<rect x="29.2277" y="80.6055" width="1.15649" height="1.15649" rx="0.578244" fill="#474F60"/>
<rect x="34.2422" y="80.6055" width="1.15649" height="1.15649" rx="0.578244" fill="#474F60"/>
<rect x="39.257" y="80.6055" width="1.15649" height="1.15649" rx="0.578244" fill="#474F60"/>
<rect x="44.2717" y="80.6055" width="1.15649" height="1.15649" rx="0.578244" fill="#474F60"/>
<rect x="49.2864" y="80.6055" width="1.15649" height="1.15649" rx="0.578244" fill="#474F60"/>
<rect x="54.3009" y="80.6055" width="1.15649" height="1.15649" rx="0.578244" fill="#474F60"/>
<rect x="59.3156" y="80.6055" width="1.15649" height="1.15649" rx="0.578244" fill="#474F60"/>
<rect x="64.3301" y="80.6055" width="1.15649" height="1.15649" rx="0.578244" fill="#474F60"/>
<rect x="69.3448" y="80.6055" width="1.15649" height="1.15649" rx="0.578244" fill="#474F60"/>
<rect x="74.3596" y="80.6055" width="1.15649" height="1.15649" rx="0.578244" fill="#474F60"/>
<rect x="79.3743" y="80.6055" width="1.15649" height="1.15649" rx="0.578244" fill="#474F60"/>
<rect x="84.3888" y="80.6055" width="1.15649" height="1.15649" rx="0.578244" fill="#474F60"/>
<rect x="89.4035" y="80.6055" width="1.15649" height="1.15649" rx="0.578244" fill="#474F60"/>
<rect x="94.418" y="80.6055" width="1.15649" height="1.15649" rx="0.578244" fill="#474F60"/>
<rect x="99.4327" y="80.6055" width="1.15649" height="1.15649" rx="0.578244" fill="#474F60"/>
<rect x="104.447" y="80.6055" width="1.15649" height="1.15649" rx="0.578244" fill="#474F60"/>
<rect x="109.462" y="80.6055" width="1.15649" height="1.15649" rx="0.578244" fill="#474F60"/>
<rect x="114.477" y="80.6055" width="1.15649" height="1.15649" rx="0.578244" fill="#474F60"/>
<rect x="119.491" y="80.6055" width="1.15649" height="1.15649" rx="0.578244" fill="#474F60"/>
<rect x="124.506" y="80.6055" width="1.15649" height="1.15649" rx="0.578244" fill="#474F60"/>
<rect x="129.521" y="80.6055" width="1.15649" height="1.15649" rx="0.578244" fill="#474F60"/>
<rect x="134.535" y="80.6055" width="1.15649" height="1.15649" rx="0.578244" fill="#474F60"/>
<rect x="139.55" y="80.6055" width="1.15649" height="1.15649" rx="0.578244" fill="#474F60"/>
<rect x="144.565" y="80.6055" width="1.15649" height="1.15649" rx="0.578244" fill="#474F60"/>
<rect x="149.579" y="80.6055" width="1.15649" height="1.15649" rx="0.578244" fill="#474F60"/>
<rect x="154.594" y="80.6055" width="1.15649" height="1.15649" rx="0.578244" fill="#474F60"/>
<rect x="159.609" y="80.6055" width="1.15649" height="1.15649" rx="0.578244" fill="#474F60"/>
<rect x="19.1985" y="85.6201" width="1.15649" height="1.15649" rx="0.578244" fill="#474F60"/>
<rect x="24.213" y="85.6201" width="1.15649" height="1.15649" rx="0.578244" fill="#474F60"/>
<rect x="29.2277" y="85.6201" width="1.15649" height="1.15649" rx="0.578244" fill="#474F60"/>
<rect x="34.2422" y="85.6201" width="1.15649" height="1.15649" rx="0.578244" fill="#474F60"/>
<rect x="39.257" y="85.6201" width="1.15649" height="1.15649" rx="0.578244" fill="#474F60"/>
<rect x="44.2717" y="85.6201" width="1.15649" height="1.15649" rx="0.578244" fill="#474F60"/>
<rect x="49.2864" y="85.6201" width="1.15649" height="1.15649" rx="0.578244" fill="#474F60"/>
<rect x="54.3009" y="85.6201" width="1.15649" height="1.15649" rx="0.578244" fill="#474F60"/>
<rect x="59.3156" y="85.6201" width="1.15649" height="1.15649" rx="0.578244" fill="#474F60"/>
<rect x="64.3301" y="85.6201" width="1.15649" height="1.15649" rx="0.578244" fill="#474F60"/>
<rect x="69.3448" y="85.6201" width="1.15649" height="1.15649" rx="0.578244" fill="#474F60"/>
<rect x="74.3596" y="85.6201" width="1.15649" height="1.15649" rx="0.578244" fill="#474F60"/>
<rect x="79.3743" y="85.6201" width="1.15649" height="1.15649" rx="0.578244" fill="#474F60"/>
<rect x="84.3888" y="85.6201" width="1.15649" height="1.15649" rx="0.578244" fill="#474F60"/>
<rect x="89.4035" y="85.6201" width="1.15649" height="1.15649" rx="0.578244" fill="#474F60"/>
<rect x="94.418" y="85.6201" width="1.15649" height="1.15649" rx="0.578244" fill="#474F60"/>
<rect x="99.4327" y="85.6201" width="1.15649" height="1.15649" rx="0.578244" fill="#474F60"/>
<rect x="104.447" y="85.6201" width="1.15649" height="1.15649" rx="0.578244" fill="#474F60"/>
<rect x="109.462" y="85.6201" width="1.15649" height="1.15649" rx="0.578244" fill="#474F60"/>
<rect x="114.477" y="85.6201" width="1.15649" height="1.15649" rx="0.578244" fill="#474F60"/>
<rect x="119.491" y="85.6201" width="1.15649" height="1.15649" rx="0.578244" fill="#474F60"/>
<rect x="124.506" y="85.6201" width="1.15649" height="1.15649" rx="0.578244" fill="#474F60"/>
<rect x="129.521" y="85.6201" width="1.15649" height="1.15649" rx="0.578244" fill="#474F60"/>
<rect x="134.535" y="85.6201" width="1.15649" height="1.15649" rx="0.578244" fill="#474F60"/>
<rect x="139.55" y="85.6201" width="1.15649" height="1.15649" rx="0.578244" fill="#474F60"/>
<rect x="144.565" y="85.6201" width="1.15649" height="1.15649" rx="0.578244" fill="#474F60"/>
<rect x="149.579" y="85.6201" width="1.15649" height="1.15649" rx="0.578244" fill="#474F60"/>
<rect x="154.594" y="85.6201" width="1.15649" height="1.15649" rx="0.578244" fill="#474F60"/>
<rect x="159.609" y="85.6201" width="1.15649" height="1.15649" rx="0.578244" fill="#474F60"/>
<rect x="19.1985" y="90.6348" width="1.15649" height="1.15649" rx="0.578244" fill="#474F60"/>
<rect x="24.213" y="90.6348" width="1.15649" height="1.15649" rx="0.578244" fill="#474F60"/>
<rect x="29.2277" y="90.6348" width="1.15649" height="1.15649" rx="0.578244" fill="#474F60"/>
<rect x="34.2422" y="90.6348" width="1.15649" height="1.15649" rx="0.578244" fill="#474F60"/>
<rect x="39.257" y="90.6348" width="1.15649" height="1.15649" rx="0.578244" fill="#474F60"/>
<rect x="44.2717" y="90.6348" width="1.15649" height="1.15649" rx="0.578244" fill="#474F60"/>
<rect x="49.2864" y="90.6348" width="1.15649" height="1.15649" rx="0.578244" fill="#474F60"/>
<rect x="54.3009" y="90.6348" width="1.15649" height="1.15649" rx="0.578244" fill="#474F60"/>
<rect x="59.3156" y="90.6348" width="1.15649" height="1.15649" rx="0.578244" fill="#474F60"/>
<rect x="64.3301" y="90.6348" width="1.15649" height="1.15649" rx="0.578244" fill="#474F60"/>
<rect x="69.3448" y="90.6348" width="1.15649" height="1.15649" rx="0.578244" fill="#474F60"/>
<rect x="74.3596" y="90.6348" width="1.15649" height="1.15649" rx="0.578244" fill="#474F60"/>
<rect x="79.3743" y="90.6348" width="1.15649" height="1.15649" rx="0.578244" fill="#474F60"/>
<rect x="84.3888" y="90.6348" width="1.15649" height="1.15649" rx="0.578244" fill="#474F60"/>
<rect x="89.4035" y="90.6348" width="1.15649" height="1.15649" rx="0.578244" fill="#474F60"/>
<rect x="94.418" y="90.6348" width="1.15649" height="1.15649" rx="0.578244" fill="#474F60"/>
<rect x="99.4327" y="90.6348" width="1.15649" height="1.15649" rx="0.578244" fill="#474F60"/>
<rect x="104.447" y="90.6348" width="1.15649" height="1.15649" rx="0.578244" fill="#474F60"/>
<rect x="109.462" y="90.6348" width="1.15649" height="1.15649" rx="0.578244" fill="#474F60"/>
<rect x="114.477" y="90.6348" width="1.15649" height="1.15649" rx="0.578244" fill="#474F60"/>
<rect x="119.491" y="90.6348" width="1.15649" height="1.15649" rx="0.578244" fill="#474F60"/>
<rect x="124.506" y="90.6348" width="1.15649" height="1.15649" rx="0.578244" fill="#474F60"/>
<rect x="129.521" y="90.6348" width="1.15649" height="1.15649" rx="0.578244" fill="#474F60"/>
<rect x="134.535" y="90.6348" width="1.15649" height="1.15649" rx="0.578244" fill="#474F60"/>
<rect x="139.55" y="90.6348" width="1.15649" height="1.15649" rx="0.578244" fill="#474F60"/>
<rect x="144.565" y="90.6348" width="1.15649" height="1.15649" rx="0.578244" fill="#474F60"/>
<rect x="149.579" y="90.6348" width="1.15649" height="1.15649" rx="0.578244" fill="#474F60"/>
<rect x="154.594" y="90.6348" width="1.15649" height="1.15649" rx="0.578244" fill="#474F60"/>
<rect x="159.609" y="90.6348" width="1.15649" height="1.15649" rx="0.578244" fill="#474F60"/>
<rect x="19.1985" y="95.6494" width="1.15649" height="1.15649" rx="0.578244" fill="#474F60"/>
<rect x="24.213" y="95.6494" width="1.15649" height="1.15649" rx="0.578244" fill="#474F60"/>
<rect x="29.2277" y="95.6494" width="1.15649" height="1.15649" rx="0.578244" fill="#474F60"/>
<rect x="34.2422" y="95.6494" width="1.15649" height="1.15649" rx="0.578244" fill="#474F60"/>
<rect x="39.257" y="95.6494" width="1.15649" height="1.15649" rx="0.578244" fill="#474F60"/>
<rect x="44.2717" y="95.6494" width="1.15649" height="1.15649" rx="0.578244" fill="#474F60"/>
<rect x="49.2864" y="95.6494" width="1.15649" height="1.15649" rx="0.578244" fill="#474F60"/>
<rect x="54.3009" y="95.6494" width="1.15649" height="1.15649" rx="0.578244" fill="#474F60"/>
<rect x="59.3156" y="95.6494" width="1.15649" height="1.15649" rx="0.578244" fill="#474F60"/>
<rect x="64.3301" y="95.6494" width="1.15649" height="1.15649" rx="0.578244" fill="#474F60"/>
<rect x="69.3448" y="95.6494" width="1.15649" height="1.15649" rx="0.578244" fill="#474F60"/>
<rect x="74.3596" y="95.6494" width="1.15649" height="1.15649" rx="0.578244" fill="#474F60"/>
<rect x="79.3743" y="95.6494" width="1.15649" height="1.15649" rx="0.578244" fill="#474F60"/>
<rect x="84.3888" y="95.6494" width="1.15649" height="1.15649" rx="0.578244" fill="#474F60"/>
<rect x="89.4035" y="95.6494" width="1.15649" height="1.15649" rx="0.578244" fill="#474F60"/>
<rect x="94.418" y="95.6494" width="1.15649" height="1.15649" rx="0.578244" fill="#474F60"/>
<rect x="99.4327" y="95.6494" width="1.15649" height="1.15649" rx="0.578244" fill="#474F60"/>
<rect x="104.447" y="95.6494" width="1.15649" height="1.15649" rx="0.578244" fill="#474F60"/>
<rect x="109.462" y="95.6494" width="1.15649" height="1.15649" rx="0.578244" fill="#474F60"/>
<rect x="114.477" y="95.6494" width="1.15649" height="1.15649" rx="0.578244" fill="#474F60"/>
<rect x="119.491" y="95.6494" width="1.15649" height="1.15649" rx="0.578244" fill="#474F60"/>
<rect x="124.506" y="95.6494" width="1.15649" height="1.15649" rx="0.578244" fill="#474F60"/>
<rect x="129.521" y="95.6494" width="1.15649" height="1.15649" rx="0.578244" fill="#474F60"/>
<rect x="134.535" y="95.6494" width="1.15649" height="1.15649" rx="0.578244" fill="#474F60"/>
<rect x="139.55" y="95.6494" width="1.15649" height="1.15649" rx="0.578244" fill="#474F60"/>
<rect x="144.565" y="95.6494" width="1.15649" height="1.15649" rx="0.578244" fill="#474F60"/>
<rect x="149.579" y="95.6494" width="1.15649" height="1.15649" rx="0.578244" fill="#474F60"/>
<rect x="154.594" y="95.6494" width="1.15649" height="1.15649" rx="0.578244" fill="#474F60"/>
<rect x="159.609" y="95.6494" width="1.15649" height="1.15649" rx="0.578244" fill="#474F60"/>
<rect x="19.1985" y="100.664" width="1.15649" height="1.15649" rx="0.578244" fill="#474F60"/>
<rect x="24.213" y="100.664" width="1.15649" height="1.15649" rx="0.578244" fill="#474F60"/>
<rect x="29.2277" y="100.664" width="1.15649" height="1.15649" rx="0.578244" fill="#474F60"/>
<rect x="34.2422" y="100.664" width="1.15649" height="1.15649" rx="0.578244" fill="#474F60"/>
<rect x="39.257" y="100.664" width="1.15649" height="1.15649" rx="0.578244" fill="#474F60"/>
<rect x="44.2717" y="100.664" width="1.15649" height="1.15649" rx="0.578244" fill="#474F60"/>
<rect x="49.2864" y="100.664" width="1.15649" height="1.15649" rx="0.578244" fill="#474F60"/>
<rect x="54.3009" y="100.664" width="1.15649" height="1.15649" rx="0.578244" fill="#474F60"/>
<rect x="59.3156" y="100.664" width="1.15649" height="1.15649" rx="0.578244" fill="#474F60"/>
<rect x="64.3301" y="100.664" width="1.15649" height="1.15649" rx="0.578244" fill="#474F60"/>
<rect x="69.3448" y="100.664" width="1.15649" height="1.15649" rx="0.578244" fill="#474F60"/>
<rect x="74.3596" y="100.664" width="1.15649" height="1.15649" rx="0.578244" fill="#474F60"/>
<rect x="79.3743" y="100.664" width="1.15649" height="1.15649" rx="0.578244" fill="#474F60"/>
<rect x="84.3888" y="100.664" width="1.15649" height="1.15649" rx="0.578244" fill="#474F60"/>
<rect x="89.4035" y="100.664" width="1.15649" height="1.15649" rx="0.578244" fill="#474F60"/>
<rect x="94.418" y="100.664" width="1.15649" height="1.15649" rx="0.578244" fill="#474F60"/>
<rect x="99.4327" y="100.664" width="1.15649" height="1.15649" rx="0.578244" fill="#474F60"/>
<rect x="104.447" y="100.664" width="1.15649" height="1.15649" rx="0.578244" fill="#474F60"/>
<rect x="109.462" y="100.664" width="1.15649" height="1.15649" rx="0.578244" fill="#474F60"/>
<rect x="114.477" y="100.664" width="1.15649" height="1.15649" rx="0.578244" fill="#474F60"/>
<rect x="119.491" y="100.664" width="1.15649" height="1.15649" rx="0.578244" fill="#474F60"/>
<rect x="124.506" y="100.664" width="1.15649" height="1.15649" rx="0.578244" fill="#474F60"/>
<rect x="129.521" y="100.664" width="1.15649" height="1.15649" rx="0.578244" fill="#474F60"/>
<rect x="134.535" y="100.664" width="1.15649" height="1.15649" rx="0.578244" fill="#474F60"/>
<rect x="139.55" y="100.664" width="1.15649" height="1.15649" rx="0.578244" fill="#474F60"/>
<rect x="144.565" y="100.664" width="1.15649" height="1.15649" rx="0.578244" fill="#474F60"/>
<rect x="149.579" y="100.664" width="1.15649" height="1.15649" rx="0.578244" fill="#474F60"/>
<rect x="154.594" y="100.664" width="1.15649" height="1.15649" rx="0.578244" fill="#474F60"/>
<rect x="159.609" y="100.664" width="1.15649" height="1.15649" rx="0.578244" fill="#474F60"/>
<rect x="19.1985" y="105.679" width="1.15649" height="1.15649" rx="0.578244" fill="#474F60"/>
<rect x="24.213" y="105.679" width="1.15649" height="1.15649" rx="0.578244" fill="#474F60"/>
<rect x="29.2277" y="105.679" width="1.15649" height="1.15649" rx="0.578244" fill="#474F60"/>
<rect x="34.2422" y="105.679" width="1.15649" height="1.15649" rx="0.578244" fill="#474F60"/>
<rect x="39.257" y="105.679" width="1.15649" height="1.15649" rx="0.578244" fill="#474F60"/>
<rect x="44.2717" y="105.679" width="1.15649" height="1.15649" rx="0.578244" fill="#474F60"/>
<rect x="49.2864" y="105.679" width="1.15649" height="1.15649" rx="0.578244" fill="#474F60"/>
<rect x="54.3009" y="105.679" width="1.15649" height="1.15649" rx="0.578244" fill="#474F60"/>
<rect x="59.3156" y="105.679" width="1.15649" height="1.15649" rx="0.578244" fill="#474F60"/>
<rect x="64.3301" y="105.679" width="1.15649" height="1.15649" rx="0.578244" fill="#474F60"/>
<rect x="69.3448" y="105.679" width="1.15649" height="1.15649" rx="0.578244" fill="#474F60"/>
<rect x="74.3596" y="105.679" width="1.15649" height="1.15649" rx="0.578244" fill="#474F60"/>
<rect x="79.3743" y="105.679" width="1.15649" height="1.15649" rx="0.578244" fill="#474F60"/>
<rect x="84.3888" y="105.679" width="1.15649" height="1.15649" rx="0.578244" fill="#474F60"/>
<rect x="89.4035" y="105.679" width="1.15649" height="1.15649" rx="0.578244" fill="#474F60"/>
<rect x="94.418" y="105.679" width="1.15649" height="1.15649" rx="0.578244" fill="#474F60"/>
<rect x="99.4327" y="105.679" width="1.15649" height="1.15649" rx="0.578244" fill="#474F60"/>
<rect x="104.447" y="105.679" width="1.15649" height="1.15649" rx="0.578244" fill="#474F60"/>
<rect x="109.462" y="105.679" width="1.15649" height="1.15649" rx="0.578244" fill="#474F60"/>
<rect x="114.477" y="105.679" width="1.15649" height="1.15649" rx="0.578244" fill="#474F60"/>
<rect x="119.491" y="105.679" width="1.15649" height="1.15649" rx="0.578244" fill="#474F60"/>
<rect x="124.506" y="105.679" width="1.15649" height="1.15649" rx="0.578244" fill="#474F60"/>
<rect x="129.521" y="105.679" width="1.15649" height="1.15649" rx="0.578244" fill="#474F60"/>
<rect x="134.535" y="105.679" width="1.15649" height="1.15649" rx="0.578244" fill="#474F60"/>
<rect x="139.55" y="105.679" width="1.15649" height="1.15649" rx="0.578244" fill="#474F60"/>
<rect x="144.565" y="105.679" width="1.15649" height="1.15649" rx="0.578244" fill="#474F60"/>
<rect x="149.579" y="105.679" width="1.15649" height="1.15649" rx="0.578244" fill="#474F60"/>
<rect x="154.594" y="105.679" width="1.15649" height="1.15649" rx="0.578244" fill="#474F60"/>
<rect x="159.609" y="105.679" width="1.15649" height="1.15649" rx="0.578244" fill="#474F60"/>
<rect x="19.1985" y="110.693" width="1.15649" height="1.15649" rx="0.578244" fill="#474F60"/>
<rect x="24.213" y="110.693" width="1.15649" height="1.15649" rx="0.578244" fill="#474F60"/>
<rect x="29.2277" y="110.693" width="1.15649" height="1.15649" rx="0.578244" fill="#474F60"/>
<rect x="34.2422" y="110.693" width="1.15649" height="1.15649" rx="0.578244" fill="#474F60"/>
<rect x="39.257" y="110.693" width="1.15649" height="1.15649" rx="0.578244" fill="#474F60"/>
<rect x="44.2717" y="110.693" width="1.15649" height="1.15649" rx="0.578244" fill="#474F60"/>
<rect x="49.2864" y="110.693" width="1.15649" height="1.15649" rx="0.578244" fill="#474F60"/>
<rect x="54.3009" y="110.693" width="1.15649" height="1.15649" rx="0.578244" fill="#474F60"/>
<rect x="59.3156" y="110.693" width="1.15649" height="1.15649" rx="0.578244" fill="#474F60"/>
<rect x="64.3301" y="110.693" width="1.15649" height="1.15649" rx="0.578244" fill="#474F60"/>
<rect x="69.3448" y="110.693" width="1.15649" height="1.15649" rx="0.578244" fill="#474F60"/>
<rect x="74.3596" y="110.693" width="1.15649" height="1.15649" rx="0.578244" fill="#474F60"/>
<rect x="79.3743" y="110.693" width="1.15649" height="1.15649" rx="0.578244" fill="#474F60"/>
<rect x="84.3888" y="110.693" width="1.15649" height="1.15649" rx="0.578244" fill="#474F60"/>
<rect x="89.4035" y="110.693" width="1.15649" height="1.15649" rx="0.578244" fill="#474F60"/>
<rect x="94.418" y="110.693" width="1.15649" height="1.15649" rx="0.578244" fill="#474F60"/>
<rect x="99.4327" y="110.693" width="1.15649" height="1.15649" rx="0.578244" fill="#474F60"/>
<rect x="104.447" y="110.693" width="1.15649" height="1.15649" rx="0.578244" fill="#474F60"/>
<rect x="109.462" y="110.693" width="1.15649" height="1.15649" rx="0.578244" fill="#474F60"/>
<rect x="114.477" y="110.693" width="1.15649" height="1.15649" rx="0.578244" fill="#474F60"/>
<rect x="119.491" y="110.693" width="1.15649" height="1.15649" rx="0.578244" fill="#474F60"/>
<rect x="124.506" y="110.693" width="1.15649" height="1.15649" rx="0.578244" fill="#474F60"/>
<rect x="129.521" y="110.693" width="1.15649" height="1.15649" rx="0.578244" fill="#474F60"/>
<rect x="134.535" y="110.693" width="1.15649" height="1.15649" rx="0.578244" fill="#474F60"/>
<rect x="139.55" y="110.693" width="1.15649" height="1.15649" rx="0.578244" fill="#474F60"/>
<rect x="144.565" y="110.693" width="1.15649" height="1.15649" rx="0.578244" fill="#474F60"/>
<rect x="149.579" y="110.693" width="1.15649" height="1.15649" rx="0.578244" fill="#474F60"/>
<rect x="154.594" y="110.693" width="1.15649" height="1.15649" rx="0.578244" fill="#474F60"/>
<rect x="159.609" y="110.693" width="1.15649" height="1.15649" rx="0.578244" fill="#474F60"/>
<rect x="19.1985" y="115.708" width="1.15649" height="1.15649" rx="0.578244" fill="#474F60"/>
<rect x="24.213" y="115.708" width="1.15649" height="1.15649" rx="0.578244" fill="#474F60"/>
<rect x="29.2277" y="115.708" width="1.15649" height="1.15649" rx="0.578244" fill="#474F60"/>
<rect x="34.2422" y="115.708" width="1.15649" height="1.15649" rx="0.578244" fill="#474F60"/>
<rect x="39.257" y="115.708" width="1.15649" height="1.15649" rx="0.578244" fill="#474F60"/>
<rect x="44.2717" y="115.708" width="1.15649" height="1.15649" rx="0.578244" fill="#474F60"/>
<rect x="49.2864" y="115.708" width="1.15649" height="1.15649" rx="0.578244" fill="#474F60"/>
<rect x="54.3009" y="115.708" width="1.15649" height="1.15649" rx="0.578244" fill="#474F60"/>
<rect x="59.3156" y="115.708" width="1.15649" height="1.15649" rx="0.578244" fill="#474F60"/>
<rect x="64.3301" y="115.708" width="1.15649" height="1.15649" rx="0.578244" fill="#474F60"/>
<rect x="69.3448" y="115.708" width="1.15649" height="1.15649" rx="0.578244" fill="#474F60"/>
<rect x="74.3596" y="115.708" width="1.15649" height="1.15649" rx="0.578244" fill="#474F60"/>
<rect x="79.3743" y="115.708" width="1.15649" height="1.15649" rx="0.578244" fill="#474F60"/>
<rect x="84.3888" y="115.708" width="1.15649" height="1.15649" rx="0.578244" fill="#474F60"/>
<rect x="89.4035" y="115.708" width="1.15649" height="1.15649" rx="0.578244" fill="#474F60"/>
<rect x="94.418" y="115.708" width="1.15649" height="1.15649" rx="0.578244" fill="#474F60"/>
<rect x="99.4327" y="115.708" width="1.15649" height="1.15649" rx="0.578244" fill="#474F60"/>
<rect x="104.447" y="115.708" width="1.15649" height="1.15649" rx="0.578244" fill="#474F60"/>
<rect x="109.462" y="115.708" width="1.15649" height="1.15649" rx="0.578244" fill="#474F60"/>
<rect x="114.477" y="115.708" width="1.15649" height="1.15649" rx="0.578244" fill="#474F60"/>
<rect x="119.491" y="115.708" width="1.15649" height="1.15649" rx="0.578244" fill="#474F60"/>
<rect x="124.506" y="115.708" width="1.15649" height="1.15649" rx="0.578244" fill="#474F60"/>
<rect x="129.521" y="115.708" width="1.15649" height="1.15649" rx="0.578244" fill="#474F60"/>
<rect x="134.535" y="115.708" width="1.15649" height="1.15649" rx="0.578244" fill="#474F60"/>
<rect x="139.55" y="115.708" width="1.15649" height="1.15649" rx="0.578244" fill="#474F60"/>
<rect x="144.565" y="115.708" width="1.15649" height="1.15649" rx="0.578244" fill="#474F60"/>
<rect x="149.579" y="115.708" width="1.15649" height="1.15649" rx="0.578244" fill="#474F60"/>
<rect x="154.594" y="115.708" width="1.15649" height="1.15649" rx="0.578244" fill="#474F60"/>
<rect x="159.609" y="115.708" width="1.15649" height="1.15649" rx="0.578244" fill="#474F60"/>
<rect x="19.1985" y="120.723" width="1.15649" height="1.15649" rx="0.578244" fill="#474F60"/>
<rect x="24.213" y="120.723" width="1.15649" height="1.15649" rx="0.578244" fill="#474F60"/>
<rect x="29.2277" y="120.723" width="1.15649" height="1.15649" rx="0.578244" fill="#474F60"/>
<rect x="34.2422" y="120.723" width="1.15649" height="1.15649" rx="0.578244" fill="#474F60"/>
<rect x="39.257" y="120.723" width="1.15649" height="1.15649" rx="0.578244" fill="#474F60"/>
<rect x="44.2717" y="120.723" width="1.15649" height="1.15649" rx="0.578244" fill="#474F60"/>
<rect x="49.2864" y="120.723" width="1.15649" height="1.15649" rx="0.578244" fill="#474F60"/>
<rect x="54.3009" y="120.723" width="1.15649" height="1.15649" rx="0.578244" fill="#474F60"/>
<rect x="59.3156" y="120.723" width="1.15649" height="1.15649" rx="0.578244" fill="#474F60"/>
<rect x="64.3301" y="120.723" width="1.15649" height="1.15649" rx="0.578244" fill="#474F60"/>
<rect x="69.3448" y="120.723" width="1.15649" height="1.15649" rx="0.578244" fill="#474F60"/>
<rect x="74.3596" y="120.723" width="1.15649" height="1.15649" rx="0.578244" fill="#474F60"/>
<rect x="79.3743" y="120.723" width="1.15649" height="1.15649" rx="0.578244" fill="#474F60"/>
<rect x="84.3888" y="120.723" width="1.15649" height="1.15649" rx="0.578244" fill="#474F60"/>
<rect x="89.4035" y="120.723" width="1.15649" height="1.15649" rx="0.578244" fill="#474F60"/>
<rect x="94.418" y="120.723" width="1.15649" height="1.15649" rx="0.578244" fill="#474F60"/>
<rect x="99.4327" y="120.723" width="1.15649" height="1.15649" rx="0.578244" fill="#474F60"/>
<rect x="104.447" y="120.723" width="1.15649" height="1.15649" rx="0.578244" fill="#474F60"/>
<rect x="109.462" y="120.723" width="1.15649" height="1.15649" rx="0.578244" fill="#474F60"/>
<rect x="114.477" y="120.723" width="1.15649" height="1.15649" rx="0.578244" fill="#474F60"/>
<rect x="119.491" y="120.723" width="1.15649" height="1.15649" rx="0.578244" fill="#474F60"/>
<rect x="124.506" y="120.723" width="1.15649" height="1.15649" rx="0.578244" fill="#474F60"/>
<rect x="129.521" y="120.723" width="1.15649" height="1.15649" rx="0.578244" fill="#474F60"/>
<rect x="134.535" y="120.723" width="1.15649" height="1.15649" rx="0.578244" fill="#474F60"/>
<rect x="139.55" y="120.723" width="1.15649" height="1.15649" rx="0.578244" fill="#474F60"/>
<rect x="144.565" y="120.723" width="1.15649" height="1.15649" rx="0.578244" fill="#474F60"/>
<rect x="149.579" y="120.723" width="1.15649" height="1.15649" rx="0.578244" fill="#474F60"/>
<rect x="154.594" y="120.723" width="1.15649" height="1.15649" rx="0.578244" fill="#474F60"/>
<rect x="159.609" y="120.723" width="1.15649" height="1.15649" rx="0.578244" fill="#474F60"/>
<rect x="19.1985" y="125.737" width="1.15649" height="1.15649" rx="0.578244" fill="#474F60"/>
<rect x="24.213" y="125.737" width="1.15649" height="1.15649" rx="0.578244" fill="#474F60"/>
<rect x="29.2277" y="125.737" width="1.15649" height="1.15649" rx="0.578244" fill="#474F60"/>
<rect x="34.2422" y="125.737" width="1.15649" height="1.15649" rx="0.578244" fill="#474F60"/>
<rect x="39.257" y="125.737" width="1.15649" height="1.15649" rx="0.578244" fill="#474F60"/>
<rect x="44.2717" y="125.737" width="1.15649" height="1.15649" rx="0.578244" fill="#474F60"/>
<rect x="49.2864" y="125.737" width="1.15649" height="1.15649" rx="0.578244" fill="#474F60"/>
<rect x="54.3009" y="125.737" width="1.15649" height="1.15649" rx="0.578244" fill="#474F60"/>
<rect x="59.3156" y="125.737" width="1.15649" height="1.15649" rx="0.578244" fill="#474F60"/>
<rect x="64.3301" y="125.737" width="1.15649" height="1.15649" rx="0.578244" fill="#474F60"/>
<rect x="69.3448" y="125.737" width="1.15649" height="1.15649" rx="0.578244" fill="#474F60"/>
<rect x="74.3596" y="125.737" width="1.15649" height="1.15649" rx="0.578244" fill="#474F60"/>
<rect x="79.3743" y="125.737" width="1.15649" height="1.15649" rx="0.578244" fill="#474F60"/>
<rect x="84.3888" y="125.737" width="1.15649" height="1.15649" rx="0.578244" fill="#474F60"/>
<rect x="89.4035" y="125.737" width="1.15649" height="1.15649" rx="0.578244" fill="#474F60"/>
<rect x="94.418" y="125.737" width="1.15649" height="1.15649" rx="0.578244" fill="#474F60"/>
<rect x="99.4327" y="125.737" width="1.15649" height="1.15649" rx="0.578244" fill="#474F60"/>
<rect x="104.447" y="125.737" width="1.15649" height="1.15649" rx="0.578244" fill="#474F60"/>
<rect x="109.462" y="125.737" width="1.15649" height="1.15649" rx="0.578244" fill="#474F60"/>
<rect x="114.477" y="125.737" width="1.15649" height="1.15649" rx="0.578244" fill="#474F60"/>
<rect x="119.491" y="125.737" width="1.15649" height="1.15649" rx="0.578244" fill="#474F60"/>
<rect x="124.506" y="125.737" width="1.15649" height="1.15649" rx="0.578244" fill="#474F60"/>
<rect x="129.521" y="125.737" width="1.15649" height="1.15649" rx="0.578244" fill="#474F60"/>
<rect x="134.535" y="125.737" width="1.15649" height="1.15649" rx="0.578244" fill="#474F60"/>
<rect x="139.55" y="125.737" width="1.15649" height="1.15649" rx="0.578244" fill="#474F60"/>
<rect x="144.565" y="125.737" width="1.15649" height="1.15649" rx="0.578244" fill="#474F60"/>
<rect x="149.579" y="125.737" width="1.15649" height="1.15649" rx="0.578244" fill="#474F60"/>
<rect x="154.594" y="125.737" width="1.15649" height="1.15649" rx="0.578244" fill="#474F60"/>
<rect x="159.609" y="125.737" width="1.15649" height="1.15649" rx="0.578244" fill="#474F60"/>
<path d="M97.9652 21.9688C93.0897 19.6085 80.8121 17.1518 70.7062 26.2072" stroke="#333A4A" stroke-width="1.15649"/>
<rect x="1.4656" y="14.6504" width="97.145" height="97.145" rx="48.5725" fill="white" stroke="#333A4A" stroke-width="1.54198"/>
<rect x="5.32055" y="10.0244" width="97.145" height="97.145" rx="48.5725" fill="white" stroke="#333A4A" stroke-width="1.54198"/>
<circle cx="71.3103" cy="25.1496" r="5.2042" transform="rotate(-41.862 71.3103 25.1496)" fill="white" stroke="#333A4A" stroke-width="1.15649"/>
<path d="M70.7062 26.2078C75.5817 28.568 87.8593 31.0247 97.9652 21.9693" stroke="#333A4A" stroke-width="1.15649"/>
<path d="M133.524 24.2644C133.896 26.0354 132.762 27.7727 130.991 28.1447L108.777 32.8109C107.879 32.9994 106.944 32.8032 106.198 32.2699L94.6979 24.0498C93.3129 23.0598 92.9168 21.1739 93.7864 19.7103L101.007 7.55809C101.476 6.76969 102.253 6.21369 103.151 6.02517L125.365 1.35896C127.136 0.986945 128.873 2.1211 129.245 3.89215L133.524 24.2644Z" fill="white" stroke="#21A37A" stroke-width="1.15649"/>
<path d="M111.588 19.1295L113.051 18.822L113.283 19.9236L111.819 20.2311L112 21.0912L113.463 20.7838L113.964 23.1681L115.292 22.8892L114.791 20.5048L118.353 19.7568L118.172 18.8967L114.611 19.6447L114.379 18.5431L116.945 18.0042C119.223 17.5256 120.214 16.0886 119.805 14.142C119.396 12.1953 117.917 11.3083 115.639 11.7869L111.745 12.6047L112.807 17.66L111.343 17.9675L111.588 19.1295ZM114.135 17.3811L113.317 13.4877L115.717 12.9838C117.452 12.6193 118.226 13.2287 118.477 14.4209C118.727 15.613 118.27 16.5126 116.535 16.8771L114.135 17.3811Z" fill="#21A37A"/>
<path d="M46.1831 73.1739V44.1045C46.1831 42.2194 48.3906 41.1986 49.8269 42.4195L67.0458 57.0556C68.234 58.0655 68.234 59.8996 67.0458 60.9096L50.3502 75.1009C48.7076 76.4971 46.1831 75.3297 46.1831 73.1739Z" fill="#F58F00"/>
</svg>
