<svg width="171" height="128" viewBox="0 0 171 128" fill="none" xmlns="http://www.w3.org/2000/svg">
<rect x="28.4657" y="0.000976562" width="1.15649" height="1.15649" rx="0.578244" fill="#474F60"/>
<rect x="33.4802" y="0.000488281" width="1.15649" height="1.15649" rx="0.578244" fill="#474F60"/>
<rect x="38.495" y="0.000488281" width="1.15649" height="1.15649" rx="0.578244" fill="#474F60"/>
<rect x="43.5095" y="0.000488281" width="1.15649" height="1.15649" rx="0.578244" fill="#474F60"/>
<rect x="48.5242" y="0.000488281" width="1.15649" height="1.15649" rx="0.578244" fill="#474F60"/>
<rect x="53.5389" y="0.000488281" width="1.15649" height="1.15649" rx="0.578244" fill="#474F60"/>
<rect x="58.5536" y="0.000488281" width="1.15649" height="1.15649" rx="0.578244" fill="#474F60"/>
<rect x="63.5681" y="0.000488281" width="1.15649" height="1.15649" rx="0.578244" fill="#474F60"/>
<rect x="68.5829" y="0.000488281" width="1.15649" height="1.15649" rx="0.578244" fill="#474F60"/>
<rect x="73.5974" y="0.000488281" width="1.15649" height="1.15649" rx="0.578244" fill="#474F60"/>
<rect x="78.6121" y="0.000488281" width="1.15649" height="1.15649" rx="0.578244" fill="#474F60"/>
<rect x="83.6268" y="0.000488281" width="1.15649" height="1.15649" rx="0.578244" fill="#474F60"/>
<rect x="88.6415" y="0.000488281" width="1.15649" height="1.15649" rx="0.578244" fill="#474F60"/>
<rect x="93.656" y="0.000488281" width="1.15649" height="1.15649" rx="0.578244" fill="#474F60"/>
<rect x="98.6708" y="0.000488281" width="1.15649" height="1.15649" rx="0.578244" fill="#474F60"/>
<rect x="103.685" y="0.000488281" width="1.15649" height="1.15649" rx="0.578244" fill="#474F60"/>
<rect x="108.7" y="0.000488281" width="1.15649" height="1.15649" rx="0.578244" fill="#474F60"/>
<rect x="113.715" y="0.000488281" width="1.15649" height="1.15649" rx="0.578244" fill="#474F60"/>
<rect x="118.729" y="0.000488281" width="1.15649" height="1.15649" rx="0.578244" fill="#474F60"/>
<rect x="123.744" y="0.000488281" width="1.15649" height="1.15649" rx="0.578244" fill="#474F60"/>
<rect x="128.759" y="0.000488281" width="1.15649" height="1.15649" rx="0.578244" fill="#474F60"/>
<rect x="133.773" y="0.000488281" width="1.15649" height="1.15649" rx="0.578244" fill="#474F60"/>
<rect x="138.788" y="0.000488281" width="1.15649" height="1.15649" rx="0.578244" fill="#474F60"/>
<rect x="143.803" y="0.000488281" width="1.15649" height="1.15649" rx="0.578244" fill="#474F60"/>
<rect x="148.817" y="0.000488281" width="1.15649" height="1.15649" rx="0.578244" fill="#474F60"/>
<rect x="153.832" y="0.000488281" width="1.15649" height="1.15649" rx="0.578244" fill="#474F60"/>
<rect x="158.846" y="0.000488281" width="1.15649" height="1.15649" rx="0.578244" fill="#474F60"/>
<rect x="163.861" y="0.000488281" width="1.15649" height="1.15649" rx="0.578244" fill="#474F60"/>
<rect x="168.876" y="0.000488281" width="1.15649" height="1.15649" rx="0.578244" fill="#474F60"/>
<rect x="28.4657" y="5.01514" width="1.15649" height="1.15649" rx="0.578244" fill="#474F60"/>
<rect x="33.4802" y="5.01514" width="1.15649" height="1.15649" rx="0.578244" fill="#474F60"/>
<rect x="38.495" y="5.01514" width="1.15649" height="1.15649" rx="0.578244" fill="#474F60"/>
<rect x="43.5095" y="5.01514" width="1.15649" height="1.15649" rx="0.578244" fill="#474F60"/>
<rect x="48.5242" y="5.01514" width="1.15649" height="1.15649" rx="0.578244" fill="#474F60"/>
<rect x="53.5389" y="5.01514" width="1.15649" height="1.15649" rx="0.578244" fill="#474F60"/>
<rect x="58.5536" y="5.01514" width="1.15649" height="1.15649" rx="0.578244" fill="#474F60"/>
<rect x="63.5681" y="5.01514" width="1.15649" height="1.15649" rx="0.578244" fill="#474F60"/>
<rect x="68.5829" y="5.01514" width="1.15649" height="1.15649" rx="0.578244" fill="#474F60"/>
<rect x="73.5974" y="5.01514" width="1.15649" height="1.15649" rx="0.578244" fill="#474F60"/>
<rect x="78.6121" y="5.01514" width="1.15649" height="1.15649" rx="0.578244" fill="#474F60"/>
<rect x="83.6268" y="5.01514" width="1.15649" height="1.15649" rx="0.578244" fill="#474F60"/>
<rect x="88.6415" y="5.01514" width="1.15649" height="1.15649" rx="0.578244" fill="#474F60"/>
<rect x="93.656" y="5.01514" width="1.15649" height="1.15649" rx="0.578244" fill="#474F60"/>
<rect x="98.6708" y="5.01514" width="1.15649" height="1.15649" rx="0.578244" fill="#474F60"/>
<rect x="103.685" y="5.01514" width="1.15649" height="1.15649" rx="0.578244" fill="#474F60"/>
<rect x="108.7" y="5.01514" width="1.15649" height="1.15649" rx="0.578244" fill="#474F60"/>
<rect x="113.715" y="5.01514" width="1.15649" height="1.15649" rx="0.578244" fill="#474F60"/>
<rect x="118.729" y="5.01514" width="1.15649" height="1.15649" rx="0.578244" fill="#474F60"/>
<rect x="123.744" y="5.01514" width="1.15649" height="1.15649" rx="0.578244" fill="#474F60"/>
<rect x="128.759" y="5.01514" width="1.15649" height="1.15649" rx="0.578244" fill="#474F60"/>
<rect x="133.773" y="5.01514" width="1.15649" height="1.15649" rx="0.578244" fill="#474F60"/>
<rect x="138.788" y="5.01514" width="1.15649" height="1.15649" rx="0.578244" fill="#474F60"/>
<rect x="143.803" y="5.01514" width="1.15649" height="1.15649" rx="0.578244" fill="#474F60"/>
<rect x="148.817" y="5.01514" width="1.15649" height="1.15649" rx="0.578244" fill="#474F60"/>
<rect x="153.832" y="5.01514" width="1.15649" height="1.15649" rx="0.578244" fill="#474F60"/>
<rect x="158.846" y="5.01514" width="1.15649" height="1.15649" rx="0.578244" fill="#474F60"/>
<rect x="163.861" y="5.01514" width="1.15649" height="1.15649" rx="0.578244" fill="#474F60"/>
<rect x="168.876" y="5.01514" width="1.15649" height="1.15649" rx="0.578244" fill="#474F60"/>
<rect x="28.4657" y="10.0298" width="1.15649" height="1.15649" rx="0.578244" fill="#474F60"/>
<rect x="33.4802" y="10.0298" width="1.15649" height="1.15649" rx="0.578244" fill="#474F60"/>
<rect x="38.495" y="10.0298" width="1.15649" height="1.15649" rx="0.578244" fill="#474F60"/>
<rect x="43.5095" y="10.0298" width="1.15649" height="1.15649" rx="0.578244" fill="#474F60"/>
<rect x="48.5242" y="10.0298" width="1.15649" height="1.15649" rx="0.578244" fill="#474F60"/>
<rect x="53.5389" y="10.0298" width="1.15649" height="1.15649" rx="0.578244" fill="#474F60"/>
<rect x="58.5536" y="10.0298" width="1.15649" height="1.15649" rx="0.578244" fill="#474F60"/>
<rect x="63.5681" y="10.0298" width="1.15649" height="1.15649" rx="0.578244" fill="#474F60"/>
<rect x="68.5829" y="10.0298" width="1.15649" height="1.15649" rx="0.578244" fill="#474F60"/>
<rect x="73.5974" y="10.0298" width="1.15649" height="1.15649" rx="0.578244" fill="#474F60"/>
<rect x="78.6121" y="10.0298" width="1.15649" height="1.15649" rx="0.578244" fill="#474F60"/>
<rect x="83.6268" y="10.0298" width="1.15649" height="1.15649" rx="0.578244" fill="#474F60"/>
<rect x="88.6415" y="10.0298" width="1.15649" height="1.15649" rx="0.578244" fill="#474F60"/>
<rect x="93.656" y="10.0298" width="1.15649" height="1.15649" rx="0.578244" fill="#474F60"/>
<rect x="98.6708" y="10.0298" width="1.15649" height="1.15649" rx="0.578244" fill="#474F60"/>
<rect x="103.685" y="10.0298" width="1.15649" height="1.15649" rx="0.578244" fill="#474F60"/>
<rect x="108.7" y="10.0298" width="1.15649" height="1.15649" rx="0.578244" fill="#474F60"/>
<rect x="113.715" y="10.0298" width="1.15649" height="1.15649" rx="0.578244" fill="#474F60"/>
<rect x="118.729" y="10.0298" width="1.15649" height="1.15649" rx="0.578244" fill="#474F60"/>
<rect x="123.744" y="10.0298" width="1.15649" height="1.15649" rx="0.578244" fill="#474F60"/>
<rect x="128.759" y="10.0298" width="1.15649" height="1.15649" rx="0.578244" fill="#474F60"/>
<rect x="133.773" y="10.0298" width="1.15649" height="1.15649" rx="0.578244" fill="#474F60"/>
<rect x="138.788" y="10.0298" width="1.15649" height="1.15649" rx="0.578244" fill="#474F60"/>
<rect x="143.803" y="10.0298" width="1.15649" height="1.15649" rx="0.578244" fill="#474F60"/>
<rect x="148.817" y="10.0298" width="1.15649" height="1.15649" rx="0.578244" fill="#474F60"/>
<rect x="153.832" y="10.0298" width="1.15649" height="1.15649" rx="0.578244" fill="#474F60"/>
<rect x="158.846" y="10.0298" width="1.15649" height="1.15649" rx="0.578244" fill="#474F60"/>
<rect x="163.861" y="10.0298" width="1.15649" height="1.15649" rx="0.578244" fill="#474F60"/>
<rect x="168.876" y="10.0298" width="1.15649" height="1.15649" rx="0.578244" fill="#474F60"/>
<rect x="28.4657" y="15.0442" width="1.15649" height="1.15649" rx="0.578244" fill="#474F60"/>
<rect x="33.4802" y="15.0442" width="1.15649" height="1.15649" rx="0.578244" fill="#474F60"/>
<rect x="38.495" y="15.0442" width="1.15649" height="1.15649" rx="0.578244" fill="#474F60"/>
<rect x="43.5095" y="15.0442" width="1.15649" height="1.15649" rx="0.578244" fill="#474F60"/>
<rect x="48.5242" y="15.0442" width="1.15649" height="1.15649" rx="0.578244" fill="#474F60"/>
<rect x="53.5389" y="15.0442" width="1.15649" height="1.15649" rx="0.578244" fill="#474F60"/>
<rect x="58.5536" y="15.0442" width="1.15649" height="1.15649" rx="0.578244" fill="#474F60"/>
<rect x="63.5681" y="15.0442" width="1.15649" height="1.15649" rx="0.578244" fill="#474F60"/>
<rect x="68.5829" y="15.0442" width="1.15649" height="1.15649" rx="0.578244" fill="#474F60"/>
<rect x="73.5974" y="15.0442" width="1.15649" height="1.15649" rx="0.578244" fill="#474F60"/>
<rect x="78.6121" y="15.0442" width="1.15649" height="1.15649" rx="0.578244" fill="#474F60"/>
<rect x="83.6268" y="15.0442" width="1.15649" height="1.15649" rx="0.578244" fill="#474F60"/>
<rect x="88.6415" y="15.0442" width="1.15649" height="1.15649" rx="0.578244" fill="#474F60"/>
<rect x="93.656" y="15.0442" width="1.15649" height="1.15649" rx="0.578244" fill="#474F60"/>
<rect x="98.6708" y="15.0442" width="1.15649" height="1.15649" rx="0.578244" fill="#474F60"/>
<rect x="103.685" y="15.0442" width="1.15649" height="1.15649" rx="0.578244" fill="#474F60"/>
<rect x="108.7" y="15.0442" width="1.15649" height="1.15649" rx="0.578244" fill="#474F60"/>
<rect x="113.715" y="15.0442" width="1.15649" height="1.15649" rx="0.578244" fill="#474F60"/>
<rect x="118.729" y="15.0442" width="1.15649" height="1.15649" rx="0.578244" fill="#474F60"/>
<rect x="123.744" y="15.0442" width="1.15649" height="1.15649" rx="0.578244" fill="#474F60"/>
<rect x="128.759" y="15.0442" width="1.15649" height="1.15649" rx="0.578244" fill="#474F60"/>
<rect x="133.773" y="15.0442" width="1.15649" height="1.15649" rx="0.578244" fill="#474F60"/>
<rect x="138.788" y="15.0442" width="1.15649" height="1.15649" rx="0.578244" fill="#474F60"/>
<rect x="143.803" y="15.0442" width="1.15649" height="1.15649" rx="0.578244" fill="#474F60"/>
<rect x="148.817" y="15.0442" width="1.15649" height="1.15649" rx="0.578244" fill="#474F60"/>
<rect x="153.832" y="15.0442" width="1.15649" height="1.15649" rx="0.578244" fill="#474F60"/>
<rect x="158.846" y="15.0442" width="1.15649" height="1.15649" rx="0.578244" fill="#474F60"/>
<rect x="163.861" y="15.0442" width="1.15649" height="1.15649" rx="0.578244" fill="#474F60"/>
<rect x="168.876" y="15.0442" width="1.15649" height="1.15649" rx="0.578244" fill="#474F60"/>
<rect x="28.4657" y="20.0588" width="1.15649" height="1.15649" rx="0.578244" fill="#474F60"/>
<rect x="33.4802" y="20.0588" width="1.15649" height="1.15649" rx="0.578244" fill="#474F60"/>
<rect x="38.495" y="20.0588" width="1.15649" height="1.15649" rx="0.578244" fill="#474F60"/>
<rect x="43.5095" y="20.0588" width="1.15649" height="1.15649" rx="0.578244" fill="#474F60"/>
<rect x="48.5242" y="20.0588" width="1.15649" height="1.15649" rx="0.578244" fill="#474F60"/>
<rect x="53.5389" y="20.0588" width="1.15649" height="1.15649" rx="0.578244" fill="#474F60"/>
<rect x="58.5536" y="20.0588" width="1.15649" height="1.15649" rx="0.578244" fill="#474F60"/>
<rect x="63.5681" y="20.0588" width="1.15649" height="1.15649" rx="0.578244" fill="#474F60"/>
<rect x="68.5829" y="20.0588" width="1.15649" height="1.15649" rx="0.578244" fill="#474F60"/>
<rect x="73.5974" y="20.0588" width="1.15649" height="1.15649" rx="0.578244" fill="#474F60"/>
<rect x="78.6121" y="20.0588" width="1.15649" height="1.15649" rx="0.578244" fill="#474F60"/>
<rect x="83.6268" y="20.0588" width="1.15649" height="1.15649" rx="0.578244" fill="#474F60"/>
<rect x="88.6415" y="20.0588" width="1.15649" height="1.15649" rx="0.578244" fill="#474F60"/>
<rect x="93.656" y="20.0588" width="1.15649" height="1.15649" rx="0.578244" fill="#474F60"/>
<rect x="98.6708" y="20.0588" width="1.15649" height="1.15649" rx="0.578244" fill="#474F60"/>
<rect x="103.685" y="20.0588" width="1.15649" height="1.15649" rx="0.578244" fill="#474F60"/>
<rect x="108.7" y="20.0588" width="1.15649" height="1.15649" rx="0.578244" fill="#474F60"/>
<rect x="113.715" y="20.0588" width="1.15649" height="1.15649" rx="0.578244" fill="#474F60"/>
<rect x="118.729" y="20.0588" width="1.15649" height="1.15649" rx="0.578244" fill="#474F60"/>
<rect x="123.744" y="20.0588" width="1.15649" height="1.15649" rx="0.578244" fill="#474F60"/>
<rect x="128.759" y="20.0588" width="1.15649" height="1.15649" rx="0.578244" fill="#474F60"/>
<rect x="133.773" y="20.0588" width="1.15649" height="1.15649" rx="0.578244" fill="#474F60"/>
<rect x="138.788" y="20.0588" width="1.15649" height="1.15649" rx="0.578244" fill="#474F60"/>
<rect x="143.803" y="20.0588" width="1.15649" height="1.15649" rx="0.578244" fill="#474F60"/>
<rect x="148.817" y="20.0588" width="1.15649" height="1.15649" rx="0.578244" fill="#474F60"/>
<rect x="153.832" y="20.0588" width="1.15649" height="1.15649" rx="0.578244" fill="#474F60"/>
<rect x="158.846" y="20.0588" width="1.15649" height="1.15649" rx="0.578244" fill="#474F60"/>
<rect x="163.861" y="20.0588" width="1.15649" height="1.15649" rx="0.578244" fill="#474F60"/>
<rect x="168.876" y="20.0588" width="1.15649" height="1.15649" rx="0.578244" fill="#474F60"/>
<rect x="28.4657" y="25.0735" width="1.15649" height="1.15649" rx="0.578244" fill="#474F60"/>
<rect x="33.4802" y="25.0735" width="1.15649" height="1.15649" rx="0.578244" fill="#474F60"/>
<rect x="38.495" y="25.0735" width="1.15649" height="1.15649" rx="0.578244" fill="#474F60"/>
<rect x="43.5095" y="25.0735" width="1.15649" height="1.15649" rx="0.578244" fill="#474F60"/>
<rect x="48.5242" y="25.0735" width="1.15649" height="1.15649" rx="0.578244" fill="#474F60"/>
<rect x="53.5389" y="25.0735" width="1.15649" height="1.15649" rx="0.578244" fill="#474F60"/>
<rect x="58.5536" y="25.0735" width="1.15649" height="1.15649" rx="0.578244" fill="#474F60"/>
<rect x="63.5681" y="25.0735" width="1.15649" height="1.15649" rx="0.578244" fill="#474F60"/>
<rect x="68.5829" y="25.0735" width="1.15649" height="1.15649" rx="0.578244" fill="#474F60"/>
<rect x="73.5974" y="25.0735" width="1.15649" height="1.15649" rx="0.578244" fill="#474F60"/>
<rect x="78.6121" y="25.0735" width="1.15649" height="1.15649" rx="0.578244" fill="#474F60"/>
<rect x="83.6268" y="25.0735" width="1.15649" height="1.15649" rx="0.578244" fill="#474F60"/>
<rect x="88.6415" y="25.0735" width="1.15649" height="1.15649" rx="0.578244" fill="#474F60"/>
<rect x="93.656" y="25.0735" width="1.15649" height="1.15649" rx="0.578244" fill="#474F60"/>
<rect x="98.6708" y="25.0735" width="1.15649" height="1.15649" rx="0.578244" fill="#474F60"/>
<rect x="103.685" y="25.0735" width="1.15649" height="1.15649" rx="0.578244" fill="#474F60"/>
<rect x="108.7" y="25.0735" width="1.15649" height="1.15649" rx="0.578244" fill="#474F60"/>
<rect x="113.715" y="25.0735" width="1.15649" height="1.15649" rx="0.578244" fill="#474F60"/>
<rect x="118.729" y="25.0735" width="1.15649" height="1.15649" rx="0.578244" fill="#474F60"/>
<rect x="123.744" y="25.0735" width="1.15649" height="1.15649" rx="0.578244" fill="#474F60"/>
<rect x="128.759" y="25.0735" width="1.15649" height="1.15649" rx="0.578244" fill="#474F60"/>
<rect x="133.773" y="25.0735" width="1.15649" height="1.15649" rx="0.578244" fill="#474F60"/>
<rect x="138.788" y="25.0735" width="1.15649" height="1.15649" rx="0.578244" fill="#474F60"/>
<rect x="143.803" y="25.0735" width="1.15649" height="1.15649" rx="0.578244" fill="#474F60"/>
<rect x="148.817" y="25.0735" width="1.15649" height="1.15649" rx="0.578244" fill="#474F60"/>
<rect x="153.832" y="25.0735" width="1.15649" height="1.15649" rx="0.578244" fill="#474F60"/>
<rect x="158.846" y="25.0735" width="1.15649" height="1.15649" rx="0.578244" fill="#474F60"/>
<rect x="163.861" y="25.0735" width="1.15649" height="1.15649" rx="0.578244" fill="#474F60"/>
<rect x="168.876" y="25.0735" width="1.15649" height="1.15649" rx="0.578244" fill="#474F60"/>
<rect x="28.4657" y="30.0884" width="1.15649" height="1.15649" rx="0.578244" fill="#474F60"/>
<rect x="33.4802" y="30.0884" width="1.15649" height="1.15649" rx="0.578244" fill="#474F60"/>
<rect x="38.495" y="30.0884" width="1.15649" height="1.15649" rx="0.578244" fill="#474F60"/>
<rect x="43.5095" y="30.0884" width="1.15649" height="1.15649" rx="0.578244" fill="#474F60"/>
<rect x="48.5242" y="30.0884" width="1.15649" height="1.15649" rx="0.578244" fill="#474F60"/>
<rect x="53.5389" y="30.0884" width="1.15649" height="1.15649" rx="0.578244" fill="#474F60"/>
<rect x="58.5536" y="30.0884" width="1.15649" height="1.15649" rx="0.578244" fill="#474F60"/>
<rect x="63.5681" y="30.0884" width="1.15649" height="1.15649" rx="0.578244" fill="#474F60"/>
<rect x="68.5829" y="30.0884" width="1.15649" height="1.15649" rx="0.578244" fill="#474F60"/>
<rect x="73.5974" y="30.0884" width="1.15649" height="1.15649" rx="0.578244" fill="#474F60"/>
<rect x="78.6121" y="30.0884" width="1.15649" height="1.15649" rx="0.578244" fill="#474F60"/>
<rect x="83.6268" y="30.0884" width="1.15649" height="1.15649" rx="0.578244" fill="#474F60"/>
<rect x="88.6415" y="30.0884" width="1.15649" height="1.15649" rx="0.578244" fill="#474F60"/>
<rect x="93.656" y="30.0884" width="1.15649" height="1.15649" rx="0.578244" fill="#474F60"/>
<rect x="98.6708" y="30.0884" width="1.15649" height="1.15649" rx="0.578244" fill="#474F60"/>
<rect x="103.685" y="30.0884" width="1.15649" height="1.15649" rx="0.578244" fill="#474F60"/>
<rect x="108.7" y="30.0884" width="1.15649" height="1.15649" rx="0.578244" fill="#474F60"/>
<rect x="113.715" y="30.0884" width="1.15649" height="1.15649" rx="0.578244" fill="#474F60"/>
<rect x="118.729" y="30.0884" width="1.15649" height="1.15649" rx="0.578244" fill="#474F60"/>
<rect x="123.744" y="30.0884" width="1.15649" height="1.15649" rx="0.578244" fill="#474F60"/>
<rect x="128.759" y="30.0884" width="1.15649" height="1.15649" rx="0.578244" fill="#474F60"/>
<rect x="133.773" y="30.0884" width="1.15649" height="1.15649" rx="0.578244" fill="#474F60"/>
<rect x="138.788" y="30.0884" width="1.15649" height="1.15649" rx="0.578244" fill="#474F60"/>
<rect x="143.803" y="30.0884" width="1.15649" height="1.15649" rx="0.578244" fill="#474F60"/>
<rect x="148.817" y="30.0884" width="1.15649" height="1.15649" rx="0.578244" fill="#474F60"/>
<rect x="153.832" y="30.0884" width="1.15649" height="1.15649" rx="0.578244" fill="#474F60"/>
<rect x="158.846" y="30.0884" width="1.15649" height="1.15649" rx="0.578244" fill="#474F60"/>
<rect x="163.861" y="30.0884" width="1.15649" height="1.15649" rx="0.578244" fill="#474F60"/>
<rect x="168.876" y="30.0884" width="1.15649" height="1.15649" rx="0.578244" fill="#474F60"/>
<rect x="28.4657" y="35.103" width="1.15649" height="1.15649" rx="0.578244" fill="#474F60"/>
<rect x="33.4802" y="35.103" width="1.15649" height="1.15649" rx="0.578244" fill="#474F60"/>
<rect x="38.495" y="35.103" width="1.15649" height="1.15649" rx="0.578244" fill="#474F60"/>
<rect x="43.5095" y="35.103" width="1.15649" height="1.15649" rx="0.578244" fill="#474F60"/>
<rect x="48.5242" y="35.103" width="1.15649" height="1.15649" rx="0.578244" fill="#474F60"/>
<rect x="53.5389" y="35.103" width="1.15649" height="1.15649" rx="0.578244" fill="#474F60"/>
<rect x="58.5536" y="35.103" width="1.15649" height="1.15649" rx="0.578244" fill="#474F60"/>
<rect x="63.5681" y="35.103" width="1.15649" height="1.15649" rx="0.578244" fill="#474F60"/>
<rect x="68.5829" y="35.103" width="1.15649" height="1.15649" rx="0.578244" fill="#474F60"/>
<rect x="73.5974" y="35.103" width="1.15649" height="1.15649" rx="0.578244" fill="#474F60"/>
<rect x="78.6121" y="35.103" width="1.15649" height="1.15649" rx="0.578244" fill="#474F60"/>
<rect x="83.6268" y="35.103" width="1.15649" height="1.15649" rx="0.578244" fill="#474F60"/>
<rect x="88.6415" y="35.103" width="1.15649" height="1.15649" rx="0.578244" fill="#474F60"/>
<rect x="93.656" y="35.103" width="1.15649" height="1.15649" rx="0.578244" fill="#474F60"/>
<rect x="98.6708" y="35.103" width="1.15649" height="1.15649" rx="0.578244" fill="#474F60"/>
<rect x="103.685" y="35.103" width="1.15649" height="1.15649" rx="0.578244" fill="#474F60"/>
<rect x="108.7" y="35.103" width="1.15649" height="1.15649" rx="0.578244" fill="#474F60"/>
<rect x="113.715" y="35.103" width="1.15649" height="1.15649" rx="0.578244" fill="#474F60"/>
<rect x="118.729" y="35.103" width="1.15649" height="1.15649" rx="0.578244" fill="#474F60"/>
<rect x="123.744" y="35.103" width="1.15649" height="1.15649" rx="0.578244" fill="#474F60"/>
<rect x="128.759" y="35.103" width="1.15649" height="1.15649" rx="0.578244" fill="#474F60"/>
<rect x="133.773" y="35.103" width="1.15649" height="1.15649" rx="0.578244" fill="#474F60"/>
<rect x="138.788" y="35.103" width="1.15649" height="1.15649" rx="0.578244" fill="#474F60"/>
<rect x="143.803" y="35.103" width="1.15649" height="1.15649" rx="0.578244" fill="#474F60"/>
<rect x="148.817" y="35.103" width="1.15649" height="1.15649" rx="0.578244" fill="#474F60"/>
<rect x="153.832" y="35.103" width="1.15649" height="1.15649" rx="0.578244" fill="#474F60"/>
<rect x="158.846" y="35.103" width="1.15649" height="1.15649" rx="0.578244" fill="#474F60"/>
<rect x="163.861" y="35.103" width="1.15649" height="1.15649" rx="0.578244" fill="#474F60"/>
<rect x="168.876" y="35.103" width="1.15649" height="1.15649" rx="0.578244" fill="#474F60"/>
<rect x="28.4657" y="40.1177" width="1.15649" height="1.15649" rx="0.578244" fill="#474F60"/>
<rect x="33.4802" y="40.1177" width="1.15649" height="1.15649" rx="0.578244" fill="#474F60"/>
<rect x="38.495" y="40.1177" width="1.15649" height="1.15649" rx="0.578244" fill="#474F60"/>
<rect x="43.5095" y="40.1177" width="1.15649" height="1.15649" rx="0.578244" fill="#474F60"/>
<rect x="48.5242" y="40.1177" width="1.15649" height="1.15649" rx="0.578244" fill="#474F60"/>
<rect x="53.5389" y="40.1177" width="1.15649" height="1.15649" rx="0.578244" fill="#474F60"/>
<rect x="58.5536" y="40.1177" width="1.15649" height="1.15649" rx="0.578244" fill="#474F60"/>
<rect x="63.5681" y="40.1177" width="1.15649" height="1.15649" rx="0.578244" fill="#474F60"/>
<rect x="68.5829" y="40.1177" width="1.15649" height="1.15649" rx="0.578244" fill="#474F60"/>
<rect x="73.5974" y="40.1177" width="1.15649" height="1.15649" rx="0.578244" fill="#474F60"/>
<rect x="78.6121" y="40.1177" width="1.15649" height="1.15649" rx="0.578244" fill="#474F60"/>
<rect x="83.6268" y="40.1177" width="1.15649" height="1.15649" rx="0.578244" fill="#474F60"/>
<rect x="88.6415" y="40.1177" width="1.15649" height="1.15649" rx="0.578244" fill="#474F60"/>
<rect x="93.656" y="40.1177" width="1.15649" height="1.15649" rx="0.578244" fill="#474F60"/>
<rect x="98.6708" y="40.1177" width="1.15649" height="1.15649" rx="0.578244" fill="#474F60"/>
<rect x="103.685" y="40.1177" width="1.15649" height="1.15649" rx="0.578244" fill="#474F60"/>
<rect x="108.7" y="40.1177" width="1.15649" height="1.15649" rx="0.578244" fill="#474F60"/>
<rect x="113.715" y="40.1177" width="1.15649" height="1.15649" rx="0.578244" fill="#474F60"/>
<rect x="118.729" y="40.1177" width="1.15649" height="1.15649" rx="0.578244" fill="#474F60"/>
<rect x="123.744" y="40.1177" width="1.15649" height="1.15649" rx="0.578244" fill="#474F60"/>
<rect x="128.759" y="40.1177" width="1.15649" height="1.15649" rx="0.578244" fill="#474F60"/>
<rect x="133.773" y="40.1177" width="1.15649" height="1.15649" rx="0.578244" fill="#474F60"/>
<rect x="138.788" y="40.1177" width="1.15649" height="1.15649" rx="0.578244" fill="#474F60"/>
<rect x="143.803" y="40.1177" width="1.15649" height="1.15649" rx="0.578244" fill="#474F60"/>
<rect x="148.817" y="40.1177" width="1.15649" height="1.15649" rx="0.578244" fill="#474F60"/>
<rect x="153.832" y="40.1177" width="1.15649" height="1.15649" rx="0.578244" fill="#474F60"/>
<rect x="158.846" y="40.1177" width="1.15649" height="1.15649" rx="0.578244" fill="#474F60"/>
<rect x="163.861" y="40.1177" width="1.15649" height="1.15649" rx="0.578244" fill="#474F60"/>
<rect x="168.876" y="40.1177" width="1.15649" height="1.15649" rx="0.578244" fill="#474F60"/>
<rect x="28.4657" y="45.1321" width="1.15649" height="1.15649" rx="0.578244" fill="#474F60"/>
<rect x="33.4802" y="45.1321" width="1.15649" height="1.15649" rx="0.578244" fill="#474F60"/>
<rect x="38.495" y="45.1321" width="1.15649" height="1.15649" rx="0.578244" fill="#474F60"/>
<rect x="43.5095" y="45.1321" width="1.15649" height="1.15649" rx="0.578244" fill="#474F60"/>
<rect x="48.5242" y="45.1321" width="1.15649" height="1.15649" rx="0.578244" fill="#474F60"/>
<rect x="53.5389" y="45.1321" width="1.15649" height="1.15649" rx="0.578244" fill="#474F60"/>
<rect x="58.5536" y="45.1321" width="1.15649" height="1.15649" rx="0.578244" fill="#474F60"/>
<rect x="63.5681" y="45.1321" width="1.15649" height="1.15649" rx="0.578244" fill="#474F60"/>
<rect x="68.5829" y="45.1321" width="1.15649" height="1.15649" rx="0.578244" fill="#474F60"/>
<rect x="73.5974" y="45.1321" width="1.15649" height="1.15649" rx="0.578244" fill="#474F60"/>
<rect x="78.6121" y="45.1321" width="1.15649" height="1.15649" rx="0.578244" fill="#474F60"/>
<rect x="83.6268" y="45.1321" width="1.15649" height="1.15649" rx="0.578244" fill="#474F60"/>
<rect x="88.6415" y="45.1321" width="1.15649" height="1.15649" rx="0.578244" fill="#474F60"/>
<rect x="93.656" y="45.1321" width="1.15649" height="1.15649" rx="0.578244" fill="#474F60"/>
<rect x="98.6708" y="45.1321" width="1.15649" height="1.15649" rx="0.578244" fill="#474F60"/>
<rect x="103.685" y="45.1321" width="1.15649" height="1.15649" rx="0.578244" fill="#474F60"/>
<rect x="108.7" y="45.1321" width="1.15649" height="1.15649" rx="0.578244" fill="#474F60"/>
<rect x="113.715" y="45.1321" width="1.15649" height="1.15649" rx="0.578244" fill="#474F60"/>
<rect x="118.729" y="45.1321" width="1.15649" height="1.15649" rx="0.578244" fill="#474F60"/>
<rect x="123.744" y="45.1321" width="1.15649" height="1.15649" rx="0.578244" fill="#474F60"/>
<rect x="128.759" y="45.1321" width="1.15649" height="1.15649" rx="0.578244" fill="#474F60"/>
<rect x="133.773" y="45.1321" width="1.15649" height="1.15649" rx="0.578244" fill="#474F60"/>
<rect x="138.788" y="45.1321" width="1.15649" height="1.15649" rx="0.578244" fill="#474F60"/>
<rect x="143.803" y="45.1321" width="1.15649" height="1.15649" rx="0.578244" fill="#474F60"/>
<rect x="148.817" y="45.1321" width="1.15649" height="1.15649" rx="0.578244" fill="#474F60"/>
<rect x="153.832" y="45.1321" width="1.15649" height="1.15649" rx="0.578244" fill="#474F60"/>
<rect x="158.846" y="45.1321" width="1.15649" height="1.15649" rx="0.578244" fill="#474F60"/>
<rect x="163.861" y="45.1321" width="1.15649" height="1.15649" rx="0.578244" fill="#474F60"/>
<rect x="168.876" y="45.1321" width="1.15649" height="1.15649" rx="0.578244" fill="#474F60"/>
<rect x="28.4657" y="50.1467" width="1.15649" height="1.15649" rx="0.578244" fill="#474F60"/>
<rect x="33.4802" y="50.1467" width="1.15649" height="1.15649" rx="0.578244" fill="#474F60"/>
<rect x="38.495" y="50.1467" width="1.15649" height="1.15649" rx="0.578244" fill="#474F60"/>
<rect x="43.5095" y="50.1467" width="1.15649" height="1.15649" rx="0.578244" fill="#474F60"/>
<rect x="48.5242" y="50.1467" width="1.15649" height="1.15649" rx="0.578244" fill="#474F60"/>
<rect x="53.5389" y="50.1467" width="1.15649" height="1.15649" rx="0.578244" fill="#474F60"/>
<rect x="58.5536" y="50.1467" width="1.15649" height="1.15649" rx="0.578244" fill="#474F60"/>
<rect x="63.5681" y="50.1467" width="1.15649" height="1.15649" rx="0.578244" fill="#474F60"/>
<rect x="68.5829" y="50.1467" width="1.15649" height="1.15649" rx="0.578244" fill="#474F60"/>
<rect x="73.5974" y="50.1467" width="1.15649" height="1.15649" rx="0.578244" fill="#474F60"/>
<rect x="78.6121" y="50.1467" width="1.15649" height="1.15649" rx="0.578244" fill="#474F60"/>
<rect x="83.6268" y="50.1467" width="1.15649" height="1.15649" rx="0.578244" fill="#474F60"/>
<rect x="88.6415" y="50.1467" width="1.15649" height="1.15649" rx="0.578244" fill="#474F60"/>
<rect x="93.656" y="50.1467" width="1.15649" height="1.15649" rx="0.578244" fill="#474F60"/>
<rect x="98.6708" y="50.1467" width="1.15649" height="1.15649" rx="0.578244" fill="#474F60"/>
<rect x="103.685" y="50.1467" width="1.15649" height="1.15649" rx="0.578244" fill="#474F60"/>
<rect x="108.7" y="50.1467" width="1.15649" height="1.15649" rx="0.578244" fill="#474F60"/>
<rect x="113.715" y="50.1467" width="1.15649" height="1.15649" rx="0.578244" fill="#474F60"/>
<rect x="118.729" y="50.1467" width="1.15649" height="1.15649" rx="0.578244" fill="#474F60"/>
<rect x="123.744" y="50.1467" width="1.15649" height="1.15649" rx="0.578244" fill="#474F60"/>
<rect x="128.759" y="50.1467" width="1.15649" height="1.15649" rx="0.578244" fill="#474F60"/>
<rect x="133.773" y="50.1467" width="1.15649" height="1.15649" rx="0.578244" fill="#474F60"/>
<rect x="138.788" y="50.1467" width="1.15649" height="1.15649" rx="0.578244" fill="#474F60"/>
<rect x="143.803" y="50.1467" width="1.15649" height="1.15649" rx="0.578244" fill="#474F60"/>
<rect x="148.817" y="50.1467" width="1.15649" height="1.15649" rx="0.578244" fill="#474F60"/>
<rect x="153.832" y="50.1467" width="1.15649" height="1.15649" rx="0.578244" fill="#474F60"/>
<rect x="158.846" y="50.1467" width="1.15649" height="1.15649" rx="0.578244" fill="#474F60"/>
<rect x="163.861" y="50.1467" width="1.15649" height="1.15649" rx="0.578244" fill="#474F60"/>
<rect x="168.876" y="50.1467" width="1.15649" height="1.15649" rx="0.578244" fill="#474F60"/>
<rect x="28.4657" y="55.1614" width="1.15649" height="1.15649" rx="0.578244" fill="#474F60"/>
<rect x="33.4802" y="55.1614" width="1.15649" height="1.15649" rx="0.578244" fill="#474F60"/>
<rect x="38.495" y="55.1614" width="1.15649" height="1.15649" rx="0.578244" fill="#474F60"/>
<rect x="43.5095" y="55.1614" width="1.15649" height="1.15649" rx="0.578244" fill="#474F60"/>
<rect x="48.5242" y="55.1614" width="1.15649" height="1.15649" rx="0.578244" fill="#474F60"/>
<rect x="53.5389" y="55.1614" width="1.15649" height="1.15649" rx="0.578244" fill="#474F60"/>
<rect x="58.5536" y="55.1614" width="1.15649" height="1.15649" rx="0.578244" fill="#474F60"/>
<rect x="63.5681" y="55.1614" width="1.15649" height="1.15649" rx="0.578244" fill="#474F60"/>
<rect x="68.5829" y="55.1614" width="1.15649" height="1.15649" rx="0.578244" fill="#474F60"/>
<rect x="73.5974" y="55.1614" width="1.15649" height="1.15649" rx="0.578244" fill="#474F60"/>
<rect x="78.6121" y="55.1614" width="1.15649" height="1.15649" rx="0.578244" fill="#474F60"/>
<rect x="83.6268" y="55.1614" width="1.15649" height="1.15649" rx="0.578244" fill="#474F60"/>
<rect x="88.6415" y="55.1614" width="1.15649" height="1.15649" rx="0.578244" fill="#474F60"/>
<rect x="93.656" y="55.1614" width="1.15649" height="1.15649" rx="0.578244" fill="#474F60"/>
<rect x="98.6708" y="55.1614" width="1.15649" height="1.15649" rx="0.578244" fill="#474F60"/>
<rect x="103.685" y="55.1614" width="1.15649" height="1.15649" rx="0.578244" fill="#474F60"/>
<rect x="108.7" y="55.1614" width="1.15649" height="1.15649" rx="0.578244" fill="#474F60"/>
<rect x="113.715" y="55.1614" width="1.15649" height="1.15649" rx="0.578244" fill="#474F60"/>
<rect x="118.729" y="55.1614" width="1.15649" height="1.15649" rx="0.578244" fill="#474F60"/>
<rect x="123.744" y="55.1614" width="1.15649" height="1.15649" rx="0.578244" fill="#474F60"/>
<rect x="128.759" y="55.1614" width="1.15649" height="1.15649" rx="0.578244" fill="#474F60"/>
<rect x="133.773" y="55.1614" width="1.15649" height="1.15649" rx="0.578244" fill="#474F60"/>
<rect x="138.788" y="55.1614" width="1.15649" height="1.15649" rx="0.578244" fill="#474F60"/>
<rect x="143.803" y="55.1614" width="1.15649" height="1.15649" rx="0.578244" fill="#474F60"/>
<rect x="148.817" y="55.1614" width="1.15649" height="1.15649" rx="0.578244" fill="#474F60"/>
<rect x="153.832" y="55.1614" width="1.15649" height="1.15649" rx="0.578244" fill="#474F60"/>
<rect x="158.846" y="55.1614" width="1.15649" height="1.15649" rx="0.578244" fill="#474F60"/>
<rect x="163.861" y="55.1614" width="1.15649" height="1.15649" rx="0.578244" fill="#474F60"/>
<rect x="168.876" y="55.1614" width="1.15649" height="1.15649" rx="0.578244" fill="#474F60"/>
<rect x="28.4657" y="60.1763" width="1.15649" height="1.15649" rx="0.578244" fill="#474F60"/>
<rect x="33.4802" y="60.1763" width="1.15649" height="1.15649" rx="0.578244" fill="#474F60"/>
<rect x="38.495" y="60.1763" width="1.15649" height="1.15649" rx="0.578244" fill="#474F60"/>
<rect x="43.5095" y="60.1763" width="1.15649" height="1.15649" rx="0.578244" fill="#474F60"/>
<rect x="48.5242" y="60.1763" width="1.15649" height="1.15649" rx="0.578244" fill="#474F60"/>
<rect x="53.5389" y="60.1763" width="1.15649" height="1.15649" rx="0.578244" fill="#474F60"/>
<rect x="58.5536" y="60.1763" width="1.15649" height="1.15649" rx="0.578244" fill="#474F60"/>
<rect x="63.5681" y="60.1763" width="1.15649" height="1.15649" rx="0.578244" fill="#474F60"/>
<rect x="68.5829" y="60.1763" width="1.15649" height="1.15649" rx="0.578244" fill="#474F60"/>
<rect x="73.5974" y="60.1763" width="1.15649" height="1.15649" rx="0.578244" fill="#474F60"/>
<rect x="78.6121" y="60.1763" width="1.15649" height="1.15649" rx="0.578244" fill="#474F60"/>
<rect x="83.6268" y="60.1763" width="1.15649" height="1.15649" rx="0.578244" fill="#474F60"/>
<rect x="88.6415" y="60.1763" width="1.15649" height="1.15649" rx="0.578244" fill="#474F60"/>
<rect x="93.656" y="60.1763" width="1.15649" height="1.15649" rx="0.578244" fill="#474F60"/>
<rect x="98.6708" y="60.1763" width="1.15649" height="1.15649" rx="0.578244" fill="#474F60"/>
<rect x="103.685" y="60.1763" width="1.15649" height="1.15649" rx="0.578244" fill="#474F60"/>
<rect x="108.7" y="60.1763" width="1.15649" height="1.15649" rx="0.578244" fill="#474F60"/>
<rect x="113.715" y="60.1763" width="1.15649" height="1.15649" rx="0.578244" fill="#474F60"/>
<rect x="118.729" y="60.1763" width="1.15649" height="1.15649" rx="0.578244" fill="#474F60"/>
<rect x="123.744" y="60.1763" width="1.15649" height="1.15649" rx="0.578244" fill="#474F60"/>
<rect x="128.759" y="60.1763" width="1.15649" height="1.15649" rx="0.578244" fill="#474F60"/>
<rect x="133.773" y="60.1763" width="1.15649" height="1.15649" rx="0.578244" fill="#474F60"/>
<rect x="138.788" y="60.1763" width="1.15649" height="1.15649" rx="0.578244" fill="#474F60"/>
<rect x="143.803" y="60.1763" width="1.15649" height="1.15649" rx="0.578244" fill="#474F60"/>
<rect x="148.817" y="60.1763" width="1.15649" height="1.15649" rx="0.578244" fill="#474F60"/>
<rect x="153.832" y="60.1763" width="1.15649" height="1.15649" rx="0.578244" fill="#474F60"/>
<rect x="158.846" y="60.1763" width="1.15649" height="1.15649" rx="0.578244" fill="#474F60"/>
<rect x="163.861" y="60.1763" width="1.15649" height="1.15649" rx="0.578244" fill="#474F60"/>
<rect x="168.876" y="60.1763" width="1.15649" height="1.15649" rx="0.578244" fill="#474F60"/>
<rect x="28.4657" y="65.1909" width="1.15649" height="1.15649" rx="0.578244" fill="#474F60"/>
<rect x="33.4802" y="65.1909" width="1.15649" height="1.15649" rx="0.578244" fill="#474F60"/>
<rect x="38.495" y="65.1909" width="1.15649" height="1.15649" rx="0.578244" fill="#474F60"/>
<rect x="43.5095" y="65.1909" width="1.15649" height="1.15649" rx="0.578244" fill="#474F60"/>
<rect x="48.5242" y="65.1909" width="1.15649" height="1.15649" rx="0.578244" fill="#474F60"/>
<rect x="53.5389" y="65.1909" width="1.15649" height="1.15649" rx="0.578244" fill="#474F60"/>
<rect x="58.5536" y="65.1909" width="1.15649" height="1.15649" rx="0.578244" fill="#474F60"/>
<rect x="63.5681" y="65.1909" width="1.15649" height="1.15649" rx="0.578244" fill="#474F60"/>
<rect x="68.5829" y="65.1909" width="1.15649" height="1.15649" rx="0.578244" fill="#474F60"/>
<rect x="73.5974" y="65.1909" width="1.15649" height="1.15649" rx="0.578244" fill="#474F60"/>
<rect x="78.6121" y="65.1909" width="1.15649" height="1.15649" rx="0.578244" fill="#474F60"/>
<rect x="83.6268" y="65.1909" width="1.15649" height="1.15649" rx="0.578244" fill="#474F60"/>
<rect x="88.6415" y="65.1909" width="1.15649" height="1.15649" rx="0.578244" fill="#474F60"/>
<rect x="93.656" y="65.1909" width="1.15649" height="1.15649" rx="0.578244" fill="#474F60"/>
<rect x="98.6708" y="65.1909" width="1.15649" height="1.15649" rx="0.578244" fill="#474F60"/>
<rect x="103.685" y="65.1909" width="1.15649" height="1.15649" rx="0.578244" fill="#474F60"/>
<rect x="108.7" y="65.1909" width="1.15649" height="1.15649" rx="0.578244" fill="#474F60"/>
<rect x="113.715" y="65.1909" width="1.15649" height="1.15649" rx="0.578244" fill="#474F60"/>
<rect x="118.729" y="65.1909" width="1.15649" height="1.15649" rx="0.578244" fill="#474F60"/>
<rect x="123.744" y="65.1909" width="1.15649" height="1.15649" rx="0.578244" fill="#474F60"/>
<rect x="128.759" y="65.1909" width="1.15649" height="1.15649" rx="0.578244" fill="#474F60"/>
<rect x="133.773" y="65.1909" width="1.15649" height="1.15649" rx="0.578244" fill="#474F60"/>
<rect x="138.788" y="65.1909" width="1.15649" height="1.15649" rx="0.578244" fill="#474F60"/>
<rect x="143.803" y="65.1909" width="1.15649" height="1.15649" rx="0.578244" fill="#474F60"/>
<rect x="148.817" y="65.1909" width="1.15649" height="1.15649" rx="0.578244" fill="#474F60"/>
<rect x="153.832" y="65.1909" width="1.15649" height="1.15649" rx="0.578244" fill="#474F60"/>
<rect x="158.846" y="65.1909" width="1.15649" height="1.15649" rx="0.578244" fill="#474F60"/>
<rect x="163.861" y="65.1909" width="1.15649" height="1.15649" rx="0.578244" fill="#474F60"/>
<rect x="168.876" y="65.1909" width="1.15649" height="1.15649" rx="0.578244" fill="#474F60"/>
<rect x="28.4657" y="70.2056" width="1.15649" height="1.15649" rx="0.578244" fill="#474F60"/>
<rect x="33.4802" y="70.2056" width="1.15649" height="1.15649" rx="0.578244" fill="#474F60"/>
<rect x="38.495" y="70.2056" width="1.15649" height="1.15649" rx="0.578244" fill="#474F60"/>
<rect x="43.5095" y="70.2056" width="1.15649" height="1.15649" rx="0.578244" fill="#474F60"/>
<rect x="48.5242" y="70.2056" width="1.15649" height="1.15649" rx="0.578244" fill="#474F60"/>
<rect x="53.5389" y="70.2056" width="1.15649" height="1.15649" rx="0.578244" fill="#474F60"/>
<rect x="58.5536" y="70.2056" width="1.15649" height="1.15649" rx="0.578244" fill="#474F60"/>
<rect x="63.5681" y="70.2056" width="1.15649" height="1.15649" rx="0.578244" fill="#474F60"/>
<rect x="68.5829" y="70.2056" width="1.15649" height="1.15649" rx="0.578244" fill="#474F60"/>
<rect x="73.5974" y="70.2056" width="1.15649" height="1.15649" rx="0.578244" fill="#474F60"/>
<rect x="78.6121" y="70.2056" width="1.15649" height="1.15649" rx="0.578244" fill="#474F60"/>
<rect x="83.6268" y="70.2056" width="1.15649" height="1.15649" rx="0.578244" fill="#474F60"/>
<rect x="88.6415" y="70.2056" width="1.15649" height="1.15649" rx="0.578244" fill="#474F60"/>
<rect x="93.656" y="70.2056" width="1.15649" height="1.15649" rx="0.578244" fill="#474F60"/>
<rect x="98.6708" y="70.2056" width="1.15649" height="1.15649" rx="0.578244" fill="#474F60"/>
<rect x="103.685" y="70.2056" width="1.15649" height="1.15649" rx="0.578244" fill="#474F60"/>
<rect x="108.7" y="70.2056" width="1.15649" height="1.15649" rx="0.578244" fill="#474F60"/>
<rect x="113.715" y="70.2056" width="1.15649" height="1.15649" rx="0.578244" fill="#474F60"/>
<rect x="118.729" y="70.2056" width="1.15649" height="1.15649" rx="0.578244" fill="#474F60"/>
<rect x="123.744" y="70.2056" width="1.15649" height="1.15649" rx="0.578244" fill="#474F60"/>
<rect x="128.759" y="70.2056" width="1.15649" height="1.15649" rx="0.578244" fill="#474F60"/>
<rect x="133.773" y="70.2056" width="1.15649" height="1.15649" rx="0.578244" fill="#474F60"/>
<rect x="138.788" y="70.2056" width="1.15649" height="1.15649" rx="0.578244" fill="#474F60"/>
<rect x="143.803" y="70.2056" width="1.15649" height="1.15649" rx="0.578244" fill="#474F60"/>
<rect x="148.817" y="70.2056" width="1.15649" height="1.15649" rx="0.578244" fill="#474F60"/>
<rect x="153.832" y="70.2056" width="1.15649" height="1.15649" rx="0.578244" fill="#474F60"/>
<rect x="158.846" y="70.2056" width="1.15649" height="1.15649" rx="0.578244" fill="#474F60"/>
<rect x="163.861" y="70.2056" width="1.15649" height="1.15649" rx="0.578244" fill="#474F60"/>
<rect x="168.876" y="70.2056" width="1.15649" height="1.15649" rx="0.578244" fill="#474F60"/>
<rect x="28.4657" y="75.22" width="1.15649" height="1.15649" rx="0.578244" fill="#474F60"/>
<rect x="33.4802" y="75.22" width="1.15649" height="1.15649" rx="0.578244" fill="#474F60"/>
<rect x="38.495" y="75.22" width="1.15649" height="1.15649" rx="0.578244" fill="#474F60"/>
<rect x="43.5095" y="75.22" width="1.15649" height="1.15649" rx="0.578244" fill="#474F60"/>
<rect x="48.5242" y="75.22" width="1.15649" height="1.15649" rx="0.578244" fill="#474F60"/>
<rect x="53.5389" y="75.22" width="1.15649" height="1.15649" rx="0.578244" fill="#474F60"/>
<rect x="58.5536" y="75.22" width="1.15649" height="1.15649" rx="0.578244" fill="#474F60"/>
<rect x="63.5681" y="75.22" width="1.15649" height="1.15649" rx="0.578244" fill="#474F60"/>
<rect x="68.5829" y="75.22" width="1.15649" height="1.15649" rx="0.578244" fill="#474F60"/>
<rect x="73.5974" y="75.22" width="1.15649" height="1.15649" rx="0.578244" fill="#474F60"/>
<rect x="78.6121" y="75.22" width="1.15649" height="1.15649" rx="0.578244" fill="#474F60"/>
<rect x="83.6268" y="75.22" width="1.15649" height="1.15649" rx="0.578244" fill="#474F60"/>
<rect x="88.6415" y="75.22" width="1.15649" height="1.15649" rx="0.578244" fill="#474F60"/>
<rect x="93.656" y="75.22" width="1.15649" height="1.15649" rx="0.578244" fill="#474F60"/>
<rect x="98.6708" y="75.22" width="1.15649" height="1.15649" rx="0.578244" fill="#474F60"/>
<rect x="103.685" y="75.22" width="1.15649" height="1.15649" rx="0.578244" fill="#474F60"/>
<rect x="108.7" y="75.22" width="1.15649" height="1.15649" rx="0.578244" fill="#474F60"/>
<rect x="113.715" y="75.22" width="1.15649" height="1.15649" rx="0.578244" fill="#474F60"/>
<rect x="118.729" y="75.22" width="1.15649" height="1.15649" rx="0.578244" fill="#474F60"/>
<rect x="123.744" y="75.22" width="1.15649" height="1.15649" rx="0.578244" fill="#474F60"/>
<rect x="128.759" y="75.22" width="1.15649" height="1.15649" rx="0.578244" fill="#474F60"/>
<rect x="133.773" y="75.22" width="1.15649" height="1.15649" rx="0.578244" fill="#474F60"/>
<rect x="138.788" y="75.22" width="1.15649" height="1.15649" rx="0.578244" fill="#474F60"/>
<rect x="143.803" y="75.22" width="1.15649" height="1.15649" rx="0.578244" fill="#474F60"/>
<rect x="148.817" y="75.22" width="1.15649" height="1.15649" rx="0.578244" fill="#474F60"/>
<rect x="153.832" y="75.22" width="1.15649" height="1.15649" rx="0.578244" fill="#474F60"/>
<rect x="158.846" y="75.22" width="1.15649" height="1.15649" rx="0.578244" fill="#474F60"/>
<rect x="163.861" y="75.22" width="1.15649" height="1.15649" rx="0.578244" fill="#474F60"/>
<rect x="168.876" y="75.22" width="1.15649" height="1.15649" rx="0.578244" fill="#474F60"/>
<rect x="28.4657" y="80.2349" width="1.15649" height="1.15649" rx="0.578244" fill="#474F60"/>
<rect x="33.4802" y="80.2349" width="1.15649" height="1.15649" rx="0.578244" fill="#474F60"/>
<rect x="38.495" y="80.2349" width="1.15649" height="1.15649" rx="0.578244" fill="#474F60"/>
<rect x="43.5095" y="80.2349" width="1.15649" height="1.15649" rx="0.578244" fill="#474F60"/>
<rect x="48.5242" y="80.2349" width="1.15649" height="1.15649" rx="0.578244" fill="#474F60"/>
<rect x="53.5389" y="80.2349" width="1.15649" height="1.15649" rx="0.578244" fill="#474F60"/>
<rect x="58.5536" y="80.2349" width="1.15649" height="1.15649" rx="0.578244" fill="#474F60"/>
<rect x="63.5681" y="80.2349" width="1.15649" height="1.15649" rx="0.578244" fill="#474F60"/>
<rect x="68.5829" y="80.2349" width="1.15649" height="1.15649" rx="0.578244" fill="#474F60"/>
<rect x="73.5974" y="80.2349" width="1.15649" height="1.15649" rx="0.578244" fill="#474F60"/>
<rect x="78.6121" y="80.2349" width="1.15649" height="1.15649" rx="0.578244" fill="#474F60"/>
<rect x="83.6268" y="80.2349" width="1.15649" height="1.15649" rx="0.578244" fill="#474F60"/>
<rect x="88.6415" y="80.2349" width="1.15649" height="1.15649" rx="0.578244" fill="#474F60"/>
<rect x="93.656" y="80.2349" width="1.15649" height="1.15649" rx="0.578244" fill="#474F60"/>
<rect x="98.6708" y="80.2349" width="1.15649" height="1.15649" rx="0.578244" fill="#474F60"/>
<rect x="103.685" y="80.2349" width="1.15649" height="1.15649" rx="0.578244" fill="#474F60"/>
<rect x="108.7" y="80.2349" width="1.15649" height="1.15649" rx="0.578244" fill="#474F60"/>
<rect x="113.715" y="80.2349" width="1.15649" height="1.15649" rx="0.578244" fill="#474F60"/>
<rect x="118.729" y="80.2349" width="1.15649" height="1.15649" rx="0.578244" fill="#474F60"/>
<rect x="123.744" y="80.2349" width="1.15649" height="1.15649" rx="0.578244" fill="#474F60"/>
<rect x="128.759" y="80.2349" width="1.15649" height="1.15649" rx="0.578244" fill="#474F60"/>
<rect x="133.773" y="80.2349" width="1.15649" height="1.15649" rx="0.578244" fill="#474F60"/>
<rect x="138.788" y="80.2349" width="1.15649" height="1.15649" rx="0.578244" fill="#474F60"/>
<rect x="143.803" y="80.2349" width="1.15649" height="1.15649" rx="0.578244" fill="#474F60"/>
<rect x="148.817" y="80.2349" width="1.15649" height="1.15649" rx="0.578244" fill="#474F60"/>
<rect x="153.832" y="80.2349" width="1.15649" height="1.15649" rx="0.578244" fill="#474F60"/>
<rect x="158.846" y="80.2349" width="1.15649" height="1.15649" rx="0.578244" fill="#474F60"/>
<rect x="163.861" y="80.2349" width="1.15649" height="1.15649" rx="0.578244" fill="#474F60"/>
<rect x="168.876" y="80.2349" width="1.15649" height="1.15649" rx="0.578244" fill="#474F60"/>
<rect x="28.4657" y="85.2495" width="1.15649" height="1.15649" rx="0.578244" fill="#474F60"/>
<rect x="33.4802" y="85.2495" width="1.15649" height="1.15649" rx="0.578244" fill="#474F60"/>
<rect x="38.495" y="85.2495" width="1.15649" height="1.15649" rx="0.578244" fill="#474F60"/>
<rect x="43.5095" y="85.2495" width="1.15649" height="1.15649" rx="0.578244" fill="#474F60"/>
<rect x="48.5242" y="85.2495" width="1.15649" height="1.15649" rx="0.578244" fill="#474F60"/>
<rect x="53.5389" y="85.2495" width="1.15649" height="1.15649" rx="0.578244" fill="#474F60"/>
<rect x="58.5536" y="85.2495" width="1.15649" height="1.15649" rx="0.578244" fill="#474F60"/>
<rect x="63.5681" y="85.2495" width="1.15649" height="1.15649" rx="0.578244" fill="#474F60"/>
<rect x="68.5829" y="85.2495" width="1.15649" height="1.15649" rx="0.578244" fill="#474F60"/>
<rect x="73.5974" y="85.2495" width="1.15649" height="1.15649" rx="0.578244" fill="#474F60"/>
<rect x="78.6121" y="85.2495" width="1.15649" height="1.15649" rx="0.578244" fill="#474F60"/>
<rect x="83.6268" y="85.2495" width="1.15649" height="1.15649" rx="0.578244" fill="#474F60"/>
<rect x="88.6415" y="85.2495" width="1.15649" height="1.15649" rx="0.578244" fill="#474F60"/>
<rect x="93.656" y="85.2495" width="1.15649" height="1.15649" rx="0.578244" fill="#474F60"/>
<rect x="98.6708" y="85.2495" width="1.15649" height="1.15649" rx="0.578244" fill="#474F60"/>
<rect x="103.685" y="85.2495" width="1.15649" height="1.15649" rx="0.578244" fill="#474F60"/>
<rect x="108.7" y="85.2495" width="1.15649" height="1.15649" rx="0.578244" fill="#474F60"/>
<rect x="113.715" y="85.2495" width="1.15649" height="1.15649" rx="0.578244" fill="#474F60"/>
<rect x="118.729" y="85.2495" width="1.15649" height="1.15649" rx="0.578244" fill="#474F60"/>
<rect x="123.744" y="85.2495" width="1.15649" height="1.15649" rx="0.578244" fill="#474F60"/>
<rect x="128.759" y="85.2495" width="1.15649" height="1.15649" rx="0.578244" fill="#474F60"/>
<rect x="133.773" y="85.2495" width="1.15649" height="1.15649" rx="0.578244" fill="#474F60"/>
<rect x="138.788" y="85.2495" width="1.15649" height="1.15649" rx="0.578244" fill="#474F60"/>
<rect x="143.803" y="85.2495" width="1.15649" height="1.15649" rx="0.578244" fill="#474F60"/>
<rect x="148.817" y="85.2495" width="1.15649" height="1.15649" rx="0.578244" fill="#474F60"/>
<rect x="153.832" y="85.2495" width="1.15649" height="1.15649" rx="0.578244" fill="#474F60"/>
<rect x="158.846" y="85.2495" width="1.15649" height="1.15649" rx="0.578244" fill="#474F60"/>
<rect x="163.861" y="85.2495" width="1.15649" height="1.15649" rx="0.578244" fill="#474F60"/>
<rect x="168.876" y="85.2495" width="1.15649" height="1.15649" rx="0.578244" fill="#474F60"/>
<rect x="28.4657" y="90.2642" width="1.15649" height="1.15649" rx="0.578244" fill="#474F60"/>
<rect x="33.4802" y="90.2642" width="1.15649" height="1.15649" rx="0.578244" fill="#474F60"/>
<rect x="38.495" y="90.2642" width="1.15649" height="1.15649" rx="0.578244" fill="#474F60"/>
<rect x="43.5095" y="90.2642" width="1.15649" height="1.15649" rx="0.578244" fill="#474F60"/>
<rect x="48.5242" y="90.2642" width="1.15649" height="1.15649" rx="0.578244" fill="#474F60"/>
<rect x="53.5389" y="90.2642" width="1.15649" height="1.15649" rx="0.578244" fill="#474F60"/>
<rect x="58.5536" y="90.2642" width="1.15649" height="1.15649" rx="0.578244" fill="#474F60"/>
<rect x="63.5681" y="90.2642" width="1.15649" height="1.15649" rx="0.578244" fill="#474F60"/>
<rect x="68.5829" y="90.2642" width="1.15649" height="1.15649" rx="0.578244" fill="#474F60"/>
<rect x="73.5974" y="90.2642" width="1.15649" height="1.15649" rx="0.578244" fill="#474F60"/>
<rect x="78.6121" y="90.2642" width="1.15649" height="1.15649" rx="0.578244" fill="#474F60"/>
<rect x="83.6268" y="90.2642" width="1.15649" height="1.15649" rx="0.578244" fill="#474F60"/>
<rect x="88.6415" y="90.2642" width="1.15649" height="1.15649" rx="0.578244" fill="#474F60"/>
<rect x="93.656" y="90.2642" width="1.15649" height="1.15649" rx="0.578244" fill="#474F60"/>
<rect x="98.6708" y="90.2642" width="1.15649" height="1.15649" rx="0.578244" fill="#474F60"/>
<rect x="103.685" y="90.2642" width="1.15649" height="1.15649" rx="0.578244" fill="#474F60"/>
<rect x="108.7" y="90.2642" width="1.15649" height="1.15649" rx="0.578244" fill="#474F60"/>
<rect x="113.715" y="90.2642" width="1.15649" height="1.15649" rx="0.578244" fill="#474F60"/>
<rect x="118.729" y="90.2642" width="1.15649" height="1.15649" rx="0.578244" fill="#474F60"/>
<rect x="123.744" y="90.2642" width="1.15649" height="1.15649" rx="0.578244" fill="#474F60"/>
<rect x="128.759" y="90.2642" width="1.15649" height="1.15649" rx="0.578244" fill="#474F60"/>
<rect x="133.773" y="90.2642" width="1.15649" height="1.15649" rx="0.578244" fill="#474F60"/>
<rect x="138.788" y="90.2642" width="1.15649" height="1.15649" rx="0.578244" fill="#474F60"/>
<rect x="143.803" y="90.2642" width="1.15649" height="1.15649" rx="0.578244" fill="#474F60"/>
<rect x="148.817" y="90.2642" width="1.15649" height="1.15649" rx="0.578244" fill="#474F60"/>
<rect x="153.832" y="90.2642" width="1.15649" height="1.15649" rx="0.578244" fill="#474F60"/>
<rect x="158.846" y="90.2642" width="1.15649" height="1.15649" rx="0.578244" fill="#474F60"/>
<rect x="163.861" y="90.2642" width="1.15649" height="1.15649" rx="0.578244" fill="#474F60"/>
<rect x="168.876" y="90.2642" width="1.15649" height="1.15649" rx="0.578244" fill="#474F60"/>
<rect x="28.4657" y="95.2788" width="1.15649" height="1.15649" rx="0.578244" fill="#474F60"/>
<rect x="33.4802" y="95.2788" width="1.15649" height="1.15649" rx="0.578244" fill="#474F60"/>
<rect x="38.495" y="95.2788" width="1.15649" height="1.15649" rx="0.578244" fill="#474F60"/>
<rect x="43.5095" y="95.2788" width="1.15649" height="1.15649" rx="0.578244" fill="#474F60"/>
<rect x="48.5242" y="95.2788" width="1.15649" height="1.15649" rx="0.578244" fill="#474F60"/>
<rect x="53.5389" y="95.2788" width="1.15649" height="1.15649" rx="0.578244" fill="#474F60"/>
<rect x="58.5536" y="95.2788" width="1.15649" height="1.15649" rx="0.578244" fill="#474F60"/>
<rect x="63.5681" y="95.2788" width="1.15649" height="1.15649" rx="0.578244" fill="#474F60"/>
<rect x="68.5829" y="95.2788" width="1.15649" height="1.15649" rx="0.578244" fill="#474F60"/>
<rect x="73.5974" y="95.2788" width="1.15649" height="1.15649" rx="0.578244" fill="#474F60"/>
<rect x="78.6121" y="95.2788" width="1.15649" height="1.15649" rx="0.578244" fill="#474F60"/>
<rect x="83.6268" y="95.2788" width="1.15649" height="1.15649" rx="0.578244" fill="#474F60"/>
<rect x="88.6415" y="95.2788" width="1.15649" height="1.15649" rx="0.578244" fill="#474F60"/>
<rect x="93.656" y="95.2788" width="1.15649" height="1.15649" rx="0.578244" fill="#474F60"/>
<rect x="98.6708" y="95.2788" width="1.15649" height="1.15649" rx="0.578244" fill="#474F60"/>
<rect x="103.685" y="95.2788" width="1.15649" height="1.15649" rx="0.578244" fill="#474F60"/>
<rect x="108.7" y="95.2788" width="1.15649" height="1.15649" rx="0.578244" fill="#474F60"/>
<rect x="113.715" y="95.2788" width="1.15649" height="1.15649" rx="0.578244" fill="#474F60"/>
<rect x="118.729" y="95.2788" width="1.15649" height="1.15649" rx="0.578244" fill="#474F60"/>
<rect x="123.744" y="95.2788" width="1.15649" height="1.15649" rx="0.578244" fill="#474F60"/>
<rect x="128.759" y="95.2788" width="1.15649" height="1.15649" rx="0.578244" fill="#474F60"/>
<rect x="133.773" y="95.2788" width="1.15649" height="1.15649" rx="0.578244" fill="#474F60"/>
<rect x="138.788" y="95.2788" width="1.15649" height="1.15649" rx="0.578244" fill="#474F60"/>
<rect x="143.803" y="95.2788" width="1.15649" height="1.15649" rx="0.578244" fill="#474F60"/>
<rect x="148.817" y="95.2788" width="1.15649" height="1.15649" rx="0.578244" fill="#474F60"/>
<rect x="153.832" y="95.2788" width="1.15649" height="1.15649" rx="0.578244" fill="#474F60"/>
<rect x="158.846" y="95.2788" width="1.15649" height="1.15649" rx="0.578244" fill="#474F60"/>
<rect x="163.861" y="95.2788" width="1.15649" height="1.15649" rx="0.578244" fill="#474F60"/>
<rect x="168.876" y="95.2788" width="1.15649" height="1.15649" rx="0.578244" fill="#474F60"/>
<rect x="28.4657" y="100.293" width="1.15649" height="1.15649" rx="0.578244" fill="#474F60"/>
<rect x="33.4802" y="100.293" width="1.15649" height="1.15649" rx="0.578244" fill="#474F60"/>
<rect x="38.495" y="100.293" width="1.15649" height="1.15649" rx="0.578244" fill="#474F60"/>
<rect x="43.5095" y="100.293" width="1.15649" height="1.15649" rx="0.578244" fill="#474F60"/>
<rect x="48.5242" y="100.293" width="1.15649" height="1.15649" rx="0.578244" fill="#474F60"/>
<rect x="53.5389" y="100.293" width="1.15649" height="1.15649" rx="0.578244" fill="#474F60"/>
<rect x="58.5536" y="100.293" width="1.15649" height="1.15649" rx="0.578244" fill="#474F60"/>
<rect x="63.5681" y="100.293" width="1.15649" height="1.15649" rx="0.578244" fill="#474F60"/>
<rect x="68.5829" y="100.293" width="1.15649" height="1.15649" rx="0.578244" fill="#474F60"/>
<rect x="73.5974" y="100.293" width="1.15649" height="1.15649" rx="0.578244" fill="#474F60"/>
<rect x="78.6121" y="100.293" width="1.15649" height="1.15649" rx="0.578244" fill="#474F60"/>
<rect x="83.6268" y="100.293" width="1.15649" height="1.15649" rx="0.578244" fill="#474F60"/>
<rect x="88.6415" y="100.293" width="1.15649" height="1.15649" rx="0.578244" fill="#474F60"/>
<rect x="93.656" y="100.293" width="1.15649" height="1.15649" rx="0.578244" fill="#474F60"/>
<rect x="98.6708" y="100.293" width="1.15649" height="1.15649" rx="0.578244" fill="#474F60"/>
<rect x="103.685" y="100.293" width="1.15649" height="1.15649" rx="0.578244" fill="#474F60"/>
<rect x="108.7" y="100.293" width="1.15649" height="1.15649" rx="0.578244" fill="#474F60"/>
<rect x="113.715" y="100.293" width="1.15649" height="1.15649" rx="0.578244" fill="#474F60"/>
<rect x="118.729" y="100.293" width="1.15649" height="1.15649" rx="0.578244" fill="#474F60"/>
<rect x="123.744" y="100.293" width="1.15649" height="1.15649" rx="0.578244" fill="#474F60"/>
<rect x="128.759" y="100.293" width="1.15649" height="1.15649" rx="0.578244" fill="#474F60"/>
<rect x="133.773" y="100.293" width="1.15649" height="1.15649" rx="0.578244" fill="#474F60"/>
<rect x="138.788" y="100.293" width="1.15649" height="1.15649" rx="0.578244" fill="#474F60"/>
<rect x="143.803" y="100.293" width="1.15649" height="1.15649" rx="0.578244" fill="#474F60"/>
<rect x="148.817" y="100.293" width="1.15649" height="1.15649" rx="0.578244" fill="#474F60"/>
<rect x="153.832" y="100.293" width="1.15649" height="1.15649" rx="0.578244" fill="#474F60"/>
<rect x="158.846" y="100.293" width="1.15649" height="1.15649" rx="0.578244" fill="#474F60"/>
<rect x="163.861" y="100.293" width="1.15649" height="1.15649" rx="0.578244" fill="#474F60"/>
<rect x="168.876" y="100.293" width="1.15649" height="1.15649" rx="0.578244" fill="#474F60"/>
<rect x="1.48089" y="14.6492" width="147.26" height="111.794" rx="3.08397" fill="white" stroke="#333A4A" stroke-width="1.54198"/>
<path d="M1.48083 16.1912C1.48083 15.3395 2.17121 14.6492 3.02282 14.6492H147.198C148.05 14.6492 148.74 15.3395 148.74 16.1912V28.527H1.48083V16.1912Z" fill="#333A4A"/>
<circle cx="10.6396" cy="21.1121" r="3.46293" fill="white"/>
<circle cx="21.9211" cy="21.1121" r="3.46293" fill="white"/>
<circle cx="33.2028" cy="21.1121" r="3.46293" fill="white"/>
<path d="M51.5954 58.5956C51.5954 55.5369 50.8954 52.5188 49.5492 49.7724C48.2029 47.0259 46.2459 44.624 43.8282 42.7504C41.4105 40.8769 38.5961 39.5815 35.6005 38.9634C32.6049 38.3453 29.5077 38.4209 26.5458 39.1844C23.584 39.9479 20.8361 41.379 18.5126 43.3683C16.1892 45.3575 14.3518 47.852 13.141 50.6609C11.9303 53.4698 11.3784 56.5184 11.5276 59.5735C11.6769 62.6285 12.5232 65.6089 14.0018 68.2864L20.7684 64.5495C19.86 62.9045 19.34 61.0734 19.2483 59.1964C19.1566 57.3194 19.4957 55.4463 20.2396 53.7206C20.9834 51.9949 22.1123 50.4622 23.5398 49.2401C24.9673 48.0179 26.6556 47.1386 28.4753 46.6695C30.295 46.2004 32.198 46.154 34.0384 46.5338C35.8789 46.9135 37.608 47.7094 39.0935 48.8605C40.5789 50.0116 41.7812 51.4873 42.6083 53.1747C43.4355 54.8621 43.8655 56.7164 43.8655 58.5956H51.5954Z" fill="#F58F00"/>
<path d="M13.0138 66.2283C14.2202 69.1579 16.1037 71.7598 18.5101 73.8207C20.9164 75.8816 23.777 77.3428 26.8572 78.0845C29.9374 78.8261 33.1495 78.8271 36.2302 78.0873C39.3109 77.3475 42.1723 75.8881 44.5799 73.8286C46.9875 71.7692 48.8726 69.1684 50.0807 66.2396C51.2889 63.3107 51.7856 60.1372 51.5301 56.9793C51.2747 53.8214 50.2743 50.769 48.6111 48.0724C46.9479 45.3758 44.6692 43.1119 41.9619 41.4662L37.9468 48.0715C39.6102 49.0825 41.0102 50.4735 42.032 52.1302C43.0539 53.787 43.6685 55.6624 43.8254 57.6026C43.9824 59.5428 43.6772 61.4925 42.9349 63.292C42.1927 65.0914 41.0345 66.6893 39.5553 67.9546C38.0761 69.2199 36.318 70.1166 34.4253 70.5711C32.5326 71.0256 30.5591 71.025 28.6666 70.5694C26.7742 70.1137 25.0167 69.216 23.5382 67.9498C22.0598 66.6836 20.9026 65.085 20.1614 63.2851L13.0138 66.2283Z" fill="#E2E7EE"/>
<rect x="19.9846" y="101" width="8.48092" height="14.6489" rx="0.770992" fill="#1ABF7E"/>
<rect x="36.9465" y="92.5193" width="8.48092" height="23.1298" rx="0.770992" fill="#1ABF7E"/>
<rect x="53.9083" y="84.0386" width="8.48092" height="31.6107" rx="0.770992" fill="#1ABF7E"/>
<rect x="70.8701" y="76.3286" width="8.48092" height="39.3206" rx="0.770992" fill="#1ABF7E"/>
<rect x="87.832" y="68.6187" width="8.48092" height="47.0305" rx="0.770992" fill="#1ABF7E"/>
<rect x="104.794" y="60.9087" width="8.48092" height="54.7405" rx="0.770992" fill="#1ABF7E"/>
<rect x="121.756" y="52.4277" width="8.48092" height="63.2214" rx="0.770992" fill="#1ABF7E"/>
</svg>
