<svg width="309" height="309" viewBox="0 0 309 309" fill="none" xmlns="http://www.w3.org/2000/svg"><g clip-path="url(#clip0)"><path d="M57.97 206.343a1.06 1.06 0 10-1.836 1.06 1.06 1.06 0 001.835-1.06zm7.955-4.594a1.06 1.06 0 10-1.834 1.06 1.06 1.06 0 001.834-1.06zm7.956-4.593a1.06 1.06 0 10-1.835 1.06 1.06 1.06 0 001.835-1.06zm7.956-4.593a1.059 1.059 0 10-1.835 1.057 1.059 1.059 0 001.835-1.057zm7.959-4.595a1.06 1.06 0 10-1.836 1.06 1.06 1.06 0 001.836-1.06zm7.955-4.593a1.059 1.059 0 10-1.834 1.057 1.059 1.059 0 001.834-1.057zm7.956-4.594a1.06 1.06 0 10-1.835 1.059 1.06 1.06 0 001.835-1.059zm7.956-4.593a1.06 1.06 0 10-1.835 1.059 1.06 1.06 0 001.835-1.059zm7.956-4.594a1.059 1.059 0 10-1.834 1.06 1.059 1.059 0 001.834-1.06zm7.956-4.593a1.06 1.06 0 10-1.835 1.059 1.06 1.06 0 001.835-1.059zm7.956-4.593a1.06 1.06 0 10-1.835 1.059 1.06 1.06 0 001.835-1.059zm7.956-4.594a1.06 1.06 0 10-1.835 1.059 1.06 1.06 0 001.835-1.059zm7.959-4.595a1.06 1.06 0 10-1.834 1.06 1.06 1.06 0 001.834-1.06zm7.956-4.593a1.06 1.06 0 10-1.837 1.062 1.06 1.06 0 001.837-1.062zm7.955-4.593a1.06 1.06 0 10-1.835 1.059 1.06 1.06 0 001.835-1.059zm7.957-4.593a1.06 1.06 0 10-1.836 1.06 1.06 1.06 0 001.836-1.06zm7.955-4.594a1.059 1.059 0 10-1.834 1.06 1.059 1.059 0 001.834-1.06zm7.956-4.593a1.058 1.058 0 10-1.834 1.057 1.058 1.058 0 001.834-1.057zm7.956-4.594a1.059 1.059 0 10-1.834 1.06 1.059 1.059 0 001.834-1.06zm7.956-4.593a1.06 1.06 0 10-1.835 1.059 1.06 1.06 0 001.835-1.059zm7.956-4.594a1.059 1.059 0 10-1.834 1.06 1.059 1.059 0 001.834-1.06zm7.959-4.594a1.059 1.059 0 10-1.835 1.058 1.059 1.059 0 001.835-1.058zm7.956-4.594a1.06 1.06 0 10-1.834 1.06 1.06 1.06 0 001.834-1.06zm7.956-4.593a1.059 1.059 0 10-1.835 1.058 1.059 1.059 0 001.835-1.058zm7.956-4.594a1.06 1.06 0 10-1.835 1.06 1.06 1.06 0 001.835-1.06zM62.563 214.299a1.06 1.06 0 10-1.834 1.06 1.06 1.06 0 001.834-1.06zm7.956-4.593a1.06 1.06 0 00-1.835 1.06 1.06 1.06 0 001.835-1.06zm7.956-4.593a1.059 1.059 0 10-1.835 1.057 1.059 1.059 0 001.835-1.057zm7.955-4.594a1.06 1.06 0 10-1.833 1.06 1.06 1.06 0 001.834-1.06zm7.96-4.595a1.06 1.06 0 10-1.835 1.06 1.06 1.06 0 001.834-1.06zm7.955-4.593a1.06 1.06 0 10-1.836 1.061 1.06 1.06 0 001.836-1.061zm7.956-4.593a1.058 1.058 0 10-1.834 1.057 1.058 1.058 0 001.834-1.057zm7.956-4.594a1.06 1.06 0 10-1.834 1.06 1.06 1.06 0 001.834-1.06zm7.956-4.593a1.06 1.06 0 10-1.835 1.059 1.06 1.06 0 001.835-1.059zm7.956-4.593a1.059 1.059 0 10-1.835 1.057 1.059 1.059 0 001.835-1.057zm7.956-4.594a1.06 1.06 0 10-1.834 1.06 1.06 1.06 0 001.834-1.06zm7.956-4.593a1.059 1.059 0 10-1.835 1.057 1.059 1.059 0 001.835-1.057zm7.958-4.595a1.06 1.06 0 10-1.835 1.059 1.06 1.06 0 001.835-1.059zm7.956-4.593a1.058 1.058 0 10-1.834 1.057 1.058 1.058 0 001.834-1.057zm7.956-4.594a1.059 1.059 0 10-1.834 1.06 1.059 1.059 0 001.834-1.06zm7.956-4.593a1.06 1.06 0 10-1.835 1.059 1.06 1.06 0 001.835-1.059zm7.956-4.593a1.06 1.06 0 10-1.835 1.06 1.06 1.06 0 001.835-1.06zm7.956-4.594a1.06 1.06 0 10-1.835 1.06 1.06 1.06 0 001.835-1.06zm7.956-4.593a1.06 1.06 0 10-1.835 1.06 1.06 1.06 0 001.835-1.06zm7.956-4.593a1.058 1.058 0 10-1.834 1.057 1.058 1.058 0 001.834-1.057zm7.956-4.594a1.06 1.06 0 10-1.835 1.059 1.06 1.06 0 001.835-1.059zm7.959-4.595a1.06 1.06 0 10-1.837 1.062 1.06 1.06 0 001.837-1.062zm7.956-4.593a1.06 1.06 0 10-1.835 1.06 1.06 1.06 0 001.835-1.06zm7.956-4.594a1.06 1.06 0 10-1.835 1.06 1.06 1.06 0 001.835-1.06zm7.956-4.593a1.06 1.06 0 10-1.835 1.06 1.06 1.06 0 001.835-1.06zM67.156 222.256a1.059 1.059 0 10-1.834 1.057 1.059 1.059 0 001.834-1.057zm7.956-4.594a1.06 1.06 0 10-1.835 1.06 1.06 1.06 0 001.835-1.06zm7.956-4.593a1.059 1.059 0 10-1.834 1.057 1.059 1.059 0 001.834-1.057zm7.956-4.594a1.06 1.06 0 10-1.836 1.062 1.06 1.06 0 001.836-1.062zm7.959-4.594a1.059 1.059 0 10-1.835 1.057 1.059 1.059 0 001.835-1.057zm7.956-4.594a1.06 1.06 0 10-1.835 1.058 1.06 1.06 0 001.835-1.058zm7.955-4.593a1.058 1.058 0 10-1.834 1.057 1.058 1.058 0 001.834-1.057zm7.956-4.593a1.058 1.058 0 10-1.834 1.057 1.058 1.058 0 001.834-1.057zm7.956-4.594a1.06 1.06 0 10-1.835 1.059 1.06 1.06 0 001.835-1.059zm7.956-4.593a1.058 1.058 0 10-1.834 1.057 1.058 1.058 0 001.834-1.057zm7.956-4.594a1.06 1.06 0 10-1.836 1.061 1.06 1.06 0 001.836-1.061zm7.956-4.593a1.06 1.06 0 10-1.835 1.059 1.06 1.06 0 001.835-1.059zm7.959-4.595a1.06 1.06 0 10-1.835 1.06 1.06 1.06 0 001.835-1.06zm7.956-4.593a1.059 1.059 0 10-1.835 1.058 1.059 1.059 0 001.835-1.058zm7.956-4.594a1.06 1.06 0 10-1.835 1.063 1.06 1.06 0 001.835-1.063zm7.956-4.593a1.059 1.059 0 10-1.835 1.058 1.059 1.059 0 001.835-1.058zm7.955-4.593a1.06 1.06 0 10-1.835 1.059 1.06 1.06 0 001.835-1.059zm7.956-4.594a1.06 1.06 0 10-1.835 1.059 1.06 1.06 0 001.835-1.059zm7.956-4.593a1.06 1.06 0 10-1.835 1.059 1.06 1.06 0 001.835-1.059zm7.956-4.593a1.058 1.058 0 10-1.834 1.057 1.058 1.058 0 001.834-1.057zm7.956-4.594a1.06 1.06 0 10-1.835 1.059 1.06 1.06 0 001.835-1.059zm7.959-4.595a1.06 1.06 0 10-1.836 1.062 1.06 1.06 0 001.836-1.062zm7.956-4.593a1.06 1.06 0 10-1.835 1.06 1.06 1.06 0 001.835-1.06zm7.956-4.594a1.06 1.06 0 10-1.836 1.061 1.06 1.06 0 001.836-1.061zm7.956-4.593a1.06 1.06 0 10-1.835 1.059 1.06 1.06 0 001.835-1.059zM71.75 230.211a1.06 1.06 0 10-1.835 1.06 1.06 1.06 0 001.835-1.06zm7.956-4.593a1.06 1.06 0 10-1.836 1.06 1.06 1.06 0 001.836-1.06zm7.956-4.593a1.059 1.059 0 10-1.835 1.058 1.059 1.059 0 001.835-1.058zm7.956-4.594a1.06 1.06 0 10-1.835 1.06 1.06 1.06 0 001.835-1.06zm7.958-4.594a1.059 1.059 0 10-1.835 1.058 1.059 1.059 0 001.835-1.058zm7.956-4.594a1.06 1.06 0 10-1.835 1.06 1.06 1.06 0 001.835-1.06zm7.956-4.593a1.06 1.06 0 10-1.835 1.06 1.06 1.06 0 001.835-1.06zm7.956-4.594a1.06 1.06 0 10-1.834 1.06 1.06 1.06 0 001.834-1.06zm7.956-4.593a1.06 1.06 0 10-1.835 1.06 1.06 1.06 0 001.835-1.06zm7.956-4.593a1.059 1.059 0 10-1.835 1.058 1.059 1.059 0 001.835-1.058zm7.956-4.594a1.06 1.06 0 10-1.834 1.06 1.06 1.06 0 001.834-1.06zm7.956-4.593a1.059 1.059 0 10-1.835 1.058 1.059 1.059 0 001.835-1.058zm7.958-4.595a1.06 1.06 0 10-1.835 1.059 1.06 1.06 0 001.835-1.059zm7.956-4.593a1.058 1.058 0 10-1.834 1.057 1.058 1.058 0 001.834-1.057zm7.956-4.593a1.059 1.059 0 10-1.835 1.057 1.059 1.059 0 001.835-1.057zm7.956-4.594a1.058 1.058 0 10-1.834 1.057 1.058 1.058 0 001.834-1.057zm7.956-4.593a1.059 1.059 0 10-1.835 1.058 1.059 1.059 0 001.835-1.058zm7.956-4.594a1.06 1.06 0 00-1.835 1.06 1.059 1.059 0 001.835-1.06zm7.956-4.593a1.06 1.06 0 10-1.835 1.06 1.06 1.06 0 001.835-1.06zm7.956-4.594a1.06 1.06 0 00-1.835 1.06 1.059 1.059 0 001.835-1.06zm7.956-4.593a1.06 1.06 0 10-1.835 1.06 1.06 1.06 0 001.835-1.06zm7.958-4.595a1.06 1.06 0 10-1.836 1.061 1.06 1.06 0 001.836-1.061zm7.956-4.593a1.058 1.058 0 10-1.834 1.057 1.058 1.058 0 001.834-1.057zm7.956-4.594a1.06 1.06 0 10-1.836 1.061 1.06 1.06 0 001.836-1.061zm7.957-4.593a1.06 1.06 0 10-1.835 1.058 1.06 1.06 0 001.835-1.058zM76.344 238.169a1.059 1.059 0 10-1.835 1.058 1.059 1.059 0 001.835-1.058zm7.956-4.594a1.06 1.06 0 10-1.836 1.06 1.06 1.06 0 001.836-1.06zm7.956-4.593a1.06 1.06 0 10-1.836 1.06 1.06 1.06 0 001.836-1.06zm7.956-4.594a1.06 1.06 0 10-1.835 1.061 1.06 1.06 0 001.835-1.061zm7.958-4.594a1.059 1.059 0 10-1.835 1.057 1.059 1.059 0 001.835-1.057zm7.956-4.594a1.06 1.06 0 10-1.835 1.06 1.06 1.06 0 001.835-1.06zm7.956-4.593a1.06 1.06 0 10-1.835 1.06 1.06 1.06 0 001.835-1.06zm7.956-4.594a1.06 1.06 0 10-1.834 1.06 1.06 1.06 0 001.834-1.06zm7.956-4.593a1.06 1.06 0 10-1.835 1.06 1.06 1.06 0 001.835-1.06zm7.956-4.593a1.059 1.059 0 10-1.835 1.058 1.059 1.059 0 001.835-1.058zm7.956-4.594a1.06 1.06 0 10-1.834 1.06 1.06 1.06 0 001.834-1.06zm7.956-4.593a1.06 1.06 0 10-1.835 1.06 1.06 1.06 0 001.835-1.06zm7.958-4.595a1.06 1.06 0 10-1.835 1.059 1.06 1.06 0 001.835-1.059zm7.956-4.593a1.06 1.06 0 10-1.835 1.059 1.06 1.06 0 001.835-1.059zm7.956-4.594a1.059 1.059 0 10-1.834 1.06 1.059 1.059 0 001.834-1.06zm7.956-4.593a1.06 1.06 0 10-1.835 1.059 1.06 1.06 0 001.835-1.059zm7.956-4.593a1.06 1.06 0 10-1.835 1.06 1.06 1.06 0 001.835-1.06zm7.956-4.594a1.06 1.06 0 10-1.834 1.06 1.06 1.06 0 001.834-1.06zm7.956-4.593a1.06 1.06 0 10-1.835 1.06 1.06 1.06 0 001.835-1.06zm7.956-4.593a1.059 1.059 0 10-1.835 1.058 1.059 1.059 0 001.835-1.058zm7.956-4.594a1.06 1.06 0 10-1.835 1.06 1.06 1.06 0 001.835-1.06zm7.958-4.595a1.059 1.059 0 10-1.834 1.06 1.059 1.059 0 001.834-1.06zm7.956-4.593a1.06 1.06 0 10-1.835 1.059 1.06 1.06 0 001.835-1.059zm7.956-4.594a1.059 1.059 0 10-1.834 1.06 1.059 1.059 0 001.834-1.06zm7.957-4.593a1.06 1.06 0 10-1.835 1.058 1.06 1.06 0 001.835-1.058zM80.937 246.125a1.059 1.059 0 10-1.835 1.057 1.059 1.059 0 001.835-1.057zm7.956-4.594a1.06 1.06 0 10-1.835 1.06 1.06 1.06 0 001.835-1.06zm7.957-4.593a1.06 1.06 0 10-1.836 1.06 1.06 1.06 0 001.835-1.06zm7.955-4.594a1.06 1.06 0 10-1.834 1.06 1.06 1.06 0 001.834-1.06zm7.958-4.594a1.058 1.058 0 10-1.834 1.057 1.058 1.058 0 001.834-1.057zm7.956-4.594a1.06 1.06 0 10-1.835 1.059 1.06 1.06 0 001.835-1.059zm7.956-4.593a1.06 1.06 0 10-1.835 1.059 1.06 1.06 0 001.835-1.059zm7.956-4.594a1.059 1.059 0 10-1.834 1.06 1.059 1.059 0 001.834-1.06zm7.956-4.593a1.06 1.06 0 10-1.835 1.059 1.06 1.06 0 001.835-1.059zm7.956-4.593a1.06 1.06 0 10-1.835 1.059 1.06 1.06 0 001.835-1.059zm7.956-4.594a1.059 1.059 0 10-1.834 1.06 1.059 1.059 0 001.834-1.06zm7.956-4.593a1.06 1.06 0 10-1.835 1.059 1.06 1.06 0 001.835-1.059zm7.959-4.595a1.06 1.06 0 10-1.837 1.062 1.06 1.06 0 001.837-1.062zm7.956-4.593a1.06 1.06 0 10-1.835 1.058 1.06 1.06 0 001.835-1.058zm7.956-4.594a1.06 1.06 0 10-1.835 1.063 1.06 1.06 0 001.835-1.063zm7.955-4.593a1.06 1.06 0 10-1.835 1.059 1.06 1.06 0 001.835-1.059zm7.956-4.593a1.06 1.06 0 10-1.835 1.059 1.06 1.06 0 001.835-1.059zm7.956-4.594a1.059 1.059 0 10-1.834 1.06 1.059 1.059 0 001.834-1.06zm7.956-4.593a1.06 1.06 0 10-1.835 1.059 1.06 1.06 0 001.835-1.059zm7.956-4.593a1.06 1.06 0 10-1.835 1.059 1.06 1.06 0 001.835-1.059zm7.956-4.594a1.06 1.06 0 10-1.835 1.059 1.06 1.06 0 001.835-1.059zm7.959-4.595a1.06 1.06 0 10-1.834 1.06 1.06 1.06 0 001.834-1.06zm7.956-4.593a1.06 1.06 0 10-1.835 1.06 1.06 1.06 0 001.835-1.06zm7.956-4.594a1.06 1.06 0 10-1.834 1.06 1.06 1.06 0 001.834-1.06zm7.956-4.593a1.06 1.06 0 10-1.835 1.06 1.06 1.06 0 001.835-1.06zM85.53 254.081a1.059 1.059 0 10-1.834 1.057 1.059 1.059 0 001.835-1.057zm7.957-4.594a1.06 1.06 0 10-1.836 1.062 1.06 1.06 0 001.836-1.062zm7.955-4.593a1.059 1.059 0 10-1.835 1.058 1.059 1.059 0 001.835-1.058zm7.956-4.594a1.059 1.059 0 10-1.834 1.06 1.059 1.059 0 001.834-1.06zm7.959-4.594a1.059 1.059 0 10-1.835 1.058 1.059 1.059 0 001.835-1.058zm7.956-4.594a1.06 1.06 0 00-1.835 1.06 1.059 1.059 0 001.835-1.06zm7.956-4.593a1.06 1.06 0 10-1.835 1.06 1.06 1.06 0 001.835-1.06zm7.956-4.594a1.06 1.06 0 10-1.834 1.06 1.06 1.06 0 001.834-1.06zm7.956-4.593a1.06 1.06 0 10-1.835 1.06 1.06 1.06 0 001.835-1.06zm7.956-4.593a1.06 1.06 0 10-1.835 1.06 1.06 1.06 0 001.835-1.06zm7.956-4.594a1.06 1.06 0 10-1.835 1.063 1.06 1.06 0 001.835-1.063zm7.956-4.593a1.06 1.06 0 10-1.835 1.06 1.06 1.06 0 001.835-1.06zm7.958-4.595a1.06 1.06 0 10-1.835 1.059 1.06 1.06 0 001.835-1.059zm7.956-4.593a1.06 1.06 0 10-1.835 1.06 1.06 1.06 0 001.835-1.06zm7.956-4.594a1.06 1.06 0 10-1.834 1.06 1.06 1.06 0 001.834-1.06zm7.956-4.593a1.06 1.06 0 10-1.835 1.06 1.06 1.06 0 001.835-1.06zm7.956-4.593a1.06 1.06 0 10-1.835 1.058 1.06 1.06 0 001.835-1.058zm7.956-4.593a1.06 1.06 0 10-1.836 1.06 1.06 1.06 0 001.836-1.06zm7.956-4.594a1.06 1.06 0 10-1.835 1.06 1.06 1.06 0 001.835-1.06zm7.956-4.593a1.06 1.06 0 10-1.835 1.06 1.06 1.06 0 001.835-1.06zm7.956-4.594a1.06 1.06 0 10-1.835 1.06 1.06 1.06 0 001.835-1.06zm7.958-4.595a1.059 1.059 0 10-1.834 1.06 1.059 1.059 0 001.834-1.06zm7.956-4.593a1.06 1.06 0 10-1.835 1.059 1.06 1.06 0 001.835-1.059zm7.956-4.594a1.059 1.059 0 10-1.834 1.06 1.059 1.059 0 001.834-1.06zm7.956-4.593a1.06 1.06 0 10-1.835 1.059 1.06 1.06 0 001.835-1.059zM90.124 262.037a1.059 1.059 0 10-1.835 1.058 1.059 1.059 0 001.835-1.058zm7.956-4.594a1.06 1.06 0 10-1.834 1.06 1.06 1.06 0 001.834-1.06zm7.956-4.593a1.06 1.06 0 10-1.835 1.06 1.06 1.06 0 001.835-1.06zm7.956-4.593a1.059 1.059 0 10-1.835 1.058 1.059 1.059 0 001.835-1.058zm7.958-4.595a1.058 1.058 0 10-1.834 1.057 1.058 1.058 0 001.834-1.057zm7.956-4.593a1.058 1.058 0 10-1.834 1.057 1.058 1.058 0 001.834-1.057zm7.956-4.594a1.06 1.06 0 10-1.835 1.059 1.06 1.06 0 001.835-1.059zm7.956-4.593a1.058 1.058 0 10-1.834 1.057 1.058 1.058 0 001.834-1.057zm7.956-4.594a1.06 1.06 0 10-1.836 1.061 1.06 1.06 0 001.836-1.061zm7.956-4.593a1.06 1.06 0 10-1.835 1.059 1.06 1.06 0 001.835-1.059zm7.956-4.594a1.059 1.059 0 10-1.834 1.06 1.059 1.059 0 001.834-1.06zm7.956-4.593a1.06 1.06 0 10-1.836 1.061 1.06 1.06 0 001.836-1.061zm7.959-4.595a1.06 1.06 0 10-1.835 1.063 1.06 1.06 0 001.835-1.063zm7.955-4.593a1.06 1.06 0 10-1.835 1.059 1.06 1.06 0 001.835-1.059zm7.956-4.593a1.058 1.058 0 10-1.834 1.057 1.058 1.058 0 001.834-1.057zm7.956-4.594a1.06 1.06 0 10-1.836 1.061 1.06 1.06 0 001.836-1.061zm7.956-4.593a1.06 1.06 0 10-1.835 1.059 1.06 1.06 0 001.835-1.059zm7.956-4.593a1.058 1.058 0 10-1.834 1.057 1.058 1.058 0 001.834-1.057zm7.956-4.594a1.06 1.06 0 10-1.835 1.059 1.06 1.06 0 001.835-1.059zm7.956-4.593a1.058 1.058 0 10-1.834 1.057 1.058 1.058 0 001.834-1.057zm7.956-4.594a1.059 1.059 0 10-1.834 1.06 1.059 1.059 0 001.834-1.06zm7.959-4.595a1.06 1.06 0 10-1.834 1.06 1.06 1.06 0 001.834-1.06zm7.956-4.593a1.06 1.06 0 00-1.835 1.06 1.059 1.059 0 001.835-1.06zm7.956-4.594a1.06 1.06 0 10-1.834 1.06 1.06 1.06 0 001.834-1.06zm7.956-4.593a1.06 1.06 0 10-1.835 1.06 1.06 1.06 0 001.835-1.06zM94.718 269.993a1.06 1.06 0 10-1.836 1.06 1.06 1.06 0 001.835-1.06zm7.955-4.594a1.059 1.059 0 10-1.834 1.06 1.059 1.059 0 001.834-1.06zm7.956-4.593a1.06 1.06 0 10-1.835 1.059 1.06 1.06 0 001.835-1.059zm7.956-4.593a1.06 1.06 0 10-1.835 1.059 1.06 1.06 0 001.835-1.059zm7.959-4.595a1.06 1.06 0 10-1.835 1.06 1.06 1.06 0 001.835-1.06zm7.956-4.593a1.059 1.059 0 10-1.835 1.058 1.059 1.059 0 001.835-1.058zm7.956-4.594a1.06 1.06 0 10-1.835 1.06 1.06 1.06 0 001.835-1.06zm7.956-4.593a1.06 1.06 0 10-1.835 1.06 1.06 1.06 0 001.835-1.06zm7.956-4.594a1.06 1.06 0 10-1.834 1.06 1.06 1.06 0 001.834-1.06zm7.956-4.593a1.06 1.06 0 10-1.835 1.058 1.06 1.06 0 001.835-1.058zm7.955-4.593a1.058 1.058 0 10-1.834 1.057 1.058 1.058 0 001.834-1.057zm7.957-4.594a1.06 1.06 0 10-1.835 1.063 1.06 1.06 0 001.835-1.063zm7.958-4.594a1.059 1.059 0 10-1.835 1.058 1.059 1.059 0 001.835-1.058zm7.956-4.594a1.06 1.06 0 10-1.835 1.06 1.06 1.06 0 001.835-1.06zm7.956-4.593a1.059 1.059 0 10-1.835 1.058 1.059 1.059 0 001.835-1.058zm7.956-4.594a1.06 1.06 0 10-1.834 1.06 1.06 1.06 0 001.834-1.06zm7.955-4.593a1.06 1.06 0 10-1.836 1.061 1.06 1.06 0 001.836-1.061zm7.956-4.593a1.058 1.058 0 10-1.834 1.057 1.058 1.058 0 001.834-1.057zm7.957-4.594a1.06 1.06 0 10-1.833 1.06 1.06 1.06 0 001.833-1.06zm7.956-4.593a1.06 1.06 0 10-1.836 1.06 1.06 1.06 0 001.836-1.06zm7.956-4.594a1.06 1.06 0 10-1.834 1.06 1.06 1.06 0 001.834-1.06zm7.958-4.594a1.058 1.058 0 10-1.834 1.057 1.058 1.058 0 001.834-1.057zm7.956-4.594a1.06 1.06 0 10-1.836 1.061 1.06 1.06 0 001.836-1.061zm7.956-4.594a1.059 1.059 0 10-1.834 1.06 1.059 1.059 0 001.834-1.06zm7.956-4.593a1.06 1.06 0 10-1.836 1.061 1.06 1.06 0 001.836-1.061zM99.31 277.949a1.06 1.06 0 10-1.835 1.06 1.06 1.06 0 001.836-1.06zm7.957-4.593a1.059 1.059 0 10-1.835 1.058 1.059 1.059 0 001.835-1.058zm7.956-4.594a1.06 1.06 0 10-1.835 1.06 1.06 1.06 0 001.835-1.06zm7.956-4.593a1.06 1.06 0 10-1.835 1.06 1.06 1.06 0 001.835-1.06zm7.958-4.595a1.06 1.06 0 10-1.835 1.059 1.06 1.06 0 001.835-1.059zm7.956-4.593a1.058 1.058 0 10-1.834 1.057 1.058 1.058 0 001.834-1.057zm7.956-4.594a1.059 1.059 0 10-1.834 1.06 1.059 1.059 0 001.834-1.06zm7.956-4.593a1.06 1.06 0 10-1.835 1.059 1.06 1.06 0 001.835-1.059zm7.956-4.593a1.058 1.058 0 10-1.834 1.057 1.058 1.058 0 001.834-1.057zm7.956-4.594a1.06 1.06 0 10-1.835 1.059 1.06 1.06 0 001.835-1.059zm7.956-4.593a1.06 1.06 0 10-1.835 1.06 1.06 1.06 0 001.835-1.06zm7.956-4.594a1.059 1.059 0 10-1.834 1.06 1.059 1.059 0 001.834-1.06zm7.958-4.594a1.058 1.058 0 10-1.834 1.057 1.058 1.058 0 001.834-1.057zm7.956-4.594a1.059 1.059 0 10-1.834 1.06 1.059 1.059 0 001.834-1.06zm7.956-4.593a1.06 1.06 0 10-1.835 1.059 1.06 1.06 0 001.835-1.059zm7.956-4.593a1.058 1.058 0 10-1.834 1.057 1.058 1.058 0 001.834-1.057zm7.956-4.594a1.06 1.06 0 10-1.834 1.06 1.06 1.06 0 001.834-1.06zm7.956-4.593a1.059 1.059 0 10-1.835 1.057 1.059 1.059 0 001.835-1.057zm7.956-4.593a1.058 1.058 0 10-1.834 1.057 1.058 1.058 0 001.834-1.057zm7.956-4.594a1.06 1.06 0 10-1.835 1.059 1.06 1.06 0 001.835-1.059zm7.956-4.593a1.058 1.058 0 10-1.834 1.057 1.058 1.058 0 001.834-1.057zm7.959-4.595a1.06 1.06 0 10-1.836 1.058 1.06 1.06 0 001.836-1.058zm7.956-4.594a1.06 1.06 0 10-1.834 1.06 1.06 1.06 0 001.834-1.06zm7.956-4.593a1.059 1.059 0 10-1.835 1.058 1.059 1.059 0 001.835-1.058zm7.956-4.594a1.06 1.06 0 10-1.834 1.06 1.06 1.06 0 001.834-1.06zM103.904 285.905a1.06 1.06 0 10-1.835 1.059 1.06 1.06 0 001.835-1.059zm7.956-4.593a1.058 1.058 0 10-1.834 1.057 1.058 1.058 0 001.834-1.057zm7.956-4.594a1.06 1.06 0 10-1.835 1.059 1.06 1.06 0 001.835-1.059zm7.956-4.593a1.06 1.06 0 10-1.835 1.059 1.06 1.06 0 001.835-1.059zm7.959-4.595a1.06 1.06 0 00-1.835 1.06 1.059 1.059 0 001.835-1.06zm7.956-4.593a1.06 1.06 0 10-1.836 1.06 1.06 1.06 0 001.836-1.06zm7.956-4.594a1.06 1.06 0 10-1.835 1.063 1.06 1.06 0 001.835-1.063zm7.956-4.593a1.06 1.06 0 10-1.835 1.058 1.06 1.06 0 001.835-1.058zm7.956-4.593a1.06 1.06 0 10-1.836 1.06 1.06 1.06 0 001.836-1.06zm7.955-4.594a1.06 1.06 0 10-1.835 1.059 1.06 1.06 0 001.835-1.059zm7.957-4.593a1.06 1.06 0 10-1.835 1.058 1.06 1.06 0 001.835-1.058zm7.955-4.594a1.059 1.059 0 10-1.834 1.06 1.059 1.059 0 001.834-1.06zm7.959-4.594a1.059 1.059 0 10-1.835 1.058 1.059 1.059 0 001.835-1.058zm7.956-4.594a1.06 1.06 0 10-1.834 1.06 1.06 1.06 0 001.834-1.06zm7.956-4.593a1.06 1.06 0 10-1.835 1.06 1.06 1.06 0 001.835-1.06zm7.956-4.593a1.059 1.059 0 10-1.835 1.058 1.059 1.059 0 001.835-1.058zm7.955-4.594a1.059 1.059 0 10-1.834 1.06 1.059 1.059 0 001.834-1.06zm7.956-4.593a1.06 1.06 0 10-1.835 1.059 1.06 1.06 0 001.835-1.059zm7.956-4.593a1.058 1.058 0 10-1.834 1.057 1.058 1.058 0 001.834-1.057zm7.956-4.594a1.06 1.06 0 10-1.835 1.059 1.06 1.06 0 001.835-1.059zm7.957-4.593a1.06 1.06 0 10-1.836 1.06 1.06 1.06 0 001.836-1.06zm7.958-4.595a1.06 1.06 0 10-1.835 1.06 1.06 1.06 0 001.835-1.06zm7.956-4.594a1.059 1.059 0 10-1.834 1.06 1.059 1.059 0 001.834-1.06zm7.956-4.593a1.06 1.06 0 10-1.835 1.059 1.06 1.06 0 001.835-1.059zm7.956-4.593a1.058 1.058 0 10-1.834 1.057 1.058 1.058 0 001.834-1.057zM108.498 293.862a1.06 1.06 0 10-1.836 1.061 1.06 1.06 0 001.836-1.061zm7.956-4.593a1.06 1.06 0 10-1.835 1.059 1.06 1.06 0 001.835-1.059zm7.956-4.594a1.059 1.059 0 10-1.834 1.06 1.059 1.059 0 001.834-1.06zm7.956-4.593a1.06 1.06 0 10-1.836 1.061 1.06 1.06 0 001.836-1.061zm7.959-4.595a1.06 1.06 0 10-1.834 1.06 1.06 1.06 0 001.834-1.06zm7.956-4.593a1.06 1.06 0 10-1.835 1.06 1.06 1.06 0 001.835-1.06zm7.956-4.593a1.059 1.059 0 10-1.835 1.058 1.059 1.059 0 001.835-1.058zm7.956-4.594a1.06 1.06 0 00-1.835 1.06 1.059 1.059 0 001.835-1.06zm7.956-4.593a1.06 1.06 0 10-1.835 1.06 1.06 1.06 0 001.835-1.06zm7.956-4.594a1.06 1.06 0 10-1.834 1.06 1.06 1.06 0 001.834-1.06zm7.956-4.593a1.06 1.06 0 10-1.837 1.062 1.06 1.06 0 001.837-1.062zm7.956-4.593a1.06 1.06 0 10-1.836 1.06 1.06 1.06 0 001.836-1.06zm7.958-4.595a1.06 1.06 0 10-1.835 1.06 1.06 1.06 0 001.835-1.06zm7.956-4.594a1.06 1.06 0 10-1.834 1.06 1.06 1.06 0 001.834-1.06zm7.956-4.593a1.06 1.06 0 10-1.835 1.06 1.06 1.06 0 001.835-1.06zm7.956-4.593a1.06 1.06 0 10-1.835 1.06 1.06 1.06 0 001.835-1.06zm7.956-4.593a1.06 1.06 0 10-1.836 1.06 1.06 1.06 0 001.836-1.06zm7.956-4.594a1.06 1.06 0 10-1.837 1.062 1.06 1.06 0 001.837-1.062zm7.956-4.593a1.06 1.06 0 10-1.836 1.06 1.06 1.06 0 001.836-1.06zm7.956-4.594a1.06 1.06 0 10-1.834 1.06 1.06 1.06 0 001.834-1.06zm7.956-4.593a1.06 1.06 0 10-1.835 1.06 1.06 1.06 0 001.835-1.06zm7.958-4.595a1.06 1.06 0 10-1.835 1.059 1.06 1.06 0 001.835-1.059zm7.956-4.593a1.058 1.058 0 10-1.834 1.057 1.058 1.058 0 001.834-1.057zm7.956-4.594a1.06 1.06 0 10-1.835 1.059 1.06 1.06 0 001.835-1.059zm7.956-4.593a1.06 1.06 0 10-1.835 1.059 1.06 1.06 0 001.835-1.059zM113.092 301.819a1.059 1.059 0 10-1.835 1.057 1.059 1.059 0 001.835-1.057zm7.956-4.594a1.06 1.06 0 10-1.835 1.06 1.06 1.06 0 001.835-1.06zm7.956-4.593a1.059 1.059 0 10-1.835 1.058 1.059 1.059 0 001.835-1.058zm7.956-4.594a1.06 1.06 0 00-1.835 1.06 1.06 1.06 0 001.835-1.06zm7.958-4.594a1.058 1.058 0 10-1.834 1.057 1.058 1.058 0 001.834-1.057zm7.956-4.594a1.06 1.06 0 10-1.835 1.059 1.06 1.06 0 001.835-1.059zm7.956-4.593a1.058 1.058 0 10-1.834 1.057 1.058 1.058 0 001.834-1.057zm7.956-4.594a1.059 1.059 0 10-1.834 1.06 1.059 1.059 0 001.834-1.06zm7.956-4.593a1.06 1.06 0 10-1.835 1.059 1.06 1.06 0 001.835-1.059zm7.956-4.593a1.058 1.058 0 10-1.834 1.057 1.058 1.058 0 001.834-1.057zm7.956-4.594a1.06 1.06 0 10-1.836 1.061 1.06 1.06 0 001.836-1.061zm7.956-4.593a1.06 1.06 0 10-1.835 1.059 1.06 1.06 0 001.835-1.059zm7.958-4.595a1.06 1.06 0 10-1.835 1.059 1.06 1.06 0 001.835-1.059zm7.956-4.593a1.058 1.058 0 10-1.834 1.057 1.058 1.058 0 001.834-1.057zm7.956-4.594a1.06 1.06 0 10-1.836 1.061 1.06 1.06 0 001.836-1.061zm7.956-4.593a1.06 1.06 0 10-1.835 1.059 1.06 1.06 0 001.835-1.059zm7.956-4.593a1.059 1.059 0 10-1.835 1.058 1.059 1.059 0 001.835-1.058zm7.956-4.594a1.06 1.06 0 10-1.834 1.06 1.06 1.06 0 001.834-1.06zm7.956-4.593a1.06 1.06 0 10-1.835 1.059 1.06 1.06 0 001.835-1.059zm7.956-4.594a1.059 1.059 0 10-1.834 1.06 1.059 1.059 0 001.834-1.06zm7.956-4.593a1.06 1.06 0 10-1.835 1.059 1.06 1.06 0 001.835-1.059zm7.959-4.595a1.06 1.06 0 10-1.835 1.06 1.06 1.06 0 001.835-1.06zm7.956-4.593a1.059 1.059 0 10-1.835 1.058 1.059 1.059 0 001.835-1.058zm7.956-4.594a1.06 1.06 0 10-1.834 1.06 1.06 1.06 0 001.834-1.06zm7.956-4.593a1.06 1.06 0 10-1.835 1.06 1.06 1.06 0 001.835-1.06zM3.238 111.546a1.059 1.059 0 10-1.835 1.057 1.059 1.059 0 001.835-1.057zm7.956-4.594a1.06 1.06 0 10-1.834 1.06 1.06 1.06 0 001.834-1.06zm7.956-4.593a1.06 1.06 0 10-1.836 1.06 1.06 1.06 0 001.836-1.06zm7.956-4.594a1.06 1.06 0 10-1.835 1.06 1.06 1.06 0 001.835-1.06zm7.958-4.595a1.06 1.06 0 10-1.835 1.06 1.06 1.06 0 001.835-1.06zm7.956-4.593a1.06 1.06 0 10-1.835 1.06 1.06 1.06 0 001.835-1.06zm7.956-4.593a1.06 1.06 0 10-1.835 1.06 1.06 1.06 0 001.835-1.06zm7.956-4.594a1.06 1.06 0 10-1.835 1.06 1.06 1.06 0 001.835-1.06zm7.956-4.593a1.06 1.06 0 10-1.835 1.06 1.06 1.06 0 001.835-1.06zm7.956-4.593a1.06 1.06 0 10-1.835 1.06 1.06 1.06 0 001.835-1.06zM82.8 65.61a1.06 1.06 0 10-1.835 1.06 1.06 1.06 0 001.835-1.06zm7.956-4.593a1.06 1.06 0 10-1.835 1.06 1.06 1.06 0 001.835-1.06zm7.958-4.595a1.06 1.06 0 10-1.834 1.06 1.06 1.06 0 001.834-1.06zm7.956-4.593a1.06 1.06 0 10-1.835 1.058 1.06 1.06 0 001.835-1.058zm7.956-4.593a1.059 1.059 0 10-1.834 1.058 1.059 1.059 0 001.834-1.058zm7.956-4.594a1.06 1.06 0 10-1.835 1.06 1.06 1.06 0 001.835-1.06zm7.956-4.593a1.06 1.06 0 10-1.835 1.06 1.06 1.06 0 001.835-1.06zm7.956-4.594a1.06 1.06 0 10-1.835 1.06 1.06 1.06 0 001.835-1.06zm7.956-4.593a1.06 1.06 0 10-1.835 1.059 1.06 1.06 0 001.835-1.059zm7.956-4.593a1.059 1.059 0 10-1.834 1.058 1.059 1.059 0 001.834-1.058zm7.956-4.594a1.06 1.06 0 10-1.835 1.059 1.06 1.06 0 001.835-1.059zm7.959-4.595a1.06 1.06 0 10-1.836 1.062 1.06 1.06 0 001.836-1.062zm7.956-4.593a1.06 1.06 0 10-1.835 1.06 1.06 1.06 0 001.835-1.06zm7.956-4.594a1.06 1.06 0 10-1.835 1.06 1.06 1.06 0 001.835-1.06zm7.956-4.593a1.06 1.06 0 10-1.835 1.06 1.06 1.06 0 001.835-1.06zM7.831 119.502a1.059 1.059 0 10-1.835 1.057 1.059 1.059 0 001.835-1.057zm7.956-4.594a1.06 1.06 0 10-1.834 1.06 1.06 1.06 0 001.834-1.06zm7.956-4.593a1.059 1.059 0 10-1.834 1.057 1.059 1.059 0 001.834-1.057zm7.957-4.594a1.06 1.06 0 10-1.835 1.06 1.06 1.06 0 001.834-1.06zm7.957-4.594a1.059 1.059 0 10-1.834 1.057 1.059 1.059 0 001.834-1.057zm7.957-4.594a1.06 1.06 0 10-1.835 1.06 1.06 1.06 0 001.835-1.06zm7.956-4.593a1.06 1.06 0 10-1.835 1.059 1.06 1.06 0 001.834-1.06zm7.956-4.594a1.06 1.06 0 10-1.836 1.06 1.06 1.06 0 001.836-1.06zm7.955-4.593a1.06 1.06 0 10-1.834 1.06 1.06 1.06 0 001.834-1.06zm7.956-4.593a1.06 1.06 0 10-1.834 1.059 1.06 1.06 0 001.834-1.06zm7.956-4.593a1.06 1.06 0 10-1.835 1.059 1.06 1.06 0 001.835-1.06zm7.957-4.594a1.06 1.06 0 10-1.835 1.059 1.06 1.06 0 001.834-1.06zm7.958-4.595a1.06 1.06 0 10-1.835 1.06 1.06 1.06 0 001.835-1.06zm7.956-4.593a1.06 1.06 0 10-1.835 1.06 1.06 1.06 0 001.835-1.06zm7.956-4.593a1.06 1.06 0 10-1.835 1.06 1.06 1.06 0 001.835-1.06zm7.956-4.594a1.06 1.06 0 10-1.836 1.061 1.06 1.06 0 001.836-1.061zm7.955-4.593a1.059 1.059 0 10-1.834 1.058 1.059 1.059 0 001.834-1.058zm7.956-4.594a1.06 1.06 0 10-1.835 1.059 1.06 1.06 0 001.835-1.059zm7.956-4.593a1.059 1.059 0 10-1.834 1.058 1.059 1.059 0 001.834-1.058zm7.956-4.593a1.06 1.06 0 10-1.835 1.058A1.06 1.06 0 00159 32.225zm7.957-4.594a1.06 1.06 0 10-1.836 1.061 1.06 1.06 0 001.836-1.061zm7.958-4.595a1.06 1.06 0 10-1.835 1.06 1.06 1.06 0 001.835-1.06zm7.956-4.593a1.059 1.059 0 10-1.834 1.058 1.059 1.059 0 001.834-1.058zm7.956-4.593a1.06 1.06 0 10-1.835 1.058 1.06 1.06 0 001.835-1.059zm7.956-4.594a1.059 1.059 0 10-1.835 1.059 1.059 1.059 0 001.835-1.059zM12.425 127.458a1.059 1.059 0 10-1.835 1.057 1.059 1.059 0 001.835-1.057zm7.955-4.594a1.06 1.06 0 10-1.835 1.06 1.06 1.06 0 001.836-1.06zm7.957-4.593a1.059 1.059 0 10-1.835 1.057 1.059 1.059 0 001.835-1.057zm7.956-4.594a1.06 1.06 0 10-1.835 1.06 1.06 1.06 0 001.835-1.06zm7.958-4.594a1.059 1.059 0 10-1.835 1.057 1.059 1.059 0 001.835-1.057zm7.956-4.594a1.06 1.06 0 10-1.834 1.06 1.06 1.06 0 001.834-1.06zm7.956-4.593a1.06 1.06 0 10-1.835 1.059 1.06 1.06 0 001.835-1.06zm7.956-4.594a1.06 1.06 0 10-1.835 1.06 1.06 1.06 0 001.835-1.06zm7.956-4.592a1.06 1.06 0 10-1.835 1.058 1.06 1.06 0 001.835-1.059zm7.955-4.594a1.06 1.06 0 10-1.834 1.06 1.06 1.06 0 001.835-1.06zm7.957-4.594a1.06 1.06 0 10-1.835 1.06 1.06 1.06 0 001.835-1.06zm7.956-4.593a1.06 1.06 0 10-1.835 1.06 1.06 1.06 0 001.835-1.06zm7.958-4.595a1.059 1.059 0 10-1.834 1.058 1.059 1.059 0 001.834-1.058zm7.956-4.594a1.06 1.06 0 10-1.835 1.06 1.06 1.06 0 001.835-1.06zm7.956-4.593a1.059 1.059 0 10-1.834 1.058 1.059 1.059 0 001.834-1.058zm7.956-4.593a1.06 1.06 0 10-1.835 1.06 1.06 1.06 0 001.835-1.06zm7.956-4.594a1.06 1.06 0 10-1.835 1.06 1.06 1.06 0 001.835-1.06zm7.956-4.593a1.06 1.06 0 10-1.835 1.06 1.06 1.06 0 001.835-1.06zm7.956-4.593a1.06 1.06 0 10-1.835 1.06 1.06 1.06 0 001.835-1.06zm7.956-4.594a1.06 1.06 0 10-1.835 1.06 1.06 1.06 0 001.835-1.06zm7.956-4.593a1.06 1.06 0 10-1.835 1.06 1.06 1.06 0 001.835-1.06zm7.958-4.595a1.06 1.06 0 10-1.835 1.059 1.06 1.06 0 001.835-1.059zm7.956-4.593a1.06 1.06 0 10-1.835 1.058 1.06 1.06 0 001.835-1.058zm7.956-4.594a1.059 1.059 0 10-1.834 1.059 1.059 1.059 0 001.834-1.059zm7.957-4.593a1.06 1.06 0 10-1.836 1.062 1.06 1.06 0 001.836-1.062zM17.018 135.414a1.06 1.06 0 10-1.836 1.062 1.06 1.06 0 001.836-1.062zm7.956-4.594a1.06 1.06 0 10-1.834 1.06 1.06 1.06 0 001.834-1.06zm7.956-4.593a1.06 1.06 0 00-1.835 1.06 1.06 1.06 0 001.835-1.06zm7.956-4.593a1.06 1.06 0 10-1.835 1.06 1.06 1.06 0 001.835-1.06zm7.959-4.595a1.06 1.06 0 00-1.835 1.06 1.06 1.06 0 001.835-1.06zm7.955-4.593a1.06 1.06 0 10-1.835 1.06 1.06 1.06 0 001.836-1.06zm7.957-4.594a1.06 1.06 0 00-1.835 1.06 1.06 1.06 0 001.835-1.06zm7.956-4.593a1.06 1.06 0 10-1.836 1.06 1.06 1.06 0 001.836-1.06zm7.955-4.593a1.06 1.06 0 10-1.834 1.059 1.06 1.06 0 001.834-1.06zm7.956-4.594a1.06 1.06 0 10-1.834 1.06 1.06 1.06 0 001.834-1.06zm7.956-4.593a1.06 1.06 0 10-1.834 1.059 1.06 1.06 0 001.835-1.06zm7.956-4.594a1.059 1.059 0 10-1.834 1.059 1.059 1.059 0 001.834-1.059zm7.959-4.595a1.06 1.06 0 10-1.835 1.06 1.06 1.06 0 001.835-1.06zm7.956-4.593a1.06 1.06 0 10-1.835 1.06 1.06 1.06 0 001.835-1.06zm7.956-4.593a1.06 1.06 0 10-1.835 1.06 1.06 1.06 0 001.835-1.06zm7.956-4.594a1.06 1.06 0 10-1.835 1.06 1.06 1.06 0 001.835-1.06zm7.955-4.592a1.059 1.059 0 10-1.834 1.058 1.059 1.059 0 001.834-1.058zm7.956-4.594a1.06 1.06 0 10-1.835 1.058 1.06 1.06 0 001.835-1.058zm7.956-4.594a1.059 1.059 0 10-1.834 1.059 1.059 1.059 0 001.834-1.058zm7.956-4.593a1.06 1.06 0 10-1.835 1.058 1.06 1.06 0 001.835-1.058zm7.957-4.593a1.06 1.06 0 10-1.836 1.061 1.06 1.06 0 001.836-1.061zm7.958-4.595a1.06 1.06 0 10-1.835 1.06 1.06 1.06 0 001.835-1.06zm7.956-4.593a1.059 1.059 0 10-1.834 1.058 1.059 1.059 0 001.834-1.058zm7.956-4.594a1.06 1.06 0 10-1.835 1.058 1.06 1.06 0 001.835-1.058zm7.956-4.593a1.059 1.059 0 10-1.834 1.058 1.059 1.059 0 001.834-1.058zM21.612 143.37a1.06 1.06 0 10-1.835 1.06 1.06 1.06 0 001.835-1.06zm7.956-4.593a1.059 1.059 0 10-1.835 1.057 1.059 1.059 0 001.835-1.057zm7.956-4.594a1.06 1.06 0 10-1.835 1.06 1.06 1.06 0 001.835-1.06zm7.956-4.593a1.06 1.06 0 10-1.836 1.06 1.06 1.06 0 001.836-1.06zm7.958-4.595a1.06 1.06 0 10-1.834 1.06 1.06 1.06 0 001.834-1.06zm7.956-4.593a1.059 1.059 0 10-1.835 1.057 1.059 1.059 0 001.835-1.057zm7.956-4.594a1.06 1.06 0 10-1.834 1.06 1.06 1.06 0 001.834-1.06zm7.956-4.593a1.06 1.06 0 10-1.835 1.06 1.06 1.06 0 001.835-1.06zm7.956-4.593a1.059 1.059 0 10-1.835 1.057 1.059 1.059 0 001.835-1.057zm7.956-4.594a1.06 1.06 0 10-1.836 1.06 1.06 1.06 0 001.836-1.06zm7.956-4.593a1.06 1.06 0 10-1.835 1.06 1.06 1.06 0 001.835-1.06zm7.956-4.594a1.06 1.06 0 10-1.835 1.06 1.06 1.06 0 001.835-1.06zm7.958-4.594a1.059 1.059 0 10-1.834 1.058 1.059 1.059 0 001.834-1.058zm7.956-4.594a1.06 1.06 0 10-1.835 1.06 1.06 1.06 0 001.835-1.06zM133 79.06a1.059 1.059 0 10-1.834 1.058A1.059 1.059 0 00133 79.06zm7.956-4.594a1.06 1.06 0 10-1.835 1.06 1.06 1.06 0 001.835-1.06zm7.956-4.593a1.06 1.06 0 10-1.835 1.06 1.06 1.06 0 001.835-1.06zm7.956-4.593a1.06 1.06 0 10-1.835 1.06 1.06 1.06 0 001.835-1.06zm7.956-4.593a1.06 1.06 0 10-1.835 1.06 1.06 1.06 0 001.835-1.06zm7.956-4.594a1.06 1.06 0 10-1.835 1.06 1.06 1.06 0 001.835-1.06zm7.956-4.593a1.06 1.06 0 10-1.835 1.06 1.06 1.06 0 001.835-1.06zm7.958-4.595a1.06 1.06 0 10-1.835 1.059 1.06 1.06 0 001.835-1.06zm7.956-4.594a1.06 1.06 0 10-1.835 1.059 1.06 1.06 0 001.835-1.059zm7.957-4.593a1.06 1.06 0 10-1.836 1.061 1.06 1.06 0 001.836-1.061zm7.956-4.593a1.06 1.06 0 10-1.836 1.061 1.06 1.06 0 001.836-1.061zM26.205 151.327a1.06 1.06 0 10-1.835 1.06 1.06 1.06 0 001.835-1.06zm7.956-4.594a1.06 1.06 0 10-1.835 1.06 1.06 1.06 0 001.835-1.06zm7.956-4.593a1.06 1.06 0 10-1.835 1.06 1.06 1.06 0 001.836-1.06zm7.956-4.593a1.059 1.059 0 10-1.834 1.057 1.059 1.059 0 001.834-1.057zm7.959-4.595a1.06 1.06 0 10-1.835 1.06 1.06 1.06 0 001.835-1.06zm7.956-4.593a1.059 1.059 0 10-1.835 1.058 1.059 1.059 0 001.835-1.058zm7.956-4.594a1.06 1.06 0 10-1.836 1.06 1.06 1.06 0 001.836-1.06zm7.956-4.593a1.059 1.059 0 10-1.835 1.057 1.059 1.059 0 001.835-1.057zm7.956-4.594a1.06 1.06 0 10-1.835 1.06 1.06 1.06 0 001.835-1.06zm7.956-4.593a1.06 1.06 0 10-1.836 1.06 1.06 1.06 0 001.836-1.06zm7.956-4.594a1.06 1.06 0 10-1.834 1.06 1.06 1.06 0 001.834-1.06zm7.956-4.593a1.06 1.06 0 10-1.835 1.058 1.06 1.06 0 001.835-1.058zm7.958-4.595a1.06 1.06 0 10-1.835 1.06 1.06 1.06 0 001.835-1.06zm7.956-4.593a1.06 1.06 0 10-1.835 1.06 1.06 1.06 0 001.835-1.06zm7.956-4.594a1.06 1.06 0 10-1.835 1.06 1.06 1.06 0 001.835-1.06zm7.956-4.593a1.06 1.06 0 10-1.835 1.06 1.06 1.06 0 001.835-1.06zm7.955-4.593a1.059 1.059 0 10-1.834 1.058 1.059 1.059 0 001.834-1.058zm7.957-4.593a1.06 1.06 0 10-1.836 1.061 1.06 1.06 0 001.836-1.061zm7.956-4.594a1.06 1.06 0 10-1.836 1.062 1.06 1.06 0 001.836-1.062zm7.956-4.593a1.06 1.06 0 10-1.836 1.061 1.06 1.06 0 001.836-1.062zm7.956-4.594a1.06 1.06 0 10-1.835 1.06 1.06 1.06 0 001.835-1.06zm7.958-4.595a1.06 1.06 0 10-1.835 1.06 1.06 1.06 0 001.835-1.06zm7.956-4.593a1.059 1.059 0 10-1.834 1.058 1.059 1.059 0 001.834-1.058zm7.956-4.593a1.06 1.06 0 10-1.835 1.058 1.06 1.06 0 001.835-1.058zm7.956-4.594a1.059 1.059 0 10-1.834 1.059 1.059 1.059 0 001.834-1.059zM30.8 159.283a1.06 1.06 0 10-1.835 1.06 1.06 1.06 0 001.834-1.06zm7.955-4.593a1.059 1.059 0 10-1.834 1.057 1.059 1.059 0 001.834-1.057zm7.956-4.594a1.06 1.06 0 10-1.834 1.06 1.06 1.06 0 001.834-1.06zm7.956-4.593a1.06 1.06 0 10-1.835 1.06 1.06 1.06 0 001.835-1.06zm7.959-4.595a1.06 1.06 0 10-1.835 1.06 1.06 1.06 0 001.835-1.06zm7.955-4.593a1.06 1.06 0 10-1.835 1.06 1.06 1.06 0 001.835-1.06zm7.956-4.594a1.06 1.06 0 10-1.834 1.06 1.06 1.06 0 001.834-1.06zm7.956-4.593a1.06 1.06 0 10-1.835 1.06 1.06 1.06 0 001.835-1.06zm7.957-4.593a1.06 1.06 0 10-1.836 1.06 1.06 1.06 0 001.835-1.06zm7.955-4.593a1.058 1.058 0 10-1.834 1.057 1.058 1.058 0 001.834-1.057zm7.956-4.594a1.06 1.06 0 10-1.835 1.059 1.06 1.06 0 001.835-1.059zm7.956-4.593a1.058 1.058 0 10-1.834 1.057 1.058 1.058 0 001.834-1.057zm7.959-4.595a1.06 1.06 0 10-1.835 1.06 1.06 1.06 0 001.835-1.06zm7.956-4.593a1.06 1.06 0 10-1.835 1.06 1.06 1.06 0 001.835-1.06zm7.956-4.594a1.06 1.06 0 10-1.836 1.062 1.06 1.06 0 001.836-1.062zm7.956-4.593a1.06 1.06 0 10-1.835 1.06 1.06 1.06 0 001.835-1.06zm7.955-4.594a1.06 1.06 0 10-1.835 1.059 1.06 1.06 0 001.835-1.059zm7.956-4.593a1.059 1.059 0 10-1.834 1.058 1.059 1.059 0 001.834-1.058zm7.956-4.593a1.06 1.06 0 10-1.835 1.058 1.06 1.06 0 001.835-1.058zm7.956-4.594a1.059 1.059 0 10-1.834 1.058 1.059 1.059 0 001.834-1.058zm7.956-4.593a1.06 1.06 0 10-1.835 1.058 1.06 1.06 0 001.835-1.058zm7.959-4.595a1.06 1.06 0 10-1.835 1.06 1.06 1.06 0 001.835-1.06zm7.956-4.593a1.06 1.06 0 10-1.835 1.059 1.06 1.06 0 001.835-1.06zm7.956-4.594a1.06 1.06 0 10-1.835 1.059 1.06 1.06 0 001.835-1.059zm7.956-4.593a1.06 1.06 0 10-1.835 1.058 1.06 1.06 0 001.835-1.058zM35.393 167.239a1.06 1.06 0 10-1.836 1.06 1.06 1.06 0 001.836-1.06zm7.956-4.593a1.059 1.059 0 10-1.835 1.058 1.059 1.059 0 001.834-1.058zm7.955-4.594a1.06 1.06 0 10-1.834 1.06 1.06 1.06 0 001.834-1.06zm7.956-4.593a1.06 1.06 0 10-1.835 1.06 1.06 1.06 0 001.836-1.06zm7.959-4.595a1.06 1.06 0 10-1.834 1.06 1.06 1.06 0 001.834-1.06zm7.956-4.593a1.059 1.059 0 10-1.835 1.058 1.059 1.059 0 001.835-1.058zm7.955-4.594a1.06 1.06 0 10-1.833 1.06 1.06 1.06 0 001.834-1.06zm7.957-4.593a1.06 1.06 0 10-1.836 1.06 1.06 1.06 0 001.836-1.06zm7.956-4.593a1.06 1.06 0 10-1.835 1.06 1.06 1.06 0 001.835-1.06zm7.956-4.594a1.06 1.06 0 10-1.835 1.06 1.06 1.06 0 001.835-1.06zm7.956-4.593a1.06 1.06 0 10-1.835 1.06 1.06 1.06 0 001.835-1.06zm7.956-4.593a1.059 1.059 0 10-1.835 1.058 1.059 1.059 0 001.835-1.058zm7.958-4.595a1.06 1.06 0 10-1.835 1.059 1.06 1.06 0 001.835-1.059zm7.956-4.593a1.059 1.059 0 10-1.835 1.057 1.059 1.059 0 001.835-1.057zm7.956-4.594a1.06 1.06 0 10-1.835 1.06 1.06 1.06 0 001.835-1.06zm7.956-4.593a1.06 1.06 0 10-1.835 1.059 1.06 1.06 0 001.835-1.06zm7.956-4.594a1.06 1.06 0 10-1.836 1.062 1.06 1.06 0 001.836-1.062zm7.956-4.592a1.06 1.06 0 10-1.835 1.059 1.06 1.06 0 001.835-1.06zm7.956-4.594a1.06 1.06 0 10-1.835 1.06 1.06 1.06 0 001.835-1.06zm7.956-4.594a1.06 1.06 0 10-1.835 1.06 1.06 1.06 0 001.835-1.06zm7.956-4.593a1.06 1.06 0 10-1.835 1.06 1.06 1.06 0 001.835-1.06zm7.958-4.595a1.06 1.06 0 10-1.835 1.059 1.06 1.06 0 001.835-1.059zm7.956-4.594a1.059 1.059 0 10-1.834 1.059 1.059 1.059 0 001.834-1.059zm7.956-4.593a1.06 1.06 0 10-1.835 1.059 1.06 1.06 0 001.835-1.059zm7.956-4.593a1.059 1.059 0 10-1.834 1.058 1.059 1.059 0 001.834-1.058zM39.986 175.195a1.06 1.06 0 10-1.836 1.062 1.06 1.06 0 001.836-1.062zm7.956-4.593a1.059 1.059 0 10-1.835 1.058 1.059 1.059 0 001.835-1.058zm7.956-4.594a1.06 1.06 0 10-1.834 1.06 1.06 1.06 0 001.834-1.06zm7.956-4.593a1.06 1.06 0 10-1.836 1.062 1.06 1.06 0 001.836-1.062zm7.958-4.595a1.06 1.06 0 10-1.835 1.06 1.06 1.06 0 001.835-1.06zm7.956-4.593a1.059 1.059 0 10-1.835 1.057 1.059 1.059 0 001.835-1.057zm7.956-4.594a1.06 1.06 0 10-1.834 1.06 1.06 1.06 0 001.834-1.06zm7.956-4.593a1.06 1.06 0 10-1.836 1.062 1.06 1.06 0 001.836-1.062zm7.956-4.593a1.06 1.06 0 10-1.835 1.059 1.06 1.06 0 001.835-1.059zm7.956-4.594a1.06 1.06 0 10-1.835 1.059 1.06 1.06 0 001.835-1.059zm7.956-4.593a1.06 1.06 0 10-1.835 1.059 1.06 1.06 0 001.835-1.059zm7.956-4.593a1.058 1.058 0 10-1.834 1.057 1.058 1.058 0 001.834-1.057zm7.958-4.595a1.06 1.06 0 10-1.835 1.059 1.06 1.06 0 001.835-1.059zm7.956-4.594a1.06 1.06 0 10-1.835 1.059 1.06 1.06 0 001.835-1.059zm7.956-4.593a1.06 1.06 0 10-1.835 1.059 1.06 1.06 0 001.835-1.059zm7.956-4.593a1.058 1.058 0 10-1.834 1.057 1.058 1.058 0 001.834-1.057zm7.956-4.594a1.06 1.06 0 10-1.834 1.06 1.06 1.06 0 001.834-1.06zm7.956-4.593a1.059 1.059 0 10-1.834 1.058 1.059 1.059 0 001.834-1.058zm7.956-4.594a1.06 1.06 0 10-1.835 1.059 1.06 1.06 0 001.835-1.059zm7.956-4.593a1.059 1.059 0 10-1.834 1.058 1.059 1.059 0 001.834-1.058zm7.956-4.593a1.06 1.06 0 10-1.835 1.058 1.06 1.06 0 001.835-1.058zm7.959-4.595a1.06 1.06 0 10-1.835 1.06 1.06 1.06 0 001.835-1.06zm7.956-4.594a1.06 1.06 0 10-1.835 1.06 1.06 1.06 0 001.835-1.06zm7.956-4.593a1.06 1.06 0 10-1.835 1.06 1.06 1.06 0 001.835-1.06zm7.956-4.593a1.06 1.06 0 10-1.835 1.06 1.06 1.06 0 001.835-1.06zM44.58 183.152a1.059 1.059 0 10-1.835 1.058 1.059 1.059 0 001.835-1.058zm7.956-4.594a1.06 1.06 0 10-1.834 1.06 1.06 1.06 0 001.834-1.06zm7.956-4.593a1.06 1.06 0 10-1.836 1.06 1.06 1.06 0 001.836-1.06zm7.956-4.594a1.06 1.06 0 10-1.835 1.06 1.06 1.06 0 001.835-1.06zm7.958-4.594a1.06 1.06 0 10-1.835 1.06 1.06 1.06 0 001.835-1.06zm7.956-4.594a1.06 1.06 0 10-1.834 1.06 1.06 1.06 0 001.834-1.06zm7.956-4.593a1.06 1.06 0 10-1.835 1.06 1.06 1.06 0 001.835-1.06zm7.956-4.593a1.059 1.059 0 10-1.835 1.058 1.059 1.059 0 001.835-1.058zm7.956-4.594a1.06 1.06 0 10-1.834 1.06 1.06 1.06 0 001.834-1.06zm7.956-4.593a1.059 1.059 0 10-1.835 1.058 1.059 1.059 0 001.835-1.058zm7.956-4.594a1.06 1.06 0 10-1.834 1.06 1.06 1.06 0 001.834-1.06zm7.956-4.593a1.06 1.06 0 00-1.835 1.06 1.059 1.059 0 001.835-1.06zm7.958-4.595a1.059 1.059 0 10-1.834 1.06 1.059 1.059 0 001.834-1.06zm7.956-4.593a1.058 1.058 0 10-1.834 1.057 1.058 1.058 0 001.834-1.057zm7.956-4.594a1.059 1.059 0 10-1.834 1.06 1.059 1.059 0 001.834-1.06zm7.956-4.593a1.06 1.06 0 10-1.836 1.062 1.06 1.06 0 001.836-1.062zm7.956-4.593a1.06 1.06 0 10-1.835 1.06 1.06 1.06 0 001.835-1.06zm7.956-4.593a1.059 1.059 0 10-1.835 1.058 1.059 1.059 0 001.835-1.058zm7.956-4.594a1.06 1.06 0 10-1.834 1.06 1.06 1.06 0 001.834-1.06zm7.956-4.593a1.06 1.06 0 10-1.835 1.06 1.06 1.06 0 001.835-1.06zm7.956-4.594a1.06 1.06 0 10-1.835 1.06 1.06 1.06 0 001.835-1.06zm7.958-4.594a1.06 1.06 0 10-1.835 1.058 1.06 1.06 0 001.835-1.058zm7.956-4.594a1.059 1.059 0 10-1.834 1.058 1.059 1.059 0 001.834-1.058zm7.957-4.593a1.06 1.06 0 10-1.836 1.061 1.06 1.06 0 001.836-1.061zm7.956-4.594a1.06 1.06 0 10-1.836 1.062 1.06 1.06 0 001.836-1.062zM49.173 191.108a1.059 1.059 0 10-1.835 1.058 1.059 1.059 0 001.835-1.058zm7.956-4.594a1.06 1.06 0 10-1.834 1.06 1.06 1.06 0 001.834-1.06zm7.956-4.593a1.06 1.06 0 10-1.835 1.06 1.06 1.06 0 001.835-1.06zm7.956-4.593a1.059 1.059 0 10-1.835 1.057 1.059 1.059 0 001.835-1.057zM81 172.733a1.06 1.06 0 10-1.836 1.06 1.06 1.06 0 001.835-1.06zm7.955-4.594a1.06 1.06 0 10-1.834 1.06 1.06 1.06 0 001.834-1.06zm7.956-4.593a1.06 1.06 0 10-1.835 1.06 1.06 1.06 0 001.835-1.06zm7.956-4.593a1.06 1.06 0 10-1.835 1.059 1.06 1.06 0 001.835-1.059zm7.956-4.594a1.06 1.06 0 10-1.835 1.059 1.06 1.06 0 001.835-1.059zm7.956-4.593a1.058 1.058 0 10-1.834 1.057 1.058 1.058 0 001.834-1.057zm7.956-4.593a1.058 1.058 0 10-1.834 1.057 1.058 1.058 0 001.834-1.057zm7.956-4.594a1.059 1.059 0 10-1.834 1.06 1.059 1.059 0 001.834-1.06zm7.959-4.594a1.06 1.06 0 10-1.836 1.06 1.06 1.06 0 001.836-1.06zm7.956-4.594a1.06 1.06 0 10-1.836 1.06 1.06 1.06 0 001.836-1.06zm7.955-4.593a1.058 1.058 0 10-1.834 1.057 1.058 1.058 0 001.834-1.057zm7.956-4.594a1.059 1.059 0 10-1.834 1.06 1.059 1.059 0 001.834-1.06zm7.956-4.593a1.06 1.06 0 10-1.835 1.059 1.06 1.06 0 001.835-1.059zm7.956-4.593a1.058 1.058 0 10-1.834 1.057 1.058 1.058 0 001.834-1.057zm7.956-4.594a1.06 1.06 0 10-1.835 1.059 1.06 1.06 0 001.835-1.059zm7.956-4.593a1.058 1.058 0 10-1.834 1.057 1.058 1.058 0 001.834-1.057zm7.956-4.594a1.06 1.06 0 10-1.835 1.06 1.06 1.06 0 001.835-1.06zm7.959-4.595a1.06 1.06 0 10-1.835 1.06 1.06 1.06 0 001.835-1.06zm7.956-4.593a1.06 1.06 0 10-1.835 1.06 1.06 1.06 0 001.835-1.06zm7.956-4.593a1.06 1.06 0 10-1.835 1.06 1.06 1.06 0 001.835-1.06zm7.956-4.594a1.06 1.06 0 10-1.835 1.06 1.06 1.06 0 001.835-1.06zM53.767 199.064a1.06 1.06 0 10-1.834 1.06 1.06 1.06 0 001.834-1.06zm7.956-4.593a1.06 1.06 0 10-1.836 1.06 1.06 1.06 0 001.836-1.06zm7.956-4.593a1.059 1.059 0 10-1.835 1.057 1.059 1.059 0 001.835-1.057zm7.956-4.594a1.06 1.06 0 10-1.836 1.06 1.06 1.06 0 001.836-1.06zm7.958-4.595a1.06 1.06 0 10-1.834 1.06 1.06 1.06 0 001.834-1.06zm7.956-4.593a1.06 1.06 0 10-1.835 1.06 1.06 1.06 0 001.835-1.06zm7.956-4.593a1.058 1.058 0 10-1.834 1.057 1.058 1.058 0 001.834-1.057zm7.956-4.594a1.06 1.06 0 10-1.834 1.06 1.06 1.06 0 001.834-1.06zm7.956-4.593a1.059 1.059 0 10-1.835 1.057 1.059 1.059 0 001.835-1.057zm7.956-4.594a1.06 1.06 0 10-1.834 1.06 1.06 1.06 0 001.834-1.06zm7.956-4.593a1.06 1.06 0 10-1.835 1.06 1.06 1.06 0 001.835-1.06zm7.956-4.593a1.06 1.06 0 10-1.835 1.06 1.06 1.06 0 001.835-1.06zm7.958-4.595a1.06 1.06 0 10-1.835 1.059 1.06 1.06 0 001.835-1.059zm7.956-4.594a1.059 1.059 0 10-1.834 1.06 1.059 1.059 0 001.834-1.06zm7.956-4.593a1.06 1.06 0 10-1.835 1.059 1.06 1.06 0 001.835-1.059zm7.956-4.593a1.06 1.06 0 10-1.835 1.059 1.06 1.06 0 001.835-1.059zm7.956-4.593a1.059 1.059 0 10-1.835 1.058 1.059 1.059 0 001.835-1.058zm7.956-4.594a1.06 1.06 0 10-1.834 1.06 1.06 1.06 0 001.834-1.06zm7.956-4.593a1.059 1.059 0 10-1.835 1.057 1.059 1.059 0 001.835-1.057zm7.956-4.594a1.06 1.06 0 10-1.834 1.06 1.06 1.06 0 001.834-1.06zm7.956-4.593a1.06 1.06 0 10-1.835 1.059 1.06 1.06 0 001.835-1.059zm7.959-4.595a1.06 1.06 0 10-1.836 1.06 1.06 1.06 0 001.836-1.06zm7.956-4.594a1.06 1.06 0 10-1.836 1.062 1.06 1.06 0 001.836-1.061zm7.956-4.593a1.06 1.06 0 10-1.835 1.06 1.06 1.06 0 001.835-1.06zm7.956-4.593a1.06 1.06 0 10-1.835 1.06 1.06 1.06 0 001.835-1.06z" fill="#E2E7EE"/><path d="M188.101 63.17L56.766 159.262a2.825 2.825 0 00-.612 3.948l59 80.639a2.825 2.825 0 003.948.612l131.336-96.092a2.824 2.824 0 00.611-3.948l-59-80.64a2.825 2.825 0 00-3.948-.611z" fill="#262B37"/><path d="M182.631 63.183L51.295 159.276a1.765 1.765 0 00-.382 2.467l59 80.639c.576.787 1.68.959 2.467.383l131.336-96.093c.787-.575.958-1.68.383-2.467l-59-80.64a1.766 1.766 0 00-2.468-.382z" fill="#fff" stroke="#262B37" stroke-width="1.5"/><path d="M177.506 83.194l-19.764 14.461a3.402 3.402 0 00-.737 4.749l10.413 14.231a3.401 3.401 0 004.748.736l19.765-14.461a3.402 3.402 0 00.736-4.749l-10.412-14.23a3.402 3.402 0 00-4.749-.737zm7.361 9.18l-5.979 4.375-2.042-2.792a.52.52 0 01.113-.728l5.559-4.067 2.349 3.212zm-5.437 5.116l5.98-4.375 2.349 3.212-5.979 4.375-2.35-3.212zm5.275-6.893l.84-.615 2.349 3.212-.839.614-2.35-3.211zm-.542-.742l-2.35-3.211.84-.615 2.349 3.212-.839.614zm-2.187-1.434l-5.559 4.067a1.44 1.44 0 00-.312 2.01l7.827 10.699-7.165 5.242-11.026-15.071 13.464-9.851a.52.52 0 01.727.113l2.044 2.79zm-11.735 14.654l-5.978 4.375-2.35-3.212 5.978-4.374 2.35 3.211zm-5.274 6.894l-.839.614-2.35-3.212.84-.615 2.349 3.213zm-.162-1.778l5.978-4.374 2.351 3.211-5.979 4.375-2.35-3.212zm4.346-16.456l-.615-.84 6.77-4.953.615.84-6.77 4.953zm-.74.542l-6.77 4.953-.615-.84 6.769-4.953.616.84zm-3.412 3.634l2.35 3.211-5.979 4.375-2.042-2.792a.52.52 0 01.112-.727l5.559-4.067zm-2.924 10.105l-.84.614-2.35-3.212.841-.615 2.349 3.213zm2.595 5.308l.84-.615 2.349 3.213-.839.614-2.35-3.212zm3.027.82l5.979-4.374 2.35 3.211-5.559 4.068a.522.522 0 01-.727-.113l-2.043-2.792zm12.825-3.314l.614.84-6.77 4.953-.614-.84 6.77-4.953zm.74-.542l6.77-4.953.614.84-6.77 4.953-.614-.84zm3.411-3.633l-2.35-3.212 5.979-4.375 2.043 2.792a.522.522 0 01-.113.727l-5.559 4.068zm2.924-10.106l.84-.614 2.349 3.212-.839.614-2.35-3.212zm-6.084-10.076l.598.814-.841.615-.596-.815a1.44 1.44 0 00-2.011-.311l-2.001 1.464-.614-.84 2.001-1.465a2.48 2.48 0 013.464.538zm-23.229 13.923l2.001-1.464.614.84-2.001 1.465c-.64.468-.78 1.37-.312 2.011l.597.815-.84.614-.596-.815a2.482 2.482 0 01.537-3.466zm9.874 17.697l-.596-.816.839-.614.598.815c.468.64 1.37.78 2.01.312l2.001-1.464.615.839-2.001 1.464a2.483 2.483 0 01-3.466-.536zm23.231-13.925l-2.002 1.465-.614-.84 2.001-1.464a1.44 1.44 0 00.312-2.011l-.597-.816.841-.614.596.815a2.483 2.483 0 01-.537 3.465z" fill="#0C64F5"/><path d="M91.277 175.941c5.002-3.66 6.09-10.683 2.43-15.685-3.66-5.003-10.682-6.091-15.685-2.431-5.002 3.66-6.09 10.683-2.43 15.685 3.66 5.003 10.682 6.091 15.685 2.431z" stroke="#FA0" stroke-width=".871"/><path d="M101.74 168.285c5.002-3.66 6.09-10.683 2.43-15.685-3.66-5.003-10.682-6.091-15.685-2.431-5.002 3.66-6.09 10.683-2.43 15.685 3.66 5.003 10.682 6.091 15.685 2.431z" stroke="#D92A45" stroke-width=".871"/><path d="M105.83 206.984a2.637 2.637 0 113.113 4.257 2.637 2.637 0 01-3.113-4.257zm8.51-6.226a2.636 2.636 0 113.113 4.254 2.636 2.636 0 01-3.113-4.254zm8.51-6.227a2.637 2.637 0 113.114 4.257 2.637 2.637 0 01-3.114-4.257zm8.513-6.228a2.636 2.636 0 113.113 4.254 2.636 2.636 0 01-3.113-4.254zm8.51-6.227a2.638 2.638 0 013.114 4.256 2.638 2.638 0 01-3.114-4.256zm8.51-6.226a2.637 2.637 0 113.114 4.257 2.637 2.637 0 01-3.114-4.257zm8.511-6.227a2.636 2.636 0 113.113 4.254 2.636 2.636 0 01-3.113-4.254zm8.51-6.226a2.636 2.636 0 113.113 4.254 2.636 2.636 0 01-3.113-4.254zm8.512-6.229a2.638 2.638 0 013.114 4.256 2.638 2.638 0 01-3.114-4.256zm8.511-6.226a2.636 2.636 0 113.113 4.254 2.636 2.636 0 01-3.113-4.254zm8.51-6.227a2.637 2.637 0 113.113 4.256 2.637 2.637 0 01-3.113-4.256zm8.51-6.226a2.637 2.637 0 113.114 4.257 2.637 2.637 0 01-3.114-4.257zm-81.677 81.635c.005-.719-.28-1.463-.847-2.238-.567-.775-1.19-1.272-1.876-1.484-.679-.218-1.321-.105-1.934.344-.613.448-.915 1.027-.92 1.744.002.713.287 1.458.854 2.233.567.775 1.19 1.271 1.869 1.489.686.213 1.328.1 1.941-.349.613-.449.915-1.027.913-1.739zm-1.491.949c-.726.532-1.591.191-2.422-.944-.83-1.134-.893-2.063-.166-2.593.732-.537 1.591-.192 2.422.943.83 1.134.899 2.058.166 2.594zm2.739-7.446l-.505-.691-3.032 2.217.557.761 2.066-1.51-.038 2.181.68.249.183-.134c.563-.413 1.138-.368 1.494.119.356.487.23 1.055-.334 1.467-.5.366-.972.387-1.429.072l-.397.907c.75.479 1.65.362 2.404-.19.486-.356.792-.795.916-1.321.126-.524.011-1.035-.35-1.528-.541-.74-1.411-.894-2.247-.542l.032-2.057zm4.52-5.45l-.388.283 1.822 8.406.388-.282-1.822-8.407zm9.479 1.722l-.573-.783-2.044 1.496.299-1.929c.139-.977.029-1.719-.337-2.221-.345-.471-.768-.724-1.28-.773a2.016 2.016 0 00-1.413.407c-.683.5-1.03 1.284-.86 2.166l.977-.099c-.102-.553.052-.979.468-1.283.444-.325.968-.275 1.318.205.222.302.279.824.167 1.544l-.436 3.013.464.634 3.25-2.377zm-3.053-4.639l.703.546.788-1.009 2.975 4.067.811-.593-3.609-4.933-.706.515-.962 1.407zm33.546-17.671l-5.393-3.63-.973.712 1.82 6.244.88-.646-.381-1.246 2.1-1.537 1.072.741.875-.638zm-5.184-2.323l2.412 1.656-1.564 1.144-.848-2.8zm6.363 1.459l-3.764-5.145-.762.557 3.765 5.145.761-.557zm3.173-4.529a2.61 2.61 0 00-.204-.338c-.376-.515-.87-.835-1.465-.952-.594-.117-1.151.009-1.665.386-.543.397-.865.903-.947 1.516-.088.605.055 1.17.442 1.699.393.536.893.851 1.503.945.606.088 1.2-.076 1.771-.494.683-.5 1.012-1.13.981-1.897l-.896.092c.008.439-.187.808-.589 1.102-.585.428-1.232.446-1.736-.006l2.805-2.053zm-3.266 1.438c-.286-.614-.134-1.234.43-1.646.5-.367 1.119-.364 1.643.13l-2.073 1.516zm5.286-3.479l-.003-2.637-.888.649.004 1.707-1.625-.521-.881.646 2.507.793.001 2.782.888-.65-.001-1.85 1.756.566.881-.645-2.639-.84zm4.835-.767l.811-.593-3.61-4.934-.81.593 3.609 4.934zm2.475-3.109l-2.946-1.957-.832.609 3.953 2.519.881-.646-1.204-4.529-.832.609.98 3.395zm3.291-5.752c-.578-.183-1.131-.081-1.667.311a2.043 2.043 0 00-.848 1.443c-.083.612.068 1.173.45 1.695.376.514.87.835 1.478.941.608.107 1.146-.016 1.632-.372.537-.391.801-.888.796-1.501l.371.508.762-.557-2.579-3.525-.761.557.366.5zm-.395 3.469a1.383 1.383 0 01-.909-.577c-.238-.324-.328-.67-.271-1.036.051-.373.242-.675.559-.907a1.317 1.317 0 011.034-.258c.366.056.668.247.905.571.237.325.327.669.276 1.043a1.344 1.344 0 01-.564.9 1.34 1.34 0 01-1.03.264zm3.401-6.577c-.501.366-.726.812-.696 1.342l-.33-.451-.761.557 2.579 3.525.761-.557-1.382-1.89c-.501-.683-.383-1.278.152-1.67.487-.355 1.001-.288 1.388.24l1.526 2.086.761-.557-1.583-2.163c-.66-.902-1.605-1.055-2.415-.462zm6.485.947c.522-.382.83-.878.926-1.501a2.218 2.218 0 00-.421-1.714 2.22 2.22 0 00-1.507-.921c-.623-.097-1.188.047-1.71.428-.514.377-.83.878-.926 1.5-.096.623.04 1.194.421 1.715.382.521.885.825 1.508.922.622.096 1.195-.053 1.709-.429zm-1.556-.485a1.342 1.342 0 01-.899-.565 1.341 1.341 0 01.284-1.918 1.342 1.342 0 011.915.31c.232.317.322.662.265 1.028-.056.367-.24.662-.55.89a1.32 1.32 0 01-1.015.255zm4.628-3.202l-2.946-1.957-.831.609 3.953 2.519.88-.645-1.203-4.53-.833.609.98 3.395z" fill="#262B37"/></g><defs><clipPath id="clip0"><path fill="#fff" transform="rotate(-30 210.86 56.5)" d="M0 0h226v226H0z"/></clipPath></defs></svg>