<svg width="303" height="268" viewBox="0 0 303 268" fill="none" xmlns="http://www.w3.org/2000/svg">
<g opacity="0.4">
<g clip-path="url(#clip0)">
<path d="M174.386 260.424C256.415 245.747 314.416 179.46 293.583 95.1813C270.028 0.249369 161.247 -38.8124 74.4823 -17.7427C73.2986 -17.3876 72.7067 -19.3999 74.0088 -19.6366C157.341 -39.8777 259.966 -6.61603 290.624 80.8586C321.163 168.215 272.514 231.306 189.419 258.649" fill="#1ABF7E"/>
<path d="M243.631 232.845C282.22 167.268 226.941 99.5612 180.304 56.4749C152.961 31.144 73.0618 -28.9875 32.4613 1.1966C31.9878 1.55171 31.6327 0.723128 31.9878 0.486391C73.8904 -30.763 150.949 30.4337 180.896 55.7647C230.256 97.4306 281.983 169.399 244.46 233.2C244.105 233.792 243.395 233.318 243.631 232.845Z" fill="#1ABF7E"/>
<path d="M60.2785 251.783C3.2247 215.089 52.2294 114.238 81.94 72.6909C120.883 18.3596 201.138 -19.2818 258.073 27.1189C258.547 27.474 257.836 28.0658 257.481 27.7107C192.26 -25.4369 113.9 29.6046 74.7195 84.5278C48.7967 120.749 10.2085 218.403 60.8704 251.073" fill="#1ABF7E"/>
<path d="M240.318 231.069C239.016 230.951 237.714 230.833 236.53 230.477C236.412 230.477 236.293 230.359 236.175 230.122V230.004C236.175 229.767 236.293 229.531 236.53 229.412C236.885 229.412 237.24 229.294 237.477 229.294C238.069 229.175 238.306 230.004 237.714 230.122C236.885 230.241 239.608 230.004 240.318 230.122C240.91 230.241 240.91 231.069 240.318 231.069Z" fill="#1ABF7E"/>
<path d="M221.023 224.322C219.603 223.611 218.537 222.783 217.235 221.717C216.762 221.362 217.472 220.771 217.827 221.126C218.893 222.073 220.076 222.901 221.378 223.611C221.852 223.848 221.497 224.558 221.023 224.322Z" fill="#1ABF7E"/>
<path d="M204.57 215.089C202.439 214.024 201.137 212.84 199.835 210.828C199.48 210.354 200.309 209.881 200.546 210.354C201.611 212.248 203.031 213.669 204.925 214.379C205.517 214.616 205.044 215.444 204.57 215.089Z" fill="#1ABF7E"/>
<path d="M182.553 200.885C182.435 200.766 181.133 198.754 181.488 199.583C181.606 200.175 180.778 200.293 180.66 199.819C180.541 199.464 180.423 199.109 180.304 198.754C180.186 198.517 180.423 198.281 180.66 198.162C180.778 198.162 180.778 198.162 180.896 198.044C181.015 198.044 181.251 198.044 181.37 198.162C182.08 198.754 182.672 199.464 183.264 200.175C183.5 200.766 182.909 201.358 182.553 200.885Z" fill="#1ABF7E"/>
<path d="M165.153 189.166C163.614 186.443 161.957 184.076 159.708 181.708C159.353 181.353 159.945 180.643 160.3 181.117C162.549 183.484 164.325 185.851 165.863 188.692C166.1 189.284 165.39 189.639 165.153 189.166Z" fill="#1ABF7E"/>
<path d="M145.149 171.766C143.255 169.872 141.835 168.097 140.533 165.848C140.296 165.374 141.006 164.901 141.243 165.374C142.545 167.505 143.965 169.399 145.741 171.056C146.096 171.53 145.504 172.121 145.149 171.766Z" fill="#1ABF7E"/>
<path d="M125.973 151.762C125.145 150.933 124.198 150.223 123.369 149.394C122.067 148.211 122.304 147.264 123.842 148.684C124.316 149.039 123.606 149.631 123.251 149.276C122.895 148.921 122.422 148.566 122.067 148.211C121.593 147.856 122.304 147.264 122.659 147.619C123.961 148.802 125.263 149.986 126.565 151.17C126.92 151.525 126.328 152.117 125.973 151.762Z" fill="#1ABF7E"/>
<path d="M109.52 134.361C108.455 133.414 107.508 132.467 106.442 131.52C105.969 131.165 106.679 130.573 107.034 130.928C107.153 131.047 107.271 131.165 107.389 131.283C107.863 131.639 107.153 132.23 106.797 131.875C105.85 131.047 108.099 131.875 108.336 132.112C108.928 132.704 109.52 133.177 110.112 133.769C110.585 134.124 109.875 134.716 109.52 134.361Z" fill="#1ABF7E"/>
<path d="M92.356 115.304C89.2784 114.475 87.858 113.055 87.5029 109.859C87.3845 109.267 88.3314 109.267 88.3314 109.859C89.7519 111.398 91.1723 112.937 92.5927 114.475C93.1846 114.594 92.9478 115.422 92.356 115.304Z" fill="#1ABF7E"/>
<path d="M72.1158 95.2992C69.2749 93.8788 67.7361 92.2216 66.4341 89.2624C66.1973 88.7889 66.9075 88.3154 67.1443 88.7889C68.2096 91.393 69.9851 93.1686 72.4709 94.4706C73.0627 94.7073 72.7076 95.5359 72.1158 95.2992Z" fill="#1ABF7E"/>
<path d="M56.491 74.2299C55.0705 72.0993 53.8869 69.9686 52.8215 67.6012C52.5848 67.1278 53.295 66.6543 53.5317 67.1278C54.5971 69.4951 55.7808 71.6258 57.2012 73.7564C57.5563 74.3483 56.8461 74.7034 56.491 74.2299Z" fill="#1ABF7E"/>
<path d="M46.5471 56.001C44.6532 54.4622 43.943 53.0417 43.7062 50.6744C43.5879 50.0825 44.5348 50.0825 44.5348 50.6744C45.3634 52.2132 46.3104 53.7519 47.139 55.4091C47.6124 55.7642 46.9022 56.3561 46.5471 56.001Z" fill="#1ABF7E"/>
<path d="M35.5388 35.1682C34.4734 33.2743 34.3551 32.0906 34.5918 29.96C34.7102 29.3682 35.5388 29.3682 35.4204 29.96C35.6571 31.4988 36.0122 33.156 36.249 34.6948C36.4857 35.1682 35.7755 35.6417 35.5388 35.1682Z" fill="#1ABF7E"/>
<path d="M31.8698 18.5965C31.0412 17.6496 31.1596 18.0047 30.8045 16.7026C30.6861 16.1108 31.5147 15.874 31.6331 16.4659C31.8698 16.9393 32.2249 17.4128 32.4617 17.8863C32.9352 18.3598 32.3433 18.9516 31.8698 18.5965Z" fill="#1ABF7E"/>
<path d="M32.2253 5.33932C31.6334 5.33932 31.6334 4.51074 32.2253 4.51074C32.8172 4.51074 32.8172 5.33932 32.2253 5.33932Z" fill="#1ABF7E"/>
<path d="M33.1721 2.85397C32.5802 2.85397 32.5802 2.02539 33.1721 2.02539C33.6456 2.02539 33.6456 2.85397 33.1721 2.85397Z" fill="#1ABF7E"/>
<path d="M255.35 28.0662C256.534 29.8418 257.007 31.1438 257.244 33.2745C257.244 33.8663 256.416 33.8663 256.416 33.2745C255.824 31.7357 255.232 30.0785 254.64 28.5397C254.285 28.0662 254.995 27.5928 255.35 28.0662Z" fill="#1ABF7E"/>
<path d="M257.245 42.507C256.416 45.5846 255.824 48.4255 255.469 51.5031C255.351 52.0949 254.522 52.0949 254.64 51.5031C254.996 48.3071 255.587 45.3479 256.534 42.2703C256.534 41.7968 257.363 42.0336 257.245 42.507Z" fill="#1ABF7E"/>
<path d="M251.681 62.6296C250.379 64.1684 249.787 66.0623 249.906 68.1929C249.906 68.7847 249.077 68.7847 249.077 68.1929C249.077 65.7072 249.551 64.1684 250.971 62.1561C251.208 61.6826 252.036 62.1561 251.681 62.6296Z" fill="#1ABF7E"/>
<path d="M243.513 85.8297C243.04 87.3685 242.448 88.6705 241.62 90.091C241.383 90.5644 240.554 90.091 240.909 89.6175C241.738 88.3154 242.33 87.0134 242.685 85.5929C242.803 85.1195 243.75 85.2378 243.513 85.8297Z" fill="#1ABF7E"/>
<path d="M235.227 107.611C234.399 109.149 233.452 110.688 232.623 112.345C232.623 112.937 231.676 112.937 231.794 112.345C232.031 109.86 232.741 108.557 234.635 107.019C234.99 106.664 235.582 107.255 235.227 107.611Z" fill="#1ABF7E"/>
<path d="M225.166 127.615C223.509 130.574 222.325 133.415 221.615 136.611C221.497 137.203 220.668 136.966 220.787 136.374C221.615 133.06 222.799 130.101 224.456 127.141C224.693 126.668 225.521 127.023 225.166 127.615Z" fill="#1ABF7E"/>
<path d="M215.223 147.5C213.448 150.696 212.264 153.892 211.672 157.443C211.554 158.035 210.725 157.799 210.843 157.207C211.554 153.537 212.737 150.341 214.513 147.145C214.75 146.553 215.46 147.027 215.223 147.5Z" fill="#1ABF7E"/>
<path d="M200.546 172.595C198.415 174.963 197.231 176.975 196.048 179.934C195.811 180.408 194.982 180.171 195.219 179.697C196.284 176.738 197.823 174.371 199.954 172.003C200.309 171.53 200.901 172.24 200.546 172.595Z" fill="#1ABF7E"/>
<path d="M181.251 200.175C180.541 200.648 179.949 201.122 179.121 201.595C178.766 201.832 178.292 201.358 178.529 201.003C178.647 200.767 178.766 200.648 178.766 200.411C179.002 199.938 179.831 200.411 179.476 200.885C179.594 200.648 179.949 199.938 180.659 199.464C181.251 199.109 181.725 199.82 181.251 200.175Z" fill="#1ABF7E"/>
<path d="M160.181 216.864C159.945 216.864 159.708 216.982 159.471 216.982C159.826 217.337 159.234 218.048 158.879 217.574C158.761 217.456 158.642 217.337 158.406 217.101C158.169 216.864 158.287 216.509 158.524 216.39C159.234 216.035 158.998 216.154 159.945 215.917C160.418 215.917 160.655 216.746 160.181 216.864Z" fill="#1ABF7E"/>
<path d="M133.905 228.347C132.958 229.412 132.129 230.596 131.182 231.661C130.827 232.135 130.235 231.424 130.59 231.069C131.537 230.004 132.366 228.82 133.313 227.755C133.549 227.4 134.26 227.992 133.905 228.347Z" fill="#1ABF7E"/>
<path d="M110.822 239.355C110.23 239.592 109.757 239.828 109.165 240.065C108.691 240.42 108.099 239.828 108.573 239.473C109.638 238.645 109.283 238.763 110.585 238.526C111.177 238.408 111.414 239.236 110.822 239.355Z" fill="#1ABF7E"/>
<path d="M87.9765 245.983C87.3847 246.102 87.1479 245.273 87.7398 245.155C88.3316 244.918 88.8051 244.681 89.3969 244.444C89.8704 244.089 90.4622 244.681 89.9888 245.036C89.0418 245.865 89.3969 245.747 87.9765 245.983Z" fill="#1ABF7E"/>
<path d="M160.182 36.1152C144.32 38.7193 127.393 42.9806 113.307 32.6825C112.834 32.3274 113.307 31.6172 113.781 31.9723C127.748 42.0336 144.32 37.8907 160.063 35.2866C160.418 35.2866 160.655 36.1152 160.182 36.1152Z" fill="#1ABF7E"/>
<path d="M301.987 112.345C308.853 185.142 176.871 191.771 129.405 184.906C85.7271 178.514 -24.9479 166.322 -20.2131 102.402C-20.2131 101.811 -19.2662 101.811 -19.3846 102.402C-26.8418 204.555 311.812 226.69 301.04 112.345" fill="#1ABF7E"/>
<path d="M292.045 107.847C291.809 107.255 291.453 106.663 291.217 106.071C290.743 105.716 291.217 105.006 291.69 105.361C293.111 106.308 292.874 105.953 293.466 107.255C293.584 107.492 293.584 107.61 293.347 107.728C293.111 107.965 292.874 108.202 292.637 108.439C292.282 108.912 291.69 108.32 292.045 107.847Z" fill="#1ABF7E"/>
<path d="M280.207 99.2063C279.024 98.4961 277.958 97.6675 276.775 96.9573C276.183 96.8389 276.42 96.0104 277.011 96.1287C279.024 96.7206 279.734 97.194 280.918 98.8512C281.273 99.3247 280.444 99.6798 280.207 99.2063Z" fill="#1ABF7E"/>
<path d="M251.208 87.0138C250.734 87.0138 250.616 86.7771 250.734 86.3036C251.208 86.6587 250.497 87.2506 250.142 86.8955C249.906 86.7771 249.787 86.5404 249.551 86.422C249.314 86.1852 249.432 85.5934 249.906 85.7118C250.497 85.7118 250.971 85.9485 251.444 86.1852C251.918 86.3036 251.681 87.1322 251.208 87.0138Z" fill="#1ABF7E"/>
<path d="M227.416 81.9241C225.64 80.5036 223.51 79.9118 221.261 80.2669C220.669 80.2669 220.669 79.4383 221.261 79.4383C223.865 79.3199 225.759 79.7934 227.889 81.2139C228.244 81.4506 227.889 82.2792 227.416 81.9241Z" fill="#1ABF7E"/>
<path d="M197.35 76.1233C196.166 75.8866 194.864 75.5315 193.681 75.2947C193.089 75.1764 193.325 74.3478 193.917 74.4661C195.101 74.7029 196.403 75.058 197.587 75.2947C198.179 75.4131 197.942 76.2417 197.35 76.1233Z" fill="#1ABF7E"/>
<path d="M171.545 75.1773C170.954 74.9405 170.48 74.7038 169.888 74.4671C169.296 74.3487 169.533 73.5201 170.125 73.6385C171.427 73.8752 171.072 73.7569 172.137 74.5854C172.611 74.9405 172.019 75.5324 171.545 75.1773Z" fill="#1ABF7E"/>
<path d="M147.28 72.8095C146.688 72.8095 146.096 72.8095 145.505 72.8095C144.913 72.8095 144.913 71.981 145.505 71.981C146.096 71.981 146.688 71.981 147.28 71.981C147.754 71.981 147.754 72.8095 147.28 72.8095Z" fill="#1ABF7E"/>
<path d="M118.043 73.6384C116.623 73.8752 115.202 74.1119 113.664 74.467C113.19 74.7037 112.717 73.9935 113.19 73.7568C114.966 72.9282 116.031 72.6915 117.925 72.8098C118.635 72.8098 118.635 73.6384 118.043 73.6384Z" fill="#1ABF7E"/>
<path d="M95.1966 76.124C92.4741 76.124 89.7516 76.124 87.0291 76.124C86.4373 76.124 86.4373 75.2954 87.0291 75.2954C89.7516 75.2954 92.4741 75.2954 95.1966 75.2954C95.7885 75.2954 95.7885 76.124 95.1966 76.124Z" fill="#1ABF7E"/>
<path d="M67.0258 80.2664C64.7768 80.8582 62.8829 81.2133 60.5155 81.095C59.9237 81.095 59.9237 80.2664 60.5155 80.2664C62.6462 80.5031 64.7768 80.148 66.7891 79.4378C67.3809 79.3194 67.6177 80.148 67.0258 80.2664Z" fill="#1ABF7E"/>
<path d="M36.0133 84.4095C34.2377 85.1197 32.4622 85.5931 30.5683 86.0666C29.9765 86.185 29.7397 85.3564 30.3316 85.238C32.2255 84.7646 34.001 84.2911 35.7765 83.5809C36.25 83.4625 36.4868 84.2911 36.0133 84.4095Z" fill="#1ABF7E"/>
<path d="M15.7716 92.8134C14.3511 93.2869 12.9307 93.8787 11.5103 94.3522C11.1551 94.7073 10.4449 94.1155 10.9184 93.7604C12.5756 92.2216 13.5225 91.8665 15.7716 91.9848C16.3634 91.9848 16.3634 92.8134 15.7716 92.8134Z" fill="#1ABF7E"/>
<path d="M245.644 146.908C247.065 145.961 246.591 146.198 248.248 146.08C248.722 146.08 248.84 146.671 248.485 146.908C236.766 153.3 231.203 166.794 234.399 179.696C234.517 180.288 233.689 180.525 233.57 179.933C231.913 173.423 232.505 167.149 234.872 160.876C235.938 158.035 237.713 155.431 239.607 153.063C240.673 151.643 242.093 150.459 243.395 149.276C243.513 149.157 248.011 146.553 246.118 147.737C245.526 147.973 245.171 147.263 245.644 146.908Z" fill="#1ABF7E"/>
<path d="M239.608 165.138C243.514 168.57 242.922 161.113 243.988 160.285C244.816 159.574 245.527 158.864 246.71 159.101C248.959 159.456 251.563 161.232 250.972 163.954C250.38 166.913 248.131 167.268 245.408 166.558C242.804 165.848 243.988 158.154 241.857 158.864C241.265 159.101 241.147 158.154 241.62 158.036C246.473 156.378 245.408 171.411 238.898 165.848C238.543 165.374 239.135 164.664 239.608 165.138Z" fill="#1ABF7E"/>
<path d="M49.5066 137.676C57.5557 138.149 65.2497 146.553 69.6294 152.709C75.6662 161.35 71.1682 169.635 64.1844 175.672C63.7109 176.027 63.1191 175.435 63.5925 175.08C70.6947 168.925 73.7723 161.941 68.9191 153.182C65.7232 147.382 56.1353 138.978 49.625 138.623C48.9148 138.504 48.9148 137.676 49.5066 137.676Z" fill="#1ABF7E"/>
<path d="M57.9113 170.819C59.6869 166.084 58.3848 160.284 58.1481 155.431C58.0297 154.129 59.095 148.684 56.2542 149.276C52.2296 151.88 52.1112 154.603 55.6623 157.444C54.1235 159.337 52.5847 161.35 51.1643 163.244C56.0174 164.901 56.846 165.611 53.5317 165.374C52.9398 165.374 52.9398 164.546 53.5317 164.546C54.7154 164.546 55.8991 164.546 57.2011 164.546C57.5562 164.546 57.793 164.901 57.5562 165.256C54.597 169.28 50.3357 164.782 49.6255 161.35C48.5602 155.905 55.8991 155.668 58.3848 158.627C58.6215 158.982 58.3848 159.456 57.9113 159.337C50.4541 157.325 50.8092 148.447 58.9766 148.329C59.2134 148.329 59.4501 148.566 59.4501 148.921C57.2011 156.141 61.5808 164.191 58.8583 171.411C58.6215 171.529 57.6746 171.293 57.9113 170.819Z" fill="#1ABF7E"/>
<path d="M35.7755 165.848C37.3142 167.624 35.6571 172.358 35.302 174.371C35.1836 174.962 34.3551 174.726 34.4734 174.134C34.7102 172.358 36.4857 167.979 35.1836 166.558C34.8285 166.085 35.4204 165.493 35.7755 165.848Z" fill="#1ABF7E"/>
<path d="M36.6053 166.913C32.4623 167.741 31.6337 168.925 34.0011 170.346C34.3562 170.701 34.0011 171.174 33.5277 171.056C34.2379 171.884 34.8297 172.713 35.5399 173.541C36.1318 173.541 36.1318 174.488 35.5399 174.37C33.8828 174.252 29.5031 173.541 30.2133 170.819C30.4501 170.109 31.397 169.99 31.9889 169.99C31.8705 169.99 30.9235 167.741 30.6868 167.15C30.6868 167.031 30.6868 166.794 30.9235 166.676C32.9358 165.729 34.7114 165.729 36.842 166.084C37.4338 166.084 37.1971 166.913 36.6053 166.913Z" fill="#1ABF7E"/>
<path d="M272.04 168.452C271.448 170.937 271.448 173.423 272.04 176.027C272.75 180.88 272.159 175.79 272.159 175.199C271.803 165.137 267.424 174.962 266.95 178.631C266.832 179.223 266.003 179.223 266.122 178.631C266.595 174.843 268.371 170.345 271.448 167.978C271.685 167.86 272.04 167.978 272.04 168.215C272.75 172.121 273.224 175.79 272.987 179.815C272.987 180.288 272.277 180.407 272.159 179.933C271.212 176.027 270.501 172.239 271.33 168.215C271.33 167.741 272.159 167.978 272.04 168.452Z" fill="#1ABF7E"/>
<path d="M272.751 174.962C270.502 175.435 268.372 175.317 266.123 174.962C265.531 174.843 265.768 174.015 266.359 174.133C268.372 174.607 270.502 174.607 272.515 174.133C272.988 174.015 273.225 174.843 272.751 174.962Z" fill="#1ABF7E"/>
<path d="M214.868 50.7927C212.145 58.0132 210.015 65.3521 207.884 72.6909C207.766 73.2828 206.937 73.046 207.055 72.4542C209.186 65.1153 211.317 57.6581 214.039 50.5559C214.276 50.0825 215.105 50.3192 214.868 50.7927Z" fill="#1ABF7E"/>
<path d="M210.134 68.0749C209.897 67.3647 209.542 66.7729 209.305 66.0627C206.938 61.9197 204.689 62.3932 202.558 67.4831C203.505 69.6137 205.991 71.3893 208.003 72.3362C208.477 72.573 208.121 73.2832 207.53 73.0464C205.399 71.9811 197.942 66.0627 201.611 63.1034C205.399 60.0258 209.779 63.6953 210.844 67.8382C211.081 68.3117 210.252 68.5484 210.134 68.0749Z" fill="#1ABF7E"/>
<path d="M132.246 4.8662C132.128 4.74783 132.128 4.62947 132.01 4.39273C131.891 4.27436 131.891 4.03762 132.01 3.91925C134.495 0.368183 142.071 2.61719 143.018 6.52337C144.557 12.7969 138.638 14.5725 133.904 12.4418C133.43 12.2051 133.785 11.4949 134.377 11.7316C141.361 13.8622 143.61 11.6132 140.887 4.8662C139.467 4.39273 138.165 3.80088 136.744 3.32741C135.324 3.20904 134.022 3.56414 132.957 4.39273C133.193 4.8662 132.483 5.33968 132.246 4.8662Z" fill="#1ABF7E"/>
<path d="M138.994 21.6743C141.362 21.3192 143.137 24.2785 140.651 25.6989C138.284 27.1193 136.627 24.6336 137.81 22.7397C138.047 22.2662 138.876 22.7397 138.521 23.2131C138.757 22.9764 138.876 22.858 139.113 22.6213C138.402 22.6213 138.402 21.7927 138.994 21.6743Z" fill="#1ABF7E"/>
<path d="M254.759 167.741C258.31 165.848 259.612 169.99 257.363 172.476C257.244 172.595 257.008 172.595 256.889 172.595C254.759 171.174 253.812 169.754 254.64 167.15C254.759 166.676 255.706 166.794 255.469 167.386C255.35 167.741 255.35 168.097 255.232 168.452C254.64 168.807 254.167 167.978 254.759 167.741Z" fill="#1ABF7E"/>
<path d="M42.0494 163.244C42.5228 163.125 42.878 163.125 43.3514 163.007C43.5882 163.007 43.8249 163.125 43.9433 163.481C44.18 166.913 39.0902 165.966 40.2739 162.415C40.5106 161.942 41.3392 162.06 41.1024 162.652C41.4575 163.125 41.931 163.599 42.2861 164.072C41.8126 164.191 41.5759 163.362 42.0494 163.244Z" fill="#1ABF7E"/>
<path d="M55.4258 89.5001C58.7402 87.8429 61.2259 92.4593 60.0422 95.3002C59.9239 95.5369 59.6871 95.5369 59.4504 95.4185C56.4911 93.9981 55.0707 91.2756 54.5973 88.0797C54.4789 87.6062 55.1891 87.2511 55.4258 87.7246C58.03 92.6961 52.7033 94.2349 48.6788 92.6961C48.2053 92.4593 48.4421 91.6307 48.9155 91.8675C51.4013 93.1695 53.6503 92.2226 55.6626 89.145C57.083 92.4593 57.2014 92.8144 56.0177 90.2103C55.3075 90.447 54.834 89.7368 55.4258 89.5001Z" fill="#1ABF7E"/>
</g>
</g>
<defs>
<clipPath id="clip0">
<rect width="326.225" height="299" fill="white" transform="matrix(-1 0 0 1 302.225 -31)"/>
</clipPath>
</defs>
</svg>
