<svg width="303" height="268" viewBox="0 0 303 268" fill="none" xmlns="http://www.w3.org/2000/svg"><g clip-path="url(#clip0)" fill="#1ABF7E" opacity=".4"><path d="M174.386 260.424c82.029-14.677 140.03-80.964 119.197-165.243C270.028.25 161.247-38.812 74.483-17.743c-1.184.355-1.776-1.657-.474-1.894C157.34-39.877 259.966-6.616 290.624 80.86c30.539 87.356-18.11 150.447-101.205 177.79"/><path d="M243.631 232.845c38.589-65.577-16.69-133.284-63.327-176.37C152.961 31.144 73.062-28.988 32.461 1.197c-.473.355-.828-.474-.473-.71 41.902-31.25 118.961 29.947 148.908 55.278C230.256 97.43 281.983 169.399 244.46 233.2c-.355.592-1.065.118-.829-.355z"/><path d="M60.279 251.783C3.224 215.089 52.228 114.238 81.94 72.691c38.943-54.331 119.198-91.973 176.133-45.572.474.355-.237.947-.592.592C192.26-25.437 113.9 29.605 74.719 84.528 48.797 120.749 10.21 218.403 60.87 251.073m179.448-20.004c-1.302-.118-2.604-.236-3.788-.592-.118 0-.237-.118-.355-.355v-.118c0-.237.118-.473.355-.592.355 0 .71-.118.947-.118.592-.119.829.71.237.828-.829.119 1.894-.118 2.604 0 .592.119.592.947 0 .947zm-19.295-6.747c-1.42-.711-2.486-1.539-3.788-2.605-.473-.355.237-.946.592-.591a19.064 19.064 0 003.551 2.485c.474.237.119.947-.355.711zm-16.453-9.233c-2.131-1.065-3.433-2.249-4.735-4.261-.355-.474.474-.947.711-.474 1.065 1.894 2.485 3.315 4.379 4.025.592.237.119 1.065-.355.71zm-22.017-14.204c-.118-.119-1.42-2.131-1.065-1.302.118.592-.71.71-.828.236l-.356-1.065c-.118-.237.119-.473.356-.592.118 0 .118 0 .236-.118.119 0 .355 0 .474.118.71.592 1.302 1.302 1.894 2.013.236.591-.355 1.183-.711.71zm-17.4-11.719c-1.539-2.723-3.196-5.09-5.445-7.458-.355-.355.237-1.065.592-.591 2.249 2.367 4.025 4.734 5.563 7.575.237.592-.473.947-.71.474zm-20.004-17.4c-1.894-1.894-3.314-3.669-4.616-5.918-.237-.474.473-.947.71-.474 1.302 2.131 2.722 4.025 4.498 5.682.355.474-.237 1.065-.592.71z"/><path d="M125.973 151.762c-.828-.829-1.775-1.539-2.604-2.368-1.302-1.183-1.065-2.13.473-.71.474.355-.236.947-.591.592-.356-.355-.829-.71-1.184-1.065-.474-.355.237-.947.592-.592l3.906 3.551c.355.355-.237.947-.592.592zm-16.453-17.401c-1.065-.947-2.012-1.894-3.078-2.841-.473-.355.237-.947.592-.592l.355.355c.474.356-.236.947-.592.592-.947-.828 1.302 0 1.539.237.592.592 1.184 1.065 1.776 1.657.473.355-.237.947-.592.592zm-17.164-19.057c-3.078-.829-4.498-2.249-4.853-5.445-.118-.592.828-.592.828 0l4.262 4.616c.592.119.355.947-.237.829zM72.116 95.3c-2.841-1.421-4.38-3.078-5.682-6.038-.237-.473.474-.947.71-.473 1.066 2.604 2.841 4.38 5.327 5.682.592.236.237 1.065-.355.828zM56.491 74.23a45.064 45.064 0 01-3.67-6.629c-.236-.473.474-.947.71-.473a45.078 45.078 0 003.67 6.628c.355.592-.355.947-.71.474zm-9.944-18.229c-1.894-1.539-2.604-2.96-2.84-5.327-.12-.591.828-.591.828 0 .828 1.54 1.775 3.078 2.604 4.735.473.355-.237.947-.592.592zM35.539 35.168c-1.066-1.894-1.184-3.077-.947-5.208.118-.592.947-.592.828 0 .237 1.539.592 3.196.829 4.735.237.473-.474.947-.71.473zM31.87 18.596c-.829-.946-.71-.591-1.066-1.893-.118-.592.71-.829.83-.237.236.473.59.947.828 1.42.473.474-.119 1.066-.592.71zm.355-13.256a.415.415 0 010-.83.415.415 0 010 .83zm.947-2.486a.415.415 0 010-.829c.474 0 .474.829 0 .829zM255.35 28.066c1.184 1.776 1.657 3.078 1.894 5.209a.415.415 0 01-.828 0c-.592-1.54-1.184-3.197-1.776-4.735-.355-.474.355-.947.71-.474zm1.895 14.441c-.829 3.078-1.421 5.919-1.776 8.996-.118.592-.947.592-.829 0 .356-3.196.947-6.155 1.894-9.233 0-.473.829-.236.711.237zm-5.564 20.123c-1.302 1.538-1.894 3.432-1.775 5.563a.415.415 0 01-.829 0c0-2.486.474-4.025 1.894-6.037.237-.473 1.065 0 .71.474zm-8.168 23.2c-.473 1.538-1.065 2.84-1.893 4.261-.237.473-1.066 0-.711-.473.829-1.303 1.421-2.605 1.776-4.025.118-.474 1.065-.355.828.237zm-8.286 21.781c-.828 1.538-1.775 3.077-2.604 4.734 0 .592-.947.592-.829 0 .237-2.485.947-3.788 2.841-5.326.355-.355.947.236.592.592zm-10.061 20.004c-1.657 2.959-2.841 5.8-3.551 8.996-.118.592-.947.355-.828-.237a36.682 36.682 0 013.669-9.233c.237-.473 1.065-.118.71.474zm-9.943 19.885c-1.775 3.196-2.959 6.392-3.551 9.943-.118.592-.947.356-.829-.236.711-3.67 1.894-6.866 3.67-10.062.237-.592.947-.118.71.355zm-14.677 25.095c-2.131 2.368-3.315 4.38-4.498 7.339-.237.474-1.066.237-.829-.237 1.065-2.959 2.604-5.326 4.735-7.694.355-.473.947.237.592.592zm-19.295 27.58c-.71.473-1.302.947-2.13 1.42-.355.237-.829-.237-.592-.592.118-.236.237-.355.237-.592.236-.473 1.065 0 .71.474.118-.237.473-.947 1.183-1.421.592-.355 1.066.356.592.711zm-21.07 16.689c-.236 0-.473.118-.71.118.355.355-.237 1.066-.592.592l-.473-.473c-.237-.237-.119-.592.118-.711.71-.355.474-.236 1.421-.473.473 0 .71.829.236.947zm-26.276 11.483c-.947 1.065-1.776 2.249-2.723 3.314-.355.474-.947-.237-.592-.592.947-1.065 1.776-2.249 2.723-3.314.236-.355.947.237.592.592zm-23.083 11.008c-.592.237-1.065.473-1.657.71-.474.355-1.066-.237-.592-.592 1.065-.828.71-.71 2.012-.947.592-.118.829.71.237.829zm-22.845 6.628c-.592.119-.83-.71-.237-.828.592-.237 1.065-.474 1.657-.711.473-.355 1.065.237.592.592-.947.829-.592.711-2.013.947zm72.205-209.868c-15.862 2.604-32.789 6.866-46.875-3.433-.473-.355 0-1.065.474-.71 13.967 10.062 30.539 5.919 46.282 3.315.355 0 .592.828.119.828z"/><path d="M301.987 112.345c6.866 72.797-125.116 79.426-172.582 72.561-43.678-6.392-154.353-18.584-149.618-82.504 0-.591.947-.591.828 0-7.457 102.153 331.197 124.288 320.425 9.943m-8.995-4.498c-.236-.592-.592-1.184-.828-1.776-.474-.355 0-1.065.473-.71 1.421.947 1.184.592 1.776 1.894.118.237.118.355-.119.473l-.71.711c-.355.473-.947-.119-.592-.592zm-11.838-8.641c-1.183-.71-2.249-1.538-3.432-2.249-.592-.118-.355-.947.236-.828 2.013.592 2.723 1.065 3.907 2.722.355.474-.474.829-.711.355zm-28.999-12.192c-.474 0-.592-.237-.474-.71.474.355-.237.947-.592.591-.236-.118-.355-.355-.591-.473-.237-.237-.119-.829.355-.71.591 0 1.065.236 1.538.473.474.119.237.947-.236.829zm-23.792-5.09c-1.776-1.42-3.906-2.012-6.155-1.657a.415.415 0 010-.829c2.604-.118 4.498.355 6.628 1.776.355.237 0 1.065-.473.71zm-30.066-5.801c-1.184-.236-2.486-.592-3.669-.828-.592-.119-.356-.947.236-.829 1.184.237 2.486.592 3.67.829.592.118.355.947-.237.828zm-25.805-.946c-.591-.237-1.065-.473-1.657-.71-.592-.118-.355-.947.237-.829 1.302.237.947.119 2.012.947.474.356-.118.947-.592.592zM147.28 72.81h-1.775a.415.415 0 010-.829h1.775c.474 0 .474.829 0 .829zm-29.237.828c-1.42.237-2.841.474-4.379.829-.474.237-.947-.474-.474-.71 1.776-.829 2.841-1.066 4.735-.947.71 0 .71.828.118.828zm-22.846 2.486h-8.168a.415.415 0 010-.829h8.168a.415.415 0 010 .829zm-28.171 4.142c-2.25.592-4.143.947-6.51.829a.415.415 0 010-.829c2.13.237 4.26-.118 6.273-.828.592-.119.829.71.237.828zM36.013 84.41c-1.775.71-3.55 1.183-5.445 1.657-.591.118-.828-.71-.236-.829 1.893-.473 3.669-.947 5.444-1.657.474-.118.71.71.237.828zm-20.241 8.403c-1.42.474-2.841 1.066-4.262 1.54-.355.354-1.065-.237-.592-.593 1.658-1.538 2.605-1.894 4.854-1.775a.415.415 0 010 .828z"/><path d="M245.644 146.908c1.421-.947.947-.71 2.604-.828.474 0 .592.591.237.828-11.719 6.392-17.282 19.886-14.086 32.788.118.592-.71.829-.829.237-1.657-6.51-1.065-12.784 1.302-19.057 1.066-2.841 2.841-5.445 4.735-7.813 1.066-1.42 2.486-2.604 3.788-3.787.118-.119 4.616-2.723 2.723-1.539-.592.236-.947-.474-.474-.829z"/><path d="M239.608 165.138c3.906 3.432 3.314-4.025 4.38-4.853.828-.711 1.539-1.421 2.722-1.184 2.249.355 4.853 2.131 4.262 4.853-.592 2.959-2.841 3.314-5.564 2.604-2.604-.71-1.42-8.404-3.551-7.694-.592.237-.71-.71-.237-.828 4.853-1.658 3.788 13.375-2.722 7.812-.355-.474.237-1.184.71-.71zM49.507 137.676c8.049.473 15.743 8.877 20.122 15.033 6.037 8.641 1.54 16.926-5.445 22.963-.473.355-1.065-.237-.591-.592 7.102-6.155 10.18-13.139 5.326-21.898-3.196-5.8-12.784-14.204-19.294-14.559-.71-.119-.71-.947-.118-.947z"/><path d="M57.911 170.819c1.776-4.735.474-10.535.237-15.388-.118-1.302.947-6.747-1.894-6.155-4.024 2.604-4.143 5.327-.592 8.168a190.689 190.689 0 00-4.498 5.8c4.853 1.657 5.682 2.367 2.368 2.13a.415.415 0 010-.828h3.67c.354 0 .591.355.354.71-2.959 4.024-7.22-.474-7.93-3.906-1.066-5.445 6.273-5.682 8.759-2.723.236.355 0 .829-.474.71-7.457-2.012-7.102-10.89 1.066-11.008.236 0 .473.237.473.592-2.249 7.22 2.13 15.27-.592 22.49-.236.118-1.183-.118-.947-.592zm-22.135-4.971c1.538 1.776-.119 6.51-.474 8.523-.118.591-.947.355-.829-.237.237-1.776 2.013-6.155.71-7.576-.355-.473.237-1.065.593-.71z"/><path d="M36.605 166.913c-4.143.828-4.971 2.012-2.604 3.433.355.355 0 .828-.473.71.71.828 1.302 1.657 2.012 2.485.592 0 .592.947 0 .829-1.657-.118-6.037-.829-5.327-3.551.237-.71 1.184-.829 1.776-.829-.119 0-1.066-2.249-1.302-2.84 0-.119 0-.356.236-.474 2.013-.947 3.788-.947 5.919-.592.592 0 .355.829-.237.829zm235.435 1.539c-.592 2.485-.592 4.971 0 7.575.71 4.853.119-.237.119-.828-.356-10.062-4.735-.237-5.209 3.432-.118.592-.947.592-.828 0 .473-3.788 2.249-8.286 5.326-10.653.237-.118.592 0 .592.237.71 3.906 1.184 7.575.947 11.6 0 .473-.71.592-.828.118-.947-3.906-1.658-7.694-.829-11.718 0-.474.829-.237.71.237z"/><path d="M272.751 174.962c-2.249.473-4.379.355-6.628 0-.592-.119-.355-.947.236-.829 2.013.474 4.143.474 6.156 0 .473-.118.71.71.236.829zM214.868 50.793c-2.723 7.22-4.853 14.56-6.984 21.898-.118.592-.947.355-.829-.237 2.131-7.339 4.262-14.796 6.984-21.898.237-.473 1.066-.237.829.237z"/><path d="M210.134 68.075c-.237-.71-.592-1.302-.829-2.012-2.367-4.143-4.616-3.67-6.747 1.42.947 2.13 3.433 3.906 5.445 4.853.474.237.118.947-.473.71-2.131-1.065-9.588-6.983-5.919-9.943 3.788-3.077 8.168.592 9.233 4.735.237.474-.592.71-.71.237zM132.246 4.866c-.118-.118-.118-.237-.236-.473a.359.359 0 010-.474c2.485-3.55 10.061-1.302 11.008 2.604 1.539 6.274-4.38 8.05-9.114 5.919-.474-.237-.119-.947.473-.71 6.984 2.13 9.233-.119 6.51-6.866-1.42-.473-2.722-1.065-4.143-1.539-1.42-.118-2.722.237-3.787 1.066.236.473-.474.947-.711.473zm6.748 16.808c2.368-.355 4.143 2.605 1.657 4.025-2.367 1.42-4.024-1.065-2.841-2.96.237-.473 1.066 0 .711.474l.592-.592c-.711 0-.711-.828-.119-.947zm115.765 146.067c3.551-1.893 4.853 2.249 2.604 4.735-.119.119-.355.119-.474.119-2.13-1.421-3.077-2.841-2.249-5.445.119-.474 1.066-.356.829.236-.119.355-.119.711-.237 1.066-.592.355-1.065-.474-.473-.711zM42.05 163.244c.473-.119.828-.119 1.301-.237.237 0 .474.118.592.474.237 3.432-4.853 2.485-3.67-1.066.238-.473 1.066-.355.83.237.355.473.828.947 1.183 1.42-.473.119-.71-.71-.237-.828zM55.426 89.5c3.314-1.657 5.8 2.96 4.616 5.8-.118.237-.355.237-.592.118-2.959-1.42-4.38-4.142-4.853-7.338-.118-.474.592-.829.829-.355 2.604 4.971-2.723 6.51-6.747 4.971-.474-.237-.237-1.065.236-.828 2.486 1.302 4.735.355 6.748-2.723 1.42 3.314 1.538 3.67.355 1.065-.71.237-1.184-.473-.592-.71z"/></g><defs><clipPath id="clip0"><path fill="#fff" transform="matrix(-1 0 0 1 302.225 -31)" d="M0 0h326.225v299H0z"/></clipPath></defs></svg>