<svg width="30" height="26" viewBox="0 0 30 26" fill="none" xmlns="http://www.w3.org/2000/svg">
<path d="M17.2739 14.8696L17.2782 14.9156L17.2821 14.9617L17.2855 15.0078L17.2885 15.0541L17.291 15.1004L17.293 15.1468L17.2946 15.1933L17.2957 15.2398L17.2964 15.2864L17.2966 15.333L17.2964 15.3797L17.2957 15.4264L17.2945 15.4732L17.2929 15.5199L17.2908 15.5668L17.2882 15.6136L17.2852 15.6605L17.2817 15.7073L17.2777 15.7542L17.2733 15.8011L17.2684 15.848L17.263 15.8948L17.2572 15.9417L17.2508 15.9886L17.2441 16.0354L17.2368 16.0822L17.2291 16.129L17.2209 16.1757L17.2122 16.2224L17.2031 16.2691L17.1935 16.3157L17.1834 16.3623L17.1729 16.4088L17.1618 16.4553L17.1504 16.5016L17.1384 16.5479L17.126 16.5942L17.1131 16.6403L17.0997 16.6864L17.0859 16.7323L17.0716 16.7782L17.0568 16.824L17.0416 16.8696L17.0259 16.9152L17.0097 16.9606L16.993 17.006L16.9759 17.0511L16.9584 17.0962L16.9403 17.1411L16.9219 17.1859L16.9029 17.2306L16.8835 17.2751L16.8636 17.3194L16.8433 17.3636L16.8225 17.4076L16.8013 17.4515L16.7796 17.4951L16.7574 17.5386L16.7348 17.5819L16.7118 17.6251L16.6883 17.668L16.6643 17.7107L16.6399 17.7533L16.6151 17.7956L16.5898 17.8377L16.5641 17.8796L16.5379 17.9213L16.5113 17.9628L16.4843 18.004L16.4568 18.045L16.4289 18.0858L16.4006 18.1263L16.3718 18.1665L16.3426 18.2065L16.313 18.2463L16.283 18.2858L16.2525 18.325L16.2217 18.364L16.1904 18.4026L16.1587 18.441L16.1266 18.4792L16.0941 18.517L16.0612 18.5545L16.0278 18.5918L15.9941 18.6287L15.96 18.6653L15.9255 18.7016L15.8906 18.7376L15.8553 18.7733L15.8196 18.8087L15.7835 18.8437L15.7471 18.8784L15.7102 18.9128L15.673 18.9468L15.6354 18.9805L15.5975 19.0138L15.5592 19.0468L15.5205 19.0794L15.4815 19.1117L15.4421 19.1436L15.4023 19.1751L15.3622 19.2063L15.3218 19.2371L15.281 19.2675L15.2399 19.2975L15.1984 19.3271L15.1566 19.3564L15.1145 19.3852L15.0721 19.4137L15.0293 19.4417L14.9862 19.4694L14.9428 19.4966L14.8991 19.5234L14.855 19.5498L14.8107 19.5758L14.7661 19.6013L14.7212 19.6265L14.676 19.6512L14.6305 19.6754L14.5847 19.6993L14.5386 19.7226L14.4923 19.7456L14.4457 19.7681L14.3988 19.7901L14.3517 19.8117L14.3043 19.8328L14.2566 19.8535L14.2087 19.8737L14.1605 19.8935L14.1122 19.9128L14.0635 19.9316L14.0147 19.9499L13.9656 19.9678L13.9163 19.9851L13.8667 20.002L13.817 20.0184L13.7671 20.0344L13.7169 20.0498L13.6665 20.0647L13.616 20.0792L13.5652 20.0931L13.5143 20.1066L13.4632 20.1195L13.4119 20.1319L13.3604 20.1439L13.3088 20.1553L13.257 20.1662L13.2051 20.1766L13.153 20.1865L13.1007 20.1959L13.0483 20.2047L12.9958 20.213L12.9431 20.2208L12.8903 20.2281L12.8374 20.2348L12.7844 20.241L12.7313 20.2467L12.678 20.2519L12.6247 20.2565L12.5712 20.2606L12.5177 20.2641L12.4641 20.2671L12.4104 20.2696L12.3566 20.2715L12.3027 20.2729L12.2488 20.2738L12.1949 20.2741L12.1408 20.2738L12.0868 20.273L12.0326 20.2717L11.9785 20.2698L11.9243 20.2674L11.8701 20.2644L11.8158 20.2608L11.7616 20.2567L11.7073 20.2521L11.653 20.2469L11.5988 20.2411L11.5445 20.2348L11.4902 20.2279L11.436 20.2205L11.3818 20.2125L11.3276 20.204L11.2734 20.1949L11.2193 20.1853L11.1652 20.1751L11.1112 20.1643L11.0572 20.153L11.0033 20.1411L10.9495 20.1287L10.8957 20.1157L10.842 20.1022L10.7884 20.0881L10.7349 20.0734L10.6815 20.0582L10.6281 20.0424L10.5749 20.0261L10.5218 20.0093L10.4688 19.9918L10.4159 19.9738L10.3632 19.9553L10.3106 19.9362L10.2581 19.9166L10.2058 19.8964L10.1536 19.8757L10.1016 19.8544L10.0497 19.8326L9.99803 19.8102L9.94651 19.7873L9.89516 19.7638L9.844 19.7398L9.79303 19.7153L9.74226 19.6902L9.69168 19.6646L9.64131 19.6384L9.59115 19.6118L9.54121 19.5845L9.49149 19.5568L9.442 19.5285L9.39274 19.4997L9.34371 19.4704L9.29494 19.4405L9.24641 19.4101L9.19813 19.3792L9.15012 19.3478L9.10237 19.3159L9.0549 19.2834L9.0077 19.2505L8.96078 19.217L8.91414 19.183L8.8678 19.1485L8.82176 19.1136L8.77602 19.0781L8.73059 19.0421L8.68547 19.0056L8.64067 18.9687L8.59619 18.9312L8.55204 18.8933L8.50823 18.8549L8.46475 18.816L8.42162 18.7766L8.37884 18.7368L8.33641 18.6964L8.29433 18.6556L8.25263 18.6144L8.21129 18.5727L8.17033 18.5305L8.12974 18.4879L8.08954 18.4448L8.04972 18.4013L8.0103 18.3573L7.97128 18.3129L7.93266 18.2681L7.89445 18.2228L7.85665 18.1771L7.81927 18.131L7.7823 18.0844L7.74577 18.0374L7.70966 17.99L7.67399 17.9422L7.63876 17.894L7.60397 17.8454L7.56963 17.7964L7.53575 17.747L7.50232 17.6972L7.46935 17.6471L7.43684 17.5965L7.40481 17.5456L7.37325 17.4943L7.34217 17.4426L7.31157 17.3906L7.28146 17.3382L7.25184 17.2854L7.22271 17.2323L7.19408 17.1789L7.16595 17.1251L7.13833 17.071L7.11122 17.0165L7.08462 16.9617L7.05854 16.9066L7.03298 16.8512L7.00794 16.7955L6.98343 16.7394L6.95946 16.6831L6.93601 16.6265L6.91311 16.5696L6.89075 16.5123L6.86894 16.4549L6.84767 16.3971L6.82695 16.3391L6.80679 16.2808L6.78719 16.2222L6.76815 16.1634L6.74967 16.1043L6.73177 16.045L6.71443 15.9855L6.69766 15.9257L6.68147 15.8657L6.66586 15.8055L6.65083 15.7451L6.63639 15.6844L6.62253 15.6236L6.60926 15.5625L6.59658 15.5013L6.5845 15.4398L6.57301 15.3782L6.56213 15.3165L6.55184 15.2545L6.54216 15.1924L6.53309 15.1301L6.52462 15.0677L6.51676 15.0051L6.50952 14.9424L6.50289 14.8796L6.49687 14.8166L6.49147 14.7535L6.4867 14.6903L6.48254 14.627L6.47901 14.5636L6.4761 14.5001L6.47382 14.4365L6.47216 14.3728L6.47114 14.3091L6.47074 14.2453L6.47098 14.1814L6.47185 14.1174L6.47335 14.0534L6.47549 13.9894L6.47826 13.9253L6.48168 13.8612L6.48573 13.797L6.49042 13.7328L6.49575 13.6687L6.50172 13.6045L6.50833 13.5403L6.51558 13.4761L6.52348 13.4119L6.53202 13.3478L6.5412 13.2836L6.55102 13.2196L6.5615 13.1555L6.57261 13.0915L6.58437 13.0275L6.59677 12.9636L6.60982 12.8998L6.62351 12.836L6.63785 12.7723L6.65283 12.7087L6.66846 12.6452L6.68473 12.5818L6.70164 12.5185L6.7192 12.4553L6.7374 12.3922L6.75624 12.3293L6.77572 12.2664L6.79584 12.2038L6.8166 12.1412L6.838 12.0788L6.86004 12.0166L6.88272 11.9545L6.90603 11.8926L6.92998 11.8309L6.95457 11.7693L6.97978 11.708L7.00563 11.6468L7.0321 11.5859L7.05921 11.5251L7.08694 11.4646L7.1153 11.4043L7.14429 11.3443L7.17389 11.2844L7.20412 11.2248L7.23496 11.1655L7.26642 11.1064L7.2985 11.0476L7.33119 10.989L7.36449 10.9307L7.3984 10.8727L7.43292 10.815L7.46804 10.7576L7.50376 10.7005L7.54008 10.6437L7.577 10.5872L7.61452 10.531L7.65262 10.4751L7.69132 10.4196L7.7306 10.3644L7.77047 10.3096L7.81091 10.2551L7.85194 10.201L7.89354 10.1472L7.93571 10.0938L7.97845 10.0408L8.02176 9.9882L8.06563 9.93595L8.11005 9.8841L8.15504 9.83265L8.20057 9.7816L8.24666 9.73097L8.29329 9.68075L8.34046 9.63096L8.38817 9.5816L8.43641 9.53267L8.48518 9.48419L8.53448 9.43615L8.58431 9.38857L8.63465 9.34145L8.6855 9.29479L8.73687 9.2486L8.78874 9.20288L8.84112 9.15765L8.89399 9.11291L8.94736 9.06865L9.00121 9.0249L9.05555 8.98164L9.11037 8.9389L9.16566 8.89667L9.22143 8.85496L9.27766 8.81378L9.33435 8.77312L9.3915 8.733L9.4491 8.69342L9.50715 8.65438L9.56564 8.6159L9.62456 8.57797L9.68392 8.5406L9.74371 8.5038L9.80391 8.46756L9.86453 8.4319L9.92556 8.39682L9.987 8.36232L10.0488 8.32842L10.1111 8.2951L10.1737 8.26238L10.2367 8.23027L10.3001 8.19876L10.3638 8.16787L10.428 8.13759L10.4924 8.10793L10.5573 8.07889L10.6225 8.05049L10.688 8.02271L10.7539 7.99557L10.8201 7.96908L10.8866 7.94322L10.9534 7.91802L11.0206 7.89347L11.088 7.86957L11.1558 7.84633L11.2239 7.82376L11.2922 7.80186L11.3608 7.78062L11.4297 7.76006L11.4989 7.74018L11.5684 7.72098L11.638 7.70246L11.708 7.68463L11.7782 7.66749L11.8486 7.65104L11.9192 7.6353L11.9901 7.62025L12.0612 7.6059L12.1325 7.59226L12.204 7.57933L12.2757 7.56711L12.3476 7.5556L12.4197 7.54481L12.4919 7.53474L12.5643 7.52539L12.6369 7.51676L12.7096 7.50886L12.7825 7.50169L12.8555 7.49525L12.9287 7.48954L13.002 7.48456L13.0753 7.48033L13.1489 7.47683L13.2225 7.47407L13.2962 7.47205L13.37 7.47078L13.4439 7.47025L13.5178 7.47047L13.5918 7.47144L13.6659 7.47316L13.7401 7.47563L13.8143 7.47885L13.8885 7.48283L13.9627 7.48756L14.037 7.49305L14.1113 7.49929L14.1856 7.50629L14.2599 7.51405L14.3342 7.52257L14.4085 7.53184L14.4828 7.54188L14.557 7.55268L14.6312 7.56424L14.7054 7.57657L14.7795 7.58965L14.8535 7.6035L14.9275 7.61811L15.0014 7.63348L15.0752 7.64961L15.1489 7.66651L15.2226 7.68417L15.2961 7.70259L15.3695 7.72177L15.4428 7.74171L15.516 7.76241L15.589 7.78388L15.6619 7.8061L15.7346 7.82908L15.8072 7.85282L15.8796 7.87731L15.9519 7.90256L16.0239 7.92857L16.0958 7.95533L16.1675 7.98284L16.239 8.01111L16.3102 8.04012L16.3813 8.06989L16.4521 8.1004L16.5226 8.13165L16.593 8.16365L16.6631 8.19639L16.7329 8.22987L16.8024 8.26409L16.8717 8.29905L16.9407 8.33474L17.0095 8.37116L17.0779 8.40831L17.146 8.44619L17.2138 8.4848L17.2813 8.52413L17.3485 8.56417L17.4153 8.60494L17.4818 8.64642L17.548 8.68861L17.6138 8.73151L17.6792 8.77512L17.7442 8.81944L17.8089 8.86445L17.8732 8.91016L17.9371 8.95656L18.0006 9.00366L18.0637 9.05144L18.1264 9.0999L18.1887 9.14905L18.2505 9.19887L18.312 9.24937L18.3729 9.30053L18.4334 9.35237L18.4935 9.40486L18.5531 9.45801L18.6122 9.51181L18.6709 9.56626L18.729 9.62136L18.7867 9.6771L18.8439 9.73347L18.9006 9.79048L18.9567 9.84812L19.0124 9.90638L19.0675 9.96525L19.1221 10.0247L19.1762 10.0848L19.2297 10.1455L19.2826 10.2068L19.3351 10.2687L19.3869 10.3312L19.4382 10.3943L19.4889 10.4579L19.539 10.5222L19.5885 10.587L19.6374 10.6523L19.6858 10.7182L19.7335 10.7847L19.7806 10.8517L19.8271 10.9192L19.873 10.9873L19.9182 11.0559L19.9628 11.1251L20.0068 11.1947L20.0501 11.2649L20.0927 11.3355L20.1347 11.4067L20.1761 11.4784L20.2167 11.5505L20.2567 11.6231L20.296 11.6962L20.3347 11.7698L20.3726 11.8438L20.4098 11.9183L20.4463 11.9932L20.4822 12.0686L20.5173 12.1444L20.5517 12.2206L20.5853 12.2973L20.6183 12.3743L20.6505 12.4518L20.682 12.5297L20.7127 12.6079L20.7427 12.6866L20.7719 12.7656L20.8004 12.845L20.8281 12.9248L20.8551 13.0049L20.8813 13.0854L20.9067 13.1662L20.9313 13.2473L20.9552 13.3288L20.9783 13.4106L21.0006 13.4927L21.0221 13.5751L21.0428 13.6578L21.0627 13.7407L21.0818 13.824L21.1001 13.9075L21.1176 13.9913L21.1342 14.0754L21.1501 14.1597L21.1651 14.2443L21.1793 14.329L21.1927 14.414L21.2053 14.4993L21.217 14.5847L21.2279 14.6703L21.2379 14.7561L21.2472 14.8421L21.2555 14.9283L21.2631 15.0147L21.2697 15.1012L21.2756 15.1878L21.2805 15.2746L21.2846 15.3615L21.2879 15.4486L21.2903 15.5358L21.2919 15.623L21.2925 15.7104L21.2923 15.7979L21.2913 15.8854L21.2894 15.973L21.2866 16.0607L21.2829 16.1485L21.2784 16.2362L21.273 16.3241L21.2667 16.4119L21.2595 16.4998L21.2515 16.5877L21.2426 16.6755L21.2328 16.7634L21.2221 16.8513L21.2106 16.9391L21.1982 17.0269L21.1848 17.1147L21.1706 17.2024L21.1556 17.29L21.1396 17.3776L21.1228 17.4651L21.105 17.5525L21.0864 17.6398L21.067 17.727L21.0466 17.8141L21.0253 17.9011L21.0032 17.9879L20.9802 18.0746L20.9563 18.1612L20.9315 18.2476L20.9059 18.3338L20.8793 18.4199L20.8519 18.5057L20.8236 18.5914L20.7945 18.6768L20.7644 18.7621L20.7335 18.8471L20.7017 18.9319L20.6691 19.0164L20.6356 19.1007L20.6012 19.1848L20.5659 19.2685L20.5298 19.352L20.4928 19.4352L20.455 19.5181L20.4163 19.6008L20.3768 19.683L20.3364 19.765L20.2951 19.8467L20.253 19.928L20.2101 20.0089L20.1663 20.0895L20.1217 20.1697L20.0762 20.2496L20.0299 20.3291L19.9828 20.4082L19.9349 20.4868L19.8861 20.5651L19.8365 20.6429L19.7861 20.7204L19.7348 20.7973L19.6828 20.8739L19.6299 20.95L19.5763 21.0256L19.5218 21.1007L19.4666 21.1754L19.4105 21.2496L19.3537 21.3233L19.2961 21.3965L19.2377 21.4691L19.1785 21.5413L19.1186 21.6129L19.0579 21.684L18.9964 21.7545L18.9342 21.8245L18.8712 21.8939L18.8075 21.9627L18.743 22.031L18.6778 22.0987L18.6119 22.1657L18.5453 22.2322L18.4779 22.2981L18.4098 22.3633L18.341 22.4279L18.2714 22.4919L18.2012 22.5553L18.1303 22.618L18.0587 22.68L17.9864 22.7414L17.9135 22.8021L17.8399 22.8621L17.7656 22.9214L17.6906 22.98L17.615 23.038L17.5388 23.0952L17.4619 23.1517L17.3844 23.2075L17.3062 23.2625L17.2275 23.3168L17.1481 23.3704L17.0681 23.4232L16.9875 23.4752L16.9064 23.5265L16.8246 23.577L16.7423 23.6268L16.6593 23.6757L16.5759 23.7239L16.4919 23.7712L16.4073 23.8178L16.3222 23.8635L16.2365 23.9085L16.1503 23.9526L16.0636 23.9958L15.9764 24.0383L15.8887 24.0798L15.8005 24.1206L15.7118 24.1605L15.6227 24.1995L15.533 24.2377L15.4429 24.275L15.3523 24.3114L15.2613 24.3469L15.1699 24.3816L15.078 24.4153L14.9857 24.4482L14.893 24.4801L14.7999 24.5112L14.7064 24.5413L14.6125 24.5706L14.5182 24.5988L14.4236 24.6262L14.3285 24.6527L14.2332 24.6782L14.1375 24.7027L14.0414 24.7263L13.9451 24.749L13.8484 24.7707L13.7514 24.7915L13.6541 24.8113L13.5566 24.8301L13.4587 24.848L13.3606 24.8648L13.2622 24.8808L13.1636 24.8957L13.0647 24.9096L12.9656 24.9226L12.8663 24.9346L12.7667 24.9455L12.667 24.9555L12.567 24.9645L12.4669 24.9725L12.3666 24.9794L12.2662 24.9854L12.1655 24.9904L12.0648 24.9943L11.9639 24.9972L11.8629 24.9991L11.7617 25L11.6605 24.9999L11.5592 24.9987L11.4577 24.9965L11.3562 24.9933L11.2547 24.989L11.1531 24.9838L11.0514 24.9775L10.9497 24.9701L10.848 24.9617L10.7463 24.9523L10.6445 24.9419L10.5428 24.9304L10.4411 24.9178L10.3394 24.9042L10.2378 24.8896L10.1362 24.874L10.0346 24.8573L9.93318 24.8395L9.83179 24.8207L9.7305 24.8009L9.6293 24.78L9.52821 24.7581L9.42724 24.7351L9.32641 24.7111L9.22571 24.686L9.12517 24.66L9.02479 24.6328L8.92459 24.6046L8.82457 24.5754L8.72474 24.5452L8.62512 24.5139L8.52571 24.4815L8.42653 24.4482L8.32759 24.4137L8.22889 24.3783L8.13045 24.3418L8.03228 24.3043L7.93438 24.2658L7.83677 24.2262L7.73947 24.1856L7.64247 24.144L7.54579 24.1014L7.44944 24.0578L7.35343 24.0131L7.25778 23.9674L7.16248 23.9207L7.06756 23.873L6.97302 23.8243L6.87887 23.7746L6.78513 23.7239L6.69179 23.6722L6.59888 23.6195L6.50641 23.5658L6.41438 23.5112L6.3228 23.4555L6.23168 23.3989L6.14104 23.3412L6.05089 23.2827L5.96123 23.2231L5.87207 23.1626L5.78343 23.1011L5.69531 23.0387L5.60773 22.9753L5.52069 22.911L5.43421 22.8457L5.34829 22.7795L5.26294 22.7124L5.17818 22.6443L5.09401 22.5753L5.01045 22.5054L4.92749 22.4346L4.84516 22.3629L4.76347 22.2903L4.68241 22.2167L4.602 22.1423L4.52226 22.067L4.44318 21.9909L4.36479 21.9138L4.28708 21.8359L4.21007 21.7571L4.13377 21.6775L4.05818 21.597L3.98332 21.5157L3.90919 21.4336L3.83581 21.3506L3.76318 21.2668L3.6913 21.1822L3.6202 21.0967L3.54988 21.0105L3.48034 20.9235L3.4116 20.8357L3.34366 20.7471L3.27654 20.6578L3.21024 20.5677L3.14476 20.4768L3.08013 20.3852L3.01634 20.2928L2.9534 20.1997L2.89133 20.1059L2.83012 20.0113L2.7698 19.9161L2.71036 19.8201L2.65181 19.7235L2.59417 19.6262L2.53743 19.5282L2.48161 19.4295L2.42672 19.3302L2.37275 19.2302L2.31973 19.1296L2.26765 19.0283L2.21652 18.9265L2.16636 18.824L2.11716 18.7209L2.06894 18.6172L2.02169 18.5129L1.97544 18.4081L1.93018 18.3027L1.88592 18.1967L1.84266 18.0902L1.80043 17.9831L1.75921 17.8755L1.71901 17.7674L1.67985 17.6588L1.64173 17.5496L1.60466 17.44L1.56863 17.3299L1.53366 17.2194L1.49975 17.1084L1.46691 16.9969L1.43514 16.885L1.40445 16.7727L1.37484 16.6599L1.34632 16.5468L1.31889 16.4332L1.29257 16.3193L1.26734 16.2049L1.24323 16.0903L1.22022 15.9752L1.19834 15.8599L1.17757 15.7442L1.15793 15.6281L1.13943 15.5118L1.12205 15.3952L1.10582 15.2783L1.09073 15.1611L1.07678 15.0436L1.06398 14.9259L1.05234 14.808L1.04185 14.6898L1.03253 14.5714L1.02437 14.4528L1.01737 14.334L1.01155 14.215L1.00689 14.0958L1.00342 13.9765L1.00112 13.857L1 13.7374L1.00007 13.6177L1.00132 13.4979L1.00376 13.3779L1.00739 13.2579L1.01221 13.1378L1.01822 13.0176L1.02543 12.8974L1.03384 12.7771L1.04345 12.6568L1.05426 12.5365L1.06627 12.4162L1.07948 12.2959L1.0939 12.1756L1.10952 12.0553L1.12635 11.9351L1.14438 11.8149L1.16363 11.6949L1.18407 11.5748L1.20573 11.4549L1.2286 11.3351L1.25267 11.2154L1.27795 11.0958L1.30444 10.9764L1.33214 10.8571L1.36104 10.738L1.39116 10.6191L1.42248 10.5004L1.455 10.3819L1.48873 10.2635L1.52366 10.1455L1.5598 10.0276L1.59713 9.91002L1.63567 9.7927L1.6754 9.67565L1.71634 9.5589L1.75846 9.44245L1.80178 9.32631L1.84629 9.2105L1.89199 9.09504L1.93888 8.97992L1.98695 8.86517L2.03621 8.7508L2.08664 8.63682L2.13825 8.52324L2.19104 8.41007L2.24499 8.29733L2.30011 8.18503L2.3564 8.07318L2.41385 7.96179L2.47246 7.85088L2.53222 7.74046L2.59313 7.63053L2.65518 7.52112L2.71838 7.41223L2.78272 7.30388L2.84819 7.19607L2.9148 7.08883L2.98252 6.98215L3.05137 6.87607L3.12133 6.77057L3.19241 6.66569L3.26459 6.56142L3.33787 6.45778L3.41225 6.35479L3.48772 6.25245L3.56428 6.15078L3.64191 6.04979L3.72062 5.94949L3.8004 5.84988L3.88123 5.75099L3.96313 5.65283L4.04607 5.5554L4.13006 5.45871L4.21509 5.36279L4.30114 5.26763L4.38822 5.17325L4.47632 5.07966L4.56543 4.98688L4.65554 4.89491L4.74665 4.80377L4.83875 4.71346L4.93183 4.62399L5.02588 4.53538L5.1209 4.44764L5.21688 4.36078L5.31381 4.27481L5.41169 4.18973L5.5105 4.10557L5.61023 4.02232L5.71089 3.94L5.81246 3.85863L5.91493 3.7782L6.01829 3.69874L6.12254 3.62024L6.22767 3.54273L6.33366 3.4662L6.44051 3.39068L6.54822 3.31616L6.65676 3.24267L6.76613 3.1702L6.87632 3.09877L6.98733 3.02839L7.09914 2.95906L7.21174 2.8908L7.32513 2.82361L7.43928 2.7575L7.5542 2.69249L7.66988 2.62858L7.7863 2.56578L7.90344 2.5041L8.02132 2.44354L8.1399 2.38412L8.25919 2.32584L8.37916 2.26871L8.49982 2.21275L8.62114 2.15795L8.74312 2.10432L8.86575 2.05188L8.98901 2.00063L9.1129 1.95058L9.23741 1.90173L9.36251 1.8541L9.48821 1.80769L9.61448 1.76251L9.74132 1.71856L9.86872 1.67585L9.99666 1.63439L10.1251 1.59418L10.2541 1.55524L10.3836 1.51757L10.5136 1.48117L10.6441 1.44605L10.7751 1.41221L10.9065 1.37967L11.0383 1.34843L11.1706 1.31849L11.3034 1.28987L11.4365 1.26256L11.57 1.23657L11.7039 1.2119L11.8382 1.18857L11.9728 1.16657L12.1078 1.14592L12.2431 1.12661L12.3788 1.10865L12.5147 1.09205L12.651 1.07681L12.7875 1.06293L12.9243 1.05042L13.0613 1.03928L13.1986 1.02952L13.3361 1.02113L13.4738 1.01413L13.6117 1.00852L13.7498 1.0043L13.8881 1.00147L14.0266 1.00003L14.1652 1L14.3039 1.00137L14.4427 1.00414L14.5816 1.00832L14.7207 1.01391L14.8598 1.02091L14.999 1.02933L15.1382 1.03916L15.2774 1.05041L15.4167 1.06308L15.556 1.07717L15.6953 1.09269L15.8345 1.10963L15.9737 1.12799L16.1129 1.14778L16.252 1.16899L16.391 1.19164L16.53 1.21571L16.6688 1.24121L16.8075 1.26814L16.9461 1.29649L17.0845 1.32628L17.2228 1.3575L17.3609 1.39014L17.4988 1.42421L17.6364 1.45971L17.7739 1.49664L17.9111 1.53499L18.0481 1.57477L18.1848 1.61597L18.3213 1.6586L18.4574 1.70264L18.5933 1.74811L18.7288 1.79499L18.864 1.84329L18.9988 1.893L19.1333 1.94412L19.2674 1.99665L19.4011 2.05059L19.5343 2.10593L19.6672 2.16268L19.7996 2.22082L19.9316 2.28035L20.0632 2.34128L20.1942 2.4036L20.3247 2.4673L20.4548 2.53239L20.5843 2.59885L20.7133 2.66668L20.8417 2.73589L20.9696 2.80646L21.0969 2.87839L21.2236 2.95168L21.3497 3.02632L21.4752 3.1023L21.6 3.17963L21.7242 3.25829L21.8478 3.33829L21.9706 3.41961L22.0928 3.50225L22.2143 3.58621L22.335 3.67147L22.4551 3.75804L22.5743 3.84591L22.6929 3.93506L22.8106 4.0255L22.9276 4.11722L23.0438 4.21021L23.1591 4.30446L23.2737 4.39997L23.3874 4.49672L23.5003 4.59472L23.6122 4.69396L23.7234 4.79442L23.8336 4.8961L23.9429 4.999L24.0513 5.1031L24.1588 5.20839L24.2653 5.31487L24.3709 5.42253L24.4756 5.53136L24.5792 5.64136L24.6818 5.7525L24.7835 5.86479L24.8841 5.97822L24.9837 6.09277L25.0823 6.20844L25.1798 6.32521L25.2763 6.44309L25.3716 6.56205L25.4659 6.68209L25.5591 6.8032L25.6512 6.92536L25.7422 7.04857L25.832 7.17282L25.9207 7.2981L26.0082 7.4244L26.0945 7.55169L26.1797 7.67999L26.2637 7.80927L26.3465 7.93952L26.428 8.07073L26.5084 8.20289L26.5875 8.33599L26.6654 8.47002L26.742 8.60496L26.8174 8.74081L26.8915 8.87754L26.9643 9.01516L27.0358 9.15364L27.106 9.29298L27.1749 9.43317L27.2424 9.57418L27.3087 9.71601L27.3736 9.85865L27.4371 10.0021L27.4993 10.1463L27.5601 10.2913L27.6196 10.437L27.6776 10.5834L27.7343 10.7306L27.7895 10.8785L27.8434 11.0271L27.8958 11.1764L27.9468 11.3264L27.9963 11.477L28.0444 11.6283L28.0911 11.7802L28.1363 11.9327L28.18 12.0858L28.2223 12.2395L28.263 12.3938L28.3023 12.5486L28.3401 12.704L28.3764 12.8599L28.4112 13.0164L28.4444 13.1733L28.4762 13.3307L28.5064 13.4886L28.5351 13.6469L28.5622 13.8057L28.5878 13.9649L28.6118 14.1245L28.6343 14.2845L28.6552 14.4449L28.6745 14.6057L28.6923 14.7668" stroke="#262B37" stroke-width="2" stroke-linecap="round"/>
</svg>
