<svg width="1440" height="810" viewBox="0 0 1440 810" fill="none" xmlns="http://www.w3.org/2000/svg"><g clip-path="url(#clip0)" fill="#E2E7EE"><path d="M1236.25 63.598l-16.69 42.482c-.49 1.257 1.26 1.948 1.76.691l16.69-42.482c.39-1.005-1.37-1.696-1.76-.69z"/><path d="M1237.86 65.393c11.56-5.037 24.26-2.657 35.92-6.491 1.3-.36.29-2.209-.76-1.75-11.91 3.734-24.46 1.705-35.92 6.49-1.3.36-.54 2.11.76 1.751z"/><path d="M1270.23 59.827c12.98 6.84 19.26 17.434 25.61 30.084.46 1.05 2.46.385 1.75-.764-6.81-13.7-12.94-23.943-26.67-31.08-1.26-.493-1.95 1.266-.69 1.76z"/><path d="M1294.89 90.116c-5.24 13.323-9.12 26.888-14.85 40.013-.5 1.257 1.26 1.948 1.76.692 5.48-13.224 9.61-26.691 14.85-40.013.64-.907-1.37-1.697-1.76-.692zm-74.18 15.254c-.26-.099-.35.153-.61.054-.7.305-.64.907-.34 1.607 7.99 10.683 15.33 20.819 21.82 32.364.71 1.149 2.46.386 1.75-.763-2.49-4.75-17.76-33.091-21.86-31.511 1.05-.458.29-2.209-.76-1.751z"/><path d="M1240.88 139.7c13.98-2.343 27.96-4.686 41.73-7.981 1.3-.359.89-2.263-.42-1.903-13.77 3.294-27.75 5.638-41.72 7.981-1.21.108-.79 2.011.41 1.903zm50.43-51.568c-5.23 13.323-10.46 26.645-15.8 40.219-.49 1.257 1.27 1.949 1.76.692 5.24-13.323 10.47-26.646 15.8-40.22.4-1.005-1.36-1.696-1.76-.691zm-17.93-28.226c8.34-5.72 20.67-7.55 30.18-11.07 1.05-.458.28-2.208-.77-1.75-10.11 3.573-21.73 5.099-30.87 11.374-.8.557.31 2.155 1.46 1.446zm36.37-16.472c-.78 4.92-3.21 8.897-3.88 13.565-.24 1.356 1.71 1.544 1.96.189.77-4.92 3.2-8.897 3.87-13.566.15-1.104-1.81-1.292-1.95-.188zm5.97 1.767c-1.48 3.77-2.71 7.64-4.04 11.76-.24 1.356 1.52 2.048 1.76.692.98-3.968 2.46-7.739 4.04-11.76.4-1.006-1.36-1.697-1.76-.692z"/><path d="M1308.65 52.87c1.51.592 3.12.933 4.88 1.624 1.25.494 1.94-1.266.69-1.76-1.51-.592-3.12-.933-4.88-1.624-1.25-.494-1.95 1.266-.69 1.76zm-37.18 5.996c4.35-11.06 8.69-22.121 13.04-33.181.49-1.257-1.27-1.948-1.76-.692-4.35 11.06-8.69 22.121-13.04 33.181-.49 1.257 1.27 1.949 1.76.692zm8.97-50.158c-1.58 4.022-2.96 7.541-3.09 11.554-.14 1.104 1.82 1.293 1.96.189-.03-4.363 1.51-7.533 2.89-11.052.5-1.257-1.51-2.047-1.76-.691zm5.03 1.976c-.38 3.914-1.51 7.532-3.14 10.953-.49 1.257 1.27 1.948 1.76.691 1.83-3.923 2.86-7.29 3.34-11.455-.11-1.203-1.81-1.293-1.96-.189z"/><path d="M1279.28 16.087c3.12.933 2.86.835 6.18 1.266 1.25.493 1.44-1.464.09-1.706l-5.58-1.32c-1.25-.493-2.04 1.517-.69 1.76zm48.02 83.86c-5.34 13.574-10.67 27.148-16 40.722-.5 1.257 1.26 1.948 1.76.691 5.33-13.574 10.66-27.148 16-40.722.39-1.005-1.37-1.697-1.76-.691z"/><path d="M1311.24 140.067c9.86 12.577 17.22 27.076 26.63 40.057.71 1.149 2.15-.314 1.6-1.113-9.31-13.233-16.77-27.48-26.63-40.057-.81-.898-2.41.215-1.6 1.113z"/><path d="M1339.07 178.564c15.55.305 32.94-1.859 47.8-6.464 1.31-.359.29-2.209-.76-1.751-14.61 4.705-31.65 6.716-46.95 6.509-1.11-.143-1.29 1.814-.09 1.706z"/><path d="M1387.37 170.842c.1-6.922 5.32-15.029 7.29-21.511 2.26-7.235 4.27-14.57 7.03-21.608.5-1.257-1.26-1.949-1.76-.692-3.45 8.798-6.06 17.641-8.76 26.735-1.67 5.728-5.7 10.818-5.76 16.887.11 1.203 1.81 1.293 1.96.189zm-59.11-69.647c13.1-6.751 28.55-6.195 42.21-10.692 1.3-.36.29-2.209-.76-1.751-13.67 4.498-29.22 4.193-42.22 10.692-1.3.36-.53 2.11.77 1.751z"/><path d="M1370.11 89.2c5.35 5.584 9.9 11.725 15.15 17.56 4.85 5.387 12.81 11.707 14.92 18.916.35 1.301 2.2.287 1.75-.763-1.64-4.705-4.97-8.044-8.3-11.384-7.52-8.178-14.4-17.264-21.92-25.442-1.06-.997-2.41.215-1.6 1.113z"/><path d="M1371.5 87.135c-5.14-4.633-7.36-14.5-9.96-20.451-.45-1.05-2.21-.287-1.75.763 2.8 6.904 4.97 16.168 10.52 21.25 1.05.996 2.25-.566 1.19-1.562z"/><path d="M1369.8 87.045c7.57.656 19.29-10.701 25.09-13.646 1.05-.458.28-2.208-.77-1.75-5.54 3.043-18.01 14.103-24.14 13.44-1.1-.144-1.29 1.813-.18 1.956zm-19.59-45.417c-2.08 5.279-3.35 10.001-4.07 15.522-.14 1.105 1.71 1.544 1.96.189.87-5.171 1.99-10.243 3.87-15.02.39-1.005-1.37-1.696-1.76-.69zm5.7 5.432c-1.19 3.017-2.47 6.285-3.66 9.301-.49 1.257 1.27 1.948 1.76.692 1.19-3.017 2.47-6.285 3.66-9.301.64-.907-1.37-1.697-1.76-.692z"/><path d="M1348.65 50.014c2.68 2.792 6.15 3.573 9.86 4.453 1.36.242 1.55-1.715.19-1.958-3.31-.43-6.08-1.517-8.45-3.608-.81-.898-2.4.215-1.6 1.113zm48.2 8.778c-.48 2.712-1.22 5.324-1.7 8.035-.5 1.257 1.51 2.047 1.76.692 1.47-5.225 1.28-3.268 1.9-8.538-.11-1.203-1.81-1.293-1.96-.189zm6.75 3.52a35.575 35.575 0 00-2.77 7.038c-.49 1.257 1.52 2.047 1.76.691a35.575 35.575 0 012.77-7.038c.39-1.006-1.37-1.697-1.76-.691z"/><path d="M1397.54 65.158c2.02.79 3.87 1.23 5.98 1.768 1.26.494 2.05-1.517.69-1.76-2.1-.538-3.86-1.23-5.97-1.768-1.26-.494-1.95 1.266-.7 1.76zm-2.53 61.101l-16.19 41.225c-.49 1.257 1.26 1.948 1.76.691l16.19-41.225c.5-1.257-1.26-1.948-1.76-.691zm-108.41 27.05c-1.27 4.722-2.9 9.597-4.42 14.22-.79 2.011 2.22 3.196 3.01 1.185 1.63-4.875 3.15-9.498 4.43-14.22.54-2.11-2.48-3.295-3.02-1.185zm7.41 5.522c.02 4.363-.7 8.43-2.53 12.353-.79 2.011 2.22 3.196 3.01 1.185 1.78-4.525 2.66-8.241 2.93-13.359-.06-2.056-3.13-2.388-3.41-.179z"/><path d="M1282.66 164.819c5.78 2.272 11.26 3.843 17.28 4.758 1.96.189 2.29-2.873.43-3.312-5.77-.817-10.99-2.29-16.52-4.462-2.01-.79-3.2 2.226-1.19 3.016z"/></g><path d="M1322.47 466.355v104.9c0 .9 1.4.9 1.4 0v-104.9c0-.8-1.4-.8-1.4 0z" fill="#E2E7EE"/><path d="M1323.07 569.855c-1.2-3.7-3.2-6.1-7-7.1-.9-.2-1.2 1.1-.4 1.3 3.3.9 5.1 2.9 6.1 6.2.2.8 1.6.4 1.3-.4z" fill="#E2E7EE"/><path d="M1323.87 571.355c.4-3.3 2.1-5.1 4.8-6.7.8-.5.1-1.7-.7-1.2-3.1 1.9-5 4.2-5.4 7.9-.2.9 1.2.9 1.3 0zm13.8-116.2h99c.9 0 .9-1.4 0-1.4h-99c-.9 0-.9 1.4 0 1.4z" fill="#E2E7EE"/><path d="M1435.97 452.455c-4.3-.1-8-1.9-10.3-5.6-.5-.8-1.7-.1-1.2.7 2.5 4.1 6.7 6.2 11.5 6.3.9 0 .9-1.4 0-1.4z" fill="#E2E7EE"/><path d="M1436.37 454.555c-4.9-3.7-7.3 1.2-8.3 5.7-.2.9 1.1 1.2 1.3.4.6-2.8 2.8-7.5 6.3-4.9.7.5 1.4-.7.7-1.2zm-97.9 132.1h91c.9 0 .9-1.4 0-1.4h-91c-.9 0-.9 1.4 0 1.4z" fill="#E2E7EE"/><path d="M1430.37 586.655c-4.6-.7-7.3-3.6-10.6-6.5-.7-.6-1.7.4-1 1 3.6 3 6.4 6 11.2 6.8.9.1 1.3-1.2.4-1.3z" fill="#E2E7EE"/><path d="M1427.07 584.655c-5 1.5-8.1 5-10 9.8-.3.8 1 1.2 1.3.4 1.6-4.3 4.5-7.5 9-8.8.9-.4.6-1.7-.3-1.4zm13.3-4.6c1.8-.2 3.7-.4 5.5-.6.9-.1 10.4-2.1 8.1.7-3.3 3.9-8.1 6.4-11.9 9.8-.6.5 0 1.3.7 1.2 7.4-1.6 14.9-1.9 22.4-1.7.9 0 .9-1.4 0-1.4-7.7-.1-15.3.1-22.8 1.8.2.4.5.8.7 1.2 4.6-4.1 10.2-7.2 13.9-12.3.3-.5-.1-1-.6-1-5.4-.7-10.6.6-15.9 1.1-1-.2-1 1.2-.1 1.2zm-125.6-.1c5.3 3 10.6 5.7 16.2 8 .8.3 1.2-1 .4-1.3-5.5-2.3-10.7-5-15.9-7.9-.8-.5-1.5.7-.7 1.2z" fill="#E2E7EE"/><path d="M1328.27 576.655c-.3 6.8-7.3 11.1-10.1 16.9-.4.8.8 1.5 1.2.7 2.9-6.1 10-10.4 10.3-17.6 0-.9-1.4-.9-1.4 0zm-13.8-132.2c.1 3.9.7 7.6 1.5 11.5.2.9 1.5.5 1.3-.4-.7-3.7-1.4-7.3-1.4-11.1-.1-.9-1.4-.9-1.4 0z" fill="#E2E7EE"/><path d="M1314.27 444.155c2.3-3.5 10.5-10.4 14.2-5.3 3.5 4.7-8.9 8.9-11.4 9.6-.9.2-.5 1.6.4 1.3 4.8-1.4 16.5-5.7 11.6-12.4-4.1-5.6-13.7 2.5-16 6.1-.5.8.7 1.5 1.2.7zm-111-82.9c2.6 2.3 5.4 4 8.2 6.1.7.5 1.4-.7.7-1.2-2.6-2-5.4-3.7-7.9-5.9-.7-.5-1.7.4-1 1zm13.2 10.8c.4.2.9.5 1.3.7.5.7.9.6 1.2 0-.9-.1-.9 1.3 0 1.4.7.1 1 .2 1.5-.3.3-.3.3-.7 0-1-1-.9-2.2-1.4-3.3-2.1-.8-.4-1.5.8-.7 1.3zm13.1 7.9c2.6 1.2 4.8 2.7 7.1 4.5.7.5 1.7-.4 1-1-2.4-1.8-4.7-3.5-7.4-4.8-.8-.2-1.5 1-.7 1.3zm32.1 19.3c1.4.8 2.6 1.9 3.5 3.2.6.7 1.6-.3 1-1-1.2-1.4-2.3-2.4-3.8-3.4-.8-.5-1.5.7-.7 1.2zm15.2 11.3c2.5 1.5 4.7 3.3 7.3 4.6.8.4 1.5-.8.7-1.2-2.5-1.4-4.8-3.1-7.3-4.6-.7-.5-1.4.7-.7 1.2zm15.5 14.7c2 .5 3.6 1.6 4.8 3.1.6.7 1.6-.3 1-1-1.6-1.8-3.2-2.7-5.4-3.5-.9-.3-1.2 1.1-.4 1.4zm12.9 9.9h1.5c.7.5 1.4-.7.7-1.2-.4-.2-.7-.5-1.1-.8-.2-.1-.5-.1-.7 0-.4.3-.7.5-1.1.8-.7.5 0 1.7.7 1.2z" fill="#E2E7EE"/><path d="M1305.47 435.355c-2.7-3.4-8.2-3-12.1-2.9-.9 0-.9 1.4 0 1.4 3.6-.1 8.7-.6 11.2 2.5.4.7 1.4-.3.9-1zm3-2c.7-2.8-4.9-7.5-5.8-10.3-.3-.9-1.6-.5-1.3.4.5 1.5 1.2 2.8 2.1 4.2.6.9 4 4.2 3.7 5.4-.2.8 1.1 1.2 1.3.3zm-66.5-47.6c2.2 1.5.5 7 4.2 7.4 5.6.5 4.3-4.9 4.9-8.6-.5-.1-.9-.1-1.4-.2-.1 4.7 2.3 8 7.1 8.1.9 0 .9-1.4 0-1.4-4.6-.1-5.8-3.2-5.7-6.7 0-.8-1.2-1-1.4-.2-.2 1-.2 2-.2 3 .3 2.2-1.1 3.4-4.4 3.5-.3-.7-.5-1.4-.7-2.1-.4-1.5-.5-3.1-1.9-4.1-.5-.5-1.2.7-.5 1.3zm-46-15.7c7.7 71.9 44.2 147.5 97.3 196.2.7.6 1.6-.4 1-1-52.8-48.4-89.2-123.6-96.9-195.2-.1-.9-1.5-.9-1.4 0zm18.9-13.1c78-13.2 164.9 17.7 227.2 64.1.7.5 1.4-.7.7-1.2-62.9-46.9-149.6-77.5-228.2-64.3-1 .2-.6 1.6.3 1.4z" fill="#E2E7EE"/><path d="M1442.67 420.855c-4.9-2.9-10.2-4.1-15.9-4.1-.9 0-.9 1.4 0 1.4 5.4 0 10.5 1.1 15.2 3.9.8.4 1.5-.8.7-1.2z" fill="#E2E7EE"/><path d="M1442.97 421.055c-2.1-3-3-6.6-4.9-9.7-.5-.8-1.7-.1-1.2.7 1.9 3.2 2.7 6.7 4.9 9.7.5.7 1.7 0 1.2-.7zm-149.8 144.6c-4.8-2.4-9.3-3.9-14.6-2.3-.9.3-.5 1.6.4 1.3 5-1.5 9-.1 13.5 2.1.8.5 1.5-.7.7-1.1z" fill="#E2E7EE"/><path d="M1292.17 563.855c-2.3-1.7-2.1-4.9-2.1-7.4 0-.9-1.4-.9-1.4 0 0 3.1 0 6.6 2.8 8.6.8.5 1.5-.7.7-1.2zm-109.1-225.9c-9.7-.9-9.9 19.1 2.4 13.2 3.5-1.7 5.8-6.6 5.3-10.3-.7-5-5.1-5.6-9.3-4.2-.8.3-.5 1.6.4 1.3 7.9-2.6 9.3 5 5.2 10.2-2.2 2.8-8 4.3-9.7-.1-1.3-3.4 2.1-9 5.8-8.7.8 0 .8-1.4-.1-1.4z" fill="#E2E7EE"/><path d="M1182.87 346.555c.4 4.9 5.3 5.5 9.4 6 .9.1.9-1.3 0-1.4-3-.4-7.7-.5-8-4.6 0-.9-1.4-.9-1.4 0zm25.5 127.7c-6.4.5-14.9 11.7-8.3 16.8 5.4 4.2 8.7-10.7 7.9-13.7-.1-.6-1-.7-1.3-.2-3.9 7.2-1 20.5 2.7 27.3.2.3.5.4.8.3 8.8-1.2 5.6-16.8-2.4-17.3.2.4.3.8.5 1.2 2.8-2.8 5.8-5.4 8.3-8.4.6-.7-.4-1.7-1-1-2.6 3-5.5 5.6-8.3 8.4-.5.4-.1 1.2.5 1.2 4.4.3 5.9 4.9 6.1 8.6.1 1.5-.3 2.9-1 4.2-2.2 4.2-3.3.1-3.8-1.5-2.1-6.1-4.5-16.3-1.2-22.3-.4-.1-.8-.1-1.3-.2.9 3.8-.9 8.7-3.4 11.5-2.6 1.2-4 .3-4.2-2.7-.1-1.8 1-3.6 1.9-5.1 1.5-2.6 4.3-5.6 7.5-5.8.9.1.9-1.3 0-1.3zm12.4-2.5c-.8 3.3-.7 6.4 0 9.7.2.9 1.5.5 1.3-.4-.7-3.1-.8-5.8 0-8.9.3-.9-1.1-1.3-1.3-.4z" fill="#E2E7EE"/><path d="M1219.47 471.855c-1.1 1-1.8 1.9-2.5 3.2-.4.8.8 1.5 1.2.7.5-1.2 1.3-2.2 2.3-3 .7-.5-.3-1.5-1-.9zm120.8-129c-4.4.9-12.8 11-6.8 14.5 4.8 2.7 9.9-10 10.6-12.9.2-.9-1.1-1.2-1.3-.4-2 7.1-.8 14.4-.6 21.6 0 .4.3.7.7.7 7 .8 7.1-12.8.2-13.3.1.4.2.9.4 1.3 2.6-1.3 4.6-2.9 6.7-5 .6-.6-.3-1.6-1-1-2 2-4 3.5-6.4 4.8-.7.3-.3 1.2.4 1.3 3.3.2 3.7 3.7 3.6 6.1-.1 2.5-3 6.7-3.3 1.9-.3-6.1-1-12.1.6-18-.4-.1-.9-.2-1.3-.4-.8 3.6-2.8 7.2-5.1 10-.5.6-1.1 1.2-1.7 1.6-1-.9-1.9-1.9-2.9-2.8.3-1 .6-2 1.2-2.9 1.2-2.4 3.6-5.2 6.4-5.8.8-.2.4-1.5-.4-1.3zm14.8 2.3c.9-1.7 4.5-3.6 2.5.3-.8 1.5-2 2.7-3.2 4-1.4 1.6-2.8 3-4 4.8-.3.4.1 1 .6 1 5.7 0 10.9-2.7 16.6-3.1.9-.1.9-1.5 0-1.4-2.9.2-5.6.9-8.5 1.7-2.2.6-4.2 1.1-6.4 1.4 0 0 2.4-3.1 2.7-3.4 2.6-2.9 5.4-6.1 4.2-10.2-.1-.3-.5-.6-.9-.5-2.4 1-3.7 2.4-4.9 4.7-.3.8.9 1.5 1.3.7zm15.7 79.1c1 5.8.5 11.7.5 17.5 0 .9 1.4.9 1.4 0 .1-6 .5-11.9-.5-17.9-.2-.8-1.5-.5-1.4.4z" fill="#E2E7EE"/><path d="M1370.37 427.355c.8-.3 1.7-.7 2.5-1 3.2 3.5 3.2 5.9-.1 7.3-1.3.9-2.9 1.4-4.4 1.7-.9.2-.5 1.5.4 1.3 3-.7 10.3-3.7 9.2-8.1-1-3.8-5.2-4.6-8.2-2.5-.8.6-.1 1.8.6 1.3zm11.5 13.3c1.4.6.9 1.5-1.4 2.7-.5.5 0 1.3.7 1.2 2.1-.3 4.2-.6 6.4-.7.9-.1.9-1.5 0-1.4-2.3.2-4.5.4-6.8.8.2.4.5.8.7 1.2 2.1-2.3 3.5-4.4 3.4-7.6 0-.4-.4-.8-.9-.7-2.2.7-3 1.9-3.4 4.2-.2.8 1.2 1.2 1.3.3zm-84.8 61.4c-3.7 6.3.3 14 .4 20.7 0 .9 1.4.9 1.4 0-.1-6.4-4.1-14.1-.6-20 .5-.7-.7-1.4-1.2-.7z" fill="#E2E7EE"/><path d="M1296.97 505.555c-.5-3.6 9.5-4 6.4 2.2-1.2 2.5-4.3 4.3-6.8 5.1-.8.3-.5 1.6.4 1.3 4-1.4 11.1-6.3 7.5-11.1-2.1-2.8-9.4-1.7-8.8 2.4 0 1 1.4 1 1.3.1zm10.4 9.8c1.8-1.5 2.1-2.3 2.8.3.5 1.8.4 4 .3 5.9 0 .9 1.4.9 1.4 0 .1-3.3-.1-6.2-1.5-9.2-.2-.4-.8-.4-1.1-.1-1.1.9-1.9 1.4-3 2.2-.5.5.4 1.4 1.1.9zm68.5 98c3.6.3 8.2.8 8.7-3.7.4-3.3-1.7-6.7-1.8-10-.1-5.1 7.3-4.2 10.6-4 .9 0 .9-1.3 0-1.4-3.2-.2-9.9-1-11.5 3-.8 2.2-.4 4.4.2 6.6.5 2 1.1 3.7 1.2 5.7.1 3.4-5.5 2.4-7.3 2.3-1 .1-1 1.5-.1 1.5z" fill="#E2E7EE"/><path d="M1379.97 603.155c2.4-.4 4.7-.5 7.1-.4.9 0 .9-1.4 0-1.4-2.5-.1-5 .1-7.5.5-.9.1-.5 1.5.4 1.3z" fill="#E2E7EE"/><g clip-path="url(#clip1)" fill="#E2E7EE"><path d="M-86.351 161.914c21.84-2.648 43.593-6.092 65.367-9.337 22.867-3.367 49.652-9.487 72.756-8.051.916.098 1.147-1.437.241-1.436-44.782-2.73-93.844 12.025-138.432 17.323-.994.111-.827 1.602.068 1.501zm138.709-16.649c-4.118 13.543 1.231 29.849 3.452 43.386 4.654 28.961 13.61 63.982 10.766 93.382-.099.916 1.337 1.158 1.435.241 1.958-20.244-3.794-42.844-5.856-63.04-2.34-21.775-14.956-51.756-8.428-73.418.309-.839-1.072-1.49-1.37-.551zM-68.153 303.67c25.205-6.749 53.352-8.796 79.201-12.498 22.779-3.256 45.895.09 68.163-6.832.872-.299.319-1.646-.553-1.347C53.75 290.614 26.129 287.47.38 291.16c-22.68 3.246-46.917 5.157-69.086 11.163-.972.31-.418 1.657.553 1.347z"/><path d="M-85.588 163.338c5.112-12.748 22.796-21.069 33.998-27.959 17.493-10.916 35.23-21.457 52.834-32.284.85-.498-.09-1.701-.84-1.214-18.741 11.458-37.604 22.728-56.322 34.385C-66.447 142.88-82 150.459-86.87 162.677c-.396.95.974 1.501 1.282.661zm132.572-13.043c7.21-12.883 25.577-23.193 36.224-33.241 11.575-10.755 23.603-20.153 35.774-30.07.74-.586-.101-1.8-.84-1.214-15.206 12.47-29.739 24.665-44.26 37.864-9.224 8.379-22.072 14.95-28.279 26.01-.396.951.974 1.501 1.381.651z"/><path d="M-1.241 102.467c38.258-6.098 80.93-17.722 119.838-14.434.916.099 1.158-1.337.241-1.436-39.118-3.365-81.789 8.26-120.247 14.38-.883.199-.716 1.69.168 1.49z"/><path d="M119.027 87.381a1591.644 1591.644 0 0018.386 118.289c.199.883 1.591.727 1.491-.167a1592.172 1592.172 0 01-18.387-118.289c-.111-.993-1.602-.826-1.49.167z"/><path d="M73.637 287.581c11.35-15.46 25.948-27.964 37.153-43.81 9.209-13.006 20.584-24.645 27.947-38.854.408-.85-.862-1.412-1.37-.551-7.925 15.479-20.558 28.467-30.638 42.678-10.257 14.431-23.896 25.62-34.296 39.665-.519.763.686 1.634 1.204.872zM2.658 104.043c-.704 2.695-.757 4.915-.147 7.664.055.497.85.408.695-.078-.587-2.55-.545-4.869.17-7.465.154-.42-.564-.541-.718-.121zm.91 16.199c1.327 1.965 1.859 4.018 1.706 6.249a.35.35 0 00.696-.078c.008-2.617-.49-4.372-1.84-6.536-.254-.474-.806-.01-.562.365zm2.352 12.013c.387.762.786 1.623 1.173 2.384a.35.35 0 00.695-.078c-.067-1.501-.421-1.965-1.438-2.958-.331-.265-.761.387-.43.652zm2.319 11.715l.523 4.671a.35.35 0 00.696-.078l-.523-4.671a.35.35 0 00-.696.078zm2.452 12.907l.412 3.677a.35.35 0 00.696-.078l-.412-3.677a.35.35 0 00-.696.078zm1.582 14.112c.498 1.755 1.085 3.4 1.584 5.155-.044.508.674.629.718.121.042-2.319-.335-3.887-1.75-5.741-.244-.375-.796.089-.552.465zm2.853 16.484c1.272 2.373 1.815 4.526 1.818 7.243a.35.35 0 00.696-.078c-.014-2.816-.557-4.969-1.84-7.441-.144-.387-.917-.099-.674.276zm3.969 16.561c1.084 1.59 1.593 3.444 1.595 5.256a.35.35 0 00.696-.078c-.146-2.198-.622-3.754-1.74-5.642-.243-.375-.794.089-.551.464zm3.635 14.486l.312 2.782a.35.35 0 00.696-.078l-.312-2.782a.35.35 0 00-.695.078zm5.823 2.567l6.062-.679a.351.351 0 00-.078-.696l-6.062.68c-.508-.044-.42.751.078.695zm14.993-3.591c3.876.471 7.487.368 11.43-.375.496-.056.407-.851-.079-.696-3.743.721-7.354.824-11.23.353-.508-.044-.63.674-.121.718zm24.235-4.628a43.37 43.37 0 005.268.315c.508.044.42-.751-.078-.695a40.302 40.302 0 01-5.069-.338c-.508-.044-.629.674-.12.718zm24.447-2.739l6.062-.679a.351.351 0 00-.078-.696l-6.062.679c-.397.045-.32.74.078.696zm15.305-1.715l10.036-2.03c.497-.056.408-.851-.078-.696a175.29 175.29 0 01-10.036 2.03c-.497.056-.408.851.078.696zm21.166-3.278c1.436.242 2.761.395 4.175.438.508.044.629-.674.121-.718-1.414-.043-2.739-.196-4.175-.438-.42-.154-.541.564-.121.718zM-1.362 245.973c2.063-2.243 3.805-4.652 5.338-7.138.253-.431-.3-.873-.553-.442a53.816 53.816 0 01-5.338 7.139c-.375.244.189.784.553.441zm15.832-14.956c1.953-2.332 4.039-4.377 6.444-6.256.364-.343-.1-.894-.464-.552-2.395 1.979-4.58 4.035-6.52 6.466-.376.244.177.685.54.342zm8.634-109.744c-9.398-12.028 23.91-33.57 32.001-37.697 20.277-10.323 45.465-11.837 67.781-13.834.895-.1.739-1.492-.167-1.49-27.208 2.343-58.26 4.515-80.782 21.73-7.228 5.539-28.394 21.395-20.058 32.032.696.828 1.811-.001 1.225-.741zm144.631-72.455c-4.347-8.268-11.679-7.245-16.056.39-3.859 6.872-.749 13.97 7.619 11.422 7.784-2.381 7.575-13.225 4.312-18.998-5.354-9.16-13.665-4.305-18.208 2.745-.518.762.598 1.744 1.105.882 3.595-5.635 10.028-11.085 15.148-4.011 3.206 4.37 3.809 11.547.257 15.769-1.941 2.431-6.733 3.672-9.363 1.753-2.298-1.654-1.043-5.719-.261-7.719 2.92-7.17 10.007-9.473 13.99-1.768.498.85 1.856.395 1.457-.465zm13.688-6.264c-.786-2.528-2.128-8.214-5.893-7.691-4.958.656-7.262 5.241-7.666 9.714-.447 5.886 5.309 20.436 11.804 11.054.519-.762-.587-1.645-1.105-.882-5.547 7.967-9.292-5.7-9.164-9.942.064-3.025 3.192-11.024 7.867-7.925 1.746 1.213 2.289 4.272 2.91 6.215.199.883 1.546.33 1.247-.543zm17.952 7.548l1.036 9.243c.1.894 1.591.727 1.49-.167l-1.035-9.243c-.1-.894-1.591-.727-1.491.167z"/><path d="M195.803 55.937c3.432-1.693 6.966-2.492 10.83-3.025.895-.1.727-1.591-.167-1.491-3.964.545-7.596 1.354-11.217 3.169-.861.398-.307 1.745.554 1.346zm-45.378 10.82c12.202-1.569 24.269-4.33 36.359-6.892.883-.2.716-1.69-.167-1.49-12.09 2.562-24.058 5.312-36.359 6.891-.894.1-.727 1.591.167 1.49zm4.098 12.32c2.017-3.547 6.02-10.033 10.838-6.548 2.851 2.096 3.827 6.314 3.896 9.626.203 4.506-2.289 8.307-6.838 9.018-1.877.31-3.063-3.984-3.197-5.176-.245-2.187 1.256-4.065 2.823-5.348 3.332-2.587 7.243-.912 9.201 2.19.497.85 1.7-.09 1.214-.841-4.037-6.39-13.389-4.538-14.652 3.05-.406 2.662 1.774 7.75 4.767 7.516 2.793-.212 5.519-1.926 6.754-4.38 2.48-4.805 1.756-12.17-2.201-16.054-5.66-5.605-11.208 1.457-13.975 6.396-.419.751.951 1.302 1.37.551zm24.062-12.457c.679 5.156-3.046 25.8 8.323 19.495.85-.498.296-1.845-.554-1.347-8.995 5.033-5.667-13.755-6.278-18.315-.211-.983-1.702-.816-1.491.167z"/><path d="M175.126 75.259l10.136-1.136c.895-.1.728-1.59-.167-1.49l-10.136 1.135c-.994.112-.827 1.602.167 1.491zm59.288-38.441c-3.226-13.525-22.373 12.268-10.025 14.708 8.638 1.648 12.867-10.9 11.612-17.603-1.775-9.561-16.756-4.06-19.622 1.796-.407.851.962 1.402 1.37.551 2.943-6.065 16.324-9.678 17.062-.402.501 5.378-3.707 16.314-10.699 14.079-8.141-2.61 6.594-21.971 8.811-12.962.299.872 1.69.716 1.491-.167zm16.505-4.466c-9.112-1.394-12.634 11.177-9.359 17.954.144.387.564.54.95.397 6.403-2.126 13.484-11.674 8.928-18.208-.354-.463-1.038-.286-1.292.145-4.245 7.017-3.061 21.173 1.031 28.06.498.85 1.701-.09 1.214-.84-3.838-6.413-4.767-20.095-.864-26.57l-1.292.145c2.522 3.642.284 7.918-1.878 11.078-1.125 1.636-5.371 6.84-6.314 2.922-1.33-5.587 1.676-14.678 8.634-13.647.928.198 1.17-1.238.242-1.436z"/><path d="M216.799 59.219c14.187-3.602 27.931-8.463 41.797-13.136.872-.299.319-1.646-.554-1.347-13.865 4.673-27.599 9.633-41.797 13.136-.883.2-.319 1.646.554 1.347zm5.397 8.653c1.533-2.486 4.609-7.36 8.013-4.822 2.519 1.83 2.976 5.905 3.188 8.699.202 3.6-.678 7.421-2.983 10.195-3.023 3.559-4.783-1.376-4.708-4.302.052-3.126 6.515-11.9 9.116-5.751.398.86 1.745.307 1.347-.554-1.793-4.327-4.819-4.39-8.063-1.008-4.236 4.399-5.214 10.043-.77 14.677.232.276.541.342.828.209 6.999-3.099 7.808-12.044 5.968-18.58-.786-2.528-2.39-5.166-5.074-5.771-3.501-.715-6.423 3.739-7.868 6.114-.618.774.488 1.656 1.006.894zm22.507-11.075c-5.935 7.205-1.625 22.32 9.085 20.918.895-.1.728-1.59-.167-1.49-9.319 1.245-12.854-12.346-7.714-18.557.518-.763-.587-1.645-1.204-.871z"/><path d="M239.325 68.971c4.781-.435 8.921-2.106 13.104-4.286.861-.398.296-1.844-.553-1.347-4.084 2.169-8.025 3.818-12.707 4.242-.906 0-.739 1.491.156 1.391zm-142.64 88.434c11.241-1.159 22.293-3.102 33.357-4.945 8.987-1.511 18.099-1.022 26.554-4.586.861-.398.308-1.745-.553-1.347-8.368 3.454-17.434 3.363-26.257 4.552-11.207 1.457-22.115 3.787-33.356 4.946-.906 0-.739 1.491.255 1.38z"/><path d="M155.436 146.495c-3.258-.34-6.362-1.099-9.334-2.476-.154.419-.297.939-.452 1.358 4.153.239 4.698 4.203 4.557 7.439-.099.917 1.238 1.17 1.436.242.759-3.104 2.436-5.204 4.929-7.194.74-.586-.101-1.8-.84-1.214-2.77 2.222-4.512 4.631-5.426 8.155.508.044.928.198 1.436.242.294-4.561-.472-8.702-5.751-9.117-.806-.01-1.191 1.04-.451 1.359 3.082 1.466 6.285 2.214 9.643 2.542.928.198 1.169-1.238.253-1.336zm-7.703-17.552c-5.207-6.058-11.471 2.694-7.546 8.091.244.375.752.419 1.028.186 7.372-5.152 8.766-13.359 7.113-21.827-.199-.884-1.491-.739-1.491.167.118 7.332-1.331 16.853 6.811 20.368.851.408 1.501-.973.551-1.37-7.513-3.284-5.832-12.529-5.871-19.165l-1.491.167c.899 4.427.992 8.844-.528 13.241-.915 2.618-2.702 4.629-4.82 6.376-1.613-.926-1.957-2.196-1.053-4.007.826-2.508 2.791-2.93 5.896-1.265.873.607 1.976-.322 1.401-.962zm9.851-.097c1.148-.531 10.541-4.703 7.453-.836-1.489 1.979-4.359 3.306-6.301 4.832-.651.476-.154 1.326.553 1.347 4.693-.325 9.364-.848 14.035-1.371.894-.101.727-1.591-.167-1.491-4.671.523-9.342 1.047-14.035 1.371.155.486.299.872.554 1.347 3.354-2.388 7.262-4.336 8.296-8.577.143-.519-.398-.861-.796-.817-3.577.401-6.801 1.266-10.135 2.947-.872.299-.307 1.745.543 1.248zm13.053 23.995c3.841-1.638 7.839-1.884 11.924-2.241.895-.101.739-1.492-.167-1.491-4.284.379-8.37.736-12.311 2.386-.872.299-.418 1.656.554 1.346zm27.085-16.015c.714 8.171 2.809 16.087 4.815 24.114.199.883 1.546.329 1.347-.554-1.984-7.828-3.968-15.655-4.672-23.727-.1-.895-1.491-.739-1.49.167z"/><path d="M196.931 141.442c2.65-.598 5.167-1.484 7.695-2.271 5.244-1.694 6.727 1.662 7.659 6.387 1.997 9.739-5.684 15.731-14.097 17.881-.883.2-.33 1.547.554 1.347 10.466-2.682 17.008-9.855 14.756-20.974-2.041-10.135-9.58-5.567-16.734-3.86-.883.199-.716 1.69.167 1.49zm19.83 8.143c-1.045 4.142-.191 8.172.464 12.224a.683.683 0 00.774.618c3.092-.246 5.62-1.032 8.235-2.835.751-.486-.09-1.7-.84-1.214-2.34 1.571-6.467 4.247-7.134.095-.433-2.97-.657-5.863.025-8.757.11-.817-1.326-1.059-1.524-.131zM95.332 246.811l56.05-6.28c.894-.1.727-1.591-.167-1.491l-56.05 6.281c-.883.199-.727 1.59.167 1.49z"/><path d="M152.728 239.977c-3.181-1.454-6.363-2.909-9.644-4.353-.42-.154-.895.101-1.049.52a23.03 23.03 0 00-.182 6.461c.056.497.586.739.973.595 2.815-.919 5.133-1.783 7.428-3.75.552-.465.242-1.436-.553-1.347-1.789.2-3.49.29-5.278.491.155.485.299.872.553 1.346.817-.795 1.556-1.381 1.632-2.497-.001-.905-1.491-.738-1.49.167-.365.343-.618.774-.982 1.116-.552.465-.253 1.337.553 1.347 1.8-.101 3.501-.191 5.278-.491a7.388 7.388 0 00-.553-1.346c-1.379 1.16-2.792 2.023-4.437 2.61-2.506.985-1.911.013-1.703-2.627.098-1.822 1.037-.619 2.518.02l6.363 2.91c.774.617 1.424-.764.573-1.172zM.428 306.853c-4.53-1.807-10.226-.565-14.376 1.913-3.676 2.223-2.987 6.573.924 8.248 8.882 3.835 11.614-14.886 9.6-20.295-.277-.674-1.27-.562-1.392.156-1.427 8.813 1.95 18.296 11.9 19.093.917.099 1.159-1.337.242-1.436-9.133-.687-11.924-9.43-10.706-17.416l-1.391.156c1.86 4.924-.297 13.517-3.474 17.496-1.676 2.099-3.886 1.24-5.654-.172-3.426-2.735 1.254-4.97 3.076-5.778 3.168-1.361 7.342-1.829 10.6-.584.84.308 1.502-.973.651-1.381zm11.487 1.933c1.754-1.405 5.241-4.412 5.995-1.276.332 1.17.996 2.605 1.991 3.4 3.006 2.581 6.286 2.213 9.74.719.862-.398.308-1.745-.553-1.346-5.177 2.29-9.408.45-10.065-5.413-.056-.497-.586-.74-.972-.596-2.529.787-4.836 1.75-6.866 3.386-.85.498-.01 1.712.73 1.126z"/><path d="M28.44 302.707c-6.802.36-9.822 5.73-12.832 11.199-.408.851.863 1.413 1.37.551 2.668-4.928 5.324-9.955 11.619-10.358.905-.001.75-1.392-.156-1.392zm94.566-44.205c-1.757-1.312-3.546-2.017-5.7-2.38-.21-.077-.497.056-.673.277-3.519 4.52-6.241 10.762-1.212 15.23.331.264.828.209.994-.112 4.401-5.625 2.594-12.768 4.079-19.274.198-.928-1.238-1.169-1.436-.241-1.981 7.467-.471 15.549 6.534 19.695.862.507 1.412-.863.551-1.37-6.464-3.804-7.52-11.434-5.749-18.073-.508-.043-.927-.198-1.435-.241-.891 3.722-.667 7.521-.94 11.375a22.846 22.846 0 01-.78 3.811c-.627 2.485-1.71 1.801-3.249-2.051.173-4.749 3.537-8.849 8.046-5.43.762.518 1.633-.686.97-1.216zm2.079 2.384c.52 1.048 1.481 1.544 2.595.715.464-.354 3.774-3.14 3.785-3.04.72 1.932 1.34 3.875 2.049 5.707 2.048 5.708 7.547 5.393 12.848 5.101.894-.1.738-1.491-.167-1.49-3.7.213-8.646.968-10.682-2.829-1.394-2.56-2.037-5.608-3.144-8.301-.144-.387-.773-.618-1.137-.275-.365.342-4.546 4.333-4.801 3.858-.398-.861-1.745-.307-1.346.554z"/><path d="M139.493 257.46c-5.043 4.389-6.229 10.861-6.632 17.145-.099.917 1.337 1.159 1.436.242.447-5.887 1.358-12.127 6.136-16.184.629-.674-.201-1.789-.94-1.203zm97.939-157.787c-10.74 5.631-7.023 24.434-.92 32.203.586.739 1.8-.102 1.214-.841-5.307-6.952-9.333-24.916.358-30.027.762-.387.209-1.733-.652-1.335zm14.092 13.515c-7.001.382-8.583 8.71-5.199 13.764.121.188.442.353.641.331 15.491-2.742 2.565-31.884-6.765-18.16-.518.763.598 1.745 1.106.883 4.929-7.194 9.794-.595 10.948 5.213.5 2.661.326 5.599-1.119 7.974-1.025 1.624-3.619 3.626-4.847.745-1.749-3.93 1.096-9.079 5.292-9.348 1.005-.012.838-1.503-.057-1.402z"/><path d="M263.578 107.611c-.396 1.855-1.069 2.132-.372 3.865.277.673 1.271.562 1.392-.156.703-3.601-.402-4.483-3.165-6.689-.221-.177-.63-.231-.905.001-3.741 3.438-6.277 7.747-4.295 12.858 2.114 5.398 8.939 6.143 13.775 5.299.884-.2.728-1.591-.167-1.491-4.736.833-9.839.197-12.262-4.361-1.028-1.998-.688-4.351-.005-6.339 1.156-3.149 6.995-6.721 5.488.492l1.392-.156c-.266-.574.24-2.342.45-3.17.308-.84-1.128-1.081-1.326-.153zm25.828 9.583c.18 3.401.073 6.935.153 10.348.001.905 1.492.738 1.491-.167-.081-3.413.038-6.847-.153-10.348-.112-.994-1.602-.827-1.491.167z"/><path d="M284.429 121.274c4.506-.203 8.547-.958 12.399-3.402.75-.487-.09-1.7-.841-1.214-3.564 2.311-7.517 2.956-11.625 3.114-1.093.123-.937 1.514.067 1.502zm-37.04 9.785c10.887-1.622 21.408-4.713 32.284-6.435.894-.1.727-1.591-.167-1.49-10.876 1.721-21.397 4.812-32.284 6.435-.983.21-.816 1.701.167 1.49zm-7.296-7.635c4.032.957 4.151 10.101 4.496 13.182.445 3.975.482 7.895.817 11.782.1.894 1.591.727 1.49-.167-.557-5.874-.618-11.805-1.672-17.623-.544-3.059-1.388-7.895-5-8.698-.828-.209-1.059 1.326-.131 1.524zm11.482 20.751c.503-5.39 4.563-9.568 9.139-4.647 1.603 1.732 1.871 4.117 1.111 6.316-.54 1.469-1.82 2.619-3.012 3.658-.375.243-.651.475-1.026.719-1.396-5.278.358-6.682 5.153-4.301.763.518 1.733-.697.883-1.105-5.724-3.484-13.659 2.033-7.238 7.251.232.276.63.231.905-.001 5.464-3.329 8.881-9.649 3.289-14.657-5.493-5.02-10.159.937-10.651 6.426-.087 1.016 1.349 1.257 1.447.341zm15.351.494c1.224-1.647 3.871-4.962 5.011-1.971.432 1.159 1.394 2.561 2.289 3.366 2.675 2.317 5.657 2.888 9.158 2.697.894-.1.738-1.491-.167-1.49-5.4.303-9.278-1.98-10.598-7.467-.144-.386-.497-.85-.972-.595-2.285 1.161-4.249 2.488-5.827 4.577-.628.674.488 1.656 1.106.883z"/><path d="M277.709 138.529c-5.066 3.285-4.763 8.685-4.956 14.14.001.906 1.436 1.147 1.436.242.161-4.848-.33-10.126 4.36-13.168.839-.597-.089-1.7-.84-1.214zm33.467-17.434c15.48-2.842 30.671-7.362 46.395-8.922.894-.1.727-1.591-.167-1.491-15.724 1.561-30.915 6.08-46.395 8.922-.884.199-.716 1.69.167 1.491zm6.318-21.739c-4.343-3.74-9.511-3.16-11.471 2.694-1.586 4.706 1.432 8.292 6.124 6.156 6.601-3.054 6.405-11.082 1.851-15.804-5.925-6.179-12.634-.496-15.389 5.447-.408.85.962 1.402 1.37.551 2.447-5.104 6.86-9.724 12.451-5.621 3.625 2.713 4.734 8.123 2.021 11.748-2.702 3.724-8.124 3.828-7.124-1.617.923-5.235 5.704-5.67 9.274-2.549.696.828 1.667-.388.893-1.005zm18.344-10.508c.962 1.401 1.825 2.814 2.688 4.227.387.761 1.513.031 1.225-.741-1.816-5.432-7.233-11.567-10.881-3.712-3.571 7.645 2.751 13.779 10.051 14.27.917.098 1.159-1.338.242-1.436-6.085-.425-10.627-4.143-9.441-10.615.297-1.844 1.531-4.297 3.596-4.73 2.86-.522 4.466 4.833 5.174 6.665.375-.243.85-.497 1.225-.74-.862-1.413-1.725-2.826-2.687-4.228-.575-.64-1.789.2-1.192 1.04zm-22.08-4.872c1.236-1.547 2.803-2.83 4.503-3.825-.343-.364-.675-.629-.918-1.004-.859 2.21-1.1 4.55-2.18 6.584-.166.32-.011.806.409.96 2.839 1.09 4.683.481 7.354-.824.861-.398.308-1.745-.553-1.347-1.623.786-6.027 2.789-4.882-.46.54-1.468.682-2.893 1.222-4.362.242-.53-.344-1.27-.918-1.004-2.185 1.15-3.553 2.41-5.164 4.2-.717.786.499 1.756 1.127 1.082zm-3.052 54.479c.726-3.402 2.269-5.789 5.316-7.338 2.285-1.162 3.858 4.8 4.091 5.982.422 1.965-.051 4.03-1.176 5.666-.882 1.105-2.107 1.846-3.598 2.013.352-1.348.792-2.806 1.144-4.153 1.656-.488 3.269-.467 4.738.073.928.198 1.169-1.238.242-1.436-4.96-1.155-9.353.947-9.237 6.469.033.298.276.673.574.64 10.205.366 10.746-10.965 4.557-16.812-.221-.177-.52-.143-.718-.121-4.262 1.484-6.633 4.567-7.545 8.996-.022.707 1.414.948 1.612.021zm21.912 2.475c.165-.32 3.781-7.568 4.236-4.399.134 1.193.753 2.23 1.262 3.179.896 1.711 2.443 2.947 4.057 3.873 3.767 2.194 6.083-1.386 6.721-4.678.198-.928-1.238-1.169-1.436-.241-1.616 8.029-8.734 1.079-9.335-3.382-.044-.398-.387-.762-.773-.618-3.423.887-4.758 2.445-6.102 5.715-.308.84.962 1.402 1.37.551z"/><path d="M345.6 135.551c-4.427 1.804-6.268 5.13-5.645 9.79.1.894 1.59.727 1.49-.167-.545-3.964.955-6.749 4.708-8.276.872-.299.308-1.745-.553-1.347zm.487-10.016c1.766-1.305 2.648-2.41 5.277-2.302l-.432-1.159c-1.831 2.519-3.872 4.962-6.133 7.227-.453.454.034 1.204.641 1.237 2.993-.235 5.985-.47 8.933-1.102.884-.199.716-1.69-.167-1.491-2.937.732-5.94.867-8.933 1.102.244.375.388.762.642 1.236 2.162-2.255 4.203-4.697 6.133-7.228.254-.431.176-1.126-.432-1.159-2.937-.174-4.041.755-6.457 2.535-.751.487.189 1.69.928 1.104zm25.1-24.749c-7.633-2.566-12.535 10.259-7.263 15.102.332.265.718.121.994-.111 6.575-6.875 5.008-17.265 4.338-25.945l-1.491.168c.681 7.873-.117 16.918 8.787 20.046.84.308 1.49-1.073.551-1.37-8.274-2.897-7.244-11.666-7.947-18.832-.1-.895-1.491-.739-1.49.167.347 5.797.993 11.561-.073 17.315-.439 2.364-3.965 10.407-4.711 3.748-.412-3.677 2.961-10.394 7.556-8.896 1.038.286 1.589-1.084.749-1.392zm9.244.775c2.91 5.309 9.171 5.513 14.605 6.414.928.198 1.159-1.338.242-1.436-4.716-.78-10.856-.796-13.5-5.531-.398-.861-1.745-.308-1.347.553z"/><path d="M390.365 95.92c-5.715 5.571-8.567 14.243-9.101 22.051-.099.916 1.436 1.147 1.436.241.456-7.598 3.243-15.96 8.781-21.31.629-.674-.487-1.656-1.116-.982z"/><path d="M384.427 75.253c16.651-1.363 19.8 11.466 21.601 24.849 2.157 15.657 3.372 28.3-14.103 34.887-.872.299-.319 1.646.553 1.347 18.149-6.864 17.243-19.441 15.041-36.401-1.969-14.874-5.912-27.614-23.26-26.173-.993.111-.826 1.602.168 1.49zm-149.84 77.165c.447 4.88 1.555 9.385 3.669 13.878.398.861 1.745.307 1.346-.554-2.091-4.294-3.188-8.699-3.524-13.491-.1-.895-1.591-.728-1.491.167zm-58.068 79.862c.171 5.113 1.279 9.618 4.739 13.557.343.364.851.408 1.204-.034 2.835-3.437 3.085-7.49 4.02-11.721.198-.928-1.238-1.169-1.436-.241-.198.927-2.474 11.144-3.635 9.765-2.664-3.123-3.177-7.694-3.412-11.592-.089-.795-1.58-.628-1.48.266zm35.457-14.941c-7.656-3.67-12.51 14.081-13.323 18.499-2.274 12.934 5.364 20.933 18.24 19.993.894-.1.738-1.491-.167-1.49-12.368.983-18.327-6.399-16.637-18.261.527-3.38 5.171-20.303 11.237-17.36.95.397 1.501-.973.65-1.381zm13.259 7.873c.698 1.733.367 2.374 1.715 3.631.564.541 1.392-.156 1.115-.829-3.143-7.396-8.54-3.471-10.18 2.549-.715 2.596-.789 6.428 1.344 8.403 3.239 2.857 7.964 1.02 11.408-.574.861-.398.307-1.745-.554-1.347-5.541 2.634-12.156 2.872-11.026-5.003.692-4.606 4.828-9.899 7.672-3.375.375-.243.74-.586 1.115-.829-.343-.365-1.062-2.296-1.339-2.97-.222-1.082-1.679-.617-1.27.344zm13.707 2.891l.936 8.348c.1.895 1.591.728 1.49-.167l-.935-8.348c-.2-.883-1.591-.727-1.491.167z"/><path d="M235.557 233.816c3.3-1.98 7.011-2.094 10.743-2.009.906-.001.75-1.392-.167-1.491-4.13-.04-7.928.184-11.416 2.286-.839.597-.01 1.711.84 1.214zm21.395-7.529c.133.287.277.673.41.96a38.846 38.846 0 004.735-1.738c4.836-1.749 9.97-2.627 14.894-3.581 7.784-1.476 15.436-3.239 23.22-4.715.883-.199.727-1.591-.167-1.49-8.767 1.686-17.511 3.572-26.278 5.258-5.808 1.154-13.625 2.332-18.713 5.418-.662.376-.154 1.325.553 1.347.497-.056 1.005-.012 1.403-.057 1.115.076.948-1.414-.057-1.402zm8.483-22.183c-4.39-5.948-11.519-1.325-12.949 4.772-.616 2.584-.448 5.886 2.138 7.408 2.806 1.698 7.507-2.15 9.184-4.249 3.695-4.741.309-11.607-3.945-14.552-5.459-3.816-7.519 2.05-7.106 6.633.1.894 1.492.738 1.491-.167-.335-3.887.92-7.952 5.274-5.019 2.619 1.82 4.179 4.966 4.425 8.058.324 4.693-8.835 11.857-10.288 5.177-1.22-5.498 6.283-13.081 10.661-7.232.498.85 1.701-.09 1.115-.829zm15.187-9.047c-.165 1.226-.44 2.363-.604 3.589l1.391-.155c-1.329-3.776-5.274-6.655-9.236-4.299-3.4 1.991-4.369 5.018-3.736 8.871 1.511 8.988 10.215 11.233 15.807 4.569.629-.675-.487-1.656-1.105-.883-3.739 4.344-8.399 4.966-11.772.011-1.083-1.589-1.505-3.554-1.728-5.542-.48-6.084 8.109-8.455 10.324-2.163.277.673 1.27.562 1.391-.156.165-1.226.44-2.363.604-3.589.198-.928-1.238-1.17-1.336-.253zm35.207 13.362c-5.786 1.353-7.767 8.82-3.39 12.858.221.176.531.242.718.121 8.08-4.226 11.358-18.077 5.046-25.018-.343-.364-1.05-.385-1.292.145-3.846 8.783-.62 22.308 10.27 23.402.916.098 1.158-1.337.241-1.436-9.973-.996-12.579-13.483-9.141-21.415l-1.292.145c3.327 3.652 3.299 8.787 2.298 13.327-.516 2.573-1.85 5.037-3.527 7.137-1.367 2.165-2.704 1.913-4.319-.824-.632-2.948 1.618-6.219 4.466-6.84.972-.31.805-1.801-.078-1.602zm17.019 1.917c2.434 4.658 6.522 7.018 11.724 7.642.916.099 1.158-1.337.241-1.436-4.594-.592-8.328-2.488-10.519-6.77-.498-.85-1.844-.297-1.446.564z"/><path d="M339.435 204.466c-1.287 5.578-3.501 10.958-5.307 16.393-.298.939 1.072 1.49 1.37.551 1.783-5.634 4.097-11.025 5.362-16.802.209-.828-1.227-1.07-1.425-.142zm-83.652 35.637c2.582-2.101 16.378-10.992 17.908-4.522.743 3.036-2.485 11.951-6.276 7.747-1.028-1.093-1.405-2.66-1.263-4.085.384-2.861 4.382-2.202 6.227-1.905.927.198 1.169-1.238.241-1.436-3.91-.77-9.419.351-7.725 5.595 1.119 3.698 4.81 6.102 7.744 2.654 2.758-3.227 4.462-11.368-1.27-12.235-5.423-.801-12.476 3.612-16.526 6.984-.64.575.201 1.789.94 1.203zm21.455-2.505c-.154.42-.331.641-.077 1.115.144.387.564.541.951.397 2.141-.642 4.072-3.173 5.727-4.566-2.284 2.067 9.583 9.19 10.941 9.642.939.297 1.49-1.073.551-1.37-5.114-1.641-8.232-5.216-11.129-9.52-.232-.276-.751-.419-1.027-.187-.927.708-1.744 1.504-2.56 2.299-.452.454-.916.807-1.379 1.161-1.38 1.161-.232.63-.628 1.58.308-.84-1.062-1.39-1.37-.551z"/><path d="M289.643 229.768c-.657 5.809-2.33 11.531-3.197 17.263-.198.928 1.337 1.159 1.435.242.956-5.843 2.541-11.454 3.198-17.263.098-.917-1.337-1.159-1.436-.242zm51.356-41.879c-.563.365-1.026.719-1.589 1.084-.464.353-.264 1.237.343 1.269 4.274.427 7.617-2.966 12.345-1.182 4.519 1.708 5.485 7.637 5.853 11.822.583 8.79-2.278 20.079-8.6 26.523-.629.674.476 1.556 1.105.882 7.216-7.45 9.81-20.218 8.586-30.244-.412-3.677-2.117-8.115-5.542-9.945-1.823-1.003-3.668-1.299-5.688-1.375-.906.001-1.999.123-2.971.434-1.468.365-4.812 2.853-3.123 1.758.96-.409.02-1.612-.719-1.026z"/></g><path d="M147 738.5a2.5 2.5 0 115 0 2.5 2.5 0 01-5 0zm-15 0a2.5 2.5 0 115 0 2.5 2.5 0 01-5 0zm-15 0a2.5 2.5 0 115 0 2.5 2.5 0 01-5 0zm-15 0a2.5 2.5 0 115 0 2.5 2.5 0 01-5 0zm-15 0a2.5 2.5 0 115 0 2.5 2.5 0 01-5 0zm-15 0a2.5 2.5 0 115 0 2.5 2.5 0 01-5 0zm-15 0a2.5 2.5 0 115 0 2.5 2.5 0 01-5 0zm-15 0a2.5 2.5 0 115 0 2.5 2.5 0 01-5 0zm-15 0a2.5 2.5 0 115 0 2.5 2.5 0 01-5 0zm-15 0a2.5 2.5 0 115 0 2.5 2.5 0 01-5 0zm-15 0a2.5 2.5 0 115 0 2.5 2.5 0 01-5 0zm-15 0a2.5 2.5 0 115 0 2.5 2.5 0 01-5 0zm-15 0a2.5 2.5 0 115 0 2.5 2.5 0 01-5 0zm-15 0a2.5 2.5 0 115 0 2.5 2.5 0 01-5 0zm195-15a2.5 2.5 0 115 0 2.5 2.5 0 01-5 0zm-15 0a2.5 2.5 0 115 0 2.5 2.5 0 01-5 0zm-15 0a2.5 2.5 0 115 0 2.5 2.5 0 01-5 0zm-15 0a2.5 2.5 0 115 0 2.5 2.5 0 01-5 0zm-15 0a2.5 2.5 0 115 0 2.5 2.5 0 01-5 0zm-15 0a2.5 2.5 0 115 0 2.5 2.5 0 01-5 0zm-15 0a2.5 2.5 0 115 0 2.5 2.5 0 01-5 0zm-15 0a2.5 2.5 0 115 0 2.5 2.5 0 01-5 0zm-15 0a2.5 2.5 0 115 0 2.5 2.5 0 01-5 0zm-15 0a2.5 2.5 0 115 0 2.5 2.5 0 01-5 0zm-15 0a2.5 2.5 0 115 0 2.5 2.5 0 01-5 0zm-15 0a2.5 2.5 0 115 0 2.5 2.5 0 01-5 0zm-15 0a2.5 2.5 0 115 0 2.5 2.5 0 01-5 0zm-15 0a2.5 2.5 0 115 0 2.5 2.5 0 01-5 0zm195-15a2.5 2.5 0 115 0 2.5 2.5 0 01-5 0zm-15 0a2.5 2.5 0 115 0 2.5 2.5 0 01-5 0zm-15 0a2.5 2.5 0 115 0 2.5 2.5 0 01-5 0zm-15 0a2.5 2.5 0 115 0 2.5 2.5 0 01-5 0zm-15 0a2.5 2.5 0 115 0 2.5 2.5 0 01-5 0zm-15 0a2.5 2.5 0 115 0 2.5 2.5 0 01-5 0zm-15 0a2.5 2.5 0 115 0 2.5 2.5 0 01-5 0zm-15 0a2.5 2.5 0 115 0 2.5 2.5 0 01-5 0zm-15 0a2.5 2.5 0 115 0 2.5 2.5 0 01-5 0zm-15 0a2.5 2.5 0 115 0 2.5 2.5 0 01-5 0zm-15 0a2.5 2.5 0 115 0 2.5 2.5 0 01-5 0zm-15 0a2.5 2.5 0 115 0 2.5 2.5 0 01-5 0zm-15 0a2.5 2.5 0 115 0 2.5 2.5 0 01-5 0zm-15 0a2.5 2.5 0 115 0 2.5 2.5 0 01-5 0zm195-15a2.5 2.5 0 115 0 2.5 2.5 0 01-5 0zm-15 0a2.5 2.5 0 115 0 2.5 2.5 0 01-5 0zm-15 0a2.5 2.5 0 115 0 2.5 2.5 0 01-5 0zm-15 0a2.5 2.5 0 115 0 2.5 2.5 0 01-5 0zm-15 0a2.5 2.5 0 115 0 2.5 2.5 0 01-5 0zm-15 0a2.5 2.5 0 115 0 2.5 2.5 0 01-5 0zm-15 0a2.5 2.5 0 115 0 2.5 2.5 0 01-5 0zm-15 0a2.5 2.5 0 115 0 2.5 2.5 0 01-5 0zm-15 0a2.5 2.5 0 115 0 2.5 2.5 0 01-5 0zm-15 0a2.5 2.5 0 115 0 2.5 2.5 0 01-5 0zm-15 0a2.5 2.5 0 115 0 2.5 2.5 0 01-5 0zm-15 0a2.5 2.5 0 115 0 2.5 2.5 0 01-5 0zm-15 0a2.5 2.5 0 115 0 2.5 2.5 0 01-5 0zm-15 0a2.5 2.5 0 115 0 2.5 2.5 0 01-5 0zm195-15a2.5 2.5 0 115 0 2.5 2.5 0 01-5 0zm-15 0a2.5 2.5 0 115 0 2.5 2.5 0 01-5 0zm-15 0a2.5 2.5 0 115 0 2.5 2.5 0 01-5 0zm-15 0a2.5 2.5 0 115 0 2.5 2.5 0 01-5 0zm-15 0a2.5 2.5 0 115 0 2.5 2.5 0 01-5 0zm-15 0a2.5 2.5 0 115 0 2.5 2.5 0 01-5 0zm-15 0a2.5 2.5 0 115 0 2.5 2.5 0 01-5 0zm-15 0a2.5 2.5 0 115 0 2.5 2.5 0 01-5 0zm-15 0a2.5 2.5 0 115 0 2.5 2.5 0 01-5 0zm-15 0a2.5 2.5 0 115 0 2.5 2.5 0 01-5 0zm-15 0a2.5 2.5 0 115 0 2.5 2.5 0 01-5 0zm-15 0a2.5 2.5 0 115 0 2.5 2.5 0 01-5 0zm-15 0a2.5 2.5 0 115 0 2.5 2.5 0 01-5 0zm-15 0a2.5 2.5 0 115 0 2.5 2.5 0 01-5 0zm195-15a2.5 2.5 0 115 0 2.5 2.5 0 01-5 0zm-15 0a2.5 2.5 0 115 0 2.5 2.5 0 01-5 0zm-15 0a2.5 2.5 0 115 0 2.5 2.5 0 01-5 0zm-15 0a2.5 2.5 0 115 0 2.5 2.5 0 01-5 0zm-15 0a2.5 2.5 0 115 0 2.5 2.5 0 01-5 0zm-15 0a2.5 2.5 0 115 0 2.5 2.5 0 01-5 0zm-15 0a2.5 2.5 0 115 0 2.5 2.5 0 01-5 0zm-15 0a2.5 2.5 0 115 0 2.5 2.5 0 01-5 0zm-15 0a2.5 2.5 0 115 0 2.5 2.5 0 01-5 0zm-15 0a2.5 2.5 0 115 0 2.5 2.5 0 01-5 0zm-15 0a2.5 2.5 0 115 0 2.5 2.5 0 01-5 0zm-15 0a2.5 2.5 0 115 0 2.5 2.5 0 01-5 0zm-15 0a2.5 2.5 0 115 0 2.5 2.5 0 01-5 0zm-15 0a2.5 2.5 0 115 0 2.5 2.5 0 01-5 0zm195-15a2.5 2.5 0 115 0 2.5 2.5 0 01-5 0zm-15 0a2.5 2.5 0 115 0 2.5 2.5 0 01-5 0zm-15 0a2.5 2.5 0 115 0 2.5 2.5 0 01-5 0zm-15 0a2.5 2.5 0 115 0 2.5 2.5 0 01-5 0zm-15 0a2.5 2.5 0 115 0 2.5 2.5 0 01-5 0zm-15 0a2.5 2.5 0 115 0 2.5 2.5 0 01-5 0zm-15 0a2.5 2.5 0 115 0 2.5 2.5 0 01-5 0zm-15 0a2.5 2.5 0 115 0 2.5 2.5 0 01-5 0zm-15 0a2.5 2.5 0 115 0 2.5 2.5 0 01-5 0zm-15 0a2.5 2.5 0 115 0 2.5 2.5 0 01-5 0zm-15 0a2.5 2.5 0 115 0 2.5 2.5 0 01-5 0zm-15 0a2.5 2.5 0 115 0 2.5 2.5 0 01-5 0zm-15 0a2.5 2.5 0 115 0 2.5 2.5 0 01-5 0zm-15 0a2.5 2.5 0 115 0 2.5 2.5 0 01-5 0zm195-15a2.5 2.5 0 115 0 2.5 2.5 0 01-5 0zm-15 0a2.5 2.5 0 115 0 2.5 2.5 0 01-5 0zm-15 0a2.5 2.5 0 115 0 2.5 2.5 0 01-5 0zm-15 0a2.5 2.5 0 115 0 2.5 2.5 0 01-5 0zm-15 0a2.5 2.5 0 115 0 2.5 2.5 0 01-5 0zm-15 0a2.5 2.5 0 115 0 2.5 2.5 0 01-5 0zm-15 0a2.5 2.5 0 115 0 2.5 2.5 0 01-5 0zm-15 0a2.5 2.5 0 115 0 2.5 2.5 0 01-5 0zm-15 0a2.5 2.5 0 115 0 2.5 2.5 0 01-5 0zm-15 0a2.5 2.5 0 115 0 2.5 2.5 0 01-5 0zm-15 0a2.5 2.5 0 115 0 2.5 2.5 0 01-5 0zm-15 0a2.5 2.5 0 115 0 2.5 2.5 0 01-5 0zm-15 0a2.5 2.5 0 115 0 2.5 2.5 0 01-5 0zm-15 0a2.5 2.5 0 115 0 2.5 2.5 0 01-5 0zm195-15a2.5 2.5 0 115 0 2.5 2.5 0 01-5 0zm-15 0a2.5 2.5 0 115 0 2.5 2.5 0 01-5 0zm-15 0a2.5 2.5 0 115 0 2.5 2.5 0 01-5 0zm-15 0a2.5 2.5 0 115 0 2.5 2.5 0 01-5 0zm-15 0a2.5 2.5 0 115 0 2.5 2.5 0 01-5 0zm-15 0a2.5 2.5 0 115 0 2.5 2.5 0 01-5 0zm-15 0a2.5 2.5 0 115 0 2.5 2.5 0 01-5 0zm-15 0a2.5 2.5 0 115 0 2.5 2.5 0 01-5 0zm-15 0a2.5 2.5 0 115 0 2.5 2.5 0 01-5 0zm-15 0a2.5 2.5 0 115 0 2.5 2.5 0 01-5 0zm-15 0a2.5 2.5 0 115 0 2.5 2.5 0 01-5 0zm-15 0a2.5 2.5 0 115 0 2.5 2.5 0 01-5 0zm-15 0a2.5 2.5 0 115 0 2.5 2.5 0 01-5 0zm-15 0a2.5 2.5 0 115 0 2.5 2.5 0 01-5 0zm195-15a2.5 2.5 0 115 0 2.5 2.5 0 01-5 0zm-15 0a2.5 2.5 0 115 0 2.5 2.5 0 01-5 0zm-15 0a2.5 2.5 0 115 0 2.5 2.5 0 01-5 0zm-15 0a2.5 2.5 0 115 0 2.5 2.5 0 01-5 0zm-15 0a2.5 2.5 0 115 0 2.5 2.5 0 01-5 0zm-15 0a2.5 2.5 0 115 0 2.5 2.5 0 01-5 0zm-15 0a2.5 2.5 0 115 0 2.5 2.5 0 01-5 0zm-15 0a2.5 2.5 0 115 0 2.5 2.5 0 01-5 0zm-15 0a2.5 2.5 0 115 0 2.5 2.5 0 01-5 0zm-15 0a2.5 2.5 0 115 0 2.5 2.5 0 01-5 0zm-15 0a2.5 2.5 0 115 0 2.5 2.5 0 01-5 0zm-15 0a2.5 2.5 0 115 0 2.5 2.5 0 01-5 0zm-15 0a2.5 2.5 0 115 0 2.5 2.5 0 01-5 0zm-15 0a2.5 2.5 0 115 0 2.5 2.5 0 01-5 0zm195-15a2.5 2.5 0 115 0 2.5 2.5 0 01-5 0zm-15 0a2.5 2.5 0 115 0 2.5 2.5 0 01-5 0zm-15 0a2.5 2.5 0 115 0 2.5 2.5 0 01-5 0zm-15 0a2.5 2.5 0 115 0 2.5 2.5 0 01-5 0zm-15 0a2.5 2.5 0 115 0 2.5 2.5 0 01-5 0zm-15 0a2.5 2.5 0 115 0 2.5 2.5 0 01-5 0zm-15 0a2.5 2.5 0 115 0 2.5 2.5 0 01-5 0zm-15 0a2.5 2.5 0 115 0 2.5 2.5 0 01-5 0zm-15 0a2.5 2.5 0 115 0 2.5 2.5 0 01-5 0zm-15 0a2.5 2.5 0 115 0 2.5 2.5 0 01-5 0zm-15 0a2.5 2.5 0 115 0 2.5 2.5 0 01-5 0zm-15 0a2.5 2.5 0 115 0 2.5 2.5 0 01-5 0zm-15 0a2.5 2.5 0 115 0 2.5 2.5 0 01-5 0zm-15 0a2.5 2.5 0 115 0 2.5 2.5 0 01-5 0zm195-15a2.5 2.5 0 115 0 2.5 2.5 0 01-5 0zm-15 0a2.5 2.5 0 115 0 2.5 2.5 0 01-5 0zm-15 0a2.5 2.5 0 115 0 2.5 2.5 0 01-5 0zm-15 0a2.5 2.5 0 115 0 2.5 2.5 0 01-5 0zm-15 0a2.5 2.5 0 115 0 2.5 2.5 0 01-5 0zm-15 0a2.5 2.5 0 115 0 2.5 2.5 0 01-5 0zm-15 0a2.5 2.5 0 115 0 2.5 2.5 0 01-5 0zm-15 0a2.5 2.5 0 115 0 2.5 2.5 0 01-5 0zm-15 0a2.5 2.5 0 115 0 2.5 2.5 0 01-5 0zm-15 0a2.5 2.5 0 115 0 2.5 2.5 0 01-5 0zm-15 0a2.5 2.5 0 115 0 2.5 2.5 0 01-5 0zm-15 0a2.5 2.5 0 115 0 2.5 2.5 0 01-5 0zm-15 0a2.5 2.5 0 115 0 2.5 2.5 0 01-5 0zm-15 0a2.5 2.5 0 115 0 2.5 2.5 0 01-5 0zm195-15a2.5 2.5 0 115 0 2.5 2.5 0 01-5 0zm-15 0a2.5 2.5 0 115 0 2.5 2.5 0 01-5 0zm-15 0a2.5 2.5 0 115 0 2.5 2.5 0 01-5 0zm-15 0a2.5 2.5 0 115 0 2.5 2.5 0 01-5 0zm-15 0a2.5 2.5 0 115 0 2.5 2.5 0 01-5 0zm-15 0a2.5 2.5 0 115 0 2.5 2.5 0 01-5 0zm-15 0a2.5 2.5 0 115 0 2.5 2.5 0 01-5 0zm-15 0a2.5 2.5 0 115 0 2.5 2.5 0 01-5 0zm-15 0a2.5 2.5 0 115 0 2.5 2.5 0 01-5 0zm-15 0a2.5 2.5 0 115 0 2.5 2.5 0 01-5 0zm-15 0a2.5 2.5 0 115 0 2.5 2.5 0 01-5 0zm-15 0a2.5 2.5 0 115 0 2.5 2.5 0 01-5 0zm-15 0a2.5 2.5 0 115 0 2.5 2.5 0 01-5 0zm-15 0a2.5 2.5 0 115 0 2.5 2.5 0 01-5 0zm1538 249a2.5 2.5 0 115 0 2.5 2.5 0 01-5 0zm-15 0a2.5 2.5 0 115 0 2.5 2.5 0 01-5 0zm-15 0a2.5 2.5 0 115 0 2.5 2.5 0 01-5 0zm-15 0a2.5 2.5 0 115 0 2.5 2.5 0 01-5 0zm-15 0a2.5 2.5 0 115 0 2.5 2.5 0 01-5 0zm-15 0a2.5 2.5 0 115 0 2.5 2.5 0 01-5 0zm-15 0a2.5 2.5 0 115 0 2.5 2.5 0 01-5 0zm-15 0a2.5 2.5 0 115 0 2.5 2.5 0 01-5 0zm-15 0a2.5 2.5 0 115 0 2.5 2.5 0 01-5 0zm-15 0a2.5 2.5 0 115 0 2.5 2.5 0 01-5 0zm-15 0a2.5 2.5 0 115 0 2.5 2.5 0 01-5 0zm-15 0a2.5 2.5 0 115 0 2.5 2.5 0 01-5 0zm-15 0a2.5 2.5 0 115 0 2.5 2.5 0 01-5 0zm-15 0a2.5 2.5 0 115 0 2.5 2.5 0 01-5 0zm195-15a2.5 2.5 0 115 0 2.5 2.5 0 01-5 0zm-15 0a2.5 2.5 0 115 0 2.5 2.5 0 01-5 0zm-15 0a2.5 2.5 0 115 0 2.5 2.5 0 01-5 0zm-15 0a2.5 2.5 0 115 0 2.5 2.5 0 01-5 0zm-15 0a2.5 2.5 0 115 0 2.5 2.5 0 01-5 0zm-15 0a2.5 2.5 0 115 0 2.5 2.5 0 01-5 0zm-15 0a2.5 2.5 0 115 0 2.5 2.5 0 01-5 0zm-15 0a2.5 2.5 0 115 0 2.5 2.5 0 01-5 0zm-15 0a2.5 2.5 0 115 0 2.5 2.5 0 01-5 0zm-15 0a2.5 2.5 0 115 0 2.5 2.5 0 01-5 0zm-15 0a2.5 2.5 0 115 0 2.5 2.5 0 01-5 0zm-15 0a2.5 2.5 0 115 0 2.5 2.5 0 01-5 0zm-15 0a2.5 2.5 0 115 0 2.5 2.5 0 01-5 0zm-15 0a2.5 2.5 0 115 0 2.5 2.5 0 01-5 0zm195-15a2.5 2.5 0 115 0 2.5 2.5 0 01-5 0zm-15 0a2.5 2.5 0 115 0 2.5 2.5 0 01-5 0zm-15 0a2.5 2.5 0 115 0 2.5 2.5 0 01-5 0zm-15 0a2.5 2.5 0 115 0 2.5 2.5 0 01-5 0zm-15 0a2.5 2.5 0 115 0 2.5 2.5 0 01-5 0zm-15 0a2.5 2.5 0 115 0 2.5 2.5 0 01-5 0zm-15 0a2.5 2.5 0 115 0 2.5 2.5 0 01-5 0zm-15 0a2.5 2.5 0 115 0 2.5 2.5 0 01-5 0zm-15 0a2.5 2.5 0 115 0 2.5 2.5 0 01-5 0zm-15 0a2.5 2.5 0 115 0 2.5 2.5 0 01-5 0zm-15 0a2.5 2.5 0 115 0 2.5 2.5 0 01-5 0zm-15 0a2.5 2.5 0 115 0 2.5 2.5 0 01-5 0zm-15 0a2.5 2.5 0 115 0 2.5 2.5 0 01-5 0zm-15 0a2.5 2.5 0 115 0 2.5 2.5 0 01-5 0zm195-15a2.5 2.5 0 115 0 2.5 2.5 0 01-5 0zm-15 0a2.5 2.5 0 115 0 2.5 2.5 0 01-5 0zm-15 0a2.5 2.5 0 115 0 2.5 2.5 0 01-5 0zm-15 0a2.5 2.5 0 115 0 2.5 2.5 0 01-5 0zm-15 0a2.5 2.5 0 115 0 2.5 2.5 0 01-5 0zm-15 0a2.5 2.5 0 115 0 2.5 2.5 0 01-5 0zm-15 0a2.5 2.5 0 115 0 2.5 2.5 0 01-5 0zm-15 0a2.5 2.5 0 115 0 2.5 2.5 0 01-5 0zm-15 0a2.5 2.5 0 115 0 2.5 2.5 0 01-5 0zm-15 0a2.5 2.5 0 115 0 2.5 2.5 0 01-5 0zm-15 0a2.5 2.5 0 115 0 2.5 2.5 0 01-5 0zm-15 0a2.5 2.5 0 115 0 2.5 2.5 0 01-5 0zm-15 0a2.5 2.5 0 115 0 2.5 2.5 0 01-5 0zm-15 0a2.5 2.5 0 115 0 2.5 2.5 0 01-5 0zm195-15a2.5 2.5 0 115 0 2.5 2.5 0 01-5 0zm-15 0a2.5 2.5 0 115 0 2.5 2.5 0 01-5 0zm-15 0a2.5 2.5 0 115 0 2.5 2.5 0 01-5 0zm-15 0a2.5 2.5 0 115 0 2.5 2.5 0 01-5 0zm-15 0a2.5 2.5 0 115 0 2.5 2.5 0 01-5 0zm-15 0a2.5 2.5 0 115 0 2.5 2.5 0 01-5 0zm-15 0a2.5 2.5 0 115 0 2.5 2.5 0 01-5 0zm-15 0a2.5 2.5 0 115 0 2.5 2.5 0 01-5 0zm-15 0a2.5 2.5 0 115 0 2.5 2.5 0 01-5 0zm-15 0a2.5 2.5 0 115 0 2.5 2.5 0 01-5 0zm-15 0a2.5 2.5 0 115 0 2.5 2.5 0 01-5 0zm-15 0a2.5 2.5 0 115 0 2.5 2.5 0 01-5 0zm-15 0a2.5 2.5 0 115 0 2.5 2.5 0 01-5 0zm-15 0a2.5 2.5 0 115 0 2.5 2.5 0 01-5 0zm195-15a2.5 2.5 0 115 0 2.5 2.5 0 01-5 0zm-15 0a2.5 2.5 0 115 0 2.5 2.5 0 01-5 0zm-15 0a2.5 2.5 0 115 0 2.5 2.5 0 01-5 0zm-15 0a2.5 2.5 0 115 0 2.5 2.5 0 01-5 0zm-15 0a2.5 2.5 0 115 0 2.5 2.5 0 01-5 0zm-15 0a2.5 2.5 0 115 0 2.5 2.5 0 01-5 0zm-15 0a2.5 2.5 0 115 0 2.5 2.5 0 01-5 0zm-15 0a2.5 2.5 0 115 0 2.5 2.5 0 01-5 0zm-15 0a2.5 2.5 0 115 0 2.5 2.5 0 01-5 0zm-15 0a2.5 2.5 0 115 0 2.5 2.5 0 01-5 0zm-15 0a2.5 2.5 0 115 0 2.5 2.5 0 01-5 0zm-15 0a2.5 2.5 0 115 0 2.5 2.5 0 01-5 0zm-15 0a2.5 2.5 0 115 0 2.5 2.5 0 01-5 0zm-15 0a2.5 2.5 0 115 0 2.5 2.5 0 01-5 0zm195-15a2.5 2.5 0 115 0 2.5 2.5 0 01-5 0zm-15 0a2.5 2.5 0 115 0 2.5 2.5 0 01-5 0zm-15 0a2.5 2.5 0 115 0 2.5 2.5 0 01-5 0zm-15 0a2.5 2.5 0 115 0 2.5 2.5 0 01-5 0zm-15 0a2.5 2.5 0 115 0 2.5 2.5 0 01-5 0zm-15 0a2.5 2.5 0 115 0 2.5 2.5 0 01-5 0zm-15 0a2.5 2.5 0 115 0 2.5 2.5 0 01-5 0zm-15 0a2.5 2.5 0 115 0 2.5 2.5 0 01-5 0zm-15 0a2.5 2.5 0 115 0 2.5 2.5 0 01-5 0zm-15 0a2.5 2.5 0 115 0 2.5 2.5 0 01-5 0zm-15 0a2.5 2.5 0 115 0 2.5 2.5 0 01-5 0zm-15 0a2.5 2.5 0 115 0 2.5 2.5 0 01-5 0zm-15 0a2.5 2.5 0 115 0 2.5 2.5 0 01-5 0zm-15 0a2.5 2.5 0 115 0 2.5 2.5 0 01-5 0zm195-15a2.5 2.5 0 115 0 2.5 2.5 0 01-5 0zm-15 0a2.5 2.5 0 115 0 2.5 2.5 0 01-5 0zm-15 0a2.5 2.5 0 115 0 2.5 2.5 0 01-5 0zm-15 0a2.5 2.5 0 115 0 2.5 2.5 0 01-5 0zm-15 0a2.5 2.5 0 115 0 2.5 2.5 0 01-5 0zm-15 0a2.5 2.5 0 115 0 2.5 2.5 0 01-5 0zm-15 0a2.5 2.5 0 115 0 2.5 2.5 0 01-5 0zm-15 0a2.5 2.5 0 115 0 2.5 2.5 0 01-5 0zm-15 0a2.5 2.5 0 115 0 2.5 2.5 0 01-5 0zm-15 0a2.5 2.5 0 115 0 2.5 2.5 0 01-5 0zm-15 0a2.5 2.5 0 115 0 2.5 2.5 0 01-5 0zm-15 0a2.5 2.5 0 115 0 2.5 2.5 0 01-5 0zm-15 0a2.5 2.5 0 115 0 2.5 2.5 0 01-5 0zm-15 0a2.5 2.5 0 115 0 2.5 2.5 0 01-5 0zm195-15a2.5 2.5 0 115 0 2.5 2.5 0 01-5 0zm-15 0a2.5 2.5 0 115 0 2.5 2.5 0 01-5 0zm-15 0a2.5 2.5 0 115 0 2.5 2.5 0 01-5 0zm-15 0a2.5 2.5 0 115 0 2.5 2.5 0 01-5 0zm-15 0a2.5 2.5 0 115 0 2.5 2.5 0 01-5 0zm-15 0a2.5 2.5 0 115 0 2.5 2.5 0 01-5 0zm-15 0a2.5 2.5 0 115 0 2.5 2.5 0 01-5 0zm-15 0a2.5 2.5 0 115 0 2.5 2.5 0 01-5 0zm-15 0a2.5 2.5 0 115 0 2.5 2.5 0 01-5 0zm-15 0a2.5 2.5 0 115 0 2.5 2.5 0 01-5 0zm-15 0a2.5 2.5 0 115 0 2.5 2.5 0 01-5 0zm-15 0a2.5 2.5 0 115 0 2.5 2.5 0 01-5 0zm-15 0a2.5 2.5 0 115 0 2.5 2.5 0 01-5 0zm-15 0a2.5 2.5 0 115 0 2.5 2.5 0 01-5 0zm195-15a2.5 2.5 0 115 0 2.5 2.5 0 01-5 0zm-15 0a2.5 2.5 0 115 0 2.5 2.5 0 01-5 0zm-15 0a2.5 2.5 0 115 0 2.5 2.5 0 01-5 0zm-15 0a2.5 2.5 0 115 0 2.5 2.5 0 01-5 0zm-15 0a2.5 2.5 0 115 0 2.5 2.5 0 01-5 0zm-15 0a2.5 2.5 0 115 0 2.5 2.5 0 01-5 0zm-15 0a2.5 2.5 0 115 0 2.5 2.5 0 01-5 0zm-15 0a2.5 2.5 0 115 0 2.5 2.5 0 01-5 0zm-15 0a2.5 2.5 0 115 0 2.5 2.5 0 01-5 0zm-15 0a2.5 2.5 0 115 0 2.5 2.5 0 01-5 0zm-15 0a2.5 2.5 0 115 0 2.5 2.5 0 01-5 0zm-15 0a2.5 2.5 0 115 0 2.5 2.5 0 01-5 0zm-15 0a2.5 2.5 0 115 0 2.5 2.5 0 01-5 0zm-15 0a2.5 2.5 0 115 0 2.5 2.5 0 01-5 0zm195-15a2.5 2.5 0 115 0 2.5 2.5 0 01-5 0zm-15 0a2.5 2.5 0 115 0 2.5 2.5 0 01-5 0zm-15 0a2.5 2.5 0 115 0 2.5 2.5 0 01-5 0zm-15 0a2.5 2.5 0 115 0 2.5 2.5 0 01-5 0zm-15 0a2.5 2.5 0 115 0 2.5 2.5 0 01-5 0zm-15 0a2.5 2.5 0 115 0 2.5 2.5 0 01-5 0zm-15 0a2.5 2.5 0 115 0 2.5 2.5 0 01-5 0zm-15 0a2.5 2.5 0 115 0 2.5 2.5 0 01-5 0zm-15 0a2.5 2.5 0 115 0 2.5 2.5 0 01-5 0zm-15 0a2.5 2.5 0 115 0 2.5 2.5 0 01-5 0zm-15 0a2.5 2.5 0 115 0 2.5 2.5 0 01-5 0zm-15 0a2.5 2.5 0 115 0 2.5 2.5 0 01-5 0zm-15 0a2.5 2.5 0 115 0 2.5 2.5 0 01-5 0zm-15 0a2.5 2.5 0 115 0 2.5 2.5 0 01-5 0zm195-15a2.5 2.5 0 115 0 2.5 2.5 0 01-5 0zm-15 0a2.5 2.5 0 115 0 2.5 2.5 0 01-5 0zm-15 0a2.5 2.5 0 115 0 2.5 2.5 0 01-5 0zm-15 0a2.5 2.5 0 115 0 2.5 2.5 0 01-5 0zm-15 0a2.5 2.5 0 115 0 2.5 2.5 0 01-5 0zm-15 0a2.5 2.5 0 115 0 2.5 2.5 0 01-5 0zm-15 0a2.5 2.5 0 115 0 2.5 2.5 0 01-5 0zm-15 0a2.5 2.5 0 115 0 2.5 2.5 0 01-5 0zm-15 0a2.5 2.5 0 115 0 2.5 2.5 0 01-5 0zm-15 0a2.5 2.5 0 115 0 2.5 2.5 0 01-5 0zm-15 0a2.5 2.5 0 115 0 2.5 2.5 0 01-5 0zm-15 0a2.5 2.5 0 115 0 2.5 2.5 0 01-5 0zm-15 0a2.5 2.5 0 115 0 2.5 2.5 0 01-5 0zm-15 0a2.5 2.5 0 115 0 2.5 2.5 0 01-5 0zm195-15a2.5 2.5 0 115 0 2.5 2.5 0 01-5 0zm-15 0a2.5 2.5 0 115 0 2.5 2.5 0 01-5 0zm-15 0a2.5 2.5 0 115 0 2.5 2.5 0 01-5 0zm-15 0a2.5 2.5 0 115 0 2.5 2.5 0 01-5 0zm-15 0a2.5 2.5 0 115 0 2.5 2.5 0 01-5 0zm-15 0a2.5 2.5 0 115 0 2.5 2.5 0 01-5 0zm-15 0a2.5 2.5 0 115 0 2.5 2.5 0 01-5 0zm-15 0a2.5 2.5 0 115 0 2.5 2.5 0 01-5 0zm-15 0a2.5 2.5 0 115 0 2.5 2.5 0 01-5 0zm-15 0a2.5 2.5 0 115 0 2.5 2.5 0 01-5 0zm-15 0a2.5 2.5 0 115 0 2.5 2.5 0 01-5 0zm-15 0a2.5 2.5 0 115 0 2.5 2.5 0 01-5 0zm-15 0a2.5 2.5 0 115 0 2.5 2.5 0 01-5 0zm-15 0a2.5 2.5 0 115 0 2.5 2.5 0 01-5 0z" fill="#F4F6F9"/><defs><clipPath id="clip0"><path fill="#fff" transform="rotate(21.447 630.615 3329.901)" d="M0 0h180.139v296H0z"/></clipPath><clipPath id="clip1"><path fill="#fff" transform="rotate(-6.393 592.898 1982.478)" d="M0 0h618.3v261.1H0z"/></clipPath></defs></svg>