<svg width="30" height="26" viewBox="0 0 30 26" fill="none" xmlns="http://www.w3.org/2000/svg"><path d="M17.274 14.87l.004.046.004.046.003.046.003.046.003.046.002.047.002.046v.047l.001.046v.14l-.002.047-.001.047-.002.047-.003.047-.003.046-.003.047-.004.047-.005.047-.005.047-.005.047-.006.047-.006.047-.007.046-.007.047-.008.047-.008.047-.009.046-.009.047-.01.047-.01.046-.01.047-.011.046-.012.047-.012.046-.012.046-.013.046-.013.046-.014.046-.014.046-.015.046-.015.046-.016.045-.016.046-.017.045-.017.045-.018.045-.018.045-.018.045-.02.045-.018.044-.02.044-.02.045-.021.044-.022.043-.021.044-.023.044-.022.043-.023.043-.024.043-.024.043-.024.042-.025.043-.025.042-.026.042-.026.041-.027.042-.027.041-.027.041-.028.04-.028.041-.03.04-.028.04-.03.04-.03.04-.03.039-.031.039-.032.039-.031.038-.032.038-.033.038-.033.038-.033.037-.034.037-.034.036-.035.037-.034.036-.036.035-.035.036-.037.035-.036.034-.037.035-.037.034-.038.034-.037.033-.039.033-.038.032-.04.033-.039.032-.04.031-.04.031-.04.031-.041.03-.041.03-.042.03-.041.03-.043.028-.042.029-.043.028-.043.027-.043.028-.044.026-.044.027-.044.026-.045.025-.045.026-.045.024-.046.024-.045.024-.046.024-.047.023-.046.022-.047.022-.047.022-.048.02-.047.021-.048.02-.048.02-.049.02-.049.019-.048.018-.05.018-.049.017-.05.017-.049.016-.05.016-.05.016-.05.015-.051.014-.05.014-.052.014-.05.012-.052.013-.052.012-.051.011-.052.011-.052.01-.052.01-.052.01-.053.009-.052.008-.053.008-.053.007-.053.007-.053.006-.053.006-.053.005-.053.005-.054.004-.053.003-.054.003-.054.003-.053.002h-.054l-.054.002h-.108l-.054-.001-.054-.001-.054-.002-.055-.003-.054-.003-.054-.003-.054-.004-.055-.005-.054-.005-.054-.006-.055-.006-.054-.007-.054-.008-.054-.008-.054-.008-.055-.01-.054-.009-.054-.01-.054-.01-.054-.012-.054-.012-.053-.012-.054-.013-.054-.014-.054-.014-.053-.015-.053-.015-.054-.016-.053-.016-.053-.017-.053-.017-.053-.018-.053-.019-.052-.019-.053-.02-.052-.02-.052-.02-.052-.022-.052-.021-.052-.023-.051-.023-.052-.023-.051-.024-.051-.025-.05-.025-.051-.025-.05-.027-.05-.026-.05-.027-.05-.028-.05-.028-.05-.03-.048-.029-.05-.03-.048-.03-.048-.03-.048-.032-.048-.032-.047-.033-.047-.033-.047-.033-.047-.034-.046-.035-.046-.034-.046-.036-.045-.036-.046-.036-.044-.037-.045-.038-.044-.038-.044-.038-.043-.039-.043-.04-.043-.04-.043-.04-.042-.04-.041-.042-.042-.041-.04-.043-.041-.042-.04-.043-.04-.044-.04-.044-.039-.044-.038-.045-.039-.045-.037-.046-.038-.046-.037-.047-.036-.047-.036-.047-.036-.048-.035-.048-.035-.049-.034-.049-.034-.049-.034-.05-.033-.05-.032-.05-.032-.051-.032-.052-.03-.051-.031-.052-.03-.053-.03-.053-.03-.053-.028-.053-.028-.054-.028-.054-.027-.055-.026-.054-.026-.055-.026-.056-.025-.055-.025-.057-.024-.056-.023-.056-.023-.057-.022-.058-.022-.057-.021-.058-.021-.058-.02-.058-.02-.059-.019-.059-.018-.059-.018-.059-.018-.06-.016-.06-.017-.06-.015-.06-.015-.06-.015-.06-.013-.061-.014-.062-.012-.06-.013-.062-.011-.062-.01-.062-.011-.062-.01-.062-.009-.062-.008-.062-.008-.063-.007-.063-.007-.062-.006-.063-.006-.063-.004-.064-.004-.063-.004-.063-.003-.064-.002-.063-.002-.064v-.064l-.001-.064v-.128l.002-.064.002-.064.003-.064.004-.064.004-.064.004-.064.006-.064.006-.065.006-.064.008-.064.007-.064.009-.064.01-.064.009-.064.01-.065.012-.063.011-.065.013-.063.013-.064.014-.064.014-.064.015-.063.015-.064.017-.063.017-.064.017-.063.018-.063.02-.063.019-.063.02-.062.02-.063.022-.062.022-.062.023-.063.023-.061.024-.062.025-.062.025-.061.026-.061.026-.061.027-.06.028-.061.028-.06.03-.06.029-.06.03-.06.031-.06.031-.059.032-.058.033-.059.033-.058.034-.058.035-.058.035-.057.036-.057.036-.057.037-.057.038-.056.038-.056.038-.055.04-.056.04-.054.04-.055.04-.054.043-.054.042-.053.042-.053.044-.053.044-.052.044-.052.045-.051.046-.051.046-.051.046-.05.047-.05.048-.05.048-.048.05-.049.048-.048.05-.047.05-.048.051-.046.052-.046.052-.046.052-.045.053-.045.053-.044.054-.044.055-.043.054-.043.056-.042.055-.042.057-.041.056-.04.058-.041.057-.04.058-.039.059-.038.059-.038.059-.037.06-.037.06-.036.06-.036.062-.035.061-.035.062-.034.062-.033.063-.033.063-.032.063-.031.064-.031.064-.03.064-.03.065-.03.066-.028.065-.027.066-.027.066-.027.067-.026.066-.025.068-.025.067-.023.068-.024.068-.022.068-.022.069-.021.069-.02.069-.02.07-.02.069-.019.07-.017.07-.018.07-.016.071-.016.071-.015.071-.014.072-.014.071-.013.072-.012.072-.011.072-.011.072-.01.072-.01.073-.008.073-.008.072-.007.073-.007.074-.005.073-.005.073-.005.074-.003.074-.003.073-.002.074-.001h.222l.074.002.074.003.074.003.075.004.074.005.074.005.074.006.075.007.074.008.074.009.075.009.074.01.074.01.074.012.074.013.075.013.074.014.074.014.073.015.074.017.074.017.074.017.073.019.074.019.073.02.073.02.073.022.073.022.073.023.072.024.073.024.072.026.072.026.072.026.072.028.071.028.071.03.071.029.071.03.07.032.071.032.07.032.07.034.07.034.069.035.069.036.069.036.068.037.068.038.068.039.067.04.068.04.066.04.067.041.066.043.066.043.065.043.065.044.065.045.064.046.064.047.064.047.063.047.062.049.063.05.061.049.062.05.06.052.061.051.06.053.06.053.06.054.058.054.058.055.058.056.057.056.057.057.056.058.055.058.055.06.055.059.054.06.054.06.053.062.052.062.052.062.051.063.05.064.051.064.05.065.048.065.049.066.047.067.048.067.046.067.046.068.045.069.045.07.044.069.043.07.043.07.042.072.041.071.04.072.04.073.04.073.039.074.038.074.037.074.036.075.036.076.035.075.035.077.033.076.033.077.033.078.031.078.03.078.03.079.03.079.028.079.028.08.027.08.026.08.026.081.024.081.024.082.023.082.023.082.021.082.02.083.02.083.02.083.018.084.018.083.016.084.016.085.015.084.014.085.014.085.012.085.012.086.01.085.01.086.01.086.009.086.007.087.007.086.006.087.005.087.004.086.003.088.002.087.002.087v.262l-.003.088-.002.088-.004.087-.005.088-.005.088-.006.088-.008.088-.008.088-.008.087-.01.088-.01.088-.012.088-.013.088-.013.088-.014.087-.015.088-.016.088-.017.087-.018.087-.019.088-.019.087-.02.087-.022.087-.022.087-.023.087-.024.086-.024.087-.026.086-.027.086-.027.086-.028.085-.03.086-.03.085-.03.085-.032.085-.033.084-.033.085-.035.084-.035.084-.036.083-.037.083-.038.083-.039.083-.04.082-.04.082-.04.082-.043.081-.043.08-.044.082-.044.08-.046.08-.046.08-.047.078-.048.079-.049.078-.05.078-.05.077-.051.077-.052.077-.053.076-.054.076-.054.075-.055.074-.056.075-.057.073-.058.073-.058.073-.06.072-.06.072-.06.071-.062.07-.062.07-.063.07-.063.069-.065.068-.065.068-.066.067-.067.066-.067.066-.068.065-.069.065-.07.064-.07.063-.07.063-.072.062-.073.061-.073.061-.073.06-.074.06-.075.058-.076.058-.076.057-.077.057-.078.055-.078.055-.079.055-.079.053-.08.053-.08.052-.082.051-.081.051-.083.05-.083.049-.083.048-.084.047-.085.047-.085.045-.085.046-.087.044-.086.043-.088.042-.087.042-.088.04-.09.04-.088.04-.09.038-.09.037-.09.036-.092.036-.091.035-.092.033-.092.033-.093.032-.093.031-.094.03-.093.03-.095.028-.094.027-.095.027-.096.025-.096.025-.096.023-.096.023-.097.022-.097.02-.097.02-.097.02-.098.017-.098.017-.099.016-.098.015-.1.014-.098.013-.1.012-.1.01-.099.01-.1.01-.1.008-.1.006-.1.006-.101.005-.101.004-.101.003-.101.002-.101.001h-.101l-.102-.001-.101-.002-.102-.004-.101-.004-.102-.005-.102-.007-.101-.007-.102-.008-.102-.01-.101-.01-.102-.012-.102-.012-.102-.014-.101-.014-.102-.016-.101-.017-.102-.017-.101-.02-.102-.02-.1-.02-.102-.022-.1-.023-.102-.024-.1-.025-.1-.026-.101-.027-.1-.028-.1-.03-.1-.03-.1-.031-.1-.032-.098-.034-.1-.034-.098-.036-.099-.036-.098-.038-.098-.038-.097-.04-.098-.04-.097-.042-.096-.043-.097-.043-.096-.045-.095-.046-.096-.046-.094-.048-.095-.049-.094-.05-.094-.05-.093-.052-.093-.053-.093-.053-.092-.055-.091-.055-.091-.057-.091-.058-.09-.058-.09-.06-.089-.06-.089-.062-.088-.062-.087-.064-.087-.064-.087-.065-.086-.067-.085-.067-.085-.068-.084-.069-.084-.07-.083-.07-.082-.072-.082-.073-.08-.073-.081-.075-.08-.075-.079-.076-.078-.077-.078-.078-.077-.079-.076-.08-.076-.08-.075-.081-.074-.082-.073-.083-.073-.084-.072-.085-.07-.085-.071-.087-.07-.087-.068-.087-.068-.089-.067-.09-.067-.09-.065-.09-.065-.092-.064-.092-.063-.093-.062-.094-.06-.095-.061-.095-.06-.096-.058-.096-.058-.098-.057-.098-.055-.098-.055-.1-.054-.1-.053-.1-.052-.102-.051-.101-.05-.103-.05-.103-.048-.104-.047-.104-.047-.105-.045-.105-.044-.106-.043-.107-.043-.107-.04-.108-.041-.108-.04-.108-.037-.11-.037-.109-.036-.11-.035-.11-.034-.112-.033-.111-.032-.112-.03-.112-.03-.113-.029-.113-.027-.114-.026-.114-.026-.114-.024-.115-.023-.115-.022-.115-.02-.116-.02-.116-.019-.116-.017-.117-.016-.117-.015-.117-.014-.117-.013-.118-.012-.118-.01-.118-.01-.119-.008-.118-.007-.119-.005-.119-.005-.12-.004-.119-.002-.119-.001-.12v-.12l.001-.12.003-.12.003-.12.005-.12.006-.12.007-.12.009-.12.01-.12.01-.12.012-.12.013-.121.015-.12.016-.12.016-.12.018-.121.02-.12.02-.12.022-.12.023-.12.024-.12.025-.12.026-.119.028-.119.029-.119.03-.119.031-.119.033-.118.034-.118.035-.118.036-.118.037-.118.039-.117.04-.117.04-.117.042-.117.044-.116.044-.116.046-.115.047-.115.048-.115.05-.114.05-.114.051-.114.053-.113.054-.113.055-.112.056-.112.058-.111.058-.111.06-.11.061-.11.062-.11.063-.109.065-.108.065-.108.067-.107.068-.107.068-.106.07-.105.071-.105.073-.105.073-.103.074-.103.076-.103.076-.101.078-.101.079-.1.08-.1.08-.099.082-.098.083-.098.084-.096.085-.096.086-.095.087-.095.088-.093.09-.093.09-.092.09-.091.093-.09.093-.09.094-.089.095-.087.096-.087.097-.086.098-.085.099-.084.1-.084.1-.082.101-.081.103-.08.103-.08.105-.079.105-.077.106-.077.107-.075.107-.075.109-.073.11-.073.11-.071.11-.07.112-.07.113-.068.113-.067.114-.067.115-.065.116-.063.116-.063.117-.062.118-.06.119-.06.12-.058.12-.057.12-.056.121-.055.122-.054.123-.052L8.989 2l.124-.05.124-.05.126-.047.125-.046.126-.045.127-.044.128-.043.128-.042.128-.04.13-.039.129-.037.13-.037.13-.035.131-.034.131-.032.132-.032.133-.03.132-.028.133-.027.134-.026.134-.025.134-.023.135-.022.135-.021.135-.02.136-.017.136-.017.136-.015.136-.014.137-.013.137-.01.138-.01.137-.009.138-.007.138-.005.138-.005.138-.003.139-.001h.138l.139.001.139.003.139.004.139.006.139.007.139.008.14.01.138.011.14.013.139.014.14.016.139.017.139.018.139.02.139.021.139.023.139.024.139.025.139.027.138.028.138.03.139.031.138.033.138.034.137.036.138.037.137.038.137.04.137.041.136.043.136.044.136.045.136.047.135.048.135.05.134.051.134.053.134.054.133.055.133.057.133.058.132.06.131.06.131.063.13.063.13.065.13.067.13.068.128.069.128.07.127.072.127.074.126.074.125.076.125.078.124.078.124.08.123.082.122.082.121.084.121.085.12.087.12.088.118.09.118.09.117.091.116.093.115.094.115.096.113.097.113.098.112.099.111.1.11.102.11.103.108.104.108.105.106.107.106.108.105.108.103.11.103.112.102.112.1.113.1.115.098.115.098.117.096.118.096.12.094.12.093.12.092.122.091.124.09.124.089.125.087.126.087.128.085.128.084.13.082.13.082.13.08.133.08.133.077.134.077.135.075.136.075.137.072.137.072.139.07.139.069.14.067.141.067.142.065.143.063.143.062.144.061.145.06.146.058.146.056.148.055.148.054.148.053.15.05.15.05.15.048.151.047.152.045.153.044.153.042.153.041.155.04.155.037.155.036.156.035.156.033.157.032.158.03.158.03.158.026.159.026.159.024.16.022.16.021.16.02.16.017.162" stroke="#262B37" stroke-width="2" stroke-linecap="round"/></svg>