<svg width="192" height="313" viewBox="0 0 192 313" fill="none" xmlns="http://www.w3.org/2000/svg"><path d="M65.251 171.763l73.538-85.238 26.742 26.741-51.811 58.497 51.811 58.496L138.789 257l-73.538-85.237zm-83.566 0l73.538-85.238 26.742 26.741-51.811 58.497 51.81 58.496L55.225 257l-73.539-85.237z" fill="#F4F6F9"/><path d="M65.251 171.763l-1.514-1.307-1.127 1.307 1.127 1.306 1.514-1.306zm73.538-85.238l1.415-1.414-1.523-1.522-1.406 1.63 1.514 1.306zm26.742 26.741l1.497 1.326 1.248-1.409-1.331-1.331-1.414 1.414zm-51.811 58.497l-1.498-1.326-1.174 1.326 1.174 1.326 1.498-1.326zm51.811 58.496l1.414 1.414 1.331-1.331-1.248-1.409-1.497 1.326zM138.789 257l-1.514 1.306 1.406 1.63 1.523-1.522-1.415-1.414zm-157.104-85.237l-1.514-1.307-1.127 1.307 1.127 1.306 1.514-1.306zm73.538-85.238l1.415-1.414-1.523-1.522-1.406 1.63 1.514 1.306zm26.742 26.741l1.497 1.326 1.248-1.409-1.331-1.331-1.415 1.414zm-51.811 58.497l-1.498-1.326-1.174 1.326 1.174 1.326 1.498-1.326zm51.81 58.496l1.415 1.414 1.33-1.331-1.247-1.409-1.498 1.326zM55.225 257l-1.515 1.306 1.406 1.63 1.523-1.522L55.223 257zm11.542-83.931l73.538-85.237-3.029-2.613-73.538 85.237 3.029 2.613zm70.609-85.13l26.741 26.742 2.829-2.829-26.741-26.741-2.829 2.828zm26.658 24.001l-51.811 58.497 2.995 2.652 51.811-58.497-2.995-2.652zm-51.811 61.149l51.811 58.496 2.995-2.652-51.811-58.496-2.995 2.652zm51.894 55.756l-26.741 26.741 2.829 2.828 26.741-26.741-2.829-2.828zm-23.812 26.849l-73.538-85.238-3.029 2.613 73.538 85.237 3.029-2.612zM-16.8 173.069l73.538-85.237-3.029-2.613-73.538 85.237 3.029 2.613zm70.61-85.13l26.74 26.742 2.829-2.829-26.741-26.741-2.829 2.828zm26.657 24.001l-51.81 58.497 2.994 2.652 51.81-58.497-2.994-2.652zm-51.81 61.149l51.81 58.496 2.995-2.652-51.811-58.496-2.995 2.652zm51.893 55.756l-26.74 26.741 2.828 2.828 26.74-26.741-2.828-2.828zm-23.812 26.849L-16.8 170.456l-3.029 2.613 73.538 85.237 3.029-2.612z" fill="#fff"/><path d="M76.251 173.763l73.538-85.238 26.742 26.741-51.811 58.497 51.811 58.496L149.789 259l-73.538-85.237zm-83.566 0l73.538-85.238 26.742 26.741-51.811 58.497 51.81 58.496L66.225 259l-73.539-85.237z" fill="#fff"/><path d="M76.251 173.763l-1.514-1.307-1.127 1.307 1.127 1.306 1.514-1.306zm73.538-85.238l1.415-1.414-1.523-1.522-1.406 1.63 1.514 1.306zm26.742 26.741l1.497 1.326 1.248-1.409-1.331-1.331-1.414 1.414zm-51.811 58.497l-1.498-1.326-1.174 1.326 1.174 1.326 1.498-1.326zm51.811 58.496l1.414 1.414 1.331-1.331-1.248-1.409-1.497 1.326zM149.789 259l-1.514 1.306 1.406 1.63 1.523-1.522-1.415-1.414zM-7.315 173.763l-1.514-1.307-1.127 1.307 1.127 1.306 1.514-1.306zm73.538-85.238l1.415-1.414-1.523-1.522-1.406 1.63 1.514 1.306zm26.742 26.741l1.497 1.326 1.248-1.409-1.331-1.331-1.415 1.414zm-51.811 58.497l-1.498-1.326-1.174 1.326 1.174 1.326 1.498-1.326zm51.81 58.496l1.415 1.414 1.33-1.331-1.247-1.409-1.498 1.326zM66.225 259l-1.515 1.306 1.406 1.63 1.523-1.522L66.223 259zm11.542-83.931l73.538-85.237-3.029-2.613-73.538 85.237 3.029 2.613zm70.609-85.13l26.741 26.742 2.829-2.829-26.741-26.741-2.829 2.828zm26.658 24.001l-51.811 58.497 2.995 2.652 51.811-58.497-2.995-2.652zm-51.811 61.149l51.811 58.496 2.995-2.652-51.811-58.496-2.995 2.652zm51.894 55.756l-26.741 26.741 2.829 2.828 26.741-26.741-2.829-2.828zm-23.812 26.849l-73.538-85.238-3.029 2.613 73.538 85.237 3.029-2.612zM-5.8 175.069l73.538-85.237-3.029-2.613-73.538 85.237 3.029 2.613zm70.61-85.13l26.74 26.742 2.829-2.829-26.741-26.741-2.829 2.828zm26.657 24.001l-51.81 58.497 2.994 2.652 51.81-58.497-2.994-2.652zm-51.81 61.149l51.81 58.496 2.995-2.652-51.811-58.496-2.995 2.652zm51.893 55.756l-26.74 26.741 2.828 2.828 26.74-26.741-2.828-2.828zm-23.812 26.849L-5.8 172.456l-3.029 2.613 73.538 85.237 3.029-2.612z" fill="#F4F6F9"/></svg>