<svg width="216" height="315" viewBox="0 0 216 315" fill="none" xmlns="http://www.w3.org/2000/svg"><path d="M125.749 175.763L52.211 90.525l-26.742 26.741 51.811 58.497-51.81 58.496L52.21 261l73.539-85.237zm83.566 0l-73.538-85.238-26.742 26.741 51.811 58.497-51.811 58.496L135.777 261l73.538-85.237z" fill="#F4F6F9"/><path d="M125.749 175.763l1.514-1.307 1.127 1.307-1.127 1.306-1.514-1.306zM52.211 90.525l-1.415-1.414 1.523-1.522 1.406 1.63-1.514 1.306zm-26.742 26.741l-1.497 1.326-1.248-1.409 1.331-1.331 1.414 1.414zm51.811 58.497l1.498-1.326 1.174 1.326-1.174 1.326-1.498-1.326zm-51.81 58.496l-1.415 1.414-1.33-1.331 1.247-1.409 1.497 1.326zM52.21 261l1.515 1.306-1.406 1.63-1.523-1.522L52.211 261zm157.105-85.237l1.514-1.307 1.127 1.307-1.127 1.306-1.514-1.306zm-73.538-85.238l-1.415-1.414 1.523-1.522 1.406 1.63-1.514 1.306zm-26.742 26.741l-1.497 1.326-1.248-1.409 1.331-1.331 1.414 1.414zm51.811 58.497l1.498-1.326 1.174 1.326-1.174 1.326-1.498-1.326zm-51.811 58.496l-1.414 1.414-1.331-1.331 1.248-1.409 1.497 1.326zM135.777 261l1.514 1.306-1.406 1.63-1.523-1.522 1.415-1.414zm-11.543-83.931L50.696 91.832l3.029-2.613 73.538 85.237-3.029 2.613zm-70.61-85.13l-26.74 26.742-2.829-2.829 26.741-26.741 2.829 2.828zM26.968 115.94l51.81 58.497-2.994 2.652-51.81-58.497 2.994-2.652zm51.81 61.149l-51.81 58.496-2.995-2.652 51.811-58.496 2.995 2.652zm-51.893 55.756l26.74 26.741-2.828 2.828-26.74-26.741 2.828-2.828zm23.812 26.849l73.538-85.238 3.029 2.613-73.538 85.237-3.029-2.612zM207.8 177.069l-73.538-85.237 3.029-2.613 73.538 85.237-3.029 2.613zm-70.609-85.13l-26.741 26.742-2.829-2.829 26.741-26.741 2.829 2.828zm-26.658 24.001l51.811 58.497-2.995 2.652-51.811-58.497 2.995-2.652zm51.811 61.149l-51.811 58.496-2.995-2.652 51.811-58.496 2.995 2.652zm-51.894 55.756l26.741 26.741-2.829 2.828-26.741-26.741 2.829-2.828zm23.812 26.849l73.538-85.238 3.029 2.613-73.538 85.237-3.029-2.612z" fill="#fff"/><path d="M115.749 171.763L42.211 86.525l-26.742 26.741 51.811 58.497-51.81 58.496L42.21 257l73.539-85.237zm83.566 0l-73.538-85.238-26.742 26.741 51.811 58.497-51.81 58.496L125.776 257l73.538-85.237z" fill="#fff"/><path d="M115.749 171.763l1.514-1.307 1.127 1.307-1.127 1.306-1.514-1.306zM42.211 86.525l-1.415-1.414 1.523-1.522 1.406 1.63-1.514 1.306zm-26.742 26.741l-1.497 1.326-1.248-1.409 1.331-1.331 1.414 1.414zm51.811 58.497l1.498-1.326 1.174 1.326-1.174 1.326-1.498-1.326zm-51.81 58.496l-1.415 1.414-1.33-1.331 1.247-1.409 1.497 1.326zM42.21 257l1.515 1.306-1.406 1.63-1.523-1.522L42.211 257zm157.105-85.237l1.514-1.307 1.127 1.307-1.127 1.306-1.514-1.306zm-73.538-85.238l-1.415-1.414 1.523-1.522 1.406 1.63-1.514 1.306zm-26.742 26.741l-1.497 1.326-1.248-1.409 1.331-1.331 1.415 1.414zm51.811 58.497l1.498-1.326 1.174 1.326-1.174 1.326-1.498-1.326zm-51.81 58.496l-1.415 1.414-1.33-1.331 1.247-1.409 1.498 1.326zM125.776 257l1.514 1.306-1.406 1.63-1.523-1.522 1.415-1.414zm-11.543-83.931L40.696 87.832l3.029-2.613 73.538 85.237-3.029 2.613zm-70.61-85.13l-26.74 26.742-2.829-2.829 26.741-26.741 2.829 2.828zM16.968 111.94l51.81 58.497-2.994 2.652-51.81-58.497 2.994-2.652zm51.81 61.149l-51.81 58.496-2.995-2.652 51.811-58.496 2.995 2.652zm-51.893 55.756l26.74 26.741-2.828 2.828-26.74-26.741 2.828-2.828zm23.812 26.849l73.538-85.238 3.029 2.613-73.538 85.237-3.029-2.612zM197.8 173.069l-73.538-85.237 3.029-2.613 73.538 85.237-3.029 2.613zm-70.609-85.13l-26.741 26.742-2.829-2.829 26.741-26.741 2.829 2.828zm-26.658 24.001l51.811 58.497-2.995 2.652-51.81-58.497 2.994-2.652zm51.811 61.149l-51.811 58.496-2.995-2.652 51.811-58.496 2.995 2.652zm-51.894 55.756l26.741 26.741-2.829 2.828-26.74-26.741 2.828-2.828zm23.812 26.849l73.538-85.238 3.029 2.613-73.538 85.237-3.029-2.612z" fill="#F4F6F9"/></svg>