<svg width="30" height="30" viewBox="0 0 30 30" fill="none" xmlns="http://www.w3.org/2000/svg"><circle cx="15" cy="15" r="15" fill="#474F60"/><mask id="mask0" style="mask-type:alpha" maskUnits="userSpaceOnUse" x="4" y="4" width="22" height="22"><path d="M12.843 20.605l.245-3.701 6.72-6.056c.298-.27-.061-.402-.455-.166l-8.295 5.242-3.587-1.138c-.77-.219-.78-.752.175-1.137l13.973-5.39c.64-.29 1.252.157 1.007 1.137l-2.38 11.209c-.167.796-.648.988-1.313.621l-3.622-2.677-1.742 1.688c-.2.202-.367.368-.726.368z" fill="#262B37"/></mask><g mask="url(#mask0)"><path fill="#262B37" d="M0 0h30v30H0z"/></g></svg>