<svg width="30" height="30" viewBox="0 0 30 30" fill="none" xmlns="http://www.w3.org/2000/svg"><circle cx="15" cy="15" r="15" fill="#474F60"/><mask id="mask0" style="mask-type:alpha" maskUnits="userSpaceOnUse" x="4" y="4" width="22" height="22"><path d="M22.486 11.059c.113-.368 0-.648-.543-.648h-1.767c-.455 0-.657.236-.77.499 0 0-.902 2.196-2.18 3.631-.42.411-.603.543-.83.543-.114 0-.298-.132-.298-.508V11.06c0-.447-.105-.648-.481-.648h-2.791c-.28 0-.447.21-.447.411 0 .42.657.525.7 1.724v2.608c0 .577-.105.682-.323.682-.595 0-2.065-2.214-2.932-4.734-.175-.49-.34-.69-.796-.69H7.252c-.499 0-.604.235-.604.498 0 .472.604 2.8 2.8 5.88 1.461 2.109 3.526 3.246 5.408 3.246 1.128 0 1.268-.254 1.268-.691v-1.593c0-.498.105-.603.464-.603.263 0 .709.13 1.759 1.137 1.207 1.208 1.4 1.75 2.082 1.75h1.768c.507 0 .761-.254.621-.752-.157-.5-.735-1.225-1.496-2.083-.411-.481-1.033-1.006-1.225-1.277-.263-.333-.184-.482 0-.788 0 0 2.161-3.036 2.389-4.077z" fill="#262B37"/></mask><g mask="url(#mask0)"><path fill="#262B37" d="M0 0h30v30H0z"/></g></svg>