<svg width="154" height="49" viewBox="0 0 154 49" fill="none" xmlns="http://www.w3.org/2000/svg"><path d="M82.924 21.091l-3.822-10.484-3.873 10.484h7.695zm.087-17.357l11.281 27.53h-7.657l-1.818-4.894h-11.53l-1.768 4.894h-7.496l11.244-27.53h7.744zm25.799 28.014c-9.3 0-14.94-5.466-14.94-14.269 0-8.69 5.839-14.194 15.139-14.194 7.496 0 12.763 4.483 13.784 10.745h-6.911c-.784-3.76-3.785-5.39-7.122-5.39-4.196 0-7.446 3.224-7.446 8.84 0 5.814 3.25 8.927 7.533 8.927 3.051 0 6.425-1.22 7.247-5.392h6.91c-1.058 6.375-6.661 10.733-14.194 10.733zm24.778-28.014v17.843l12.675-17.843h6.798v27.53h-6.798V13.42l-12.675 17.843h-6.786V3.734h6.786zM12.401 8.678L0 0v35l12.401-8.678V8.678zm25.189 0v17.644L49.99 35V0l-12.4 8.678zM68.652 46H67.14v-5.878H65.2v-1.26h5.39v1.26h-1.938V46zm22.909 0v-7.15h4.66v1.26h-3.05v1.67h2.44v1.18h-2.44v1.78h3.21V46h-4.82zm25.387 0l2.35-7.15h2.11l2.32 7.15h-1.69l-.49-1.59h-2.59l-.49 1.59h-1.52zm3.31-5.83l-.95 3.09h1.89l-.94-3.09zM144.706 46v-7.15h2.14l1.67 4.45 1.65-4.45h2.1V46h-1.61v-5.02l-1.98 5.02h-.53l-1.99-5.02V46h-1.45z" fill="#333A4A"/></svg>