<svg width="84" height="60" viewBox="0 0 84 60" fill="none" xmlns="http://www.w3.org/2000/svg"><path d="M84 0H0v60h84V0z" fill="#333A4A"/><path d="M20.9 39.1c1.4 0 5-.3 7.6-2.2v1.5h5.3v-6.5l2.2-2.3 4.9 8.8h6.4l-7.4-12.5 7.2-7.9h-6.6l-6.7 7.7V10.8h-5.3v2.4c-1.6-1.7-4.3-3.1-8.4-3.1-8.9 0-10.6 5.4-10.6 8.5 0 4.2 2.2 6.5 6.1 7.4l5.5 1.4c2.9.7 5 1.3 5 3.4 0 2.9-3 3.6-5.8 3.6-5 0-5.8-2.9-5.8-4.5H9.2c0 3.4 1.7 9.2 11.7 9.2zm3.7-16.4L17.9 21c-1.1-.3-2.9-.7-2.9-2.9 0-2.5 2.6-3.3 4.8-3.3 5 0 5.5 2.9 5.6 4.2h3.2v5.1c-1.2-.6-2.6-1.1-4-1.4zM13.8 51.1c-.5 0-1 0-1.3-.1v-1.6c.2.1.4.2.7.2.4 0 .7-.2.9-.5V49l-3.8-7.1h2.3l2.5 5.1 1.9-5.1h2.2l-3.3 7.7c-.2.4-.4.7-.6.9-.2.3-.5.4-.8.6h-.7zm11.1-.1h-1.8v-2.8c-.2.1-.5.2-.9.4s-.8.2-1.2.2c-.7 0-1.3-.2-1.7-.6-.4-.4-.6-1-.6-1.8v-2.3h1.8v2.2c0 .6.4.9 1.2.9.2 0 .5-.1.8-.2.3-.1.5-.2.6-.3V44h1.8v7zm7.5-1.3c0 .4 0 .6.1.8l.3.3v.2h-1.9c-.1-.3-.1-.5-.2-.8-.3.3-.6.5-.9.7-.3.2-.8.3-1.3.3-.4 0-.7-.1-1-.2-.3-.1-.6-.4-.8-.7-.2-.3-.3-.7-.3-1.1 0-.4.1-.8.3-1.1.2-.3.4-.5.7-.7.3-.2.6-.3 1-.3l1.6-.2c.4-.1.6-.2.6-.5s-.1-.5-.3-.6c-.2-.1-.5-.1-.8-.1-.4 0-.7.1-.8.3-.2.2-.2.4-.3.7h-1.7c.1-.7.2-1.2.5-1.5.3-.3.6-.6 1.1-.7.4-.1.9-.2 1.4-.2.4 0 .8.1 1.2.2.4.1.8.3 1.1.6.3.3.4.7.4 1.2v3.4zm-1.7-2c-.2.2-.6.3-1.2.4-.3 0-.5.1-.6.2-.2.1-.3.2-.4.3-.1.1-.2.3-.2.6s.1.5.3.6c.2.1.4.2.6.2.3 0 .5-.1.8-.2.2-.1.4-.3.6-.5.2-.2.2-.4.2-.7v-.9h-.1zm9.1.8c0 .2-.1.5-.2.8-.1.3-.3.6-.5.9-.2.3-.5.5-1 .7-.4.2-.9.3-1.5.3s-1.1-.1-1.5-.3c-.4-.2-.7-.5-1-.8-.2-.3-.4-.7-.5-1.1-.1-.4-.1-.8-.1-1.2 0-.8.1-1.4.3-2 .2-.6.6-1 1.1-1.3.5-.3 1.1-.5 1.9-.5.4 0 .9.1 1.3.2.4.2.8.4 1.1.8.3.4.5.9.6 1.6H38c-.1-.7-.5-1.1-1.2-1.1-.3 0-.6.1-.8.3-.2.2-.4.4-.5.7-.1.3-.1.6-.1.9 0 .4 0 .7.1 1 .1.3.2.6.4.8.2.2.5.4.9.4.3 0 .5-.1.7-.2.2-.1.3-.3.4-.5.1-.2.1-.3.1-.5h1.8v.1zm2.7 2.5v-5.4h-2v-1.4h5.9v1.4h-2V51h-1.9zm11 0h-1.8v-2.7h-2.5V51h-1.8v-6.8h1.8v2.7h2.5v-2.7h1.8V51zm7.7 0h-1.8v-4.1L57 51h-1.9v-6.8h1.8v4.1l2.4-4.1h1.9V51zm3.4 0h-1.8v-6.8h1.8v2.6l2.3-2.6h2.2l-2.4 2.6 2.5 4.2H67l-1.7-2.9-.7.8V51z" fill="#262B37"/></svg>