<svg width="30" height="30" viewBox="0 0 30 30" fill="none" xmlns="http://www.w3.org/2000/svg"><circle cx="15" cy="15" r="15" fill="#474F60"/><mask id="mask0" style="mask-type:alpha" maskUnits="userSpaceOnUse" x="4" y="4" width="22" height="22"><path d="M11.11 6.036h7.35a5.08 5.08 0 015.076 5.075v7.35a5.075 5.075 0 01-5.075 5.075h-7.35a5.079 5.079 0 01-5.075-5.075v-7.35a5.075 5.075 0 015.075-5.075zm-.174 1.75a3.15 3.15 0 00-3.15 3.15v7.7a3.148 3.148 0 003.15 3.15h7.7a3.15 3.15 0 003.15-3.15v-7.7a3.148 3.148 0 00-3.15-3.15h-7.7zM19.38 9.1a1.094 1.094 0 110 2.188 1.094 1.094 0 010-2.188zm-4.594 1.312a4.375 4.375 0 110 8.75 4.375 4.375 0 010-8.75zm0 1.75a2.625 2.625 0 100 5.25 2.625 2.625 0 000-5.25z" fill="#262B37"/></mask><g mask="url(#mask0)"><path fill="#262B37" d="M0 0h30v30H0z"/></g></svg>