<svg width="130" height="26" viewBox="0 0 130 26" fill="none" xmlns="http://www.w3.org/2000/svg"><path d="M100.881 25.73l-9.435-8.162c2.987-.082 4.455-.46 5.95-1.298 2.122-1.162 3.302-3.648 3.302-6.243 0-3.19-.97-5.73-3.224-7.46C95.429 1 92.939.352 87.934.352h-17.64V25.73h5.95V13.027L90.948 25.73h9.933zM76.244 12.973V7.405H89.61c2.254 0 3.302.136 4.115.649.681.46 1.074 1.27 1.074 2.135 0 .811-.34 1.649-1.074 2.162-.655.433-1.39.649-2.936.649H76.244v-.027zM63.349 3.216C60.989 1.081 58.264.054 49.327.054c-8.938 0-11.664 1.027-14.023 3.162-2.096 1.892-3.119 5.027-3.119 9.811s1.023 7.919 3.12 9.81C37.662 24.974 40.388 26 49.326 26c8.937 0 11.663-1.027 14.022-3.162 2.097-1.892 3.119-5.027 3.119-9.811s-1.022-7.919-3.12-9.81zm-4.875 14.216c-1.547 1-3.643 1.541-9.174 1.541-5.53 0-7.6-.54-9.173-1.54-1.651-1.055-2.07-2.406-2.07-4.406 0-2 .419-3.351 2.07-4.405 1.546-1 3.643-1.54 9.173-1.54s7.601.54 9.174 1.54c1.651 1.054 2.07 2.405 2.07 4.405 0 2-.419 3.351-2.07 4.405zM17.14 18.973c-5.504 0-7.6-.54-9.173-1.54-1.625-1.055-2.07-2.406-2.07-4.406 0-2 .445-3.351 2.07-4.405 1.546-1 3.67-1.54 9.173-1.54 4.823 0 9.226.486 11.244.972l1.337-6.081C27.022.892 21.806 0 16.643 0 7.863 0 5.452 1.027 3.12 3.162 1.022 5.054 0 8.19 0 12.973s1.022 7.919 3.119 9.81c2.359 2.136 4.77 3.163 13.524 3.163 5.137 0 10.38-.892 13.079-1.973l-1.337-6.081c-2.044.567-6.448 1.081-11.244 1.081zm112.178-3.73v-4.405h-18.95l5.137 4.405h13.813zM130 7.378V.324h-25.554V25.73H130v-7.054h-19.605V7.378H130z" fill="#262B37"/></svg>