<svg width="619" height="34" viewBox="0 0 619 34" fill="none" xmlns="http://www.w3.org/2000/svg"><path d="M21.095.611A.5.5 0 0121.41.5h594.76a.5.5 0 01.315.889l-18.579 15a.5.5 0 01-.314.111H2.831a.5.5 0 01-.315-.889l18.58-15z" fill="#EBF5FF" stroke="#C7E2FF"/><path d="M2.5 16a.5.5 0 01.5-.5h595a.5.5 0 01.5.5v17a.5.5 0 01-.5.5H3a.5.5 0 01-.5-.5V16z" fill="#EBF5FF" stroke="#C7E2FF"/><path d="M598.551 16.47L617.162.965l.006 15.569a.998.998 0 01-.329.742l-18.214 16.502-.074-17.308z" fill="#C7E2FF"/></svg>