<svg width="619" height="34" viewBox="0 0 619 34" fill="none" xmlns="http://www.w3.org/2000/svg">
<path d="M21.0954 0.610968C21.1843 0.539163 21.2951 0.5 21.4094 0.5H616.169C616.641 0.5 616.85 1.09283 616.484 1.38903L597.905 16.389C597.816 16.4608 597.705 16.5 597.591 16.5H2.83051C2.35897 16.5 2.14955 15.9072 2.5164 15.611L21.0954 0.610968Z" fill="#EBF5FF" stroke="#C7E2FF"/>
<path d="M2.5 16C2.5 15.7239 2.72386 15.5 3 15.5H598C598.276 15.5 598.5 15.7239 598.5 16V33C598.5 33.2761 598.276 33.5 598 33.5H3.00002C2.72386 33.5 2.5 33.2761 2.5 33V16Z" fill="#EBF5FF" stroke="#C7E2FF"/>
<path d="M598.551 16.4697L617.162 0.964844L617.168 16.534C617.168 16.8165 617.049 17.0858 616.839 17.2755L598.625 33.7775L598.551 16.4697Z" fill="#C7E2FF"/>
</svg>
