<svg width="151" height="196" viewBox="0 0 151 196" fill="none" xmlns="http://www.w3.org/2000/svg"><rect width="2.858" height="2.858" rx="1.429" transform="rotate(30.72 15.073 288.304)" fill="#E2E7EE"/><rect width="2.858" height="2.858" rx="1.429" transform="rotate(30.72 1.201 284.494)" fill="#E2E7EE"/><rect width="2.858" height="2.858" rx="1.429" transform="rotate(30.72 -2.609 298.369) skewX(-.001)" fill="#E2E7EE"/><rect width="2.858" height="2.858" rx="1.429" transform="rotate(30.72 -12.67 280.684)" fill="#E2E7EE"/><rect width="2.858" height="2.858" rx="1.429" transform="rotate(30.72 -16.48 294.556)" fill="#E2E7EE"/><rect width="2.858" height="2.858" rx="1.429" transform="rotate(30.72 -26.54 276.873)" fill="#E2E7EE"/><rect width="2.858" height="2.858" rx="1.429" transform="rotate(30.72 -30.35 290.746)" fill="#E2E7EE"/><rect width="2.858" height="2.858" rx="1.429" transform="rotate(30.72 -34.162 304.617)" fill="#E2E7EE"/><rect width="2.858" height="2.858" rx="1.429" transform="rotate(30.72 -40.41 273.065)" fill="#E2E7EE"/><rect x="140.374" y="62.855" width="2.858" height="2.858" rx="1.429" transform="rotate(30.72 140.374 62.855)" fill="#E2E7EE"/><rect x="146.925" y="66.748" width="2.858" height="2.858" rx="1.429" transform="rotate(30.72 146.925 66.748)" fill="#E2E7EE"/><rect width="2.858" height="2.858" rx="1.429" transform="rotate(30.72 -54.283 269.253)" fill="#E2E7EE"/><rect x="136.481" y="69.407" width="2.858" height="2.858" rx="1.429" transform="rotate(30.72 136.481 69.407)" fill="#E2E7EE"/><rect x="143.032" y="73.299" width="2.858" height="2.858" rx="1.429" transform="rotate(30.72 143.032 73.3)" fill="#E2E7EE"/><rect x="149.583" y="77.192" width="2.858" height="2.858" rx="1.429" transform="rotate(30.72 149.583 77.192)" fill="#E2E7EE"/><rect x="126.037" y="72.065" width="2.858" height="2.858" rx="1.429" transform="rotate(30.72 126.037 72.065)" fill="#E2E7EE"/><rect width="2.858" height="2.858" rx="1.429" transform="rotate(30.72 -71.964 279.316)" fill="#E2E7EE"/><rect width="2.858" height="2.858" rx="1.429" transform="rotate(30.72 -75.775 293.186)" fill="#E2E7EE"/><rect width="2.858" height="2.858" rx="1.429" transform="rotate(30.72 -79.586 307.057)" fill="#E2E7EE"/><rect x="152.242" y="87.637" width="2.858" height="2.858" rx="1.429" transform="rotate(30.72 152.242 87.637)" fill="#E2E7EE"/><rect x="122.143" y="78.616" width="2.858" height="2.858" rx="1.429" transform="rotate(30.72 122.143 78.616)" fill="#E2E7EE"/><rect x="128.695" y="82.509" width="2.858" height="2.858" rx="1.429" transform="rotate(30.72 128.695 82.509)" fill="#E2E7EE"/><rect width="2.858" height="2.858" rx="1.429" transform="rotate(30.72 -89.647 289.376)" fill="#E2E7EE"/><rect x="141.797" y="90.295" width="2.858" height="2.858" rx="1.429" transform="rotate(30.72 141.797 90.295)" fill="#E2E7EE"/><rect x="148.349" y="94.188" width="2.858" height="2.858" rx="1.429" transform="rotate(30.72 148.349 94.188)" fill="#E2E7EE"/><rect x="118.25" y="85.167" width="2.858" height="2.858" rx="1.429" transform="rotate(30.72 118.25 85.167)" fill="#E2E7EE"/><rect x="124.802" y="89.061" width="2.858" height="2.858" rx="1.429" transform="rotate(30.72 124.802 89.06)" fill="#E2E7EE"/><rect x="131.353" y="92.954" width="2.858" height="2.858" rx="1.429" transform="rotate(30.72 131.353 92.954)" fill="#E2E7EE"/><rect x="137.904" y="96.846" width="2.858" height="2.858" rx="1.429" transform="rotate(30.72 137.904 96.846)" fill="#E2E7EE"/><rect x="144.456" y="100.739" width="2.858" height="2.858" rx="1.429" transform="rotate(30.72 144.456 100.739)" fill="#E2E7EE"/><rect x="151.007" y="104.632" width="2.858" height="2.858" rx="1.429" transform="rotate(30.72 151.007 104.632)" fill="#E2E7EE"/><rect x="114.357" y="91.719" width="2.858" height="2.858" rx="1.429" transform="rotate(30.72 114.357 91.719)" fill="#E2E7EE"/><rect x="120.909" y="95.612" width="2.858" height="2.858" rx="1.429" transform="rotate(30.72 120.909 95.612)" fill="#E2E7EE"/><rect width="2.858" height="2.858" rx="1.429" transform="rotate(30.72 -117.388 281.754)" fill="#E2E7EE"/><rect width="2.858" height="2.858" rx="1.429" transform="rotate(30.72 -121.198 295.625)" fill="#E2E7EE"/><rect width="2.858" height="2.858" rx="1.429" transform="rotate(30.72 -125.01 309.498)" fill="#E2E7EE"/><rect width="2.858" height="2.858" rx="1.429" transform="rotate(30.72 -128.82 323.37)" fill="#E2E7EE"/><rect x="110.464" y="98.27" width="2.858" height="2.858" rx="1.429" transform="rotate(30.72 110.464 98.27)" fill="#E2E7EE"/><rect width="2.858" height="2.858" rx="1.429" transform="rotate(30.72 -127.45 264.074)" fill="#E2E7EE"/><rect width="2.858" height="2.858" rx="1.429" transform="rotate(30.72 -131.26 277.945)" fill="#E2E7EE"/><rect width="2.858" height="2.858" rx="1.429" transform="rotate(30.72 -135.07 291.815)" fill="#E2E7EE"/><rect x="136.67" y="113.842" width="2.858" height="2.858" rx="1.429" transform="rotate(30.72 136.67 113.842)" fill="#E2E7EE"/><rect width="2.858" height="2.858" rx="1.429" transform="rotate(30.72 -142.69 319.559)" fill="#E2E7EE"/><rect width="2.858" height="2.858" rx="1.429" transform="rotate(30.72 -146.501 333.43)" fill="#E2E7EE"/><rect x="106.571" y="104.821" width="2.858" height="2.858" rx="1.429" transform="rotate(30.72 106.571 104.821)" fill="#E2E7EE"/><rect width="2.858" height="2.858" rx="1.429" transform="rotate(30.72 -141.32 260.264)" fill="#E2E7EE"/><rect width="2.858" height="2.858" rx="1.429" transform="rotate(30.72 -145.13 274.134)" fill="#E2E7EE"/><rect x="126.225" y="116.5" width="2.858" height="2.858" rx="1.429" transform="rotate(30.72 126.225 116.5)" fill="#E2E7EE"/><rect width="2.858" height="2.858" rx="1.429" transform="rotate(30.72 -152.751 301.877)" fill="#E2E7EE"/><rect x="139.328" y="124.286" width="2.858" height="2.858" rx="1.429" transform="rotate(30.72 139.328 124.286)" fill="#E2E7EE"/><rect width="2.858" height="2.858" rx="1.429" transform="rotate(30.72 -160.374 329.62)" fill="#E2E7EE"/><rect width="2.858" height="2.858" rx="1.429" transform="rotate(30.72 -164.182 343.491)" fill="#E2E7EE"/><rect x="102.678" y="111.372" width="2.858" height="2.858" rx="1.429" transform="rotate(30.72 102.678 111.372)" fill="#E2E7EE"/><rect x="109.23" y="115.266" width="2.858" height="2.858" rx="1.429" transform="rotate(30.72 109.23 115.266)" fill="#E2E7EE"/><rect x="115.781" y="119.159" width="2.858" height="2.858" rx="1.429" transform="rotate(30.72 115.781 119.159)" fill="#E2E7EE"/><rect x="122.332" y="123.051" width="2.858" height="2.858" rx="1.429" transform="rotate(30.72 122.332 123.051)" fill="#E2E7EE"/><rect x="128.884" y="126.944" width="2.858" height="2.858" rx="1.429" transform="rotate(30.72 128.884 126.944)" fill="#E2E7EE"/><rect x="135.435" y="130.838" width="2.858" height="2.858" rx="1.429" transform="rotate(30.72 135.435 130.838)" fill="#E2E7EE"/><rect width="2.858" height="2.858" rx="1.429" transform="rotate(30.72 -174.243 325.808)" fill="#E2E7EE"/><rect width="2.858" height="2.858" rx="1.429" transform="rotate(30.72 -178.055 339.68)" fill="#E2E7EE"/><rect x="98.785" y="117.924" width="2.858" height="2.858" rx="1.429" transform="rotate(30.72 98.785 117.924)" fill="#E2E7EE"/><rect x="105.337" y="121.817" width="2.858" height="2.858" rx="1.429" transform="rotate(30.72 105.337 121.817)" fill="#E2E7EE"/><rect width="2.858" height="2.858" rx="1.429" transform="rotate(30.72 -172.872 266.513)" fill="#E2E7EE"/><rect width="2.858" height="2.858" rx="1.429" transform="rotate(30.72 -176.684 280.384)" fill="#E2E7EE"/><rect x="124.991" y="133.496" width="2.858" height="2.858" rx="1.429" transform="rotate(30.72 124.991 133.496)" fill="#E2E7EE"/><rect width="2.858" height="2.858" rx="1.429" transform="rotate(30.72 -184.305 308.127)" fill="#E2E7EE"/><rect width="2.858" height="2.858" rx="1.429" transform="rotate(30.72 -188.115 321.998)" fill="#E2E7EE"/><rect x="144.645" y="145.175" width="2.858" height="2.858" rx="1.429" transform="rotate(30.72 144.645 145.175)" fill="#E2E7EE"/><rect x="151.196" y="149.067" width="2.858" height="2.858" rx="1.429" transform="rotate(30.72 151.196 149.067)" fill="#E2E7EE"/><rect x="94.892" y="124.475" width="2.858" height="2.858" rx="1.429" transform="rotate(30.72 94.892 124.475)" fill="#E2E7EE"/><rect x="101.444" y="128.368" width="2.858" height="2.858" rx="1.429" transform="rotate(30.72 101.444 128.368)" fill="#E2E7EE"/><rect width="2.858" height="2.858" rx="1.429" transform="rotate(30.72 -186.744 262.703)" fill="#E2E7EE"/><rect x="114.546" y="136.154" width="2.858" height="2.858" rx="1.429" transform="rotate(30.72 114.546 136.154)" fill="#E2E7EE"/><rect x="121.097" y="140.047" width="2.858" height="2.858" rx="1.429" transform="rotate(30.72 121.097 140.047)" fill="#E2E7EE"/><rect width="2.858" height="2.858" rx="1.429" transform="rotate(30.72 -198.175 304.317)" fill="#E2E7EE"/><rect x="134.2" y="147.833" width="2.858" height="2.858" rx="1.429" transform="rotate(30.72 134.2 147.833)" fill="#E2E7EE"/><rect width="2.858" height="2.858" rx="1.429" transform="rotate(30.72 -205.798 332.059)" fill="#E2E7EE"/><rect x="147.303" y="155.619" width="2.858" height="2.858" rx="1.429" transform="rotate(30.72 147.303 155.619)" fill="#E2E7EE"/><rect width="2.858" height="2.858" rx="1.429" transform="rotate(30.72 -192.994 231.15)" fill="#E2E7EE"/><rect width="2.858" height="2.858" rx="1.429" transform="rotate(30.72 -196.804 245.021)" fill="#E2E7EE"/><rect width="2.858" height="2.858" rx="1.429" transform="rotate(30.72 -200.615 258.893)" fill="#E2E7EE"/><rect x="110.653" y="142.706" width="2.858" height="2.858" rx="1.429" transform="rotate(30.72 110.653 142.706)" fill="#E2E7EE"/><rect x="117.205" y="146.598" width="2.858" height="2.858" rx="1.429" transform="rotate(30.72 117.205 146.598)" fill="#E2E7EE"/><rect width="2.858" height="2.858" rx="1.429" transform="rotate(30.72 -212.046 300.506)" fill="#E2E7EE"/><rect width="2.858" height="2.858" rx="1.429" transform="rotate(30.72 -215.858 314.377)" fill="#E2E7EE"/><rect x="136.858" y="158.277" width="2.858" height="2.858" rx="1.429" transform="rotate(30.72 136.858 158.277)" fill="#E2E7EE"/><rect x="143.41" y="162.17" width="2.858" height="2.858" rx="1.429" transform="rotate(30.72 143.41 162.17)" fill="#E2E7EE"/><rect width="2.858" height="2.858" rx="1.429" transform="rotate(30.72 -227.288 355.99)" fill="#E2E7EE"/><rect x="87.106" y="137.578" width="2.858" height="2.858" rx="1.429" transform="rotate(30.72 87.106 137.578)" fill="#E2E7EE"/><rect width="2.858" height="2.858" rx="1.429" transform="rotate(30.72 -210.673 241.209)" fill="#E2E7EE"/><rect x="100.209" y="145.364" width="2.858" height="2.858" rx="1.429" transform="rotate(30.72 100.209 145.364)" fill="#E2E7EE"/><rect x="106.76" y="149.257" width="2.858" height="2.858" rx="1.429" transform="rotate(30.72 106.76 149.257)" fill="#E2E7EE"/><rect x="113.312" y="153.149" width="2.858" height="2.858" rx="1.429" transform="rotate(30.72 113.312 153.149)" fill="#E2E7EE"/><rect width="2.858" height="2.858" rx="1.429" transform="rotate(30.72 -225.918 296.696)" fill="#E2E7EE"/><rect x="126.414" y="160.936" width="2.858" height="2.858" rx="1.429" transform="rotate(30.72 126.414 160.936)" fill="#E2E7EE"/><rect x="132.966" y="164.829" width="2.858" height="2.858" rx="1.429" transform="rotate(30.72 132.966 164.829)" fill="#E2E7EE"/><rect x="139.517" y="168.722" width="2.858" height="2.858" rx="1.429" transform="rotate(30.72 139.517 168.722)" fill="#E2E7EE"/><rect x="146.068" y="172.614" width="2.858" height="2.858" rx="1.429" transform="rotate(30.72 146.068 172.614)" fill="#E2E7EE"/><rect x="83.213" y="144.129" width="2.858" height="2.858" rx="1.429" transform="rotate(30.72 83.213 144.129)" fill="#E2E7EE"/><rect width="2.858" height="2.858" rx="1.429" transform="rotate(30.72 -224.547 237.4)" fill="#E2E7EE"/><rect width="2.858" height="2.858" rx="1.429" transform="rotate(30.72 -228.358 251.272)" fill="#E2E7EE"/><rect width="2.858" height="2.858" rx="1.429" transform="rotate(30.72 -232.168 265.143)" fill="#E2E7EE"/><rect width="2.858" height="2.858" rx="1.429" transform="rotate(30.72 -235.978 279.015)" fill="#E2E7EE"/><rect x="115.97" y="163.594" width="2.858" height="2.858" rx="1.429" transform="rotate(30.72 115.97 163.594)" fill="#E2E7EE"/><rect width="2.858" height="2.858" rx="1.429" transform="rotate(30.72 -243.6 306.756)" fill="#E2E7EE"/><rect width="2.858" height="2.858" rx="1.429" transform="rotate(30.72 -247.41 320.627)" fill="#E2E7EE"/><rect x="135.624" y="175.273" width="2.858" height="2.858" rx="1.429" transform="rotate(30.72 135.624 175.273)" fill="#E2E7EE"/><rect width="2.858" height="2.858" rx="1.429" transform="rotate(30.72 -255.03 348.37)" fill="#E2E7EE"/><rect width="2.858" height="2.858" rx="1.429" transform="rotate(30.72 -258.841 362.24)" fill="#E2E7EE"/><rect width="2.858" height="2.858" rx="1.429" transform="rotate(30.72 -234.608 219.72)" fill="#E2E7EE"/><rect x="85.872" y="154.573" width="2.858" height="2.858" rx="1.429" transform="rotate(30.72 85.872 154.573)" fill="#E2E7EE"/><rect x="92.423" y="158.466" width="2.858" height="2.858" rx="1.429" transform="rotate(30.72 92.423 158.466)" fill="#E2E7EE"/><rect width="2.858" height="2.858" rx="1.429" transform="rotate(30.72 -246.039 261.333)" fill="#E2E7EE"/><rect x="105.526" y="166.252" width="2.858" height="2.858" rx="1.429" transform="rotate(30.72 105.526 166.252)" fill="#E2E7EE"/><rect width="2.858" height="2.858" rx="1.429" transform="rotate(30.72 -253.66 289.075)" fill="#E2E7EE"/><rect width="2.858" height="2.858" rx="1.429" transform="rotate(30.72 -257.47 302.946)" fill="#E2E7EE"/><rect width="2.858" height="2.858" rx="1.429" transform="rotate(30.72 -261.282 316.819)" fill="#E2E7EE"/><rect width="2.858" height="2.858" rx="1.429" transform="rotate(30.72 -265.09 330.689)" fill="#E2E7EE"/><rect x="138.282" y="185.717" width="2.858" height="2.858" rx="1.429" transform="rotate(30.72 138.282 185.717)" fill="#E2E7EE"/><rect x="144.833" y="189.61" width="2.858" height="2.858" rx="1.429" transform="rotate(30.72 144.833 189.61)" fill="#E2E7EE"/><rect width="2.858" height="2.858" rx="1.429" transform="rotate(30.72 -276.522 372.303)" fill="#E2E7EE"/><rect x="75.427" y="157.231" width="2.858" height="2.858" rx="1.429" transform="rotate(30.72 75.427 157.231)" fill="#E2E7EE"/><rect width="2.858" height="2.858" rx="1.429" transform="rotate(30.72 -252.29 229.78)" fill="#E2E7EE"/><rect width="2.858" height="2.858" rx="1.429" transform="rotate(30.72 -256.101 243.651)" fill="#E2E7EE"/><rect width="2.858" height="2.858" rx="1.429" transform="rotate(30.72 -259.911 257.522)" fill="#E2E7EE"/><rect width="2.858" height="2.858" rx="1.429" transform="rotate(30.72 -263.722 271.395)" fill="#E2E7EE"/><rect width="2.858" height="2.858" rx="1.429" transform="rotate(30.72 -267.53 285.265)" fill="#E2E7EE"/><rect x="114.735" y="180.59" width="2.858" height="2.858" rx="1.429" transform="rotate(30.72 114.735 180.59)" fill="#E2E7EE"/><rect width="2.858" height="2.858" rx="1.429" transform="rotate(30.72 -275.151 313.006)" fill="#E2E7EE"/><rect x="127.838" y="188.375" width="2.858" height="2.858" rx="1.429" transform="rotate(30.72 127.838 188.375)" fill="#E2E7EE"/><rect x="134.389" y="192.269" width="2.858" height="2.858" rx="1.429" transform="rotate(30.72 134.389 192.269)" fill="#E2E7EE"/><rect width="2.858" height="2.858" rx="1.429" transform="rotate(30.72 -262.346 212.096)" fill="#E2E7EE"/><rect x="78.086" y="167.676" width="2.858" height="2.858" rx="1.429" transform="rotate(30.72 78.086 167.676)" fill="#E2E7EE"/><rect x="84.637" y="171.569" width="2.858" height="2.858" rx="1.429" transform="rotate(30.72 84.637 171.569)" fill="#E2E7EE"/><rect x="91.188" y="175.462" width="2.858" height="2.858" rx="1.429" transform="rotate(30.72 91.188 175.462)" fill="#E2E7EE"/><rect x="97.74" y="179.354" width="2.858" height="2.858" rx="1.429" transform="rotate(30.72 97.74 179.354)" fill="#E2E7EE"/><rect width="2.858" height="2.858" rx="1.429" transform="rotate(30.72 -281.397 281.452)" fill="#E2E7EE"/><rect x="110.842" y="187.141" width="2.858" height="2.858" rx="1.429" transform="rotate(30.72 110.842 187.141)" fill="#E2E7EE"/><rect width="2.858" height="2.858" rx="1.429" transform="rotate(30.721 -289.016 309.191) skewX(.001)" fill="#E2E7EE"/><rect x="123.945" y="194.927" width="2.858" height="2.858" rx="1.429" transform="rotate(30.72 123.945 194.927)" fill="#E2E7EE"/><rect width="2.858" height="2.858" rx="1.429" transform="rotate(30.72 -276.221 208.288)" fill="#E2E7EE"/><rect x="74.193" y="174.227" width="2.858" height="2.858" rx="1.429" transform="rotate(30.72 74.193 174.227)" fill="#E2E7EE"/><rect width="2.858" height="2.858" rx="1.429" transform="rotate(30.72 -283.842 236.03)" fill="#E2E7EE"/><rect x="87.295" y="182.013" width="2.858" height="2.858" rx="1.429" transform="rotate(30.72 87.295 182.013)" fill="#E2E7EE"/><rect x="93.846" y="185.906" width="2.858" height="2.858" rx="1.429" transform="rotate(30.72 93.846 185.906)" fill="#E2E7EE"/><rect width="2.858" height="2.858" rx="1.429" transform="rotate(30.72 -295.273 277.644)" fill="#E2E7EE"/><rect width="2.858" height="2.858" rx="1.429" transform="rotate(30.72 -299.084 291.515)" fill="#E2E7EE"/><rect x="63.748" y="176.885" width="2.858" height="2.858" rx="1.429" transform="rotate(30.72 63.748 176.885)" fill="#E2E7EE"/><rect width="2.858" height="2.858" rx="1.429" transform="rotate(30.72 -293.903 218.348)" fill="#E2E7EE"/><rect width="2.858" height="2.858" rx="1.429" transform="rotate(30.72 -297.715 232.22)" fill="#E2E7EE"/><rect x="83.402" y="188.564" width="2.858" height="2.858" rx="1.429" transform="rotate(30.72 83.402 188.564)" fill="#E2E7EE"/><rect width="2.858" height="2.858" rx="1.429" transform="rotate(30.72 -305.335 259.963)" fill="#E2E7EE"/><rect x="59.855" y="183.437" width="2.858" height="2.858" rx="1.429" transform="rotate(30.72 59.855 183.437)" fill="#E2E7EE"/><rect width="2.858" height="2.858" rx="1.429" transform="rotate(30.72 -307.775 214.539)" fill="#E2E7EE"/><rect width="2.858" height="2.858" rx="1.429" transform="rotate(30.72 -311.585 228.41)" fill="#E2E7EE"/><rect width="2.858" height="2.858" rx="1.429" transform="rotate(30.72 -315.396 242.28)" fill="#E2E7EE"/><rect x="55.962" y="189.988" width="2.858" height="2.858" rx="1.429" transform="rotate(30.72 55.962 189.988)" fill="#E2E7EE"/><rect x="62.514" y="193.881" width="2.858" height="2.858" rx="1.429" transform="rotate(30.72 62.514 193.881)" fill="#E2E7EE"/></svg>