<svg width="151" height="196" viewBox="0 0 151 196" fill="none" xmlns="http://www.w3.org/2000/svg">
<rect width="2.85776" height="2.85776" rx="1.42888" transform="matrix(0.859673 0.510845 -0.510848 0.859671 149.394 32.7568)" fill="#E2E7EE"/>
<rect width="2.85776" height="2.85776" rx="1.42888" transform="matrix(0.859673 0.510845 -0.510848 0.859671 145.501 39.3086)" fill="#E2E7EE"/>
<rect width="2.85776" height="2.85776" rx="1.42888" transform="matrix(0.859675 0.510841 -0.510852 0.859669 152.053 43.2012)" fill="#E2E7EE"/>
<rect width="2.85776" height="2.85776" rx="1.42888" transform="matrix(0.859673 0.510845 -0.510848 0.859671 141.608 45.8599)" fill="#E2E7EE"/>
<rect width="2.85776" height="2.85776" rx="1.42888" transform="matrix(0.859673 0.510845 -0.510848 0.859671 148.16 49.7524)" fill="#E2E7EE"/>
<rect width="2.85776" height="2.85776" rx="1.42888" transform="matrix(0.859673 0.510845 -0.510848 0.859671 137.715 52.4106)" fill="#E2E7EE"/>
<rect width="2.85776" height="2.85776" rx="1.42888" transform="matrix(0.859673 0.510845 -0.510848 0.859671 144.267 56.3037)" fill="#E2E7EE"/>
<rect width="2.85776" height="2.85776" rx="1.42888" transform="matrix(0.859673 0.510845 -0.510848 0.859671 150.818 60.1973)" fill="#E2E7EE"/>
<rect width="2.85776" height="2.85776" rx="1.42888" transform="matrix(0.859673 0.510845 -0.510848 0.859671 133.823 58.9619)" fill="#E2E7EE"/>
<rect x="140.374" y="62.8555" width="2.85776" height="2.85776" rx="1.42888" transform="rotate(30.7202 140.374 62.8555)" fill="#E2E7EE"/>
<rect x="146.925" y="66.748" width="2.85776" height="2.85776" rx="1.42888" transform="rotate(30.7202 146.925 66.748)" fill="#E2E7EE"/>
<rect width="2.85776" height="2.85776" rx="1.42888" transform="matrix(0.859673 0.510845 -0.510848 0.859671 129.929 65.5137)" fill="#E2E7EE"/>
<rect x="136.481" y="69.4067" width="2.85776" height="2.85776" rx="1.42888" transform="rotate(30.7202 136.481 69.4067)" fill="#E2E7EE"/>
<rect x="143.032" y="73.2993" width="2.85776" height="2.85776" rx="1.42888" transform="rotate(30.7202 143.032 73.2993)" fill="#E2E7EE"/>
<rect x="149.583" y="77.1924" width="2.85776" height="2.85776" rx="1.42888" transform="rotate(30.7202 149.583 77.1924)" fill="#E2E7EE"/>
<rect x="126.037" y="72.0649" width="2.85776" height="2.85776" rx="1.42888" transform="rotate(30.7202 126.037 72.0649)" fill="#E2E7EE"/>
<rect width="2.85776" height="2.85776" rx="1.42888" transform="matrix(0.859674 0.510843 -0.51085 0.85967 132.588 75.9575)" fill="#E2E7EE"/>
<rect width="2.85776" height="2.85776" rx="1.42888" transform="matrix(0.859674 0.510843 -0.51085 0.85967 139.139 79.8506)" fill="#E2E7EE"/>
<rect width="2.85776" height="2.85776" rx="1.42888" transform="matrix(0.859674 0.510844 -0.510849 0.85967 145.69 83.7441)" fill="#E2E7EE"/>
<rect x="152.242" y="87.6367" width="2.85776" height="2.85776" rx="1.42888" transform="rotate(30.7202 152.242 87.6367)" fill="#E2E7EE"/>
<rect x="122.143" y="78.6157" width="2.85776" height="2.85776" rx="1.42888" transform="rotate(30.7202 122.143 78.6157)" fill="#E2E7EE"/>
<rect x="128.695" y="82.5088" width="2.85776" height="2.85776" rx="1.42888" transform="rotate(30.7202 128.695 82.5088)" fill="#E2E7EE"/>
<rect width="2.85776" height="2.85776" rx="1.42888" transform="matrix(0.859674 0.510843 -0.51085 0.85967 135.246 86.4023)" fill="#E2E7EE"/>
<rect x="141.797" y="90.2949" width="2.85776" height="2.85776" rx="1.42888" transform="rotate(30.7202 141.797 90.2949)" fill="#E2E7EE"/>
<rect x="148.349" y="94.188" width="2.85776" height="2.85776" rx="1.42888" transform="rotate(30.7202 148.349 94.188)" fill="#E2E7EE"/>
<rect x="118.25" y="85.167" width="2.85776" height="2.85776" rx="1.42888" transform="rotate(30.7202 118.25 85.167)" fill="#E2E7EE"/>
<rect x="124.802" y="89.0605" width="2.85776" height="2.85776" rx="1.42888" transform="rotate(30.7202 124.802 89.0605)" fill="#E2E7EE"/>
<rect x="131.353" y="92.9536" width="2.85776" height="2.85776" rx="1.42888" transform="rotate(30.7202 131.353 92.9536)" fill="#E2E7EE"/>
<rect x="137.904" y="96.8462" width="2.85776" height="2.85776" rx="1.42888" transform="rotate(30.7202 137.904 96.8462)" fill="#E2E7EE"/>
<rect x="144.456" y="100.739" width="2.85776" height="2.85776" rx="1.42888" transform="rotate(30.7202 144.456 100.739)" fill="#E2E7EE"/>
<rect x="151.007" y="104.632" width="2.85776" height="2.85776" rx="1.42888" transform="rotate(30.7202 151.007 104.632)" fill="#E2E7EE"/>
<rect x="114.357" y="91.7188" width="2.85776" height="2.85776" rx="1.42888" transform="rotate(30.7202 114.357 91.7188)" fill="#E2E7EE"/>
<rect x="120.909" y="95.6118" width="2.85776" height="2.85776" rx="1.42888" transform="rotate(30.7202 120.909 95.6118)" fill="#E2E7EE"/>
<rect width="2.85776" height="2.85776" rx="1.42888" transform="matrix(0.859674 0.510844 -0.510849 0.85967 127.46 99.5044)" fill="#E2E7EE"/>
<rect width="2.85776" height="2.85776" rx="1.42888" transform="matrix(0.859674 0.510843 -0.51085 0.85967 134.011 103.397)" fill="#E2E7EE"/>
<rect width="2.85776" height="2.85776" rx="1.42888" transform="matrix(0.859674 0.510843 -0.51085 0.85967 140.563 107.291)" fill="#E2E7EE"/>
<rect width="2.85776" height="2.85776" rx="1.42888" transform="matrix(0.859674 0.510843 -0.51085 0.85967 147.114 111.184)" fill="#E2E7EE"/>
<rect x="110.464" y="98.27" width="2.85776" height="2.85776" rx="1.42888" transform="rotate(30.7202 110.464 98.27)" fill="#E2E7EE"/>
<rect width="2.85776" height="2.85776" rx="1.42888" transform="matrix(0.859674 0.510844 -0.510849 0.85967 117.016 102.163)" fill="#E2E7EE"/>
<rect width="2.85776" height="2.85776" rx="1.42888" transform="matrix(0.859674 0.510843 -0.51085 0.85967 123.567 106.056)" fill="#E2E7EE"/>
<rect width="2.85776" height="2.85776" rx="1.42888" transform="matrix(0.859674 0.510843 -0.51085 0.85967 130.118 109.949)" fill="#E2E7EE"/>
<rect x="136.67" y="113.842" width="2.85776" height="2.85776" rx="1.42888" transform="rotate(30.7202 136.67 113.842)" fill="#E2E7EE"/>
<rect width="2.85776" height="2.85776" rx="1.42888" transform="matrix(0.859674 0.510843 -0.51085 0.85967 143.221 117.735)" fill="#E2E7EE"/>
<rect width="2.85776" height="2.85776" rx="1.42888" transform="matrix(0.859674 0.510843 -0.51085 0.85967 149.772 121.628)" fill="#E2E7EE"/>
<rect x="106.571" y="104.821" width="2.85776" height="2.85776" rx="1.42888" transform="rotate(30.7202 106.571 104.821)" fill="#E2E7EE"/>
<rect width="2.85776" height="2.85776" rx="1.42888" transform="matrix(0.859674 0.510843 -0.51085 0.85967 113.123 108.714)" fill="#E2E7EE"/>
<rect width="2.85776" height="2.85776" rx="1.42888" transform="matrix(0.859674 0.510843 -0.51085 0.85967 119.674 112.607)" fill="#E2E7EE"/>
<rect x="126.225" y="116.5" width="2.85776" height="2.85776" rx="1.42888" transform="rotate(30.7202 126.225 116.5)" fill="#E2E7EE"/>
<rect width="2.85776" height="2.85776" rx="1.42888" transform="matrix(0.859674 0.510843 -0.51085 0.85967 132.777 120.393)" fill="#E2E7EE"/>
<rect x="139.328" y="124.286" width="2.85776" height="2.85776" rx="1.42888" transform="rotate(30.7202 139.328 124.286)" fill="#E2E7EE"/>
<rect width="2.85776" height="2.85776" rx="1.42888" transform="matrix(0.859674 0.510843 -0.51085 0.85967 145.879 128.18)" fill="#E2E7EE"/>
<rect width="2.85776" height="2.85776" rx="1.42888" transform="matrix(0.859674 0.510843 -0.51085 0.85967 152.431 132.072)" fill="#E2E7EE"/>
<rect x="102.678" y="111.372" width="2.85776" height="2.85776" rx="1.42888" transform="rotate(30.7202 102.678 111.372)" fill="#E2E7EE"/>
<rect x="109.23" y="115.266" width="2.85776" height="2.85776" rx="1.42888" transform="rotate(30.7202 109.23 115.266)" fill="#E2E7EE"/>
<rect x="115.781" y="119.159" width="2.85776" height="2.85776" rx="1.42888" transform="rotate(30.7202 115.781 119.159)" fill="#E2E7EE"/>
<rect x="122.332" y="123.051" width="2.85776" height="2.85776" rx="1.42888" transform="rotate(30.7202 122.332 123.051)" fill="#E2E7EE"/>
<rect x="128.884" y="126.944" width="2.85776" height="2.85776" rx="1.42888" transform="rotate(30.7202 128.884 126.944)" fill="#E2E7EE"/>
<rect x="135.435" y="130.838" width="2.85776" height="2.85776" rx="1.42888" transform="rotate(30.7202 135.435 130.838)" fill="#E2E7EE"/>
<rect width="2.85776" height="2.85776" rx="1.42888" transform="matrix(0.859674 0.510843 -0.51085 0.85967 141.986 134.73)" fill="#E2E7EE"/>
<rect width="2.85776" height="2.85776" rx="1.42888" transform="matrix(0.859674 0.510843 -0.51085 0.85967 148.537 138.624)" fill="#E2E7EE"/>
<rect x="98.7853" y="117.924" width="2.85776" height="2.85776" rx="1.42888" transform="rotate(30.7202 98.7853 117.924)" fill="#E2E7EE"/>
<rect x="105.337" y="121.817" width="2.85776" height="2.85776" rx="1.42888" transform="rotate(30.7202 105.337 121.817)" fill="#E2E7EE"/>
<rect width="2.85776" height="2.85776" rx="1.42888" transform="matrix(0.859674 0.510843 -0.51085 0.85967 111.888 125.709)" fill="#E2E7EE"/>
<rect width="2.85776" height="2.85776" rx="1.42888" transform="matrix(0.859674 0.510844 -0.51085 0.85967 118.439 129.603)" fill="#E2E7EE"/>
<rect x="124.991" y="133.496" width="2.85776" height="2.85776" rx="1.42888" transform="rotate(30.7202 124.991 133.496)" fill="#E2E7EE"/>
<rect width="2.85776" height="2.85776" rx="1.42888" transform="matrix(0.859674 0.510843 -0.51085 0.85967 131.542 137.389)" fill="#E2E7EE"/>
<rect width="2.85776" height="2.85776" rx="1.42888" transform="matrix(0.859674 0.510843 -0.51085 0.85967 138.093 141.282)" fill="#E2E7EE"/>
<rect x="144.645" y="145.175" width="2.85776" height="2.85776" rx="1.42888" transform="rotate(30.7202 144.645 145.175)" fill="#E2E7EE"/>
<rect x="151.196" y="149.067" width="2.85776" height="2.85776" rx="1.42888" transform="rotate(30.7202 151.196 149.067)" fill="#E2E7EE"/>
<rect x="94.8924" y="124.475" width="2.85776" height="2.85776" rx="1.42888" transform="rotate(30.7202 94.8924 124.475)" fill="#E2E7EE"/>
<rect x="101.444" y="128.368" width="2.85776" height="2.85776" rx="1.42888" transform="rotate(30.7202 101.444 128.368)" fill="#E2E7EE"/>
<rect width="2.85776" height="2.85776" rx="1.42888" transform="matrix(0.859674 0.510843 -0.51085 0.85967 107.995 132.261)" fill="#E2E7EE"/>
<rect x="114.546" y="136.154" width="2.85776" height="2.85776" rx="1.42888" transform="rotate(30.7202 114.546 136.154)" fill="#E2E7EE"/>
<rect x="121.097" y="140.047" width="2.85776" height="2.85776" rx="1.42888" transform="rotate(30.7202 121.097 140.047)" fill="#E2E7EE"/>
<rect width="2.85776" height="2.85776" rx="1.42888" transform="matrix(0.859674 0.510843 -0.51085 0.85967 127.649 143.94)" fill="#E2E7EE"/>
<rect x="134.2" y="147.833" width="2.85776" height="2.85776" rx="1.42888" transform="rotate(30.7202 134.2 147.833)" fill="#E2E7EE"/>
<rect width="2.85776" height="2.85776" rx="1.42888" transform="matrix(0.859674 0.510843 -0.51085 0.85967 140.751 151.727)" fill="#E2E7EE"/>
<rect x="147.303" y="155.619" width="2.85776" height="2.85776" rx="1.42888" transform="rotate(30.7202 147.303 155.619)" fill="#E2E7EE"/>
<rect width="2.85776" height="2.85776" rx="1.42888" transform="matrix(0.859674 0.510843 -0.51085 0.85967 90.9993 131.026)" fill="#E2E7EE"/>
<rect width="2.85776" height="2.85776" rx="1.42888" transform="matrix(0.859674 0.510843 -0.51085 0.85967 97.5506 134.919)" fill="#E2E7EE"/>
<rect width="2.85776" height="2.85776" rx="1.42888" transform="matrix(0.859674 0.510843 -0.51085 0.85967 104.102 138.812)" fill="#E2E7EE"/>
<rect x="110.653" y="142.706" width="2.85776" height="2.85776" rx="1.42888" transform="rotate(30.7202 110.653 142.706)" fill="#E2E7EE"/>
<rect x="117.205" y="146.598" width="2.85776" height="2.85776" rx="1.42888" transform="rotate(30.7202 117.205 146.598)" fill="#E2E7EE"/>
<rect width="2.85776" height="2.85776" rx="1.42888" transform="matrix(0.859674 0.510843 -0.51085 0.85967 123.756 150.491)" fill="#E2E7EE"/>
<rect width="2.85776" height="2.85776" rx="1.42888" transform="matrix(0.859674 0.510843 -0.51085 0.85967 130.307 154.385)" fill="#E2E7EE"/>
<rect x="136.858" y="158.277" width="2.85776" height="2.85776" rx="1.42888" transform="rotate(30.7202 136.858 158.277)" fill="#E2E7EE"/>
<rect x="143.41" y="162.17" width="2.85776" height="2.85776" rx="1.42888" transform="rotate(30.7202 143.41 162.17)" fill="#E2E7EE"/>
<rect width="2.85776" height="2.85776" rx="1.42888" transform="matrix(0.859674 0.510843 -0.51085 0.85967 149.961 166.063)" fill="#E2E7EE"/>
<rect x="87.1064" y="137.578" width="2.85776" height="2.85776" rx="1.42888" transform="rotate(30.7202 87.1064 137.578)" fill="#E2E7EE"/>
<rect width="2.85776" height="2.85776" rx="1.42888" transform="matrix(0.85967 0.51085 -0.510843 0.859674 93.6577 141.471)" fill="#E2E7EE"/>
<rect x="100.209" y="145.364" width="2.85776" height="2.85776" rx="1.42888" transform="rotate(30.7202 100.209 145.364)" fill="#E2E7EE"/>
<rect x="106.76" y="149.257" width="2.85776" height="2.85776" rx="1.42888" transform="rotate(30.7202 106.76 149.257)" fill="#E2E7EE"/>
<rect x="113.312" y="153.149" width="2.85776" height="2.85776" rx="1.42888" transform="rotate(30.7202 113.312 153.149)" fill="#E2E7EE"/>
<rect width="2.85776" height="2.85776" rx="1.42888" transform="matrix(0.859674 0.510843 -0.51085 0.85967 119.863 157.043)" fill="#E2E7EE"/>
<rect x="126.414" y="160.936" width="2.85776" height="2.85776" rx="1.42888" transform="rotate(30.7202 126.414 160.936)" fill="#E2E7EE"/>
<rect x="132.966" y="164.829" width="2.85776" height="2.85776" rx="1.42888" transform="rotate(30.7202 132.966 164.829)" fill="#E2E7EE"/>
<rect x="139.517" y="168.722" width="2.85776" height="2.85776" rx="1.42888" transform="rotate(30.7202 139.517 168.722)" fill="#E2E7EE"/>
<rect x="146.068" y="172.614" width="2.85776" height="2.85776" rx="1.42888" transform="rotate(30.7202 146.068 172.614)" fill="#E2E7EE"/>
<rect x="83.2133" y="144.129" width="2.85776" height="2.85776" rx="1.42888" transform="rotate(30.7202 83.2133 144.129)" fill="#E2E7EE"/>
<rect width="2.85776" height="2.85776" rx="1.42888" transform="matrix(0.859674 0.510843 -0.51085 0.85967 89.7646 148.022)" fill="#E2E7EE"/>
<rect width="2.85776" height="2.85776" rx="1.42888" transform="matrix(0.859674 0.510843 -0.51085 0.85967 96.3159 151.915)" fill="#E2E7EE"/>
<rect width="2.85776" height="2.85776" rx="1.42888" transform="matrix(0.859674 0.510843 -0.51085 0.85967 102.867 155.808)" fill="#E2E7EE"/>
<rect width="2.85776" height="2.85776" rx="1.42888" transform="matrix(0.859674 0.510843 -0.51085 0.85967 109.419 159.701)" fill="#E2E7EE"/>
<rect x="115.97" y="163.594" width="2.85776" height="2.85776" rx="1.42888" transform="rotate(30.7202 115.97 163.594)" fill="#E2E7EE"/>
<rect width="2.85776" height="2.85776" rx="1.42888" transform="matrix(0.859674 0.510843 -0.51085 0.85967 122.521 167.487)" fill="#E2E7EE"/>
<rect width="2.85776" height="2.85776" rx="1.42888" transform="matrix(0.859674 0.510843 -0.51085 0.85967 129.072 171.38)" fill="#E2E7EE"/>
<rect x="135.624" y="175.273" width="2.85776" height="2.85776" rx="1.42888" transform="rotate(30.7202 135.624 175.273)" fill="#E2E7EE"/>
<rect width="2.85776" height="2.85776" rx="1.42888" transform="matrix(0.859674 0.510843 -0.51085 0.85967 142.175 179.166)" fill="#E2E7EE"/>
<rect width="2.85776" height="2.85776" rx="1.42888" transform="matrix(0.859674 0.510843 -0.51085 0.85967 148.726 183.059)" fill="#E2E7EE"/>
<rect width="2.85776" height="2.85776" rx="1.42888" transform="matrix(0.859674 0.510843 -0.51085 0.85967 79.3204 150.68)" fill="#E2E7EE"/>
<rect x="85.8717" y="154.573" width="2.85776" height="2.85776" rx="1.42888" transform="rotate(30.7202 85.8717 154.573)" fill="#E2E7EE"/>
<rect x="92.423" y="158.466" width="2.85776" height="2.85776" rx="1.42888" transform="rotate(30.7202 92.423 158.466)" fill="#E2E7EE"/>
<rect width="2.85776" height="2.85776" rx="1.42888" transform="matrix(0.859674 0.510843 -0.51085 0.85967 98.9743 162.359)" fill="#E2E7EE"/>
<rect x="105.526" y="166.252" width="2.85776" height="2.85776" rx="1.42888" transform="rotate(30.7202 105.526 166.252)" fill="#E2E7EE"/>
<rect width="2.85776" height="2.85776" rx="1.42888" transform="matrix(0.859674 0.510843 -0.51085 0.85967 112.077 170.145)" fill="#E2E7EE"/>
<rect width="2.85776" height="2.85776" rx="1.42888" transform="matrix(0.859674 0.510843 -0.51085 0.85967 118.628 174.038)" fill="#E2E7EE"/>
<rect width="2.85776" height="2.85776" rx="1.42888" transform="matrix(0.859674 0.510843 -0.51085 0.85967 125.18 177.932)" fill="#E2E7EE"/>
<rect width="2.85776" height="2.85776" rx="1.42888" transform="matrix(0.859674 0.510843 -0.51085 0.85967 131.731 181.824)" fill="#E2E7EE"/>
<rect x="138.282" y="185.717" width="2.85776" height="2.85776" rx="1.42888" transform="rotate(30.7202 138.282 185.717)" fill="#E2E7EE"/>
<rect x="144.833" y="189.61" width="2.85776" height="2.85776" rx="1.42888" transform="rotate(30.7202 144.833 189.61)" fill="#E2E7EE"/>
<rect width="2.85776" height="2.85776" rx="1.42888" transform="matrix(0.859674 0.510843 -0.51085 0.85967 151.385 193.503)" fill="#E2E7EE"/>
<rect x="75.4274" y="157.231" width="2.85776" height="2.85776" rx="1.42888" transform="rotate(30.7202 75.4274 157.231)" fill="#E2E7EE"/>
<rect width="2.85776" height="2.85776" rx="1.42888" transform="matrix(0.859674 0.510843 -0.51085 0.85967 81.9786 161.125)" fill="#E2E7EE"/>
<rect width="2.85776" height="2.85776" rx="1.42888" transform="matrix(0.859674 0.510843 -0.51085 0.85967 88.5299 165.018)" fill="#E2E7EE"/>
<rect width="2.85776" height="2.85776" rx="1.42888" transform="matrix(0.859674 0.510844 -0.510849 0.85967 95.0812 168.911)" fill="#E2E7EE"/>
<rect width="2.85776" height="2.85776" rx="1.42888" transform="matrix(0.859674 0.510843 -0.51085 0.85967 101.633 172.804)" fill="#E2E7EE"/>
<rect width="2.85776" height="2.85776" rx="1.42888" transform="matrix(0.859674 0.510843 -0.51085 0.85967 108.184 176.696)" fill="#E2E7EE"/>
<rect x="114.735" y="180.59" width="2.85776" height="2.85776" rx="1.42888" transform="rotate(30.7202 114.735 180.59)" fill="#E2E7EE"/>
<rect width="2.85776" height="2.85776" rx="1.42888" transform="matrix(0.859674 0.510843 -0.51085 0.85967 121.286 184.482)" fill="#E2E7EE"/>
<rect x="127.838" y="188.375" width="2.85776" height="2.85776" rx="1.42888" transform="rotate(30.7202 127.838 188.375)" fill="#E2E7EE"/>
<rect x="134.389" y="192.269" width="2.85776" height="2.85776" rx="1.42888" transform="rotate(30.7202 134.389 192.269)" fill="#E2E7EE"/>
<rect width="2.85776" height="2.85776" rx="1.42888" transform="matrix(0.85967 0.51085 -0.510843 0.859674 71.5343 163.783)" fill="#E2E7EE"/>
<rect x="78.0858" y="167.676" width="2.85776" height="2.85776" rx="1.42888" transform="rotate(30.7202 78.0858 167.676)" fill="#E2E7EE"/>
<rect x="84.637" y="171.569" width="2.85776" height="2.85776" rx="1.42888" transform="rotate(30.7202 84.637 171.569)" fill="#E2E7EE"/>
<rect x="91.1883" y="175.462" width="2.85776" height="2.85776" rx="1.42888" transform="rotate(30.7202 91.1883 175.462)" fill="#E2E7EE"/>
<rect x="97.7396" y="179.354" width="2.85776" height="2.85776" rx="1.42888" transform="rotate(30.7202 97.7396 179.354)" fill="#E2E7EE"/>
<rect width="2.85776" height="2.85776" rx="1.42888" transform="matrix(0.85967 0.51085 -0.510843 0.859674 104.291 183.248)" fill="#E2E7EE"/>
<rect x="110.842" y="187.141" width="2.85776" height="2.85776" rx="1.42888" transform="rotate(30.7202 110.842 187.141)" fill="#E2E7EE"/>
<rect width="2.85776" height="2.85776" rx="1.42888" transform="matrix(0.859668 0.510853 -0.51084 0.859676 117.393 191.034)" fill="#E2E7EE"/>
<rect x="123.945" y="194.927" width="2.85776" height="2.85776" rx="1.42888" transform="rotate(30.7202 123.945 194.927)" fill="#E2E7EE"/>
<rect width="2.85776" height="2.85776" rx="1.42888" transform="matrix(0.859674 0.510843 -0.51085 0.85967 67.6414 170.334)" fill="#E2E7EE"/>
<rect x="74.1926" y="174.227" width="2.85776" height="2.85776" rx="1.42888" transform="rotate(30.7202 74.1926 174.227)" fill="#E2E7EE"/>
<rect width="2.85776" height="2.85776" rx="1.42888" transform="matrix(0.859674 0.510843 -0.51085 0.85967 80.7439 178.12)" fill="#E2E7EE"/>
<rect x="87.2952" y="182.013" width="2.85776" height="2.85776" rx="1.42888" transform="rotate(30.7202 87.2952 182.013)" fill="#E2E7EE"/>
<rect x="93.8464" y="185.906" width="2.85776" height="2.85776" rx="1.42888" transform="rotate(30.7202 93.8464 185.906)" fill="#E2E7EE"/>
<rect width="2.85776" height="2.85776" rx="1.42888" transform="matrix(0.859674 0.510843 -0.51085 0.85967 100.398 189.799)" fill="#E2E7EE"/>
<rect width="2.85776" height="2.85776" rx="1.42888" transform="matrix(0.859674 0.510843 -0.51085 0.85967 106.949 193.692)" fill="#E2E7EE"/>
<rect x="63.7483" y="176.885" width="2.85776" height="2.85776" rx="1.42888" transform="rotate(30.7202 63.7483 176.885)" fill="#E2E7EE"/>
<rect width="2.85776" height="2.85776" rx="1.42888" transform="matrix(0.859674 0.510843 -0.51085 0.85967 70.2996 180.778)" fill="#E2E7EE"/>
<rect width="2.85776" height="2.85776" rx="1.42888" transform="matrix(0.859674 0.510843 -0.51085 0.85967 76.851 184.672)" fill="#E2E7EE"/>
<rect x="83.4023" y="188.564" width="2.85776" height="2.85776" rx="1.42888" transform="rotate(30.7202 83.4023 188.564)" fill="#E2E7EE"/>
<rect width="2.85776" height="2.85776" rx="1.42888" transform="matrix(0.859674 0.510843 -0.51085 0.85967 89.9536 192.458)" fill="#E2E7EE"/>
<rect x="59.8554" y="183.437" width="2.85776" height="2.85776" rx="1.42888" transform="rotate(30.7202 59.8554 183.437)" fill="#E2E7EE"/>
<rect width="2.85776" height="2.85776" rx="1.42888" transform="matrix(0.859674 0.510843 -0.51085 0.85967 66.4067 187.33)" fill="#E2E7EE"/>
<rect width="2.85776" height="2.85776" rx="1.42888" transform="matrix(0.859674 0.510843 -0.51085 0.85967 72.958 191.223)" fill="#E2E7EE"/>
<rect width="2.85776" height="2.85776" rx="1.42888" transform="matrix(0.859674 0.510843 -0.51085 0.85967 79.5092 195.116)" fill="#E2E7EE"/>
<rect x="55.9623" y="189.988" width="2.85776" height="2.85776" rx="1.42888" transform="rotate(30.7202 55.9623 189.988)" fill="#E2E7EE"/>
<rect x="62.5136" y="193.881" width="2.85776" height="2.85776" rx="1.42888" transform="rotate(30.7202 62.5136 193.881)" fill="#E2E7EE"/>
</svg>
