<svg width="233" height="74" viewBox="0 0 233 74" fill="none" xmlns="http://www.w3.org/2000/svg"><path d="M4 19.057l.358.391.358.392.358.39.359.39.358.388.358.386.358.384.358.382.359.38.358.375.358.373.358.368.358.365.358.36.359.355.358.35.358.345.358.338.358.333.358.327.358.32.359.313.358.306.358.298.358.29.358.283.359.274.358.266.358.257.358.248.358.239.358.23.358.22.359.21.358.2.358.189.358.18.358.168.359.158.358.148.358.136.358.126.358.114.358.103.359.091.358.08.358.069.358.057.358.045.358.034.359.021.358.01.358-.001.358-.014.358-.025.358-.037.359-.048.358-.06.358-.072.358-.083.358-.095.358-.106.359-.117.358-.129.358-.14.358-.15.358-.161.358-.172.359-.182.358-.193.358-.203.358-.212.358-.223.358-.232.359-.241.358-.251.358-.26.358-.268.358-.276.358-.285.359-.293.358-.3.358-.308.358-.315.358-.322.358-.328.359-.335.358-.34.358-.347.358-.351.358-.357.358-.361.359-.366.358-.37.358-.373.358-.377.358-.38.358-.382.359-.385.358-.387.358-.388.358-.39.358-.391.358-.392.359-.391.358-.392.358-.39.358-.391.358-.39.358-.387.359-.386.358-.384.358-.38.358-.379.358-.375.358-.371.359-.367.358-.364.358-.358.358-.354.358-.349.358-.343.359-.337.358-.331.358-.325.358-.318.358-.311.358-.304.359-.296.358-.288.358-.28.358-.272.358-.264.358-.254.359-.246.358-.236.358-.227.358-.217.358-.207.359-.197.358-.187.358-.177.358-.165.358-.156.358-.144.358-.133.359-.123.358-.11.358-.1.358-.089.358-.076.358-.066.359-.053.358-.042.358-.03.358-.02.358-.006.359.005.358.017.358.028.358.04.358.052.358.063.359.075.358.087.358.098.358.109.358.12.358.132.359.143.358.153.358.164.358.175.358.185.358.196.359.205.358.216.358.225.358.235.358.244.358.253.359.262.358.27.358.28.358.287.358.294.358.303.359.31.358.317.358.324.358.33.358.336.358.342.359.348.358.353.358.358.358.362.358.367.358.371.359.374.358.378.358.38.358.384.358.385.358.388.359.389.358.39.358.39.358.392.358.392.358.392.359.39.358.39.358.39.358.386.358.386.358.383.359.38.358.377.358.374.358.37.358.367.358.362.359.357.358.353.358.347.358.341.358.336.358.33.359.322.358.316.358.31.358.3.358.295.358.286.359.278.358.27.358.26.358.252.358.243.359.234.358.224.358.214.358.204.358.195.358.184.359.173.358.163.358.152.358.142.358.13.358.119.359.108.358.096.358.085.358.074.358.062.358.05.359.04.358.026.358.015.358.004.358-.008.358-.02.359-.032.358-.043.358-.055.358-.067.358-.078.358-.09.359-.101.358-.112.358-.124.358-.135.358-.145.358-.157.359-.167.358-.178.358-.188.358-.198.358-.209.358-.218.359-.228.358-.237.358-.247.358-.255.358-.265.358-.273.359-.281.358-.29.358-.296.358-.305.358-.312.358-.319.359-.325.358-.332.358-.338.358-.344.358-.35.358-.354.359-.359.358-.364.358-.367.358-.372.358-.376.358-.378.359-.382.358-.383.358-.387.358-.387.358-.39.358-.39.359-.391.358-.392.358-.392.358-.391.358-.39.358-.39.359-.389.358-.387.358-.384.358-.382.358-.38.358-.376.359-.373.358-.37.358-.365.358-.36.358-.356.358-.351.359-.346.358-.34.358-.334.358-.327.358-.321.358-.314.359-.307.358-.3.358-.291.358-.284.358-.276.358-.267.359-.259.358-.25.358-.24.358-.23.358-.222.358-.211.359-.202.358-.191.358-.181.358-.17.358-.16.358-.15.359-.138.358-.127.358-.116.358-.105.358-.093.359-.082.358-.07.358-.06.358-.046.358-.036.358-.023.359-.012h.358l.358.01.358.024.358.035.358.047.359.058.358.07.358.081.358.093.358.105.358.115.359.127.358.138.358.148.358.16.358.17.358.18.359.192.358.2.358.212.358.221.358.23.358.24.359.25.358.258.358.267.358.275.358.283.358.292.359.3.358.306.358.314.358.32.358.328.358.333.359.34.358.345.358.351.358.356.358.36.358.366.359.368.358.373.358.377.358.379.358.382.358.385.359.386.358.389.358.39.358.39.358.391.358.392.359.392.358.39.358.391.358.39.358.388.358.386.359.384.358.381.358.379.358.375.358.372.358.368.359.364.358.36.358.354.358.35.358.344.358.338.359.332.358.326.358.32.358.311.358.305.358.297.359.29.358.282.358.273.358.265.358.256.358.247.359.237.358.229.358.218.358.209.358.199.358.188.359.178.358.168.358.157.358.146.358.135.358.124.359.113.358.101.358.09.358.08.358.066.358.056.359.044.358.032.358.02.358.009.358-.003.358-.015.359-.027.358-.038.358-.05.358-.061.358-.073.359-.085.358-.096.358-.108.358-.118.358-.13.358-.141.359-.152.358-.162.358-.173.358-.184.358-.194.358-.204.359-.214.358-.224.358-.233.358-.242.358-.252.358-.26.359-.27.358-.277.358-.286.358-.294.358-.301.358-.309.359-.316.358-.322.358-.33.358-.335.358-.341.358-.347.359-.352.358-.357.358-.362.358-.366.358-.37.358-.374.359-.378.358-.38.358-.383.358-.385.358-.387.358-.389.359-.39.358-.39.358-.392.358-.392.358-.391.358-.391.359-.39.358-.39.358-.387.358-.385.358-.384.358-.38.359-.378.358-.375.358-.37.358-.368.358-.362.358-.359.359-.353.358-.348.358-.342.358-.337.358-.33.358-.324.359-.317.358-.31.358-.303.358-.295.358-.288.358-.279.359-.27.358-.263.358-.254.358-.244.358-.235.358-.226.359-.216.358-.205.358-.196.358-.186.358-.175.358-.165.359-.154.358-.143.358-.132.358-.12.358-.11.358-.099.359-.087.358-.075.358-.064.358-.052.358-.04.358-.03.359-.017.358-.005.358.006.358.018.358.03.358.042.359.053.358.065.358.076.358.088.358.1.358.11.359.122.358.133.358.144.358.154.358.166.358.176.359.186.358.197.358.207.358.217.358.226.358.236.359.245.358.254.358.263.358.272.358.28.358.288.359.296.358.303.358.31.358.319.358.324.359.331.358.337.358.343.358.348.358.354.358.358.359.364.358.367.358.371.358.375.358.378.358.38.359.384.358.386.358.388.358.389.358.39.358.391M4 55.018l.358.392.358.39.358.392.359.389.358.388.358.386.358.385.358.382.359.379.358.376.358.372.358.368.358.365.358.36.359.355.358.35.358.345.358.339.358.333.358.326.358.32.359.313.358.306.358.298.358.29.358.283.359.275.358.266.358.257.358.248.358.238.358.23.358.22.359.21.358.2.358.19.358.179.358.169.359.158.358.147.358.137.358.125.358.114.358.103.359.092.358.08.358.068.358.057.358.045.358.034.359.022.358.01.358-.002.358-.013.358-.025.358-.037.359-.049.358-.06.358-.072.358-.083.358-.095.358-.106.359-.117.358-.128.358-.14.358-.15.358-.162.358-.171.359-.183.358-.192.358-.203.358-.213.358-.223.358-.232.359-.241.358-.25.358-.26.358-.268.358-.277.358-.285.359-.293.358-.3.358-.308.358-.315.358-.322.358-.328.359-.334.358-.341.358-.346.358-.352.358-.356.358-.362.359-.365.358-.37.358-.373.358-.377.358-.38.358-.383.359-.384.358-.387.358-.389.358-.39.358-.39.358-.392.359-.392.358-.391.358-.392.358-.39.358-.389.358-.388.359-.385.358-.384.358-.381.358-.378.358-.375.358-.372.359-.367.358-.363.358-.359.358-.354.358-.348.358-.344.359-.337.358-.33.358-.326.358-.318.358-.31.358-.304.359-.296.358-.289.358-.28.358-.272.358-.263.358-.255.359-.245.358-.237.358-.226.358-.218.358-.207.359-.197.358-.187.358-.176.358-.166.358-.155.358-.145.358-.133.359-.122.358-.111.358-.1.358-.088.358-.077.358-.065.359-.054.358-.042.358-.03.358-.019.358-.007.359.005.358.017.358.029.358.04.358.051.358.064.359.075.358.086.358.098.358.11.358.12.358.131.359.143.358.154.358.164.358.175.358.185.358.195.359.206.358.215.358.226.358.234.358.244.358.253.359.262.358.271.358.279.358.287.358.295.358.302.359.31.358.317.358.324.358.33.358.336.358.343.359.347.358.353.358.358.358.363.358.367.358.37.359.375.358.378.358.38.358.383.358.386.358.387.359.39.358.39.358.39.358.392.358.392.358.391.359.391.358.39.358.389.358.387.358.385.358.383.359.38.358.378.358.374.358.37.358.366.358.362.359.358.358.352.358.347.358.342.358.335.358.33.359.323.358.316.358.309.358.301.358.294.358.286.359.278.358.27.358.26.358.253.358.243.359.233.358.224.358.215.358.204.358.194.358.184.359.174.358.163.358.152.358.141.358.13.358.12.359.107.358.097.358.085.358.073.358.063.358.05.359.039.358.027.358.015.358.003.358-.008.358-.02.359-.032.358-.043.358-.055.358-.067.358-.078.358-.09.359-.1.358-.113.358-.124.358-.134.358-.146.358-.156.359-.168.358-.177.358-.189.358-.198.358-.208.358-.219.359-.227.358-.238.358-.246.358-.256.358-.264.358-.273.359-.282.358-.289.358-.297.358-.305.358-.311.358-.32.359-.325.358-.332.358-.338.358-.343.358-.35.358-.354.359-.36.358-.363.358-.368.358-.372.358-.375.358-.379.359-.381.358-.384.358-.386.358-.388.358-.39.358-.39.359-.391.358-.392.358-.391.358-.392.358-.39.358-.39.359-.388.358-.387.358-.385.358-.382.358-.38.358-.376.359-.373.358-.37.358-.364.358-.36.358-.357.358-.35.359-.346.358-.34.358-.334.358-.328.358-.32.358-.315.359-.307.358-.3.358-.291.358-.284.358-.276.358-.267.359-.258.358-.25.358-.24.358-.23.358-.222.358-.212.359-.201.358-.192.358-.18.358-.171.358-.16.358-.15.359-.138.358-.127.358-.116.358-.105.358-.093.359-.082.358-.07.358-.059.358-.047.358-.035.358-.024.359-.012h.358l.358.011.358.024.358.035.358.046.359.059.358.07.358.08.358.094.358.104.358.116.359.126.358.138.358.149.358.16.358.17.358.18.359.191.358.201.358.211.358.221.358.231.358.24.359.25.358.257.358.267.358.275.358.284.358.291.359.3.358.306.358.314.358.32.358.328.358.334.359.34.358.345.358.35.358.356.358.36.358.366.359.369.358.373.358.376.358.38.358.382.358.384.359.387.358.388.358.39.358.39.358.392.358.391.359.392.358.391.358.39.358.39.358.388.358.386.359.384.358.382.358.378.358.376.358.372.358.368.359.364.358.36.358.354.358.35.358.343.358.339.359.332.358.325.358.32.358.312.358.304.358.298.359.29.358.281.358.273.358.265.358.256.358.247.359.238.358.228.358.219.358.208.358.2.358.188.359.178.358.167.358.157.358.146.358.136.358.123.359.113.358.102.358.09.358.079.358.067.358.055.359.044.358.032.358.02.358.01.358-.004.358-.015.359-.026.358-.038.358-.05.358-.062.358-.073.359-.085.358-.096.358-.107.358-.119.358-.13.358-.14.359-.152.358-.163.358-.173.358-.183.358-.194.358-.204.359-.214.358-.224.358-.233.358-.243.358-.252.358-.26.359-.27.358-.277.358-.286.358-.293.358-.302.358-.309.359-.315.358-.323.358-.329.358-.335.358-.342.358-.347.359-.352.358-.357.358-.362.358-.366.358-.37.358-.374.359-.377.358-.38.358-.383.358-.385.358-.387.358-.39.359-.39.358-.39.358-.392.358-.391.358-.392.358-.39.359-.39.358-.39.358-.387.358-.386.358-.383.358-.381.359-.378.358-.374.358-.371.358-.367.358-.363.358-.358.359-.353.358-.348.358-.343.358-.336.358-.33.358-.325.359-.317.358-.31.358-.303.358-.295.358-.287.358-.28.359-.27.358-.263.358-.253.358-.245.358-.235.358-.225.359-.216.358-.206.358-.196.358-.186.358-.175.358-.164.359-.154.358-.143.358-.132.358-.121.358-.11.358-.098.359-.087.358-.075.358-.064.358-.053.358-.04.358-.03.359-.016.358-.006.358.007.358.018.358.03.358.041.359.053.358.065.358.077.358.087.358.1.359.11.358.122.358.133.358.144.358.155.358.165.358.176.359.187.358.197.358.206.358.217.358.227.358.235.359.245.358.255.358.263.358.271.358.28.358.288.359.296.358.304.358.31.358.318.358.325.359.33.358.337.358.343.358.349.358.353.358.359.359.363.358.367.358.372.358.374.358.378.358.381.359.384.358.386.358.387.358.39.358.39.358.39" stroke="#EBF5FF" stroke-width="10.445"/></svg>