<svg width="234" height="167" viewBox="0 0 234 167" fill="none" xmlns="http://www.w3.org/2000/svg"><rect width="1.904" height="1.904" rx=".952" fill="#FEE36F"/><rect x="8.255" width="1.904" height="1.904" rx=".952" fill="#FEE36F"/><rect x="16.51" width="1.904" height="1.904" rx=".952" fill="#FEE36F"/><rect x="24.764" width="1.904" height="1.904" rx=".952" fill="#FEE36F"/><rect x="33.019" width="1.904" height="1.904" rx=".952" fill="#FEE36F"/><rect x="41.274" width="1.904" height="1.904" rx=".952" fill="#FEE36F"/><rect x="49.529" width="1.904" height="1.904" rx=".952" fill="#FEE36F"/><rect x="57.784" width="1.904" height="1.904" rx=".952" fill="#FEE36F"/><rect x="66.038" width="1.904" height="1.904" rx=".952" fill="#FEE36F"/><rect x="74.293" width="1.904" height="1.904" rx=".952" fill="#FEE36F"/><rect x="82.548" width="1.904" height="1.904" rx=".952" fill="#FEE36F"/><rect x="90.803" width="1.904" height="1.904" rx=".952" fill="#FEE36F"/><rect x="99.058" width="1.904" height="1.904" rx=".952" fill="#FEE36F"/><rect x="107.312" width="1.904" height="1.904" rx=".952" fill="#FEE36F"/><rect x="115.567" width="1.904" height="1.904" rx=".952" fill="#FEE36F"/><rect x="123.822" width="1.904" height="1.904" rx=".952" fill="#FEE36F"/><rect x="132.077" width="1.904" height="1.904" rx=".952" fill="#FEE36F"/><rect x="140.332" width="1.904" height="1.904" rx=".952" fill="#FEE36F"/><rect x="148.586" width="1.904" height="1.904" rx=".952" fill="#FEE36F"/><rect x="156.841" width="1.904" height="1.904" rx=".952" fill="#FEE36F"/><rect x="165.096" width="1.904" height="1.904" rx=".952" fill="#FEE36F"/><rect x="173.351" width="1.904" height="1.904" rx=".952" fill="#FEE36F"/><rect x="181.606" width="1.904" height="1.904" rx=".952" fill="#FEE36F"/><rect x="189.86" width="1.904" height="1.904" rx=".952" fill="#FEE36F"/><rect x="198.115" width="1.904" height="1.904" rx=".952" fill="#FEE36F"/><rect x="206.37" width="1.904" height="1.904" rx=".952" fill="#FEE36F"/><rect x="214.625" width="1.904" height="1.904" rx=".952" fill="#FEE36F"/><rect x="222.879" width="1.904" height="1.904" rx=".952" fill="#FEE36F"/><rect x="231.135" width="1.904" height="1.904" rx=".952" fill="#FEE36F"/><rect y="8.255" width="1.904" height="1.904" rx=".952" fill="#FEE36F"/><rect x="8.255" y="8.255" width="1.904" height="1.904" rx=".952" fill="#FEE36F"/><rect x="16.51" y="8.255" width="1.904" height="1.904" rx=".952" fill="#FEE36F"/><rect x="24.764" y="8.255" width="1.904" height="1.904" rx=".952" fill="#FEE36F"/><rect x="33.019" y="8.255" width="1.904" height="1.904" rx=".952" fill="#FEE36F"/><rect x="41.274" y="8.255" width="1.904" height="1.904" rx=".952" fill="#FEE36F"/><rect x="49.529" y="8.255" width="1.904" height="1.904" rx=".952" fill="#FEE36F"/><rect x="57.784" y="8.255" width="1.904" height="1.904" rx=".952" fill="#FEE36F"/><rect x="66.038" y="8.255" width="1.904" height="1.904" rx=".952" fill="#FEE36F"/><rect x="74.293" y="8.255" width="1.904" height="1.904" rx=".952" fill="#FEE36F"/><rect x="82.548" y="8.255" width="1.904" height="1.904" rx=".952" fill="#FEE36F"/><rect x="90.803" y="8.255" width="1.904" height="1.904" rx=".952" fill="#FEE36F"/><rect x="99.058" y="8.255" width="1.904" height="1.904" rx=".952" fill="#FEE36F"/><rect x="107.312" y="8.255" width="1.904" height="1.904" rx=".952" fill="#FEE36F"/><rect x="115.567" y="8.255" width="1.904" height="1.904" rx=".952" fill="#FEE36F"/><rect x="123.822" y="8.255" width="1.904" height="1.904" rx=".952" fill="#FEE36F"/><rect x="132.077" y="8.255" width="1.904" height="1.904" rx=".952" fill="#FEE36F"/><rect x="140.332" y="8.255" width="1.904" height="1.904" rx=".952" fill="#FEE36F"/><rect x="148.586" y="8.255" width="1.904" height="1.904" rx=".952" fill="#FEE36F"/><rect x="156.841" y="8.255" width="1.904" height="1.904" rx=".952" fill="#FEE36F"/><rect x="165.096" y="8.255" width="1.904" height="1.904" rx=".952" fill="#FEE36F"/><rect x="173.351" y="8.255" width="1.904" height="1.904" rx=".952" fill="#FEE36F"/><rect x="181.606" y="8.255" width="1.904" height="1.904" rx=".952" fill="#FEE36F"/><rect x="189.86" y="8.255" width="1.904" height="1.904" rx=".952" fill="#FEE36F"/><rect x="198.115" y="8.255" width="1.904" height="1.904" rx=".952" fill="#FEE36F"/><rect x="206.37" y="8.255" width="1.904" height="1.904" rx=".952" fill="#FEE36F"/><rect x="214.625" y="8.255" width="1.904" height="1.904" rx=".952" fill="#FEE36F"/><rect x="222.879" y="8.255" width="1.904" height="1.904" rx=".952" fill="#FEE36F"/><rect x="231.135" y="8.255" width="1.904" height="1.904" rx=".952" fill="#FEE36F"/><rect y="16.51" width="1.904" height="1.904" rx=".952" fill="#FEE36F"/><rect x="8.255" y="16.51" width="1.904" height="1.904" rx=".952" fill="#FEE36F"/><rect x="16.51" y="16.51" width="1.904" height="1.904" rx=".952" fill="#FEE36F"/><rect x="24.764" y="16.51" width="1.904" height="1.904" rx=".952" fill="#FEE36F"/><rect x="33.019" y="16.51" width="1.904" height="1.904" rx=".952" fill="#FEE36F"/><rect x="41.274" y="16.51" width="1.904" height="1.904" rx=".952" fill="#FEE36F"/><rect x="49.529" y="16.51" width="1.904" height="1.904" rx=".952" fill="#FEE36F"/><rect x="57.784" y="16.51" width="1.904" height="1.904" rx=".952" fill="#FEE36F"/><rect x="66.038" y="16.51" width="1.904" height="1.904" rx=".952" fill="#FEE36F"/><rect x="74.293" y="16.51" width="1.904" height="1.904" rx=".952" fill="#FEE36F"/><rect x="82.548" y="16.51" width="1.904" height="1.904" rx=".952" fill="#FEE36F"/><rect x="90.803" y="16.51" width="1.904" height="1.904" rx=".952" fill="#FEE36F"/><rect x="99.058" y="16.51" width="1.904" height="1.904" rx=".952" fill="#FEE36F"/><rect x="107.312" y="16.51" width="1.904" height="1.904" rx=".952" fill="#FEE36F"/><rect x="115.567" y="16.51" width="1.904" height="1.904" rx=".952" fill="#FEE36F"/><rect x="123.822" y="16.51" width="1.904" height="1.904" rx=".952" fill="#FEE36F"/><rect x="132.077" y="16.51" width="1.904" height="1.904" rx=".952" fill="#FEE36F"/><rect x="140.332" y="16.51" width="1.904" height="1.904" rx=".952" fill="#FEE36F"/><rect x="148.586" y="16.51" width="1.904" height="1.904" rx=".952" fill="#FEE36F"/><rect x="156.841" y="16.51" width="1.904" height="1.904" rx=".952" fill="#FEE36F"/><rect x="165.096" y="16.51" width="1.904" height="1.904" rx=".952" fill="#FEE36F"/><rect x="173.351" y="16.51" width="1.904" height="1.904" rx=".952" fill="#FEE36F"/><rect x="181.606" y="16.51" width="1.904" height="1.904" rx=".952" fill="#FEE36F"/><rect x="189.86" y="16.51" width="1.904" height="1.904" rx=".952" fill="#FEE36F"/><rect x="198.115" y="16.51" width="1.904" height="1.904" rx=".952" fill="#FEE36F"/><rect x="206.37" y="16.51" width="1.904" height="1.904" rx=".952" fill="#FEE36F"/><rect x="214.625" y="16.51" width="1.904" height="1.904" rx=".952" fill="#FEE36F"/><rect x="222.879" y="16.51" width="1.904" height="1.904" rx=".952" fill="#FEE36F"/><rect x="231.135" y="16.51" width="1.904" height="1.904" rx=".952" fill="#FEE36F"/><rect y="24.764" width="1.904" height="1.904" rx=".952" fill="#FEE36F"/><rect x="8.255" y="24.764" width="1.904" height="1.904" rx=".952" fill="#FEE36F"/><rect x="16.51" y="24.764" width="1.904" height="1.904" rx=".952" fill="#FEE36F"/><rect x="24.764" y="24.764" width="1.904" height="1.904" rx=".952" fill="#FEE36F"/><rect x="33.019" y="24.764" width="1.904" height="1.904" rx=".952" fill="#FEE36F"/><rect x="41.274" y="24.764" width="1.904" height="1.904" rx=".952" fill="#FEE36F"/><rect x="49.529" y="24.764" width="1.904" height="1.904" rx=".952" fill="#FEE36F"/><rect x="57.784" y="24.764" width="1.904" height="1.904" rx=".952" fill="#FEE36F"/><rect x="66.038" y="24.764" width="1.904" height="1.904" rx=".952" fill="#FEE36F"/><rect x="74.293" y="24.764" width="1.904" height="1.904" rx=".952" fill="#FEE36F"/><rect x="82.548" y="24.764" width="1.904" height="1.904" rx=".952" fill="#FEE36F"/><rect x="90.803" y="24.764" width="1.904" height="1.904" rx=".952" fill="#FEE36F"/><rect x="99.058" y="24.764" width="1.904" height="1.904" rx=".952" fill="#FEE36F"/><rect x="107.312" y="24.764" width="1.904" height="1.904" rx=".952" fill="#FEE36F"/><rect x="115.567" y="24.764" width="1.904" height="1.904" rx=".952" fill="#FEE36F"/><rect x="123.822" y="24.764" width="1.904" height="1.904" rx=".952" fill="#FEE36F"/><rect x="132.077" y="24.764" width="1.904" height="1.904" rx=".952" fill="#FEE36F"/><rect x="140.332" y="24.764" width="1.904" height="1.904" rx=".952" fill="#FEE36F"/><rect x="148.586" y="24.764" width="1.904" height="1.904" rx=".952" fill="#FEE36F"/><rect x="156.841" y="24.764" width="1.904" height="1.904" rx=".952" fill="#FEE36F"/><rect x="165.096" y="24.764" width="1.904" height="1.904" rx=".952" fill="#FEE36F"/><rect x="173.351" y="24.764" width="1.904" height="1.904" rx=".952" fill="#FEE36F"/><rect x="181.606" y="24.764" width="1.904" height="1.904" rx=".952" fill="#FEE36F"/><rect x="189.86" y="24.764" width="1.904" height="1.904" rx=".952" fill="#FEE36F"/><rect x="198.115" y="24.764" width="1.904" height="1.904" rx=".952" fill="#FEE36F"/><rect x="206.37" y="24.764" width="1.904" height="1.904" rx=".952" fill="#FEE36F"/><rect x="214.625" y="24.764" width="1.904" height="1.904" rx=".952" fill="#FEE36F"/><rect x="222.879" y="24.764" width="1.904" height="1.904" rx=".952" fill="#FEE36F"/><rect x="231.135" y="24.764" width="1.904" height="1.904" rx=".952" fill="#FEE36F"/><rect y="33.019" width="1.904" height="1.904" rx=".952" fill="#FEE36F"/><rect x="8.255" y="33.019" width="1.904" height="1.904" rx=".952" fill="#FEE36F"/><rect x="16.51" y="33.019" width="1.904" height="1.904" rx=".952" fill="#FEE36F"/><rect x="24.764" y="33.019" width="1.904" height="1.904" rx=".952" fill="#FEE36F"/><rect x="33.019" y="33.019" width="1.904" height="1.904" rx=".952" fill="#FEE36F"/><rect x="41.274" y="33.019" width="1.904" height="1.904" rx=".952" fill="#FEE36F"/><rect x="49.529" y="33.019" width="1.904" height="1.904" rx=".952" fill="#FEE36F"/><rect x="57.784" y="33.019" width="1.904" height="1.904" rx=".952" fill="#FEE36F"/><rect x="66.038" y="33.019" width="1.904" height="1.904" rx=".952" fill="#FEE36F"/><rect x="74.293" y="33.019" width="1.904" height="1.904" rx=".952" fill="#FEE36F"/><rect x="82.548" y="33.019" width="1.904" height="1.904" rx=".952" fill="#FEE36F"/><rect x="90.803" y="33.019" width="1.904" height="1.904" rx=".952" fill="#FEE36F"/><rect x="99.058" y="33.019" width="1.904" height="1.904" rx=".952" fill="#FEE36F"/><rect x="107.312" y="33.019" width="1.904" height="1.904" rx=".952" fill="#FEE36F"/><rect x="115.567" y="33.019" width="1.904" height="1.904" rx=".952" fill="#FEE36F"/><rect x="123.822" y="33.019" width="1.904" height="1.904" rx=".952" fill="#FEE36F"/><rect x="132.077" y="33.019" width="1.904" height="1.904" rx=".952" fill="#FEE36F"/><rect x="140.332" y="33.019" width="1.904" height="1.904" rx=".952" fill="#FEE36F"/><rect x="148.586" y="33.019" width="1.904" height="1.904" rx=".952" fill="#FEE36F"/><rect x="156.841" y="33.019" width="1.904" height="1.904" rx=".952" fill="#FEE36F"/><rect x="165.096" y="33.019" width="1.904" height="1.904" rx=".952" fill="#FEE36F"/><rect x="173.351" y="33.019" width="1.904" height="1.904" rx=".952" fill="#FEE36F"/><rect x="181.606" y="33.019" width="1.904" height="1.904" rx=".952" fill="#FEE36F"/><rect x="189.86" y="33.019" width="1.904" height="1.904" rx=".952" fill="#FEE36F"/><rect x="198.115" y="33.019" width="1.904" height="1.904" rx=".952" fill="#FEE36F"/><rect x="206.37" y="33.019" width="1.904" height="1.904" rx=".952" fill="#FEE36F"/><rect x="214.625" y="33.019" width="1.904" height="1.904" rx=".952" fill="#FEE36F"/><rect x="222.879" y="33.019" width="1.904" height="1.904" rx=".952" fill="#FEE36F"/><rect x="231.135" y="33.019" width="1.904" height="1.904" rx=".952" fill="#FEE36F"/><rect y="41.274" width="1.904" height="1.904" rx=".952" fill="#FEE36F"/><rect x="8.255" y="41.274" width="1.904" height="1.904" rx=".952" fill="#FEE36F"/><rect x="16.51" y="41.274" width="1.904" height="1.904" rx=".952" fill="#FEE36F"/><rect x="24.764" y="41.274" width="1.904" height="1.904" rx=".952" fill="#FEE36F"/><rect x="33.019" y="41.274" width="1.904" height="1.904" rx=".952" fill="#FEE36F"/><rect x="41.274" y="41.274" width="1.904" height="1.904" rx=".952" fill="#FEE36F"/><rect x="49.529" y="41.274" width="1.904" height="1.904" rx=".952" fill="#FEE36F"/><rect x="57.784" y="41.274" width="1.904" height="1.904" rx=".952" fill="#FEE36F"/><rect x="66.038" y="41.274" width="1.904" height="1.904" rx=".952" fill="#FEE36F"/><rect x="74.293" y="41.274" width="1.904" height="1.904" rx=".952" fill="#FEE36F"/><rect x="82.548" y="41.274" width="1.904" height="1.904" rx=".952" fill="#FEE36F"/><rect x="90.803" y="41.274" width="1.904" height="1.904" rx=".952" fill="#FEE36F"/><rect x="99.058" y="41.274" width="1.904" height="1.904" rx=".952" fill="#FEE36F"/><rect x="107.312" y="41.274" width="1.904" height="1.904" rx=".952" fill="#FEE36F"/><rect x="115.567" y="41.274" width="1.904" height="1.904" rx=".952" fill="#FEE36F"/><rect x="123.822" y="41.274" width="1.904" height="1.904" rx=".952" fill="#FEE36F"/><rect x="132.077" y="41.274" width="1.904" height="1.904" rx=".952" fill="#FEE36F"/><rect x="140.332" y="41.274" width="1.904" height="1.904" rx=".952" fill="#FEE36F"/><rect x="148.586" y="41.274" width="1.904" height="1.904" rx=".952" fill="#FEE36F"/><rect x="156.841" y="41.274" width="1.904" height="1.904" rx=".952" fill="#FEE36F"/><rect x="165.096" y="41.274" width="1.904" height="1.904" rx=".952" fill="#FEE36F"/><rect x="173.351" y="41.274" width="1.904" height="1.904" rx=".952" fill="#FEE36F"/><rect x="181.606" y="41.274" width="1.904" height="1.904" rx=".952" fill="#FEE36F"/><rect x="189.86" y="41.274" width="1.904" height="1.904" rx=".952" fill="#FEE36F"/><rect x="198.115" y="41.274" width="1.904" height="1.904" rx=".952" fill="#FEE36F"/><rect x="206.37" y="41.274" width="1.904" height="1.904" rx=".952" fill="#FEE36F"/><rect x="214.625" y="41.274" width="1.904" height="1.904" rx=".952" fill="#FEE36F"/><rect x="222.879" y="41.274" width="1.904" height="1.904" rx=".952" fill="#FEE36F"/><rect x="231.135" y="41.274" width="1.904" height="1.904" rx=".952" fill="#FEE36F"/><rect y="49.529" width="1.904" height="1.904" rx=".952" fill="#FEE36F"/><rect x="8.255" y="49.529" width="1.904" height="1.904" rx=".952" fill="#FEE36F"/><rect x="16.51" y="49.529" width="1.904" height="1.904" rx=".952" fill="#FEE36F"/><rect x="24.764" y="49.529" width="1.904" height="1.904" rx=".952" fill="#FEE36F"/><rect x="33.019" y="49.529" width="1.904" height="1.904" rx=".952" fill="#FEE36F"/><rect x="41.274" y="49.529" width="1.904" height="1.904" rx=".952" fill="#FEE36F"/><rect x="49.529" y="49.529" width="1.904" height="1.904" rx=".952" fill="#FEE36F"/><rect x="57.784" y="49.529" width="1.904" height="1.904" rx=".952" fill="#FEE36F"/><rect x="66.038" y="49.529" width="1.904" height="1.904" rx=".952" fill="#FEE36F"/><rect x="74.293" y="49.529" width="1.904" height="1.904" rx=".952" fill="#FEE36F"/><rect x="82.548" y="49.529" width="1.904" height="1.904" rx=".952" fill="#FEE36F"/><rect x="90.803" y="49.529" width="1.904" height="1.904" rx=".952" fill="#FEE36F"/><rect x="99.058" y="49.529" width="1.904" height="1.904" rx=".952" fill="#FEE36F"/><rect x="107.312" y="49.529" width="1.904" height="1.904" rx=".952" fill="#FEE36F"/><rect x="115.567" y="49.529" width="1.904" height="1.904" rx=".952" fill="#FEE36F"/><rect x="123.822" y="49.529" width="1.904" height="1.904" rx=".952" fill="#FEE36F"/><rect x="132.077" y="49.529" width="1.904" height="1.904" rx=".952" fill="#FEE36F"/><rect x="140.332" y="49.529" width="1.904" height="1.904" rx=".952" fill="#FEE36F"/><rect x="148.586" y="49.529" width="1.904" height="1.904" rx=".952" fill="#FEE36F"/><rect x="156.841" y="49.529" width="1.904" height="1.904" rx=".952" fill="#FEE36F"/><rect x="165.096" y="49.529" width="1.904" height="1.904" rx=".952" fill="#FEE36F"/><rect x="173.351" y="49.529" width="1.904" height="1.904" rx=".952" fill="#FEE36F"/><rect x="181.606" y="49.529" width="1.904" height="1.904" rx=".952" fill="#FEE36F"/><rect x="189.86" y="49.529" width="1.904" height="1.904" rx=".952" fill="#FEE36F"/><rect x="198.115" y="49.529" width="1.904" height="1.904" rx=".952" fill="#FEE36F"/><rect x="206.37" y="49.529" width="1.904" height="1.904" rx=".952" fill="#FEE36F"/><rect x="214.625" y="49.529" width="1.904" height="1.904" rx=".952" fill="#FEE36F"/><rect x="222.879" y="49.529" width="1.904" height="1.904" rx=".952" fill="#FEE36F"/><rect x="231.135" y="49.529" width="1.904" height="1.904" rx=".952" fill="#FEE36F"/><rect y="57.784" width="1.904" height="1.904" rx=".952" fill="#FEE36F"/><rect x="8.255" y="57.784" width="1.904" height="1.904" rx=".952" fill="#FEE36F"/><rect x="16.51" y="57.784" width="1.904" height="1.904" rx=".952" fill="#FEE36F"/><rect x="24.764" y="57.784" width="1.904" height="1.904" rx=".952" fill="#FEE36F"/><rect x="33.019" y="57.784" width="1.904" height="1.904" rx=".952" fill="#FEE36F"/><rect x="41.274" y="57.784" width="1.904" height="1.904" rx=".952" fill="#FEE36F"/><rect x="49.529" y="57.784" width="1.904" height="1.904" rx=".952" fill="#FEE36F"/><rect x="57.784" y="57.784" width="1.904" height="1.904" rx=".952" fill="#FEE36F"/><rect x="66.038" y="57.784" width="1.904" height="1.904" rx=".952" fill="#FEE36F"/><rect x="74.293" y="57.784" width="1.904" height="1.904" rx=".952" fill="#FEE36F"/><rect x="82.548" y="57.784" width="1.904" height="1.904" rx=".952" fill="#FEE36F"/><rect x="90.803" y="57.784" width="1.904" height="1.904" rx=".952" fill="#FEE36F"/><rect x="99.058" y="57.784" width="1.904" height="1.904" rx=".952" fill="#FEE36F"/><rect x="107.312" y="57.784" width="1.904" height="1.904" rx=".952" fill="#FEE36F"/><rect x="115.567" y="57.784" width="1.904" height="1.904" rx=".952" fill="#FEE36F"/><rect x="123.822" y="57.784" width="1.904" height="1.904" rx=".952" fill="#FEE36F"/><rect x="132.077" y="57.784" width="1.904" height="1.904" rx=".952" fill="#FEE36F"/><rect x="140.332" y="57.784" width="1.904" height="1.904" rx=".952" fill="#FEE36F"/><rect x="148.586" y="57.784" width="1.904" height="1.904" rx=".952" fill="#FEE36F"/><rect x="156.841" y="57.784" width="1.904" height="1.904" rx=".952" fill="#FEE36F"/><rect x="165.096" y="57.784" width="1.904" height="1.904" rx=".952" fill="#FEE36F"/><rect x="173.351" y="57.784" width="1.904" height="1.904" rx=".952" fill="#FEE36F"/><rect x="181.606" y="57.784" width="1.904" height="1.904" rx=".952" fill="#FEE36F"/><rect x="189.86" y="57.784" width="1.904" height="1.904" rx=".952" fill="#FEE36F"/><rect x="198.115" y="57.784" width="1.904" height="1.904" rx=".952" fill="#FEE36F"/><rect x="206.37" y="57.784" width="1.904" height="1.904" rx=".952" fill="#FEE36F"/><rect x="214.625" y="57.784" width="1.904" height="1.904" rx=".952" fill="#FEE36F"/><rect x="222.879" y="57.784" width="1.904" height="1.904" rx=".952" fill="#FEE36F"/><rect x="231.135" y="57.784" width="1.904" height="1.904" rx=".952" fill="#FEE36F"/><rect y="66.039" width="1.904" height="1.904" rx=".952" fill="#FEE36F"/><rect x="8.255" y="66.039" width="1.904" height="1.904" rx=".952" fill="#FEE36F"/><rect x="16.51" y="66.039" width="1.904" height="1.904" rx=".952" fill="#FEE36F"/><rect x="24.764" y="66.039" width="1.904" height="1.904" rx=".952" fill="#FEE36F"/><rect x="33.019" y="66.039" width="1.904" height="1.904" rx=".952" fill="#FEE36F"/><rect x="41.274" y="66.039" width="1.904" height="1.904" rx=".952" fill="#FEE36F"/><rect x="49.529" y="66.039" width="1.904" height="1.904" rx=".952" fill="#FEE36F"/><rect x="57.784" y="66.039" width="1.904" height="1.904" rx=".952" fill="#FEE36F"/><rect x="66.038" y="66.039" width="1.904" height="1.904" rx=".952" fill="#FEE36F"/><rect x="74.293" y="66.039" width="1.904" height="1.904" rx=".952" fill="#FEE36F"/><rect x="82.548" y="66.039" width="1.904" height="1.904" rx=".952" fill="#FEE36F"/><rect x="90.803" y="66.039" width="1.904" height="1.904" rx=".952" fill="#FEE36F"/><rect x="99.058" y="66.039" width="1.904" height="1.904" rx=".952" fill="#FEE36F"/><rect x="107.312" y="66.039" width="1.904" height="1.904" rx=".952" fill="#FEE36F"/><rect x="115.567" y="66.039" width="1.904" height="1.904" rx=".952" fill="#FEE36F"/><rect x="123.822" y="66.039" width="1.904" height="1.904" rx=".952" fill="#FEE36F"/><rect x="132.077" y="66.039" width="1.904" height="1.904" rx=".952" fill="#FEE36F"/><rect x="140.332" y="66.039" width="1.904" height="1.904" rx=".952" fill="#FEE36F"/><rect x="148.586" y="66.039" width="1.904" height="1.904" rx=".952" fill="#FEE36F"/><rect x="156.841" y="66.039" width="1.904" height="1.904" rx=".952" fill="#FEE36F"/><rect x="165.096" y="66.039" width="1.904" height="1.904" rx=".952" fill="#FEE36F"/><rect x="173.351" y="66.039" width="1.904" height="1.904" rx=".952" fill="#FEE36F"/><rect x="181.606" y="66.039" width="1.904" height="1.904" rx=".952" fill="#FEE36F"/><rect x="189.86" y="66.039" width="1.904" height="1.904" rx=".952" fill="#FEE36F"/><rect x="198.115" y="66.039" width="1.904" height="1.904" rx=".952" fill="#FEE36F"/><rect x="206.37" y="66.039" width="1.904" height="1.904" rx=".952" fill="#FEE36F"/><rect x="214.625" y="66.039" width="1.904" height="1.904" rx=".952" fill="#FEE36F"/><rect x="222.879" y="66.039" width="1.904" height="1.904" rx=".952" fill="#FEE36F"/><rect x="231.135" y="66.039" width="1.904" height="1.904" rx=".952" fill="#FEE36F"/><rect y="74.293" width="1.904" height="1.904" rx=".952" fill="#FEE36F"/><rect x="8.255" y="74.293" width="1.904" height="1.904" rx=".952" fill="#FEE36F"/><rect x="16.51" y="74.293" width="1.904" height="1.904" rx=".952" fill="#FEE36F"/><rect x="24.764" y="74.293" width="1.904" height="1.904" rx=".952" fill="#FEE36F"/><rect x="33.019" y="74.293" width="1.904" height="1.904" rx=".952" fill="#FEE36F"/><rect x="41.274" y="74.293" width="1.904" height="1.904" rx=".952" fill="#FEE36F"/><rect x="49.529" y="74.293" width="1.904" height="1.904" rx=".952" fill="#FEE36F"/><rect x="57.784" y="74.293" width="1.904" height="1.904" rx=".952" fill="#FEE36F"/><rect x="66.038" y="74.293" width="1.904" height="1.904" rx=".952" fill="#FEE36F"/><rect x="74.293" y="74.293" width="1.904" height="1.904" rx=".952" fill="#FEE36F"/><rect x="82.548" y="74.293" width="1.904" height="1.904" rx=".952" fill="#FEE36F"/><rect x="90.803" y="74.293" width="1.904" height="1.904" rx=".952" fill="#FEE36F"/><rect x="99.058" y="74.293" width="1.904" height="1.904" rx=".952" fill="#FEE36F"/><rect x="107.312" y="74.293" width="1.904" height="1.904" rx=".952" fill="#FEE36F"/><rect x="115.567" y="74.293" width="1.904" height="1.904" rx=".952" fill="#FEE36F"/><rect x="123.822" y="74.293" width="1.904" height="1.904" rx=".952" fill="#FEE36F"/><rect x="132.077" y="74.293" width="1.904" height="1.904" rx=".952" fill="#FEE36F"/><rect x="140.332" y="74.293" width="1.904" height="1.904" rx=".952" fill="#FEE36F"/><rect x="148.586" y="74.293" width="1.904" height="1.904" rx=".952" fill="#FEE36F"/><rect x="156.841" y="74.293" width="1.904" height="1.904" rx=".952" fill="#FEE36F"/><rect x="165.096" y="74.293" width="1.904" height="1.904" rx=".952" fill="#FEE36F"/><rect x="173.351" y="74.293" width="1.904" height="1.904" rx=".952" fill="#FEE36F"/><rect x="181.606" y="74.293" width="1.904" height="1.904" rx=".952" fill="#FEE36F"/><rect x="189.86" y="74.293" width="1.904" height="1.904" rx=".952" fill="#FEE36F"/><rect x="198.115" y="74.293" width="1.904" height="1.904" rx=".952" fill="#FEE36F"/><rect x="206.37" y="74.293" width="1.904" height="1.904" rx=".952" fill="#FEE36F"/><rect x="214.625" y="74.293" width="1.904" height="1.904" rx=".952" fill="#FEE36F"/><rect x="222.879" y="74.293" width="1.904" height="1.904" rx=".952" fill="#FEE36F"/><rect x="231.135" y="74.293" width="1.904" height="1.904" rx=".952" fill="#FEE36F"/><rect y="82.548" width="1.904" height="1.904" rx=".952" fill="#FEE36F"/><rect x="8.255" y="82.548" width="1.904" height="1.904" rx=".952" fill="#FEE36F"/><rect x="16.51" y="82.548" width="1.904" height="1.904" rx=".952" fill="#FEE36F"/><rect x="24.764" y="82.548" width="1.904" height="1.904" rx=".952" fill="#FEE36F"/><rect x="33.019" y="82.548" width="1.904" height="1.904" rx=".952" fill="#FEE36F"/><rect x="41.274" y="82.548" width="1.904" height="1.904" rx=".952" fill="#FEE36F"/><rect x="49.529" y="82.548" width="1.904" height="1.904" rx=".952" fill="#FEE36F"/><rect x="57.784" y="82.548" width="1.904" height="1.904" rx=".952" fill="#FEE36F"/><rect x="66.038" y="82.548" width="1.904" height="1.904" rx=".952" fill="#FEE36F"/><rect x="74.293" y="82.548" width="1.904" height="1.904" rx=".952" fill="#FEE36F"/><rect x="82.548" y="82.548" width="1.904" height="1.904" rx=".952" fill="#FEE36F"/><rect x="90.803" y="82.548" width="1.904" height="1.904" rx=".952" fill="#FEE36F"/><rect x="99.058" y="82.548" width="1.904" height="1.904" rx=".952" fill="#FEE36F"/><rect x="107.312" y="82.548" width="1.904" height="1.904" rx=".952" fill="#FEE36F"/><rect x="115.567" y="82.548" width="1.904" height="1.904" rx=".952" fill="#FEE36F"/><rect x="123.822" y="82.548" width="1.904" height="1.904" rx=".952" fill="#FEE36F"/><rect x="132.077" y="82.548" width="1.904" height="1.904" rx=".952" fill="#FEE36F"/><rect x="140.332" y="82.548" width="1.904" height="1.904" rx=".952" fill="#FEE36F"/><rect y="90.803" width="1.904" height="1.904" rx=".952" fill="#FEE36F"/><rect x="8.255" y="90.803" width="1.904" height="1.904" rx=".952" fill="#FEE36F"/><rect x="16.51" y="90.803" width="1.904" height="1.904" rx=".952" fill="#FEE36F"/><rect x="24.764" y="90.803" width="1.904" height="1.904" rx=".952" fill="#FEE36F"/><rect x="33.019" y="90.803" width="1.904" height="1.904" rx=".952" fill="#FEE36F"/><rect x="41.274" y="90.803" width="1.904" height="1.904" rx=".952" fill="#FEE36F"/><rect x="49.529" y="90.803" width="1.904" height="1.904" rx=".952" fill="#FEE36F"/><rect x="57.784" y="90.803" width="1.904" height="1.904" rx=".952" fill="#FEE36F"/><rect x="66.038" y="90.803" width="1.904" height="1.904" rx=".952" fill="#FEE36F"/><rect x="74.293" y="90.803" width="1.904" height="1.904" rx=".952" fill="#FEE36F"/><rect x="82.548" y="90.803" width="1.904" height="1.904" rx=".952" fill="#FEE36F"/><rect x="90.803" y="90.803" width="1.904" height="1.904" rx=".952" fill="#FEE36F"/><rect x="99.058" y="90.803" width="1.904" height="1.904" rx=".952" fill="#FEE36F"/><rect x="107.312" y="90.803" width="1.904" height="1.904" rx=".952" fill="#FEE36F"/><rect x="115.567" y="90.803" width="1.904" height="1.904" rx=".952" fill="#FEE36F"/><rect x="123.822" y="90.803" width="1.904" height="1.904" rx=".952" fill="#FEE36F"/><rect x="132.077" y="90.803" width="1.904" height="1.904" rx=".952" fill="#FEE36F"/><rect x="140.332" y="90.803" width="1.904" height="1.904" rx=".952" fill="#FEE36F"/><rect y="99.058" width="1.904" height="1.904" rx=".952" fill="#FEE36F"/><rect x="8.255" y="99.058" width="1.904" height="1.904" rx=".952" fill="#FEE36F"/><rect x="16.51" y="99.058" width="1.904" height="1.904" rx=".952" fill="#FEE36F"/><rect x="24.764" y="99.058" width="1.904" height="1.904" rx=".952" fill="#FEE36F"/><rect x="33.019" y="99.058" width="1.904" height="1.904" rx=".952" fill="#FEE36F"/><rect x="41.274" y="99.058" width="1.904" height="1.904" rx=".952" fill="#FEE36F"/><rect x="49.529" y="99.058" width="1.904" height="1.904" rx=".952" fill="#FEE36F"/><rect x="57.784" y="99.058" width="1.904" height="1.904" rx=".952" fill="#FEE36F"/><rect x="66.038" y="99.058" width="1.904" height="1.904" rx=".952" fill="#FEE36F"/><rect x="74.293" y="99.058" width="1.904" height="1.904" rx=".952" fill="#FEE36F"/><rect x="82.548" y="99.058" width="1.904" height="1.904" rx=".952" fill="#FEE36F"/><rect x="90.803" y="99.058" width="1.904" height="1.904" rx=".952" fill="#FEE36F"/><rect x="99.058" y="99.058" width="1.904" height="1.904" rx=".952" fill="#FEE36F"/><rect x="107.312" y="99.058" width="1.904" height="1.904" rx=".952" fill="#FEE36F"/><rect x="115.567" y="99.058" width="1.904" height="1.904" rx=".952" fill="#FEE36F"/><rect x="123.822" y="99.058" width="1.904" height="1.904" rx=".952" fill="#FEE36F"/><rect x="132.077" y="99.058" width="1.904" height="1.904" rx=".952" fill="#FEE36F"/><rect x="140.332" y="99.058" width="1.904" height="1.904" rx=".952" fill="#FEE36F"/><rect y="107.313" width="1.904" height="1.904" rx=".952" fill="#FEE36F"/><rect x="8.255" y="107.313" width="1.904" height="1.904" rx=".952" fill="#FEE36F"/><rect x="16.51" y="107.313" width="1.904" height="1.904" rx=".952" fill="#FEE36F"/><rect x="24.764" y="107.313" width="1.904" height="1.904" rx=".952" fill="#FEE36F"/><rect x="33.019" y="107.313" width="1.904" height="1.904" rx=".952" fill="#FEE36F"/><rect x="41.274" y="107.313" width="1.904" height="1.904" rx=".952" fill="#FEE36F"/><rect x="49.529" y="107.313" width="1.904" height="1.904" rx=".952" fill="#FEE36F"/><rect x="57.784" y="107.313" width="1.904" height="1.904" rx=".952" fill="#FEE36F"/><rect x="66.038" y="107.313" width="1.904" height="1.904" rx=".952" fill="#FEE36F"/><rect x="74.293" y="107.313" width="1.904" height="1.904" rx=".952" fill="#FEE36F"/><rect x="82.548" y="107.313" width="1.904" height="1.904" rx=".952" fill="#FEE36F"/><rect x="90.803" y="107.313" width="1.904" height="1.904" rx=".952" fill="#FEE36F"/><rect x="99.058" y="107.313" width="1.904" height="1.904" rx=".952" fill="#FEE36F"/><rect x="107.312" y="107.313" width="1.904" height="1.904" rx=".952" fill="#FEE36F"/><rect x="115.567" y="107.313" width="1.904" height="1.904" rx=".952" fill="#FEE36F"/><rect x="123.822" y="107.313" width="1.904" height="1.904" rx=".952" fill="#FEE36F"/><rect x="132.077" y="107.313" width="1.904" height="1.904" rx=".952" fill="#FEE36F"/><rect x="140.332" y="107.313" width="1.904" height="1.904" rx=".952" fill="#FEE36F"/><rect y="115.567" width="1.904" height="1.904" rx=".952" fill="#FEE36F"/><rect x="8.255" y="115.567" width="1.904" height="1.904" rx=".952" fill="#FEE36F"/><rect x="16.51" y="115.567" width="1.904" height="1.904" rx=".952" fill="#FEE36F"/><rect x="24.764" y="115.567" width="1.904" height="1.904" rx=".952" fill="#FEE36F"/><rect x="33.019" y="115.567" width="1.904" height="1.904" rx=".952" fill="#FEE36F"/><rect x="41.274" y="115.567" width="1.904" height="1.904" rx=".952" fill="#FEE36F"/><rect x="49.529" y="115.567" width="1.904" height="1.904" rx=".952" fill="#FEE36F"/><rect x="57.784" y="115.567" width="1.904" height="1.904" rx=".952" fill="#FEE36F"/><rect x="66.038" y="115.567" width="1.904" height="1.904" rx=".952" fill="#FEE36F"/><rect x="74.293" y="115.567" width="1.904" height="1.904" rx=".952" fill="#FEE36F"/><rect x="82.548" y="115.567" width="1.904" height="1.904" rx=".952" fill="#FEE36F"/><rect x="90.803" y="115.567" width="1.904" height="1.904" rx=".952" fill="#FEE36F"/><rect x="99.058" y="115.567" width="1.904" height="1.904" rx=".952" fill="#FEE36F"/><rect x="107.312" y="115.567" width="1.904" height="1.904" rx=".952" fill="#FEE36F"/><rect x="115.567" y="115.567" width="1.904" height="1.904" rx=".952" fill="#FEE36F"/><rect x="123.822" y="115.567" width="1.904" height="1.904" rx=".952" fill="#FEE36F"/><rect x="132.077" y="115.567" width="1.904" height="1.904" rx=".952" fill="#FEE36F"/><rect x="140.332" y="115.567" width="1.904" height="1.904" rx=".952" fill="#FEE36F"/><rect y="123.822" width="1.904" height="1.904" rx=".952" fill="#FEE36F"/><rect x="8.255" y="123.822" width="1.904" height="1.904" rx=".952" fill="#FEE36F"/><rect x="16.51" y="123.822" width="1.904" height="1.904" rx=".952" fill="#FEE36F"/><rect x="24.764" y="123.822" width="1.904" height="1.904" rx=".952" fill="#FEE36F"/><rect x="33.019" y="123.822" width="1.904" height="1.904" rx=".952" fill="#FEE36F"/><rect x="41.274" y="123.822" width="1.904" height="1.904" rx=".952" fill="#FEE36F"/><rect x="49.529" y="123.822" width="1.904" height="1.904" rx=".952" fill="#FEE36F"/><rect x="57.784" y="123.822" width="1.904" height="1.904" rx=".952" fill="#FEE36F"/><rect x="66.038" y="123.822" width="1.904" height="1.904" rx=".952" fill="#FEE36F"/><rect x="74.293" y="123.822" width="1.904" height="1.904" rx=".952" fill="#FEE36F"/><rect x="82.548" y="123.822" width="1.904" height="1.904" rx=".952" fill="#FEE36F"/><rect x="90.803" y="123.822" width="1.904" height="1.904" rx=".952" fill="#FEE36F"/><rect x="99.058" y="123.822" width="1.904" height="1.904" rx=".952" fill="#FEE36F"/><rect x="107.312" y="123.822" width="1.904" height="1.904" rx=".952" fill="#FEE36F"/><rect x="115.567" y="123.822" width="1.904" height="1.904" rx=".952" fill="#FEE36F"/><rect x="123.822" y="123.822" width="1.904" height="1.904" rx=".952" fill="#FEE36F"/><rect x="132.077" y="123.822" width="1.904" height="1.904" rx=".952" fill="#FEE36F"/><rect x="140.332" y="123.822" width="1.904" height="1.904" rx=".952" fill="#FEE36F"/><rect y="132.077" width="1.904" height="1.904" rx=".952" fill="#FEE36F"/><rect x="8.255" y="132.077" width="1.904" height="1.904" rx=".952" fill="#FEE36F"/><rect x="16.51" y="132.077" width="1.904" height="1.904" rx=".952" fill="#FEE36F"/><rect x="24.764" y="132.077" width="1.904" height="1.904" rx=".952" fill="#FEE36F"/><rect x="33.019" y="132.077" width="1.904" height="1.904" rx=".952" fill="#FEE36F"/><rect x="41.274" y="132.077" width="1.904" height="1.904" rx=".952" fill="#FEE36F"/><rect x="49.529" y="132.077" width="1.904" height="1.904" rx=".952" fill="#FEE36F"/><rect x="57.784" y="132.077" width="1.904" height="1.904" rx=".952" fill="#FEE36F"/><rect x="66.038" y="132.077" width="1.904" height="1.904" rx=".952" fill="#FEE36F"/><rect x="74.293" y="132.077" width="1.904" height="1.904" rx=".952" fill="#FEE36F"/><rect x="82.548" y="132.077" width="1.904" height="1.904" rx=".952" fill="#FEE36F"/><rect x="90.803" y="132.077" width="1.904" height="1.904" rx=".952" fill="#FEE36F"/><rect x="99.058" y="132.077" width="1.904" height="1.904" rx=".952" fill="#FEE36F"/><rect x="107.312" y="132.077" width="1.904" height="1.904" rx=".952" fill="#FEE36F"/><rect x="115.567" y="132.077" width="1.904" height="1.904" rx=".952" fill="#FEE36F"/><rect x="123.822" y="132.077" width="1.904" height="1.904" rx=".952" fill="#FEE36F"/><rect x="132.077" y="132.077" width="1.904" height="1.904" rx=".952" fill="#FEE36F"/><rect x="140.332" y="132.077" width="1.904" height="1.904" rx=".952" fill="#FEE36F"/><rect y="140.332" width="1.904" height="1.904" rx=".952" fill="#FEE36F"/><rect x="8.255" y="140.332" width="1.904" height="1.904" rx=".952" fill="#FEE36F"/><rect x="16.51" y="140.332" width="1.904" height="1.904" rx=".952" fill="#FEE36F"/><rect x="24.764" y="140.332" width="1.904" height="1.904" rx=".952" fill="#FEE36F"/><rect x="33.019" y="140.332" width="1.904" height="1.904" rx=".952" fill="#FEE36F"/><rect x="41.274" y="140.332" width="1.904" height="1.904" rx=".952" fill="#FEE36F"/><rect x="49.529" y="140.332" width="1.904" height="1.904" rx=".952" fill="#FEE36F"/><rect x="57.784" y="140.332" width="1.904" height="1.904" rx=".952" fill="#FEE36F"/><rect x="66.038" y="140.332" width="1.904" height="1.904" rx=".952" fill="#FEE36F"/><rect x="74.293" y="140.332" width="1.904" height="1.904" rx=".952" fill="#FEE36F"/><rect x="82.548" y="140.332" width="1.904" height="1.904" rx=".952" fill="#FEE36F"/><rect x="90.803" y="140.332" width="1.904" height="1.904" rx=".952" fill="#FEE36F"/><rect x="99.058" y="140.332" width="1.904" height="1.904" rx=".952" fill="#FEE36F"/><rect x="107.312" y="140.332" width="1.904" height="1.904" rx=".952" fill="#FEE36F"/><rect x="115.567" y="140.332" width="1.904" height="1.904" rx=".952" fill="#FEE36F"/><rect x="123.822" y="140.332" width="1.904" height="1.904" rx=".952" fill="#FEE36F"/><rect x="132.077" y="140.332" width="1.904" height="1.904" rx=".952" fill="#FEE36F"/><rect x="140.332" y="140.332" width="1.904" height="1.904" rx=".952" fill="#FEE36F"/><rect y="148.586" width="1.904" height="1.904" rx=".952" fill="#FEE36F"/><rect x="8.255" y="148.586" width="1.904" height="1.904" rx=".952" fill="#FEE36F"/><rect x="16.51" y="148.586" width="1.904" height="1.904" rx=".952" fill="#FEE36F"/><rect x="24.764" y="148.586" width="1.904" height="1.904" rx=".952" fill="#FEE36F"/><rect x="33.019" y="148.586" width="1.904" height="1.904" rx=".952" fill="#FEE36F"/><rect x="41.274" y="148.586" width="1.904" height="1.904" rx=".952" fill="#FEE36F"/><rect x="49.529" y="148.586" width="1.904" height="1.904" rx=".952" fill="#FEE36F"/><rect x="57.784" y="148.586" width="1.904" height="1.904" rx=".952" fill="#FEE36F"/><rect x="66.038" y="148.586" width="1.904" height="1.904" rx=".952" fill="#FEE36F"/><rect x="74.293" y="148.586" width="1.904" height="1.904" rx=".952" fill="#FEE36F"/><rect x="82.548" y="148.586" width="1.904" height="1.904" rx=".952" fill="#FEE36F"/><rect x="90.803" y="148.586" width="1.904" height="1.904" rx=".952" fill="#FEE36F"/><rect x="99.058" y="148.586" width="1.904" height="1.904" rx=".952" fill="#FEE36F"/><rect x="107.312" y="148.586" width="1.904" height="1.904" rx=".952" fill="#FEE36F"/><rect x="115.567" y="148.586" width="1.904" height="1.904" rx=".952" fill="#FEE36F"/><rect x="123.822" y="148.586" width="1.904" height="1.904" rx=".952" fill="#FEE36F"/><rect x="132.077" y="148.586" width="1.904" height="1.904" rx=".952" fill="#FEE36F"/><rect x="140.332" y="148.586" width="1.904" height="1.904" rx=".952" fill="#FEE36F"/><rect y="156.842" width="1.904" height="1.904" rx=".952" fill="#FEE36F"/><rect x="8.255" y="156.842" width="1.904" height="1.904" rx=".952" fill="#FEE36F"/><rect x="16.51" y="156.842" width="1.904" height="1.904" rx=".952" fill="#FEE36F"/><rect x="24.764" y="156.842" width="1.904" height="1.904" rx=".952" fill="#FEE36F"/><rect x="33.019" y="156.842" width="1.904" height="1.904" rx=".952" fill="#FEE36F"/><rect x="41.274" y="156.842" width="1.904" height="1.904" rx=".952" fill="#FEE36F"/><rect x="49.529" y="156.842" width="1.904" height="1.904" rx=".952" fill="#FEE36F"/><rect x="57.784" y="156.842" width="1.904" height="1.904" rx=".952" fill="#FEE36F"/><rect x="66.038" y="156.842" width="1.904" height="1.904" rx=".952" fill="#FEE36F"/><rect x="74.293" y="156.842" width="1.904" height="1.904" rx=".952" fill="#FEE36F"/><rect x="82.548" y="156.842" width="1.904" height="1.904" rx=".952" fill="#FEE36F"/><rect x="90.803" y="156.842" width="1.904" height="1.904" rx=".952" fill="#FEE36F"/><rect x="99.058" y="156.842" width="1.904" height="1.904" rx=".952" fill="#FEE36F"/><rect x="107.312" y="156.842" width="1.904" height="1.904" rx=".952" fill="#FEE36F"/><rect x="115.567" y="156.842" width="1.904" height="1.904" rx=".952" fill="#FEE36F"/><rect x="123.822" y="156.842" width="1.904" height="1.904" rx=".952" fill="#FEE36F"/><rect x="132.077" y="156.842" width="1.904" height="1.904" rx=".952" fill="#FEE36F"/><rect x="140.332" y="156.842" width="1.904" height="1.904" rx=".952" fill="#FEE36F"/><rect y="165.096" width="1.904" height="1.904" rx=".952" fill="#FEE36F"/><rect x="8.255" y="165.096" width="1.904" height="1.904" rx=".952" fill="#FEE36F"/><rect x="16.51" y="165.096" width="1.904" height="1.904" rx=".952" fill="#FEE36F"/><rect x="24.764" y="165.096" width="1.904" height="1.904" rx=".952" fill="#FEE36F"/><rect x="33.019" y="165.096" width="1.904" height="1.904" rx=".952" fill="#FEE36F"/><rect x="41.274" y="165.096" width="1.904" height="1.904" rx=".952" fill="#FEE36F"/><rect x="49.529" y="165.096" width="1.904" height="1.904" rx=".952" fill="#FEE36F"/><rect x="57.784" y="165.096" width="1.904" height="1.904" rx=".952" fill="#FEE36F"/><rect x="66.038" y="165.096" width="1.904" height="1.904" rx=".952" fill="#FEE36F"/><rect x="74.293" y="165.096" width="1.904" height="1.904" rx=".952" fill="#FEE36F"/><rect x="82.548" y="165.096" width="1.904" height="1.904" rx=".952" fill="#FEE36F"/><rect x="90.803" y="165.096" width="1.904" height="1.904" rx=".952" fill="#FEE36F"/><rect x="99.058" y="165.096" width="1.904" height="1.904" rx=".952" fill="#FEE36F"/><rect x="107.312" y="165.096" width="1.904" height="1.904" rx=".952" fill="#FEE36F"/><rect x="115.567" y="165.096" width="1.904" height="1.904" rx=".952" fill="#FEE36F"/><rect x="123.822" y="165.096" width="1.904" height="1.904" rx=".952" fill="#FEE36F"/><rect x="132.077" y="165.096" width="1.904" height="1.904" rx=".952" fill="#FEE36F"/><rect x="140.332" y="165.096" width="1.904" height="1.904" rx=".952" fill="#FEE36F"/></svg>