<svg width="169" height="62" viewBox="0 0 169 62" fill="none" xmlns="http://www.w3.org/2000/svg">
<path fill-rule="evenodd" clip-rule="evenodd" d="M43.0146 12.2165C46.8601 14.5693 49.884 19.0953 51.2985 24.6919C51.3484 24.8895 51.5393 25.0161 51.7357 24.9785C57.2687 23.925 62.1639 22.2827 65.911 20.1687C66.1495 20.0342 66.174 19.6883 65.9563 19.5204C64.8443 18.6618 63.6075 17.8471 62.2514 17.0843C60.3136 15.9947 58.193 15.0468 55.9308 14.2474V11.1873C55.9308 11.1806 55.9302 11.174 55.9295 11.1675L55.9282 11.1576L55.927 11.148C55.9264 11.1436 55.926 11.1392 55.9258 11.1347V9.81608C55.9258 8.048 57.3325 6.60924 59.0623 6.60924H61.5168C61.5239 6.60924 61.5307 6.60824 61.5374 6.60726C61.5428 6.60648 61.5481 6.60571 61.5534 6.60544C61.5592 6.60572 61.5647 6.60651 61.5702 6.6073L61.5798 6.60857C61.5834 6.60897 61.587 6.60924 61.5907 6.60924C62.0732 6.60924 62.4642 6.20962 62.4642 5.71616V0.892923C62.4642 0.399621 62.0732 0 61.5907 0H44.6423C44.1597 0 43.7682 0.399621 43.7682 0.892923V5.71616C43.7682 6.20962 44.1597 6.60924 44.6423 6.60924C44.6586 6.60924 44.6741 6.60709 44.6898 6.60493C44.698 6.60379 44.7063 6.60264 44.7148 6.6018C44.7229 6.60262 44.731 6.60373 44.739 6.60484C44.7549 6.60704 44.7709 6.60924 44.7874 6.60924H47.2423C48.9715 6.60924 50.3784 8.048 50.3784 9.81608V11.1803C50.3784 11.1826 50.378 11.1848 50.378 11.1873V12.6524C48.0863 12.1308 45.6998 11.7418 43.2455 11.4979C42.8432 11.458 42.6677 12.0046 43.0146 12.2165ZM54.1785 9.81608V11.4774C54.1785 11.4873 54.1797 11.4969 54.181 11.5065V11.5065L54.182 11.5146C54.1826 11.5194 54.1831 11.5244 54.1834 11.5293V13.6712L54.0716 13.6365L54.0714 13.6364C53.9161 13.5881 53.7611 13.5399 53.6044 13.4931V9.22621C53.7733 7.55895 54.8877 6.17804 56.387 5.64389C55.0588 6.53742 54.1785 8.07259 54.1785 9.81608ZM60.7168 1.786V4.68917H57.7549C55.7118 4.68917 53.9612 5.98278 53.2383 7.80977C52.5154 5.98278 50.7651 4.68917 48.7222 4.68917H45.5158V1.786H60.7168ZM52.125 11.4844L52.1251 11.4824C52.1254 11.4807 52.1259 11.479 52.1259 11.4774V9.81608C52.1259 8.00169 51.1707 6.41459 49.7507 5.54049C51.5143 5.99994 52.8301 7.60662 52.889 9.53656C52.8884 9.55596 52.8871 9.57519 52.8857 9.59439L52.8857 9.59451C52.884 9.61976 52.8822 9.64497 52.8822 9.67047V13.2873L52.819 13.2695C52.5884 13.2048 52.3581 13.1402 52.125 13.0791V11.4844ZM37.7807 51.2349C43.4376 50.6828 48.2118 45.7398 50.2592 38.9055C50.3392 38.6386 50.1558 38.3614 49.872 38.3184C46.0293 37.7348 41.9322 37.4047 37.7301 37.3589C37.4627 37.3558 37.2432 37.5661 37.2432 37.8249V50.7739C37.2432 51.0521 37.4944 51.2627 37.7807 51.2349ZM50.2781 24.8187C46.2815 25.4899 41.9901 25.8673 37.5832 25.9104C37.3964 25.9123 37.2432 25.7586 37.2432 25.5698V11.1045C43.2896 11.4066 48.3918 17.0546 50.2781 24.8187ZM65.8234 43.2833C61.9999 41.2524 57.0466 39.6777 51.4688 38.6685C51.3182 38.6412 51.172 38.7333 51.1313 38.8788C49.605 44.356 46.4438 48.7428 42.4635 50.9408C42.1829 51.0954 42.3116 51.517 42.6314 51.4881C44.659 51.3067 46.6414 51.0298 48.5664 50.6677C46.7673 53.2211 43.8287 54.7608 40.6159 54.7608H40.0112C36.5497 54.7608 33.5075 52.957 31.7925 50.2523C33.0059 50.8596 34.2931 51.2523 35.6326 51.3842C35.9062 51.4111 36.1416 51.1893 36.1416 50.9175V37.8627C36.1416 37.6018 35.9248 37.3898 35.6607 37.3931C33.856 37.4129 32.0722 37.4919 30.3173 37.6187V36.5973C32.0772 36.4708 33.8657 36.3937 35.674 36.3737C35.9326 36.371 36.1416 36.1644 36.1416 35.9086V27.4844C36.1416 27.229 35.9326 27.0224 35.674 27.0197C33.8657 26.9997 32.0772 26.9225 30.3173 26.7966V25.7742C32.1021 25.9033 33.917 25.9826 35.7535 26.0012C35.9668 26.0032 36.1416 25.832 36.1416 25.6218V11.4546C34.0564 11.5582 32.0864 12.2869 30.3173 13.4973V12.2623C30.5999 12.0871 30.8864 11.9211 31.1777 11.7692C31.3909 11.658 31.2907 11.3369 31.0503 11.3575C30.9004 11.37 30.7518 11.3852 30.6032 11.4005C30.508 11.4102 30.4128 11.42 30.3173 11.429V11.4132C30.3173 11.412 30.3174 11.4108 30.3176 11.4097L30.3179 11.4063V9.77263C30.3179 8.03336 31.75 6.61873 33.5098 6.61873H36.0083C36.0129 6.61873 36.0171 6.61804 36.0215 6.61734L36.0284 6.61634C36.0307 6.61607 36.0331 6.61589 36.0355 6.61589C36.0401 6.61589 36.0444 6.61658 36.0488 6.61728C36.0533 6.618 36.0578 6.61873 36.0627 6.61873C36.5538 6.61873 36.9517 6.22509 36.9517 5.7399V0.996051C36.9517 0.51072 36.5538 0.117676 36.0627 0.117676H10.323C9.83195 0.117676 9.43417 0.51072 9.43417 0.996051V5.7399C9.43417 6.22509 9.83195 6.61873 10.323 6.61873L10.3259 6.61851L10.3279 6.6182C10.3295 6.61794 10.3311 6.61768 10.3328 6.61768C10.3344 6.61768 10.3359 6.61794 10.3375 6.6182C10.3392 6.61846 10.3408 6.61873 10.3425 6.61873H12.8404C14.6007 6.61873 16.0325 8.03336 16.0325 9.77263V11.0214C16.0325 11.0241 16.032 11.0267 16.0316 11.0295C16.0311 11.0323 16.0307 11.0352 16.0307 11.0382V14.6133C14.2287 15.2909 12.5224 16.0603 10.9378 16.9213C9.59936 17.6487 8.37533 18.4244 7.2704 19.2408C6.99443 19.4446 7.03448 19.8624 7.33735 20.0252C9.79916 21.3508 12.7472 22.4814 16.0307 23.3949V24.4502C12.1074 23.3809 8.63649 22.0072 5.85897 20.3696L5.85695 20.3676C5.85593 20.3665 5.85494 20.3655 5.85383 20.365C2.04332 23.6188 0 27.4305 0 31.4384C0 35.4852 2.08261 39.3321 5.96552 42.6075C6.11605 42.7347 6.33202 42.7543 6.50461 42.6581C9.16742 41.1809 12.4051 39.9314 16.0307 38.9422V39.9961C12.9299 40.858 10.1288 41.9143 7.75403 43.1451C7.43846 43.3089 7.40884 43.739 7.69826 43.9446C8.68909 44.6478 9.76923 45.3201 10.9378 45.9554C12.8616 47.0007 14.9631 47.9122 17.202 48.6858C17.3064 48.7217 17.4111 48.7168 17.5051 48.6853C20.5511 56.2005 27.9921 61.5254 36.6729 61.5254H37.1598C45.11 61.5254 52.2311 56.5522 54.8806 49.1499C54.8828 49.1438 54.8845 49.1376 54.886 49.1314L54.8876 49.1242L54.8895 49.1151L54.8895 49.115C54.8913 49.1068 54.893 49.0985 54.8953 49.0903C57.595 48.2366 60.1131 47.1893 62.3834 45.9554C63.6454 45.2695 64.8038 44.5407 65.858 43.7758C66.0319 43.6495 66.0135 43.3841 65.8234 43.2833ZM28.5395 9.77263V11.0309L28.5393 11.0347L28.539 11.0382V45.1818C28.539 51.4324 33.6857 56.5175 40.0112 56.5175H40.6159C44.9619 56.5175 48.8841 54.1374 50.8525 50.3056C50.8727 50.2669 50.8863 50.2268 50.8999 50.1865L50.902 50.1803C50.9932 50.159 51.0838 50.1371 51.1745 50.1151C51.2282 50.1021 51.282 50.0891 51.3359 50.0762C48.9329 55.0434 43.9067 58.2053 38.269 58.2053H37.9688C29.979 58.2053 23.4781 51.7823 23.4781 43.8875V13.5151V11.0551V11.0287C23.4781 11.0051 23.4764 10.982 23.4748 10.9587C23.4735 10.9393 23.4721 10.9198 23.4717 10.8999C23.5418 7.87417 26.0499 5.43243 29.1289 5.43243H31.1902C29.6159 6.25749 28.5395 7.89239 28.5395 9.77263ZM35.1733 1.87472V4.72967H29.1289C26.3494 4.72967 23.9863 6.49911 23.1162 8.95504C22.2459 6.49911 19.8826 4.72967 17.1037 4.72967H11.2124V1.87472H35.1733ZM37.1598 59.7682H36.6729C26.2714 59.7682 17.8089 51.4064 17.8089 41.1289V11.4237C17.8089 11.4207 17.8094 11.4178 17.8098 11.4149V11.4149C17.8103 11.412 17.8107 11.4092 17.8107 11.4063V9.77263C17.8107 7.89239 16.735 6.25749 15.1601 5.43243H17.1037C20.1826 5.43243 22.6903 7.87417 22.7603 10.8999C22.76 10.9202 22.7586 10.94 22.7572 10.9599C22.7556 10.9827 22.754 11.0055 22.754 11.0287V13.5151C22.754 13.53 22.7577 13.5437 22.7615 13.5574L22.7636 13.5655C22.7648 13.57 22.7659 13.5746 22.7668 13.5793V43.8875C22.7668 52.17 29.5867 58.908 37.9688 58.908H38.269C44.3793 58.908 49.8075 55.3696 52.2207 49.8573C52.3946 49.8126 52.5672 49.7656 52.74 49.7191C50.0454 55.7777 43.9354 59.7682 37.1598 59.7682ZM66.7143 20.4458C66.9592 20.3041 67.2679 20.3319 67.4778 20.5221C71.003 23.7125 72.8891 27.4154 72.8891 31.3029C72.8891 35.3225 70.8735 39.1456 67.1128 42.4081C66.9046 42.5885 66.6067 42.6152 66.3665 42.4807C62.5644 40.3554 57.6066 38.6998 52.008 37.6298C51.6475 37.5611 51.4161 37.2121 51.4875 36.8507C51.8362 35.0821 52.0233 33.2222 52.0233 31.3029C52.0233 29.5585 51.8661 27.865 51.5753 26.243C51.5112 25.8853 51.7422 25.5445 52.0971 25.476C57.8307 24.3725 62.8885 22.6548 66.7143 20.4458ZM37.713 36.1878C41.9968 36.2332 46.1763 36.5717 50.0952 37.1704C50.3447 37.2087 50.5826 37.0549 50.6342 36.8177C51.0079 35.0909 51.2091 33.2667 51.2091 31.3799C51.2091 29.6727 51.0418 28.0178 50.7333 26.4389C50.6861 26.1972 50.445 26.0387 50.1912 26.0777C46.2451 26.6859 42.0321 27.0298 37.713 27.0756C37.4529 27.0782 37.2432 27.2794 37.2432 27.5283V35.7346C37.2432 35.9838 37.4529 36.185 37.713 36.1878ZM83.6992 27.3341L83.7513 28.4262C83.7513 28.4262 85.5947 28.3423 86.6174 28.3423C87.6404 28.3423 89.5359 28.4262 89.5359 28.4262L89.588 27.3341L87.8792 26.9272V23.4299C88.1043 23.4875 88.701 23.6197 89.4586 23.6221L93.0626 29.0191L95.2228 28.5349L95.4468 27.7925L91.7151 23.2007C93.0671 22.6861 94.3644 21.622 94 19.2036C93.5825 16.4373 90.7036 16.4799 89.5957 16.4963H89.5955C89.5209 16.4974 89.4544 16.4984 89.3972 16.4984C89.1703 16.4984 88.8555 16.5246 88.4791 16.5558C87.3492 16.6497 85.6648 16.7897 84.1427 16.4062L83.8511 17.5249C83.8511 17.5249 84.3902 17.7785 85.2734 17.976V26.9593L83.6992 27.3341ZM91.2647 20.0434C91.2647 21.1882 90.5934 22.3748 87.8792 21.912V18.1837L87.948 18.1796L87.9482 18.1796C88.0182 18.1754 88.0881 18.1712 88.1602 18.1647C90.6345 17.9335 91.2647 18.8882 91.2647 20.0434ZM112.799 28.3505H113.611C113.714 28.3505 113.899 28.3533 114.164 28.3591C114.409 28.3646 114.666 28.3697 114.936 28.3751L114.938 28.3751L115.002 28.3764C115.295 28.3823 115.572 28.3881 115.831 28.3936C116.09 28.3995 116.255 28.4019 116.324 28.4019C117.119 28.4019 117.81 28.3018 118.397 28.0999C118.985 27.8984 119.486 27.6333 119.901 27.3047C120.315 26.9768 120.655 26.5996 120.92 26.1727C121.185 25.7471 121.39 25.3126 121.534 24.8684C121.678 24.4255 121.779 23.9872 121.837 23.5554C121.894 23.1233 121.922 22.7288 121.922 22.3716C121.922 21.6575 121.824 20.9493 121.629 20.2462C121.433 19.5439 121.107 18.9129 120.652 18.3542C120.197 17.7954 119.589 17.3429 118.829 16.9981C118.069 16.6519 117.13 16.479 116.013 16.479C115.805 16.479 115.601 16.4825 115.399 16.4876C115.198 16.4942 114.991 16.5025 114.777 16.5142C114.564 16.5253 114.328 16.5339 114.069 16.5397C113.809 16.5456 113.518 16.5487 113.196 16.5487H112.574C112.389 16.5487 112.202 16.5456 112.013 16.5397C111.822 16.5339 111.621 16.528 111.407 16.5221C111.194 16.517 110.938 16.5083 110.639 16.4966L110.518 17.5503L111.9 17.9652V26.9509L110.362 27.4172L110.466 28.4019C110.788 28.3909 111.08 28.3823 111.339 28.3764L111.422 28.3745L111.423 28.3745L111.423 28.3745C111.652 28.3693 111.871 28.3644 112.081 28.3591C112.317 28.3533 112.557 28.3505 112.799 28.3505ZM114.527 18.1554C114.653 18.144 114.796 18.1357 114.956 18.1291C115.117 18.1239 115.279 18.1208 115.439 18.1208C115.944 18.1208 116.423 18.1812 116.877 18.3024C117.33 18.4232 117.728 18.6392 118.073 18.9506C118.417 19.2615 118.693 19.6874 118.899 20.2286C119.106 20.7705 119.209 21.4618 119.209 22.3026C119.209 22.89 119.152 23.4578 119.037 24.0048C118.922 24.5519 118.736 25.0358 118.478 25.4561C118.219 25.8765 117.875 26.2106 117.445 26.4584C117.014 26.7062 116.489 26.8298 115.869 26.8298C115.662 26.8298 115.437 26.8208 115.189 26.8039C114.942 26.787 114.721 26.7553 114.527 26.709V18.1554ZM107.266 17.9829L107.231 24.376C107.22 25.2634 107.058 25.9868 106.747 26.5449C106.436 27.104 106.035 27.5413 105.546 27.8581C105.056 28.175 104.512 28.391 103.914 28.506C103.314 28.6209 102.732 28.6789 102.168 28.6789C101.673 28.6789 101.145 28.6209 100.587 28.506C100.028 28.391 99.5126 28.1839 99.0405 27.884C98.568 27.5844 98.1766 27.173 97.8652 26.6484C97.5543 26.1245 97.399 25.4535 97.399 24.6355V18.0175L95.8438 17.5336L95.9304 16.5482C95.9304 16.5482 98.2187 16.6158 99.7086 16.6158C101.199 16.6158 101.581 16.5482 101.581 16.5482L101.632 17.6026L100.025 17.9999V23.9266C100.025 24.3301 100.057 24.7104 100.12 25.0673C100.183 25.4249 100.313 25.739 100.508 26.0092C100.703 26.2798 100.978 26.4959 101.334 26.657C101.69 26.8189 102.161 26.899 102.747 26.899C103.275 26.899 103.714 26.8158 104.064 26.6484C104.415 26.4817 104.691 26.2512 104.891 25.9574C105.093 25.6637 105.233 25.3155 105.313 24.912C105.394 24.5089 105.434 24.0768 105.434 23.616V17.9999L103.931 17.516L104.017 16.5137C104.017 16.5137 106.304 16.5813 107.198 16.5813C108.092 16.5813 108.838 16.5137 108.838 16.5137L108.907 17.5853L107.266 17.9829ZM149.865 31.3492C149.625 31.5942 149.321 31.7167 148.95 31.7167C148.567 31.7167 148.263 31.5942 148.037 31.3492C147.809 31.1038 147.695 30.808 147.695 30.4608C147.695 30.1149 147.818 29.8223 148.063 29.5827C148.308 29.3442 148.604 29.2241 148.95 29.2241C149.321 29.2241 149.625 29.3442 149.865 29.5827C150.104 29.8223 150.224 30.1149 150.224 30.4608C150.224 30.808 150.104 31.1038 149.865 31.3492ZM107.473 30.4609C107.473 30.1151 107.595 29.8217 107.841 29.5829C108.085 29.344 108.381 29.2246 108.727 29.2246C109.099 29.2246 109.402 29.344 109.642 29.5829C109.881 29.8217 110.001 30.1151 110.001 30.4609C110.001 30.8085 109.881 31.1036 109.642 31.349C109.402 31.5937 109.099 31.7169 108.727 31.7169C108.345 31.7169 108.041 31.5937 107.813 31.349C107.586 31.1036 107.473 30.8085 107.473 30.4609ZM92.4299 40.6988V33.0974C92.3585 33.0498 92.3053 33.0197 92.2687 33.0073L89.2926 33.4018V34.1729L90.5299 34.4952V39.9281C90.1371 40.1673 89.733 40.3519 89.3164 40.4838C88.9002 40.6149 88.555 40.6805 88.2813 40.6805C87.7591 40.6805 87.3895 40.5407 87.1755 40.2598C86.9612 39.9785 86.8545 39.5516 86.8545 38.9776C86.8545 37.986 86.8517 37.0027 86.8455 36.0284C86.8393 35.0544 86.8366 34.0773 86.8366 33.0974L86.6737 33.0256L83.6992 33.4198V34.1729C83.9022 34.2326 84.1055 34.2895 84.3091 34.3437C84.512 34.3969 84.7146 34.4535 84.9183 34.5132V39.7483C84.9183 40.657 85.1364 41.2907 85.5726 41.649C86.0089 42.0079 86.6208 42.1871 87.4102 42.1871C87.6732 42.1871 87.969 42.1691 88.2975 42.1325C88.6261 42.0973 88.9343 42.0435 89.2208 41.9717C89.6391 41.601 90.0757 41.2003 90.5299 40.7703C90.5417 40.7823 90.5534 40.7885 90.5658 40.7885L90.9779 42.0973L91.1215 42.1508L93.8105 41.7926V41.0215C93.5717 40.9622 93.3387 40.908 93.1119 40.8603C92.8841 40.8124 92.6574 40.7592 92.4299 40.6988ZM103.869 35.4635C103.869 34.5913 103.66 33.9635 103.239 33.5814C102.82 33.1987 102.208 33.0078 101.405 33.0078C101.129 33.0078 100.826 33.0251 100.496 33.0613C100.166 33.0972 99.852 33.1507 99.5521 33.2228L98.2571 34.4419C98.2454 34.4419 98.2392 34.4384 98.2392 34.4329C98.2392 34.427 98.2336 34.4232 98.2216 34.4232L97.8088 33.1148L97.6479 33.0427C97.2293 33.1148 96.8082 33.1811 96.3837 33.2404C95.9598 33.3005 95.5377 33.3661 95.1198 33.4375V34.1906L96.3568 34.5137V40.7342L94.9941 41.2187L95.0304 41.9711H99.5303L99.5483 41.1825L98.2571 40.8059C98.2454 39.6832 98.2392 38.6785 98.2392 37.7942V35.302C98.6457 35.0756 99.0402 34.8985 99.4227 34.7732C99.8051 34.6483 100.164 34.5855 100.498 34.5855C101.048 34.5855 101.424 34.7197 101.628 34.9882C101.831 35.2571 101.933 35.6785 101.933 36.2521V40.7521L100.641 41.2004L100.66 41.9711H105.088L105.124 41.1825L103.869 40.8059V35.4635ZM109.74 36.9249C109.734 35.6396 109.731 34.3457 109.731 33.0431L109.57 32.9717L106.612 33.4197V34.1724C106.812 34.2325 107.015 34.2894 107.221 34.3429C107.428 34.3971 107.631 34.4534 107.831 34.5134V40.7167L106.433 41.2364C106.433 41.3679 106.435 41.4905 106.442 41.604C106.447 41.7179 106.456 41.8401 106.469 41.9716H111.13C111.13 41.8401 111.132 41.7179 111.139 41.604C111.144 41.4905 111.148 41.3679 111.148 41.2364L109.767 40.806C109.755 39.5035 109.746 38.2095 109.74 36.9249ZM119.389 33.1623C119.675 33.1525 119.948 33.143 120.207 33.1332C120.523 33.1214 120.735 33.1152 120.843 33.1152L120.933 33.9035C120.55 34.2028 120.227 34.5766 119.965 35.0242C119.701 35.4722 119.445 35.9834 119.194 36.5573L116.845 42.0075L115.715 42.2408C115.656 42.121 115.54 41.8577 115.366 41.4514C115.193 41.0456 114.993 40.5734 114.765 40.0353C114.538 39.4972 114.296 38.9205 114.039 38.3051C113.782 37.6901 113.54 37.1134 113.313 36.5753C113.086 36.0376 112.886 35.5685 112.712 35.1681C112.539 34.7674 112.423 34.5017 112.363 34.3702L111.431 34.0471V33.2409L114.461 33.1152C114.484 33.4017 114.541 33.7282 114.631 34.092C114.72 34.4568 114.831 34.8068 114.963 35.1409L116.665 39.6767H116.755C116.779 39.6174 116.839 39.4527 116.935 39.1842L117.014 38.9614L117.015 38.9594L117.016 38.9563C117.093 38.7395 117.179 38.4956 117.276 38.2247L117.697 37.0322C117.846 36.6081 117.986 36.2108 118.118 35.8401C118.249 35.4698 118.362 35.153 118.459 34.89C118.554 34.6273 118.62 34.4596 118.656 34.3881L117.544 34.0295V33.2226C117.652 33.2226 117.864 33.217 118.181 33.2046L118.344 33.1987C118.613 33.189 118.896 33.1788 119.194 33.1691L119.386 33.1624L119.389 33.1623ZM128.592 34.3428C128.317 33.9542 127.938 33.6373 127.453 33.3926C126.969 33.1476 126.332 33.0254 125.544 33.0254C124.695 33.0254 123.996 33.1628 123.447 33.4375C122.896 33.7129 122.46 34.0715 122.138 34.5133C121.814 34.9558 121.588 35.4545 121.456 36.0102C121.324 36.5659 121.259 37.1305 121.259 37.7045C121.259 38.4099 121.337 39.0398 121.492 39.5962C121.647 40.1519 121.893 40.624 122.227 41.0123C122.562 41.4003 122.998 41.6967 123.536 41.8997C124.074 42.103 124.719 42.2044 125.472 42.2044C126.118 42.2044 126.745 42.1085 127.355 41.918C127.965 41.7268 128.496 41.4752 128.95 41.1652L128.61 40.215C128.119 40.4183 127.65 40.5585 127.203 40.6354C126.754 40.7134 126.393 40.7524 126.118 40.7524C125.592 40.7524 125.152 40.6834 124.8 40.5464C124.447 40.4087 124.16 40.2026 123.94 39.9275C123.718 39.6531 123.56 39.3121 123.465 38.9059C123.368 38.4997 123.321 38.0272 123.321 37.4895L129.147 37.1847L129.309 36.9869C129.297 36.5455 129.243 36.0909 129.147 35.6253C129.051 35.1587 128.867 34.7314 128.592 34.3428ZM123.357 36.6473C123.357 36.3957 123.386 36.1303 123.447 35.849C123.506 35.5684 123.61 35.3051 123.76 35.06C123.909 34.8156 124.112 34.612 124.37 34.4505C124.627 34.2896 124.959 34.2085 125.365 34.2085C125.723 34.2085 126.011 34.2714 126.225 34.397C126.44 34.5223 126.608 34.6834 126.727 34.8809C126.847 35.0779 126.927 35.2992 126.97 35.5442C127.011 35.7889 127.032 36.0312 127.032 36.2704L123.357 36.6473ZM136.358 33.0073C136.639 32.9121 136.929 32.8638 137.228 32.8638C137.371 32.8638 137.497 32.9121 137.605 33.0073C137.712 33.1033 137.766 33.2703 137.766 33.5092C137.766 33.796 137.714 34.0949 137.613 34.4055C137.511 34.7165 137.365 34.9916 137.174 35.2308L134.234 35.0154V40.8062L135.633 41.2186L135.614 41.9714H130.953L130.917 41.2186L132.333 40.7164V34.4959L131.096 34.1729V33.4198L133.75 33.0073L133.911 33.0971L134.216 34.352L134.252 34.37C134.431 34.2026 134.631 34.0293 134.853 33.8502C135.074 33.6704 135.31 33.5092 135.561 33.3663C135.811 33.2224 136.078 33.1033 136.358 33.0073ZM144.646 37.7942C144.412 37.5792 144.131 37.3876 143.803 37.2202C143.473 37.0535 143.094 36.8799 142.664 36.7005C142.318 36.5572 142.016 36.4319 141.759 36.3243C141.502 36.2169 141.29 36.1089 141.123 36.0015C140.955 35.8939 140.832 35.7769 140.755 35.6512C140.677 35.5266 140.639 35.3803 140.639 35.2129C140.639 34.8778 140.758 34.6272 140.997 34.4598C141.236 34.2924 141.547 34.2085 141.929 34.2085C142.097 34.2085 142.321 34.2351 142.602 34.2896C142.882 34.3428 143.16 34.4532 143.435 34.621L144.099 36.0733L144.78 36.0015C144.78 35.607 144.783 35.2153 144.789 34.8267C144.795 34.4387 144.797 34.0477 144.797 33.6525C144.344 33.414 143.857 33.2494 143.336 33.16C142.817 33.0699 142.347 33.0254 141.929 33.0254C141.32 33.0254 140.806 33.0941 140.388 33.2314C139.969 33.3692 139.632 33.5514 139.375 33.7781C139.117 34.0056 138.929 34.2682 138.81 34.5671C138.69 34.866 138.63 35.1767 138.63 35.4997C138.63 35.8939 138.711 36.2252 138.873 36.4944C139.034 36.7636 139.249 36.9962 139.518 37.194C139.787 37.3907 140.089 37.564 140.423 37.7138L140.641 37.8113L140.841 37.9006L140.845 37.9026L140.846 37.9028C141.044 37.9913 141.243 38.0807 141.445 38.1704C141.708 38.2902 141.953 38.4006 142.181 38.5028C142.407 38.6039 142.607 38.7147 142.781 38.8345C142.954 38.9532 143.089 39.0944 143.184 39.2552C143.279 39.4167 143.328 39.6114 143.328 39.8378C143.328 40.2565 143.157 40.5585 142.817 40.7431C142.476 40.9288 142.043 41.0216 141.517 41.0216C141.278 41.0216 140.994 40.9826 140.665 40.9046C140.336 40.827 140.047 40.6986 139.796 40.5195L139.025 38.9235C138.929 38.9484 138.824 38.9684 138.711 38.9863C138.597 39.0043 138.493 39.0253 138.397 39.0495L138.541 41.577C138.888 41.7803 139.33 41.939 139.868 42.0522C140.405 42.1658 140.962 42.2227 141.535 42.2227C142.192 42.2227 142.763 42.1534 143.247 42.0163C143.731 41.879 144.128 41.6905 144.439 41.4517C144.75 41.2125 144.98 40.9288 145.129 40.5995C145.279 40.272 145.353 39.9158 145.353 39.533C145.353 39.1389 145.293 38.8048 145.174 38.5294C145.055 38.2543 144.878 38.0092 144.646 37.7942ZM149.963 36.9249C149.957 35.6396 149.954 34.3457 149.954 33.0431L149.793 32.9717L146.834 33.4197V34.1724C147.035 34.2325 147.238 34.2894 147.444 34.3429C147.65 34.3971 147.853 34.4534 148.053 34.5134V40.7167L146.655 41.2364C146.655 41.3679 146.658 41.4905 146.664 41.604C146.67 41.7179 146.678 41.8401 146.691 41.9716H151.352C151.352 41.8401 151.355 41.7179 151.361 41.604C151.367 41.4905 151.371 41.3679 151.371 41.2364L149.99 40.806C149.978 39.5035 149.969 38.2095 149.963 36.9249ZM157.285 40.7338C157.536 40.6869 157.853 40.6213 158.236 40.5371C158.283 40.7048 158.331 40.8681 158.379 41.0272C158.427 41.187 158.475 41.3492 158.523 41.5142C157.591 41.9625 156.652 42.1861 155.708 42.1861C155.24 42.1861 154.852 42.1358 154.545 42.0343C154.237 41.9332 153.993 41.7744 153.812 41.5594C153.63 41.3443 153.505 41.0724 153.432 40.7435C153.36 40.4149 153.323 40.0173 153.323 39.5513V34.2268H152.051V33.5631C152.277 33.4672 152.505 33.3812 152.732 33.3032C152.959 33.2249 153.193 33.1383 153.432 33.0433L154.084 31.143L155.096 30.8379C155.121 30.8621 155.148 30.8828 155.178 30.9011C155.208 30.9183 155.235 30.9394 155.26 30.9639V33.2225H157.913V34.2268H155.26V39.4758C155.26 39.9072 155.352 40.2368 155.538 40.4646C155.723 40.6924 156.055 40.8059 156.532 40.8059C156.784 40.8059 157.035 40.7825 157.285 40.7338ZM168.464 33.5273C168.446 33.3965 168.431 33.264 168.419 33.1328L165.12 33.2405C165.12 33.372 165.117 33.5004 165.111 33.626C165.106 33.7513 165.103 33.88 165.103 34.0109L166.214 34.3881C165.868 35.3683 165.524 36.3454 165.183 37.319L164.609 38.9631L164.153 40.2686H164.08C163.805 39.4199 163.51 38.5802 163.193 37.7491C162.876 36.9187 162.581 36.0731 162.306 35.213C162.174 34.8302 162.073 34.4599 162.001 34.1013C161.929 33.7423 161.881 33.4196 161.857 33.1328L158.828 33.2584V34.0654L159.76 34.3881C160.262 35.6672 160.761 36.9397 161.257 38.2067C161.753 39.4734 162.252 40.7404 162.754 42.0074L163.4 42.0789L162.951 43.2448C162.904 43.3763 162.841 43.5192 162.763 43.6748C162.685 43.8298 162.593 43.9799 162.485 44.1228C162.378 44.2664 162.249 44.392 162.1 44.4997C161.95 44.6074 161.78 44.6792 161.589 44.7147L160.011 43.8177C159.772 43.9257 159.581 44.0873 159.438 44.3026C159.294 44.5177 159.222 44.7382 159.222 44.966C159.222 45.3122 159.383 45.5841 159.706 45.7816C160.029 45.9786 160.417 46.077 160.872 46.077C161.577 46.077 162.171 45.8385 162.656 45.3605C163.14 44.8814 163.543 44.2481 163.865 43.4595C164.356 42.3125 164.846 41.1649 165.335 40.0177C165.825 38.8698 166.31 37.7166 166.788 36.5577C167.027 35.9837 167.28 35.4701 167.55 35.0156C167.819 34.5617 168.139 34.1969 168.509 33.9221C168.497 33.7907 168.482 33.6592 168.464 33.5273ZM122.817 28.4023L122.748 27.3824L124.528 26.8988L124.753 18.017L122.973 17.5162L123.094 16.5135C124.107 16.537 124.98 16.5394 125.712 16.5225C126.443 16.5049 126.976 16.4907 127.31 16.479C127.414 16.7092 127.523 16.9173 127.638 17.1013C127.753 17.2856 127.863 17.4468 127.967 17.5852L130.939 21.5074L133.064 24.3244L133.133 24.3068L132.978 17.9652L131.319 17.5162L131.388 16.5135H136.365L136.434 17.5852L134.654 18C134.642 18.1954 134.634 18.5588 134.628 19.0883C134.622 19.6184 134.611 20.2373 134.593 20.9458C134.576 21.6544 134.562 22.4034 134.55 23.192C134.539 23.9817 134.527 24.7275 134.516 25.4299C134.504 26.1326 134.492 26.7518 134.481 27.2878C134.47 27.8235 134.464 28.189 134.464 28.3847L133.133 28.6611L128.658 22.8382L126.17 19.5546L126.101 19.5722L126.204 26.9506L127.915 27.3133L127.846 28.4023H122.817Z" fill="#0079C1"/>
</svg>
