<svg width="269" height="127" viewBox="0 0 269 127" fill="none" xmlns="http://www.w3.org/2000/svg"><path d="M.347 29.976a3.39 3.39 0 013.025-3.72L255.264.347a3.389 3.389 0 013.718 3.026l9.539 92.731a3.39 3.39 0 01-3.025 3.719l-251.892 25.91a3.39 3.39 0 01-3.719-3.025L.347 29.976z" fill="#fff"/><g filter="url(#filter0_d)" clip-path="url(#clip0)"><path d="M30.054 60.163a.4.4 0 01-.439-.357l-.61-5.94a.4.4 0 01.356-.438l28.4-2.921a.4.4 0 01.439.357l.61 5.939a.4.4 0 01-.356.439l-10.55 1.085 2.73 26.543a.4.4 0 01-.357.44l-6.503.668a.4.4 0 01-.44-.357l-2.73-26.543-10.55 1.085zm34.061 4.762a.4.4 0 01-.438-.357l-.512-4.978a.4.4 0 01.357-.439l22.56-2.32a.4.4 0 01.439.357l.512 4.977a.4.4 0 01-.357.439l-7.874.81 1.889 18.365a.4.4 0 01-.357.438l-6.017.62a.4.4 0 01-.438-.358l-1.89-18.364-7.874.81z" fill="#fff"/><path d="M30.054 60.163a.4.4 0 01-.439-.357l-.61-5.94a.4.4 0 01.356-.438l28.4-2.921a.4.4 0 01.439.357l.61 5.939a.4.4 0 01-.356.439l-10.55 1.085 2.73 26.543a.4.4 0 01-.357.44l-6.503.668a.4.4 0 01-.44-.357l-2.73-26.543-10.55 1.085zm34.061 4.762a.4.4 0 01-.438-.357l-.512-4.978a.4.4 0 01.357-.439l22.56-2.32a.4.4 0 01.439.357l.512 4.977a.4.4 0 01-.357.439l-7.874.81 1.889 18.365a.4.4 0 01-.357.438l-6.017.62a.4.4 0 01-.438-.358l-1.89-18.364-7.874.81z" stroke="#333A4A" stroke-width="2"/></g><path d="M103.307 61.637l-.258-2.507 10.743-1.105.258 2.507-4.029.414 1.032 10.028-2.686.276-1.031-10.027-4.029.414zm12.825 7.674c-1.04-.846-1.629-1.944-1.768-3.292-.139-1.35.215-2.538 1.063-3.566.858-1.041 1.979-1.633 3.364-1.775 1.408-.145 2.614.201 3.617 1.039 1.003.838 1.574 1.937 1.714 3.298l.056.537-7.163.737c.157.587.478 1.067.963 1.439.484.372 1.013.529 1.586.47.633-.065 1.158-.3 1.574-.705.163-.173.288-.367.375-.581l2.686-.276a4.873 4.873 0 01-.73 1.703c-.844 1.173-2.072 1.842-3.684 2.008-1.385.142-2.602-.203-3.653-1.036zm.816-4.553l4.387-.452a2.035 2.035 0 00-.857-1.124c-.417-.295-.905-.413-1.466-.356-.561.058-1.022.268-1.383.631a2.428 2.428 0 00-.681 1.3zm8.999 4.683l-.939-9.131 2.507-.258.35 3.402 1.074-.11 2.067-3.651 2.776-.286-2.522 4.512 3.729 4.592-2.864.295-2.697-3.342-1.342.139.368 3.58-2.507.258zm10.184-2.187c-1.04-.846-1.63-1.944-1.768-3.292-.139-1.35.215-2.538 1.062-3.566.858-1.041 1.98-1.633 3.364-1.775 1.66-.171 2.986.296 3.981 1.4.446.472.794 1.04 1.043 1.702l-2.596.267a2.73 2.73 0 00-.504-.672c-.502-.431-1.07-.614-1.703-.549-.632.065-1.156.373-1.57.922-.402.548-.562 1.216-.481 2.003.081.788.374 1.41.879 1.864.517.454 1.092.648 1.725.583.633-.065 1.151-.36 1.556-.884a2.75 2.75 0 00.356-.76l2.596-.267c-.096.71-.309 1.334-.639 1.875-.749 1.283-1.965 2.011-3.648 2.184-1.385.143-2.602-.202-3.653-1.035zm7.939-6.734l-.221-2.149 8.595-.884.221 2.15-3.044.312.718 6.983-2.507.258-.718-6.983-3.044.313zM3.576 28.246l251.892-25.91-.409-3.979L3.167 24.267l.41 3.98zm253.417-24.67l9.538 92.732 3.979-.41-9.538-92.73-3.979.408zm8.298 94.257l-251.892 25.91.41 3.979L265.7 101.811l-.409-3.979zm-253.416 24.67L2.336 29.771l-3.979.41 9.539 92.731 3.979-.409zm1.524 1.24a1.39 1.39 0 01-1.524-1.24l-3.98.409a5.39 5.39 0 005.914 4.81l-.41-3.979zm253.132-27.435a1.389 1.389 0 01-1.24 1.524l.409 3.979a5.389 5.389 0 004.81-5.912l-3.979.41zM255.468 2.336a1.39 1.39 0 011.525 1.24l3.979-.409a5.39 5.39 0 00-5.913-4.81l.409 3.98zM3.168 24.267a5.39 5.39 0 00-4.81 5.913l3.978-.41a1.39 1.39 0 011.24-1.524l-.409-3.979z" fill="#333A4A"/><defs><clipPath id="clip0"><path fill="#fff" transform="rotate(-5.873 418.897 -209.89)" d="M0 0h65v65H0z"/></clipPath><filter id="filter0_d" x="28.002" y="49.504" width="62.033" height="39.476" filterUnits="userSpaceOnUse" color-interpolation-filters="sRGB"><feFlood flood-opacity="0" result="BackgroundImageFix"/><feColorMatrix in="SourceAlpha" values="0 0 0 0 0 0 0 0 0 0 0 0 0 0 0 0 0 0 127 0" result="hardAlpha"/><feOffset dx="2" dy="2"/><feColorMatrix values="0 0 0 0 0.2 0 0 0 0 0.227451 0 0 0 0 0.290196 0 0 0 1 0"/><feBlend in2="BackgroundImageFix" result="effect1_dropShadow"/><feBlend in="SourceGraphic" in2="effect1_dropShadow" result="shape"/></filter></defs></svg>