<svg width="264" height="110" viewBox="0 0 264 110" fill="none" xmlns="http://www.w3.org/2000/svg"><path d="M3.372 3.387A3.39 3.39 0 016.878.118l253.066 8.838a3.39 3.39 0 013.27 3.505l-3.254 93.164a3.39 3.39 0 01-3.506 3.27L3.388 100.057a3.389 3.389 0 01-3.27-3.505L3.373 3.387z" fill="#fff"/><g filter="url(#filter0_d)"><mask id="path-3-inside-1" fill="#fff"><rect x="31.066" y="34.734" width="50.104" height="32.5" rx="1.625" transform="rotate(2 31.066 34.734)"/></mask><rect x="31.066" y="34.734" width="50.104" height="32.5" rx="1.625" transform="rotate(2 31.066 34.734)" fill="#fff"/><rect x="31.066" y="34.734" width="50.104" height="32.5" rx="1.625" transform="rotate(2 31.066 34.734)" stroke="#333A4A" stroke-width="4" mask="url(#path-3-inside-1)"/></g><path d="M78.4 56.711l-6.423-6.62a1.372 1.372 0 00-1.894-.065L59.99 59.129l-4.26-4.418a1.372 1.372 0 00-1.893-.066L40.83 65.562l37.217 1.3.354-10.15z" fill="#1ABF7E"/><circle cx="46.227" cy="46.78" transform="rotate(2 46.227 46.78)" fill="#FA0" r="4.74"/><path d="M101.662 58.962l3.328.116 5.435-8.635.18.006-.233 1.523-.255 7.285 2.699.095.439-12.593-3.328-.116-5.434 8.636-.18-.007.233-1.523.254-7.285-2.698-.094-.44 12.592zm12.626-2.53c.105.597.32 1.145.663 1.643.583.831 1.652 1.679 3.631 1.748 2.878.1 4.094-1.208 4.148-2.737.033-.935-.398-1.509-.836-1.866a2.564 2.564 0 00-.885-.445l.004-.09a2.34 2.34 0 00.821-.314c.423-.255.836-.727.864-1.519.047-1.349-1.169-2.652-3.777-2.743-1.871-.065-2.923.654-3.542 1.371-.357.42-.626.897-.789 1.45l2.518.087a1.06 1.06 0 01.269-.476c.226-.263.593-.484 1.295-.46 1.079.038 1.513.504 1.498.953-.022.63-.395.977-1.474.94l-1.079-.038-.063 1.799 1.169.04c1.169.041 1.517.414 1.495 1.043-.02.558-.485.974-1.564.936-.809-.028-1.267-.332-1.527-.63a1.4 1.4 0 01-.321-.605l-2.518-.088zm9.331-1.296c-.094 2.698 1.971 4.932 4.868 5.033 2.86.1 5.112-1.983 5.206-4.681.094-2.699-2.007-4.933-4.867-5.033-2.896-.101-5.112 1.983-5.207 4.681zm2.609.091c.056-1.619 1.173-2.66 2.522-2.613 1.35.047 2.391 1.164 2.335 2.783-.057 1.619-1.174 2.66-2.523 2.613-1.349-.047-2.391-1.164-2.334-2.783zm8.412-.336c-.119 3.4 1.895 5.559 4.576 5.653 2.878.1 4.836-1.813 4.924-4.331.085-2.447-1.633-4.29-3.99-4.372-1.007-.035-1.702.265-2.163.555-.276.188-.499.379-.669.607l-.09-.003c.159-1.994 1.444-3.192 3.98-3.103l2.339.081.075-2.158-2.608-.091c-3.958-.139-6.198 2.125-6.374 7.162zm2.574 1.08c.048-1.367.96-2.218 2.237-2.173 1.277.044 2.128.957 2.08 2.324-.05 1.439-.963 2.308-2.24 2.263-1.277-.045-2.127-.975-2.077-2.414zm7.935 7.932l2.518.088.16-4.587.09.003c.189.276.414.518.677.744.473.376 1.144.76 2.151.795 2.339.082 4.294-1.741 4.397-4.71.104-2.967-1.719-4.922-4.058-5.004a3.51 3.51 0 00-2.201.644 3.77 3.77 0 00-.727.695l-.09-.003.041-1.17-2.519-.088-.439 12.593zm2.798-7.917c.06-1.727 1.065-2.665 2.432-2.617 1.278.044 2.215 1.05 2.155 2.777-.061 1.727-1.066 2.664-2.343 2.62-1.367-.048-2.305-1.053-2.244-2.78zm8.114.283c-.104 2.968 1.719 4.923 4.058 5.005a3.51 3.51 0 002.201-.644c.278-.206.52-.432.727-.695l.09.003-.041 1.17 2.519.087.32-9.174-2.518-.088-.041 1.17-.09-.004a3.792 3.792 0 00-.677-.744 3.511 3.511 0 00-2.151-.795c-2.339-.082-4.293 1.74-4.397 4.709zm2.608.091c.061-1.727 1.066-2.664 2.343-2.62 1.367.048 2.305 1.053 2.244 2.78-.06 1.727-1.065 2.665-2.432 2.617-1.278-.045-2.215-1.05-2.155-2.777zm7.685 4.861l2.878.1 2.284-3.522 1.259.044-.125 3.598 2.518.088.126-3.598 1.259.044 2.033 3.673 2.878.1-2.885-5.053 2.936-4.13-2.788-.097-2.368 3.339-.99-.035.12-3.417-2.519-.088-.119 3.417-.99-.034-2.129-3.496-2.788-.098 2.64 4.325-3.23 4.84zm15.12-4.065c-.094 2.699 1.971 4.932 4.777 5.03 1.979.07 3.177-.7 3.924-1.484.431-.471.738-1 .956-1.587l-2.698-.095a2.037 2.037 0 01-.451.525c-.351.258-.846.51-1.655.483-1.17-.041-2.107-1.065-2.264-2.24l7.196.25.019-.54c.093-2.68-1.809-4.925-4.688-5.026-2.806-.098-5.022 1.986-5.116 4.684zm2.733-.895c.302-.908 1.139-1.671 2.308-1.63 1.169.04 1.951.878 2.099 1.784l-4.407-.154zm8.272 5.872l2.518.088.126-3.597 3.868.135-.126 3.597 2.519.088.32-9.174-2.518-.088-.12 3.418-3.867-.135.119-3.418-2.519-.088-.32 9.174zm10.731.375l2.699.094 3.882-5.447.18.006-.147 1.616-.138 3.957 2.519.088.32-9.174-2.698-.094L205.944 59l-.18-.006.147-1.616.138-3.957-2.518-.088-.321 9.174zm10.44-4.228c-.095 2.698 1.971 4.932 4.777 5.03 1.979.069 3.176-.7 3.924-1.484a4.772 4.772 0 00.956-1.588l-2.698-.094a2.035 2.035 0 01-.451.525c-.351.258-.846.51-1.656.482-1.169-.04-2.106-1.064-2.263-2.24l7.196.251.019-.54c.093-2.68-1.809-4.926-4.688-5.026-2.806-.098-5.022 1.986-5.116 4.684zm2.733-.895c.302-.908 1.139-1.671 2.308-1.63 1.169.04 1.95.878 2.099 1.784l-4.407-.154zM6.808 2.117l253.067 8.837.139-3.997L6.947-1.88l-.14 3.997zm254.407 10.274l-3.254 93.165 3.998.139 3.253-93.164-3.997-.14zm-4.691 94.505L3.458 98.059l-.14 3.997 253.067 8.837.139-3.997zM2.117 96.621L5.371 3.457l-3.998-.14-3.253 93.165 3.997.14zm1.34 1.438a1.39 1.39 0 01-1.34-1.438l-3.997-.14a5.39 5.39 0 005.198 5.575l.14-3.997zm254.504 7.497a1.389 1.389 0 01-1.437 1.34l-.139 3.997a5.39 5.39 0 005.574-5.198l-3.998-.139zm1.914-94.602a1.39 1.39 0 011.34 1.438l3.997.14a5.39 5.39 0 00-5.198-5.575l-.139 3.997zM6.947-1.88a5.39 5.39 0 00-5.574 5.198l3.998.14a1.39 1.39 0 011.437-1.34l.14-3.998z" fill="#333A4A"/><defs><filter id="filter0_d" x="29.987" y="34.789" width="54.346" height="37.367" filterUnits="userSpaceOnUse" color-interpolation-filters="sRGB"><feFlood flood-opacity="0" result="BackgroundImageFix"/><feColorMatrix in="SourceAlpha" values="0 0 0 0 0 0 0 0 0 0 0 0 0 0 0 0 0 0 127 0" result="hardAlpha"/><feOffset dx="3.25" dy="3.25"/><feColorMatrix values="0 0 0 0 0.2 0 0 0 0 0.227451 0 0 0 0 0.290196 0 0 0 1 0"/><feBlend in2="BackgroundImageFix" result="effect1_dropShadow"/><feBlend in="SourceGraphic" in2="effect1_dropShadow" result="shape"/></filter></defs></svg>