<svg width="267" height="119" viewBox="0 0 267 119" fill="none" xmlns="http://www.w3.org/2000/svg"><path d="M.246 22.287a3.39 3.39 0 013.135-3.627L255.93.247a3.39 3.39 0 013.627 3.134l6.779 92.974a3.39 3.39 0 01-3.134 3.627l-252.55 18.413a3.39 3.39 0 01-3.628-3.134L.246 22.287z" fill="#fff"/><g filter="url(#filter0_d)"><path d="M42.418 74.128c.041.562.53.984 1.09.943l5.25-.383a1.02 1.02 0 00.943-1.09l-.085-1.169c-.084-3.837 2.834-6.864 5.666-10.158 2.707-3.217 5.275-6.562 4.921-11.409-.483-6.622-5.228-11.629-14.527-10.95-8.361.609-13.892 6.194-14.152 14.575-.018.584.484 1.04 1.066.997l5.55-.405c.524-.038.928-.469.978-.992.406-4.232 2.902-7.046 6.666-7.32 3.967-.29 5.952 1.83 6.205 5.312.214 2.935-1.767 5.345-3.99 8.046-2.887 3.436-6.09 7.032-5.696 12.426l.115 1.577zm4.756 15.911c2.861-.208 5.033-2.7 4.819-5.636-.22-3.003-2.73-5.154-5.59-4.945-2.927.213-5.164 2.71-4.945 5.713.214 2.936 2.79 5.082 5.716 4.868z" fill="#fff"/><path d="M48.616 72.451v.026l.003.025.085 1.168v.007a.021.021 0 01-.005.007.017.017 0 01-.013.007l-5.25.382a.016.016 0 01-.01-.001.024.024 0 01-.009-.01l-.002-.007-.114-1.577c-.35-4.797 2.378-8.04 5.239-11.441l.226-.269h0l.006-.008.033-.04c1.087-1.32 2.183-2.653 2.971-4.034.808-1.415 1.337-2.95 1.21-4.68-.138-1.904-.762-3.583-2.035-4.738-1.282-1.163-3.069-1.657-5.24-1.499-2.127.155-3.936 1.037-5.261 2.503-1.317 1.456-2.108 3.434-2.328 5.72a.128.128 0 01-.033.076c-.013.013-.02.014-.021.014h0l-5.543.404c.13-3.957 1.494-7.189 3.753-9.502 2.266-2.322 5.499-3.786 9.471-4.075 4.46-.325 7.695.719 9.859 2.51 2.163 1.792 3.373 4.426 3.598 7.516.321 4.405-1.976 7.467-4.686 10.688l-.654.756c-1.188 1.37-2.404 2.771-3.349 4.222-1.133 1.741-1.949 3.656-1.9 5.85zm2.38 12.025c.174 2.39-1.589 4.398-3.895 4.566-2.395.175-4.473-1.578-4.645-3.943-.178-2.442 1.632-4.47 4.019-4.644 2.298-.167 4.34 1.555 4.52 4.021z" stroke="#333A4A" stroke-width="2"/></g><rect x="66.258" y="65.646" width="16.831" height="16.831" rx="1.102" transform="rotate(9.725 66.258 65.646)" fill="#1ABF7E" stroke="#21A37A"/><path d="M67.913 74.142l3.495 4.94 7.664-6.718" stroke="#fff" stroke-linecap="round" stroke-linejoin="round"/><path d="M103.104 55.506l-.916-12.567 6.463-.471c1.257-.092 2.266.142 3.029.7.762.558 1.178 1.303 1.246 2.237.065.898-.212 1.628-.833 2.19a3.63 3.63 0 01-.952.557l.006.09a3.41 3.41 0 011.24.415c.853.479 1.32 1.27 1.4 2.37.078 1.077-.264 1.993-1.027 2.746-.752.74-1.846 1.163-3.283 1.268l-6.373.465zm2.137-7.826l3.411-.249c.514-.037.901-.18 1.16-.427.27-.26.391-.576.364-.947a1.094 1.094 0 00-.496-.867c-.293-.219-.697-.31-1.211-.272l-3.411.248.183 2.514zm.379 5.206l3.501-.255c.658-.048 1.139-.216 1.443-.503a1.26 1.26 0 00.427-1.078 1.262 1.262 0 00-.578-1.004c-.343-.24-.843-.336-1.501-.288l-3.501.255.209 2.873zm10.705.519c-1.026-.876-1.589-1.99-1.687-3.342-.099-1.353.296-2.53 1.186-3.534.888-1.015 2.051-1.575 3.487-1.68 1.424-.104 2.649.282 3.676 1.158 1.037.863 1.605 1.97 1.704 3.323.098 1.352-.302 2.537-1.203 3.553-.889 1.003-2.046 1.557-3.47 1.66-1.437.105-2.667-.274-3.693-1.138zm1.474-5.522c-.43.537-.616 1.2-.558 1.99.057.79.338 1.42.841 1.888a2.266 2.266 0 001.779.628 2.265 2.265 0 001.668-.88c.43-.536.616-1.2.559-1.99-.058-.79-.338-1.419-.842-1.887a2.264 2.264 0 00-1.778-.629 2.268 2.268 0 00-1.669.88zm8.508 5.931l-.668-9.156 8.797-.64.667 9.155-2.513.183-.51-7.001-3.77.275.51 7-2.513.184zm10.853 2.638l-.917-12.567 2.514-.183.085 1.167.09-.007a4.44 4.44 0 01.647-.769 3.572 3.572 0 012.12-.876c1.197-.087 2.229.288 3.096 1.128.879.826 1.371 1.963 1.476 3.411.106 1.449-.215 2.651-.964 3.608-.737.944-1.704 1.46-2.901 1.547a3.573 3.573 0 01-2.225-.56 4.431 4.431 0 01-.752-.667l-.09.007.334 4.578-2.513.183zm2.433-10.194c-.397.498-.564 1.172-.503 2.022.062.85.326 1.498.792 1.945.465.436 1.044.628 1.739.578.658-.048 1.179-.327 1.563-.836.384-.51.545-1.183.484-2.02-.061-.839-.318-1.482-.772-1.93-.454-.448-1.01-.648-1.668-.6-.694.05-1.239.33-1.635.841zm9.193 4.78c-1.026-.875-1.589-1.99-1.687-3.342-.099-1.352.296-2.53 1.186-3.534.888-1.015 2.051-1.575 3.487-1.68 1.424-.103 2.649.282 3.676 1.158 1.037.863 1.605 1.97 1.704 3.323.098 1.352-.303 2.537-1.203 3.553-.889 1.003-2.046 1.557-3.47 1.66-1.437.105-2.667-.274-3.693-1.138zm1.474-5.522c-.43.537-.616 1.2-.558 1.99.057.79.338 1.42.841 1.888a2.267 2.267 0 001.779.628 2.265 2.265 0 001.668-.88c.43-.536.616-1.2.559-1.99-.058-.79-.338-1.418-.842-1.887a2.265 2.265 0 00-1.778-.628 2.267 2.267 0 00-1.669.88zm9.305 4.736c-1.014-.876-1.571-1.99-1.67-3.343-.098-1.353.291-2.53 1.169-3.532.888-1.016 2.027-1.574 3.415-1.675 1.664-.121 2.976.384 3.937 1.517.432.486.763 1.064.992 1.733l-2.603.19a2.745 2.745 0 00-.483-.687c-.49-.445-1.052-.645-1.686-.599-.634.046-1.167.338-1.597.874-.418.536-.598 1.2-.54 1.99.057.789.332 1.419.823 1.888.504.469 1.072.68 1.707.634.634-.046 1.161-.326 1.581-.837.164-.229.29-.479.378-.75l2.604-.19c-.117.707-.349 1.325-.695 1.856-.787 1.26-2.024 1.952-3.711 2.075-1.389.101-2.595-.28-3.621-1.144zm-54.171 27.01c-1.014-.876-1.571-1.99-1.669-3.343-.099-1.352.291-2.53 1.168-3.532.889-1.015 2.027-1.573 3.415-1.675 1.664-.12 2.976.385 3.937 1.518a5.02 5.02 0 01.993 1.733l-2.603.19a2.723 2.723 0 00-.484-.687c-.489-.446-1.051-.646-1.686-.6-.634.047-1.166.338-1.596.875-.418.536-.599 1.199-.541 1.989.058.79.332 1.42.824 1.889.503.468 1.072.68 1.706.633.634-.046 1.162-.325 1.581-.837.164-.228.29-.478.379-.75l2.603-.19c-.117.707-.349 1.326-.695 1.856-.786 1.26-2.023 1.953-3.711 2.076-1.388.1-2.595-.28-3.621-1.144zm15.092-1.027c-.867-.84-1.353-1.983-1.459-3.431-.106-1.448.21-2.645.948-3.589.748-.957 1.721-1.479 2.917-1.566a3.571 3.571 0 012.225.56 4.4 4.4 0 01.753.667l.089-.007-.085-1.167 2.514-.183.667 9.156-2.513.183-.085-1.167-.09.007a4.372 4.372 0 01-.648.769 3.569 3.569 0 01-2.12.876c-1.197.088-2.234-.282-3.113-1.108zm1.628-5.642c-.384.51-.545 1.183-.484 2.021.061.838.319 1.48.772 1.929.454.448 1.01.648 1.668.6.695-.05 1.24-.325 1.637-.823.396-.51.563-1.19.501-2.04-.062-.85-.325-1.492-.79-1.927-.466-.448-1.046-.646-1.74-.596-.658.048-1.18.327-1.564.836zm8.756 5.95l-.668-9.156 5.027-.367c.945-.069 1.69.088 2.236.469.545.381.841.901.889 1.56.051.694-.167 1.257-.652 1.69a1.8 1.8 0 01-.73.395l.007.09c.352.047.691.148 1.015.305.692.419 1.067 1.017 1.123 1.795.056.766-.197 1.416-.76 1.95-.563.523-1.384.823-2.461.902l-5.026.367zm2.101-5.839l2.154-.157c.275-.02.485-.113.629-.28a.758.758 0 00.21-.593.757.757 0 00-.294-.556c-.167-.144-.388-.207-.663-.186l-2.154.157.118 1.615zm.274 3.77l2.334-.17c.311-.023.562-.137.751-.343a.926.926 0 00.254-.723.925.925 0 00-.356-.678 1.085 1.085 0 00-.793-.23l-2.334.17.144 1.974zm6.014-5.582l-.157-2.154 8.617-.628.157 2.154-3.052.223.511 7-2.514.184-.51-7.001-3.052.222zm10.864 5.11c-1.027-.876-1.589-1.99-1.688-3.342-.098-1.353.297-2.53 1.187-3.534.888-1.015 2.05-1.575 3.487-1.68 1.424-.104 2.649.282 3.676 1.158 1.037.863 1.605 1.97 1.704 3.323.098 1.352-.303 2.536-1.203 3.552-.89 1.004-2.046 1.557-3.471 1.661-1.436.105-2.667-.275-3.692-1.138zm1.474-5.522c-.43.537-.616 1.2-.559 1.99.058.79.339 1.419.842 1.888a2.264 2.264 0 001.778.628 2.265 2.265 0 001.669-.88c.43-.536.616-1.2.559-1.99-.058-.79-.338-1.419-.842-1.887a2.264 2.264 0 00-1.778-.629 2.267 2.267 0 00-1.669.88zm8.508 5.931l-.668-9.156 8.797-.641.667 9.156-2.513.183-.51-7.002-3.77.275.51 7.002-2.513.183zm10.852 2.638l-.916-12.567 2.514-.183.085 1.167.089-.007a4.42 4.42 0 01.648-.769 3.571 3.571 0 012.12-.876c1.197-.088 2.229.288 3.096 1.128.879.826 1.371 1.963 1.476 3.411.106 1.448-.216 2.65-.964 3.608-.737.944-1.704 1.46-2.901 1.547a3.57 3.57 0 01-2.225-.56 4.392 4.392 0 01-.752-.667l-.09.007.334 4.578-2.514.183zm2.434-10.194c-.397.498-.565 1.172-.503 2.022.062.85.326 1.498.792 1.945.465.436 1.044.628 1.738.578.659-.049 1.18-.327 1.564-.836.384-.51.545-1.183.484-2.021-.061-.838-.318-1.48-.772-1.929-.454-.448-1.01-.648-1.668-.6-.694.05-1.239.33-1.635.84zm9.193 4.78c-1.027-.876-1.589-1.99-1.688-3.342-.098-1.353.297-2.53 1.187-3.534.888-1.015 2.05-1.575 3.487-1.68 1.424-.104 2.649.282 3.676 1.158 1.037.863 1.605 1.97 1.704 3.323.098 1.352-.303 2.537-1.203 3.553-.89 1.003-2.046 1.557-3.471 1.66-1.436.105-2.667-.274-3.692-1.138zm1.474-5.522c-.43.537-.616 1.2-.559 1.99.058.79.339 1.42.842 1.888a2.264 2.264 0 001.778.628 2.265 2.265 0 001.669-.88c.43-.536.616-1.2.559-1.99-.058-.79-.339-1.418-.842-1.887a2.264 2.264 0 00-1.778-.628 2.265 2.265 0 00-1.669.88zm8.508 5.931l-.668-9.155 5.027-.367c.945-.069 1.691.087 2.236.469.545.381.841.9.889 1.56.051.693-.167 1.257-.652 1.69-.227.196-.47.328-.729.395l.006.09c.352.046.691.148 1.015.305.692.419 1.067 1.017 1.123 1.795.056.766-.197 1.416-.76 1.95-.563.523-1.384.823-2.461.902l-5.026.366zm2.101-5.838l2.154-.157c.275-.02.485-.114.629-.28a.758.758 0 00.21-.593.757.757 0 00-.294-.556c-.167-.145-.388-.207-.663-.187l-2.154.157.118 1.616zm.275 3.77l2.333-.17c.311-.023.562-.137.751-.344a.923.923 0 00.254-.722.925.925 0 00-.356-.678 1.083 1.083 0 00-.793-.23l-2.333.17.144 1.974zm8.218.159c-1.014-.877-1.57-1.991-1.669-3.344-.099-1.352.291-2.53 1.168-3.532.889-1.015 2.027-1.574 3.415-1.675 1.413-.103 2.608.28 3.585 1.147.978.867 1.516 1.983 1.616 3.347l.039.539-7.181.523c.14.592.446 1.08.919 1.467.474.387.998.56 1.572.517.634-.046 1.166-.265 1.595-.657a1.87 1.87 0 00.391-.57l2.693-.197a4.858 4.858 0 01-.78 1.681c-.879 1.147-2.126 1.78-3.742 1.898-1.388.1-2.595-.28-3.621-1.144zm.952-4.527l4.398-.321a2.038 2.038 0 00-.824-1.15c-.407-.306-.892-.44-1.455-.398-.562.04-1.029.237-1.4.589a2.425 2.425 0 00-.719 1.28zm9.104 8.36L212.3 61.4l2.513-.183.085 1.167.09-.007c.173-.265.389-.521.648-.769a3.569 3.569 0 012.12-.876c1.196-.088 2.229.288 3.096 1.128.878.826 1.37 1.963 1.476 3.411.105 1.448-.216 2.65-.964 3.608-.738.944-1.705 1.46-2.902 1.547a3.57 3.57 0 01-2.224-.56 4.4 4.4 0 01-.753-.667l-.089.007.333 4.578-2.513.183zm2.433-10.194c-.397.498-.564 1.172-.502 2.022.062.85.326 1.498.791 1.945.465.436 1.045.628 1.739.577.658-.048 1.179-.326 1.563-.835.384-.51.546-1.183.485-2.021-.061-.838-.319-1.48-.773-1.929-.453-.448-1.009-.648-1.668-.6-.694.05-1.239.33-1.635.84zm8.378 5.976l-.667-9.155 2.513-.184.249 3.411 1.077-.078 2.175-3.588 2.782-.203-2.654 4.435 3.591 4.701-2.872.21-2.596-3.42-1.346.098.262 3.59-2.514.183zm10.262-1.885c-1.026-.875-1.588-1.99-1.687-3.342-.099-1.352.297-2.53 1.186-3.533.889-1.016 2.051-1.576 3.487-1.68 1.424-.104 2.65.282 3.676 1.157 1.038.863 1.606 1.97 1.704 3.323.099 1.352-.302 2.537-1.203 3.553-.889 1.003-2.046 1.557-3.47 1.66-1.436.105-2.667-.274-3.693-1.138zm1.475-5.522c-.43.537-.617 1.2-.559 1.99.058.79.338 1.42.842 1.888a2.264 2.264 0 001.778.628 2.265 2.265 0 001.668-.88c.43-.536.617-1.2.559-1.99-.057-.789-.338-1.418-.841-1.887a2.268 2.268 0 00-1.779-.628 2.265 2.265 0 00-1.668.88zm8.507 5.931l-.667-9.155 2.513-.184.288 3.95.028 1.622.18-.013 3.274-5.833 2.693-.197.667 9.156-2.513.183-.288-3.95-.028-1.622-.179.014-3.275 5.833-2.693.197zm.68-12.953l1.706-.125c.043.599.454.87 1.232.813.778-.057 1.145-.384 1.101-.983l1.706-.124c.054.742-.154 1.353-.625 1.832-.459.467-1.149.734-2.071.8-.921.068-1.649-.095-2.183-.49-.523-.407-.812-.981-.866-1.723zM3.526 20.654L256.077 2.241l-.291-3.99L3.236 16.666l.29 3.99zM257.563 3.526l6.779 92.974 3.99-.29-6.779-92.975-3.99.291zm5.494 94.461L10.507 116.4l.29 3.99 252.551-18.414-.291-3.989zM9.02 115.116L2.24 22.141l-3.99.291 6.78 92.974 3.989-.29zm1.487 1.284a1.389 1.389 0 01-1.487-1.284l-3.99.29a5.39 5.39 0 005.768 4.984l-.291-3.99zm253.835-19.9a1.39 1.39 0 01-1.285 1.487l.291 3.989a5.39 5.39 0 004.984-5.767l-3.99.291zm-8.265-94.259a1.388 1.388 0 011.486 1.285l3.99-.29a5.39 5.39 0 00-5.767-4.984l.291 3.99zM3.235 16.665a5.39 5.39 0 00-4.983 5.767l3.99-.29a1.39 1.39 0 011.284-1.488l-.29-3.989z" fill="#333A4A"/><defs><filter id="filter0_d" x="31.524" y="39.85" width="30.712" height="52.204" filterUnits="userSpaceOnUse" color-interpolation-filters="sRGB"><feFlood flood-opacity="0" result="BackgroundImageFix"/><feColorMatrix in="SourceAlpha" values="0 0 0 0 0 0 0 0 0 0 0 0 0 0 0 0 0 0 127 0" result="hardAlpha"/><feOffset dx="2" dy="2"/><feColorMatrix values="0 0 0 0 0.2 0 0 0 0 0.227451 0 0 0 0 0.290196 0 0 0 1 0"/><feBlend in2="BackgroundImageFix" result="effect1_dropShadow"/><feBlend in="SourceGraphic" in2="effect1_dropShadow" result="shape"/></filter></defs></svg>