<svg width="478" height="449" viewBox="0 0 478 449" fill="none" xmlns="http://www.w3.org/2000/svg"><circle cx="105.471" cy="223.021" r="72.88" transform="rotate(9.442 105.471 223.021)" fill="#fff" stroke="#A6AFC0" stroke-width="2.731"/><circle cx="103.733" cy="235.211" r="72.88" transform="rotate(9.442 103.733 235.211)" fill="#fff" stroke="#A6AFC0" stroke-width="2.731"/><circle cx="109.065" cy="249.141" r="72.88" transform="rotate(9.442 109.065 249.141)" fill="#fff" stroke="#A6AFC0" stroke-width="2.731"/><circle cx="122.489" cy="262.761" r="72.88" transform="rotate(9.442 122.489 262.761)" fill="#fff" stroke="#A6AFC0" stroke-width="2.731"/><circle cx="138.575" cy="273.102" r="72.88" transform="rotate(9.442 138.575 273.102)" fill="#fff" stroke="#A6AFC0" stroke-width="2.731"/><path d="M225.735 296.014c-6.603 39.706-44.144 66.541-83.849 59.938-39.706-6.604-66.54-44.144-59.937-83.85 6.603-39.705 44.143-66.54 83.849-59.937 39.705 6.603 66.54 44.144 59.937 83.849z" fill="#fff" stroke="#A6AFC0" stroke-width="2.731"/><path d="M133.474 293.533l3.89 1.671-1.783 4.149 7.779 3.342 1.782-4.148 11.928 5.126 2.674-6.223-11.927-5.126 1.337-3.112 7.779 3.343c8.556 3.678 15.622.816 18.385-5.614 2.764-6.43-.023-13.526-8.58-17.203l-15.557-6.686-6.909 16.076-3.889-1.671-2.897 6.741 3.889 1.672-1.337 3.111-3.889-1.671-2.675 6.223zm18.577-11.062l4.012-9.334 7.26 3.12c4.148 1.782 5.353 4.696 4.217 7.341-1.137 2.645-4.08 3.776-8.229 1.993l-7.26-3.12z" fill="#A6AFC0"/><circle r="74.298" transform="scale(-1 1) rotate(-6.782 816.403 2811.073)" fill="#fff" stroke="#A6AFC0" stroke-width="2.784"/><circle r="74.298" transform="scale(-1 1) rotate(-6.782 922.159 2802.334)" fill="#fff" stroke="#A6AFC0" stroke-width="2.784"/><circle r="74.298" transform="scale(-1 1) rotate(-6.782 1028.997 2730.888)" fill="#fff" stroke="#A6AFC0" stroke-width="2.784"/><path d="M297.61 137.451c-.418 2.138-.473 4.306-.09 6.475.623 3.65 2.553 8.049 7.725 11.462l-2.181 5.075 7.402 3.181 2.158-5.022c7.879 2.07 13.956-1.143 16.251-6.482 3.59-8.353-4.232-13.907-9.917-18.166-3.526-2.58-6.047-5.167-4.98-7.651.909-2.115 3.555-3.17 7.784-1.353 3.172 1.364 4.462 3.171 5.012 4.66.309.884.437 1.753.308 2.637l8.194 3.521c.387-1.775.487-3.611.202-5.424-.518-3.167-1.996-6.87-6.36-10.124l2.25-5.233-7.402-3.181-2.135 4.969c-7.622-2.085-13.866.931-16.16 6.27-2.84 6.609 1.446 11.645 6.429 15.352 4.885 3.791 9.876 7.188 8.467 10.466-1.022 2.379-3.668 3.434-8.69 1.276-3.595-1.545-5.142-3.776-5.744-5.726a8.282 8.282 0 01-.329-3.461l-8.194-3.521z" fill="#A6AFC0"/><g clip-path="url(#clip0)"><path opacity=".75" fill-rule="evenodd" clip-rule="evenodd" d="M10.483 45L.129 72.762l27.874 10.395L10.483 45z" fill="#1565C0"/><path fill-rule="evenodd" clip-rule="evenodd" d="M38.356 55.395L10.483 45 .129 72.762l38.227-17.367z" fill="#1976D2"/><path d="M137.73 98.781c-4.156-1.55-9.055.443-10.598 4.582l-3.417 9.162 3.346 1.248 1.243-3.333 8.917 3.325-1.243 3.334 3.346 1.248 3.417-9.162c1.544-4.139-.855-8.854-5.011-10.404zm.732 11.657l-8.917-3.325.931-2.495c.857-2.299 3.703-3.364 6.011-2.503 2.308.861 3.763 3.529 2.905 5.828l-.93 2.495zm45.533 5.597c-4.156-1.55-9.056.443-10.599 4.582l-3.417 9.162 3.347 1.248 1.243-3.333 8.916 3.325-1.243 3.333 3.347 1.249 3.417-9.163c1.543-4.139-.855-8.853-5.011-10.403zm.731 11.657l-8.916-3.325.931-2.495c.857-2.299 3.703-3.364 6.011-2.503 2.308.861 3.762 3.529 2.905 5.828l-.931 2.495z" fill="#FF5722"/><path d="M103.729 86.101c-4.616-1.721-9.754.607-11.47 5.211-1.715 4.598.634 9.726 5.256 11.45 4.616 1.721 9.754-.607 11.471-5.211 1.717-4.604-.641-9.729-5.257-11.45zm-4.968 13.321c-2.768-1.032-4.181-4.11-3.153-6.868 1.028-2.757 4.112-4.158 6.88-3.126 2.769 1.032 4.182 4.11 3.154 6.868-1.031 2.764-4.112 4.159-6.881 3.126zm-9.717-10.316a5.258 5.258 0 001.567-2.213c1.028-2.757-.386-5.835-3.154-6.868l-6.575-2.452-6.211 16.655 8.252 3.077c2.768 1.032 5.852-.369 6.88-3.126a5.35 5.35 0 00-.76-5.073zm-6.065-6.954l3.235 1.207a1.782 1.782 0 011.05 2.286 1.782 1.782 0 01-2.29 1.04l-3.236-1.206 1.24-3.327zm1.178 11.824l-4.905-1.83 1.243-3.333 4.905 1.83a1.781 1.781 0 011.05 2.285 1.787 1.787 0 01-2.293 1.048zM70.563 73.732c-4.616-1.721-9.754.607-11.471 5.211-1.715 4.598.635 9.726 5.257 11.45 4.623 1.724 9.754-.607 11.47-5.211 1.718-4.604-.64-9.728-5.257-11.45zm-4.968 13.321c-2.769-1.032-4.182-4.11-3.154-6.868 1.028-2.757 4.113-4.158 6.88-3.126 2.769 1.032 4.183 4.11 3.154 6.868-1.03 2.764-4.112 4.158-6.88 3.126z" fill="#1976D2"/><path fill-rule="evenodd" clip-rule="evenodd" d="M153.613 112.329l.031-.026-3.899-1.454a1.78 1.78 0 01-1.049-2.286 1.781 1.781 0 012.29-1.041l6.128 2.286 3.472-2.503-8.364-3.119c-2.767-1.032-5.852.369-6.88 3.126a5.328 5.328 0 002.627 6.634l-.032.026 3.898 1.454a1.782 1.782 0 011.051 2.286 1.783 1.783 0 01-2.291 1.041l-6.129-2.286-3.472 2.503 8.364 3.119c2.769 1.032 5.852-.369 6.881-3.126.962-2.581-.213-5.436-2.626-6.634zm12.543-2.946c-2.768-1.033-5.852.368-6.88 3.126a5.329 5.329 0 002.626 6.634l-.032.025 3.899 1.454a1.782 1.782 0 011.05 2.287 1.78 1.78 0 01-2.29 1.04l-6.129-2.285-3.472 2.502 8.364 3.119c2.768 1.032 5.852-.369 6.881-3.126a5.33 5.33 0 00-2.627-6.634l.032-.025-3.899-1.454a1.782 1.782 0 01-1.05-2.287 1.78 1.78 0 012.291-1.04l6.128 2.285 3.472-2.502-8.364-3.119zm-38.072-14.199l-9.542 4.7 3.505 12.012-3.9-1.454-2.704-9.036-1.955 1.106-2.025 5.429-3.348-1.248 6.207-16.641 3.347 1.248-2.45 6.569 8.479-4.32 4.386 1.635z" fill="#FF5722"/><path d="M44.566 83.008l-3.347-1.248 6.211-16.655 7.877 2.938c1.408.525 2.44 1.454 3.1 2.797.674 1.363.948 3.099.438 4.528-.468 1.294-1.168 2.227-2.361 2.916-1.142.671-2.208 1.101-3.513.905l1.905 7.664-3.899-1.454-1.783-7.23a.89.89 0 00-.55-.593l-1.802-.672-2.276 6.104zm3.417-9.162l4.458 1.662c1.23.459 2.6-.164 3.057-1.389a2.376 2.376 0 00-1.401-3.051l-4.458-1.663-1.656 4.44z" fill="#1976D2"/></g><path d="M158.092 424.702l-11.051-5.791c2.89-.761 4.233-1.465 5.496-2.622 1.801-1.616 2.381-4.307 1.789-6.833-.729-3.104-2.253-5.356-4.843-6.525-2.348-1.059-4.921-1.122-9.794.022l-17.173 4.03 5.798 24.707 5.792-1.359-2.902-12.367 17.217 9.007 9.671-2.269zm-26.9-6.791l-1.272-5.42 13.013-3.054c2.195-.515 3.246-.623 4.155-.309.768.292 1.336.992 1.534 1.834.185.789.044 1.682-.553 2.35-.539.571-1.204.949-2.709 1.302l-14.162 3.324-.006-.027zm-14.783-6.552c-2.785-1.54-5.673-1.917-14.374.125-8.701 2.041-11.12 3.664-12.929 6.282-1.61 2.321-1.888 5.606-.795 10.264 1.093 4.657 2.804 7.475 5.278 8.838 2.784 1.54 5.672 1.917 14.374-.125 8.701-2.042 11.12-3.664 12.928-6.282 1.61-2.321 1.888-5.606.796-10.264-1.093-4.657-2.805-7.476-5.278-8.838zm-1.499 14.954c-1.277 1.326-3.194 2.332-8.578 3.595-5.384 1.264-7.524 1.21-9.283.596-1.848-.649-2.565-1.869-3.022-3.816-.457-1.947-.358-3.358 1.009-4.762 1.277-1.327 3.195-2.332 8.579-3.595 5.384-1.264 7.523-1.211 9.283-.596 1.848.649 2.565 1.868 3.022 3.816.457 1.947.357 3.358-1.01 4.762zm-39.887 10.942c-5.359 1.258-7.523 1.211-9.283.596-1.823-.655-2.565-1.868-3.022-3.816-.457-1.947-.332-3.364 1.01-4.762 1.276-1.326 3.22-2.338 8.578-3.595 4.695-1.102 9.093-1.634 11.169-1.622l-.088-6.225c-2.875-.436-8.157-.113-13.183 1.067-8.549 2.006-10.661 3.557-12.445 6.168-1.609 2.321-1.888 5.607-.795 10.264 1.093 4.657 2.805 7.476 5.278 8.839 2.785 1.54 5.367 1.989 13.89-.011 5-1.174 9.9-3.24 12.281-4.909l-2.69-5.615c-1.861 1.02-6.03 2.525-10.7 3.621zm108.358-29.259l-1.006-4.289-18.448 4.329 6.007 3.116 13.447-3.156zm-1.133-7.813l-1.612-6.867-24.878 5.838 5.804 24.734 24.879-5.839-1.612-6.867-19.086 4.479-1.791-7.631-.79-3.368 19.086-4.479z" fill="#262B37"/><g clip-path="url(#clip1)"><path d="M378.983 315.009l-5.26-1.881-6.064 5.215-1.916-.685 5.004-14.19-4.98-1.781-9.149 25.588 4.98 1.781 2.573-7.001 1.904.681 2.432 8.79 5.517 1.973-3.117-11.612 8.076-6.878zm34.679 21.904a14.038 14.038 0 00-2.714-2.692l-.95-.808-.253-.215c-.592-.5-1.216-1.027-.992-1.732a1.301 1.301 0 01.913-.858c.449-.12.923-.112 1.369.021a4.195 4.195 0 012.377 1.746l.103.133 3.758-2.114-.095-.158a7.162 7.162 0 00-.795-1.166 7.624 7.624 0 00-1.916-1.608 8.646 8.646 0 00-3.394-1.213 6.703 6.703 0 00-3.414.156 5.712 5.712 0 00-3.311 2.866 5.494 5.494 0 00-.381 3.914 7.776 7.776 0 002.876 3.508l.194.152.439.35c1.588 1.256 2.013 1.684 2.175 2.155.071.233.068.482-.007.714-.31.867-1.499.841-2.298.804a3.987 3.987 0 01-2.668-1.698 6.39 6.39 0 01-1.078-2.3c-.385.192-4.118 1.93-4.087 1.996l.042.153a9.837 9.837 0 004.103 5.158c.442.262.902.496 1.375.699l.5.179a8.053 8.053 0 005.1.212 5.937 5.937 0 002.907-1.854 5.337 5.337 0 001.071-4.383 5.458 5.458 0 00-.949-2.117zm16.087 5.752a13.917 13.917 0 00-2.701-2.687l-.962-.813-.241-.21c-.604-.505-1.216-1.027-1.004-1.736a1.405 1.405 0 01.925-.854c.45-.12.924-.113 1.369.021.976.277 1.82.897 2.377 1.745l.091.129 3.758-2.114-.083-.153a6.67 6.67 0 00-.807-1.17 7.52 7.52 0 00-1.905-1.604 8.698 8.698 0 00-3.405-1.218 6.819 6.819 0 00-3.415.156 5.71 5.71 0 00-3.33 2.846 5.415 5.415 0 00-.381 3.914 7.774 7.774 0 002.876 3.507l.181.148.439.35c1.601 1.261 2.026 1.688 2.188 2.159a1.05 1.05 0 01-.02.71c-.31.867-1.486.846-2.285.808a4.001 4.001 0 01-2.681-1.702 6.775 6.775 0 01-1.078-2.3c-.373.197-4.105 1.934-4.086 1.996l.054.157a9.843 9.843 0 004.103 5.159c.442.262.901.496 1.375.698l.5.179a8.046 8.046 0 005.1.212 5.923 5.923 0 002.907-1.854 5.332 5.332 0 001.071-4.383 5.497 5.497 0 00-.93-2.096zm-34.41-21.808l-.629 1.759-.219-.079a7.779 7.779 0 00-4.37-3.987 8.937 8.937 0 00-7.28.414 10.228 10.228 0 00-4.817 5.771 10.546 10.546 0 00.018 7.652 8.654 8.654 0 005.285 4.893 8.76 8.76 0 005.969-.139l.195.07-.563 1.575 5.175 1.851 6.411-17.93-5.175-1.85zm-2.971 9.117a6.239 6.239 0 01-2.775 3.485 4.802 4.802 0 01-4.08.249 4.543 4.543 0 01-2.822-2.772 6.36 6.36 0 01.118-4.49 6.12 6.12 0 012.727-3.391 4.636 4.636 0 013.943-.326 4.743 4.743 0 012.957 2.779 6.278 6.278 0 01-.068 4.466zm59.264 11.011l-.629 1.759-.22-.079a7.77 7.77 0 00-4.357-3.982 8.992 8.992 0 00-7.292.409 10.225 10.225 0 00-4.816 5.772 10.548 10.548 0 00.017 7.651 8.656 8.656 0 005.285 4.893 8.76 8.76 0 005.969-.139l.196.07-.564 1.576 5.176 1.85 6.411-17.929-5.176-1.851zm-2.971 9.118a6.176 6.176 0 01-2.774 3.485 4.82 4.82 0 01-4.081.248 4.54 4.54 0 01-2.822-2.772 6.358 6.358 0 01.118-4.489 6.127 6.127 0 012.727-3.392 4.633 4.633 0 013.944-.326 4.748 4.748 0 012.957 2.779 6.217 6.217 0 01-.069 4.467z" fill="#000"/><path d="M332.846 286.529c-10.744-3.841-22.392 1.777-26.193 12.406-3.844 10.751 1.767 22.403 12.389 26.201 10.622 3.798 22.392-1.777 26.193-12.406 3.8-10.629-1.767-22.403-12.389-26.201zm-9.436 26.39c-3.907-1.397-6.024-5.875-4.626-9.784 1.398-3.91 5.874-6.03 9.781-4.633 3.907 1.397 6.024 5.875 4.626 9.784-1.564 3.988-5.874 6.03-9.781 4.633z" fill="url(#paint0_linear)"/><path d="M311.467 285.086l-10.048 28.099-6.837-2.444 1.257-31.243 15.628 5.588z" fill="url(#paint1_linear)"/></g><rect x="418.718" y="352.163" width="59.163" height="24.81" rx="1.908" transform="rotate(4.671 418.718 352.163)" fill="#0C64F5"/><path d="M428.328 365.295c-.209 2.556 1.58 4.663 4.319 4.887 1.801.147 2.954-.616 3.681-1.415a5.199 5.199 0 00.98-1.635l-1.887-.155a2.638 2.638 0 01-.569.812c-.412.395-1.056.771-2.066.689-1.656-.136-2.651-1.308-2.51-3.024.134-1.643 1.385-2.705 2.968-2.576.973.079 1.538.518 1.885.926.189.236.338.506.425.795l1.887.154a4.542 4.542 0 00-.66-1.672c-.543-.853-1.572-1.758-3.398-1.907-2.739-.224-4.846 1.564-5.055 4.121zm9.689 5.081l1.705.139.199-2.435.913.075 1.383 2.564 1.948.159-1.918-3.527 2.243-2.696-1.887-.155-1.833 2.179-.73-.059.189-2.313-1.704-.14-.508 6.209zm6.343-2.607c-.15 1.826 1.18 3.405 3.14 3.565 1.935.159 3.528-1.182 3.677-3.008.149-1.826-1.205-3.407-3.14-3.565-1.96-.16-3.528 1.182-3.677 3.008zm1.765.144c.089-1.095.879-1.766 1.792-1.691.913.074 1.584.864 1.495 1.96-.09 1.095-.88 1.766-1.793 1.692-.913-.075-1.584-.865-1.494-1.961zm5.526 5.905l1.704.14.254-3.105.061.005a2.38 2.38 0 001.868 1.133c1.583.13 2.965-1.044 3.13-3.053.164-2.008-1.01-3.391-2.593-3.52a2.383 2.383 0 00-1.512.366 2.584 2.584 0 00-.515.448l-.061-.005.065-.791-1.705-.139-.696 8.521zm2.147-5.278c.096-1.168.807-1.772 1.732-1.696.864.07 1.468.781 1.372 1.95-.095 1.169-.806 1.772-1.671 1.702-.925-.076-1.528-.787-1.433-1.956zm5.478.448c-.149 1.826 1.18 3.405 3.14 3.565 1.936.158 3.528-1.182 3.677-3.008.149-1.826-1.204-3.407-3.14-3.565-1.96-.161-3.528 1.182-3.677 3.008zm1.765.144c.09-1.095.88-1.766 1.793-1.692.913.075 1.584.865 1.494 1.961-.09 1.095-.88 1.766-1.793 1.691-.913-.074-1.583-.864-1.494-1.96z" fill="#fff"/><defs><linearGradient id="paint0_linear" x1="332.846" y1="286.529" x2="319.042" y2="325.136" gradientUnits="userSpaceOnUse"><stop stop-color="#0160D1"/><stop offset="1" stop-color="#00479C"/></linearGradient><linearGradient id="paint1_linear" x1="303.653" y1="282.292" x2="293.605" y2="310.391" gradientUnits="userSpaceOnUse"><stop stop-color="#0160D1"/><stop offset="1" stop-color="#00479C"/></linearGradient><clipPath id="clip0"><path fill="#fff" transform="rotate(20.452 -119.481 51.555)" d="M0 0h197v30H0z"/></clipPath><clipPath id="clip1"><path fill="#fff" transform="rotate(19.675 -641.155 995.698)" d="M0 0h173v41H0z"/></clipPath></defs></svg>