<svg width="80" height="80" viewBox="0 0 80 80" fill="none" xmlns="http://www.w3.org/2000/svg"><g clip-path="url(#clip0)"><path d="M44.077 28.49a.967.967 0 01-.857.742l-9.409.817-4.908 8.068a.967.967 0 01-1.044.44.958.958 0 01-.732-.806l-2.896-21.47a.805.805 0 01.013-.354.968.968 0 011.159-.72c.122.03.23.073.323.146l17.956 12.125c.315.21.49.608.395 1.013z" fill="#F9FAFC"/><path d="M28.28 17.228c-.01-.048.004-.1.004-.147l-2.558-1.728a.805.805 0 00-.323-.146.968.968 0 00-1.16.72.833.833 0 00-.013.353l2.895 21.472a.96.96 0 00.732.806.967.967 0 001.044-.44l1.795-2.951-2.416-17.939z" fill="#E2E7EE"/><path d="M43.326 62.104c6.707 1.57 13.417-2.595 14.987-9.302 1.57-6.708-2.594-13.418-9.302-14.988-6.707-1.57-13.417 2.595-14.987 9.302-1.57 6.707 2.594 13.418 9.302 14.988z" fill="#6AB0FF"/><path d="M38.072 48.064c1.408-6.017 6.953-9.972 12.92-9.595a12.44 12.44 0 00-1.98-.655c-6.708-1.57-13.418 2.594-14.988 9.302-1.57 6.708 2.594 13.418 9.302 14.988.69.161 1.38.247 2.066.292-5.515-2.31-8.729-8.316-7.32-14.332z" fill="#2A79FC"/><path d="M60.09 18.811l1.571-.974 1.949 3.14-1.57.974-1.95-3.14zm5.6 9.029l1.57-.974 1.95 3.14-1.57.975-1.95-3.14zm-7.93-.526l3.14-1.948.974 1.57-3.14 1.948-.975-1.57zm9.027-5.602l3.14-1.948.975 1.57-3.14 1.948-.975-1.57z" fill="#F9FAFC"/><path d="M45.977 44.695l2.699.632-2.316 9.896-2.7-.632 2.317-9.896z" fill="#262B37"/><path d="M41.536 47.451l9.896 2.317-.632 2.698-9.895-2.316.631-2.699zm-13.993-7.545a2.36 2.36 0 01-1.79-1.972l-2.895-21.468c-.047-.214-.04-.531.037-.857a2.353 2.353 0 012.824-1.75c.317.073.6.204.843.388l17.894 12.08c.8.54 1.191 1.535.97 2.48a2.347 2.347 0 01-2.085 1.806l-8.712.756-4.543 7.47a2.345 2.345 0 01-2.543 1.067zm-1.816-22.88l2.612 19.35 4.288-7.049c.23-.377.624-.622 1.064-.66l8.22-.714-16.184-10.927zm-.778-.526c.006.003.013.009.021.012l-.021-.012zm.641-.495l.013.092c-.004-.026-.007-.059-.013-.092z" fill="#262B37"/><path d="M43.01 63.453c-7.442-1.742-12.078-9.211-10.336-16.653 1.742-7.441 9.211-12.077 16.653-10.335 7.442 1.741 12.078 9.21 10.336 16.652C57.92 60.56 50.45 65.195 43.01 63.453zm5.685-24.29c-5.953-1.393-11.928 2.315-13.322 8.269-1.394 5.953 2.315 11.929 8.268 13.322 5.954 1.394 11.93-2.315 13.323-8.268 1.393-5.954-2.315-11.929-8.269-13.323z" fill="#262B37"/></g><defs><clipPath id="clip0"><path fill="#fff" transform="rotate(13.174 7.58 65.648)" d="M0 0h66.523v66.523H0z"/></clipPath></defs></svg>