<svg width="152" height="67" viewBox="0 0 152 67" fill="none" xmlns="http://www.w3.org/2000/svg"><g clip-path="url(#clip0)"><path d="M7.14 65.633l-.009-5.705H6.04l-2.102 3.545L1.8 59.928H.71v5.705h1.239v-3.35l1.679 2.747h.587l1.679-2.812.008 3.415H7.14zm2.728-1.06v-1.32h2.65v-1.027h-2.65v-1.239h3v-1.06H8.555v5.706h4.418v-1.06H9.867zm6.854 1.157c.994 0 1.817-.358 2.355-1.018l-.847-.782c-.384.448-.864.676-1.435.676-1.068 0-1.826-.75-1.826-1.825 0-1.076.758-1.826 1.826-1.826.57 0 1.051.228 1.435.668l.847-.782c-.538-.652-1.36-1.01-2.347-1.01-1.777 0-3.097 1.23-3.097 2.95 0 1.72 1.32 2.95 3.089 2.95zm7.521-5.802h-4.947v1.076h1.817v4.629h1.305v-4.63h1.825v-1.075zm3.472 5.802c1.793 0 3.122-1.247 3.122-2.95 0-1.704-1.329-2.95-3.122-2.95-1.801 0-3.122 1.254-3.122 2.95 0 1.695 1.32 2.95 3.122 2.95zm0-1.125c-1.019 0-1.785-.742-1.785-1.825 0-1.084.766-1.826 1.785-1.826s1.785.742 1.785 1.826-.766 1.825-1.785 1.825zm10.472-4.677H34.16v5.705h1.312l-.009-4.63h2.715l.008-1.075zm5.182 4.629v-4.63h-4.385l-.065 1.786c-.057 1.597-.244 2.82-.986 2.844h-.228l-.009 2.258h1.223v-1.182h4.026v1.182h1.223v-2.258h-.799zm-3.285-2.722l.025-.831h1.956v3.553h-2.551c.391-.465.521-1.508.57-2.722zm6.286 2.738v-1.32h2.648v-1.027H46.37v-1.239h2.999v-1.06h-4.312v5.706h4.418v-1.06H46.37zm10.392-4.645v2.25H54.17v-2.25h-1.32v5.705h1.32v-2.34h2.592v2.34h1.32v-5.705h-1.32zm7.118 5.705h1.386l-2.55-5.705H61.41l-2.543 5.705h1.353l.505-1.223h2.65l.505 1.223zm-2.73-2.225l.905-2.184.905 2.184h-1.81zm7.825-3.48v2.567c-.367.163-.79.253-1.223.253-.79 0-1.222-.4-1.222-1.182v-1.638h-1.304v1.785c0 1.377.84 2.135 2.371 2.135.424 0 .88-.09 1.378-.269v2.054h1.304v-5.705h-1.304zm2.722 5.705h1.247l2.722-3.708v3.708h1.304v-5.705h-1.239l-2.722 3.716v-3.716h-1.312v5.705zm10.605-5.705v2.25h-2.591v-2.25h-1.32v5.705h1.32v-2.34h2.591v2.34h1.32v-5.705h-1.32zm7.119 5.705h1.386l-2.552-5.705h-1.303l-2.543 5.705h1.353l.505-1.223h2.649l.505 1.223zm-2.73-2.225l.904-2.184.905 2.184h-1.81zm6.184 1.165v-1.32h2.649v-1.027h-2.65v-1.239h3v-1.06h-4.311v5.706h4.417v-1.06h-3.105zm8.531-4.645h-4.947v1.076h1.818v4.629h1.304v-4.63h1.825v-1.075zm3.449 5.802c.994 0 1.818-.359 2.356-1.019l-.848-.782c-.383.448-.864.676-1.435.676-1.067 0-1.825-.75-1.825-1.825 0-1.076.758-1.826 1.825-1.826.571 0 1.052.228 1.435.668l.848-.782c-.538-.652-1.362-1.01-2.348-1.01-1.777 0-3.097 1.23-3.097 2.95 0 1.72 1.32 2.95 3.089 2.95zm5.198-5.802c-1.508 0-2.462.799-2.462 2.127 0 .897.432 1.549 1.199 1.858l-1.19 1.72h1.393l1.011-1.516h1.206v1.516h1.304v-5.705h-2.461zm.033 1.076h1.124v2.07h-1.157c-.742 0-1.125-.375-1.125-1.035 0-.685.408-1.035 1.158-1.035zm6.166 4.629h2.706c1.467 0 2.307-.66 2.307-1.801 0-1.092-.742-1.68-2.12-1.68h-1.581V60.98h3.293v-1.051h-4.605v5.705zm1.312-.978v-1.532h1.321c.692 0 1.043.244 1.043.75 0 .513-.367.782-1.043.782h-1.321zm4.705.978h1.247l2.722-3.708v3.708h1.305v-5.705h-1.239l-2.722 3.716v-3.716h-1.313v5.705zm9.937-2.975c.505-.22.823-.66.823-1.214 0-1.035-1.141-1.638-2.461-1.638a4.31 4.31 0 00-1.956.464l.399 1.027a3.2 3.2 0 011.532-.407c.644 0 1.15.244 1.15.709 0 .375-.31.611-.848.611h-1.296v.994h1.394c.595 0 .986.212.986.644 0 .53-.611.807-1.361.807-.554 0-1.19-.147-1.712-.465l-.407.946a4.604 4.604 0 002.274.595c1.369 0 2.543-.62 2.543-1.695 0-.644-.4-1.15-1.06-1.378zm6.017-2.73v2.25h-2.591v-2.25h-1.321v5.705h1.321v-2.34h2.591v2.34h1.321v-5.705h-1.321zm4.062 4.645v-1.32h2.649v-1.027h-2.649v-1.239h2.999v-1.06h-4.311v5.706h4.417v-1.06h-3.105zm6.855 1.157c.994 0 1.818-.359 2.356-1.019l-.848-.782c-.382.448-.864.676-1.434.676-1.068 0-1.827-.75-1.827-1.825 0-1.076.759-1.826 1.827-1.826.57 0 1.052.228 1.434.668l.848-.782c-.538-.652-1.362-1.01-2.347-1.01-1.777 0-3.098 1.23-3.098 2.95 0 1.72 1.321 2.95 3.089 2.95zM65.606 46.91h6.337c4.44 0 7.484-2.583 7.484-6.7 0-4.115-3.043-6.7-7.485-6.7h-6.336v13.4zm3.79-3.024v-7.35h2.393c2.278 0 3.81 1.358 3.81 3.675 0 2.316-1.532 3.675-3.81 3.675h-2.392zm19.931 3.292c4.288 0 7.447-2.948 7.447-6.968s-3.159-6.968-7.447-6.968-7.447 2.948-7.447 6.968 3.159 6.968 7.447 6.968zm0-3.14c-2.03 0-3.618-1.511-3.618-3.828 0-2.316 1.589-3.828 3.618-3.828 2.03 0 3.618 1.512 3.618 3.828s-1.589 3.829-3.618 3.829zm10.581 2.872h10.184v-3.005h-6.394V33.511h-3.79v13.4zm12.832 0h3.79v-13.4h-3.79v13.4zm16.67-13.4v7.141l-5.915-7.14h-3.12v13.4h3.713v-7.14l5.915 7.14h3.121v-13.4h-3.714zm17.568 13.4h3.943l-5.934-13.4h-3.733l-5.916 13.4h3.868l1.052-2.603h5.667l1.053 2.604zm-5.609-5.397l1.723-4.288 1.722 4.288h-3.445zM65.671 24.612h6.647c4.658 0 7.851-2.711 7.851-7.028s-3.193-7.028-7.851-7.028H65.67v14.056zm3.976-3.173v-7.71h2.51c2.39 0 3.996 1.425 3.996 3.855 0 2.43-1.606 3.855-3.996 3.855h-2.51zm12.613 3.173h3.976V10.556H82.26v14.056zm16.223-3.473a5.05 5.05 0 01-2.149.462c-2.37 0-3.976-1.647-3.976-4.017 0-2.43 1.607-4.015 4.016-4.015 1.346 0 2.45.501 3.414 1.566l2.53-2.29c-1.386-1.666-3.514-2.57-6.144-2.57-4.559 0-7.832 3.032-7.832 7.31 0 4.276 3.273 7.309 7.751 7.309 2.048 0 4.277-.623 5.904-1.787v-5.824h-3.514v3.856zm6.033 3.473h3.976V10.556h-3.976v14.056zm9.798 0h3.976V13.708h4.297v-3.152h-12.59v3.152h4.317v10.904zm19.57 0h4.137l-6.225-14.056h-3.916l-6.205 14.056h4.057l1.104-2.731h5.944l1.104 2.73zm-5.883-5.663l1.807-4.498 1.807 4.498h-3.614zm11.145 5.663h10.683v-3.153h-6.707V10.556h-3.976v14.056z" fill="#B53CEE"/><path d="M0 17.775h16.408c9.817 0 17.776 7.959 17.776 17.776s-7.959 17.775-17.776 17.775H0v-35.55z" fill="#671090"/><path opacity=".5" d="M17.776 0h16.408C44 0 51.959 7.958 51.959 17.776c0 9.817-7.958 17.775-17.775 17.775H17.776V0z" fill="#B53CEE"/></g><defs><clipPath id="clip0"><path fill="#fff" d="M0 0h151.776v67H0z"/></clipPath></defs></svg>