<svg width="130" height="36" viewBox="0 0 130 36" fill="none" xmlns="http://www.w3.org/2000/svg"><path fill-rule="evenodd" clip-rule="evenodd" d="M46.896.233L36.747 16.565V.233H25.781l-7.35 9.8-7.465-9.8H0V34.88h10.966V16.33l7.466 9.684 7.35-9.566v18.315H36.98l4.55-7.35h11.55v7.35h10.965v-24.73L46.896.233zm6.183 8.633v8.75h-5.483l5.483-8.75z" fill="#FCDF6B"/><path fill-rule="evenodd" clip-rule="evenodd" d="M102.892 0v17.499h-5.833V0H46.896L36.747 16.332V0H25.781l-7.35 9.8L10.85 0H0v34.647h10.966V16.1l7.466 9.682 7.35-9.566v18.316H36.98l4.55-7.35h11.55v7.35h10.965V9.799h5.833v24.732H80.61V9.799h5.483v17.499h16.682v7.233h10.966V0h-10.849zM53.079 8.75v8.749h-5.483l5.483-8.75v.001z" fill="url(#paint0_linear)"/><path fill-rule="evenodd" clip-rule="evenodd" d="M118.291 0v21.115l10.966-6.533V0h-10.966z" fill="url(#paint1_linear)"/><path fill-rule="evenodd" clip-rule="evenodd" d="M129.957 28.231c-.35-2.916-2.683-5.366-5.716-5.716a6.436 6.436 0 00-5.141 1.86 6.448 6.448 0 00-1.859 5.14c.35 2.916 2.683 5.366 5.716 5.6 4.083.466 7.467-2.917 7-6.884z" fill="url(#paint2_linear)"/><defs><linearGradient id="paint0_linear" x1="55.754" y1="-4.28" x2="58.324" y2="44.762" gradientUnits="userSpaceOnUse"><stop offset=".047" stop-color="#C59239"/><stop offset=".158" stop-color="#FCD864"/><stop offset=".26" stop-color="#D49D3C"/><stop offset=".355" stop-color="#A97427"/><stop offset=".467" stop-color="#92601E"/><stop offset=".553" stop-color="#83551A"/><stop offset=".663" stop-color="#996520"/><stop offset=".837" stop-color="#F0C053"/></linearGradient><linearGradient id="paint1_linear" x1="103.981" y1="282.893" x2="124.407" y2="-2.375" gradientUnits="userSpaceOnUse"><stop/><stop offset="1" stop-color="#F0F0F0"/></linearGradient><linearGradient id="paint2_linear" x1="126.413" y1="35.652" x2="111.48" y2="-1.153" gradientUnits="userSpaceOnUse"><stop stop-color="#F1F1F1"/><stop offset="1" stop-color="#BDBDBD"/></linearGradient></defs></svg>