<svg width="150" height="35" viewBox="0 0 150 35" fill="none" xmlns="http://www.w3.org/2000/svg"><path fill-rule="evenodd" clip-rule="evenodd" d="M15.458 13.042L19.368 0h-8.666L6.805 13.042h8.653zm2.97.09l-1.752 5.932h13.352L25.47 34.428h8.689L44.436 0h-8.7l-3.933 13.132H18.428zM.425 34.428H9.09l4.512-15.162H4.95L.425 34.428zm103.507-6.616l.789-2.636h-8.955l.951-3.218h9.768l.8-2.68H93.759l-4.524 15.15h13.978l.812-2.725H93.817l1.149-3.891h8.966zm40.101-14.77l-3.932 13.154a8.374 8.374 0 01-1.601 3.23 5.902 5.902 0 01-2.198 1.437 6.067 6.067 0 01-2.628.357c-2.215 0-3.48-.594-3.781-1.794a5.96 5.96 0 01.324-3.23l3.933-13.154h-5.522l-3.944 13.154a8.687 8.687 0 00-.301 5.316c.928 2.325 3.634 3.488 8.12 3.488 4.485 0 7.888-1.163 10.208-3.488a12.543 12.543 0 002.958-5.316l3.944-13.154h-5.58zm-22.831 6.629a3.2 3.2 0 011.462 1.054v.034c.283.381.476.817.569 1.278a3.375 3.375 0 01-.128 1.593 5.507 5.507 0 01-1.311 2.085 5.403 5.403 0 01-2.633 1.48c.315.089.607.24.857.445.25.205.452.459.593.744a4.003 4.003 0 01-.174 2.378l-.302 1.02a7.12 7.12 0 00-.324 1.402.872.872 0 00.09.494c.078.153.2.281.35.37l-.104.38h-4.234a6.797 6.797 0 010-.806 5.98 5.98 0 01.232-1.313l.394-1.401c.267-.965.244-1.615-.069-1.94a3.327 3.327 0 00-2.181-.483h-3.979l-1.763 5.944h-3.782l4.524-15.15h9.048a8.76 8.76 0 012.865.392zm-2.696 5.449c.292-.3.501-.666.609-1.064h-.058c.266-.92.081-1.537-.569-1.84a4.39 4.39 0 00-1.798-.269h-4.478l-1.16 4.071h4.362a6.81 6.81 0 002.03-.247c.405-.127.77-.351 1.062-.651zm-82.1 9.309l11.113-15.15h4.35l1.96 15.15h-4.176l-.267-3.118h-6.751l-2.192 3.118h-4.037zm12.203-11.685l-4.153 5.966h4.687l-.534-5.966zm43.516-3.467h-4.988l-8.978 6.236 1.867-6.236h-3.793l-4.524 15.151h3.793l1.508-5.069 2.297-1.548 3.724 6.617h4.953l-5.278-8.915 9.42-6.236zm-24.674 9.96h3.816a9.834 9.834 0 01-3.758 4.048 10.71 10.71 0 01-5.73 1.559c-2.657 0-4.537-.65-5.639-2.064-1.102-1.413-1.276-3.33-.545-5.786.667-2.484 2.225-4.658 4.397-6.135a11.158 11.158 0 016.299-1.872c3.093 0 5.111.837 6.055 2.512.499.858.648 1.866.417 2.826h-3.85a2.79 2.79 0 00-.477-1.649 3.294 3.294 0 00-1.28-.82 3.389 3.389 0 00-1.527-.167 5.594 5.594 0 00-3.781 1.402 7.92 7.92 0 00-2.378 3.936c-.51 1.694-.476 2.972.127 3.825.328.43.765.773 1.268.994a3.344 3.344 0 001.609.273 5.42 5.42 0 003.48-1.122 6.537 6.537 0 001.497-1.76z" fill="#fff"/></svg>