<svg width="148" height="46" viewBox="0 0 148 46" fill="none" xmlns="http://www.w3.org/2000/svg"><path d="M53.919 18.428l5.18-14.217h2.15l5.18 14.217h-2.088l-1.454-4.088H57.44l-1.453 4.088h-2.069.001zm4.054-5.74h4.382L60.758 8.2l-.574-2.035h-.04c-.206.86-.39 1.538-.554 2.034l-1.617 4.49zm10.292 5.74V8.238h1.986v4.109h1.454l2.825-4.108h2.253l-3.46 4.853v.04l3.87 5.296h-2.355l-3.092-4.41H70.25v4.41h-1.986.001zm9.738-2.778c0-.752.211-1.383.635-1.894.423-.51.982-.872 1.679-1.087a11.45 11.45 0 011.965-.463c.6-.08 1.236-.121 1.905-.121h.532v-.202c0-1.49-.758-2.235-2.273-2.235-.996 0-1.966.33-2.907.987l-.8-1.43c.424-.35.997-.638 1.72-.866a7.117 7.117 0 012.15-.342c1.311 0 2.322.342 3.031 1.027.71.685 1.065 1.67 1.065 2.96v6.444h-1.863V17.4l.061-.805h-.04a3.854 3.854 0 01-1.393 1.49c-.6.39-1.27.584-2.007.584-.942 0-1.754-.275-2.436-.826-.683-.55-1.024-1.282-1.024-2.195zm1.986-.162c0 .443.17.826.512 1.148.341.322.819.483 1.433.483.82 0 1.488-.335 2.007-1.006.519-.672.778-1.417.778-2.236v-.382h-.512c-2.812 0-4.218.664-4.218 1.993zm11.679 1.329h4.587V9.83h-3.113v.544c0 2.793-.491 4.94-1.474 6.444v-.001zm-3.317 0h1.27c1.078-1.45 1.617-3.685 1.617-6.706V8.24h7.003v8.578h1.474v4.028h-1.822v-2.417h-7.679v2.417h-1.863v-4.029zm12.652-3.483c0-1.598.491-2.887 1.474-3.867s2.225-1.47 3.727-1.47c1.406 0 2.505.456 3.297 1.37.791.899 1.187 2.033 1.187 3.403 0 .174-.027.45-.082.825h-7.535c.055 1.06.416 1.893 1.085 2.497.683.59 1.509.887 2.478.887 1.133 0 2.15-.397 3.051-1.19l.839 1.43c-.491.444-1.105.8-1.843 1.068a6.48 6.48 0 01-2.17.383c-1.611 0-2.935-.503-3.972-1.51-1.024-1.02-1.536-2.296-1.536-3.826zm2.129-1.148h5.549c-.027-.846-.279-1.504-.757-1.974-.464-.47-1.051-.705-1.761-.705-.778 0-1.447.242-2.007.725-.546.47-.887 1.12-1.024 1.954zm9.515 6.242l.901-10.19h2.211l2.641 5.76.574 1.37h.041c.204-.497.396-.954.573-1.37l2.703-5.76h2.17l.901 10.19h-1.924l-.451-6.061.021-1.752h-.041c-.178.47-.396.966-.656 1.49l-2.457 5.095h-1.699l-2.457-5.075-.656-1.51h-.041l.021 1.752-.451 6.06h-1.924zm15.387 0V8.238h1.904v6.082c0 .712-.02 1.168-.061 1.37h.041c.068-.162.375-.618.921-1.37l4.464-6.081h1.925v10.19h-1.925v-6.082c0-.188.007-.45.02-.786.028-.35.041-.537.041-.563h-.041c-.013.026-.314.476-.901 1.349l-4.484 6.08h-1.904zm11.193 0l2.396-3.383.471-.624v-.02a3.14 3.14 0 01-1.597-1.047c-.437-.537-.655-1.175-.655-1.913 0-1.02.334-1.806 1.003-2.357.683-.564 1.583-.845 2.703-.845h4.136v10.19h-1.986v-3.686h-1.741l-2.539 3.685h-2.191zm4.751-5.115h1.72V9.588h-1.659c-1.46 0-2.191.61-2.191 1.832 0 .618.198 1.088.594 1.41.396.322.908.483 1.536.483zM56.435 32.84c0-2.082.69-3.814 2.068-5.197 1.392-1.382 3.153-2.074 5.283-2.074 2.198 0 3.959.625 5.283 1.873l-1.024 1.49c-.532-.47-1.18-.845-1.945-1.127a6.318 6.318 0 00-2.232-.423c-1.638 0-2.942.517-3.911 1.55-.956 1.034-1.434 2.33-1.434 3.887 0 1.57.492 2.9 1.475 3.987.983 1.088 2.286 1.632 3.91 1.632.806 0 1.598-.162 2.376-.484a6.578 6.578 0 002.068-1.37l1.085 1.43c-1.529 1.504-3.392 2.256-5.59 2.256s-3.986-.705-5.365-2.114c-1.365-1.423-2.047-3.196-2.047-5.317zm14.329 4.41c0-.752.212-1.383.635-1.894.423-.51.983-.872 1.679-1.087.71-.228 1.365-.383 1.966-.463.6-.08 1.235-.121 1.904-.121h.532v-.202c0-1.49-.757-2.235-2.273-2.235-.996 0-1.965.33-2.907.987l-.799-1.43c.423-.35.997-.637 1.72-.866a7.12 7.12 0 012.15-.342c1.31 0 2.32.342 3.03 1.027.71.685 1.066 1.67 1.066 2.96v6.444h-1.864V39l.062-.805h-.041a3.854 3.854 0 01-1.393 1.49c-.6.39-1.27.584-2.006.584-.942 0-1.755-.275-2.437-.826-.683-.55-1.024-1.282-1.024-2.195zm1.986-.162c0 .443.17.826.512 1.148.341.322.82.483 1.433.483.82 0 1.488-.335 2.007-1.007.519-.67.778-1.416.778-2.235v-.382h-.512c-2.812 0-4.218.664-4.218 1.993zm9.672.142V25.81h1.966v11.097c0 .55.095.933.286 1.148.205.2.485.302.84.302.15 0 .266-.007.348-.02v1.732c-.287.04-.505.06-.655.06-1.857 0-2.785-.966-2.785-2.9zm5.459 0V25.81h1.966v11.097c0 .55.095.933.287 1.148.204.2.484.302.839.302.15 0 .266-.007.348-.02v1.732c-.287.04-.505.06-.655.06-1.857 0-2.785-.966-2.785-2.9zm5.889-.927V31.53h-1.35v-1.59h1.392v-2.9h1.945v2.9h2.498v1.59h-2.498v4.55c0 .39.055.733.164 1.028.11.282.239.504.39.665.163.16.347.289.552.383.219.093.41.154.573.18.178.028.355.04.533.04.177 0 .334-.012.47-.04v1.733c-.23.032-.462.052-.695.06-.314 0-.628-.027-.942-.08a4.604 4.604 0 01-1.024-.282 3.592 3.592 0 01-1.004-.625c-.273-.268-.511-.644-.716-1.127-.191-.497-.287-1.068-.287-1.712h-.001zm5.913-1.39c0-1.517.539-2.78 1.618-3.786 1.078-1.02 2.395-1.53 3.952-1.53 1.57 0 2.894.503 3.972 1.51 1.078 1.007 1.618 2.276 1.618 3.806 0 1.53-.54 2.806-1.618 3.827-1.078 1.02-2.396 1.53-3.952 1.53s-2.88-.51-3.972-1.53c-1.079-1.02-1.618-2.296-1.618-3.827zm2.027 0c0 1.06.342 1.94 1.024 2.638.696.685 1.543 1.027 2.539 1.027.983 0 1.823-.35 2.519-1.047.696-.698 1.044-1.57 1.044-2.618 0-1.047-.348-1.913-1.044-2.597a3.465 3.465 0 00-2.519-1.028c-.996 0-1.843.343-2.539 1.027-.682.685-1.024 1.55-1.024 2.598zm11.404 1.45V29.84h1.986v6.08c0 .807.136 1.43.409 1.874.273.443.785.665 1.536.665 1.024 0 1.843-.376 2.457-1.128.615-.752.922-1.658.922-2.72V29.84h1.965v10.19h-1.924v-1.41l.082-.745h-.041c-.273.604-.751 1.154-1.434 1.65-.682.498-1.488.746-2.416.746-2.362 0-3.542-1.302-3.542-3.907v-.001zm11.665-1.43c0-1.517.518-2.785 1.556-3.806 1.051-1.02 2.382-1.53 3.993-1.53 1.638 0 2.935.497 3.89 1.49l-.942 1.37c-.791-.78-1.747-1.17-2.866-1.17-1.038 0-1.898.35-2.58 1.049-.683.684-1.024 1.544-1.024 2.577 0 1.048.341 1.92 1.024 2.618.696.698 1.576 1.047 2.641 1.047.573 0 1.147-.12 1.72-.362a4.45 4.45 0 001.474-1.007l.799 1.43c-.478.497-1.085.893-1.823 1.188a6.158 6.158 0 01-2.313.443c-1.625 0-2.956-.503-3.993-1.51-1.038-1.007-1.556-2.283-1.556-3.826zm11.833 5.095V25.81h1.986v5.276l-.081.846h.041c.286-.59.771-1.128 1.453-1.611.683-.483 1.495-.725 2.437-.725 2.362 0 3.542 1.302 3.542 3.907v6.524h-1.986v-6.081c0-.82-.136-1.45-.409-1.893-.26-.443-.772-.665-1.536-.665-.997 0-1.822.363-2.478 1.088-.655.71-.983 1.617-.983 2.718v4.833h-1.986z" fill="#fff"/><path d="M11.91 18.283L19.769 0h11.485l19.768 46h-12.7l-4.045-10.835H25.66c-3.55 0-6.428-2.83-6.428-6.32 0-3.491 2.878-6.321 6.428-6.321h3.895L25.51 11.689a17.523 17.523 0 00-13.6 6.594z" fill="url(#paint0_linear)"/><path d="M8.374 26.514L0 46h25.66c-9.635 0-17.446-7.68-17.446-17.156 0-.79.054-1.568.16-2.33z" fill="url(#paint1_linear)"/><defs><linearGradient id="paint0_linear" x1="25.511" y1=".038" x2="22.629" y2="45.819" gradientUnits="userSpaceOnUse"><stop offset=".062" stop-color="#00B5DA"/><stop offset=".515" stop-color="#7E92FF"/><stop offset="1" stop-color="#CA75ED"/></linearGradient><linearGradient id="paint1_linear" x1="25.511" y1=".038" x2="22.629" y2="45.819" gradientUnits="userSpaceOnUse"><stop offset=".062" stop-color="#00B5DA"/><stop offset=".515" stop-color="#7E92FF"/><stop offset="1" stop-color="#CA75ED"/></linearGradient></defs></svg>