<svg width="169" height="62" viewBox="0 0 169 62" fill="none" xmlns="http://www.w3.org/2000/svg"><path fill-rule="evenodd" clip-rule="evenodd" d="M43.015 12.216c3.845 2.353 6.869 6.88 8.283 12.476a.38.38 0 00.438.287c5.533-1.054 10.428-2.696 14.175-4.81a.394.394 0 00.045-.649 30.622 30.622 0 00-3.705-2.436c-1.937-1.09-4.058-2.037-6.32-2.837v-3.06c0-.006 0-.013-.002-.02v-.01l-.002-.009a.146.146 0 01-.001-.013V9.816c0-1.768 1.407-3.207 3.136-3.207h2.455c.007 0 .014 0 .02-.002l.016-.002.017.002.01.002h.01c.483 0 .874-.4.874-.893V.893A.883.883 0 0061.591 0H44.642c-.482 0-.874.4-.874.893v4.823c0 .494.392.893.874.893.017 0 .032-.002.048-.004a.632.632 0 01.025-.003.351.351 0 00.073.007h2.454c1.73 0 3.136 1.439 3.136 3.207v2.836a58.032 58.032 0 00-7.133-1.154c-.402-.04-.577.507-.23.719zm11.163-2.4v1.661l.003.03.001.008.001.014v2.142l-.111-.034a43.12 43.12 0 00-.468-.144V9.226a4.255 4.255 0 012.783-3.582 5.02 5.02 0 00-2.209 4.172zm6.539-8.03v2.903h-2.962c-2.043 0-3.794 1.294-4.517 3.12-.723-1.826-2.473-3.12-4.516-3.12h-3.206V1.786h15.2zm-8.592 9.698V9.817a5.013 5.013 0 00-2.374-4.277c1.763.46 3.08 2.067 3.138 3.997l-.003.057c-.002.026-.004.051-.004.076v3.617l-.063-.018c-.23-.064-.46-.129-.694-.19v-1.595zm-14.344 39.75c5.657-.551 10.43-5.494 12.478-12.328a.466.466 0 00-.387-.588 87.68 87.68 0 00-12.142-.96.475.475 0 00-.487.467v12.949c0 .278.251.489.538.46zM50.278 24.82c-3.996.67-8.288 1.048-12.695 1.091a.34.34 0 01-.34-.34V11.104c6.047.303 11.149 5.95 13.035 13.715zm15.545 18.464C62 41.253 57.047 39.678 51.47 38.67a.296.296 0 00-.338.21c-1.526 5.477-4.687 9.864-8.667 12.062-.281.154-.152.576.167.547a62.014 62.014 0 005.935-.82c-1.799 2.553-4.737 4.093-7.95 4.093h-.605a9.72 9.72 0 01-8.219-4.509c1.214.608 2.501 1 3.84 1.132a.468.468 0 00.51-.467V37.863a.473.473 0 00-.481-.47c-1.805.02-3.589.099-5.344.226v-1.022a88.385 88.385 0 015.357-.223.469.469 0 00.468-.465v-8.425a.468.468 0 00-.468-.464 88.88 88.88 0 01-5.357-.223v-1.023c1.785.13 3.6.209 5.437.227a.383.383 0 00.388-.38V11.456c-2.086.103-4.056.832-5.825 2.042v-1.235c.283-.175.57-.34.86-.493.214-.111.114-.432-.127-.412-.15.013-.298.028-.447.043l-.286.029v-.016a.02.02 0 010-.003V9.773c0-1.74 1.433-3.154 3.193-3.154h2.498l.014-.002h.006l.008-.001.013.001.014.002a.884.884 0 00.889-.88V.997a.884.884 0 00-.89-.878H10.324a.883.883 0 00-.889.878V5.74c0 .485.398.879.889.879h.005a.03.03 0 01.005-.001h2.506c1.76 0 3.192 1.415 3.192 3.155v1.256a.05.05 0 00-.001.01v3.574a40.622 40.622 0 00-5.093 2.308 31.394 31.394 0 00-3.668 2.32.465.465 0 00.067.784c2.462 1.326 5.41 2.456 8.694 3.37v1.055c-3.924-1.07-7.395-2.443-10.172-4.08l-.002-.002a.01.01 0 00-.003-.003C2.044 23.619 0 27.431 0 31.438c0 4.047 2.083 7.894 5.966 11.17.15.127.366.146.539.05 2.662-1.477 5.9-2.727 9.526-3.716v1.054c-3.101.862-5.902 1.918-8.277 3.15a.467.467 0 00-.056.799 31.973 31.973 0 003.24 2.01c1.924 1.046 4.025 1.957 6.264 2.73.104.037.21.032.303 0 3.046 7.515 10.487 12.84 19.168 12.84h.487c7.95 0 15.071-4.973 17.72-12.375a.177.177 0 00.006-.019l.002-.007.002-.009.005-.025c2.7-.853 5.218-1.9 7.488-3.135a31.635 31.635 0 003.475-2.18.291.291 0 00-.035-.492zM28.54 9.773v1.262l-.001.003v34.144c0 6.25 5.147 11.335 11.472 11.335h.605c4.346 0 8.268-2.38 10.236-6.211a.816.816 0 00.048-.12l.002-.006a32.83 32.83 0 00.434-.104c-2.403 4.967-7.43 8.13-13.067 8.13h-.3c-7.99 0-14.49-6.424-14.49-14.319V11.03c0-.024-.003-.047-.004-.07l-.003-.06c.07-3.025 2.578-5.467 5.657-5.467h2.061c-1.574.825-2.65 2.46-2.65 4.34zm6.633-7.898V4.73H29.13a6.375 6.375 0 00-6.013 4.225 6.376 6.376 0 00-6.012-4.225h-5.892V1.875h23.961zm1.987 57.893h-.487c-10.402 0-18.864-8.362-18.864-18.64V11.415a.05.05 0 00.002-.008V9.773c0-1.88-1.076-3.516-2.65-4.34h1.943c3.079 0 5.586 2.441 5.656 5.467l-.003.06c-.001.023-.003.045-.003.069v2.486c0 .015.004.029.008.042l.002.008c0 .005.002.01.003.014v30.309c0 8.282 6.82 15.02 15.202 15.02h.3c6.11 0 11.538-3.538 13.952-9.05.174-.045.346-.092.519-.139-2.695 6.059-8.805 10.05-15.58 10.05zm29.554-39.322a.65.65 0 01.764.076c3.525 3.19 5.411 6.893 5.411 10.78 0 4.02-2.015 7.844-5.776 11.106a.651.651 0 01-.746.073c-3.803-2.126-8.76-3.781-14.359-4.851a.659.659 0 01-.52-.78 28.7 28.7 0 00.535-5.547c0-1.745-.157-3.438-.448-5.06a.659.659 0 01.522-.767c5.734-1.104 10.791-2.821 14.617-5.03zM37.713 36.188c4.284.045 8.463.384 12.382.982a.472.472 0 00.54-.352c.373-1.727.574-3.551.574-5.438a25.77 25.77 0 00-.476-4.941.471.471 0 00-.542-.361 88.613 88.613 0 01-12.478.998.463.463 0 00-.47.452v8.207c0 .249.21.45.47.453zm45.986-8.854l.052 1.092s1.844-.084 2.866-.084a90 90 0 012.919.084l.052-1.092-1.709-.407V23.43c.225.058.822.19 1.58.192l3.604 5.397 2.16-.484.224-.742-3.732-4.592c1.352-.515 2.65-1.579 2.285-3.997-.418-2.767-3.296-2.724-4.404-2.708l-.199.002c-.227 0-.541.027-.918.058-1.13.094-2.814.234-4.336-.15l-.292 1.119s.54.254 1.422.451v8.983l-1.574.375zm7.566-7.29c0 1.144-.672 2.33-3.386 1.868v-3.728l.069-.004.212-.015c2.475-.232 3.105.723 3.105 1.878zm21.534 8.306h.812c.103 0 .288.003.553.01l.772.015h.002l.064.001a749.805 749.805 0 011.322.026c.795 0 1.486-.1 2.073-.302a5.021 5.021 0 001.504-.795 4.402 4.402 0 001.019-1.132c.265-.426.47-.86.614-1.305.144-.442.245-.88.303-1.313.057-.432.085-.826.085-1.183 0-.715-.098-1.423-.293-2.126a5.161 5.161 0 00-.977-1.892c-.455-.559-1.063-1.011-1.823-1.356-.76-.346-1.699-.519-2.816-.519a24.248 24.248 0 00-1.236.035c-.213.011-.449.02-.708.026-.26.006-.551.009-.873.009h-.622c-.185 0-.372-.003-.561-.01l-.606-.017a52.22 52.22 0 01-.768-.025l-.121 1.053 1.382.415v8.986l-1.538.466.104.985c.322-.011.614-.02.873-.026l.083-.002h.001l.658-.015c.236-.006.476-.009.718-.009zm1.728-10.195c.126-.011.269-.02.429-.026.161-.005.323-.008.483-.008.505 0 .984.06 1.438.181.453.121.851.337 1.196.649.344.31.62.736.826 1.278.207.541.31 1.233.31 2.074 0 .587-.057 1.155-.172 1.702a4.533 4.533 0 01-.559 1.451c-.259.42-.603.755-1.033 1.002-.431.248-.956.372-1.576.372-.207 0-.432-.01-.68-.026a4.066 4.066 0 01-.662-.095v-8.554zm-7.261-.172l-.035 6.393c-.011.887-.173 1.61-.484 2.169a3.635 3.635 0 01-1.201 1.313 4.56 4.56 0 01-1.632.648 9.27 9.27 0 01-1.746.173 7.863 7.863 0 01-1.581-.173 4.579 4.579 0 01-1.547-.622 3.616 3.616 0 01-1.175-1.236c-.31-.523-.466-1.195-.466-2.012v-6.619l-1.555-.483.086-.986s2.289.068 3.779.068c1.49 0 1.872-.068 1.872-.068l.051 1.055-1.607.397v5.927c0 .403.032.783.095 1.14.063.358.193.672.388.942.195.27.47.487.826.648.356.162.827.242 1.413.242.528 0 .967-.083 1.317-.25a2.03 2.03 0 00.827-.692c.202-.293.342-.642.422-1.045.081-.403.121-.835.121-1.296V18l-1.503-.484.086-1.002s2.287.067 3.181.067c.894 0 1.64-.067 1.64-.067l.069 1.071-1.641.398zm42.599 13.366c-.24.245-.544.368-.915.368-.383 0-.687-.123-.913-.368a1.258 1.258 0 01-.342-.888c0-.346.123-.639.368-.878s.541-.359.887-.359c.371 0 .675.12.915.359.239.24.359.532.359.878 0 .347-.12.643-.359.888zm-42.392-.888c0-.346.122-.64.368-.878a1.22 1.22 0 01.886-.358c.372 0 .675.119.915.358.239.239.359.532.359.878 0 .348-.12.643-.359.888-.24.245-.543.368-.915.368-.382 0-.686-.123-.914-.368a1.26 1.26 0 01-.34-.888zM92.43 40.699v-7.602a.799.799 0 00-.161-.09l-2.976.395v.77l1.237.323v5.433c-.393.24-.797.424-1.214.556-.416.13-.761.197-1.035.197-.522 0-.892-.14-1.106-.421-.214-.282-.32-.708-.32-1.282 0-.992-.003-1.975-.01-2.95-.006-.974-.008-1.95-.008-2.93l-.163-.072-2.975.394v.753c.203.06.407.116.61.17.203.054.406.11.61.17v5.235c0 .909.217 1.543.654 1.901.436.359 1.048.538 1.837.538a8.242 8.242 0 001.811-.215c.418-.371.855-.772 1.309-1.202.012.012.023.018.036.018l.412 1.31.144.053 2.689-.358v-.771a19.91 19.91 0 00-.7-.162 13.387 13.387 0 01-.681-.161zm11.439-5.235c0-.873-.209-1.5-.63-1.883-.419-.382-1.031-.573-1.834-.573a8.372 8.372 0 00-1.853.215l-1.295 1.219c-.012 0-.018-.004-.018-.01 0-.005-.005-.009-.017-.009l-.413-1.308-.161-.072c-.419.072-.84.138-1.264.197-.424.06-.846.126-1.264.197v.754l1.237.323v6.22l-1.363.485.036.752h4.5l.018-.788-1.29-.377a293.002 293.002 0 01-.019-3.012v-2.492a6.794 6.794 0 011.184-.529 3.476 3.476 0 011.075-.188c.55 0 .926.135 1.13.403.203.27.305.69.305 1.264v4.5l-1.292.448.019.771h4.428l.036-.788-1.255-.377v-5.342zm5.871 1.46a830.574 830.574 0 01-.009-3.88l-.161-.072-2.958.448v.752c.2.06.403.117.609.17.207.055.41.111.61.171v6.204l-1.398.52a6.762 6.762 0 00.036.735h4.661c0-.132.002-.254.009-.368.005-.114.009-.236.009-.368l-1.381-.43a854.619 854.619 0 01-.027-3.881zm9.649-3.762l.818-.029c.316-.012.528-.018.636-.018l.09.788a3.93 3.93 0 00-.968 1.121c-.264.448-.52.96-.771 1.533l-2.349 5.45-1.13.234a21.4 21.4 0 01-.349-.79c-.173-.405-.373-.878-.601-1.416-.227-.538-.469-1.114-.726-1.73-.257-.615-.499-1.192-.726-1.73a149.71 149.71 0 00-.95-2.205l-.932-.323v-.806l3.03-.126c.023.287.08.613.17.977.089.365.2.715.332 1.049l1.702 4.536h.09c.024-.06.084-.224.18-.493l.079-.223.001-.002.001-.003.26-.731.421-1.193a303.664 303.664 0 01.762-2.142 5.99 5.99 0 01.197-.502l-1.112-.358v-.807c.108 0 .32-.006.637-.018l.163-.006.85-.03.192-.007h.003zm9.203 1.18c-.275-.388-.654-.705-1.139-.95-.484-.244-1.121-.367-1.909-.367-.849 0-1.548.138-2.097.413-.551.275-.987.633-1.309 1.075a4.11 4.11 0 00-.682 1.497 7.304 7.304 0 00-.197 1.695c0 .705.078 1.335.233 1.891.155.556.401 1.028.735 1.416a3.17 3.17 0 001.309.888c.538.203 1.183.304 1.936.304.646 0 1.273-.096 1.883-.286a5.983 5.983 0 001.595-.753l-.34-.95c-.491.203-.96.343-1.407.42-.449.078-.81.117-1.085.117-.526 0-.966-.069-1.318-.206a2.012 2.012 0 01-.86-.618 2.506 2.506 0 01-.475-1.022 6.149 6.149 0 01-.144-1.416l5.826-.305.162-.198a7.793 7.793 0 00-.162-1.362 3.37 3.37 0 00-.555-1.282zm-5.235 2.305c0-.251.029-.517.09-.798.059-.28.163-.544.313-.789.149-.244.352-.448.61-.61.257-.16.589-.242.995-.242.358 0 .646.063.86.189.215.125.383.286.502.484.12.197.2.418.243.663.041.245.062.487.062.726l-3.675.377zm13.001-3.64c.281-.095.571-.143.87-.143.143 0 .269.048.377.143.107.096.161.263.161.502 0 .287-.052.586-.153.897a2.614 2.614 0 01-.439.825l-2.94-.216v5.791l1.399.413-.019.752h-4.661l-.036-.752 1.416-.503v-6.22l-1.237-.323v-.753l2.654-.413.161.09.305 1.255.036.018c.179-.167.379-.34.601-.52.221-.18.457-.34.708-.484.25-.144.517-.263.797-.359zm8.288 4.787a3.77 3.77 0 00-.843-.574c-.33-.166-.709-.34-1.139-.52-.346-.143-.648-.268-.905-.376a4.14 4.14 0 01-.636-.322 1.142 1.142 0 01-.368-.35.809.809 0 01-.116-.44c0-.334.119-.585.358-.752.239-.168.55-.252.932-.252.168 0 .392.027.673.082.28.053.558.163.833.331l.664 1.452.681-.072c0-.394.003-.786.009-1.174.006-.388.008-.78.008-1.174a4.891 4.891 0 00-1.461-.493 8.304 8.304 0 00-1.407-.135c-.609 0-1.123.07-1.541.206-.419.138-.756.32-1.013.547a2.06 2.06 0 00-.565.79c-.12.298-.18.609-.18.932 0 .394.081.725.243.994.161.27.376.502.645.7.269.197.571.37.905.52l.218.097.2.09.004.002h.001l.599.267.736.333c.226.1.426.212.6.331.173.12.308.26.403.421.095.162.144.356.144.583 0 .419-.171.72-.511.905-.341.186-.774.279-1.3.279-.239 0-.523-.04-.852-.117a2.443 2.443 0 01-.869-.386l-.771-1.596a3.35 3.35 0 01-.314.063 3.548 3.548 0 00-.314.064l.144 2.527c.347.203.789.362 1.327.475.537.114 1.094.17 1.667.17.657 0 1.228-.069 1.712-.206.484-.137.881-.325 1.192-.564.311-.24.541-.523.69-.852.15-.328.224-.684.224-1.067 0-.394-.06-.728-.179-1.004a2.176 2.176 0 00-.528-.735zm5.317-.87a830.574 830.574 0 01-.009-3.88l-.161-.072-2.959.448v.752c.201.06.404.117.61.17.206.055.409.111.609.171v6.204l-1.398.52a6.992 6.992 0 00.036.735h4.661c0-.132.003-.254.009-.368a6.94 6.94 0 00.01-.368l-1.381-.43a854.619 854.619 0 01-.027-3.881zm7.322 3.81c.251-.047.568-.113.951-.197.047.168.095.331.143.49l.144.487c-.932.448-1.871.672-2.815.672-.468 0-.856-.05-1.163-.152a1.573 1.573 0 01-.733-.475 1.862 1.862 0 01-.38-.816 5.651 5.651 0 01-.109-1.192v-5.324h-1.272v-.664c.226-.096.454-.182.681-.26.227-.078.461-.165.7-.26l.652-1.9 1.012-.305a.464.464 0 00.082.063c.03.017.057.038.082.063v2.258h2.653v1.005h-2.653v5.249c0 .431.092.76.278.989.185.227.517.34.994.34.252 0 .503-.023.753-.071zm11.179-7.207a8.75 8.75 0 01-.045-.394l-3.299.107c0 .132-.003.26-.009.386a9.658 9.658 0 00-.008.385l1.111.377c-.346.98-.69 1.957-1.031 2.931l-.574 1.644-.456 1.306h-.073a52.322 52.322 0 00-.887-2.52 48.667 48.667 0 01-.887-2.536 8.612 8.612 0 01-.305-1.112 8.646 8.646 0 01-.144-.968l-3.029.125v.807l.932.323 1.497 3.819c.496 1.266.995 2.533 1.497 3.8l.646.072-.449 1.166c-.047.131-.11.274-.188.43-.078.155-.17.305-.278.448a1.79 1.79 0 01-.385.377c-.15.107-.32.18-.511.215l-1.578-.897c-.239.108-.43.27-.573.485a1.177 1.177 0 00-.216.663c0 .346.161.618.484.816.323.197.711.295 1.166.295.705 0 1.299-.238 1.784-.716.484-.48.887-1.113 1.209-1.901l1.47-3.442c.49-1.148.975-2.301 1.453-3.46.239-.574.492-1.088.762-1.542.269-.454.589-.82.959-1.094a8.914 8.914 0 00-.045-.395zm-45.647-5.125l-.069-1.02 1.78-.483.225-8.882-1.78-.5.121-1.003c1.013.023 1.886.025 2.618.009.731-.018 1.264-.032 1.598-.044.104.23.213.438.328.622.115.185.225.346.329.484l2.972 3.922 2.125 2.817.069-.017-.155-6.342-1.659-.449.069-1.002h4.977l.069 1.071-1.78.415c-.012.195-.02.559-.026 1.088-.006.53-.017 1.15-.035 1.858-.017.708-.031 1.457-.043 2.246-.011.79-.023 1.535-.034 2.238a535.42 535.42 0 01-.035 1.858c-.011.535-.017.901-.017 1.097l-1.331.276-4.475-5.823-2.488-3.283-.069.017.103 7.379 1.711.362-.069 1.09h-5.029z" fill="#0079C1"/></svg>