<svg width="113" height="73" viewBox="0 0 113 73" fill="none" xmlns="http://www.w3.org/2000/svg"><path fill-rule="evenodd" clip-rule="evenodd" d="M54.56 57.342H30.506a26.155 26.155 0 01-18.396-7.575A25.763 25.763 0 014.48 31.51v-2.183a25.762 25.762 0 017.632-18.257 26.155 26.155 0 0118.395-7.573h51.991a26.01 26.01 0 0113.709 3.878l2.26-2.703A29.525 29.525 0 0082.498 0h-51.99A29.695 29.695 0 009.62 8.6 29.25 29.25 0 00.957 29.327v2.183a29.25 29.25 0 008.665 20.73 29.694 29.694 0 0020.884 8.598h21.141l2.913-3.495zm-27.489-24.31v-6.705l.003 1.045L41.52 10.096h-7.346l-7.103 9.422v-9.422h-5.959v22.937h5.96zm9.09-.04V52.71h6.61V32.99h7.15v-5.72H28.98v5.72h7.182zm28.662 12.275l25.852-30.995a20.424 20.424 0 00-14.489-3.711 20.35 20.35 0 00-13.117 7.147 20.058 20.058 0 00-4.624 14.124 20.096 20.096 0 006.378 13.435zm2.543 2.07l25.822-30.973a20.113 20.113 0 015.998 13.34 20.084 20.084 0 01-4.644 13.862 20.373 20.373 0 01-12.85 7.122 20.454 20.454 0 01-14.326-3.35zM98.99 9.373l2.244-2.704a29.326 29.326 0 017.972 10.122 29.096 29.096 0 012.838 12.535v2.183a29.248 29.248 0 01-8.663 20.728 29.694 29.694 0 01-20.883 8.6H56.075l2.915-3.495h23.506a26.155 26.155 0 0018.39-7.57 25.764 25.764 0 007.636-18.248V29.34a25.65 25.65 0 00-2.503-11.048 25.824 25.824 0 00-7.03-8.92zM30.415 64.812a4.23 4.23 0 011.662 1.57c.399.665.605 1.427.596 2.2a4.266 4.266 0 01-.592 2.228 4.31 4.31 0 01-1.666 1.602 5.093 5.093 0 01-4.706 0 4.283 4.283 0 01-2.261-3.83 4.184 4.184 0 01.593-2.204 4.227 4.227 0 011.665-1.574 5.163 5.163 0 014.706 0l.003.008zm-3.505 1.63a2.364 2.364 0 00-.857.899 2.688 2.688 0 000 2.537c.203.37.498.682.857.907.35.219.756.334 1.17.332a2.15 2.15 0 001.16-.332c.355-.223.643-.536.835-.907.206-.394.31-.832.305-1.276.004-.439-.1-.872-.305-1.261a2.3 2.3 0 00-.834-.9 2.174 2.174 0 00-1.162-.324 2.241 2.241 0 00-1.169.324zm37.418-2.065h-2.23v8.466h2.23v-8.466zm11.09 0h2.069v8.466H75.54l-3.87-5.063v5.062h-2.08v-8.466h1.951l3.884 5.098-.008-5.098zm14.072 0h-6.73v8.468h6.861v-1.762h-4.634v-1.596l4.065-.012v-1.75h-4.065v-1.583h4.503v-1.765zm-35.62 0h-.04l-2.187 3.208v5.258h5.84V70.96h-3.614v-6.583zm-11.734 8.431l-3.844-5.024v5.059h-2.08v-8.466h1.959l3.883 5.098-.014-5.098h2.07v6.081l-1.974 2.35z" fill="#fff"/></svg>