<svg width="172" height="54" viewBox="0 0 172 54" fill="none" xmlns="http://www.w3.org/2000/svg"><g clip-path="url(#clip0)" fill="#fff"><path d="M50.07 30.627v-4.863h4.273c-.005.142-.008.284-.008.427 0 6.093 4.51 11.598 12.1 11.438a8.68 8.68 0 004.032-1.015c.16-.054.214-.176.16-.321-.018-.054-.133-.142-.32-.054-.954.375-1.963.535-3.13.535-5.2 0-7.535-4.33-7.535-10.37v-.64h12.584v-.001h3.707c.371 0 .53-.16.477-.535-.53-4.97-3.29-8.552-7.853-9.888-.319-.107-.531-.107-.637.107-.106.214.16.428.371.588 2.322 1.559 2.888 4.532 2.918 9.067H59.646c.05-4.182.529-7.668 3.02-9.174l.097-.07c.174-.125.32-.23.275-.41-.055-.223-.265-.268-.637-.161-4.617 1.385-7.598 5.335-8.015 9.815H50.07V0h-8.012v.267c1.645.802 2.706 2.245 2.706 6.521v18.314H40.87c-.564-4.905-3.315-8.437-7.84-9.762-.318-.107-.53-.107-.637.107-.106.214.16.428.372.588 2.321 1.559 2.887 4.532 2.917 9.067h-7.068v.662h16.15v4.863c0 4.276-1.061 5.72-2.706 6.521v.267h10.719v-.267c-1.645-.802-2.706-2.245-2.706-6.521zm-35-10.209c-.106-1.122-1.008-3.528-3.662-4.65-.106-.053-.212-.16-.212-.267 0-.107.16-.107.319-.054 2.759 1.07 3.236 1.176 3.502-.374h.318v5.345h-.265zm-3.078 16.517c.082.137.16.16.478.053 3.184-1.23 4.245-4.062 4.298-6.2.062-5.988-4.794-6.898-8.879-7.663-2.952-.552-5.501-1.03-5.501-3.295 0-1.175.424-2.94 2.175-3.955l.07-.046c.144-.091.247-.177.196-.274-.092-.142-.16-.16-.478-.054-2.6 1.07-4.245 3.26-4.298 5.773-.215 5.905 4.47 6.856 8.5 7.674 2.937.597 5.526 1.122 5.615 3.443 0 .855-.053 2.94-1.91 4.116-.212.107-.364.262-.265.428zM0 30.894v-.053h.425c.424 2.245 2.228 4.757 5.04 5.88.16.053.27.184.213.267-.033.047-.104.07-.318 0l-.447-.148-.007-.002-.002-.001-.011-.004H4.89l-.002-.001c-2.347-.78-3.966-1.32-4.464.637H.053L0 30.894z"/><path d="M34.782 36.24c-.955.373-1.963.534-3.13.534-5.2 0-7.536-4.33-7.536-10.37v-.48c0-4.544.372-8.393 3.025-9.996.032-.025.065-.048.096-.07.175-.126.32-.23.276-.411-.057-.23-.266-.267-.637-.16-4.988 1.496-8.066 5.986-8.066 10.903 0 6.094 4.51 11.6 12.099 11.439a8.683 8.683 0 004.033-1.016c.159-.053.201-.192.159-.32-.032-.098-.16-.116-.319-.054zm51.852-20.793c-.054-.218-.265-.267-.637-.16-4.988 1.497-8.119 5.986-8.119 10.904 0 6.093 4.51 11.599 11.569 11.438a8.734 8.734 0 004.086-1.015c.159-.054.212-.16.159-.321-.027-.08-.16-.107-.319-.053-1.008.374-1.963.534-3.13.534-4.723 0-7.058-4.33-7.058-10.37v-.48c0-4.544.424-8.392 3.078-9.995.032-.025.064-.048.096-.07.174-.126.32-.23.275-.412zm5.888.267c-.106-.053-.193-.16-.159-.267.035-.107.106-.16.266-.107 3.078.962 5.36 3.207 5.36 5.666 0 1.71-.956 2.886-2.442 3.1-1.645.214-3.184-.908-3.29-2.138-.16-1.015.265-1.977 1.168-2.512 1.75-1.122.902-2.886-.903-3.742zm29.223 14.913V15.02h-8.013v.267c1.645.802 2.706 2.245 2.706 6.52v8.82c0 4.276-1.061 5.72-2.706 6.521v.267h10.719v-.267c-1.644-.802-2.706-2.245-2.706-6.52zm14.752-15.34v-.268h-12.364v.268c2.122.748 4.192 2.031 5.943 5.666l7.376 16.516h.265l2.566-5.98 5.867-12.39c1.513-2.42 3.079-3.158 4.781-3.759v-.267h-6.898v.267c.96.606 1.954 1.272 1.535 3.45l-5.488 11.595-4.007-9.005c-1.911-4.33-.85-5.291.371-6.04l.053-.053zm29.388 20.953c-.954.373-1.962.534-3.129.534-5.201 0-7.535-4.33-7.535-10.37v-.48c0-4.544.37-8.392 3.023-9.996l.096-.07c.175-.126.321-.23.277-.411-.061-.242-.266-.267-.637-.16-4.988 1.496-8.066 5.986-8.066 10.903 0 6.094 4.51 11.6 12.098 11.439a8.684 8.684 0 004.033-1.016c.148-.078.198-.205.159-.32-.027-.086-.136-.125-.319-.054z"/><path d="M164.138 15.34c4.562 1.337 7.323 4.918 7.852 9.889.054.374-.104.534-.476.534h-2.13v.001h-9.663v-.661h7.069c-.03-4.536-.595-7.509-2.918-9.068-.212-.16-.478-.374-.37-.587.106-.214.318-.214.636-.107zm-40.582-6.727c-2.433-.062-4.392-2.036-4.454-4.486h-.002c-.062 2.45-2.022 4.424-4.454 4.486v.002c2.432.062 4.392 2.037 4.454 4.486h.002c.062-2.45 2.021-4.424 4.454-4.486v-.002zm-17.163-4.006c-.06 3.963-1.095 5.351-2.675 6.132-.689.318-1.378.486-1.975.486v18.868c0 6.093 3.768 7.323 7.323 7.323.531 0 1.009 0 1.433-.108.159-.053.212-.106.212-.213 0-.126-.131-.12-.315-.112-.051.002-.105.005-.162.005-2.017 0-3.184-1.978-3.184-6.895V15.682h4.733v-.662h-4.733V0h-.657v4.606zM56.03 50.962c-1.095 0-1.957-.494-1.957-1.494 0-.896.81-1.493 2.127-1.493.784 0 1.54.246 2.284.727v1.026c-.509.675-1.41 1.233-2.453 1.233zm-.169.545c1.11 0 1.997-.39 2.675-1.182.053.714.51 1.078 1.07 1.078.222 0 .392-.039.51-.104v-.48a.798.798 0 01-.366.078c-.417 0-.678-.351-.678-.884V47.26c0-1.506-1.084-2.259-2.702-2.259-.848 0-1.592.208-2.218.61v.598c.665-.442 1.37-.663 2.114-.663 1.41 0 2.218.572 2.218 1.767v.817a4.61 4.61 0 00-2.44-.675c-.744 0-1.357.182-1.853.559a1.752 1.752 0 00-.731 1.467c0 .636.235 1.13.705 1.493a2.81 2.81 0 001.696.533zm10.195 0c.796 0 1.462-.182 2.01-.545v-.585c-.562.39-1.201.584-1.932.584-.783 0-1.435-.26-1.97-.766-.523-.52-.784-1.168-.784-1.935 0-.766.261-1.415.783-1.934.536-.52 1.188-.78 1.971-.78.626 0 1.227.17 1.814.507v-.572c-.561-.324-1.188-.48-1.88-.48-.952 0-1.748.312-2.361.948a3.199 3.199 0 00-.927 2.299c0 .908.313 1.675.927 2.31.613.637 1.396.949 2.349.949zm7.621-.545c-1.096 0-1.958-.494-1.958-1.494 0-.896.81-1.493 2.127-1.493.783 0 1.54.246 2.284.727v1.026c-.508.675-1.41 1.233-2.453 1.233zm-.17.545c1.11 0 1.997-.39 2.675-1.182.053.714.51 1.078 1.07 1.078.223 0 .392-.039.51-.104v-.48a.8.8 0 01-.366.078c-.417 0-.678-.351-.678-.884V47.26c0-1.506-1.084-2.259-2.702-2.259-.848 0-1.592.208-2.218.61v.598c.665-.442 1.37-.663 2.114-.663 1.41 0 2.218.572 2.218 1.767v.817a4.61 4.61 0 00-2.44-.675c-.744 0-1.358.182-1.853.559a1.752 1.752 0 00-.731 1.467c0 .636.235 1.13.705 1.493.482.35 1.044.533 1.696.533zm10.09 0c1.11 0 1.958-.416 2.571-1.247v1.09h.587v-9.09h-.587v4c-.613-.844-1.474-1.26-2.57-1.26-.94 0-1.71.325-2.297.962-.588.636-.875 1.402-.875 2.298 0 .896.287 1.662.874 2.299.588.636 1.358.948 2.297.948zm.105-.546c-.77 0-1.41-.26-1.919-.766-.509-.52-.757-1.169-.757-1.935s.248-1.415.757-1.935c.51-.52 1.149-.779 1.919-.779 1.057 0 2.049.65 2.466 1.545v2.338c-.404.896-1.383 1.532-2.466 1.532zm9.908.546c.9 0 1.592-.182 2.088-.559v-.571c-.587.39-1.266.584-2.01.584-.835 0-1.527-.246-2.062-.727-.535-.48-.809-1.117-.822-1.896h5.377v-.194c0-.676-.196-1.351-.614-2.013-.404-.676-1.213-1.13-2.257-1.13-.914 0-1.658.312-2.232.935-.574.61-.861 1.39-.861 2.324 0 .948.326 1.727.965 2.338.64.61 1.45.909 2.428.909zm-2.793-3.675c.04-.598.287-1.13.718-1.584.444-.468 1.03-.702 1.762-.702 1.67 0 2.297 1.39 2.297 2.286h-4.777zm9.407 3.519V46.95c.221-.403.535-.727.939-1a2.32 2.32 0 011.279-.403c1.162 0 1.749.676 1.749 2.04v3.765h.587v-3.688c0-.117-.013-.337-.026-.65.196-.402.509-.752.914-1.038.417-.286.848-.429 1.305-.429.404 0 .705.078 1.109.338.405.247.653.844.653 1.714v3.753h.587v-3.87c0-1.597-.796-2.48-2.206-2.48-1.109 0-2.022.558-2.505 1.325-.287-.883-.966-1.325-2.023-1.325-1.044 0-1.906.507-2.362 1.182v-1.026h-.588v6.194h.588zM113.255 54c.939 0 1.566-.662 2.14-1.947l3.145-6.896h-.639l-2.441 5.39-2.519-5.39h-.665l2.884 6.104c-.352.792-.666 1.363-.94 1.688-.261.337-.6.506-1.031.506a1.68 1.68 0 01-.822-.208v.559c.209.13.509.195.888.195z"/></g><defs><clipPath id="clip0"><path fill="#fff" d="M0 0h172v54H0z"/></clipPath></defs></svg>