<svg width="216" height="43" viewBox="0 0 216 43" fill="none" xmlns="http://www.w3.org/2000/svg"><g clip-path="url(#clip0)"><path d="M100.939 3.917c-.594.474-1.01 1.186-1.187 2.017a3.72 3.72 0 00.534 2.552c.059.06.118.178.178.237.237.297.534.594.831.95 3.323 3.085 7.358 5.34 10.8 7.061 2.373 1.187 3.738 2.492 4.272 4.51.772-3.68 0-5.519-.712-6.587-1.246-2.017-3.264-2.967-3.442-3.085-2.848-1.603-6.765-3.502-9.138-5.52-.89-.77-1.602-1.542-1.899-2.373-.059.06-.178.119-.237.238z" fill="url(#paint0_linear)"/><path d="M99.396 10.563c-.89.83-1.484 2.076-1.484 3.145 0 .83.119 1.661.89 2.967 2.849 4.866 11.928 8.663 14.183 10.028 1.661 1.009 3.026 2.492 3.501 4.747.415-2.551.534-5.28-.178-6.942-.89-2.077-2.137-3.205-3.976-4.214-2.967-1.602-7.18-4.035-10.385-6.943-1.127-.89-2.077-1.78-2.551-2.789z" fill="url(#paint1_linear)"/><path d="M106.576 6.053c-2.018 1.246-4.925 2.314-7.121 4.51-.95.83-1.543 2.077-1.543 3.145 0 .83.119 1.662.89 2.967 0-1.009 1.009-2.552 2.967-3.679 2.077-1.246 5.638-2.967 7.833-5.46 1.365-1.542.534-3.441-1.127-3.916.356 1.068-1.187 1.958-1.899 2.433z" fill="url(#paint2_linear)"/><path d="M104.558 1.72c-1.009.476-2.255 1.069-3.382 1.9-.119.06-.178.178-.297.237-.594.475-1.009 1.187-1.187 2.018-.119.771 0 1.72.534 2.551.059.06.119.178.178.238.059-1.246 1.009-2.137 2.552-2.908 1.543-.83 2.967-1.84 3.857-2.73 1.068-1.127.178-2.848-.831-3.026.238.89-.712 1.424-1.424 1.72z" fill="url(#paint3_linear)"/><path d="M97.14 19.582c-1.898 2.67-1.78 4.866-.533 6.825 2.136 3.263 7.477 5.756 11.749 7.892 2.077 1.068 3.976 2.196 5.519 3.976a12.81 12.81 0 012.492 4.45h.059c.475-2.61.416-5.934-.237-7.773-.593-1.78-1.899-3.62-4.51-5.282-3.382-2.136-8.604-4.094-11.69-7.002-1.187-1.246-2.374-2.136-2.848-3.085.06 0 .06 0 0 0z" fill="url(#paint4_linear)"/><path d="M109.602 10.86c-3.204 2.373-9.494 5.34-12.402 8.663 0 0 0 .06-.06.06-1.898 2.67-1.78 4.866-.533 6.824 0-1.009 1.483-2.433 3.441-3.976 3.442-2.789 9.554-5.281 12.996-9.732 1.246-1.602.415-4.213-1.424-4.925.415 1.009-.712 2.077-2.018 3.086z" fill="url(#paint5_linear)"/><path d="M130.093 11.868v3.815h.456v2.12h-1.712v-.849h-2.51v.848h-1.712v-2.12h.457c.342-.635.456-1.377.456-2.542v-1.272h4.565zm-2.853 1.166v.53c0 .847-.114 1.59-.456 2.119h1.483v-2.65h-1.027zm7.428-1.166l1.816 5.34h-1.603l-.213-.68h-1.709l-.214.68h-1.602l1.816-5.34h1.709zm-.321 3.523l-.534-1.932-.534 1.932h1.068zm8.071-3.523v5.23h-1.635v-4.006h-1.2v1.447c0 2.114-.653 2.67-1.634 2.67-.327 0-.545 0-.872-.111v-1.224h.436c.327 0 .545-.112.545-1.335v-2.67h4.36zm2.628 1.818h.89c1.526 0 2.416.568 2.416 1.818 0 1.137-.89 1.705-2.544 1.705h-2.797v-5.34h1.907v1.817h.128zm0 2.16h.762c.509 0 .89-.114.89-.455 0-.455-.508-.455-1.017-.455h-.508v.91h-.127zm5.679-2.046h1.78v-1.932h1.781v5.34h-1.781V15.05h-1.78v2.159h-1.78v-5.34h1.78v1.93zm9.495-1.932v1.25h-3.15v.796h2.602v1.25h-2.602v.795h3.15v1.25h-5.341v-5.34h5.341zm.593 0h2.733c1.366 0 2.359.227 2.359 1.364 0 .568-.372.909-.745 1.136.621.114.994.682.994 1.25 0 1.25-.994 1.59-2.484 1.59h-2.857v-5.34zm1.863 2.16h.745c.373 0 .621-.114.621-.455 0-.455-.372-.455-.745-.455h-.621v.91zm0 1.93h.87c.497 0 .869-.113.869-.454 0-.454-.497-.454-.994-.454h-.62v.909h-.125zm9.412-1.471c0 1.742-1.175 2.722-2.67 2.722-1.603 0-2.671-.98-2.671-2.722 0-1.633 1.068-2.613 2.671-2.613 1.815-.108 2.67 1.198 2.67 2.613zm-3.632 0c0 .653.214 1.524.962 1.524.747 0 .961-.653.961-1.524 0-.653-.321-1.415-.961-1.415-.748 0-.962.762-.962 1.415zm7.862-.483c0-.534-.455-.854-.909-.854-.569 0-1.023.534-1.023 1.495 0 .748.114 1.389 1.023 1.389.568 0 .795-.32.909-.855h1.704c-.113 1.282-1.136 2.03-2.5 2.03-1.818 0-2.841-1.068-2.841-2.67 0-1.603 1.137-2.67 2.614-2.67 1.591 0 2.5.747 2.727 2.029h-1.704v.106zm5.899 3.205h-1.863v-4.09h-1.739v-1.25h5.341v1.25h-1.739v4.09zm7.673-2.722c0 1.742-1.175 2.722-2.67 2.722-1.602 0-2.671-.98-2.671-2.722 0-1.633 1.069-2.613 2.671-2.613 1.816-.108 2.67 1.198 2.67 2.613zm-3.632 0c0 .653.214 1.524.962 1.524.747 0 .961-.653.961-1.524 0-.653-.32-1.415-.961-1.415-.748 0-.962.762-.962 1.415zm6.089-2.397v1.336c0 .445.248.556.745.556.372 0 .745 0 .869-.111v-2.003h1.863v5.34h-1.863v-2.113c-.372.111-.621.111-1.614.111-.87 0-1.863-.445-1.863-1.669v-1.669h1.863v.223zm5.928 1.71h1.626v-1.932h1.857v5.34h-1.857V15.05h-1.626v2.159h-1.857v-5.34h1.857v1.93zm5.871-.067h.897c1.435 0 2.332.594 2.332 1.78 0 1.187-.897 1.696-2.332 1.696h-2.691v-5.34h1.883v1.864h-.089zm0 2.204h.718c.448 0 .807-.085.807-.508 0-.509-.449-.509-.987-.509h-.449v1.017h-.089zm5.92 1.272h-1.884v-5.34h1.884v5.34zM216 12.025v5.184h-1.78v-1.584l.118-1.267-2.017 2.851h-1.662v-5.184h1.781v1.805l-.119 1.267 2.017-3.072H216zm-3.382-1.343c0 .422.474.422.83.422.475 0 .712-.105.712-.422h.594c0 .739-.712 1.056-1.424 1.056-.831 0-1.306-.317-1.424-1.056h.712zm-83.262 9.494v.584h.464c1.673 0 2.51.918 2.51 2.003 0 1.168-.744 2.002-2.417 2.002h-.464v.751h-1.953v-.75h-.464c-1.673 0-2.417-.835-2.417-2.003 0-1.085.744-2.003 2.51-2.003h.465v-.584h1.766zm-1.952 1.836h-.279c-.558 0-.837.25-.837.75 0 .418.187.752.744.752h.372v-1.502zm1.952 1.418h.371c.465 0 .744-.334.744-.75 0-.502-.279-.752-.837-.752h-.278v1.502zm8.805-3.254v1.187h-3.184v.762h2.671v1.272h-2.671v.848h3.287v1.271h-5.341v-5.34h5.238zm6.114 0v3.956h.516v1.978h-1.72v-.742h-2.494v.742h-1.72v-1.978h.43c.344-.742.516-1.484.516-2.638v-1.318h4.472zm-2.838 1.154v.577c0 .824-.086 1.648-.43 2.225h1.548V21.33h-1.118zm9.087-1.154v1.187h-3.023v.762h2.62v1.272h-2.62v.848h3.224v1.271h-5.34v-5.34h5.139zm2.762 5.34h-1.967v-5.34h2.811c1.686 0 2.529.678 2.529 1.78 0 1.187-.749 1.865-2.436 1.865h-.937v1.695zm0-2.967h.844c.468 0 .749-.17.749-.593 0-.509-.656-.593-1.031-.593h-.562v1.186zm6.853-2.373l1.861 5.34h-1.7l-.161-.678h-1.699l-.162.678h-1.619l1.861-5.34h1.619zm-.324 3.475l-.566-1.95-.486 1.95h1.052zm8.119-3.475v5.257h-1.674v-4.089h-1.196v1.502c0 2.086-.637 2.67-1.594 2.67-.319 0-.558 0-.877-.083v-1.252c.08 0 .16.084.399.084.319 0 .478-.167.478-1.419v-2.67h4.464zm2.501 1.864h.953c1.527 0 2.48.594 2.48 1.781 0 1.187-.953 1.695-2.48 1.695h-2.861v-5.34h2.003v1.865h-.095zm0 2.205h.763c.477 0 .858-.085.858-.509 0-.508-.477-.508-1.049-.508h-.477v1.017h-.095zm5.807-2.205h1.78v-1.864h1.78v5.34h-1.78v-2.288h-1.78v2.288h-1.78v-5.34h1.78v1.865zm5.947 0h.898c1.435 0 2.332.594 2.332 1.781 0 1.187-.897 1.695-2.332 1.695h-2.691v-5.34h1.883v1.865h-.09zm0 2.205h.718c.449 0 .808-.085.808-.509 0-.508-.449-.508-.987-.508h-.449v1.017h-.09zm5.921 1.271h-1.884v-5.34h1.884v5.34zm5.934-5.183v5.184h-1.78v-1.584l.118-1.267-2.017 2.85h-1.662v-5.183h1.781v1.805l-.119 1.267 2.017-3.072h1.662zm-3.382-1.344c0 .423.474.423.83.423.475 0 .712-.106.712-.423h.594c0 .74-.712 1.056-1.424 1.056-.831 0-1.306-.317-1.425-1.056h.713zm-64.012 9.495l.932 2.06.933-2.06h2.034l-2.119 4.044c-.509.915-1.017 1.297-1.696 1.297-.338 0-.677-.077-.847-.153v-1.144c.085 0 .17.076.424.076a.427.427 0 00.423-.305l-2.119-3.815h2.035zm6.273 1.885h1.7v-1.885h1.861v5.34h-1.861v-2.199h-1.7v2.2h-1.78v-5.341h1.78v1.885zm9.495-1.885v5.34h-1.726v-1.649l.082-1.413-1.971 3.063h-1.726v-5.341h1.726v1.728l-.083 1.335 2.054-3.063h1.644zm.679 0h2.756c1.293 0 2.327.31 2.327 1.316 0 .541-.431.928-.776 1.16.603.155.948.62.948 1.24 0 1.16-1.034 1.624-2.499 1.624h-2.842v-5.34h.086zm1.895 2.09h.775c.345 0 .689-.155.689-.465 0-.387-.344-.387-.775-.387h-.689v.852zm0 1.935h.861c.431 0 .862-.078.862-.465 0-.464-.431-.464-1.034-.464h-.603v.929h-.086zm9.294-4.025v1.256h-3.243v.786h2.671v1.256h-2.671v.786h3.243v1.257h-5.341v-5.341h5.341zm2.488 5.341h-1.895v-5.341h2.843c1.723 0 2.498.707 2.498 1.806 0 1.178-.775 1.885-2.412 1.885h-.948v1.65h-.086zm0-2.906h.775c.431 0 .775-.157.775-.629 0-.47-.602-.55-1.033-.55h-.517v1.179zm7.809-.359c-.078-.518-.393-.815-.942-.815-.629 0-1.021.52-1.021 1.483 0 .742.157 1.41 1.021 1.41.549 0 .864-.371.864-.89h1.649c-.157 1.335-1.178 2.076-2.513 2.076-1.728 0-2.828-1.038-2.828-2.67s1.178-2.67 2.671-2.67c1.649 0 2.513.742 2.67 2.077h-1.571zm7.505-2.076v5.34h-1.78v-1.649l.162-1.413-2.023 3.063h-1.7v-5.341h1.78v1.728l-.162 1.335 2.023-3.063h1.7zm4.709 5.341h-2.201V29.74h-1.915v-1.256h5.934v1.256h-1.818v4.085zm7.752-5.341v1.256h-3.279v.786h2.624v1.256h-2.624v.786h3.279v1.257h-5.34v-5.341h5.34zm4.212 5.341h-1.895V29.74h-1.723v-1.256h5.341v1.256h-1.723v4.085zM20.169 11.868v15.11h1.787v6.846h-6.297V31.57H6.297v2.254H0V26.98h1.617c1.362-2.672 1.787-5.594 1.787-10.018v-5.093h16.765zM9.7 16.46v2.17c0 3.256-.34 6.345-1.616 8.349h5.531v-10.52H9.701zm14.63-4.592h9.583c4.534 0 8.128 1 8.128 4.917 0 2-1.37 3.5-2.653 4.25 2.14.583 3.337 2.333 3.337 4.5 0 4.416-3.422 5.916-8.641 5.916H24.33V11.868zm6.588 7.833h2.738c1.283 0 2.224-.583 2.224-1.75 0-1.5-1.283-1.583-2.652-1.583h-2.31v3.333zm0 7.25h2.909c1.626 0 2.824-.334 2.824-1.833 0-1.75-1.54-1.834-3.594-1.834h-2.14v3.667zm29.134-15.083v2.25h1.443c5.53 0 7.934 3.333 7.934 7.333 0 4.25-2.484 7.333-7.854 7.333h-1.523v2.667h-6.17v-2.667h-1.523c-5.45 0-7.854-3.083-7.854-7.333 0-4 2.485-7.333 7.934-7.333h1.443v-2.25h6.17zm-6.17 6.833h-.802c-1.923 0-2.644.917-2.644 2.75 0 1.667.721 2.75 2.324 2.75h1.202v-5.5h-.08zm6.17 5.5h1.202c1.603 0 2.324-1.083 2.324-2.75 0-1.833-.72-2.75-2.644-2.75h-.802v5.5h-.08zm16.697-12.333l3.235 7.518 3.149-7.518h7.065l-7.406 14.874c-1.702 3.395-3.404 4.527-5.873 4.689-1.107.08-2.553-.081-4.341-.566V26.5c1.192.242 1.873.323 2.639.242.68-.08 1.191-.323 1.532-1.05l-7.32-13.824h7.32z" fill="#0767B0"/></g><defs><linearGradient id="paint0_linear" x1="117.191" y1="12.797" x2="98.842" y2="12.01" gradientUnits="userSpaceOnUse"><stop stop-color="#0668B3"/><stop offset=".12" stop-color="#188CCC"/><stop offset=".291" stop-color="#0668B3"/><stop offset=".62" stop-color="#0859A5"/><stop offset=".841" stop-color="#214397"/><stop offset="1" stop-color="#2E3790"/></linearGradient><linearGradient id="paint1_linear" x1="117.236" y1="21.571" x2="97.358" y2="20.436" gradientUnits="userSpaceOnUse"><stop stop-color="#0668B3"/><stop offset=".12" stop-color="#188CCC"/><stop offset=".291" stop-color="#0668B3"/><stop offset=".62" stop-color="#0859A5"/><stop offset=".841" stop-color="#214397"/><stop offset="1" stop-color="#2E3790"/></linearGradient><linearGradient id="paint2_linear" x1="110.226" y1="17.204" x2="97.82" y2="3.443" gradientUnits="userSpaceOnUse"><stop stop-color="#71D0F6"/><stop offset=".299" stop-color="#40B5E7"/><stop offset=".4" stop-color="#2FABE1"/><stop offset=".447" stop-color="#2FA1DA"/><stop offset=".825" stop-color="#2E55A5"/><stop offset="1" stop-color="#2E3790"/></linearGradient><linearGradient id="paint3_linear" x1="106.565" y1="8.742" x2="101.279" y2="1.228" gradientUnits="userSpaceOnUse"><stop stop-color="#71D0F6"/><stop offset=".299" stop-color="#40B5E7"/><stop offset=".4" stop-color="#2FABE1"/><stop offset=".447" stop-color="#2FA1DA"/><stop offset=".825" stop-color="#2E55A5"/><stop offset="1" stop-color="#2E3790"/></linearGradient><linearGradient id="paint4_linear" x1="117.115" y1="31.609" x2="94.397" y2="30.56" gradientUnits="userSpaceOnUse"><stop stop-color="#0668B3"/><stop offset=".12" stop-color="#188CCC"/><stop offset=".291" stop-color="#0668B3"/><stop offset=".62" stop-color="#0859A5"/><stop offset=".841" stop-color="#214397"/><stop offset="1" stop-color="#2E3790"/></linearGradient><linearGradient id="paint5_linear" x1="113.039" y1="27.27" x2="95.957" y2="7.261" gradientUnits="userSpaceOnUse"><stop stop-color="#71D0F6"/><stop offset=".299" stop-color="#40B5E7"/><stop offset=".4" stop-color="#2FABE1"/><stop offset=".447" stop-color="#2FA1DA"/><stop offset=".825" stop-color="#2E55A5"/><stop offset="1" stop-color="#2E3790"/></linearGradient><clipPath id="clip0"><path fill="#fff" d="M0 0h216v42.725H0z"/></clipPath></defs></svg>