<svg width="216" height="43" viewBox="0 0 216 43" fill="none" xmlns="http://www.w3.org/2000/svg">
<g clip-path="url(#clip0)">
<path d="M100.939 3.91656C100.345 4.39129 99.9298 5.10338 99.7517 5.93414C99.6331 6.7056 99.7517 7.65505 100.286 8.48582C100.345 8.54516 100.404 8.66384 100.464 8.72318C100.701 9.01989 100.998 9.31659 101.295 9.67263C104.618 12.7583 108.653 15.0133 112.095 16.7342C114.468 17.921 115.833 19.2265 116.367 21.244C117.139 17.5649 116.367 15.7254 115.655 14.6573C114.409 12.6397 112.391 11.6902 112.213 11.5715C109.365 9.96934 105.448 8.07044 103.075 6.05285C102.185 5.2814 101.473 4.50997 101.176 3.6792C101.117 3.73854 100.998 3.79788 100.939 3.91656Z" fill="url(#paint0_linear)"/>
<path d="M99.3956 10.5625C98.5055 11.3933 97.9121 12.6395 97.9121 13.7076C97.9121 14.5384 98.0308 15.3692 98.8022 16.6746C101.651 21.5405 110.73 25.3384 112.985 26.7032C114.646 27.712 116.011 29.1955 116.486 31.4504C116.901 28.8988 117.02 26.1691 116.308 24.5076C115.418 22.4306 114.171 21.3032 112.332 20.2944C109.365 18.6922 105.152 16.2592 101.947 13.3515C100.82 12.4614 99.8703 11.5713 99.3956 10.5625Z" fill="url(#paint1_linear)"/>
<path d="M106.576 6.0531C104.558 7.29925 101.651 8.36738 99.4549 10.563C98.5055 11.3938 97.9121 12.6399 97.9121 13.708C97.9121 14.5388 98.0308 15.3696 98.8022 16.6751C98.8022 15.6663 99.811 14.1234 101.769 12.996C103.846 11.7498 107.407 10.0289 109.602 7.53661C110.967 5.99376 110.136 4.09484 108.475 3.62012C108.831 4.68825 107.288 5.57836 106.576 6.0531Z" fill="url(#paint2_linear)"/>
<path d="M104.558 1.72088C103.549 2.1956 102.303 2.78901 101.176 3.61978C101.057 3.67912 100.998 3.7978 100.879 3.85714C100.285 4.33187 99.8701 5.04396 99.6921 5.87472C99.5734 6.64615 99.6921 7.5956 100.226 8.42637C100.285 8.48571 100.345 8.60439 100.404 8.66374C100.463 7.41758 101.413 6.52747 102.956 5.75604C104.499 4.92527 105.923 3.91648 106.813 3.02637C107.881 1.8989 106.991 0.178022 105.982 0C106.22 0.89011 105.27 1.42418 104.558 1.72088Z" fill="url(#paint3_linear)"/>
<path d="M97.1407 19.5825C95.2418 22.2528 95.3605 24.4485 96.6067 26.4067C98.7429 29.6704 104.084 32.1627 108.356 34.299C110.433 35.3671 112.332 36.4946 113.875 38.2748C114.884 39.4616 115.774 40.8858 116.367 42.7254H116.426C116.901 40.1144 116.842 36.7913 116.189 34.9518C115.596 33.1715 114.29 31.332 111.679 29.6704C108.297 27.5342 103.075 25.5759 99.9891 22.6682C98.8023 21.4221 97.6155 20.532 97.1407 19.5825C97.2001 19.5825 97.2001 19.5825 97.1407 19.5825Z" fill="url(#paint4_linear)"/>
<path d="M109.602 10.8596C106.398 13.2333 100.108 16.2003 97.2001 19.5234C97.2001 19.5234 97.2001 19.5827 97.1407 19.5827C95.2418 22.253 95.3605 24.4487 96.6067 26.4069C96.6067 25.3981 98.0902 23.9739 100.048 22.4311C103.49 19.6421 109.602 17.1497 113.044 12.6992C114.29 11.097 113.459 8.48601 111.62 7.77393C112.035 8.78272 110.908 9.85085 109.602 10.8596Z" fill="url(#paint5_linear)"/>
<path d="M130.093 11.8682V15.6829H130.549V17.8022H128.837V16.9545H126.327V17.8022H124.615V15.6829H125.072C125.414 15.0471 125.528 14.3053 125.528 13.1398V11.8682H130.093ZM127.24 13.0338V13.5636C127.24 14.4113 127.126 15.1531 126.784 15.6829H128.267V13.0338H127.24Z" fill="#0767B0"/>
<path d="M134.668 11.8682L136.484 17.2088H134.881L134.668 16.5271H132.959L132.745 17.2088H131.143L132.959 11.8682H134.668ZM134.347 15.3907L133.813 13.459L133.279 15.3907H134.347Z" fill="#0767B0"/>
<path d="M142.418 11.8682V17.0976H140.783V13.0921H139.583V14.5385C139.583 16.6525 138.93 17.2088 137.949 17.2088C137.622 17.2088 137.404 17.2088 137.077 17.0976V15.8737C137.186 15.8737 137.295 15.8737 137.513 15.8737C137.84 15.8737 138.058 15.7624 138.058 14.5385V11.8682H142.418Z" fill="#0767B0"/>
<path d="M145.046 13.6862H145.936C147.462 13.6862 148.352 14.2544 148.352 15.5044C148.352 16.6407 147.462 17.2088 145.808 17.2088H143.011V11.8682H144.918V13.6862H145.046ZM145.046 15.8452H145.808C146.317 15.8452 146.698 15.7316 146.698 15.3907C146.698 14.9362 146.19 14.9362 145.681 14.9362H145.173V15.8452H145.046Z" fill="#0767B0"/>
<path d="M150.725 13.7999H152.505V11.8682H154.286V17.2088H152.505V15.0498H150.725V17.2088H148.945V11.8682H150.725V13.7999Z" fill="#0767B0"/>
<path d="M160.22 11.8682V13.1181H157.07V13.9135H159.672V15.1635H157.07V15.9589H160.22V17.2088H154.879V11.8682H160.22Z" fill="#0767B0"/>
<path d="M160.813 11.8682H163.546C164.912 11.8682 165.905 12.0954 165.905 13.2318C165.905 13.7999 165.533 14.1408 165.16 14.3681C165.781 14.4817 166.154 15.0498 166.154 15.618C166.154 16.8679 165.16 17.2088 163.67 17.2088H160.813V11.8682ZM162.676 14.0272H163.421C163.794 14.0272 164.042 13.9135 164.042 13.5726C164.042 13.1181 163.67 13.1181 163.297 13.1181H162.676V14.0272ZM162.676 15.9589H163.546C164.043 15.9589 164.415 15.8452 164.415 15.5044C164.415 15.0498 163.918 15.0498 163.421 15.0498H162.801V15.9589H162.676Z" fill="#0767B0"/>
<path d="M172.088 14.4872C172.088 16.2291 170.913 17.2088 169.418 17.2088C167.815 17.2088 166.747 16.2291 166.747 14.4872C166.747 12.8543 167.815 11.8745 169.418 11.8745C171.233 11.7657 172.088 13.072 172.088 14.4872ZM168.456 14.4872C168.456 15.1405 168.67 16.0113 169.418 16.0113C170.165 16.0113 170.379 15.3582 170.379 14.4872C170.379 13.8341 170.058 13.072 169.418 13.072C168.67 13.072 168.456 13.8341 168.456 14.4872Z" fill="#0767B0"/>
<path d="M176.318 14.0044C176.318 13.4704 175.863 13.1499 175.409 13.1499C174.84 13.1499 174.386 13.684 174.386 14.6453C174.386 15.393 174.5 16.0339 175.409 16.0339C175.977 16.0339 176.204 15.7134 176.318 15.1794H178.022C177.909 16.4611 176.886 17.2088 175.522 17.2088C173.704 17.2088 172.681 16.1407 172.681 14.5385C172.681 12.9363 173.818 11.8682 175.295 11.8682C176.886 11.8682 177.795 12.6159 178.022 13.8976H176.318V14.0044Z" fill="#0767B0"/>
<path d="M182.217 17.2088H180.354V13.1181H178.615V11.8682H183.956V13.1181H182.217V17.2088Z" fill="#0767B0"/>
<path d="M189.89 14.4872C189.89 16.2291 188.715 17.2088 187.22 17.2088C185.618 17.2088 184.549 16.2291 184.549 14.4872C184.549 12.8543 185.618 11.8745 187.22 11.8745C189.036 11.7657 189.89 13.072 189.89 14.4872ZM186.258 14.4872C186.258 15.1405 186.472 16.0113 187.22 16.0113C187.967 16.0113 188.181 15.3582 188.181 14.4872C188.181 13.8341 187.861 13.072 187.22 13.072C186.472 13.072 186.258 13.8341 186.258 14.4872Z" fill="#0767B0"/>
<path d="M192.347 12.0907V13.4259C192.347 13.8709 192.595 13.9822 193.092 13.9822C193.464 13.9822 193.837 13.9822 193.961 13.8709V11.8682H195.824V17.2088H193.961V15.0948C193.589 15.2061 193.34 15.2061 192.347 15.2061C191.477 15.2061 190.484 14.761 190.484 13.5371V11.8682H192.347V12.0907Z" fill="#0767B0"/>
<path d="M198.275 13.7999H199.901V11.8682H201.758V17.2088H199.901V15.0498H198.275V17.2088H196.418V11.8682H198.275V13.7999Z" fill="#0767B0"/>
<path d="M204.146 13.7332H205.043C206.478 13.7332 207.375 14.3266 207.375 15.5134C207.375 16.7002 206.478 17.2088 205.043 17.2088H202.352V11.8682H204.235V13.7332H204.146ZM204.146 15.9372H204.864C205.312 15.9372 205.671 15.8525 205.671 15.4286C205.671 14.92 205.222 14.92 204.684 14.92H204.235V15.9372H204.146ZM210.066 17.2088H208.182V11.8682H210.066V17.2088Z" fill="#0767B0"/>
<path d="M216 12.0255V17.2091H214.22V15.6253L214.338 14.3582L212.321 17.2091H210.659V12.0255H211.549H212.44V13.8302L212.321 15.0973L214.338 12.0255H216ZM212.618 10.6816C212.618 11.104 213.092 11.104 213.448 11.104C213.923 11.104 214.16 10.9985 214.16 10.6816H214.754C214.754 11.4208 214.042 11.7375 213.33 11.7375C212.499 11.7375 212.024 11.4208 211.906 10.6816H212.618Z" fill="#0767B0"/>
<path d="M129.356 20.1758V20.7599H129.82C131.493 20.7599 132.33 21.6779 132.33 22.7627C132.33 23.9309 131.586 24.7654 129.913 24.7654H129.449V25.5164H127.496V24.7654H127.032C125.359 24.7654 124.615 23.9309 124.615 22.7627C124.615 21.6779 125.359 20.7599 127.125 20.7599H127.59V20.1758H129.356ZM127.404 22.0117H127.125C126.567 22.0117 126.288 22.262 126.288 22.7627C126.288 23.1799 126.475 23.5137 127.032 23.5137H127.404V22.0117ZM129.356 23.4303H129.727C130.192 23.4303 130.471 23.0965 130.471 22.6792C130.471 22.1785 130.192 21.9282 129.634 21.9282H129.356V23.4303Z" fill="#0767B0"/>
<path d="M138.161 20.1758V21.3626H134.977V22.1255H137.648V23.3971H134.977V24.2448H138.264V25.5164H132.923V20.1758H138.161Z" fill="#0767B0"/>
<path d="M144.275 20.1758V24.1318H144.791V26.1098H143.071V25.3681H140.577V26.1098H138.857V24.1318H139.287C139.631 23.3901 139.803 22.6483 139.803 21.4944V20.1758H144.275ZM141.437 21.3296V21.9066C141.437 22.7308 141.351 23.5549 141.007 24.1318H142.555V21.3296H141.437Z" fill="#0767B0"/>
<path d="M150.524 20.1758V21.3626H147.501V22.1255H150.121V23.3971H147.501V24.2448H150.725V25.5164H145.385V20.1758H150.524Z" fill="#0767B0"/>
<path d="M153.286 25.5164H151.319V20.1758H154.13C155.816 20.1758 156.659 20.854 156.659 21.956C156.659 23.1428 155.91 23.821 154.223 23.821H153.286V25.5164ZM153.286 22.5494H154.13C154.598 22.5494 154.879 22.3799 154.879 21.956C154.879 21.4474 154.223 21.3626 153.848 21.3626H153.286V22.5494Z" fill="#0767B0"/>
<path d="M160.139 20.1758L162 25.5164H160.3L160.139 24.8382H158.44L158.278 25.5164H156.659L158.52 20.1758H160.139ZM159.815 23.6514L159.249 21.7017L158.763 23.6514H159.815Z" fill="#0767B0"/>
<path d="M167.934 20.1758V25.433H166.26V21.344H165.064V22.8461C165.064 24.9323 164.427 25.5164 163.47 25.5164C163.151 25.5164 162.912 25.5164 162.593 25.433V24.1813C162.673 24.1813 162.753 24.2647 162.992 24.2647C163.311 24.2647 163.47 24.0978 163.47 22.8461V20.1758H167.934Z" fill="#0767B0"/>
<path d="M170.435 22.0408H171.388C172.915 22.0408 173.868 22.6342 173.868 23.821C173.868 25.0078 172.915 25.5164 171.388 25.5164H168.527V20.1758H170.53V22.0408H170.435ZM170.435 24.2448H171.198C171.675 24.2448 172.056 24.1601 172.056 23.7362C172.056 23.2276 171.579 23.2276 171.007 23.2276H170.53V24.2448H170.435Z" fill="#0767B0"/>
<path d="M176.242 22.0408H178.022V20.1758H179.802V25.5164H178.022V23.2276H176.242V25.5164H174.462V20.1758H176.242V22.0408Z" fill="#0767B0"/>
<path d="M182.189 22.0408H183.087C184.522 22.0408 185.419 22.6342 185.419 23.821C185.419 25.0078 184.522 25.5164 183.087 25.5164H180.396V20.1758H182.279V22.0408H182.189ZM182.189 24.2448H182.907C183.356 24.2448 183.715 24.1601 183.715 23.7362C183.715 23.2276 183.266 23.2276 182.728 23.2276H182.279V24.2448H182.189ZM188.11 25.5164H186.226V20.1758H188.11V25.5164Z" fill="#0767B0"/>
<path d="M194.044 20.3331V25.5167H192.264V23.9329L192.382 22.6658L190.365 25.5167H188.703V20.3331H189.593H190.484V22.1378L190.365 23.4049L192.382 20.3331H194.044ZM190.662 18.9893C190.662 19.4116 191.136 19.4116 191.492 19.4116C191.967 19.4116 192.204 19.3061 192.204 18.9893H192.798C192.798 19.7284 192.086 20.0452 191.374 20.0452C190.543 20.0452 190.068 19.7284 189.949 18.9893H190.662Z" fill="#0767B0"/>
<path d="M126.65 28.4839L127.582 30.5438L128.515 28.4839H130.549L128.43 32.5275C127.921 33.443 127.413 33.8245 126.734 33.8245C126.396 33.8245 126.057 33.7482 125.887 33.672V32.5275C125.972 32.5275 126.057 32.6038 126.311 32.6038C126.48 32.6038 126.65 32.5275 126.734 32.2987L124.615 28.4839H126.65Z" fill="#0767B0"/>
<path d="M132.923 30.3688H134.623V28.4839H136.484V33.8245H134.623V31.6254H132.923V33.8245H131.143V28.4839H132.923V30.3688Z" fill="#0767B0"/>
<path d="M142.418 28.4839V33.8245H140.692V32.1752L140.774 30.7615L138.803 33.8245H137.077V28.4839H138.803V30.2118L138.72 31.5469L140.774 28.4839H142.418Z" fill="#0767B0"/>
<path d="M143.097 28.4839H145.853C147.146 28.4839 148.18 28.7935 148.18 29.7997C148.18 30.3415 147.749 30.7285 147.404 30.9607C148.007 31.1155 148.352 31.5799 148.352 32.1991C148.352 33.3601 147.318 33.8245 145.853 33.8245H143.011V28.4839H143.097ZM144.992 30.5737H145.767C146.112 30.5737 146.456 30.4189 146.456 30.1093C146.456 29.7223 146.112 29.7223 145.681 29.7223H144.992V30.5737ZM144.992 32.5087H145.853C146.284 32.5087 146.715 32.4313 146.715 32.0443C146.715 31.5799 146.284 31.5799 145.681 31.5799H145.078V32.5087H144.992Z" fill="#0767B0"/>
<path d="M154.286 28.4839V29.7405H151.043V30.5259H153.714V31.7825H151.043V32.5679H154.286V33.8245H148.945V28.4839H154.286Z" fill="#0767B0"/>
<path d="M156.774 33.8245H154.879V28.4839H157.722C159.445 28.4839 160.22 29.1908 160.22 30.2903C160.22 31.4684 159.445 32.1752 157.808 32.1752H156.86V33.8245H156.774ZM156.774 30.9186H157.549C157.98 30.9186 158.324 30.7615 158.324 30.2903C158.324 29.8191 157.722 29.7405 157.291 29.7405H156.774V30.9186Z" fill="#0767B0"/>
<path d="M164.583 30.5608C164.505 30.0416 164.19 29.7449 163.641 29.7449C163.012 29.7449 162.62 30.2641 162.62 31.2284C162.62 31.9702 162.777 32.6377 163.641 32.6377C164.19 32.6377 164.505 32.2669 164.505 31.7476H166.154C165.997 33.0828 164.976 33.8245 163.641 33.8245C161.913 33.8245 160.813 32.7861 160.813 31.1542C160.813 29.5223 161.991 28.4839 163.484 28.4839C165.133 28.4839 165.997 29.2256 166.154 30.5608H164.583Z" fill="#0767B0"/>
<path d="M172.088 28.4839V33.8245H170.308V32.1752L170.47 30.7615L168.447 33.8245H166.747V28.4839H168.527V30.2118L168.365 31.5469L170.388 28.4839H172.088Z" fill="#0767B0"/>
<path d="M176.797 33.8245H174.596V29.7405H172.681V28.4839H178.615V29.7405H176.797V33.8245Z" fill="#0767B0"/>
<path d="M184.549 28.4839V29.7405H181.27V30.5259H183.894V31.7825H181.27V32.5679H184.549V33.8245H179.209V28.4839H184.549Z" fill="#0767B0"/>
<path d="M188.761 33.8245H186.866V29.7405H185.143V28.4839H190.484V29.7405H188.761V33.8245Z" fill="#0767B0"/>
<path d="M20.1689 11.8682V26.9786H21.956V33.8242H15.6586V31.5702H6.29747V33.8242H0V26.9786H1.61692C2.97853 24.3072 3.40404 21.3852 3.40404 16.9606V11.8682H20.1689ZM9.70149 16.4597V18.6303C9.70149 21.8861 9.36111 24.975 8.08457 26.9786H13.6161V16.4597H9.70149Z" fill="#0767B0"/>
<path d="M24.3297 11.8682H33.9125C38.4472 11.8682 42.0408 12.8681 42.0408 16.7846C42.0408 18.7845 40.6718 20.2845 39.3884 21.0344C41.5274 21.6177 42.7253 23.3676 42.7253 25.5342C42.7253 29.9506 39.3029 31.4506 34.0836 31.4506H24.3297V11.8682ZM30.9178 19.7011H33.6558C34.9392 19.7011 35.8804 19.1178 35.8804 17.9512C35.8804 16.4513 34.597 16.368 33.228 16.368H30.9178V19.7011ZM30.9178 26.9508H33.827C35.4526 26.9508 36.6505 26.6175 36.6505 25.1176C36.6505 23.3676 35.1103 23.2843 33.0569 23.2843H30.9178V26.9508Z" fill="#0767B0"/>
<path d="M60.0521 11.8682V14.1181H61.4947C67.0247 14.1181 69.4286 17.4512 69.4286 21.451C69.4286 25.7008 66.9446 28.7841 61.5748 28.7841H60.0521V31.4506H53.8817V28.7841H52.3591C46.9096 28.7841 44.5055 25.7008 44.5055 21.451C44.5055 17.4512 46.9898 14.1181 52.4392 14.1181H53.8817V11.8682H60.0521ZM53.8817 18.7012H53.0803C51.157 18.7012 50.4358 19.6178 50.4358 21.451C50.4358 23.1176 51.157 24.2009 52.7598 24.2009H53.9618V18.7012H53.8817ZM60.0521 24.2009H61.2544C62.8572 24.2009 63.5782 23.1176 63.5782 21.451C63.5782 19.6178 62.8572 18.7012 60.934 18.7012H60.1323V24.2009H60.0521Z" fill="#0767B0"/>
<path d="M76.7488 11.8682L79.9835 19.386L83.1327 11.8682H90.1978L82.7921 26.7422C81.0902 30.1373 79.3877 31.2691 76.9191 31.4307C75.8124 31.5116 74.3657 31.3499 72.5778 30.8649V26.4997C73.7699 26.7422 74.4506 26.823 75.2167 26.7422C75.8979 26.6614 76.4082 26.4188 76.7488 25.6913L69.4286 11.8682H76.7488Z" fill="#0767B0"/>
</g>
<defs>
<linearGradient id="paint0_linear" x1="117.191" y1="12.7967" x2="98.8421" y2="12.0103" gradientUnits="userSpaceOnUse">
<stop stop-color="#0668B3"/>
<stop offset="0.12" stop-color="#188CCC"/>
<stop offset="0.2909" stop-color="#0668B3"/>
<stop offset="0.62" stop-color="#0859A5"/>
<stop offset="0.8412" stop-color="#214397"/>
<stop offset="1" stop-color="#2E3790"/>
</linearGradient>
<linearGradient id="paint1_linear" x1="117.236" y1="21.5714" x2="97.3584" y2="20.4355" gradientUnits="userSpaceOnUse">
<stop stop-color="#0668B3"/>
<stop offset="0.12" stop-color="#188CCC"/>
<stop offset="0.2909" stop-color="#0668B3"/>
<stop offset="0.62" stop-color="#0859A5"/>
<stop offset="0.8412" stop-color="#214397"/>
<stop offset="1" stop-color="#2E3790"/>
</linearGradient>
<linearGradient id="paint2_linear" x1="110.226" y1="17.2043" x2="97.8195" y2="3.44269" gradientUnits="userSpaceOnUse">
<stop stop-color="#71D0F6"/>
<stop offset="0.2992" stop-color="#40B5E7"/>
<stop offset="0.4" stop-color="#2FABE1"/>
<stop offset="0.4466" stop-color="#2FA1DA"/>
<stop offset="0.8254" stop-color="#2E55A5"/>
<stop offset="1" stop-color="#2E3790"/>
</linearGradient>
<linearGradient id="paint3_linear" x1="106.565" y1="8.74207" x2="101.279" y2="1.22776" gradientUnits="userSpaceOnUse">
<stop stop-color="#71D0F6"/>
<stop offset="0.2992" stop-color="#40B5E7"/>
<stop offset="0.4" stop-color="#2FABE1"/>
<stop offset="0.4466" stop-color="#2FA1DA"/>
<stop offset="0.8254" stop-color="#2E55A5"/>
<stop offset="1" stop-color="#2E3790"/>
</linearGradient>
<linearGradient id="paint4_linear" x1="117.115" y1="31.6086" x2="94.3974" y2="30.5601" gradientUnits="userSpaceOnUse">
<stop stop-color="#0668B3"/>
<stop offset="0.12" stop-color="#188CCC"/>
<stop offset="0.2909" stop-color="#0668B3"/>
<stop offset="0.62" stop-color="#0859A5"/>
<stop offset="0.8412" stop-color="#214397"/>
<stop offset="1" stop-color="#2E3790"/>
</linearGradient>
<linearGradient id="paint5_linear" x1="113.039" y1="27.2698" x2="95.9569" y2="7.26075" gradientUnits="userSpaceOnUse">
<stop stop-color="#71D0F6"/>
<stop offset="0.2992" stop-color="#40B5E7"/>
<stop offset="0.4" stop-color="#2FABE1"/>
<stop offset="0.4466" stop-color="#2FA1DA"/>
<stop offset="0.8254" stop-color="#2E55A5"/>
<stop offset="1" stop-color="#2E3790"/>
</linearGradient>
<clipPath id="clip0">
<rect width="216" height="42.7253" fill="white"/>
</clipPath>
</defs>
</svg>
